<svg width="282" height="233" viewBox="0 0 282 233" fill="none" xmlns="http://www.w3.org/2000/svg">
<g clip-path="url(#clip0_3425_2983)">
<path d="M273.715 1.8975e-06H8.28553C7.19725 -0.000732491 6.11949 0.211713 5.11391 0.625202C4.10834 1.03869 3.19466 1.64512 2.42513 2.40978C1.6556 3.17444 1.04532 4.08234 0.629195 5.08155C0.21307 6.08076 -0.000737159 7.15167 1.90952e-06 8.23305V194.521C1.90952e-06 196.705 0.872938 198.799 2.42677 200.343C3.98061 201.887 6.08807 202.754 8.28553 202.754H110.157C110.157 202.754 116.632 222.667 96.5482 232.966H191.804C191.804 232.966 169.122 225.242 174.94 202.754H273.703C275.901 202.754 278.008 201.887 279.562 200.343C281.116 198.799 281.989 196.705 281.989 194.521V8.23305C281.99 7.15261 281.776 6.08263 281.361 5.08414C280.945 4.08566 280.336 3.17825 279.568 2.41374C278.799 1.64922 277.887 1.04259 276.883 0.628441C275.878 0.214294 274.802 0.00073515 273.715 1.8975e-06Z" fill="#AFCAF9"/>
<path d="M144.541 183.16C148.155 188.288 142.5 193.907 137.34 190.315C137.166 190.196 137.016 190.046 136.896 189.874C133.298 184.746 138.942 179.138 144.097 182.719C144.269 182.84 144.419 182.989 144.541 183.16Z" fill="#1A2E35"/>
<path d="M10.0228 3.41309H271.967C273.413 3.41309 274.8 3.9839 275.822 4.99997C276.845 6.01603 277.419 7.39411 277.419 8.83104V168.683H4.57031V8.83104C4.57031 7.39411 5.14477 6.01603 6.16731 4.99997C7.18985 3.9839 8.5767 3.41309 10.0228 3.41309Z" fill="white"/>
<path d="M9.71363 3.41309H273.186C274.308 3.41309 275.383 3.85562 276.175 4.64333C276.968 5.43104 277.414 6.49941 277.414 7.6134V17.1479H4.57031V8.52384C4.57031 7.16838 5.1122 5.86844 6.07676 4.90999C7.04132 3.95154 8.34954 3.41309 9.71363 3.41309Z" fill="#ECECEC"/>
<path d="M15.1773 10.5622C15.1785 10.9391 15.067 11.3079 14.857 11.6219C14.6471 11.9358 14.3481 12.1808 13.998 12.3258C13.6478 12.4708 13.2622 12.5093 12.89 12.4365C12.5179 12.3636 12.1758 12.1827 11.9072 11.9165C11.6385 11.6504 11.4554 11.311 11.381 10.9414C11.3066 10.5718 11.3442 10.1885 11.4891 9.84016C11.634 9.4918 11.8797 9.194 12.195 8.98446C12.5104 8.77493 12.8812 8.66309 13.2605 8.66309C13.7679 8.66308 14.2546 8.86299 14.6139 9.21898C14.9733 9.57497 15.1759 10.058 15.1773 10.5622Z" fill="#1A2E35"/>
<path d="M20.8883 10.5622C20.8894 10.9391 20.7779 11.3079 20.568 11.6219C20.358 11.9358 20.0591 12.1808 19.7089 12.3258C19.3588 12.4708 18.9732 12.5094 18.601 12.4365C18.2288 12.3636 17.8867 12.1827 17.6181 11.9165C17.3495 11.6504 17.1663 11.311 17.0919 10.9414C17.0175 10.5718 17.0552 10.1885 17.2001 9.84017C17.345 9.49181 17.5907 9.19401 17.906 8.98447C18.2213 8.77494 18.5921 8.6631 18.9715 8.66309C19.2229 8.66236 19.4721 8.71093 19.7046 8.80604C19.9371 8.90115 20.1485 9.04093 20.3265 9.21735C20.5046 9.39377 20.6459 9.60336 20.7423 9.83413C20.8387 10.0649 20.8883 10.3123 20.8883 10.5622Z" fill="#1A2E35"/>
<path d="M26.3414 10.5622C26.3425 10.9391 26.231 11.3079 26.0211 11.6219C25.8112 11.9358 25.5122 12.1808 25.162 12.3258C24.8119 12.4708 24.4263 12.5093 24.0541 12.4365C23.6819 12.3636 23.3399 12.1827 23.0712 11.9165C22.8026 11.6504 22.6195 11.311 22.5451 10.9414C22.4706 10.5718 22.5083 10.1885 22.6532 9.84016C22.7981 9.4918 23.0438 9.194 23.3591 8.98446C23.6744 8.77493 24.0453 8.66309 24.4246 8.66309C24.932 8.66308 25.4187 8.86299 25.778 9.21898C26.1373 9.57497 26.3399 10.058 26.3414 10.5622Z" fill="#1A2E35"/>
<path d="M226.255 202.782C226.255 202.866 188.487 202.938 141.905 202.938C95.3225 202.938 57.543 202.866 57.543 202.782C57.543 202.698 95.3056 202.62 141.905 202.62C188.504 202.62 226.255 202.693 226.255 202.782Z" fill="#1A2E35"/>
<path d="M259.616 71.3437C259.616 71.3437 259.616 71.0644 259.616 70.5394C259.616 70.0144 259.616 69.2324 259.616 68.2214C259.616 66.1827 259.616 63.1944 259.616 59.3572C259.616 51.6883 259.577 40.6401 259.554 27.1008L259.667 27.2181H185.547L185.693 27.0729C185.693 42.7458 185.693 57.7038 185.693 71.3158L185.558 71.1761L238.891 71.2431L254.192 71.2822H258.267H259.324H259.683H259.335H258.301H254.248L238.981 71.3214L185.58 71.3884H185.445V71.2543C185.445 57.6424 185.445 42.6844 185.445 27.0114V26.8662H185.597L259.717 26.8997H259.83V27.0114C259.83 40.5842 259.785 51.6492 259.773 59.3348C259.773 63.1609 259.773 66.1436 259.773 68.1767C259.773 69.1821 259.773 69.9473 259.773 70.4779C259.773 71.0086 259.616 71.3437 259.616 71.3437Z" fill="#1A2E35"/>
<path d="M80.568 168.297C80.4837 168.297 80.4219 134.454 80.4219 92.7249C80.4219 50.9954 80.4837 17.1416 80.568 17.1416C80.6523 17.1416 80.7142 50.9731 80.7142 92.7249C80.7142 134.477 80.6467 168.297 80.568 168.297Z" fill="#1A2E35"/>
<path d="M69.5052 42.7686H23.2266V50.5268H69.5052V42.7686Z" fill="#E1E1E1"/>
<path d="M229.369 66.6187L206.271 66.5852C206.004 66.5852 205.74 66.5328 205.494 66.4312C205.247 66.3295 205.023 66.1804 204.835 65.9926C204.646 65.8048 204.497 65.5818 204.395 65.3366C204.293 65.0913 204.241 64.8285 204.242 64.5632L204.282 33.6306C204.285 33.0958 204.5 32.5838 204.881 32.2061C205.262 31.8285 205.778 31.6157 206.316 31.6143H222.471L231.465 40.3165L231.426 64.58C231.428 64.8488 231.376 65.1154 231.274 65.3641C231.171 65.6128 231.02 65.8387 230.828 66.0285C230.636 66.2184 230.409 66.3684 230.158 66.4697C229.908 66.571 229.639 66.6217 229.369 66.6187Z" fill="#9FB26B"/>
<g opacity="0.3">
<path opacity="0.3" d="M222.473 31.5635V37.7076C222.472 38.0692 222.543 38.4274 222.681 38.7618C222.82 39.0961 223.024 39.4001 223.28 39.6563C223.537 39.9125 223.842 40.116 224.178 40.2551C224.514 40.3941 224.874 40.4661 225.238 40.4668L231.421 40.3383L222.473 31.5635Z" fill="white"/>
</g>
<path d="M225.889 60.5024C225.889 60.5024 225.889 60.3962 225.889 60.2119C225.889 60.0276 225.889 59.7372 225.889 59.3964C225.889 58.6647 225.889 57.6258 225.889 56.3244C225.889 53.6769 225.861 49.929 225.844 45.4382L225.968 45.5611H210.15C210.117 45.589 210.431 45.2874 210.296 45.4159V47.449C210.296 48.1249 210.296 48.7951 210.296 49.4598C210.296 50.7891 210.296 52.0924 210.296 53.3696C210.296 55.8943 210.296 58.2849 210.296 60.4856L210.167 60.3571L221.55 60.4409L224.771 60.4744H225.625H225.929C225.837 60.4797 225.745 60.4797 225.653 60.4744H224.821H221.629L210.167 60.5247H210.043V60.3962C210.043 58.1955 210.043 55.8049 210.043 53.2803V49.3704C210.043 48.7057 210.043 48.0355 210.043 47.3597V45.3265C209.914 45.455 210.223 45.1478 210.195 45.1813L225.934 45.2204H226.064V45.3488C226.064 49.8731 226.007 53.6433 225.985 56.3132C225.985 57.6091 225.985 58.6312 225.951 59.3573C225.951 59.6869 225.951 59.9494 225.951 60.1505C225.946 60.2699 225.925 60.3881 225.889 60.5024Z" fill="white"/>
<path d="M217.885 60.6696C217.801 60.6696 217.739 57.3183 217.744 53.1347C217.75 48.9512 217.823 45.6055 217.902 45.6055C217.981 45.6055 218.048 48.9568 218.042 53.1347C218.037 57.3127 217.964 60.6696 217.885 60.6696Z" fill="white"/>
<path d="M225.857 56.8101C225.857 56.8883 222.316 56.9497 217.948 56.9441C213.58 56.9385 210.039 56.866 210.039 56.7878C210.039 56.7096 213.58 56.6481 217.948 56.6537C222.316 56.6593 225.857 56.7263 225.857 56.8101Z" fill="white"/>
<path d="M226.042 52.9673C226.042 53.0511 222.501 53.107 218.134 53.1014C213.766 53.0958 210.225 53.0288 210.225 52.945C210.225 52.8612 213.766 52.8053 218.134 52.8109C222.501 52.8165 226.042 52.8891 226.042 52.9673Z" fill="white"/>
<path d="M225.929 49.1245C225.929 49.2083 222.415 49.2697 218.059 49.2641C213.703 49.2585 210.189 49.1859 210.189 49.1077C210.189 49.0295 213.703 48.9625 218.059 48.9681C222.415 48.9737 225.929 49.0463 225.929 49.1245Z" fill="white"/>
<path d="M263.176 66.6013H240.939C240.198 66.594 239.49 66.2965 238.969 65.7735C238.448 65.2506 238.156 64.5444 238.156 63.8086V33.2502C238.164 32.5192 238.459 31.8201 238.979 31.3032C239.5 30.7863 240.203 30.4926 240.939 30.4854H255.042L265.958 41.6564V63.8253C265.954 64.5583 265.66 65.2602 265.139 65.7795C264.619 66.2988 263.913 66.594 263.176 66.6013Z" fill="#AFCAF9"/>
<path d="M255.041 30.4854V39.0982C255.041 39.7796 255.313 40.4332 255.798 40.915C256.283 41.3968 256.941 41.6676 257.627 41.6676H265.957L255.041 30.4854Z" fill="#AFCAF9"/>
<g opacity="0.2">
<path opacity="0.2" d="M255.153 39.8525C255.154 40.5073 255.382 41.1418 255.797 41.6501C256.212 42.1584 256.791 42.5097 257.435 42.6453C257.526 42.6711 257.618 42.6916 257.711 42.7067C258.801 42.9022 265.957 44.1646 265.957 44.0026V41.6902H257.627C257.627 41.6902 255.552 41.5952 255.153 39.8525Z" fill="black"/>
</g>
<g opacity="0.3">
<path opacity="0.3" d="M255.041 30.4854V39.0982C255.041 39.7796 255.313 40.4332 255.798 40.915C256.283 41.3968 256.941 41.6676 257.627 41.6676H265.957L255.041 30.4854Z" fill="white"/>
</g>
<path d="M253.175 38.747C253.175 38.8531 250.876 38.9425 248.032 38.9425C245.188 38.9425 242.889 38.8531 242.889 38.747C242.889 38.6408 245.193 38.5459 248.032 38.5459C250.871 38.5459 253.175 38.6185 253.175 38.747Z" fill="#FAFAFA"/>
<path d="M259.819 43.6122C259.819 43.7239 256.031 43.8133 251.354 43.8133C246.677 43.8133 242.889 43.7239 242.889 43.6122C242.889 43.5005 246.677 43.4111 251.354 43.4111C256.031 43.4111 259.819 43.5005 259.819 43.6122Z" fill="#FAFAFA"/>
<path d="M261.348 47.6721C261.348 47.7838 257.217 47.8731 252.119 47.8731C247.02 47.8731 242.889 47.7838 242.889 47.6721C242.889 47.5604 247.02 47.4766 252.119 47.4766C257.217 47.4766 261.348 47.5548 261.348 47.6721Z" fill="#FAFAFA"/>
<path d="M261.348 51.5097C261.348 51.6214 257.217 51.7108 252.119 51.7108C247.02 51.7108 242.889 51.6214 242.889 51.5097C242.889 51.398 247.02 51.3086 252.119 51.3086C257.217 51.3086 261.348 51.398 261.348 51.5097Z" fill="#FAFAFA"/>
<path d="M261.348 55.3417C261.348 55.4534 257.217 55.5428 252.119 55.5428C247.02 55.5428 242.889 55.4534 242.889 55.3417C242.889 55.23 247.02 55.1406 252.119 55.1406C257.217 55.1406 261.348 55.2356 261.348 55.3417Z" fill="#FAFAFA"/>
<path d="M261.348 59.1786C261.348 59.2903 257.217 59.3797 252.119 59.3797C247.02 59.3797 242.889 59.2903 242.889 59.1786C242.889 59.0669 247.02 58.9775 252.119 58.9775C257.217 58.9775 261.348 59.0669 261.348 59.1786Z" fill="#FAFAFA"/>
<path d="M163.254 26.6094H109.105V72.9357H163.254V26.6094Z" fill="#F5F5F5"/>
<path d="M163.259 72.9306C163.259 72.9306 163.259 72.6345 163.259 72.0704C163.259 71.5063 163.259 70.674 163.259 69.5904C163.259 67.4177 163.259 64.2395 163.226 60.1956C163.226 52.1022 163.192 40.5345 163.164 26.6043L163.288 26.7272H109.139L109.285 26.5819C109.285 43.3943 109.285 59.2405 109.285 72.9082L109.156 72.7797L148.302 72.8412L159.364 72.8803H162.293H163.046H162.304H159.398L148.369 72.9138L109.139 72.9809H108.971V72.8524C108.971 59.1846 108.971 43.3385 108.971 26.5261V26.3809H109.122H163.271H163.394V26.5037C163.366 40.4675 163.344 52.0575 163.327 60.1677C163.327 64.206 163.327 67.373 163.299 69.5401C163.299 70.6126 163.299 71.4337 163.299 71.9978C163.299 72.5619 163.259 72.9306 163.259 72.9306Z" fill="#1A2E35"/>
<path d="M110.994 72.8798C110.938 72.824 122.596 62.4125 137.026 49.6384C151.455 36.8643 163.203 26.5479 163.259 26.6037C163.316 26.6596 151.657 37.071 137.222 49.8507C122.787 62.6304 111.045 72.9412 110.994 72.8798Z" fill="#1A2E35"/>
<path d="M163.715 72.9301C163.659 72.9915 151.393 62.6695 136.317 49.8786C121.242 37.0878 109.055 26.6652 109.106 26.6038C109.156 26.5423 121.427 36.8644 136.509 49.6608C151.59 62.4573 163.765 72.8687 163.715 72.9301Z" fill="#1A2E35"/>
<path d="M257.391 81.9336H211.174V121.473H257.391V81.9336Z" fill="#ECECEC"/>
<path d="M257.369 121.468C257.369 121.468 257.369 121.217 257.369 120.731C257.369 120.245 257.369 119.536 257.369 118.614C257.369 116.76 257.369 114.045 257.369 110.593C257.369 103.684 257.33 93.8368 257.301 81.9341L257.425 82.057H211.214L211.36 81.9117C211.36 96.2609 211.36 109.778 211.36 121.446L211.231 121.318L244.637 121.385L254.075 121.418H256.582H257.24H256.61H254.131L244.721 121.452L211.231 121.513H211.102V121.385C211.102 109.716 211.102 96.1995 211.102 81.8503V81.7051H211.253H257.464H257.588V81.8279C257.588 93.7419 257.543 103.639 257.526 110.565C257.526 114.006 257.526 116.71 257.493 118.558C257.493 119.469 257.493 120.173 257.493 120.653C257.493 121.133 257.369 121.468 257.369 121.468Z" fill="#1A2E35"/>
<path d="M212.781 121.429C212.731 121.368 222.675 112.492 234.99 101.573C247.306 90.6529 257.368 81.8725 257.368 81.9339C257.368 81.9954 247.481 90.8707 235.159 101.79C222.838 112.71 212.838 121.491 212.781 121.429Z" fill="#1A2E35"/>
<path d="M257.779 121.468C257.728 121.53 247.25 112.727 234.384 101.813C221.517 90.8987 211.123 81.9954 211.174 81.9339C211.225 81.8725 221.702 90.6697 234.575 101.589C247.447 112.509 257.835 121.407 257.779 121.468Z" fill="#1A2E35"/>
<path d="M17.5093 46.6447C17.5093 47.1484 17.3589 47.6408 17.0773 48.0597C16.7956 48.4785 16.3953 48.805 15.9269 48.9978C15.4586 49.1905 14.9432 49.241 14.446 49.1427C13.9488 49.0444 13.492 48.8019 13.1336 48.4457C12.7751 48.0895 12.531 47.6356 12.4321 47.1415C12.3332 46.6475 12.3839 46.1353 12.5779 45.6699C12.7719 45.2045 13.1005 44.8068 13.522 44.5269C13.9435 44.247 14.4391 44.0977 14.946 44.0977C15.6259 44.0977 16.2778 44.366 16.7585 44.8436C17.2392 45.3213 17.5093 45.9691 17.5093 46.6447Z" fill="#9FB26B"/>
<path d="M69.5052 61.1221H23.2266V68.8804H69.5052V61.1221Z" fill="#E1E1E1"/>
<path d="M17.5093 64.9991C17.5093 65.5029 17.3589 65.9954 17.0773 66.4142C16.7956 66.8331 16.3953 67.1595 15.9269 67.3523C15.4586 67.545 14.9432 67.5955 14.446 67.4972C13.9488 67.3989 13.492 67.1564 13.1336 66.8002C12.7751 66.4439 12.531 65.9901 12.4321 65.4961C12.3332 65.002 12.3839 64.4899 12.5779 64.0245C12.7719 63.5591 13.1005 63.1613 13.522 62.8814C13.9435 62.6015 14.4391 62.4521 14.946 62.4521C15.6259 62.4521 16.2778 62.7205 16.7585 63.1982C17.2392 63.6758 17.5093 64.3236 17.5093 64.9991Z" fill="#E1E1E1"/>
<path d="M69.5052 79.4707H23.2266V87.229H69.5052V79.4707Z" fill="#E1E1E1"/>
<path d="M17.5093 83.3471C17.5104 83.8511 17.361 84.344 17.08 84.7636C16.799 85.1832 16.3991 85.5105 15.9308 85.7041C15.4626 85.8978 14.947 85.949 14.4494 85.8514C13.9518 85.7537 13.4946 85.5116 13.1356 85.1556C12.7765 84.7996 12.5318 84.3458 12.4325 83.8516C12.3331 83.3574 12.3836 82.845 12.5774 82.3792C12.7712 81.9135 13.0998 81.5154 13.5214 81.2353C13.943 80.9552 14.4388 80.8057 14.946 80.8057C15.6249 80.8057 16.276 81.0732 16.7565 81.5497C17.2371 82.0261 17.5078 82.6725 17.5093 83.3471Z" fill="#9FB26B"/>
<path d="M69.5052 97.8252H23.2266V105.583H69.5052V97.8252Z" fill="#E1E1E1"/>
<path d="M17.5093 101.701C17.5093 102.205 17.3589 102.697 17.0773 103.116C16.7956 103.535 16.3953 103.862 15.9269 104.054C15.4586 104.247 14.9432 104.298 14.446 104.199C13.9488 104.101 13.492 103.859 13.1336 103.502C12.7751 103.146 12.531 102.692 12.4321 102.198C12.3332 101.704 12.3839 101.192 12.5779 100.727C12.7719 100.261 13.1005 99.8634 13.522 99.5835C13.9435 99.3037 14.4391 99.1543 14.946 99.1543C15.6259 99.1543 16.2778 99.4226 16.7585 99.9003C17.2392 100.378 17.5093 101.026 17.5093 101.701Z" fill="#E1E1E1"/>
<path d="M69.5052 116.179H23.2266V123.937H69.5052V116.179Z" fill="#E1E1E1"/>
<path d="M17.5093 120.055C17.5093 120.559 17.3589 121.051 17.0773 121.47C16.7956 121.889 16.3953 122.215 15.9269 122.408C15.4586 122.601 14.9432 122.651 14.446 122.553C13.9488 122.455 13.492 122.212 13.1336 121.856C12.7751 121.5 12.531 121.046 12.4321 120.552C12.3332 120.058 12.3839 119.546 12.5779 119.08C12.7719 118.615 13.1005 118.217 13.522 117.937C13.9435 117.657 14.4391 117.508 14.946 117.508C15.6259 117.508 16.2778 117.776 16.7585 118.254C17.2392 118.731 17.5093 119.379 17.5093 120.055Z" fill="#E1E1E1"/>
<path d="M69.5052 134.527H23.2266V142.286H69.5052V134.527Z" fill="#E1E1E1"/>
<path d="M17.5093 138.403C17.5093 138.907 17.3589 139.4 17.0773 139.818C16.7956 140.237 16.3953 140.564 15.9269 140.757C15.4586 140.949 14.9432 141 14.446 140.902C13.9488 140.803 13.492 140.561 13.1336 140.204C12.7751 139.848 12.531 139.394 12.4321 138.9C12.3332 138.406 12.3839 137.894 12.5779 137.429C12.7719 136.963 13.1005 136.566 13.522 136.286C13.9435 136.006 14.4391 135.856 14.946 135.856C15.6259 135.856 16.2778 136.125 16.7585 136.602C17.2392 137.08 17.5093 137.728 17.5093 138.403Z" fill="#9FB26B"/>
<path d="M199.798 121.323C199.798 121.323 199.798 121.256 199.798 121.133C199.798 121.01 199.798 120.82 199.798 120.575C199.798 120.077 199.798 119.368 199.798 118.441C199.798 116.575 199.798 113.861 199.764 110.42C199.764 103.533 199.725 93.7362 199.702 82.0625L199.831 82.1965H166.408L166.554 82.0513C166.554 96.5736 166.554 110.046 166.554 121.301L166.431 121.178L190.658 121.245H197.437H199.23H199.854C199.854 121.245 199.657 121.245 199.258 121.245H197.487L190.742 121.278L166.442 121.34H166.318V121.217C166.318 109.962 166.318 96.4619 166.318 81.9675V81.8223H166.465H199.888H200.017V81.9508C200.017 93.6803 199.966 103.483 199.949 110.392C199.949 113.822 199.949 116.536 199.916 118.385C199.916 119.301 199.916 120.005 199.916 120.491C199.916 120.72 199.916 120.899 199.916 121.049C199.916 121.2 199.798 121.323 199.798 121.323Z" fill="#1A2E35"/>
<path d="M199.796 129.975H166.373V163.186H199.796V129.975Z" fill="#ECECEC"/>
<path d="M259.639 131.506H208.031V164.717H259.639V131.506Z" fill="#ECECEC"/>
<path d="M157.458 82.0791H106.188V121.329H157.458V82.0791Z" fill="#ECECEC"/>
<path d="M156.188 163.175C156.188 163.175 156.188 162.952 156.188 162.538C156.188 162.125 156.188 161.499 156.188 160.701C156.188 159.086 156.188 156.729 156.154 153.719C156.154 147.686 156.121 139.029 156.093 128.489L156.211 128.606H104.946L105.092 128.461C105.092 140.833 105.092 152.596 105.092 163.147L104.957 163.013L141.888 163.08L152.439 163.114H155.249H155.98H156.228H155.991H155.283H152.501L141.978 163.147L104.957 163.214H104.828V163.175C104.828 152.624 104.828 140.833 104.828 128.489V128.344H104.98L156.244 128.372H156.362V128.489C156.362 139.062 156.318 147.742 156.301 153.791C156.301 156.791 156.301 159.142 156.273 160.751C156.273 161.537 156.273 162.14 156.273 162.561C156.188 162.98 156.188 163.175 156.188 163.175Z" fill="#1A2E35"/>
<path d="M147.065 90.4241C147.314 90.4256 147.56 90.4757 147.789 90.5717C148.019 90.6676 148.227 90.8075 148.401 90.9833C148.576 91.1591 148.715 91.3675 148.808 91.5964C148.902 91.8253 148.95 92.0704 148.948 92.3176V93.9151L148.842 108.315C148.842 108.478 148.809 108.64 148.746 108.79C148.683 108.941 148.591 109.078 148.474 109.193C148.358 109.309 148.219 109.4 148.067 109.462C147.915 109.524 147.752 109.555 147.588 109.555L114.424 109.314C114.106 109.312 113.801 109.188 113.572 108.969C113.343 108.75 113.207 108.451 113.192 108.136L112.192 89.6366C112.181 89.4673 112.205 89.2976 112.263 89.138C112.321 88.9784 112.411 88.8323 112.528 88.7087C112.645 88.5852 112.787 88.4868 112.943 88.4196C113.1 88.3525 113.269 88.318 113.44 88.3184L120.944 88.3742C121.654 88.381 122.338 88.6361 122.878 89.0948L124.412 90.4129L147.065 90.4241Z" fill="#9FB26B"/>
<g opacity="0.3">
<path opacity="0.3" d="M147.065 90.4241C147.314 90.4256 147.56 90.4757 147.789 90.5717C148.019 90.6676 148.227 90.8075 148.401 90.9833C148.576 91.1591 148.715 91.3675 148.808 91.5964C148.902 91.8253 148.95 92.0704 148.948 92.3176V93.9151L148.842 108.315C148.842 108.478 148.809 108.64 148.746 108.79C148.683 108.941 148.591 109.078 148.474 109.193C148.358 109.309 148.219 109.4 148.067 109.462C147.915 109.524 147.752 109.555 147.588 109.555L114.424 109.314C114.106 109.312 113.801 109.188 113.572 108.969C113.343 108.75 113.207 108.451 113.192 108.136L112.192 89.6366C112.181 89.4673 112.205 89.2976 112.263 89.138C112.321 88.9784 112.411 88.8323 112.528 88.7087C112.645 88.5852 112.787 88.4868 112.943 88.4196C113.1 88.3525 113.269 88.318 113.44 88.3184L120.944 88.3742C121.654 88.381 122.338 88.6361 122.878 89.0948L124.412 90.4129L147.065 90.4241Z" fill="black"/>
</g>
<path d="M149.52 92.3938L113.281 92.1299L113.121 113.863L149.359 114.127L149.52 92.3938Z" fill="#F5F5F5"/>
<path d="M110.388 94.0489L112.985 116.737C113.007 116.93 113.099 117.109 113.243 117.24C113.388 117.37 113.576 117.444 113.772 117.447L149.095 117.704C149.297 117.703 149.492 117.627 149.641 117.49C149.79 117.354 149.882 117.167 149.899 116.966L151.844 94.317C151.853 94.2073 151.839 94.0969 151.804 93.9926C151.768 93.8882 151.712 93.7923 151.637 93.7106C151.563 93.6289 151.473 93.5632 151.372 93.5177C151.271 93.4721 151.162 93.4476 151.051 93.4457L111.186 93.1553C111.073 93.1561 110.961 93.1807 110.858 93.2272C110.754 93.2738 110.662 93.3414 110.587 93.4257C110.512 93.5099 110.455 93.6089 110.421 93.7163C110.386 93.8237 110.375 93.937 110.388 94.0489Z" fill="#9FB26B"/>
<path d="M215.886 86.1315L215.846 123.968L263.473 124.017L263.513 86.181L215.886 86.1315Z" fill="#ECECEC"/>
<path d="M263.551 86.2178H262.651H260.065H250.318H215.929L216.052 86.1005C216.052 97.3609 216.052 110.269 216.024 123.931L215.884 123.797L263.511 123.87L263.393 123.987C263.433 112.593 263.466 103.148 263.489 96.5455C263.489 93.2444 263.489 90.6527 263.522 88.8765C263.522 87.994 263.522 87.3182 263.522 86.8546C263.522 86.391 263.522 86.1508 263.522 86.1508C263.522 86.1508 263.522 86.3742 263.522 86.8266C263.522 87.2791 263.522 87.9438 263.522 88.8319C263.522 90.5969 263.522 93.183 263.522 96.4729C263.522 103.097 263.522 112.565 263.551 123.987V124.099H263.438H215.81H215.67V123.959C215.67 110.297 215.715 97.3889 215.732 86.1229V86H215.855L250.324 86.0949L260.043 86.1396H262.606H263.264L263.551 86.2178Z" fill="#1A2E35"/>
<path d="M217.525 88.5121L217.49 121.584L261.773 121.63L261.808 88.5582L217.525 88.5121Z" fill="#9FB26B"/>
<path d="M217.514 121.625L233 101.081L242.567 113.956L249.071 107.085L261.791 121.669L217.514 121.625Z" fill="#9FB26B"/>
<path d="M246.655 98.5789C246.655 99.2652 246.45 99.9361 246.067 100.507C245.683 101.077 245.137 101.522 244.499 101.784C243.861 102.046 243.159 102.115 242.481 101.98C241.804 101.846 241.182 101.515 240.694 101.03C240.206 100.544 239.874 99.9254 239.74 99.2522C239.606 98.579 239.676 97.8814 239.941 97.2477C240.206 96.614 240.654 96.0727 241.229 95.6922C241.804 95.3117 242.48 95.1093 243.17 95.1104C244.095 95.1118 244.981 95.4779 245.635 96.1283C246.288 96.7786 246.655 97.66 246.655 98.5789Z" fill="#9FB26B"/>
<g opacity="0.2">
<path opacity="0.2" d="M217.514 121.625L233 101.081L242.567 113.956L249.071 107.085L261.791 121.669L217.514 121.625Z" fill="black"/>
</g>
<g opacity="0.2">
<path opacity="0.2" d="M246.655 98.5789C246.655 99.2652 246.45 99.9361 246.067 100.507C245.683 101.077 245.137 101.522 244.499 101.784C243.861 102.046 243.159 102.115 242.481 101.98C241.804 101.846 241.182 101.515 240.694 101.03C240.206 100.544 239.874 99.9254 239.74 99.2522C239.606 98.579 239.676 97.8814 239.941 97.2477C240.206 96.614 240.654 96.0727 241.229 95.6922C241.804 95.3117 242.48 95.1093 243.17 95.1104C244.095 95.1118 244.981 95.4779 245.635 96.1283C246.288 96.7786 246.655 97.66 246.655 98.5789Z" fill="black"/>
</g>
<path d="M102.242 29.5573L102.199 70.6221L153.891 70.6759L153.934 29.6111L102.242 29.5573Z" fill="#ECECEC"/>
<path d="M153.94 29.6482H153.693H152.968H150.157H139.578L102.254 29.6761L102.389 29.5421C102.389 41.7632 102.389 55.794 102.355 70.6012L102.209 70.4504L153.895 70.5342L153.772 70.6571C153.811 58.2907 153.845 48.0413 153.867 40.8751C153.867 37.2892 153.901 34.4797 153.912 32.5527C153.912 31.5976 153.912 30.877 153.912 30.3576C153.912 29.8381 153.912 29.5924 153.912 29.5924C153.912 29.5924 153.912 29.8381 153.912 30.3296C153.912 30.8211 153.912 31.5529 153.912 32.5024C153.912 34.4238 153.912 37.2222 153.912 40.7969C153.912 47.9855 153.912 58.2572 153.912 70.6571V70.78H153.788L102.226 70.8023H102.074V70.6571C102.074 55.8275 102.119 41.819 102.136 29.5979V29.4639H102.271L139.679 29.5756L150.23 29.6203H153.013H153.727L153.94 29.6482Z" fill="#1A2E35"/>
<path d="M104.02 32.1504L103.982 68.043L152.043 68.093L152.081 32.2004L104.02 32.1504Z" fill="#9FB26B"/>
<path d="M103.996 68.076L120.809 45.7842L131.191 59.7536L138.251 52.2969L152.057 68.1263L103.996 68.076Z" fill="#9FB26B"/>
<path d="M135.621 43.0869C135.62 43.8304 135.397 44.5568 134.98 45.1744C134.563 45.7919 133.972 46.2729 133.28 46.5564C132.589 46.8399 131.828 46.9132 131.094 46.7671C130.361 46.6209 129.687 46.2619 129.159 45.7354C128.63 45.2089 128.271 44.5386 128.126 43.8092C127.981 43.0798 128.057 42.3241 128.345 41.6376C128.632 40.9512 129.118 40.3648 129.741 39.9527C130.363 39.5406 131.095 39.3212 131.843 39.3223C132.34 39.3223 132.832 39.4197 133.291 39.609C133.75 39.7984 134.167 40.0758 134.518 40.4256C134.869 40.7753 135.147 41.1904 135.336 41.6471C135.526 42.1038 135.622 42.5931 135.621 43.0869Z" fill="#9FB26B"/>
<g opacity="0.2">
<path opacity="0.2" d="M103.996 68.076L120.809 45.7842L131.191 59.7536L138.251 52.2969L152.057 68.1263L103.996 68.076Z" fill="black"/>
</g>
<g opacity="0.2">
<path opacity="0.2" d="M135.621 43.0869C135.62 43.8304 135.397 44.5568 134.98 45.1744C134.563 45.7919 133.972 46.2729 133.28 46.5564C132.589 46.8399 131.828 46.9132 131.094 46.7671C130.361 46.6209 129.687 46.2619 129.159 45.7354C128.63 45.2089 128.271 44.5386 128.126 43.8092C127.981 43.0798 128.057 42.3241 128.345 41.6376C128.632 40.9512 129.118 40.3648 129.741 39.9527C130.363 39.5406 131.095 39.3212 131.843 39.3223C132.34 39.3223 132.832 39.4197 133.291 39.609C133.75 39.7984 134.167 40.0758 134.518 40.4256C134.869 40.7753 135.147 41.1904 135.336 41.6471C135.526 42.1038 135.622 42.5931 135.621 43.0869Z" fill="black"/>
</g>
<path d="M150.179 70.8355H153.332L153.63 66.5961L154.125 62.8649L154.001 56.8438L157.037 60.0833C157.312 60.4882 157.482 60.9545 157.531 61.4406L158.049 72.8909L158.189 77.795L152.658 81.3754V75.5385L151.337 74.1812C150.537 73.253 150.122 72.0565 150.179 70.8355Z" fill="#CE8D84"/>
<path d="M156.958 66.6069C156.211 65.3469 155.349 64.1578 154.383 63.0545C154.078 62.6732 153.695 62.3609 153.259 62.1385C153.045 62.0278 152.804 61.9801 152.564 62.0008C152.324 62.0216 152.095 62.1101 151.904 62.2558C151.719 62.4564 151.601 62.7085 151.564 62.9782C151.528 63.2479 151.576 63.5222 151.702 63.7639C151.966 64.2411 152.304 64.6745 152.702 65.0486C153.107 65.4205 153.384 65.9088 153.495 66.4449C153.5 66.9566 153.414 67.4652 153.242 67.9474C153.06 68.7624 153.089 69.6102 153.328 70.4107C153.567 71.2111 154.008 71.9378 154.608 72.522" fill="#CE8D84"/>
<path d="M154.636 72.5221C154.636 72.5221 154.467 72.3211 154.192 71.9636C153.813 71.4263 153.542 70.8213 153.394 70.1818C153.288 69.7432 153.246 69.2917 153.27 68.8413C153.312 68.3212 153.414 67.8077 153.574 67.3109C153.659 67.0209 153.683 66.7169 153.647 66.4172C153.596 66.1013 153.473 65.8012 153.287 65.5403C152.933 65.0096 152.427 64.6075 152.073 64.0992C151.893 63.8622 151.777 63.5834 151.736 63.2893C151.694 63.0162 151.756 62.7376 151.91 62.5073C152.089 62.3163 152.33 62.1938 152.591 62.1612C152.852 62.1285 153.116 62.1878 153.338 62.3286C153.771 62.6045 154.151 62.9543 154.462 63.3619C154.788 63.7361 155.08 64.088 155.339 64.4231C155.861 65.0822 156.249 65.6464 156.519 66.0318C156.644 66.2429 156.787 66.4428 156.946 66.6294C156.862 66.3983 156.749 66.1787 156.609 65.9759C156.367 65.5682 156.002 64.9873 155.485 64.3002C155.238 63.9614 154.951 63.589 154.625 63.1831C154.304 62.7398 153.901 62.3607 153.439 62.066C153.166 61.9111 152.853 61.8375 152.539 61.8538C152.369 61.8599 152.201 61.9037 152.05 61.9819C151.898 62.0602 151.766 62.1709 151.662 62.3062C151.488 62.603 151.409 62.9461 151.437 63.2888C151.465 63.6315 151.599 63.9574 151.82 64.2221C152.208 64.7806 152.714 65.166 153.04 65.652C153.202 65.8785 153.311 66.1379 153.36 66.4116C153.393 66.6811 153.372 66.9544 153.298 67.2159C153.144 67.7284 153.049 68.257 153.017 68.791C153.002 69.2619 153.057 69.7325 153.18 70.1874C153.345 70.8473 153.654 71.4632 154.085 71.9915C154.198 72.1348 154.324 72.2675 154.462 72.3881C154.574 72.4812 154.632 72.5259 154.636 72.5221Z" fill="#966360"/>
<path d="M177.313 212.557L179.612 223.728C179.612 223.728 168.96 229.8 169.185 231.906L191.107 228.258L188.246 210.72L177.313 212.557Z" fill="#9FB26B"/>
<g opacity="0.3">
<path opacity="0.3" d="M177.313 212.557L179.612 223.728C179.612 223.728 168.96 229.8 169.185 231.906L191.107 228.258L188.246 210.72L177.313 212.557Z" fill="black"/>
</g>
<path d="M186.234 221.645C186.456 221.673 186.66 221.783 186.806 221.952C186.953 222.121 187.031 222.338 187.026 222.56C187.004 222.781 186.898 222.985 186.73 223.131C186.562 223.277 186.344 223.355 186.121 223.348C185.887 223.315 185.673 223.198 185.519 223.019C185.366 222.84 185.284 222.611 185.289 222.376C185.336 222.148 185.469 221.946 185.662 221.812C185.855 221.679 186.092 221.625 186.324 221.661" fill="#E1E1E1"/>
<path d="M191.129 228.247L190.769 226.487L169.864 230.643C169.864 230.643 168.959 231.202 169.184 231.894L191.129 228.247Z" fill="#1A2E35"/>
<path d="M179.234 223.667C179.234 223.773 179.796 223.734 180.387 223.985C180.977 224.237 181.325 224.644 181.415 224.583C181.505 224.522 181.247 223.935 180.533 223.645C179.819 223.354 179.195 223.572 179.234 223.667Z" fill="#1A2E35"/>
<path d="M177.094 224.996C177.094 225.102 177.583 225.208 178.022 225.599C178.46 225.99 178.646 226.448 178.752 226.426C178.859 226.403 178.825 225.789 178.269 225.308C177.712 224.828 177.077 224.895 177.094 224.996Z" fill="#1A2E35"/>
<path d="M176.244 227.967C176.345 227.967 176.407 227.409 176.03 226.85C175.653 226.292 175.119 226.163 175.091 226.292C175.063 226.42 175.423 226.644 175.721 227.091C176.019 227.537 176.137 227.967 176.244 227.967Z" fill="#1A2E35"/>
<path d="M178.992 221.064C179.054 221.153 179.521 220.924 180.116 220.868C180.712 220.812 181.241 220.918 181.274 220.818C181.308 220.717 180.797 220.41 180.077 220.494C179.358 220.578 178.93 220.991 178.992 221.064Z" fill="#1A2E35"/>
<path d="M184.541 215.121L184.94 226.51C184.94 226.51 173.422 230.732 173.287 232.844H195.535L195.654 215.076L184.541 215.121Z" fill="#9FB26B"/>
<path d="M191.82 225.554C192.033 225.619 192.215 225.76 192.33 225.949C192.445 226.139 192.486 226.364 192.444 226.582C192.387 226.797 192.249 226.981 192.058 227.098C191.868 227.214 191.64 227.254 191.421 227.208C191.19 227.138 190.993 226.985 190.871 226.778C190.749 226.57 190.711 226.325 190.763 226.09C190.84 225.87 191.001 225.688 191.211 225.584C191.421 225.479 191.664 225.461 191.888 225.532" fill="#E1E1E1"/>
<path d="M195.537 232.866L195.481 231.078L174.177 231.715C174.177 231.715 173.182 232.145 173.294 232.832L195.537 232.866Z" fill="#1A2E35"/>
<path d="M184.575 226.386C184.575 226.498 185.137 226.548 185.66 226.895C186.182 227.241 186.475 227.693 186.576 227.654C186.677 227.615 186.514 226.984 185.862 226.576C185.21 226.169 184.552 226.291 184.575 226.386Z" fill="#1A2E35"/>
<path d="M182.242 227.342C182.242 227.448 182.686 227.633 183.057 228.091C183.428 228.549 183.529 229.029 183.619 229.024C183.709 229.018 183.799 228.409 183.333 227.851C182.866 227.292 182.242 227.242 182.242 227.342Z" fill="#1A2E35"/>
<path d="M180.921 230.117C181.017 230.117 181.168 229.604 180.893 229C180.618 228.397 180.106 228.174 180.061 228.263C180.016 228.352 180.325 228.665 180.55 229.157C180.775 229.648 180.803 230.106 180.921 230.117Z" fill="#1A2E35"/>
<path d="M184.778 223.784C184.823 223.885 185.34 223.734 185.936 223.784C186.532 223.835 187.026 224.019 187.06 223.924C187.094 223.829 186.661 223.449 185.936 223.404C185.211 223.36 184.722 223.7 184.778 223.784Z" fill="#1A2E35"/>
<path d="M198.729 126.406L198.623 137.683L195.868 172.727C195.868 172.727 197.228 189.746 198.066 199.359C198.797 207.703 197.347 222.215 197.347 222.215L183.187 222.086L178.566 173.61L175.7 143.375L170.641 127.629L198.729 126.406Z" fill="#5E3B3B"/>
<path d="M163.788 129.556L163.676 175.324C163.67 177.658 164.092 179.973 164.924 182.155L177.656 215.613L178.291 217.847L186.767 215.892L181.146 126.725L163.788 129.556Z" fill="#5E3B3B"/>
<path d="M175.79 137.443C175.784 137.516 175.784 137.589 175.79 137.661C175.79 137.823 175.79 138.035 175.79 138.309C175.79 138.868 175.818 139.722 175.835 140.784C175.874 142.94 175.992 146.051 176.155 149.893C176.515 157.585 177.212 168.192 178.347 179.877C179.483 191.562 180.72 202.113 181.636 209.742C182.102 213.546 182.479 216.629 182.76 218.78C182.895 219.83 183.002 220.656 183.075 221.232C183.114 221.5 183.142 221.712 183.165 221.869C183.168 221.943 183.181 222.016 183.204 222.086C183.208 222.014 183.208 221.941 183.204 221.869C183.204 221.707 183.17 221.494 183.142 221.226C183.08 220.668 182.99 219.824 182.878 218.763C182.636 216.613 182.288 213.524 181.855 209.72C180.984 202.079 179.758 191.528 178.645 179.843C177.532 168.158 176.785 157.568 176.397 149.882C176.206 146.039 176.06 142.934 175.992 140.784C175.947 139.717 175.913 138.884 175.891 138.304C175.891 138.035 175.891 137.818 175.891 137.661C175.864 137.586 175.83 137.513 175.79 137.443Z" fill="#AFCAF9"/>
<path d="M188.01 129.478C188.008 129.651 188.027 129.823 188.066 129.992C188.152 130.459 188.282 130.917 188.454 131.36C189.016 132.836 189.959 134.139 191.189 135.138C192.418 136.137 193.89 136.797 195.458 137.052C195.928 137.129 196.404 137.167 196.88 137.163C197.056 137.171 197.232 137.154 197.403 137.113C197.403 137.063 196.655 137.113 195.492 136.873C193.973 136.575 192.552 135.91 191.355 134.935C190.158 133.961 189.221 132.708 188.628 131.287C188.167 130.221 188.06 129.466 188.01 129.478Z" fill="#AFCAF9"/>
<path d="M174.945 131.489C174.945 131.584 174.963 131.679 174.999 131.767C175.035 131.856 175.088 131.936 175.155 132.004C175.223 132.072 175.303 132.126 175.391 132.163C175.48 132.201 175.574 132.22 175.67 132.221C175.815 132.222 175.957 132.18 176.077 132.102C176.198 132.023 176.293 131.91 176.349 131.778C176.405 131.645 176.421 131.5 176.394 131.359C176.367 131.217 176.298 131.088 176.197 130.985C176.095 130.883 175.966 130.813 175.824 130.784C175.683 130.755 175.536 130.768 175.402 130.822C175.268 130.876 175.153 130.968 175.072 131.087C174.99 131.205 174.946 131.345 174.945 131.489Z" fill="#AFCAF9"/>
<path d="M163.552 137.091C163.934 136.836 164.275 136.525 164.564 136.169C166.042 134.511 166.991 132.454 167.29 130.26C167.373 129.812 167.388 129.354 167.335 128.902C167.29 128.902 167.257 129.416 167.105 130.232C166.711 132.364 165.787 134.364 164.418 136.052C163.895 136.694 163.524 137.057 163.552 137.091Z" fill="#AFCAF9"/>
<path d="M172.069 71.6621C172.069 71.6621 168.134 74.8124 166.611 78.3257C165.274 81.1924 163.759 83.9737 162.074 86.6537L159.039 76.4266L151.344 80.2247C151.344 80.2247 153.997 96.2831 154.604 98.1598C155.436 100.763 157.364 103.07 160.315 102.746C163.266 102.422 164.992 101.098 166.886 98.2771L169.427 93.535L172.069 71.6621Z" fill="#F75D59"/>
<path d="M191.236 64.6133C191.236 64.6133 202.411 69.8693 204.783 73.053C207.661 76.9126 200.09 89.5359 199.55 92.647C199.286 94.1439 197.622 105.36 198.645 114.174C199.312 120.032 199.633 125.923 199.606 131.818L163.788 129.556C163.682 123.356 165.216 118.547 166.155 110.655L168.403 84.9278L172.063 71.6622L177.549 69.2493L191.236 64.6133Z" fill="#F75D59"/>
<path d="M168.987 80.582C168.96 80.6712 168.941 80.7629 168.931 80.8557C168.903 81.068 168.864 81.3249 168.819 81.6433C168.729 82.3247 168.605 83.3189 168.465 84.5366C168.184 86.9886 167.829 90.3734 167.498 94.1213C167.166 97.8692 166.936 101.265 166.767 103.728C166.694 104.957 166.638 105.963 166.61 106.644C166.61 106.962 166.61 107.203 166.582 107.437C166.572 107.528 166.572 107.62 166.582 107.711C166.614 107.623 166.631 107.531 166.632 107.437C166.632 107.225 166.677 106.968 166.711 106.65C166.773 105.924 166.857 104.94 166.958 103.74C167.172 101.248 167.458 97.8748 167.773 94.1492C168.088 90.4237 168.425 87.0501 168.656 84.5589C168.763 83.3636 168.853 82.3806 168.92 81.6544C168.92 81.3361 168.965 81.0959 168.982 80.8613C168.998 80.7691 169 80.6749 168.987 80.582Z" fill="#1A2E35"/>
<path d="M195.974 82.7438C196.025 82.7438 195.974 82.0065 196.188 80.8559C196.461 79.3536 197.102 77.9414 198.055 76.7441C199.008 75.5468 200.243 74.6013 201.651 73.9913C202.731 73.5165 203.467 73.3992 203.456 73.3489C203.282 73.3397 203.107 73.3586 202.939 73.4048C202.473 73.4962 202.017 73.6328 201.578 73.8126C200.108 74.3873 198.817 75.3387 197.837 76.5699C196.856 77.8011 196.221 79.2683 195.997 80.8224C195.925 81.288 195.897 81.7592 195.912 82.2299C195.907 82.4033 195.928 82.5765 195.974 82.7438Z" fill="#1A2E35"/>
<path d="M172.416 113.023C172.651 113.007 172.885 112.97 173.113 112.911C173.741 112.781 174.36 112.615 174.968 112.414C175.877 112.125 176.765 111.776 177.627 111.369C178.678 110.864 179.693 110.285 180.662 109.638C181.626 108.98 182.541 108.254 183.4 107.465C184.095 106.817 184.746 106.125 185.35 105.393C185.755 104.903 186.13 104.39 186.475 103.857C186.615 103.669 186.736 103.467 186.834 103.254C186.789 103.226 186.238 104.058 185.176 105.264C184.559 105.973 183.9 106.644 183.203 107.275C182.344 108.045 181.436 108.758 180.482 109.409C179.523 110.048 178.525 110.626 177.492 111.14C176.644 111.552 175.773 111.915 174.884 112.23C173.383 112.76 172.405 112.972 172.416 113.023Z" fill="#1A2E35"/>
<g opacity="0.3">
<path opacity="0.3" d="M197.784 90.167C200.319 103.757 199.397 118.173 196.097 131.595L195.181 131.539C194.18 117.759 195.316 103.768 197.784 90.167Z" fill="black"/>
</g>
<path d="M197.223 134.281L197.01 137.392C197.01 137.392 194.632 138.677 193.789 139.56C192.946 140.442 190.512 145.112 190.512 145.112C190.737 145.321 191.03 145.445 191.338 145.462C191.646 145.479 191.95 145.389 192.198 145.207C192.835 144.42 193.412 143.588 193.924 142.715C194.143 142.669 194.37 142.677 194.585 142.74C194.8 142.803 194.995 142.918 195.154 143.075C195.313 143.232 195.429 143.426 195.493 143.639C195.557 143.853 195.566 144.078 195.52 144.296C195.222 145.687 194.879 147.312 194.874 147.525C194.868 147.737 193.502 149.094 192.468 150.072C192.334 150.203 192.246 150.374 192.215 150.558C192.184 150.743 192.212 150.932 192.296 151.1C192.379 151.268 192.513 151.405 192.679 151.493C192.845 151.581 193.035 151.615 193.221 151.591C193.3 151.571 193.373 151.533 193.435 151.479C193.435 151.479 193.334 152.954 195.357 151.742C195.357 151.742 197.178 152.149 198.05 151.116C198.05 151.116 200.27 150.77 201.057 150.116C201.844 149.463 203.496 142.738 203.496 142.738L204.413 135.588L197.223 134.281Z" fill="#CE8D84"/>
<path d="M197.587 145.022C197.649 145.428 197.649 145.84 197.587 146.246C197.531 147.229 197.244 148.185 196.75 149.038C196.176 149.846 195.401 150.493 194.501 150.915C194.152 151.124 193.773 151.278 193.377 151.373C193.684 151.118 194.02 150.898 194.378 150.72C195.202 150.262 195.914 149.629 196.463 148.865C196.933 148.041 197.233 147.131 197.345 146.19C197.383 145.793 197.465 145.402 197.587 145.022Z" fill="#966360"/>
<path d="M199.139 145.815C199.248 146.178 199.265 146.562 199.19 146.933C199.151 147.334 199.081 147.731 198.982 148.122C198.874 148.617 198.665 149.085 198.369 149.496C198.035 149.867 197.658 150.197 197.245 150.479L196.295 151.178C196.015 151.408 195.702 151.596 195.367 151.736C195.593 151.448 195.857 151.192 196.154 150.976C196.407 150.759 196.716 150.502 197.065 150.228C197.44 149.944 197.787 149.624 198.099 149.273C198.363 148.892 198.553 148.466 198.661 148.016C198.77 147.648 198.86 147.276 198.931 146.899C199.094 146.234 199.094 145.815 199.139 145.815Z" fill="#966360"/>
<path d="M200.854 146.865C200.977 146.865 200.685 148.094 200.241 149.513C200.177 149.708 200.063 149.883 199.909 150.021C199.787 150.144 199.658 150.26 199.521 150.367C199.296 150.552 199.053 150.715 198.796 150.853C198.358 151.093 198.049 151.149 198.037 151.116C198.026 151.082 198.29 150.943 198.678 150.663C198.909 150.505 199.129 150.331 199.336 150.144C199.459 150.038 199.575 149.924 199.684 149.803C199.799 149.696 199.888 149.564 199.943 149.418C200.162 148.692 200.387 148.06 200.55 147.602C200.624 147.346 200.726 147.099 200.854 146.865Z" fill="#966360"/>
<path d="M204.784 73.0527C204.784 73.0527 209.185 78.2975 209.281 82.6431C209.376 86.9886 210.765 115.011 210.765 115.011L205.143 138.47L195.486 136.236L198.482 111.554L197.785 90.1667L204.784 73.0527Z" fill="#F75D59"/>
<path d="M205.137 138.488C205.137 138.488 205.086 138.488 204.974 138.432L204.473 138.298L202.557 137.823L195.502 136.147L195.581 136.259C196.222 131.321 197.07 124.77 197.998 117.598C198.211 115.922 198.425 114.246 198.627 112.627C198.397 105.924 198.195 100.009 198.065 95.7584C197.981 93.6582 197.914 91.9714 197.863 90.7817L197.795 89.4411C197.795 89.3015 197.795 89.1898 197.795 89.0948C197.803 89.0561 197.803 89.0163 197.795 88.9775C197.79 89.0183 197.79 89.0597 197.795 89.1004C197.795 89.1898 197.795 89.3071 197.795 89.4467C197.795 89.7707 197.795 90.2176 197.795 90.7873C197.795 91.9714 197.863 93.6638 197.908 95.764C198.032 100.015 198.206 105.918 198.397 112.638C198.189 114.241 197.975 115.905 197.756 117.609C196.857 124.781 196.036 131.333 195.412 136.276V136.371H195.508L202.579 137.974L204.513 138.398L205.013 138.499L205.137 138.488Z" fill="#1A2E35"/>
<g opacity="0.3">
<path opacity="0.3" d="M182.202 113.704C178.481 115.305 174.485 116.181 170.432 116.285C171.061 117.201 172.23 117.402 173.338 117.463C174.432 117.535 175.531 117.41 176.581 117.095C178.61 116.441 180.994 115.452 182.202 113.704Z" fill="black"/>
</g>
<g opacity="0.3">
<path opacity="0.3" d="M162.084 86.6533C162.606 89.242 162.708 91.8969 162.387 94.5177C162.378 94.8433 162.27 95.1584 162.078 95.4226C162.03 95.4888 161.968 95.5438 161.896 95.5836C161.824 95.6234 161.745 95.6471 161.663 95.6529C161.581 95.6588 161.498 95.6467 161.422 95.6175C161.345 95.5883 161.275 95.5428 161.218 95.484C161.157 95.3627 161.125 95.2288 161.125 95.093C161.125 94.9573 161.157 94.8234 161.218 94.702C161.974 92.0892 162.267 89.3658 162.084 86.6533Z" fill="black"/>
</g>
<path d="M167.925 43.6848C168.431 42.4839 169.853 41.5734 169.943 41.188C170.185 40.1938 169.297 39.1326 169.6 38.1551C170.32 35.8483 172.203 36.122 172.203 36.122C173.04 35.0775 174.176 33.6979 176.042 33.184C178.071 32.6255 181.062 32.1898 182.894 33.2175C184.727 34.2453 186.064 34.9323 186.683 36.9263L174.232 59.5644C172.754 58.9109 171.809 57.4363 171.242 55.9282C170.674 54.4202 170.398 52.8115 169.774 51.3314C169.308 50.2143 169.774 48.4436 168.751 47.7957C167.481 46.997 167.459 44.7907 167.925 43.6848Z" fill="#1A2E35"/>
<path d="M172.14 45.6332C172.255 43.1631 173.302 40.8266 175.073 39.0895C176.844 37.3525 179.209 36.3424 181.696 36.2607H182.208C187.739 36.3948 190.718 41.1369 190.431 46.6275L191.213 64.6296L181.972 71.0138C178.852 73.4212 177.559 71.5724 177.52 69.2544L177.43 64.1157C177.43 64.1157 172.095 63.4734 171.848 58.2007C171.73 55.6537 171.927 50.3921 172.14 45.6332Z" fill="#CE8D84"/>
<path d="M173.855 50.1301C173.858 50.3276 173.94 50.516 174.082 50.6541C174.224 50.7922 174.416 50.8689 174.614 50.8674C174.711 50.8711 174.807 50.8559 174.897 50.8224C174.988 50.789 175.071 50.7381 175.141 50.6727C175.212 50.6072 175.269 50.5286 175.308 50.4412C175.348 50.3538 175.37 50.2595 175.373 50.1636C175.367 49.967 175.285 49.7803 175.143 49.6428C175.002 49.5053 174.812 49.4277 174.614 49.4263C174.518 49.4226 174.422 49.4379 174.331 49.4713C174.241 49.5048 174.158 49.5557 174.087 49.6211C174.017 49.6865 173.96 49.7652 173.92 49.8525C173.88 49.9399 173.858 50.0343 173.855 50.1301Z" fill="#1A2E35"/>
<path d="M173.287 48.4493C173.389 48.5442 173.945 48.103 174.76 48.0751C175.575 48.0471 176.188 48.4381 176.272 48.332C176.357 48.2259 176.216 48.1142 175.946 47.9354C175.585 47.7053 175.161 47.5903 174.732 47.6059C174.308 47.6221 173.9 47.7684 173.563 48.0248C173.321 48.2259 173.242 48.4046 173.287 48.4493Z" fill="#1A2E35"/>
<path d="M181.191 50.1301C181.194 50.3276 181.276 50.516 181.418 50.6541C181.56 50.7922 181.751 50.8689 181.95 50.8674C182.047 50.8711 182.143 50.8559 182.233 50.8224C182.324 50.789 182.407 50.7381 182.477 50.6727C182.548 50.6072 182.605 50.5286 182.644 50.4412C182.684 50.3538 182.706 50.2595 182.709 50.1636C182.703 49.967 182.621 49.7803 182.479 49.6428C182.338 49.5053 182.148 49.4277 181.95 49.4263C181.854 49.4226 181.758 49.4379 181.667 49.4713C181.577 49.5048 181.494 49.5557 181.423 49.6211C181.353 49.6865 181.296 49.7652 181.256 49.8525C181.216 49.9399 181.194 50.0343 181.191 50.1301Z" fill="#1A2E35"/>
<path d="M181.192 48.4318C181.282 48.5323 181.855 48.1078 182.67 48.1022C183.485 48.0967 184.087 48.4988 184.177 48.3983C184.267 48.2978 184.12 48.1749 183.862 47.9906C183.505 47.751 183.083 47.6262 182.653 47.6331C182.23 47.6346 181.819 47.7696 181.478 48.0185C181.225 48.214 181.141 48.3927 181.192 48.4318Z" fill="#1A2E35"/>
<path d="M178.633 54.1627C178.2 54.0394 177.752 53.9737 177.301 53.9672C177.093 53.9672 176.897 53.9225 176.857 53.7773C176.829 53.5567 176.874 53.3329 176.986 53.1406L177.549 51.5431C178.324 49.2698 178.881 47.4042 178.791 47.3763C178.701 47.3484 177.993 49.1637 177.211 51.437C177.026 51.9955 176.846 52.5541 176.677 53.04C176.553 53.2936 176.525 53.5831 176.599 53.8555C176.631 53.9267 176.68 53.9896 176.74 54.0399C176.8 54.0901 176.871 54.1264 176.947 54.1459C177.065 54.1713 177.186 54.1844 177.307 54.185C177.748 54.2297 178.194 54.2222 178.633 54.1627Z" fill="#1A2E35"/>
<path d="M181.135 45.5833C181.253 45.7899 182.04 45.5833 183.001 45.5386C183.962 45.4939 184.772 45.6559 184.867 45.4381C184.912 45.3375 184.744 45.1532 184.406 44.9856C183.955 44.7897 183.464 44.698 182.971 44.7174C182.479 44.7367 181.997 44.8666 181.562 45.0973C181.236 45.2872 181.09 45.4883 181.135 45.5833Z" fill="#1A2E35"/>
<path d="M173.176 45.74C173.344 45.9187 173.974 45.7065 174.738 45.6729C175.503 45.6394 176.155 45.7511 176.295 45.55C176.363 45.4551 176.25 45.2764 175.964 45.1088C175.569 44.9067 175.125 44.8177 174.682 44.8519C174.239 44.8715 173.81 45.0147 173.445 45.2652C173.187 45.4607 173.103 45.6562 173.176 45.74Z" fill="#1A2E35"/>
<path d="M186.283 36.5568C186.295 37.1434 186.177 37.7255 185.937 38.2616C185.697 38.7977 185.342 39.2747 184.895 39.6586C184.449 40.0425 183.922 40.324 183.354 40.483C182.786 40.642 182.189 40.6746 181.607 40.5784C180.707 40.4332 179.712 40.0199 178.948 40.4835C178.183 40.9471 178.127 42.2206 177.408 42.8573C176.39 43.7678 174.726 42.9579 173.422 43.3712C172.41 43.684 171.792 44.6614 171.134 45.4825C170.477 46.3036 169.476 47.0911 168.453 46.8118C168.468 45.9018 168.589 44.9965 168.813 44.1141C169.035 43.2181 169.566 42.4278 170.314 41.8799C170.754 41.6429 171.182 41.3838 171.595 41.1035C172.427 40.4164 172.602 39.2323 173.107 38.2828C173.439 37.6699 173.913 37.1444 174.489 36.75C175.066 36.3556 175.729 36.1037 176.424 36.0151C177.582 35.8754 178.779 36.1994 179.898 35.8977C180.73 35.6799 181.444 35.1269 182.287 34.9538C183.922 34.6187 185.474 35.7637 186.682 36.9087" fill="#1A2E35"/>
<path d="M181.063 38.9649C181.799 38.747 183.311 38.2444 183.682 37.6076C184.066 36.9171 184.627 36.3399 185.308 35.9347C185.99 35.5296 186.767 35.3108 187.561 35.3008C188.358 35.3552 189.116 35.6632 189.724 36.1793C190.331 36.6953 190.755 37.392 190.933 38.1662C191.895 38.1833 192.833 38.4581 193.651 38.9615C194.468 39.4648 195.133 40.1781 195.576 41.0259C196.034 41.914 196.266 42.8993 196.255 43.8968C196.243 44.8943 195.987 45.8739 195.509 46.7511C195.203 47.1707 195.009 47.6609 194.947 48.1754C194.947 48.8233 195.441 49.3316 195.796 49.8511C196.751 51.2977 196.712 53.3141 196.02 54.9171C195.329 56.5202 194.834 57.0955 193.811 57.4306C191.821 58.0897 191.602 60.8769 190.832 61.6533L189.674 50.2644C189.574 50.3157 189.469 50.355 189.359 50.3817C187.398 50.8565 187.072 47.0304 187.493 45.9133C186.737 45.3209 186.059 44.6359 185.475 43.8745C184.823 42.6602 184.488 41.3022 184.503 39.9256C183.789 40.0094 180.742 39.0654 181.063 38.9649Z" fill="#1A2E35"/>
<path d="M189.392 50.3484C189.482 50.3093 193.006 49.1531 193.012 52.7613C193.018 56.3696 189.37 55.6378 189.364 55.5541C189.358 55.4703 189.392 50.3484 189.392 50.3484Z" fill="#CE8D84"/>
<path d="M190.477 54.1685C190.477 54.1685 190.538 54.2132 190.645 54.2578C190.72 54.2892 190.8 54.3053 190.881 54.3053C190.962 54.3053 191.043 54.2892 191.117 54.2578C191.353 54.1106 191.544 53.9035 191.672 53.6579C191.799 53.4124 191.858 53.1374 191.842 52.8615C191.85 52.5522 191.788 52.2451 191.663 51.9622C191.628 51.8499 191.566 51.7476 191.483 51.664C191.4 51.5804 191.297 51.5179 191.185 51.4819C191.112 51.4619 191.035 51.4684 190.967 51.5002C190.899 51.532 190.845 51.5869 190.814 51.655C190.763 51.7556 190.814 51.8225 190.769 51.8337C190.724 51.8449 190.69 51.7723 190.718 51.6215C190.738 51.5333 190.788 51.4545 190.859 51.3981C190.908 51.3596 190.965 51.3313 191.026 51.315C191.087 51.2987 191.151 51.2947 191.213 51.3031C191.361 51.3328 191.5 51.3997 191.615 51.4974C191.73 51.5952 191.818 51.7206 191.871 51.8617C192.028 52.1731 192.106 52.5186 192.095 52.8671C192.114 53.1883 192.037 53.5079 191.873 53.7853C191.709 54.0627 191.465 54.2855 191.174 54.4254C191.079 54.4521 190.979 54.4574 190.882 54.441C190.784 54.4246 190.692 54.3868 190.611 54.3305C190.477 54.2579 190.477 54.1741 190.477 54.1685Z" fill="#966360"/>
<path d="M177.43 64.1105C177.43 64.1105 182.253 63.2894 185.035 61.1055C185.035 61.1055 183.624 65.5348 177.463 65.7582L177.43 64.1105Z" fill="#966360"/>
<path d="M180.752 54.6261C180.617 54.6261 180.651 55.5198 179.903 56.1789C179.156 56.838 178.217 56.7709 178.217 56.8938C178.217 57.0167 178.436 57.0614 178.841 57.0558C179.368 57.0417 179.873 56.844 180.269 56.4973C180.647 56.1655 180.883 55.7014 180.926 55.2014C180.921 54.816 180.814 54.6205 180.752 54.6261Z" fill="#1A2E35"/>
<path d="M177.093 49.5103C177.065 49.5103 177.093 49.2254 176.941 48.7451C176.742 48.0736 176.327 47.4852 175.761 47.0694C175.3 46.7269 174.753 46.5184 174.181 46.4673C173.608 46.4163 173.032 46.5246 172.518 46.7803C172.004 47.036 171.571 47.4289 171.269 47.915C170.967 48.4011 170.807 48.9612 170.807 49.5326C170.807 50.104 170.967 50.6641 171.269 51.1502C171.571 51.6363 172.004 52.0292 172.518 52.2849C173.032 52.5406 173.608 52.649 174.181 52.5979C174.753 52.5469 175.3 52.3384 175.761 51.9958C176.328 51.5806 176.743 50.992 176.941 50.3202C177.07 49.8343 177.065 49.5494 177.093 49.5494C177.121 49.5494 177.093 49.622 177.093 49.756C177.095 49.9554 177.072 50.1543 177.025 50.3481C176.866 51.0755 176.454 51.7241 175.862 52.1802C175.511 52.4502 175.109 52.6477 174.679 52.7611C174.25 52.8746 173.802 52.9016 173.363 52.8408C172.923 52.7799 172.5 52.6323 172.118 52.4066C171.736 52.1809 171.404 51.8818 171.14 51.5267C170.713 50.9548 170.482 50.2615 170.482 49.5494C170.482 48.8372 170.713 48.144 171.14 47.5721C171.404 47.2168 171.736 46.9175 172.118 46.6919C172.5 46.4663 172.923 46.319 173.363 46.2586C173.804 46.1982 174.251 46.226 174.68 46.3403C175.11 46.4546 175.511 46.6532 175.862 46.9242C176.453 47.3813 176.865 48.0294 177.025 48.7563C177.073 48.9501 177.095 49.1489 177.093 49.3483C177.11 49.4433 177.104 49.5103 177.093 49.5103Z" fill="#AFCAF9"/>
<path d="M185.513 49.566C185.479 49.566 185.513 49.27 185.35 48.7617C185.149 48.0516 184.716 47.4284 184.119 46.9911C183.638 46.6351 183.067 46.4189 182.47 46.3667C181.873 46.3145 181.273 46.4283 180.737 46.6955C180.201 46.9626 179.751 47.3726 179.436 47.8795C179.121 48.3865 178.955 48.9703 178.955 49.566C178.955 50.1616 179.121 50.7456 179.436 51.2525C179.751 51.7594 180.201 52.1694 180.737 52.4365C181.273 52.7037 181.873 52.8175 182.47 52.7653C183.067 52.7131 183.638 52.497 184.119 52.1409C184.716 51.7037 185.149 51.0804 185.35 50.3703C185.49 49.862 185.479 49.566 185.513 49.566C185.546 49.566 185.513 49.6386 185.513 49.7782C185.515 49.9868 185.492 50.195 185.445 50.3983C185.278 51.1551 184.848 51.8293 184.231 52.3029C183.865 52.5844 183.446 52.7903 182.999 52.9089C182.551 53.0274 182.085 53.056 181.626 52.9931C181.167 52.9301 180.726 52.7769 180.328 52.5423C179.93 52.3078 179.583 51.9966 179.307 51.6271C178.862 51.031 178.621 50.3084 178.621 49.566C178.621 48.8236 178.862 48.101 179.307 47.5049C179.583 47.1354 179.93 46.8242 180.328 46.5897C180.726 46.3551 181.167 46.2019 181.626 46.139C182.085 46.076 182.551 46.1046 182.999 46.2231C183.446 46.3416 183.865 46.5477 184.231 46.8291C184.85 47.3038 185.28 47.9803 185.445 48.7393C185.492 48.9407 185.515 49.147 185.513 49.3537C185.529 49.4934 185.524 49.566 185.513 49.566Z" fill="#AFCAF9"/>
<path d="M178.774 49.6831C178.718 49.7445 178.381 49.5155 177.903 49.5323C177.425 49.549 177.093 49.7725 177.037 49.711C176.981 49.6496 177.065 49.577 177.211 49.4653C177.415 49.3269 177.656 49.2529 177.903 49.2529C178.149 49.2529 178.39 49.3269 178.594 49.4653C178.746 49.5546 178.802 49.6608 178.774 49.6831Z" fill="#AFCAF9"/>
<path d="M189.162 50.3986C188.53 50.4228 187.899 50.33 187.301 50.1249C186.684 50.0144 186.083 49.8267 185.514 49.5663C186.145 49.5456 186.776 49.6384 187.374 49.84C187.991 49.9505 188.592 50.1382 189.162 50.3986Z" fill="#AFCAF9"/>
<path d="M196.525 88.2458C196.525 88.324 190.247 88.7653 182.473 89.2345C174.699 89.7037 168.42 90.0108 168.42 89.9271C168.42 89.8433 174.704 89.4076 182.473 88.944C190.241 88.4804 196.52 88.162 196.525 88.2458Z" fill="white"/>
<path d="M209.026 85.464C207.146 85.7316 205.252 85.9031 203.354 85.9779C201.461 86.1498 199.561 86.2262 197.66 86.2069C199.54 85.9353 201.433 85.7619 203.332 85.6875C206.44 85.4864 208.992 85.3858 209.026 85.464Z" fill="white"/>
<path d="M168.419 86.7824C167.536 86.6587 166.67 86.4415 165.833 86.1345C164.967 85.9216 164.128 85.6124 163.332 85.2129C164.215 85.333 165.082 85.5484 165.918 85.8552C166.783 86.0714 167.622 86.3824 168.419 86.7824Z" fill="white"/>
<path d="M43.355 156.227C38.015 148.111 38.2173 136.253 44.5973 128.913C46.5759 126.634 49.3415 124.657 52.3601 124.914C55.3786 125.171 57.9362 127.807 58.8806 130.745C59.8249 133.683 59.4933 136.862 58.9424 139.894C58.1667 144.139 56.8738 148.485 53.9115 151.624C50.9492 154.763 47.1662 158.288 43.355 156.215" fill="#9FB26B"/>
<path d="M45.7329 195.013C44.7744 192.654 44.5871 190.055 45.1975 187.584C45.8078 185.113 47.1848 182.895 49.1337 181.245C50.3647 180.251 51.9442 179.48 53.5013 179.882C55.0583 180.284 56.1095 181.876 56.3118 183.474C56.4318 185.088 56.1559 186.708 55.508 188.193C54.721 190.31 53.6586 192.433 51.843 193.779C50.0274 195.125 47.4923 196.415 45.716 195.002" fill="#9FB26B"/>
<path d="M32.8562 192.22C34.3289 185.026 30.5122 177.083 23.9579 173.698C21.9231 172.648 19.4161 172.023 17.37 173.045C15.3239 174.067 14.2615 176.636 14.4245 178.96C14.5876 181.283 15.7174 183.428 16.9597 185.417C18.7022 188.209 20.8382 190.879 23.8118 192.276C26.7854 193.672 30.7595 194.733 32.8562 192.22Z" fill="#9FB26B"/>
<path d="M33.7831 172.783C36.3407 164.583 32.0068 154.646 24.7893 149.943C22.5409 148.48 19.7303 147.463 17.2064 148.413C14.6826 149.363 13.1649 152.228 13.0862 154.954C13.0075 157.679 14.0642 160.31 15.2728 162.773C16.9591 166.197 19.1401 169.582 22.4341 171.548C25.728 173.514 31.0569 175.458 33.7943 172.799" fill="#9FB26B"/>
<path d="M38.9155 212.848C38.8742 212.719 38.8478 212.586 38.8368 212.451C38.7919 212.155 38.73 211.775 38.6626 211.334C38.6289 211.083 38.5895 210.809 38.5445 210.507C38.4996 210.206 38.4265 209.882 38.359 209.535C38.2241 208.837 38.0836 208.038 37.8531 207.167C37.7463 206.731 37.6395 206.279 37.5215 205.804C37.4035 205.329 37.2404 204.843 37.0887 204.341C36.8132 203.324 36.4085 202.269 36.0263 201.151C34.2331 196.326 31.7738 191.771 28.7188 187.618C27.9881 186.679 27.3304 185.763 26.6278 184.97L25.6385 183.803L24.6548 182.725C24.0533 182.055 23.4631 181.496 22.9684 180.999L22.2545 180.306L21.625 179.748L20.7593 178.971C20.6566 178.884 20.5607 178.789 20.4727 178.687C20.5941 178.746 20.7058 178.823 20.8043 178.916L21.7149 179.642C21.9117 179.809 22.1309 179.982 22.367 180.2L23.1033 180.876C23.6317 181.362 24.2276 181.909 24.8515 182.552L25.8352 183.568L26.847 184.73C27.5609 185.518 28.2298 186.406 28.9718 187.372C32.0757 191.53 34.5526 196.115 36.3242 200.984C36.7008 202.101 37.0999 203.179 37.3641 204.201C37.5046 204.715 37.6452 205.207 37.7744 205.681C37.9037 206.156 37.988 206.62 38.0892 207.061C38.3084 207.932 38.4265 208.737 38.5445 209.446C38.6008 209.798 38.657 210.122 38.7076 210.429C38.7581 210.736 38.7638 210.988 38.7919 211.261C38.8368 211.736 38.8706 212.116 38.8987 212.417C38.9284 212.559 38.9341 212.704 38.9155 212.848Z" fill="#1A2E35"/>
<path d="M38.7069 214.322C38.6995 214.268 38.6995 214.214 38.7069 214.16C38.7069 214.031 38.7069 213.875 38.7407 213.685C38.78 213.238 38.8419 212.629 38.9093 211.859C38.9487 211.462 38.9936 211.026 39.0386 210.546C39.0836 210.066 39.0892 209.541 39.1229 208.976C39.1623 207.859 39.2691 206.569 39.2297 205.15C39.2297 204.441 39.2297 203.698 39.2297 202.916C39.2297 202.134 39.151 201.335 39.1117 200.503C39.0555 198.828 38.825 197.068 38.6226 195.203C37.5802 187.12 35.2343 179.257 31.6749 171.917C30.8205 170.241 30.0448 168.638 29.1735 167.213C28.7519 166.493 28.3697 165.778 27.9538 165.124L26.7396 163.253C25.9976 162.041 25.205 161.019 24.553 160.103C24.2157 159.651 23.9178 159.215 23.6255 158.835L22.7936 157.802L21.6693 156.366L21.377 155.987C21.342 155.945 21.3118 155.9 21.2871 155.853C21.2871 155.853 21.3321 155.886 21.4052 155.964L21.7199 156.322L22.9172 157.718L23.7716 158.729C24.0752 159.109 24.3843 159.539 24.7216 159.991C25.3961 160.902 26.2056 161.913 26.9701 163.119L28.2067 164.985C28.6339 165.638 29.0161 166.348 29.449 167.068C30.3315 168.498 31.1353 170.101 31.9897 171.777C35.5975 179.137 37.9546 187.039 38.9655 195.163C39.1623 197.035 39.3759 198.816 39.4208 200.486C39.4546 201.324 39.522 202.162 39.522 202.911C39.522 203.659 39.522 204.43 39.522 205.145C39.5501 206.569 39.4208 207.848 39.359 208.976C39.3196 209.535 39.2972 210.094 39.2522 210.552C39.2072 211.01 39.1398 211.468 39.0892 211.864C38.9936 212.629 38.9149 213.238 38.8587 213.679C38.8587 213.869 38.8025 214.026 38.7856 214.149C38.7679 214.21 38.7414 214.268 38.7069 214.322Z" fill="#1A2E35"/>
<path d="M52.6302 134.689C52.6167 134.743 52.5939 134.794 52.5628 134.84L52.3323 135.265L51.4161 136.885C51.2193 137.236 50.9889 137.622 50.7584 138.058C50.5279 138.493 50.3031 138.974 50.0445 139.482C49.786 139.99 49.5105 140.543 49.2238 141.124C48.9372 141.705 48.6617 142.342 48.3863 143.001C48.1109 143.66 47.7792 144.341 47.4813 145.073C47.1834 145.805 46.9192 146.57 46.5932 147.357C46.4414 147.754 46.2896 148.156 46.1266 148.564L45.6994 149.826C45.4071 150.679 45.1092 151.556 44.8057 152.457C43.6814 156.093 42.6022 160.148 41.6972 164.444C40.7922 168.739 40.202 172.9 39.7523 176.681C39.3026 180.463 39.0721 183.887 38.9934 186.769C38.9203 188.204 38.9035 189.506 38.9035 190.679C38.9035 191.852 38.9035 192.812 38.9035 193.617C38.9035 194.421 38.9035 195.019 38.9316 195.471V195.957C38.9387 196.011 38.9387 196.065 38.9316 196.119C38.9258 196.065 38.9258 196.011 38.9316 195.957C38.9316 195.829 38.9316 195.667 38.8979 195.477C38.8979 195.024 38.8473 194.404 38.8079 193.617C38.7686 192.829 38.7461 191.824 38.7461 190.679C38.7461 189.534 38.7461 188.227 38.7854 186.769C38.836 183.881 39.0946 180.452 39.4712 176.653C39.8478 172.855 40.5167 168.705 41.3936 164.365C42.2705 160.025 43.3835 155.987 44.5358 152.351C44.8506 151.446 45.1542 150.567 45.4465 149.715L45.8905 148.447C46.0479 148.039 46.2053 147.637 46.3627 147.246L47.2733 144.961C47.5769 144.23 47.9029 143.548 48.2008 142.889C48.4987 142.23 48.7629 141.599 49.0608 141.018C49.3588 140.437 49.6229 139.901 49.9096 139.381C50.1963 138.862 50.4268 138.404 50.6516 137.968C50.8765 137.532 51.135 137.158 51.3374 136.806L52.3098 135.22L52.5684 134.812C52.5855 134.77 52.6062 134.729 52.6302 134.689Z" fill="#1A2E35"/>
<path d="M50.8142 184.507C50.655 184.853 50.467 185.186 50.2521 185.501C49.8586 186.121 49.3246 187.037 48.695 188.182C48.0654 189.327 47.374 190.724 46.6714 192.304C45.9688 193.885 45.3111 195.656 44.7096 197.571C44.1631 199.363 43.7072 201.18 43.3437 203.017C43.0233 204.693 42.7816 206.257 42.6692 207.558C42.5567 208.86 42.4612 209.915 42.4331 210.647C42.4329 211.021 42.4009 211.395 42.3375 211.764C42.2944 211.393 42.2812 211.02 42.2982 210.647C42.2982 209.915 42.3263 208.854 42.4275 207.542C42.5484 206.007 42.7492 204.481 43.0289 202.967C43.3748 201.113 43.8252 199.28 44.378 197.476C44.9464 195.676 45.6145 193.908 46.3791 192.181C47.0986 190.601 47.8181 189.204 48.4814 188.07C49.1447 186.937 49.7124 186.032 50.1677 185.428C50.3567 185.104 50.5729 184.795 50.8142 184.507Z" fill="#1A2E35"/>
<path d="M28.4316 209.2H51.8829L49.0443 233H31.349L28.4316 209.2Z" fill="#AFCAF9"/>
<path d="M29.2852 230.431L31.2807 233H49.0434L51.0951 230.514L29.2852 230.431Z" fill="#1A2E35"/>
<path d="M50.9729 216.199C50.9729 216.294 46.1051 216.372 40.1017 216.372C34.0984 216.372 29.2305 216.294 29.2305 216.199C29.2305 216.104 34.0984 216.025 40.1017 216.025C46.1051 216.025 50.9729 216.098 50.9729 216.199Z" fill="#FAFAFA"/>
<path d="M50.9729 217.78C50.9729 217.88 46.1051 217.953 40.1017 217.953C34.0984 217.953 29.2305 217.88 29.2305 217.78C29.2305 217.679 34.0984 217.606 40.1017 217.606C46.1051 217.606 50.9729 217.685 50.9729 217.78Z" fill="#FAFAFA"/>
<path d="M50.6809 219.316C50.6809 219.411 45.9816 219.489 40.1919 219.489C34.4021 219.489 29.6973 219.411 29.6973 219.316C29.6973 219.221 34.3965 219.143 40.1919 219.143C45.9873 219.143 50.6809 219.221 50.6809 219.316Z" fill="#FAFAFA"/>
<path d="M32.0115 157.892C32.0257 157.967 32.0257 158.045 32.0115 158.121C32.0115 158.294 31.9778 158.512 31.9553 158.769C31.8935 159.361 31.8148 160.165 31.7136 161.137C31.5 163.142 31.1908 165.901 30.8311 168.957C30.8311 169.074 30.803 169.191 30.7917 169.297V169.403H30.6905C27.6776 169.448 24.9683 169.476 23.0065 169.487H20.6906H20.061C19.9885 169.5 19.9143 169.5 19.8418 169.487C19.9145 169.477 19.9883 169.477 20.061 169.487L20.6906 169.454L22.9671 169.32C24.9233 169.264 27.6327 169.208 30.6456 169.163L30.5332 169.264C30.5332 169.158 30.5332 169.04 30.5725 168.923C30.9323 165.873 31.2695 163.114 31.5281 161.103L31.8429 158.741C31.8822 158.484 31.916 158.271 31.9384 158.098C31.9571 158.028 31.9815 157.958 32.0115 157.892Z" fill="#1A2E35"/>
<path d="M26.6826 150.775C26.69 150.853 26.69 150.932 26.6826 151.01C26.6826 151.189 26.6826 151.407 26.6826 151.675C26.6826 152.295 26.6826 153.121 26.6826 154.132C26.6545 156.205 26.5926 159.07 26.5196 162.237C26.5196 162.36 26.5196 162.488 26.5196 162.605V162.734H26.3959C23.7778 162.535 21.1509 162.475 18.5263 162.555C17.5202 162.589 16.7107 162.628 16.1486 162.656L15.5022 162.689C15.356 162.689 15.2773 162.689 15.2773 162.689C15.3504 162.667 15.4259 162.654 15.5022 162.65C15.6483 162.65 15.8619 162.6 16.143 162.572C16.7051 162.516 17.5145 162.449 18.5207 162.399C21.1566 162.267 23.7983 162.302 26.4296 162.505L26.306 162.617C26.306 162.499 26.306 162.371 26.306 162.248C26.3847 159.081 26.469 156.216 26.5421 154.143C26.5814 153.138 26.6151 152.306 26.6376 151.691C26.6376 151.423 26.6657 151.205 26.677 151.021C26.6626 150.94 26.6645 150.856 26.6826 150.775Z" fill="#1A2E35"/>
<path d="M20.4385 148.352C20.5083 148.574 20.5573 148.802 20.5846 149.033C20.6746 149.513 20.7926 150.15 20.9332 150.91C21.2367 152.49 21.7089 154.669 22.3834 157.054L22.4509 157.305L22.2148 157.193L21.9337 157.059C19.9558 156.12 17.837 155.507 15.6606 155.244C14.8286 155.138 14.1485 155.104 13.6763 155.088C13.4337 155.095 13.191 155.08 12.9512 155.043C13.0126 155.033 13.0753 155.033 13.1367 155.043C13.2603 155.043 13.4458 155.043 13.6988 155.015C14.365 155.003 15.0315 155.031 15.6943 155.099C17.8937 155.318 20.0377 155.917 22.0293 156.869L22.3159 157.004L22.1473 157.143C21.5784 155.107 21.1169 153.044 20.7645 150.96C20.6296 150.161 20.5397 149.519 20.4891 149.067C20.4507 148.83 20.4337 148.591 20.4385 148.352Z" fill="#1A2E35"/>
<path d="M53.5586 191.745C53.5586 191.784 52.8784 191.711 51.7879 191.672C50.3644 191.613 48.9384 191.658 47.5215 191.806L46.5378 191.929H46.4254V191.823C46.1724 190.416 45.9588 189.17 45.8183 188.276C45.7188 187.803 45.6568 187.323 45.6328 186.841C45.779 187.303 45.8917 187.776 45.9701 188.254C46.1499 189.136 46.3917 190.371 46.6559 191.778L46.5209 191.683L47.5103 191.561C48.9387 191.41 50.3779 191.388 51.8104 191.494C52.3725 191.533 52.8053 191.588 53.1089 191.633C53.263 191.651 53.4142 191.689 53.5586 191.745Z" fill="#1A2E35"/>
<path d="M55.7732 187.372C55.7732 187.411 55.1212 187.26 54.0588 187.126C52.6762 186.958 51.2791 186.945 49.8936 187.087C49.6406 187.087 49.3933 187.143 49.1628 187.177H49.0392V187.059C48.8874 185.607 48.7693 184.322 48.6963 183.401C48.6331 182.908 48.6068 182.412 48.6176 181.915C48.7324 182.398 48.8113 182.889 48.8537 183.384C48.9661 184.306 49.1178 185.585 49.2696 187.031L49.1347 186.931L49.8823 186.836C51.2846 186.69 52.7 186.728 54.0925 186.948C54.6265 187.031 55.0537 187.132 55.3404 187.205C55.4916 187.241 55.6372 187.297 55.7732 187.372Z" fill="#1A2E35"/>
<path d="M57.3637 145.933C57.3637 145.933 57.285 145.983 57.1332 146.056L56.4474 146.358L53.9123 147.43L45.4806 150.887L45.0253 151.072L44.9185 151.116L44.8736 151.01L41.3491 143.068C40.9163 142.073 40.5678 141.258 40.3036 140.66C40.1968 140.392 40.1068 140.174 40.0338 140.001C39.9942 139.928 39.9676 139.849 39.9551 139.767C40.0026 139.836 40.044 139.908 40.0787 139.984L40.3879 140.621L41.5121 143.001L45.1265 150.938L44.9747 150.876L45.43 150.692L53.8617 147.301L56.4306 146.296L57.1332 146.034C57.2071 145.994 57.2842 145.96 57.3637 145.933Z" fill="#1A2E35"/>
<path d="M59.4201 135.868C59.3547 135.923 59.2852 135.974 59.2121 136.019L58.5994 136.415L56.306 137.834L48.6669 142.459L48.5432 142.532L48.4926 142.398C48.4533 142.286 48.4027 142.157 48.3577 142.034C47.1098 138.683 45.9856 135.673 45.1537 133.449C44.7658 132.371 44.4454 131.489 44.2093 130.841L43.962 130.126C43.9305 130.043 43.9079 129.957 43.8945 129.869C43.938 129.946 43.9756 130.027 44.007 130.109L44.2993 130.808C44.5466 131.45 44.8951 132.321 45.3111 133.394C46.1598 135.628 47.3065 138.622 48.5769 141.951L48.7174 142.319L48.5432 142.258L56.2216 137.689L58.5488 136.337L59.1896 135.98C59.2622 135.934 59.3394 135.897 59.4201 135.868Z" fill="#1A2E35"/>
<path d="M58.7456 130.495C58.5875 130.61 58.418 130.709 58.2397 130.791C57.9137 130.969 57.4359 131.238 56.8569 131.595C55.3225 132.539 53.8974 133.648 52.6074 134.902L52.3095 135.187L52.4106 134.79C52.5118 134.371 52.6074 133.93 52.6804 133.477C53.0021 131.406 52.8892 129.292 52.3488 127.266C52.1826 126.654 51.9818 126.052 51.7473 125.462C51.6484 125.251 51.5657 125.032 51.5 124.809C51.631 125.002 51.7422 125.208 51.8317 125.423C52.1018 126.005 52.3291 126.606 52.5118 127.222C53.1072 129.265 53.2454 131.414 52.9165 133.516C52.8434 133.974 52.7423 134.421 52.6355 134.846L52.4444 134.734C53.7495 133.472 55.2049 132.373 56.7782 131.461C57.3684 131.12 57.8631 130.874 58.206 130.718C58.3776 130.625 58.5584 130.55 58.7456 130.495Z" fill="#1A2E35"/>
<path d="M31.9615 182.753C31.9438 182.957 31.908 183.159 31.8547 183.356C31.7704 183.742 31.6524 184.3 31.5231 184.993C31.187 186.816 30.9766 188.66 30.8935 190.511V190.617H30.7867L30.2639 190.651C27.9368 190.79 25.8345 190.902 24.3056 190.975L22.5012 191.042C22.2807 191.066 22.0583 191.066 21.8379 191.042C22.0539 190.993 22.2741 190.965 22.4956 190.958L24.2943 190.813C25.8176 190.701 27.9256 190.561 30.2471 190.422L30.7755 190.388L30.663 190.5C30.7558 188.636 31.0021 186.783 31.3994 184.959C31.5455 184.267 31.6917 183.714 31.7985 183.334C31.8293 183.134 31.884 182.939 31.9615 182.753Z" fill="#1A2E35"/>
<path d="M27.3739 176.185C27.381 176.388 27.3678 176.592 27.3346 176.793C27.284 177.223 27.2221 177.782 27.1434 178.469C26.9748 179.871 26.7219 181.82 26.4239 183.999V184.094H26.3396L25.5808 184.144C23.1974 184.306 21.0502 184.552 19.4987 184.753L17.6606 184.993C17.4366 185.038 17.209 185.062 16.9805 185.066C17.1964 184.992 17.4183 184.938 17.6438 184.904C18.0766 184.82 18.7005 184.708 19.4762 184.585C21.022 184.339 23.1749 184.071 25.5639 183.909L26.3228 183.859L26.216 183.96C26.5139 181.781 26.7781 179.837 27.0085 178.441C27.1153 177.776 27.1996 177.223 27.2671 176.765C27.2836 176.569 27.3194 176.374 27.3739 176.185Z" fill="#1A2E35"/>
<path d="M21.9514 173.357C21.9851 173.357 21.839 174 21.676 175.033C21.4536 176.397 21.3259 177.774 21.2937 179.155V179.289H21.1644L20.771 179.239C19.2993 179.062 17.8183 178.975 16.3359 178.976H14.9925C14.8262 178.995 14.6584 178.995 14.4922 178.976C14.653 178.929 14.8191 178.9 14.9868 178.893C15.3016 178.865 15.7626 178.826 16.3359 178.803C17.8265 178.755 19.3186 178.82 20.7991 178.999L21.1926 179.049L21.0576 179.166C21.0887 177.773 21.241 176.384 21.513 175.016C21.6198 174.497 21.7209 174.084 21.7996 173.799C21.828 173.645 21.8791 173.496 21.9514 173.357Z" fill="#1A2E35"/>
<path d="M52.8494 179.932C52.5472 180.739 52.1981 181.527 51.8039 182.294C51.4768 183.093 51.1014 183.87 50.6797 184.623C50.8848 183.78 51.1905 182.965 51.5903 182.194C51.9157 181.392 52.3385 180.632 52.8494 179.932Z" fill="#1A2E35"/>
<path d="M55.7947 183.026C54.8969 183.163 54.0074 183.35 53.1303 183.585C52.278 183.892 51.4429 184.244 50.6289 184.641C52.089 183.485 53.9328 182.917 55.7947 183.049V183.026Z" fill="#1A2E35"/>
</g>
<defs>
<clipPath id="clip0_3425_2983">
<rect width="282" height="233" fill="white"/>
</clipPath>
</defs>
</svg>
