<svg width="94" height="167" viewBox="0 0 94 167" fill="none" xmlns="http://www.w3.org/2000/svg">
<path d="M16.8562 38.3167C17.5103 40.2285 17.9959 41.5486 19.2786 42.0941C20.732 42.7136 21.3376 43.5889 21.3376 43.5889L22.5088 42.9088L23.9016 42.0966C23.9016 42.0966 23.8689 41.9414 23.8011 41.688C23.7333 41.4347 23.6279 41.2225 23.4377 40.443C23.2476 39.6635 23.3832 37.8451 23.0744 37.0317C22.7958 36.2898 22.1926 34.7696 21.9226 34.8181C21.2673 34.9308 21.9831 36.7747 21.7021 37.1844C21.449 37.5554 21.3933 37.7906 21.3388 37.7676C21.3352 37.7667 21.3315 37.7667 21.3279 37.7676C19.4917 36.959 18.5216 33.4616 17.5357 34.0495C17.1711 34.2605 16.4711 37.1905 16.8562 38.3167Z" fill="#FFB27D"/>
<path d="M55.415 28.0549C55.415 28.0549 43.7091 48.4829 39.47 52.2422L23.904 40.6262C23.904 40.6262 21.6452 41.3196 20.6557 43.589C20.6557 43.589 30.1089 62.8641 39.4155 63.6824C48.7221 64.5007 61.7858 40.5777 61.7858 40.5777L55.415 28.0549Z" fill="#233862"/>
<path d="M81.8961 167.001H88.6568C89.5046 166.538 90.2665 165.479 90.5063 163.9C90.8369 161.718 93.2786 160.531 93.8067 158.748C94.3348 156.964 91.6266 154.455 91.6266 154.455L91.1748 153.872L90.7037 153.266L86.2212 154.323C86.2212 154.323 86.1097 155.393 86.0419 156.756C85.9935 157.739 85.968 158.875 86.0225 159.871C86.1546 162.249 85.3588 164.809 83.2478 165.272C81.6829 165.614 81.7532 166.54 81.8961 167.001Z" fill="#233862"/>
<path d="M42.6566 167.001H58.122C58.8657 166.093 58.5907 162.741 58.4793 161.646C58.4551 161.425 58.4393 161.297 58.4393 161.297C58.4393 161.297 53.1598 157.07 52.4344 160.306C52.4126 160.408 52.3859 160.508 52.3556 160.606C51.4424 163.637 47.3438 165.009 44.9772 165.392C43.4366 165.642 42.8613 166.443 42.6566 167.001Z" fill="#233862"/>
<path d="M45.6034 80.613C45.6034 80.613 46.4052 90.6252 47.3475 102.661C48.6277 119.009 50.1683 139.092 50.3209 142.896C50.5837 149.502 51.6411 160.069 51.6411 160.069C51.6411 160.069 54.147 162.578 59.1637 161.524C59.1637 161.524 63.6341 146.438 64.9107 130.479C64.93 130.217 64.9498 129.954 64.97 129.689C66.157 113.445 67.9979 79.2286 67.9979 79.2286L45.6034 80.613Z" fill="#F99746"/>
<path d="M45.6035 80.613C45.6035 80.613 46.4053 90.6251 47.3476 102.661L64.9047 130.471C64.9241 130.209 64.9438 129.946 64.964 129.682C66.151 113.438 67.9919 79.2213 67.9919 79.2213L45.6035 80.613Z" fill="#ED7D2B"/>
<path d="M49.2648 81.8022C49.2648 81.8022 63.7152 118.062 73.2181 135.102C82.7209 152.142 85.6931 156.899 85.6931 156.899C85.6931 156.899 91.1373 154.717 91.6278 153.233C91.6278 153.233 87.9943 120.335 81.6308 112.316C78.0361 107.785 73.8115 94.1867 73.6141 89.431C73.4167 84.6753 72.3266 75.2632 72.3266 75.2632L49.2648 81.8022Z" fill="#F99746"/>
<path d="M52.8619 28.9424C58.5083 30.7269 68.28 25.9117 68.28 25.9117C68.28 25.9117 63.072 22.0009 63.3457 13.8678L58.9795 17.3894L56.0133 19.7825C56.0133 19.7825 56.0254 21.1923 56.35 23.6617C56.436 24.3115 56.5426 25.0365 56.677 25.8281C55.2255 26.6236 53.9324 27.6793 52.8619 28.9424Z" fill="#FFB27D"/>
<path d="M56.0134 19.7836C56.0134 19.7836 56.0255 21.1935 56.3501 23.6629C59.6372 23.098 63.364 17.7822 63.364 17.7822C61.6914 17.2973 60.2259 17.2112 58.9796 17.3882L56.0134 19.7836Z" fill="#ED975D"/>
<path d="M54.2864 19.6491C54.2864 19.6491 63.6124 21.2008 64.4905 15.371C65.3686 9.54117 67.1551 5.81707 61.2409 4.58177C55.3268 3.34646 53.8286 5.39399 53.0631 7.26816C52.2977 9.14233 51.8834 19.0963 54.2864 19.6491Z" fill="#FFB27D"/>
<path d="M44.9796 81.4468C45.144 81.5909 45.3546 81.6713 45.5731 81.6735C47.6939 81.6444 53.8781 82.8239 59.1103 82.2796C63.5214 81.8553 67.4262 80.5473 71.6193 78.6671C72.1752 78.4173 73.4566 77.7324 73.4288 77.1093C73.4094 76.4268 73.3415 75.4388 73.2568 74.1926C72.96 69.8611 72.4429 62.4105 72.9467 53.8143C73.0375 52.2141 73.0848 50.626 73.0908 49.0634C73.1344 37.4135 70.826 27.1674 66.1872 23.7003C65.7899 23.4154 63.3591 24.6046 61.1245 25.7078C59.0595 26.7273 56.9956 26.8401 55.0444 26.4449L53.0945 28.1711C50.7181 30.3787 48.1166 33.3839 46.9853 37.936C46.0237 41.8153 45.4593 48.8052 45.148 56.0509C45.0063 59.335 44.8924 62.6469 44.8634 65.7891V65.9006C44.8367 66.2122 44.8367 66.5528 44.8367 66.8705C44.7253 74.9369 44.8391 81.3328 44.9796 81.4468Z" fill="#2B478B"/>
<path d="M73.2617 74.1989C72.965 69.8674 72.4478 62.4168 72.9517 53.8206C73.0425 52.2204 73.0897 50.6323 73.0958 49.0697C71.1579 44.3794 69.5834 40.9778 69.5834 40.9778H64.7109C64.7109 40.9778 61.1415 65.3844 73.2617 74.1989Z" fill="#233862"/>
<path d="M82.4072 75.0377C82.4072 75.0377 83.4972 76.4924 83.5408 77.0719C83.7068 79.2879 83.6934 81.3148 83.8933 81.9695C84.3632 83.5236 84.7023 85.2305 85.429 85.5141C86.1557 85.7978 87.8623 82.5138 87.9168 81.8022C88.0924 79.574 87.5898 77.5871 86.0746 75.6196L85.142 73.6157L82.4072 75.0377Z" fill="#FFB27D"/>
<path d="M85.1807 76.1518C83.4269 76.4937 81.5266 76.3555 81.5266 76.3555C81.5266 76.3555 76.3186 60.2602 75.6512 58.7897C74.9839 57.3192 60.1883 39.9146 60.1883 39.9146L66.3507 24.4812C66.3507 24.4812 82.3454 51.23 83.9756 54.9892C86.6596 61.1997 87.5909 75.1263 87.5909 75.1263C86.8626 75.6233 86.0436 75.9718 85.1807 76.1518Z" fill="#2B478B"/>
<path d="M64.4977 14.8108C64.4977 14.8108 63.5409 14.6496 63.6947 13.3306C63.8485 12.0117 63.8473 10.2854 62.7754 10.6079C61.7036 10.9303 61.6503 11.7874 61.2094 11.2868C60.7685 10.7861 60.7613 8.67067 57.5759 8.52398C54.3905 8.3773 53.0946 9.48774 51.606 8.83554C50.1175 8.18334 50.0448 5.93578 50.0448 5.93578C50.0448 5.93578 50.4663 6.73831 51.1034 6.99289C51.1034 6.99289 48.629 3.6058 51.4946 1.28309C54.3602 -1.03963 57.2804 0.48056 58.9385 0.581179C62.5913 0.801812 64.9507 1.02123 66.1449 3.42396C67.3391 5.82668 66.8425 12.4978 64.4977 14.8108Z" fill="#2B478B"/>
<path d="M84.1282 76.7677C84.1282 76.7677 83.0781 77.8587 83.0115 78.3194C82.7984 79.7826 82.3103 80.4154 82.5549 80.5742C83.0636 80.9052 83.737 79.8214 84.058 78.8492C84.3789 77.8769 84.1282 76.7677 84.1282 76.7677Z" fill="#FFB27D"/>
<path d="M0.877893 23.8389C0.402275 25.8754 1.30548 27.8434 2.894 28.2341C4.48252 28.6248 6.15656 27.2904 6.63217 25.2551C7.10779 23.2198 6.20458 21.2506 4.61606 20.8599C3.02755 20.4692 1.35351 21.8036 0.877893 23.8389Z" fill="#B5453C"/>
<path d="M18.0707 34.4529L19.296 34.8325C19.4647 34.8848 19.5591 35.064 19.5069 35.2329L19.2583 36.0365C19.2061 36.2054 19.027 36.2999 18.8583 36.2476L17.6331 35.868C17.4644 35.8157 17.37 35.6365 17.4222 35.4676L17.6707 34.6639C17.7229 34.4951 17.902 34.4006 18.0707 34.4529Z" fill="#CF645B"/>
<path d="M24.032 31.8802C21.834 35.7067 21.9756 37.1689 20.3401 41.6788C19.2493 44.6937 16.6747 45.303 15.3818 44.504C14.7397 44.107 15.0607 42.8156 15.5082 42.2127C16.0403 41.4928 17.3825 40.0532 17.9311 38.2895C18.4796 36.5257 17.2549 32.9644 17.9917 30.6014C18.7286 28.2385 24.032 31.8802 24.032 31.8802Z" fill="#B5453C"/>
<path d="M24.4027 26.6422L25.79 27.072C27.2309 27.5185 28.0375 29.0495 27.5914 30.4918L27.3078 31.409C26.8617 32.8512 25.332 33.6585 23.8911 33.212L22.5038 32.7822C21.0629 32.3358 20.2564 30.8047 20.7024 29.3624L20.9861 28.4452C21.4321 27.003 22.9618 26.1957 24.4027 26.6422Z" fill="#B5453C"/>
<path d="M0.750978 34.3101C6.26835 32.4497 12.9668 31.3933 18.4091 31.9923L20.277 25.4732C15.803 24.3253 10.9112 20.185 7.18666 14.0331L0.750978 34.3101Z" fill="#B5453C"/>
<path d="M0.769713 34.994L0.826155 35.0121C1.10327 35.098 1.40289 35.0699 1.65947 34.934C1.91605 34.7981 2.1087 34.5655 2.19527 34.287C3.45149 28.3133 5.55799 21.7183 8.21215 14.727C8.29779 14.4481 8.27002 14.1465 8.13494 13.8882C7.99985 13.6299 7.76847 13.4361 7.49156 13.3493L7.43512 13.3311C7.15801 13.2449 6.85824 13.2729 6.60157 13.4088C6.3449 13.5448 6.1523 13.7776 6.06601 14.0562C3.23411 21.2192 1.18165 27.7755 0.0491285 33.6163C-0.03685 33.8951 -0.00923538 34.1969 0.125897 34.4553C0.26103 34.7137 0.492615 34.9075 0.769713 34.994Z" fill="#CF645B"/>
<path d="M16.7344 28.4278C15.9307 31.2 17.4674 32.5539 20.35 33.328C23.2326 34.102 24.7445 32.9076 25.3747 30.0949C26.057 27.0441 24.5005 26.3451 21.6179 25.5699C18.7353 24.7947 17.5392 25.6556 16.7344 28.4278Z" fill="#CF645B"/>
<path d="M18.775 36.375C18.775 35.7228 17.9611 34.3277 17.8322 34.3101C17.4385 34.5054 17.1915 36.5417 17.2978 37.6067C17.4041 38.6718 17.3903 39.2942 17.9867 38.3572C18.406 37.6906 18.776 36.673 18.775 36.375Z" fill="#FFB27D"/>
<path d="M22.4049 37.5022C22.6938 36.5291 22.4049 35.3947 22.3104 35.1704C22.2159 34.946 21.819 34.2642 21.7191 34.3125C21.5139 34.4117 21.3924 34.7848 21.495 35.4357C21.765 37.1712 20.8403 37.915 21.063 39.544C21.9985 39.8217 22.4049 37.5022 22.4049 37.5022Z" fill="#FFB27D"/>
</svg>
