<svg width="297" height="241" viewBox="0 0 297 241" fill="none" xmlns="http://www.w3.org/2000/svg">
<g clip-path="url(#clip0_3425_3152)">
<path d="M230.167 31.5372L246.651 33.7838L247.322 34.6584L190.782 92.306L169.8 71.9411L113.759 127.025L86.5596 98.9428L23.5703 159.309L31.8944 167.943L86.2415 115.861L113.544 144.046L169.852 88.7046L190.997 109.224L254.709 44.2535L254.907 44.5107L259.533 63.2292L273.67 21.3076L230.167 31.5372Z" fill="#AFCAF9"/>
<path d="M104.927 223.37V232.931C104.927 237.218 92.8368 240.717 77.9344 240.717C63.0319 240.717 50.9414 237.235 50.9414 232.931V223.37H104.927Z" fill="#AC8121"/>
<path d="M98.2285 223.37H101.384V236.507C101.384 236.601 101.384 236.695 101.384 236.79C100.363 237.285 99.3087 237.709 98.2285 238.059V223.37Z" fill="#C29226"/>
<path d="M96.6465 223.37H97.601V238.256L96.6465 238.53V223.37Z" fill="#C29226"/>
<path d="M94.4365 223.37H95.8554V238.745L94.4365 239.079V223.37Z" fill="#C29226"/>
<path d="M83.6016 223.37H87.239V240.228C86.0609 240.357 84.8399 240.451 83.6016 240.528V223.37Z" fill="#C29226"/>
<path d="M80.7471 223.37H82.2433V240.605L80.7471 240.665V223.37Z" fill="#C29226"/>
<path d="M73.2393 223.37H74.5033V240.648L73.2393 240.597V223.37Z" fill="#C29226"/>
<path d="M71.1074 223.37H72.2941V240.519L71.1074 240.442V223.37Z" fill="#C29226"/>
<path d="M68.0977 223.37H70.5484V240.417C69.6885 240.348 68.8974 240.262 68.0977 240.177V223.37Z" fill="#C29226"/>
<path d="M56.3164 223.37H59.008V238.479C58.0363 238.196 57.1333 237.904 56.3164 237.621V223.37Z" fill="#C29226"/>
<path d="M55.8088 223.37V237.398C52.7217 236.138 50.9072 234.594 50.9072 232.931V223.37H55.8088Z" fill="#C29226"/>
<path d="M50.9414 223.371C50.9414 227.658 63.0233 231.148 77.9344 231.148C92.8454 231.148 104.927 227.658 104.927 223.371C104.927 219.083 92.8368 215.585 77.9344 215.585C63.0319 215.585 50.9414 219.066 50.9414 223.371Z" fill="#DEBB2C"/>
<path d="M79.7576 223.902C83.3152 221.863 86.547 219.305 89.3458 216.313C98.5555 217.548 104.936 220.241 104.936 223.37C104.936 227.658 92.8457 231.148 77.9432 231.148C71.4039 231.251 64.8816 230.455 58.5605 228.781C65.9043 228.678 73.1362 227.683 79.7576 223.902Z" fill="#CFAE2A"/>
<path d="M56.7295 223.371C56.7295 219.812 66.0425 217.034 77.9352 217.034C89.8279 217.034 99.1323 219.812 99.1323 223.371C99.1323 226.929 89.8193 229.699 77.9352 229.699C66.0511 229.699 56.7295 226.921 56.7295 223.371ZM57.3658 223.371C57.3658 226.123 65.6297 229.073 77.9352 229.073C90.2407 229.073 98.5045 226.123 98.5045 223.371C98.5045 220.618 90.2321 217.66 77.9352 217.66C65.6383 217.66 57.3658 220.61 57.3658 223.371Z" fill="#EBD62A"/>
<path d="M108.728 211.529V221.099C108.728 225.386 96.6892 228.876 81.7351 228.876C66.7811 228.876 54.7422 225.395 54.7422 221.099V211.529H108.728Z" fill="#AC8121"/>
<path d="M102.038 211.529H105.203V224.7C105.203 224.794 105.203 224.88 105.203 224.974C104.188 225.477 103.135 225.901 102.055 226.243L102.038 211.529Z" fill="#C29226"/>
<path d="M100.456 211.529H101.384V226.415L100.438 226.689L100.456 211.529Z" fill="#C29226"/>
<path d="M98.2373 211.529H99.6648V226.904C99.209 227.024 98.7275 227.135 98.2373 227.247V211.529Z" fill="#C29226"/>
<path d="M87.4111 211.529H91.0658V228.396C89.8877 228.524 88.6666 228.619 87.4283 228.696L87.4111 211.529Z" fill="#C29226"/>
<path d="M84.5645 211.529H86.0607V228.773L84.5645 228.824V211.529Z" fill="#C29226"/>
<path d="M77.0488 211.529H78.3129V228.816L77.0488 228.756V211.529Z" fill="#C29226"/>
<path d="M74.9082 211.529H76.0949V228.679L74.9082 228.593V211.529Z" fill="#C29226"/>
<path d="M71.9062 211.529H74.357V228.576C73.4971 228.507 72.706 228.43 71.9062 228.336V211.529Z" fill="#C29226"/>
<path d="M60.1084 211.529H62.8V226.638C61.8196 226.364 60.9253 226.063 60.1084 225.78V211.529Z" fill="#C29226"/>
<path d="M59.6523 211.529V225.557C56.5652 224.288 54.7422 222.753 54.7422 221.09V211.521L59.6523 211.529Z" fill="#C29226"/>
<path d="M54.7422 211.529C54.7422 215.817 66.8327 219.306 81.7351 219.306C96.6376 219.306 108.728 215.825 108.728 211.529C108.728 207.233 96.6892 203.752 81.7351 203.752C66.7811 203.752 54.7422 207.233 54.7422 211.529Z" fill="#DEBB2C"/>
<path d="M83.5584 212.06C87.1187 210.029 90.3511 207.474 93.1465 204.48C102.348 205.715 108.728 208.408 108.728 211.529C108.728 215.816 96.6894 219.306 81.7354 219.306C75.2009 219.423 68.6815 218.641 62.3613 216.982C69.7137 216.845 76.9456 215.85 83.5584 212.06Z" fill="#CFAE2A"/>
<path d="M60.5381 211.529C60.5381 207.979 69.851 205.192 81.7352 205.192C93.6193 205.192 102.941 207.979 102.941 211.529C102.941 215.079 93.6451 217.84 81.7352 217.84C69.8252 217.84 60.5381 215.079 60.5381 211.529ZM61.1744 211.529C61.1744 214.282 69.4383 217.231 81.7352 217.231C94.0321 217.231 102.305 214.282 102.305 211.529C102.305 208.777 94.0407 205.835 81.7352 205.835C69.4297 205.835 61.1744 208.777 61.1744 211.529Z" fill="#EBD62A"/>
<path d="M52.963 211.992L54.8634 221.373C55.7234 225.583 44.5444 231.379 29.9257 234.321C15.307 237.262 2.76933 236.233 1.91801 232.023L0.0175781 222.642L52.963 211.992Z" fill="#AC8121"/>
<path d="M46.4014 213.312L49.5057 212.687L52.0855 225.549C52.0855 225.634 52.0855 225.729 52.1284 225.823C51.2276 226.512 50.2793 227.136 49.2907 227.692L46.4014 213.312Z" fill="#C29226"/>
<path d="M44.8535 213.621L45.7822 213.433L48.7404 228.01C48.4566 228.173 48.1642 228.318 47.8804 228.473L44.8535 213.621Z" fill="#C29226"/>
<path d="M42.6777 214.058L44.0794 213.775L47.1235 228.85C46.7022 229.055 46.2636 229.261 45.7993 229.459L42.6777 214.058Z" fill="#C29226"/>
<path d="M32.0576 216.193L35.6263 215.481L38.9714 232.013C37.8449 232.365 36.6668 232.699 35.4715 233.025L32.0576 216.193Z" fill="#C29226"/>
<path d="M29.2715 216.759L30.742 216.459L34.1816 233.36C33.7001 233.488 33.2099 233.6 32.7198 233.711L29.2715 216.759Z" fill="#C29226"/>
<path d="M21.9111 218.243L23.1494 217.994L26.5891 234.929C26.1763 235.006 25.7292 235.066 25.3422 235.135L21.9111 218.243Z" fill="#C29226"/>
<path d="M19.8125 218.697L20.9734 218.466L24.4131 235.298L23.235 235.452L19.8125 218.697Z" fill="#C29226"/>
<path d="M16.8721 219.255L19.2713 218.774L22.6507 235.486C21.7908 235.581 21.0083 235.667 20.2 235.735L16.8721 219.255Z" fill="#C29226"/>
<path d="M5.31445 221.579L7.95442 221.047L10.9555 235.855C10.0132 235.791 9.07467 235.68 8.1436 235.521L5.31445 221.579Z" fill="#C29226"/>
<path d="M4.84993 221.673L7.63609 235.392C4.35978 234.766 2.27017 233.617 1.9434 231.962L0.0429688 222.582L4.84993 221.673Z" fill="#C29226"/>
<path d="M0.0426091 222.642C0.902532 226.852 13.4402 227.881 28.0503 224.94C42.6604 221.999 53.848 216.202 52.988 211.992C52.1281 207.782 39.599 206.744 24.989 209.685C10.3789 212.627 -0.808714 218.432 0.0426091 222.642Z" fill="#DEBB2C"/>
<path d="M28.395 217.479C31.4789 214.78 34.1398 211.636 36.2891 208.15C45.5591 207.55 52.3439 208.931 52.963 211.992C53.823 216.202 42.644 221.998 28.0253 224.939C20.5698 226.44 13.656 226.912 8.55664 226.449C15.7714 224.897 22.668 222.496 28.395 217.479Z" fill="#CFAE2A"/>
<path d="M5.72706 221.502C5.02192 218.02 13.5953 213.45 25.2473 211.109C36.8992 208.768 46.582 209.651 47.2871 213.133C47.9922 216.614 39.4188 221.176 27.7669 223.525C16.1149 225.875 6.4322 224.983 5.72706 221.502ZM6.34621 221.373C6.88796 224.074 15.5818 225.334 27.6379 222.908C39.694 220.481 47.2097 215.954 46.668 213.261C46.1262 210.569 37.4324 209.3 25.3763 211.726C13.3202 214.153 5.79586 218.698 6.34621 221.373Z" fill="#EBD62A"/>
<path d="M99.6651 202.482L98.4182 211.974C97.8593 216.262 85.4248 218.131 70.6427 216.21C55.8607 214.29 44.3463 209.265 44.9053 204.977L46.1435 195.485L99.6651 202.482Z" fill="#AC8121"/>
<path d="M93.0434 201.616L96.1735 202.028L94.4537 215.061C94.4537 215.156 94.4537 215.241 94.4107 215.336C93.3346 215.699 92.234 215.986 91.1172 216.193L93.0434 201.616Z" fill="#C29226"/>
<path d="M91.4702 201.419L92.4075 201.539L90.4813 216.305L89.501 216.459L91.4702 201.419Z" fill="#C29226"/>
<path d="M89.2773 201.137L90.6875 201.317L88.6925 216.563C88.2282 216.623 87.7294 216.666 87.2393 216.708L89.2773 201.137Z" fill="#C29226"/>
<path d="M78.5282 199.738L82.1398 200.201L79.9556 216.93C78.7689 216.93 77.5479 216.836 76.3096 216.759L78.5282 199.738Z" fill="#C29226"/>
<path d="M75.7073 199.37L77.195 199.559L74.9592 216.657L73.4629 216.519L75.7073 199.37Z" fill="#C29226"/>
<path d="M68.2602 198.401L69.5157 198.564L67.2713 215.714L66.0244 215.491L68.2602 198.401Z" fill="#C29226"/>
<path d="M66.1282 198.118L67.2977 198.264L65.0877 215.31L63.9268 215.07L66.1282 198.118Z" fill="#C29226"/>
<path d="M63.161 197.732L65.5945 198.05L63.3845 214.959C62.5246 214.779 61.7593 214.599 60.9854 214.402L63.161 197.732Z" fill="#C29226"/>
<path d="M51.5094 196.215L54.1752 196.566L52.2145 211.546C51.3344 211.181 50.4734 210.772 49.6348 210.32L51.5094 196.215Z" fill="#C29226"/>
<path d="M51.0015 196.154L49.1871 210.071C46.2892 208.416 44.6897 206.641 44.8875 205.012L46.1258 195.52L51.0015 196.154Z" fill="#C29226"/>
<path d="M46.1435 195.545C45.5846 199.833 57.1161 204.823 71.9412 206.744C86.7662 208.665 99.1577 206.744 99.7167 202.508C100.276 198.272 88.7355 193.239 73.919 191.361C59.1025 189.483 46.7025 191.258 46.1435 195.545Z" fill="#DEBB2C"/>
<path d="M74.6497 199.773C78.4406 198.211 81.9743 196.09 85.1322 193.479C94.1012 195.898 100.086 199.387 99.6821 202.483C99.1231 206.77 86.6886 208.64 71.9066 206.719C65.4066 205.982 59.0402 204.351 52.9883 201.874C60.2976 202.723 67.5984 202.672 74.6497 199.773Z" fill="#CFAE2A"/>
<path d="M51.8879 196.266C52.3523 192.75 61.949 191.189 73.7385 192.724C85.5281 194.259 94.3767 198.212 93.9295 201.736C93.4823 205.26 83.877 206.821 72.0875 205.286C60.2979 203.751 51.4321 199.833 51.8879 196.266ZM52.5156 196.351C52.1631 199.078 59.9712 203.074 72.1735 204.66C84.3758 206.247 92.9492 204.386 93.3104 201.651C93.6715 198.915 85.8548 194.937 73.6525 193.342C61.4502 191.747 52.8768 193.616 52.5156 196.351Z" fill="#EBD62A"/>
<path d="M236.831 222.025V231.56C236.831 235.847 248.922 239.345 263.824 239.345C278.726 239.345 290.826 235.856 290.826 231.56V221.99L236.831 222.025Z" fill="#AC8121"/>
<path d="M243.53 222.024H240.365V235.178C240.365 235.264 240.365 235.358 240.365 235.452C241.382 235.951 242.434 236.376 243.513 236.721L243.53 222.024Z" fill="#C29226"/>
<path d="M245.112 222.024H244.132V236.919C244.433 237.013 244.751 237.107 245.078 237.193L245.112 222.024Z" fill="#C29226"/>
<path d="M247.322 222.024H245.903V237.407C246.359 237.527 246.841 237.63 247.322 237.742V222.024Z" fill="#C29226"/>
<path d="M258.157 222.024H254.52V238.891C255.698 239.019 256.919 239.114 258.157 239.2V222.024Z" fill="#C29226"/>
<path d="M261.013 222.024H259.508V239.277L261.013 239.337V222.024Z" fill="#C29226"/>
<path d="M268.519 222.024H267.255V239.277L268.519 239.225V222.024Z" fill="#C29226"/>
<path d="M270.652 222.024H269.465V239.174C269.869 239.174 270.265 239.122 270.652 239.097V222.024Z" fill="#C29226"/>
<path d="M273.662 222.024H271.211V239.079C272.071 239.011 272.862 238.925 273.662 238.839V222.024Z" fill="#C29226"/>
<path d="M285.408 222.024H282.717V237.142C283.697 236.867 284.591 236.567 285.408 236.284V222.024Z" fill="#C29226"/>
<path d="M285.916 222.024V236.061C289.003 234.801 290.826 233.257 290.826 231.594V222.024H285.916Z" fill="#C29226"/>
<path d="M290.826 222.024C290.826 226.312 278.735 229.81 263.824 229.81C248.913 229.81 236.831 226.329 236.831 222.024C236.831 217.72 248.922 214.247 263.824 214.247C278.726 214.247 290.826 217.728 290.826 222.024Z" fill="#DEBB2C"/>
<path d="M262.01 222.564C258.449 220.53 255.217 217.971 252.421 214.976C243.22 216.219 236.831 218.903 236.831 222.024C236.831 226.311 248.922 229.81 263.824 229.81C270.363 229.913 276.886 229.117 283.207 227.443C275.854 227.34 268.622 226.346 262.01 222.564Z" fill="#CFAE2A"/>
<path d="M263.824 228.361C251.94 228.361 242.627 225.583 242.627 222.024C242.627 218.466 251.94 215.696 263.824 215.696C275.708 215.696 285.03 218.474 285.03 222.024C285.03 225.574 275.717 228.361 263.824 228.361ZM263.824 216.357C251.527 216.357 243.263 219.298 243.263 222.05C243.263 224.803 251.527 227.761 263.824 227.761C276.121 227.761 284.393 224.811 284.393 222.05C284.393 219.289 276.13 216.331 263.824 216.331V216.357Z" fill="#EBD62A"/>
<path d="M233.03 210.191V219.761C233.03 224.048 245.069 227.538 260.023 227.538C274.977 227.538 287.016 224.057 287.016 219.761V210.191H233.03Z" fill="#AC8121"/>
<path d="M239.72 210.191H236.564V223.336C236.564 223.431 236.564 223.525 236.564 223.611C237.581 224.111 238.633 224.538 239.712 224.888L239.72 210.191Z" fill="#C29226"/>
<path d="M241.302 210.191H240.356V225.086L241.302 225.36V210.191Z" fill="#C29226"/>
<path d="M243.521 210.191H242.094V225.557C242.55 225.677 243.031 225.789 243.521 225.892V210.191Z" fill="#C29226"/>
<path d="M254.356 210.191H250.719V227.058C251.888 227.186 253.109 227.281 254.356 227.358V210.191Z" fill="#C29226"/>
<path d="M257.203 210.191H255.698V227.435C256.197 227.435 256.696 227.435 257.203 227.487V210.191Z" fill="#C29226"/>
<path d="M264.71 210.191H263.446V227.478L264.71 227.418V210.191Z" fill="#C29226"/>
<path d="M266.851 210.191H265.63V227.341L266.817 227.255L266.851 210.191Z" fill="#C29226"/>
<path d="M269.852 210.191H267.401V227.272C268.261 227.204 269.052 227.118 269.852 227.032V210.191Z" fill="#C29226"/>
<path d="M281.633 210.191H278.95V225.3C279.922 225.026 280.816 224.725 281.633 224.443V210.191Z" fill="#C29226"/>
<path d="M282.115 210.191V224.228C285.194 222.959 287.017 221.424 287.017 219.761V210.191H282.115Z" fill="#C29226"/>
<path d="M287.016 210.191C287.016 214.479 274.926 217.969 260.023 217.969C245.121 217.969 233.03 214.487 233.03 210.191C233.03 205.895 245.069 202.414 260.023 202.414C274.977 202.414 287.016 205.895 287.016 210.191Z" fill="#DEBB2C"/>
<path d="M258.2 210.723C254.641 208.693 251.411 206.138 248.621 203.143C239.411 204.377 233.03 207.07 233.03 210.191C233.03 214.478 245.069 217.968 260.023 217.968C266.56 218.072 273.079 217.275 279.397 215.602C272.045 215.507 264.813 214.513 258.2 210.723Z" fill="#CFAE2A"/>
<path d="M260.023 216.528C248.13 216.528 238.817 213.741 238.817 210.191C238.817 206.641 248.13 203.854 260.023 203.854C271.916 203.854 281.22 206.641 281.22 210.191C281.22 213.741 271.907 216.528 260.023 216.528ZM260.023 204.523C247.718 204.523 239.454 207.473 239.454 210.226C239.454 212.978 247.718 215.928 260.023 215.928C272.329 215.928 280.584 212.978 280.584 210.226C280.584 207.473 272.32 204.489 260.023 204.489V204.523Z" fill="#EBD62A"/>
<path d="M238.672 199.833V209.402C238.672 213.69 250.711 217.18 265.665 217.18C280.619 217.18 292.658 213.69 292.658 209.402V199.833H238.672Z" fill="#AC8121"/>
<path d="M245.362 199.833H242.206V212.969C242.206 213.064 242.206 213.158 242.206 213.252C243.223 213.75 244.275 214.174 245.353 214.521L245.362 199.833Z" fill="#C29226"/>
<path d="M246.944 199.833H245.998V214.719L246.944 215.002V199.833Z" fill="#C29226"/>
<path d="M249.163 199.833H247.744V215.207L249.163 215.542V199.833Z" fill="#C29226"/>
<path d="M259.998 199.833H256.36V216.699C257.53 216.819 258.751 216.914 259.998 216.991V199.833Z" fill="#C29226"/>
<path d="M262.844 199.833H261.33V217.068L262.835 217.128L262.844 199.833Z" fill="#C29226"/>
<path d="M270.351 199.833H269.069V217.111L270.333 217.06L270.351 199.833Z" fill="#C29226"/>
<path d="M272.51 199.833H271.306V216.982L272.492 216.897L272.51 199.833Z" fill="#C29226"/>
<path d="M275.494 199.833H273.043V216.879C273.903 216.811 274.694 216.734 275.494 216.639V199.833Z" fill="#C29226"/>
<path d="M287.275 199.833H284.592V214.942C285.563 214.659 286.458 214.367 287.275 214.084V199.833Z" fill="#C29226"/>
<path d="M287.756 199.833V213.861C290.834 212.601 292.657 211.057 292.657 209.402V199.833H287.756Z" fill="#C29226"/>
<path d="M292.658 199.833C292.658 204.12 280.567 207.61 265.665 207.61C250.762 207.61 238.672 204.129 238.672 199.833C238.672 195.537 250.711 192.047 265.665 192.047C280.619 192.047 292.658 195.494 292.658 199.833Z" fill="#DEBB2C"/>
<path d="M263.842 200.33C260.282 198.298 257.052 195.739 254.262 192.741C245.053 193.976 238.672 196.668 238.672 199.798C238.672 204.085 250.711 207.575 265.665 207.575C272.201 207.679 278.721 206.883 285.039 205.209C277.669 205.106 270.455 204.12 263.842 200.33Z" fill="#CFAE2A"/>
<path d="M265.63 206.127C253.737 206.127 244.433 203.349 244.433 199.799C244.433 196.249 253.737 193.462 265.63 193.462C277.522 193.462 286.827 196.24 286.827 199.799C286.827 203.357 277.548 206.127 265.63 206.127ZM265.63 194.122C253.324 194.122 245.06 197.072 245.06 199.833C245.06 202.594 253.324 205.535 265.63 205.535C277.935 205.535 286.268 202.551 286.268 199.833C286.268 197.115 277.961 194.088 265.63 194.088V194.122Z" fill="#EBD62A"/>
<path d="M234.896 185.899V195.469C234.896 199.756 246.987 203.246 261.889 203.246C276.792 203.246 288.882 199.765 288.882 195.469V185.899H234.896Z" fill="#AC8121"/>
<path d="M241.595 185.899H238.431V199.044C238.431 199.139 238.431 199.225 238.431 199.319C239.451 199.819 240.505 200.246 241.587 200.596L241.595 185.899Z" fill="#C29226"/>
<path d="M243.177 185.899H242.231V200.794C242.532 200.888 242.851 200.982 243.177 201.068V185.899Z" fill="#C29226"/>
<path d="M245.388 185.899H243.969V201.274C244.425 201.394 244.906 201.505 245.388 201.608V185.899Z" fill="#C29226"/>
<path d="M256.222 185.899H252.585V202.766C253.763 202.894 254.984 202.989 256.222 203.066V185.899Z" fill="#C29226"/>
<path d="M259.069 185.899H257.572V203.143C258.062 203.143 258.57 203.143 259.069 203.195V185.899Z" fill="#C29226"/>
<path d="M266.584 185.899H265.32V203.186L266.584 203.126V185.899Z" fill="#C29226"/>
<path d="M268.717 185.899H267.53V203.049L268.717 202.972V185.899Z" fill="#C29226"/>
<path d="M271.727 185.899H269.276V202.946C270.136 202.877 270.927 202.8 271.727 202.706V185.899Z" fill="#C29226"/>
<path d="M283.508 185.899H280.816V201.008C281.788 200.734 282.691 200.434 283.508 200.151V185.899Z" fill="#C29226"/>
<path d="M283.98 185.899V199.928C287.068 198.667 288.882 197.132 288.882 195.469V185.899H283.98Z" fill="#C29226"/>
<path d="M288.848 185.899C288.848 190.187 276.766 193.676 261.855 193.676C246.944 193.676 234.862 190.195 234.862 185.899C234.862 181.603 246.953 178.122 261.855 178.122C276.758 178.122 288.848 181.603 288.848 185.899Z" fill="#DEBB2C"/>
<path d="M260.066 186.431C256.51 184.397 253.281 181.842 250.487 178.851C241.277 180.085 234.896 182.778 234.896 185.899C234.896 190.186 246.987 193.676 261.889 193.676C268.429 193.78 274.951 192.983 281.272 191.31C273.911 191.258 266.688 190.221 260.066 186.431Z" fill="#CFAE2A"/>
<path d="M261.889 192.236C250.005 192.236 240.692 189.449 240.692 185.899C240.692 182.349 250.005 179.562 261.889 179.562C273.774 179.562 283.095 182.349 283.095 185.899C283.095 189.449 273.782 192.236 261.889 192.236ZM261.889 180.231C249.593 180.231 241.32 183.181 241.32 185.934C241.32 188.686 249.593 191.636 261.889 191.636C274.186 191.636 282.459 188.686 282.459 185.934C282.459 183.181 274.229 180.197 261.889 180.197V180.231Z" fill="#EBD62A"/>
<path d="M240.537 175.507V185.076C240.537 189.364 252.628 192.853 267.53 192.853C282.433 192.853 294.523 189.364 294.523 185.076V175.507H240.537Z" fill="#AC8121"/>
<path d="M247.236 175.507H244.071V188.686C244.071 188.78 244.071 188.875 244.071 188.969C245.092 189.467 246.146 189.891 247.227 190.238L247.236 175.507Z" fill="#C29226"/>
<path d="M248.819 175.507H247.873V190.401C248.174 190.495 248.492 190.59 248.819 190.675V175.507Z" fill="#C29226"/>
<path d="M251.012 175.507H249.593V190.881L251.012 191.216V175.507Z" fill="#C29226"/>
<path d="M261.864 175.507H258.227V192.373C259.405 192.493 260.626 192.588 261.864 192.665V175.507Z" fill="#C29226"/>
<path d="M264.71 175.507H263.214V192.742L264.71 192.802V175.507Z" fill="#C29226"/>
<path d="M272.226 175.507H270.962V192.785L272.226 192.733V175.507Z" fill="#C29226"/>
<path d="M274.359 175.507H273.172V192.656C273.579 192.656 273.974 192.631 274.359 192.579V175.507Z" fill="#C29226"/>
<path d="M277.368 175.507H274.917V192.553C275.777 192.485 276.568 192.399 277.368 192.313V175.507Z" fill="#C29226"/>
<path d="M289.149 175.507H286.457V190.615C287.429 190.332 288.332 190.041 289.149 189.758V175.507Z" fill="#C29226"/>
<path d="M289.622 175.507V189.544C292.709 188.283 294.524 186.74 294.524 185.085V175.515L289.622 175.507Z" fill="#C29226"/>
<path d="M294.523 175.506C294.523 179.794 282.441 183.284 267.53 183.284C252.619 183.284 240.537 179.802 240.537 175.506C240.537 171.211 252.628 167.721 267.53 167.721C282.433 167.721 294.523 171.202 294.523 175.506Z" fill="#DEBB2C"/>
<path d="M265.707 176.038C262.168 173.995 258.954 171.437 256.17 168.449C246.961 169.684 240.58 172.376 240.58 175.506C240.58 179.794 252.671 183.283 267.573 183.283C274.112 183.387 280.635 182.591 286.956 180.917C279.552 180.814 272.328 179.819 265.707 176.038Z" fill="#CFAE2A"/>
<path d="M267.53 181.826C255.646 181.826 246.333 179.048 246.333 175.498C246.333 171.948 255.646 169.161 267.53 169.161C279.414 169.161 288.736 171.939 288.736 175.498C288.736 179.056 279.388 181.826 267.53 181.826ZM267.53 169.821C255.233 169.821 246.961 172.771 246.961 175.532C246.961 178.293 255.233 181.234 267.53 181.234C279.827 181.234 288.099 178.285 288.099 175.532C288.099 172.78 279.836 169.821 267.53 169.821Z" fill="#EBD62A"/>
<path d="M239.316 164.488V174.058C239.316 178.345 251.355 181.835 266.309 181.835C281.263 181.835 293.302 178.353 293.302 174.058V164.488H239.316Z" fill="#AC8121"/>
<path d="M246.007 164.488H242.851V177.633C242.851 177.728 242.851 177.813 242.851 177.908C243.866 178.409 244.918 178.833 245.998 179.177L246.007 164.488Z" fill="#C29226"/>
<path d="M247.572 164.488H246.626V179.374L247.572 179.657V164.488Z" fill="#C29226"/>
<path d="M249.807 164.488H248.38V179.863C248.836 179.983 249.326 180.094 249.807 180.197V164.488Z" fill="#C29226"/>
<path d="M260.643 164.488H257.031V181.355C258.201 181.483 259.422 181.578 260.669 181.655L260.643 164.488Z" fill="#C29226"/>
<path d="M263.489 164.488H261.984V181.732C262.483 181.732 262.982 181.732 263.489 181.783V164.488Z" fill="#C29226"/>
<path d="M270.996 164.488H269.731V181.775L270.996 181.715V164.488Z" fill="#C29226"/>
<path d="M273.137 164.488H271.95V181.638L273.137 181.552V164.488Z" fill="#C29226"/>
<path d="M276.138 164.488H273.688V181.535C274.547 181.466 275.339 181.389 276.138 181.295V164.488Z" fill="#C29226"/>
<path d="M287.919 164.488H285.236V179.597C286.208 179.322 287.102 179.022 287.919 178.739V164.488Z" fill="#C29226"/>
<path d="M288.4 164.488V178.516C291.479 177.256 293.302 175.721 293.302 174.058V164.488H288.4Z" fill="#C29226"/>
<path d="M293.302 164.488C293.302 168.775 281.212 172.265 266.309 172.265C251.407 172.265 239.316 168.784 239.316 164.488C239.316 160.192 251.355 156.702 266.309 156.702C281.263 156.702 293.302 160.192 293.302 164.488Z" fill="#DEBB2C"/>
<path d="M264.486 165.019C260.931 162.985 257.701 160.43 254.907 157.439C245.697 158.674 239.316 161.367 239.316 164.488C239.316 168.775 251.355 172.265 266.309 172.265C273.911 172.265 280.782 171.408 285.683 169.898C278.331 169.821 271.099 168.809 264.486 165.019Z" fill="#CFAE2A"/>
<path d="M266.309 170.825C254.416 170.825 245.104 168.038 245.104 164.488C245.104 160.938 254.416 158.151 266.309 158.151C278.202 158.151 287.506 160.93 287.506 164.488C287.506 168.047 278.193 170.825 266.309 170.825ZM266.309 158.82C254.004 158.82 245.74 161.761 245.74 164.522C245.74 167.283 254.004 170.224 266.309 170.224C278.615 170.224 286.87 167.275 286.87 164.522C286.87 161.77 278.606 158.786 266.309 158.786V158.82Z" fill="#EBD62A"/>
<path d="M235.533 152.672V162.241C235.533 166.529 247.615 170.027 262.526 170.027C277.437 170.027 289.519 166.537 289.519 162.241V152.672H235.533Z" fill="#AC8121"/>
<path d="M242.206 152.672H239.041V165.817C239.041 165.911 239.041 166.006 239.041 166.1C240.061 166.599 241.115 167.023 242.197 167.369L242.206 152.672Z" fill="#C29226"/>
<path d="M243.788 152.672H242.834V167.566L243.788 167.84V152.672Z" fill="#C29226"/>
<path d="M245.998 152.672H244.57V168.055C245.035 168.175 245.516 168.278 245.998 168.389V152.672Z" fill="#C29226"/>
<path d="M256.833 152.672H253.195V169.538C254.365 169.667 255.586 169.761 256.833 169.847V152.672Z" fill="#C29226"/>
<path d="M259.68 152.672H258.175V169.924L259.68 169.976V152.672Z" fill="#C29226"/>
<path d="M267.195 152.672H265.931V169.958L267.195 169.907V152.672Z" fill="#C29226"/>
<path d="M269.327 152.672H268.141V169.821L269.327 169.736V152.672Z" fill="#C29226"/>
<path d="M272.329 152.672H269.878V169.727C270.738 169.658 271.529 169.573 272.329 169.487V152.672Z" fill="#C29226"/>
<path d="M284.118 152.672H281.427V167.78C282.398 167.506 283.293 167.215 284.118 166.923V152.672Z" fill="#C29226"/>
<path d="M284.592 152.672V166.709C287.67 165.448 289.493 163.905 289.493 162.241V152.672H284.592Z" fill="#C29226"/>
<path d="M289.493 152.672C289.493 156.959 277.411 160.457 262.5 160.457C247.589 160.457 235.533 156.959 235.533 152.672C235.533 148.384 247.615 144.895 262.526 144.895C277.437 144.895 289.493 148.384 289.493 152.672Z" fill="#DEBB2C"/>
<path d="M260.677 153.186C257.12 151.15 253.891 148.591 251.097 145.598C241.887 146.841 235.507 149.525 235.507 152.646C235.507 156.933 247.589 160.432 262.5 160.432C269.039 160.536 275.561 159.739 281.882 158.065C274.521 157.962 267.29 156.959 260.677 153.186Z" fill="#CFAE2A"/>
<path d="M262.5 158.983C250.616 158.983 241.303 156.205 241.303 152.646C241.303 149.088 250.616 146.318 262.5 146.318C274.384 146.318 283.688 149.097 283.688 152.672C283.688 156.248 274.384 158.983 262.5 158.983ZM262.5 146.979C250.194 146.979 241.93 149.928 241.93 152.681C241.93 155.433 250.194 158.392 262.5 158.392C274.805 158.392 283.069 155.442 283.069 152.681C283.069 149.92 274.805 146.944 262.5 146.944V146.979Z" fill="#EBD62A"/>
<path d="M241.148 142.254V151.814C241.148 156.102 253.23 159.592 268.141 159.592C283.052 159.592 295.134 156.11 295.134 151.814V142.245L241.148 142.254Z" fill="#AC8121"/>
<path d="M247.847 142.254H244.683V155.399C244.683 155.493 244.683 155.579 244.683 155.673C245.702 156.172 246.757 156.596 247.839 156.942L247.847 142.254Z" fill="#C29226"/>
<path d="M249.429 142.254H248.475V157.148L249.429 157.423V142.254Z" fill="#C29226"/>
<path d="M251.639 142.254H250.212V157.628C250.676 157.748 251.158 157.86 251.639 157.963V142.254Z" fill="#C29226"/>
<path d="M262.474 142.254H258.837V159.12C260.015 159.24 261.227 159.343 262.474 159.42V142.254Z" fill="#C29226"/>
<path d="M265.32 142.254H263.815V159.532C264.314 159.532 264.822 159.532 265.32 159.583V142.254Z" fill="#C29226"/>
<path d="M272.836 142.254H271.572V159.532L272.836 159.472V142.254Z" fill="#C29226"/>
<path d="M274.969 142.254H273.782V159.403L274.969 159.326V142.254Z" fill="#C29226"/>
<path d="M277.97 142.254H275.52V159.3C276.379 159.232 277.171 159.155 277.97 159.06V142.254Z" fill="#C29226"/>
<path d="M289.76 142.254H287.068V157.362C288.04 157.088 288.934 156.788 289.76 156.505V142.254Z" fill="#C29226"/>
<path d="M290.232 142.254V156.291C293.32 155.022 295.134 153.487 295.134 151.823V142.254H290.232Z" fill="#C29226"/>
<path d="M295.134 142.254C295.134 146.541 283.052 150.031 268.141 150.031C253.23 150.031 241.148 146.55 241.148 142.254C241.148 137.958 253.23 134.477 268.141 134.477C283.052 134.477 295.134 137.958 295.134 142.254Z" fill="#DEBB2C"/>
<path d="M266.318 142.786C262.762 140.749 259.533 138.191 256.739 135.197C247.529 136.441 241.148 139.133 241.148 142.254C241.148 146.542 253.23 150.032 268.141 150.032C274.681 150.134 281.203 149.338 287.524 147.665C280.163 147.571 272.931 146.576 266.318 142.786Z" fill="#CFAE2A"/>
<path d="M268.141 148.59C256.249 148.59 246.944 145.804 246.944 142.254C246.944 138.704 256.249 135.917 268.141 135.917C280.034 135.917 289.339 138.695 289.339 142.254C289.339 145.812 280.026 148.59 268.141 148.59ZM268.141 136.586C255.836 136.586 247.572 139.544 247.572 142.297C247.572 145.049 255.836 147.999 268.141 147.999C280.447 147.999 288.711 145.049 288.711 142.297C288.711 139.544 280.447 136.543 268.141 136.543V136.586Z" fill="#EBD62A"/>
<path d="M237.373 128.354V137.924C237.373 142.211 249.464 145.71 264.375 145.71C279.286 145.71 291.368 142.22 291.368 137.924V128.354H237.373Z" fill="#AC8121"/>
<path d="M244.072 128.354H240.907V141.525C240.907 141.62 240.907 141.714 240.907 141.808C241.926 142.302 242.978 142.726 244.055 143.077L244.072 128.354Z" fill="#C29226"/>
<path d="M245.654 128.354H244.708V143.24C245.018 143.334 245.327 143.429 245.654 143.514V128.354Z" fill="#C29226"/>
<path d="M247.873 128.354H246.445V143.737L247.873 144.072V128.354Z" fill="#C29226"/>
<path d="M258.699 128.354H255.07V145.229C256.24 145.349 257.461 145.444 258.699 145.521V128.354Z" fill="#C29226"/>
<path d="M261.554 128.354H260.049V145.598L261.554 145.658V128.354Z" fill="#C29226"/>
<path d="M269.07 128.354H267.806V145.641L269.07 145.59V128.354Z" fill="#C29226"/>
<path d="M271.202 128.354H270.016V145.504L271.202 145.427V128.354Z" fill="#C29226"/>
<path d="M274.229 128.354H271.778V145.41C272.638 145.341 273.429 145.255 274.229 145.169V128.354Z" fill="#C29226"/>
<path d="M285.985 128.354H283.302V143.472C284.273 143.189 285.168 142.897 285.985 142.614V128.354Z" fill="#C29226"/>
<path d="M286.457 128.354V142.382C289.544 141.122 291.367 139.579 291.367 137.915V128.346L286.457 128.354Z" fill="#C29226"/>
<path d="M291.368 128.354C291.368 132.642 279.277 136.14 264.375 136.14C249.472 136.14 237.373 132.659 237.373 128.354C237.373 124.05 249.464 120.577 264.375 120.577C279.286 120.577 291.368 124.058 291.368 128.354Z" fill="#DEBB2C"/>
<path d="M262.552 128.894C258.993 126.857 255.761 124.299 252.963 121.306C243.762 122.549 237.373 125.233 237.373 128.354C237.373 132.641 249.464 136.14 264.375 136.14C270.911 136.243 277.431 135.447 283.749 133.773C276.396 133.67 269.164 132.676 262.552 128.894Z" fill="#CFAE2A"/>
<path d="M264.375 134.666C252.482 134.666 243.169 131.887 243.169 128.329C243.169 124.77 252.482 121.992 264.375 121.992C276.267 121.992 285.572 124.779 285.572 128.329C285.572 131.879 276.259 134.666 264.375 134.666ZM264.375 122.661C252.069 122.661 243.805 125.611 243.805 128.363C243.805 131.116 252.069 134.074 264.375 134.074C276.68 134.074 284.935 131.124 284.935 128.363C284.935 125.602 276.672 122.661 264.375 122.661Z" fill="#EBD62A"/>
<path d="M243.022 117.962V127.531C243.022 131.819 255.061 135.308 270.015 135.308C284.969 135.308 297.008 131.827 297.008 127.531V117.962H243.022Z" fill="#AC8121"/>
<path d="M249.713 117.962H246.549V131.107C246.549 131.201 246.549 131.287 246.549 131.381C247.565 131.88 248.617 132.304 249.696 132.65L249.713 117.962Z" fill="#C29226"/>
<path d="M251.296 117.962H250.35V132.848L251.296 133.13V117.962Z" fill="#C29226"/>
<path d="M253.513 117.962H252.086V133.336C252.542 133.456 253.023 133.568 253.513 133.671V117.962Z" fill="#C29226"/>
<path d="M264.349 117.962H260.703V134.828C261.881 134.948 263.102 135.051 264.349 135.128V117.962Z" fill="#C29226"/>
<path d="M267.195 117.962H265.69V135.206C266.181 135.206 266.688 135.206 267.195 135.257V117.962Z" fill="#C29226"/>
<path d="M274.703 117.962H273.438V135.249L274.703 135.188V117.962Z" fill="#C29226"/>
<path d="M276.809 117.962H275.622V135.111L276.809 135.034V117.962Z" fill="#C29226"/>
<path d="M279.844 117.962H277.394V135.008C278.253 134.94 279.045 134.863 279.844 134.768V117.962Z" fill="#C29226"/>
<path d="M291.625 117.962H288.942V133.07C289.914 132.796 290.808 132.496 291.625 132.213V117.962Z" fill="#C29226"/>
<path d="M292.107 117.962V131.999C295.186 130.73 297.009 129.195 297.009 127.531V117.962H292.107Z" fill="#C29226"/>
<path d="M297.008 117.962C297.008 122.249 284.918 125.739 270.015 125.739C255.113 125.739 243.022 122.258 243.022 117.962C243.022 113.666 255.061 110.185 270.015 110.185C284.969 110.185 297.008 113.666 297.008 117.962Z" fill="#DEBB2C"/>
<path d="M268.21 118.494C264.649 116.46 261.417 113.901 258.622 110.905C249.421 112.149 243.04 114.841 243.04 117.962C243.04 122.25 255.079 125.74 270.033 125.74C276.569 125.843 283.089 125.046 289.407 123.373C282.037 123.279 274.806 122.275 268.21 118.494Z" fill="#CFAE2A"/>
<path d="M270.015 124.298C258.123 124.298 248.81 121.512 248.81 117.962C248.81 114.412 258.123 111.625 270.015 111.625C281.908 111.625 291.212 114.403 291.212 117.962C291.212 121.52 281.899 124.298 270.015 124.298ZM270.015 112.294C257.71 112.294 249.446 115.244 249.446 117.996C249.446 120.748 257.71 123.698 270.015 123.698C282.321 123.698 290.576 120.748 290.576 117.996C290.576 115.244 282.312 112.26 270.015 112.26V112.294Z" fill="#EBD62A"/>
<path d="M175.631 222.864V232.416C175.631 236.704 187.67 240.202 202.624 240.202C217.578 240.202 229.617 236.721 229.617 232.416V222.855L175.631 222.864Z" fill="#AC8121"/>
<path d="M182.321 222.864H179.165V236.009C179.165 236.095 179.165 236.189 179.165 236.284C180.182 236.781 181.234 237.205 182.312 237.553L182.321 222.864Z" fill="#C29226"/>
<path d="M183.937 222.864H182.991V237.75L183.937 238.033V222.864Z" fill="#C29226"/>
<path d="M186.122 222.864H184.694V238.239C185.15 238.359 185.64 238.462 186.122 238.573V222.864Z" fill="#C29226"/>
<path d="M196.957 222.864H193.319V239.722C194.489 239.851 195.71 239.945 196.957 240.031V222.864Z" fill="#C29226"/>
<path d="M199.803 222.864H198.298V240.134L199.803 240.194V222.864Z" fill="#C29226"/>
<path d="M207.31 222.864H206.046V240.134C206.476 240.134 206.906 240.134 207.31 240.082V222.864Z" fill="#C29226"/>
<path d="M209.451 222.864H208.265V240.014L209.451 239.928V222.864Z" fill="#C29226"/>
<path d="M212.453 222.864H210.002V239.911C210.862 239.842 211.653 239.765 212.453 239.671V222.864Z" fill="#C29226"/>
<path d="M224.234 222.864H221.551V237.973C222.522 237.698 223.417 237.398 224.234 237.115V222.864Z" fill="#C29226"/>
<path d="M224.715 222.864V236.892C227.793 235.632 229.616 234.097 229.616 232.425V222.864H224.715Z" fill="#C29226"/>
<path d="M229.617 222.865C229.617 227.152 217.526 230.642 202.624 230.642C187.721 230.642 175.631 227.161 175.631 222.865C175.631 218.569 187.67 215.079 202.624 215.079C217.578 215.079 229.617 218.569 229.617 222.865Z" fill="#DEBB2C"/>
<path d="M200.801 223.396C197.243 221.362 194.013 218.803 191.221 215.808C182.011 217.051 175.631 219.743 175.631 222.865C175.631 227.152 187.67 230.642 202.624 230.642C209.16 230.745 215.68 229.949 221.998 228.275C214.646 228.181 207.414 227.178 200.801 223.396Z" fill="#CFAE2A"/>
<path d="M202.624 229.192C190.731 229.192 181.418 226.414 181.418 222.864C181.418 219.314 190.731 216.527 202.624 216.527C214.516 216.527 223.821 219.314 223.821 222.864C223.821 226.414 214.508 229.192 202.624 229.192ZM202.624 217.188C190.318 217.188 182.054 220.146 182.054 222.898C182.054 225.651 190.318 228.601 202.624 228.601C214.929 228.601 223.184 225.651 223.184 222.898C223.184 220.146 214.895 217.153 202.624 217.153V217.188Z" fill="#EBD62A"/>
<path d="M171.821 211.023V220.593C171.821 224.88 183.903 228.379 198.814 228.379C213.725 228.379 225.807 224.889 225.807 220.593V211.023H171.821Z" fill="#AC8121"/>
<path d="M178.52 211.023H175.338V224.168C175.338 224.263 175.338 224.348 175.338 224.443C176.356 224.948 177.411 225.376 178.494 225.72L178.52 211.023Z" fill="#C29226"/>
<path d="M180.093 211.023H179.147V225.918L180.093 226.192V211.023Z" fill="#C29226"/>
<path d="M182.312 211.023H180.885V226.415L182.312 226.749V211.023Z" fill="#C29226"/>
<path d="M193.147 211.023H189.51V227.89C190.679 228.018 191.9 228.113 193.147 228.19V211.023Z" fill="#C29226"/>
<path d="M195.977 211.023H194.472V228.267C194.97 228.267 195.478 228.267 195.977 228.319V211.023Z" fill="#C29226"/>
<path d="M203.509 211.023H202.236V228.31L203.509 228.25V211.023Z" fill="#C29226"/>
<path d="M205.642 211.023H204.455V228.173L205.642 228.096V211.023Z" fill="#C29226"/>
<path d="M208.652 211.023H206.192V228.078C207.052 228.01 207.843 227.924 208.652 227.838V211.023Z" fill="#C29226"/>
<path d="M220.433 211.023H217.741V226.132C218.713 225.858 219.616 225.566 220.433 225.275V211.023Z" fill="#C29226"/>
<path d="M220.914 211.023V225.06C224.001 223.8 225.816 222.256 225.816 220.593V211.023H220.914Z" fill="#C29226"/>
<path d="M225.807 211.023C225.807 215.31 213.725 218.809 198.814 218.809C183.903 218.809 171.821 215.319 171.821 211.023C171.821 206.727 183.938 203.263 198.814 203.263C213.691 203.263 225.807 206.693 225.807 211.023Z" fill="#DEBB2C"/>
<path d="M196.991 211.563C193.437 209.524 190.208 206.966 187.412 203.975C178.202 205.209 171.821 207.902 171.821 211.023C171.821 215.31 183.903 218.809 198.814 218.809C205.354 218.912 211.876 218.115 218.197 216.442C210.836 216.339 203.604 215.345 196.991 211.563Z" fill="#CFAE2A"/>
<path d="M198.814 217.36C186.922 217.36 177.617 214.573 177.617 211.023C177.617 207.474 186.922 204.695 198.814 204.695C210.707 204.695 220.011 207.474 220.011 211.023C220.011 214.573 210.698 217.36 198.814 217.36ZM198.814 205.355C186.509 205.355 178.245 208.305 178.245 211.058C178.245 213.81 186.509 216.76 198.814 216.76C211.12 216.76 219.384 213.81 219.384 211.058C219.384 208.305 211.12 205.321 198.814 205.321V205.355Z" fill="#EBD62A"/>
<path d="M177.462 200.631V210.2C177.462 214.487 189.552 217.977 204.455 217.977C219.357 217.977 231.448 214.496 231.448 210.2V200.631H177.462Z" fill="#AC8121"/>
<path d="M184.161 200.631H180.996V213.776C180.996 213.862 180.996 213.956 180.996 214.05C182.014 214.553 183.069 214.977 184.152 215.319L184.161 200.631Z" fill="#C29226"/>
<path d="M185.743 200.631H184.797V215.516L185.751 215.799L185.743 200.631Z" fill="#C29226"/>
<path d="M187.954 200.631H186.518V216.005C186.973 216.125 187.455 216.237 187.936 216.34L187.954 200.631Z" fill="#C29226"/>
<path d="M198.788 200.631H195.116V217.497C196.294 217.617 197.515 217.72 198.754 217.797L198.788 200.631Z" fill="#C29226"/>
<path d="M201.635 200.631H200.13V217.84L201.635 217.892V200.631Z" fill="#C29226"/>
<path d="M209.151 200.631H207.887V217.917L209.151 217.857V200.631Z" fill="#C29226"/>
<path d="M211.283 200.631H210.097V217.78L211.283 217.694V200.631Z" fill="#C29226"/>
<path d="M214.284 200.631H211.833V217.677C212.693 217.609 213.493 217.532 214.284 217.437V200.631Z" fill="#C29226"/>
<path d="M226.073 200.631H223.382V215.739C224.354 215.465 225.248 215.165 226.073 214.882V200.631Z" fill="#C29226"/>
<path d="M226.547 200.631V214.659C229.634 213.399 231.448 211.864 231.448 210.2V200.631H226.547Z" fill="#C29226"/>
<path d="M231.448 200.631C231.448 204.918 219.366 208.408 204.455 208.408C189.544 208.408 177.462 204.927 177.462 200.631C177.462 196.335 189.552 192.845 204.455 192.845C219.357 192.845 231.448 196.326 231.448 200.631Z" fill="#DEBB2C"/>
<path d="M202.632 201.162C199.077 199.122 195.848 196.565 193.052 193.573C183.843 194.817 177.462 197.509 177.462 200.63C177.462 204.918 189.552 208.407 204.455 208.407C210.994 208.511 217.516 207.715 223.838 206.041C216.477 205.947 209.245 204.978 202.632 201.162Z" fill="#CFAE2A"/>
<path d="M204.455 206.967C192.571 206.967 183.258 204.181 183.258 200.631C183.258 197.081 192.571 194.294 204.455 194.294C216.339 194.294 225.652 197.072 225.652 200.631C225.652 204.189 216.348 206.967 204.455 206.967ZM204.455 194.963C192.149 194.963 183.886 197.921 183.886 200.673C183.886 203.426 192.149 206.376 204.455 206.376C216.76 206.376 225.024 203.426 225.024 200.673C225.024 197.921 216.76 194.92 204.455 194.92V194.963Z" fill="#EBD62A"/>
<path d="M173.688 186.73V196.3C173.688 200.587 185.778 204.086 200.68 204.086C215.583 204.086 227.682 200.596 227.682 196.3V186.73H173.688Z" fill="#AC8121"/>
<path d="M180.386 186.73H177.222V199.876C177.222 199.97 177.222 200.056 177.222 200.15C178.238 200.652 179.29 201.079 180.369 201.428L180.386 186.73Z" fill="#C29226"/>
<path d="M181.968 186.73H181.022V201.625L181.968 201.899V186.73Z" fill="#C29226"/>
<path d="M184.187 186.73H182.76V202.114L184.187 202.448V186.73Z" fill="#C29226"/>
<path d="M195.013 186.73H191.376V203.597C192.554 203.726 193.775 203.82 195.013 203.897V186.73Z" fill="#C29226"/>
<path d="M197.868 186.73H196.363V203.974L197.868 204.034V186.73Z" fill="#C29226"/>
<path d="M205.375 186.73H204.111V204.017L205.375 203.957V186.73Z" fill="#C29226"/>
<path d="M207.516 186.73H206.295V203.88L207.482 203.803L207.516 186.73Z" fill="#C29226"/>
<path d="M210.517 186.73H208.066V203.777C208.898 203.708 209.715 203.631 210.517 203.545V186.73Z" fill="#C29226"/>
<path d="M222.298 186.73H219.615V201.839C220.587 201.565 221.481 201.273 222.298 200.982V186.73Z" fill="#C29226"/>
<path d="M222.771 186.73V200.767C225.859 199.498 227.682 197.963 227.682 196.3V186.73H222.771Z" fill="#C29226"/>
<path d="M227.682 186.731C227.682 191.019 215.592 194.509 200.68 194.509C185.769 194.509 173.688 191.027 173.688 186.731C173.688 182.435 185.778 178.954 200.68 178.954C215.583 178.954 227.682 182.435 227.682 186.731Z" fill="#DEBB2C"/>
<path d="M198.866 187.263C195.306 185.231 192.073 182.676 189.278 179.683C180.077 180.917 173.688 183.61 173.688 186.731C173.688 191.018 185.778 194.508 200.68 194.508C207.218 194.598 213.737 193.793 220.055 192.116C212.711 192.047 205.479 191.053 198.866 187.263Z" fill="#CFAE2A"/>
<path d="M200.68 193.067C188.796 193.067 179.483 190.28 179.483 186.73C179.483 183.181 188.796 180.402 200.68 180.402C212.565 180.402 221.886 183.181 221.886 186.73C221.886 190.28 212.573 193.067 200.68 193.067ZM200.68 181.063C188.384 181.063 180.12 184.012 180.12 186.765C180.12 189.517 188.384 192.476 200.68 192.476C212.977 192.476 221.25 189.517 221.25 186.765C221.25 184.012 212.986 181.028 200.68 181.028V181.063Z" fill="#EBD62A"/>
<path d="M179.337 176.33V185.908C179.337 190.195 191.376 193.685 206.33 193.685C221.284 193.685 233.323 190.195 233.323 185.908V176.33H179.337Z" fill="#AC8121"/>
<path d="M186.027 176.33H182.862V189.484C182.862 189.569 182.862 189.664 182.862 189.758C183.88 190.256 184.931 190.68 186.01 191.027L186.027 176.33Z" fill="#C29226"/>
<path d="M187.609 176.33H186.663V191.259L187.609 191.542V176.33Z" fill="#C29226"/>
<path d="M189.828 176.33H188.4V191.713C188.856 191.833 189.338 191.936 189.828 192.048V176.33Z" fill="#C29226"/>
<path d="M200.663 176.33H197.025V193.205C198.195 193.325 199.416 193.428 200.663 193.505V176.33Z" fill="#C29226"/>
<path d="M203.51 176.33H201.996V193.582L203.501 193.634L203.51 176.33Z" fill="#C29226"/>
<path d="M211.017 176.33H209.735V193.617L210.999 193.565L211.017 176.33Z" fill="#C29226"/>
<path d="M213.175 176.33H211.971V193.479L213.157 193.394L213.175 176.33Z" fill="#C29226"/>
<path d="M216.159 176.33H213.708V193.385C214.568 193.317 215.359 193.231 216.159 193.145V176.33Z" fill="#C29226"/>
<path d="M227.94 176.33H225.257V191.447C226.229 191.173 227.123 190.873 227.94 190.59V176.33Z" fill="#C29226"/>
<path d="M228.421 176.33V190.401C231.499 189.141 233.322 187.597 233.322 185.942V176.364L228.421 176.33Z" fill="#C29226"/>
<path d="M233.323 176.33C233.323 180.617 221.232 184.116 206.33 184.116C191.427 184.116 179.337 180.634 179.337 176.33C179.337 172.025 191.376 168.553 206.33 168.553C221.284 168.553 233.323 172.034 233.323 176.33Z" fill="#DEBB2C"/>
<path d="M204.507 176.87C200.946 174.835 197.714 172.277 194.919 169.281C185.718 170.525 179.337 173.217 179.337 176.33C179.337 180.617 191.376 184.115 206.33 184.115C212.866 184.219 219.386 183.423 225.704 181.749C218.334 181.646 211.12 180.651 204.507 176.87Z" fill="#CFAE2A"/>
<path d="M206.296 182.683C194.403 182.683 185.09 179.905 185.09 176.347C185.09 172.788 194.403 170.019 206.296 170.019C218.188 170.019 227.493 172.797 227.493 176.347C227.493 179.897 218.214 182.683 206.296 182.683ZM206.296 170.679C193.99 170.679 185.726 173.629 185.726 176.381C185.726 179.133 193.99 182.092 206.296 182.092C218.601 182.092 226.856 179.142 226.856 176.381C226.856 173.62 218.627 170.627 206.296 170.627V170.679Z" fill="#EBD62A"/>
<path d="M178.107 165.32V174.89C178.107 179.177 190.189 182.667 205.1 182.667C220.011 182.667 232.093 179.186 232.093 174.89V165.32H178.107Z" fill="#AC8121"/>
<path d="M184.797 165.32H181.633V178.465C181.633 178.56 181.633 178.654 181.633 178.74C182.652 179.242 183.707 179.669 184.789 180.017L184.797 165.32Z" fill="#C29226"/>
<path d="M186.38 165.32H185.434V180.215L186.38 180.489V165.32Z" fill="#C29226"/>
<path d="M188.599 165.32H187.18V180.695C187.635 180.815 188.117 180.926 188.599 181.029V165.32Z" fill="#C29226"/>
<path d="M199.416 165.32H195.778V182.187C196.948 182.315 198.169 182.41 199.416 182.487V165.32Z" fill="#C29226"/>
<path d="M202.279 165.32H200.774V182.564C201.273 182.564 201.772 182.564 202.279 182.615V165.32Z" fill="#C29226"/>
<path d="M209.795 165.32H208.522V182.607L209.795 182.547V165.32Z" fill="#C29226"/>
<path d="M211.928 165.32H210.741V182.47L211.928 182.393V165.32Z" fill="#C29226"/>
<path d="M214.894 165.32H212.443V182.367C213.303 182.298 214.094 182.221 214.894 182.127V165.32Z" fill="#C29226"/>
<path d="M226.719 165.32H224.027V180.429C224.999 180.154 225.893 179.854 226.719 179.571V165.32Z" fill="#C29226"/>
<path d="M227.191 165.32V179.357C230.279 178.088 232.093 176.553 232.093 174.89V165.32H227.191Z" fill="#C29226"/>
<path d="M232.093 165.32C232.093 169.608 220.003 173.106 205.1 173.106C190.198 173.106 178.107 169.616 178.107 165.32C178.107 161.024 190.189 157.543 205.1 157.543C220.011 157.543 232.093 161.024 232.093 165.32Z" fill="#DEBB2C"/>
<path d="M203.277 165.851C199.722 163.817 196.492 161.262 193.698 158.271C184.488 159.506 178.107 162.199 178.107 165.32C178.107 169.607 190.189 173.106 205.1 173.106C211.637 173.207 218.157 172.408 224.474 170.731C217.122 170.679 209.89 169.642 203.277 165.851Z" fill="#CFAE2A"/>
<path d="M205.1 171.657C193.216 171.657 183.903 168.87 183.903 165.32C183.903 161.77 193.216 158.983 205.1 158.983C216.985 158.983 226.297 161.77 226.297 165.32C226.297 168.87 216.985 171.657 205.1 171.657ZM205.1 159.652C192.795 159.652 184.531 162.602 184.531 165.354C184.531 168.107 192.795 171.057 205.1 171.057C217.406 171.057 225.67 168.107 225.67 165.354C225.67 162.602 217.406 159.618 205.1 159.618V159.652Z" fill="#EBD62A"/>
<path d="M174.298 153.529V163.09C174.298 167.377 186.388 170.876 201.291 170.876C216.193 170.876 228.284 167.395 228.284 163.09V153.529H174.298Z" fill="#AC8121"/>
<path d="M180.997 153.529H177.832V166.666C177.832 166.769 177.832 166.854 177.832 166.949C178.85 167.451 179.905 167.876 180.988 168.218L180.997 153.529Z" fill="#C29226"/>
<path d="M182.579 153.529H181.624V168.415L182.579 168.698V153.529Z" fill="#C29226"/>
<path d="M184.798 153.529H183.379V168.904C183.835 169.024 184.316 169.127 184.798 169.238V153.529Z" fill="#C29226"/>
<path d="M195.624 153.529H191.986V170.396C193.164 170.516 194.386 170.619 195.624 170.696V153.529Z" fill="#C29226"/>
<path d="M198.47 153.529H196.965V170.764L198.47 170.824V153.529Z" fill="#C29226"/>
<path d="M205.986 153.529H204.722V170.807L205.986 170.756V153.529Z" fill="#C29226"/>
<path d="M208.118 153.529H206.932V170.679L208.118 170.593V153.529Z" fill="#C29226"/>
<path d="M211.128 153.529H208.678V170.576C209.538 170.507 210.329 170.421 211.128 170.336V153.529Z" fill="#C29226"/>
<path d="M222.909 153.529H220.218V168.638C221.189 168.363 222.092 168.063 222.909 167.78V153.529Z" fill="#C29226"/>
<path d="M223.382 153.529V167.557C226.469 166.297 228.283 164.762 228.283 163.09V153.529H223.382Z" fill="#C29226"/>
<path d="M228.284 153.53C228.284 157.817 216.245 161.307 201.291 161.307C186.337 161.307 174.298 157.826 174.298 153.53C174.298 149.234 186.388 145.744 201.291 145.744C216.193 145.744 228.284 149.183 228.284 153.53Z" fill="#DEBB2C"/>
<path d="M199.468 154.018C195.911 151.982 192.682 149.423 189.888 146.43C180.678 147.673 174.298 150.365 174.298 153.487C174.298 157.774 186.388 161.264 201.291 161.264C207.83 161.368 214.352 160.571 220.673 158.897C213.313 158.794 206.089 157.817 199.468 154.018Z" fill="#CFAE2A"/>
<path d="M201.291 159.824C189.407 159.824 180.094 157.037 180.094 153.487C180.094 149.937 189.407 147.15 201.291 147.15C213.175 147.15 222.497 149.928 222.497 153.487C222.497 157.045 213.175 159.824 201.291 159.824ZM201.291 147.819C188.985 147.819 180.721 150.769 180.721 153.53C180.721 156.291 188.985 159.232 201.291 159.232C213.596 159.232 221.86 156.282 221.86 153.53C221.86 150.777 213.596 147.776 201.291 147.776V147.819Z" fill="#EBD62A"/>
<path d="M114.129 223.653V233.223C114.129 237.51 126.211 241 141.122 241C156.033 241 168.115 237.519 168.115 233.223V223.653H114.129Z" fill="#AC8121"/>
<path d="M120.828 223.653H117.663V236.798C117.663 236.893 117.663 236.987 117.663 237.073C118.681 237.575 119.736 238 120.819 238.342L120.828 223.653Z" fill="#C29226"/>
<path d="M122.41 223.653H121.455V238.548L122.41 238.822V223.653Z" fill="#C29226"/>
<path d="M124.603 223.653H123.201V239.028C123.657 239.148 124.138 239.259 124.62 239.362L124.603 223.653Z" fill="#C29226"/>
<path d="M135.455 223.653H131.817V240.52C132.995 240.648 134.208 240.743 135.455 240.82V223.653Z" fill="#C29226"/>
<path d="M138.302 223.653H136.797V240.897C137.296 240.897 137.803 240.897 138.302 240.948V223.653Z" fill="#C29226"/>
<path d="M145.817 223.653H144.544V240.94L145.817 240.88V223.653Z" fill="#C29226"/>
<path d="M147.949 223.653H146.763V240.803L147.949 240.717V223.653Z" fill="#C29226"/>
<path d="M150.951 223.653H148.5V240.7C149.36 240.631 150.151 240.554 150.951 240.46V223.653Z" fill="#C29226"/>
<path d="M162.74 223.653H160.049V238.762C161.021 238.488 161.915 238.187 162.74 237.904V223.653Z" fill="#C29226"/>
<path d="M163.213 223.653V237.681C166.3 236.421 168.114 234.886 168.114 233.223V223.653H163.213Z" fill="#C29226"/>
<path d="M168.115 223.653C168.115 227.94 156.076 231.43 141.122 231.43C126.168 231.43 114.129 227.949 114.129 223.653C114.129 219.357 126.211 215.867 141.122 215.867C156.033 215.867 168.115 219.357 168.115 223.653Z" fill="#DEBB2C"/>
<path d="M139.299 224.185C135.756 222.148 132.541 219.59 129.762 216.597C120.553 217.84 114.172 220.532 114.172 223.654C114.172 227.941 126.254 231.431 141.165 231.431C147.704 231.534 154.226 230.738 160.548 229.064C153.144 228.987 145.912 227.975 139.299 224.185Z" fill="#CFAE2A"/>
<path d="M141.122 229.99C129.238 229.99 119.925 227.203 119.925 223.653C119.925 220.103 129.238 217.316 141.122 217.316C153.006 217.316 162.319 220.103 162.319 223.653C162.319 227.203 152.98 229.99 141.122 229.99ZM141.122 217.985C128.816 217.985 120.553 220.935 120.553 223.687C120.553 226.44 128.816 229.39 141.122 229.39C153.427 229.39 161.691 226.44 161.691 223.687C161.691 220.935 153.427 217.951 141.122 217.951V217.985Z" fill="#EBD62A"/>
<path d="M110.319 211.838V221.416C110.319 225.703 122.41 229.193 137.312 229.193C152.215 229.193 164.305 225.703 164.305 221.416V211.838H110.319Z" fill="#AC8121"/>
<path d="M117.018 211.838H113.854V224.983C113.854 225.086 113.854 225.172 113.854 225.266C114.873 225.765 115.928 226.189 117.009 226.535L117.018 211.838Z" fill="#C29226"/>
<path d="M118.584 211.838H117.638V226.732C117.939 226.826 118.257 226.921 118.584 227.006V211.838Z" fill="#C29226"/>
<path d="M120.81 211.838H119.392V227.221C119.847 227.341 120.329 227.444 120.81 227.555V211.838Z" fill="#C29226"/>
<path d="M131.645 211.838H128.042V228.704C129.22 228.833 130.441 228.927 131.679 229.004L131.645 211.838Z" fill="#C29226"/>
<path d="M134.492 211.838H132.996V229.09L134.492 229.142V211.838Z" fill="#C29226"/>
<path d="M142.007 211.838H140.743V229.124L142.007 229.073V211.838Z" fill="#C29226"/>
<path d="M144.14 211.838H142.953V228.987L144.14 228.902V211.838Z" fill="#C29226"/>
<path d="M147.15 211.838H144.699V228.893C145.559 228.824 146.35 228.739 147.15 228.653V211.838Z" fill="#C29226"/>
<path d="M158.931 211.838H156.239V226.955C157.211 226.672 158.114 226.381 158.931 226.098V211.838Z" fill="#C29226"/>
<path d="M159.404 211.838V225.875C162.491 224.614 164.306 223.071 164.306 221.416V211.838H159.404Z" fill="#C29226"/>
<path d="M164.305 211.838C164.305 216.125 152.266 219.624 137.312 219.624C122.358 219.624 110.319 216.125 110.319 211.838C110.319 207.55 122.41 204.061 137.312 204.061C152.215 204.061 164.305 207.55 164.305 211.838Z" fill="#DEBB2C"/>
<path d="M135.489 212.352C131.933 210.316 128.704 207.757 125.91 204.764C116.709 206.007 110.319 208.691 110.319 211.812C110.319 216.099 122.41 219.598 137.312 219.598C143.852 219.702 150.374 218.905 156.695 217.231C149.334 217.128 142.111 216.125 135.489 212.352Z" fill="#CFAE2A"/>
<path d="M137.312 218.148C125.428 218.148 116.115 215.37 116.115 211.812C116.115 208.253 125.428 205.483 137.312 205.483C149.196 205.483 158.518 208.262 158.518 211.812C158.518 215.361 149.205 218.148 137.312 218.148ZM137.312 206.144C125.007 206.144 116.743 209.093 116.743 211.846C116.743 214.598 125.007 217.557 137.312 217.557C149.618 217.557 157.882 214.607 157.882 211.846C157.882 209.085 149.618 206.109 137.312 206.109V206.144Z" fill="#EBD62A"/>
<path d="M116.004 201.42V210.981C116.004 215.268 128.094 218.758 142.997 218.758C157.899 218.758 169.99 215.276 169.99 210.981V201.411L116.004 201.42Z" fill="#AC8121"/>
<path d="M122.66 201.419H119.495V214.564C119.495 214.658 119.495 214.744 119.495 214.838C120.514 215.34 121.569 215.764 122.651 216.107L122.66 201.419Z" fill="#C29226"/>
<path d="M124.242 201.419H123.296V216.313L124.242 216.588V201.419Z" fill="#C29226"/>
<path d="M126.46 201.419H125.032V216.793C125.488 216.913 125.97 217.025 126.46 217.128V201.419Z" fill="#C29226"/>
<path d="M137.287 201.419H133.649V218.285C134.828 218.414 136.049 218.508 137.287 218.585V201.419Z" fill="#C29226"/>
<path d="M140.133 201.419H138.637V218.697C139.127 218.697 139.634 218.697 140.133 218.748V201.419Z" fill="#C29226"/>
<path d="M147.649 201.419H146.385V218.697L147.649 218.637V201.419Z" fill="#C29226"/>
<path d="M149.781 201.419H148.595V218.568L149.781 218.491V201.419Z" fill="#C29226"/>
<path d="M152.791 201.419H150.34V218.465C151.2 218.397 151.991 218.32 152.791 218.225V201.419Z" fill="#C29226"/>
<path d="M164.572 201.419H161.881V216.528C162.853 216.253 163.755 215.953 164.572 215.67V201.419Z" fill="#C29226"/>
<path d="M165.02 201.419V215.447C168.107 214.195 169.921 212.652 169.921 210.988V201.419H165.02Z" fill="#C29226"/>
<path d="M169.947 201.419C169.947 205.706 157.908 209.196 142.954 209.196C128 209.196 116.004 205.715 116.004 201.419C116.004 197.123 128.094 193.642 142.997 193.642C157.899 193.642 169.947 197.123 169.947 201.419Z" fill="#DEBB2C"/>
<path d="M141.131 201.951C137.575 199.917 134.345 197.362 131.551 194.371C122.342 195.606 115.961 198.298 115.961 201.419C115.961 205.707 128.051 209.197 142.954 209.197C149.493 209.3 156.016 208.504 162.337 206.83C154.984 206.736 147.752 205.741 141.131 201.951Z" fill="#CFAE2A"/>
<path d="M142.954 207.756C131.07 207.756 121.757 204.97 121.757 201.42C121.757 197.87 131.07 195.083 142.954 195.083C154.838 195.083 164.16 197.87 164.16 201.42C164.16 204.97 154.847 207.756 142.954 207.756ZM142.954 195.752C130.657 195.752 122.393 198.702 122.393 201.454C122.393 204.207 130.657 207.156 142.954 207.156C155.251 207.156 163.523 204.207 163.523 201.454C163.523 198.702 155.259 195.718 142.954 195.718V195.752Z" fill="#EBD62A"/>
<path d="M112.194 187.52V197.089C112.194 201.376 124.276 204.875 139.187 204.875C154.098 204.875 166.18 201.385 166.18 197.089V187.52H112.194Z" fill="#AC8121"/>
<path d="M118.884 187.52H115.729V200.69C115.729 200.785 115.729 200.879 115.729 200.973C116.746 201.471 117.798 201.895 118.876 202.242L118.884 187.52Z" fill="#C29226"/>
<path d="M120.466 187.52H119.521V202.405L120.466 202.68V187.52Z" fill="#C29226"/>
<path d="M122.685 187.52H121.258V202.902L122.685 203.237V187.52Z" fill="#C29226"/>
<path d="M133.52 187.52H129.883V204.394C131.052 204.514 132.273 204.609 133.52 204.686V187.52Z" fill="#C29226"/>
<path d="M136.366 187.52H134.861V204.763L136.366 204.823V187.52Z" fill="#C29226"/>
<path d="M143.873 187.52H142.609V204.806L143.873 204.755V187.52Z" fill="#C29226"/>
<path d="M146.015 187.52H144.828V204.669L146.015 204.583V187.52Z" fill="#C29226"/>
<path d="M149.016 187.52H146.565V204.575C147.425 204.506 148.216 204.42 149.016 204.334V187.52Z" fill="#C29226"/>
<path d="M160.797 187.52H158.14V202.637C159.111 202.354 160.006 202.062 160.823 201.779L160.797 187.52Z" fill="#C29226"/>
<path d="M161.278 187.519V201.547C164.365 200.287 166.18 198.744 166.18 197.08V187.511L161.278 187.519Z" fill="#C29226"/>
<path d="M166.18 187.519C166.18 191.807 154.141 195.305 139.187 195.305C124.233 195.305 112.194 191.824 112.194 187.519C112.194 183.215 124.276 179.742 139.187 179.742C154.098 179.742 166.18 183.224 166.18 187.519Z" fill="#DEBB2C"/>
<path d="M137.364 188.06C133.808 186.024 130.579 183.465 127.785 180.472C118.575 181.715 112.194 184.399 112.194 187.52C112.194 191.807 124.276 195.306 139.187 195.306C145.724 195.409 152.243 194.613 158.561 192.939C151.209 192.836 143.977 191.842 137.364 188.06Z" fill="#CFAE2A"/>
<path d="M139.222 193.831C127.329 193.831 118.024 191.053 118.024 187.494C118.024 183.936 127.329 181.166 139.222 181.166C151.114 181.166 160.419 183.944 160.419 187.494C160.419 191.044 151.071 193.831 139.222 193.831ZM139.222 181.826C126.916 181.826 118.652 184.776 118.652 187.528C118.652 190.281 126.916 193.239 139.222 193.239C151.527 193.239 159.791 190.29 159.791 187.528C159.791 184.767 151.484 181.826 139.222 181.826Z" fill="#EBD62A"/>
<path d="M117.835 177.127V186.696C117.835 190.984 129.917 194.474 144.828 194.474C159.739 194.474 171.821 190.992 171.821 186.696V177.127H117.835Z" fill="#AC8121"/>
<path d="M124.525 177.127H121.369V190.272C121.369 190.366 121.369 190.452 121.369 190.546C122.385 191.048 123.437 191.472 124.516 191.815L124.525 177.127Z" fill="#C29226"/>
<path d="M126.108 177.127H125.162V192.021L126.108 192.296V177.127Z" fill="#C29226"/>
<path d="M128.326 177.127H126.898V192.501C127.363 192.621 127.844 192.733 128.326 192.836V177.127Z" fill="#C29226"/>
<path d="M139.161 177.127H135.523V193.993C136.693 194.113 137.914 194.216 139.161 194.294V177.127Z" fill="#C29226"/>
<path d="M142.008 177.127H140.503V194.371C141.002 194.371 141.509 194.371 142.008 194.422V177.127Z" fill="#C29226"/>
<path d="M149.541 177.127H148.251V194.414L149.524 194.353L149.541 177.127Z" fill="#C29226"/>
<path d="M151.655 177.127H150.469V194.276L151.655 194.199V177.127Z" fill="#C29226"/>
<path d="M154.7 177.127H152.206V194.173C153.066 194.105 153.857 194.028 154.657 193.933L154.7 177.127Z" fill="#C29226"/>
<path d="M166.446 177.127H163.755V192.236C164.727 191.961 165.621 191.661 166.446 191.378V177.127Z" fill="#C29226"/>
<path d="M166.92 177.127V191.164C170.007 189.895 171.821 188.36 171.821 186.696V177.127H166.92Z" fill="#C29226"/>
<path d="M171.821 177.128C171.821 181.415 159.782 184.905 144.828 184.905C129.874 184.905 117.835 181.424 117.835 177.128C117.835 172.832 129.917 169.342 144.828 169.342C159.739 169.342 171.821 172.832 171.821 177.128Z" fill="#DEBB2C"/>
<path d="M143.005 177.659C139.447 175.625 136.217 173.067 133.425 170.07C124.216 171.314 117.835 174.006 117.835 177.127C117.835 181.415 129.917 184.904 144.828 184.904C151.367 185.007 157.889 184.211 164.211 182.538C156.85 182.443 149.618 181.44 143.005 177.659Z" fill="#CFAE2A"/>
<path d="M144.828 183.464C132.944 183.464 123.631 180.678 123.631 177.128C123.631 173.578 132.944 170.791 144.828 170.791C156.712 170.791 166.025 173.569 166.025 177.128C166.025 180.686 156.712 183.464 144.828 183.464ZM144.828 171.46C132.522 171.46 124.259 174.401 124.259 177.162C124.259 179.923 132.522 182.864 144.828 182.864C157.133 182.864 165.397 179.915 165.397 177.162C165.397 174.41 157.133 171.426 144.828 171.426V171.46Z" fill="#EBD62A"/>
<path d="M96.6385 40.9951C96.6385 40.9951 87.6265 76.6058 94.9616 111.513L125.463 118.965C125.463 118.965 117.345 60.1166 112.461 46.3457C112.461 46.3457 101.144 41.8526 96.6385 40.9951Z" fill="#F75D59"/>
<path d="M81.1423 192.647C81.1423 192.647 81.5551 197.329 88.5376 202.337C88.5376 202.337 91.8655 205.492 89.6555 207.627C89.6555 207.627 75.5442 204.086 72.887 196.96L72.3109 198.452L65.6465 195.88L69.3785 188.3L81.1423 192.647Z" fill="#4A292F"/>
<path d="M109.803 119.814L81.7698 195.391L67.5811 188.943L90.6442 105.546L109.803 119.814Z" fill="#5E3B3B"/>
<path d="M96.586 100.152C96.586 100.152 102.476 100.701 103.465 106.069C103.465 106.069 103.698 108.41 102.313 109.062C102.313 109.062 101.728 108.976 101.754 109.919C101.754 110.168 101.298 110.656 101.126 110.776C100.788 111.036 100.365 111.162 99.9397 111.128C99.1486 111.188 99.0196 112.431 98.2199 112.586C97.8243 112.671 97.4803 112.466 97.0848 112.586C96.6892 112.706 96.5172 112.911 96.1389 112.774C95.7605 112.637 95.4853 112.234 95.1671 112.003C94.7908 111.744 94.4344 111.457 94.1008 111.145C93.2923 110.291 92.609 109.327 92.0714 108.281C91.5686 107.347 91.1624 106.365 90.8589 105.349C90.2752 103.826 89.3621 102.45 88.1846 101.319L91.9854 96.9111C91.9854 96.9111 94.161 99.5093 96.586 100.152Z" fill="#F5C6AB"/>
<path d="M92.2782 96.6885C92.2782 96.6885 94.1614 99.501 96.5778 100.118C96.5778 100.118 102.468 100.667 103.457 106.035C103.542 106.938 103.321 107.844 102.829 108.607C103.095 107.94 103.204 107.222 103.148 106.506C102.133 101.139 96.2682 100.59 96.2682 100.59C93.8346 99.9383 91.5645 97.1086 91.5645 97.1086" fill="#E2B69D"/>
<path d="M100.009 56.2068C100.009 56.2068 106.485 47.5721 98.4959 43.1562C98.4959 43.1562 92.8634 41.1411 86.8353 52.5883L73.9795 81.3135L89.5527 104.594L98.2809 99.0802L86.7149 80.1044L100.009 56.2068Z" fill="#F46767"/>
<path d="M132.145 158.426C132.145 158.426 134.062 162.491 142.292 165.723C142.292 165.723 146.462 167.953 145.078 170.216C145.078 170.216 130.58 169.47 125.747 163.631L125.695 165.046L118.566 163.931L119.624 156.608L132.145 158.426Z" fill="#4A292F"/>
<path d="M111.395 44.5543C112.384 39.2551 113.398 37.4202 113.398 37.4202C115.823 37.4888 119.659 37.5059 119.659 37.5059C123.288 37.6345 122.668 34.6677 122.668 34.6677C122.178 33.2443 123.279 33.0042 123.279 33.0042C124.139 32.4897 123.898 31.9752 123.898 31.9752C123.866 31.7674 123.783 31.5705 123.657 31.4017C123.531 31.2329 123.366 31.0971 123.176 31.0063C124.896 30.7919 124.147 29.5486 124.147 29.5486C124.044 29.2667 124.034 28.9595 124.117 28.6713C124.201 28.3831 124.374 28.1288 124.612 27.9451L126.185 27.525C127.828 27.1991 127.329 26.1787 127.329 26.1787L125.3 21.8914C124.44 19.2247 125.171 18.1528 125.171 18.1528C127.88 11.3617 124.491 9.03797 120.286 6.90287C118.867 6.22303 117.384 5.68589 115.858 5.29941C109.838 3.58447 102.357 5.00787 99.2441 10.9844C97.6946 13.8103 97.0636 17.0462 97.4382 20.2451C97.646 21.7584 98.0628 23.2358 98.6765 24.6353C100.353 28.1251 100.868 32.0575 100.147 35.8596L99.2097 41.6046L111.395 44.5543Z" fill="#F5C6AB"/>
<path d="M112.297 16.4888C111.855 16.774 111.511 17.1872 111.311 17.6731C111.111 18.1591 111.065 18.6943 111.179 19.207L110.999 24.5405L109.124 24.0517C109.124 24.0517 109.769 19.1813 106.734 19.7644C106.734 19.7644 103.595 21.1449 106.734 26.5727L100.362 33.2867C100.362 33.2867 95.847 28.502 95.3827 19.7644C95.3827 19.7644 93.5511 -2.76133 115.668 0.291257C115.668 0.291257 121.481 1.37168 125.188 4.32137C125.188 4.32137 128.309 7.27106 127.122 10.9153C127.122 10.9153 123.786 14.9968 119.16 16.0601C120.274 14.6833 121.048 13.065 121.421 11.3355C121.421 11.3355 117.981 16.6003 113.888 17.9894L114.963 14.0193L112.297 16.4888Z" fill="black"/>
<path d="M96.4574 40.5239C96.4574 40.5239 84.1863 63.3754 87.0928 97.7942L113.243 100.367C113.243 100.367 117.869 66.2394 113.243 49.1757C113.243 49.21 103.56 37.9429 96.4574 40.5239Z" fill="white"/>
<path d="M98.7272 32.9609L96.457 40.5238L113.243 49.21L112.598 41.4842L98.7272 32.9609Z" fill="white"/>
<path d="M87.4109 96.208L113.243 100.392L112.916 103.934L87.0928 99.1063V97.8201" fill="#1F140F"/>
<path d="M147.88 109.122L113.208 103.488L87.0925 99.1064C86.5527 102.405 86.3024 105.745 86.3444 109.087C86.2326 121.949 104.85 127.094 104.85 127.094L131.507 124.762L118.333 157.08L134.767 159.704L152.472 114.747C152.472 114.747 152.825 110.734 147.88 109.122Z" fill="#5E3B3B"/>
<path d="M96.4576 40.5244C96.4576 40.5244 82.6043 60.8035 84.4187 110.056L113.476 121.864C113.476 121.864 114.12 62.467 111.326 48.1216C111.334 48.0615 100.792 42.0593 96.4576 40.5244Z" fill="#F75D59"/>
<path d="M129.091 98.2402C129.091 98.2402 134.328 95.5306 138.095 99.4921C138.095 99.4921 139.565 101.344 138.757 102.639C138.757 102.639 138.215 102.871 138.757 103.651C138.903 103.857 138.757 104.508 138.757 104.74C138.628 105.211 138.31 105.392 137.897 105.674C137.269 106.155 137.828 107.278 137.278 107.818C136.985 108.093 136.581 108.118 136.332 108.444C136.082 108.77 136.022 109.019 135.635 109.113C135.218 109.129 134.801 109.086 134.397 108.984C133.947 108.976 133.499 108.933 133.055 108.856C131.911 108.57 130.811 108.129 129.788 107.544C128.868 107.026 128.004 106.417 127.208 105.726C125.876 104.766 124.35 104.107 122.736 103.797L123.545 98.043C123.545 98.043 126.683 99.0034 129.091 98.2402Z" fill="#F5C6AB"/>
<path d="M123.571 97.6572C123.571 97.6572 126.684 99.0034 129.091 98.2402C129.091 98.2402 134.328 95.5306 138.095 99.4921C138.654 100.211 138.956 101.095 138.955 102.004C138.816 101.303 138.522 100.641 138.095 100.067C134.328 96.0966 129.083 98.8147 129.083 98.8147C126.684 99.5779 123.235 98.4203 123.235 98.4203" fill="#E2B69D"/>
<path d="M108.109 59.4394C108.109 59.4394 108.866 48.6867 99.7506 49.2869C99.7506 49.2869 93.9203 50.6246 95.0468 63.478L99.828 94.5698L125.565 105.717L129.865 96.3619L109.906 86.7154L108.109 59.4394Z" fill="#F46767"/>
<path d="M113.423 83.8177C113.423 83.8177 112.778 51.9542 111.325 48.0871L97.9878 35.5938L96.3711 40.5242L105.521 49.6476L110.362 56.4045L108.427 58.874L113.423 83.8177Z" fill="#F75D59"/>
</g>
<defs>
<clipPath id="clip0_3425_3152">
<rect width="297" height="241" fill="white"/>
</clipPath>
</defs>
</svg>
