<svg width="200" height="200" viewBox="0 0 208 157" fill="none" xmlns="http://www.w3.org/2000/svg">
<path d="M2.22631 63.7585C7.95215 27.3603 27.7367 1.08592 50.9595 0.0320737C63.2368 -0.525061 76.1558 6.05741 85.5618 29.0919C102.376 70.2684 84.5286 98.7227 72.0857 112.244C66.069 118.782 60.6644 126.665 55.9928 135.627C47.588 151.75 31.4192 171.785 12.1629 140.393C-1.79405 117.64 -1.58767 88.0033 2.22631 63.7585Z" fill="#F2F2F2"/>
<path d="M208 96.0225H40.6401V155.597H208V96.0225Z" fill="#3F3D56"/>
<path opacity="0.1" d="M85.7866 96.0225L40.6401 126.369V108.795L59.6412 96.0225H85.7866Z" fill="black"/>
<path opacity="0.1" d="M130.403 96.0225L88.1753 124.408L86.6633 125.425L41.7761 155.597H40.6401V138.784L69.5642 119.344L70.532 118.693L104.259 96.0225H130.403Z" fill="black"/>
<path d="M45.5594 125.998L45.1089 125.445C45.1537 125.41 49.6679 121.924 56.8785 119.93C61.0554 118.765 65.4084 118.324 69.7406 118.627C75.1134 119.01 80.4556 120.562 85.6188 123.242L85.2806 123.867C73.7939 117.905 63.602 118.805 57.0747 120.611C50.0029 122.566 45.603 125.963 45.5594 125.998Z" fill="#F2F2F2"/>
<path d="M89.205 125.721C87.0496 125.356 84.1972 125.204 82.1426 125.592L84.9422 123.296L85.5933 119.778C86.2661 121.718 87.8138 124.069 89.205 125.721Z" fill="#F2F2F2"/>
<path d="M119.437 132.91C115.987 132.906 112.554 132.436 109.235 131.512C102.024 129.518 97.5101 126.032 97.4653 125.998L97.9157 125.445C97.9595 125.479 102.381 128.888 109.461 130.84C115.982 132.638 126.163 133.531 137.637 127.575L137.975 128.2C132.812 130.88 127.47 132.433 122.097 132.815C121.212 132.879 120.325 132.91 119.437 132.91Z" fill="#F2F2F2"/>
<path d="M141.562 125.721C140.171 127.374 138.623 129.725 137.95 131.665L137.299 128.147L134.5 125.851C136.554 126.239 139.407 126.086 141.562 125.721Z" fill="#F2F2F2"/>
<path d="M152.258 125.998L151.808 125.445C151.852 125.41 156.367 121.924 163.577 119.93C167.754 118.765 172.107 118.324 176.44 118.627C181.812 119.01 187.155 120.562 192.318 123.242L191.98 123.867C180.493 117.905 170.301 118.805 163.774 120.611C156.702 122.566 152.302 125.963 152.258 125.998Z" fill="#F2F2F2"/>
<path d="M195.904 125.721C193.748 125.356 190.896 125.204 188.841 125.592L191.641 123.296L192.292 119.778C192.965 121.718 194.513 124.069 195.904 125.721Z" fill="#F2F2F2"/>
<path d="M150.769 112.286H139.034V112.64H150.769V112.286Z" fill="#FF7666"/>
<path d="M150.769 115.822H139.034V116.175H150.769V115.822Z" fill="#FF7666"/>
<path d="M150.769 119.357H139.034V119.711H150.769V119.357Z" fill="#FF7666"/>
<path d="M98.0515 133.146H86.3164V133.499H98.0515V133.146Z" fill="#FF7666"/>
<path d="M98.0515 136.681H86.3164V137.035H98.0515V136.681Z" fill="#FF7666"/>
<path d="M98.0515 140.217H86.3164V140.57H98.0515V140.217Z" fill="#FF7666"/>
<path d="M205.112 133.146H193.376V133.499H205.112V133.146Z" fill="#FF7666"/>
<path d="M205.112 136.681H193.376V137.035H205.112V136.681Z" fill="#FF7666"/>
<path d="M205.112 140.217H193.376V140.57H205.112V140.217Z" fill="#FF7666"/>
<path d="M92.4549 130.141C93.7511 130.141 94.8019 129.112 94.8019 127.843C94.8019 126.573 93.7511 125.544 92.4549 125.544C91.1587 125.544 90.1079 126.573 90.1079 127.843C90.1079 129.112 91.1587 130.141 92.4549 130.141Z" fill="#FF7666"/>
<path d="M144.992 126.959C146.288 126.959 147.339 125.93 147.339 124.661C147.339 123.391 146.288 122.362 144.992 122.362C143.696 122.362 142.645 123.391 142.645 124.661C142.645 125.93 143.696 126.959 144.992 126.959Z" fill="#FF7666"/>
<path d="M199.154 130.141C200.45 130.141 201.501 129.112 201.501 127.843C201.501 126.573 200.45 125.544 199.154 125.544C197.857 125.544 196.807 126.573 196.807 127.843C196.807 129.112 197.857 130.141 199.154 130.141Z" fill="#FF7666"/>
<path d="M68.8874 80.0255L65.3916 76.3557L69.1395 72.9327L72.6353 76.6025L68.8874 80.0255ZM65.9488 76.3747L68.9068 79.4799L72.0781 76.5836L69.1201 73.4783L65.9488 76.3747Z" fill="#3F3D56"/>
<path d="M152.998 37.0059L149.502 33.3361L153.25 29.9132L156.746 33.583L152.998 37.0059ZM150.059 33.3551L153.017 36.4603L156.188 33.564L153.23 30.4588L150.059 33.3551Z" fill="#3F3D56"/>
<path d="M195.928 96.3203H190.803V91.3019H195.928V96.3203ZM191.197 95.9342H195.534V91.6879H191.197L191.197 95.9342Z" fill="#3F3D56"/>
<path d="M120.02 116.087C121.466 116.087 122.637 114.94 122.637 113.525C122.637 112.11 121.466 110.963 120.02 110.963C118.575 110.963 117.404 112.11 117.404 113.525C117.404 114.94 118.575 116.087 120.02 116.087Z" fill="#FF7666"/>
<path d="M120.021 120.927C118.525 120.927 117.064 120.493 115.821 119.68C114.578 118.866 113.609 117.71 113.037 116.358C112.465 115.006 112.315 113.517 112.607 112.082C112.898 110.646 113.618 109.327 114.675 108.292C115.733 107.257 117.079 106.552 118.546 106.266C120.012 105.981 121.532 106.127 122.913 106.687C124.294 107.248 125.475 108.196 126.306 109.413C127.136 110.631 127.58 112.062 127.58 113.526C127.577 115.488 126.78 117.369 125.363 118.757C123.946 120.144 122.025 120.925 120.021 120.927ZM120.021 106.693C118.64 106.693 117.291 107.094 116.144 107.845C114.996 108.596 114.102 109.663 113.574 110.911C113.046 112.159 112.908 113.533 113.177 114.858C113.446 116.184 114.111 117.401 115.087 118.357C116.062 119.312 117.306 119.963 118.659 120.226C120.013 120.49 121.416 120.355 122.691 119.838C123.966 119.32 125.055 118.445 125.822 117.321C126.589 116.198 126.998 114.877 126.998 113.526C126.996 111.714 126.26 109.978 124.952 108.697C123.644 107.416 121.87 106.695 120.021 106.693Z" fill="#F2F2F2"/>
<path d="M127.1 51.818H105.3V76.6866H127.1V51.818Z" fill="#F2F2F2"/>
<path d="M119.688 113.854L119.385 113.565C120.779 112.018 121.835 110.209 122.489 108.249C123.518 105.214 124.022 100.422 120.569 94.8234C117.037 89.0955 116.878 84.443 117.367 81.5488C117.899 78.3995 119.255 76.6342 119.313 76.5607L119.649 76.8123C119.635 76.8296 118.291 78.5855 117.781 81.6408C117.31 84.4616 117.474 89.0014 120.932 94.6091C124.472 100.351 123.948 105.276 122.884 108.397C121.732 111.779 119.771 113.771 119.688 113.854Z" fill="#3F3D56"/>
<path d="M135.566 76.8938H105.088V47.0515H135.566V76.8938ZM105.512 76.4793H135.143V47.466H105.512V76.4793Z" fill="#3F3D56"/>
<path d="M130.063 55.7555H111.438V56.17H130.063V55.7555Z" fill="#3F3D56"/>
<path d="M130.063 60.3148H111.438V60.7293H130.063V60.3148Z" fill="#3F3D56"/>
<path d="M130.063 64.874H111.438V65.2885H130.063V64.874Z" fill="#3F3D56"/>
<path d="M30.6903 137.365L29.9248 144.612L34.2635 144.113L34.7739 138.115L30.6903 137.365Z" fill="#FFB9B9"/>
<path d="M19.2052 82.3862C19.2052 82.3862 -2.99935 103.378 11.038 109.876H15.3768C15.3768 109.876 24.8201 94.6316 29.4142 94.8815L30.6903 109.376L29.9246 138.615L35.5396 138.865C35.5396 138.865 38.8575 124.12 38.6023 115.873L44.4724 85.3851L19.2052 82.3862Z" fill="#2F2E41"/>
<path d="M12.3145 108.876L15.3772 109.876C15.3772 109.876 27.3727 107.127 28.1384 107.377L30.5132 107.361L30.4354 101.379H20.2264L12.3145 108.876Z" fill="#2F2E41"/>
<path d="M34.7743 143.113C34.7743 143.113 30.1802 141.114 29.4146 143.113C28.6489 145.112 28.9041 150.86 28.9041 150.86C28.9041 150.86 29.925 152.609 29.4146 154.609C28.9041 156.608 31.4564 157.607 34.7743 156.608C38.0922 155.608 38.0922 153.109 38.0922 153.109L34.7743 143.113Z" fill="#2F2E41"/>
<path d="M38.6026 100.879C38.6026 100.879 42.1758 98.8799 41.9206 101.879C41.6653 104.878 40.3892 107.627 40.3892 107.627C40.3892 107.627 43.7071 116.123 40.3892 116.873C37.0713 117.623 34.519 115.873 34.519 114.624C34.519 113.374 38.6026 100.879 38.6026 100.879Z" fill="#2F2E41"/>
<path d="M27.3726 32.4053L27.8832 41.9017L32.2219 45.6502L37.0712 38.903V32.1555L27.3726 32.4053Z" fill="#FFB9B9"/>
<path d="M30.6904 41.9017L27.7686 39.7759L25.8411 42.6515L17.1635 47.6496L22.268 60.6446L22.5232 73.3897C22.5232 73.3897 13.0799 82.8861 18.6948 84.1356C24.3098 85.3851 44.2173 88.1341 45.2382 85.8849C46.2591 83.6358 43.9621 60.3947 43.9621 60.3947L44.7277 40.6522L37.071 37.9417L30.6904 41.9017Z" fill="#D0CDE1"/>
<path d="M15.1216 57.7294C15.1216 57.7294 13.0797 71.8903 16.9081 71.8903C19.1818 71.8979 21.4354 71.4735 23.544 70.6408L20.4813 62.8937L21.7574 57.6458L15.1216 57.7294Z" fill="#FFB9B9"/>
<path d="M20.9917 70.1409L23.7992 70.6407C23.7992 70.6407 31.9664 65.6426 32.4768 65.3927C32.9873 65.1428 24.3096 60.8944 24.3096 60.8944L18.4395 63.1436L20.9917 70.1409Z" fill="#FFB9B9"/>
<path opacity="0.1" d="M24.3096 60.8945L20.624 62.3066L21.7574 57.6458L15.1216 57.7294C15.1216 57.7294 13.0797 71.8903 16.9081 71.8903C19.1818 71.8979 21.4354 71.4735 23.544 70.6408L23.5247 70.5919L23.7992 70.6408C23.7992 70.6408 31.9664 65.6427 32.4768 65.3928C32.9873 65.1429 24.3096 60.8945 24.3096 60.8945Z" fill="black"/>
<path d="M33.2772 37.1436C37.3021 37.1436 40.565 33.9488 40.565 30.0077C40.565 26.0666 37.3021 22.8717 33.2772 22.8717C29.2522 22.8717 25.9893 26.0666 25.9893 30.0077C25.9893 33.9488 29.2522 37.1436 33.2772 37.1436Z" fill="#FFB9B9"/>
<path d="M26.8335 21.9573L25.4096 21.3991C25.4096 21.3991 28.3869 18.1896 32.5293 18.4687L31.3642 17.2128C31.3642 17.2128 34.2121 16.0964 36.8011 19.0269C38.1621 20.5673 39.7367 22.3781 40.7184 24.4178H42.2433L41.6069 25.79L43.8344 27.1622L41.548 26.9157C41.7646 28.1004 41.6905 29.3184 41.3318 30.4695L41.3931 31.5541C41.3931 31.5541 38.7428 27.5391 38.7428 26.9809V28.3763C38.7428 28.3763 37.3189 27.1204 37.3189 26.2832L36.5422 27.26L36.1538 25.725L31.3642 27.26L32.1409 26.0041L29.1636 26.4227L30.3287 24.8877C30.3287 24.8877 26.963 26.7018 26.8336 28.2368C26.7041 29.7718 25.0213 31.7254 25.0213 31.7254L24.2446 30.33C24.2446 30.33 23.0795 24.0505 26.8335 21.9573Z" fill="#2F2E41"/>
<path d="M39.6233 53.3973C39.6233 53.3973 37.5815 55.6464 37.5815 58.8952L24.0546 58.3954C24.0546 58.3954 20.4814 57.8956 20.4814 60.3946V62.8937C20.4814 62.8937 22.268 62.144 23.2889 62.8937C24.3098 63.6434 35.2845 70.1409 40.6442 67.6419C46.0039 65.1428 47.28 55.3965 47.28 55.3965C47.28 55.3965 42.4308 51.3981 39.6233 53.3973Z" fill="#FFB9B9"/>
<path d="M42.686 40.9021L44.7278 40.6522C44.7278 40.6522 48.8114 41.152 48.3009 48.8991C47.7905 56.6461 47.5352 57.1459 47.5352 57.1459C47.5352 57.1459 42.1755 52.3977 38.3472 54.6469L42.686 40.9021Z" fill="#D0CDE1"/>
<path d="M18.1845 47.6495H17.1636C15.841 49.2854 15.1215 51.3109 15.1218 53.3973C15.0984 55.6321 14.7984 57.8558 14.2285 60.0198L22.2681 58.6453L18.1845 47.6495Z" fill="#D0CDE1"/>
<path d="M145.164 79.2887H144.769V89.3517H145.164V79.2887Z" fill="#3F3D56"/>
<path d="M144.967 76.9497C145.384 78.0503 146.095 79.4159 146.849 80.2623L144.967 79.5957L143.084 80.2623C143.838 79.4159 144.55 78.0503 144.967 76.9497Z" fill="#3F3D56"/>
<path d="M97.6668 70.5686H97.271V80.6316H97.6668V70.5686Z" fill="#3F3D56"/>
<path d="M97.469 68.2296C97.886 69.3302 98.5977 70.6958 99.3514 71.5423L97.469 70.8756L95.5869 71.5423C96.3407 70.6958 97.0523 69.3302 97.469 68.2296Z" fill="#3F3D56"/>
<path d="M163.372 62.8174H162.976V72.8804H163.372V62.8174Z" fill="#3F3D56"/>
<path d="M163.174 60.4784C163.591 61.579 164.303 62.9446 165.056 63.791L163.174 63.1243L161.292 63.791C162.046 62.9446 162.757 61.579 163.174 60.4784Z" fill="#3F3D56"/>
</svg>
