<svg width="54" height="59" viewBox="0 0 54 59" fill="none" xmlns="http://www.w3.org/2000/svg">
<path d="M45.9891 26.7441H7.49863C4.46182 26.7441 2 29.206 2 32.2428V51.488C2 54.5248 4.46182 56.9866 7.49863 56.9866H45.9891C49.0259 56.9866 51.4877 54.5248 51.4877 51.488V32.2428C51.4877 29.206 49.0259 26.7441 45.9891 26.7441Z" stroke="#AAAAAA" stroke-width="4" stroke-linecap="round" stroke-linejoin="round"/>
<path d="M12.9971 26.7438V15.7466C12.9971 12.1008 14.4454 8.60426 17.0234 6.02628C19.6013 3.4483 23.0978 2 26.7437 2C30.3895 2 33.886 3.4483 36.464 6.02628C39.0419 8.60426 40.4902 12.1008 40.4902 15.7466V26.7438" stroke="#AAAAAA" stroke-width="4" stroke-linecap="round" stroke-linejoin="round"/>
</svg>
