<svg width="181" height="150" viewBox="0 0 181 150" fill="none" xmlns="http://www.w3.org/2000/svg">
<path d="M181 70.0774L158.433 77.5436L162.964 81.3205L143.437 101.768L126.322 87.0677L58 143.068L58.6011 143.077H75.6211L126.154 101.658L144.199 117.157L171.568 88.494H171.569L176.458 92.5707L181 70.0774Z" fill="white"/>
<path d="M71 113.283L65.7769 149.077L19.4998 141.897L19.4989 141.896L0 138.871L5.22307 103.077L41.6306 108.726L71 113.283Z" fill="#FDFEFF"/>
<path d="M68 117.012L63.7637 144.077L2 135.143L6.23626 108.077L68 117.012ZM63.4254 140.632L66.6198 120.221C66.7239 119.556 66.5488 118.878 66.1331 118.336C65.7173 117.795 65.0949 117.435 64.4028 117.335L9.62104 109.41C8.91661 109.309 8.19894 109.48 7.62591 109.887C7.05288 110.294 6.67142 110.903 6.56546 111.58L3.38297 131.912C3.27749 132.584 3.45402 133.269 3.87373 133.816C4.29344 134.363 4.92197 134.727 5.6211 134.829L60.4387 142.759C60.7801 142.808 61.1283 142.792 61.4632 142.712C61.7982 142.632 62.1133 142.489 62.3907 142.291C62.6681 142.094 62.9023 141.845 63.0798 141.561C63.2574 141.276 63.3748 140.961 63.4254 140.632Z" fill="#D2D6DC"/>
<path d="M33.8097 133.988C32.2452 133.753 30.7855 133.059 29.6154 131.994C28.4453 130.929 27.6172 129.541 27.2358 128.006C26.8545 126.47 26.937 124.856 27.473 123.367C28.009 121.879 28.9743 120.582 30.247 119.642C31.5196 118.702 33.0424 118.161 34.6228 118.086C36.2032 118.012 37.7702 118.407 39.1258 119.223C40.4813 120.039 41.5644 121.239 42.2382 122.67C42.9121 124.102 43.1463 125.701 42.9113 127.266C42.7551 128.305 42.3957 129.303 41.8538 130.203C41.3119 131.103 40.598 131.888 39.7528 132.512C38.9076 133.136 37.9478 133.588 36.9281 133.841C35.9084 134.095 34.8487 134.145 33.8097 133.988Z" fill="#D2D6DC"/>
<path d="M76 112.988L47.9882 135.077L18.4476 97.8501H18.4467L6 82.1647L34.0118 60.0774L57.252 89.3637L76 112.988Z" fill="#FDFEFF"/>
<path d="M70 113.587L48.4307 131.077L11 82.5679L32.5675 65.0774L70 113.587ZM50.5572 128.257L66.8236 115.067C67.3537 114.637 67.6955 114.008 67.7738 113.32C67.8521 112.632 67.6605 111.94 67.2411 111.396L34.0411 68.3701C33.6143 67.8176 32.9911 67.4613 32.3082 67.3796C31.6254 67.2978 30.9388 67.4972 30.3993 67.9339L14.1977 81.0718C13.6629 81.5063 13.318 82.1405 13.2389 82.8354C13.1598 83.5302 13.3529 84.2288 13.7758 84.7779L46.9962 127.831C47.4134 128.372 48.0229 128.72 48.6906 128.8C49.3584 128.88 50.0297 128.685 50.5572 128.257Z" fill="#D2D6DC"/>
<path d="M44.3372 104.482C47.9447 102.49 49.2621 97.9371 47.2797 94.3124C45.2973 90.6877 40.7657 89.364 37.1582 91.3559C33.5507 93.3478 32.2333 97.9009 34.2157 101.526C36.1982 105.15 40.7297 106.474 44.3372 104.482Z" fill="#D2D6DC"/>
<path d="M137.08 74.628C137.106 74.5669 137.138 74.5096 137.177 74.4576C137.206 74.4192 137.238 74.3837 137.272 74.3516L137.415 74.192L137.453 74.2229C138.187 73.8286 139.705 74.2464 141.239 75.3457C143.094 76.6743 144.284 78.5032 143.941 79.4756L143.993 79.5182L143.787 79.743C143.777 79.7547 143.767 79.7656 143.756 79.7765L143.75 79.7828C143.697 79.8367 143.637 79.8824 143.572 79.9188C142.847 80.3357 141.314 79.9188 139.763 78.8095C137.875 77.4592 136.671 75.5859 137.08 74.628Z" fill="#FFA412"/>
<path d="M141.239 75.1339C139.351 74.0069 137.488 73.739 137.08 74.5368C136.672 75.3347 137.871 76.8933 139.76 78.021C141.65 79.1487 143.511 79.4152 143.92 78.6181C144.329 77.821 143.128 76.2608 141.239 75.1339Z" fill="#FFB93E"/>
<path d="M139.774 77.9993C138.871 77.4578 138.093 76.8048 137.584 76.1613C137.062 75.5023 136.882 74.9253 137.076 74.5375C137.13 74.4363 137.207 74.3474 137.303 74.2773C137.399 74.2072 137.511 74.1577 137.631 74.1324C138.427 73.9225 139.838 74.3241 141.225 75.155C142.128 75.6966 142.906 76.3496 143.416 76.9931C143.938 77.6521 144.118 78.2291 143.924 78.6169C143.87 78.7181 143.792 78.807 143.696 78.8771C143.6 78.9472 143.488 78.9967 143.368 79.022C143.215 79.0605 143.056 79.0791 142.897 79.0773C142.076 79.0781 140.917 78.6843 139.774 77.9993ZM137.675 74.2714C137.577 74.2913 137.486 74.3309 137.407 74.3874C137.328 74.4439 137.264 74.5158 137.22 74.5979C137.053 74.9313 137.232 75.4703 137.712 76.0758C138.21 76.7055 138.974 77.3455 139.861 77.8775C140.967 78.5409 142.116 78.9322 142.898 78.9322C143.042 78.934 143.186 78.9174 143.325 78.8829C143.422 78.863 143.514 78.8233 143.592 78.7668C143.671 78.7103 143.735 78.6384 143.779 78.5564C143.946 78.223 143.767 77.6841 143.288 77.0786C142.789 76.4489 142.026 75.8089 141.138 75.2768C140.033 74.6135 138.883 74.2222 138.101 74.2222C137.957 74.2205 137.814 74.237 137.675 74.2714Z" fill="#FFA412"/>
<path d="M149.057 26.4444C149.075 26.4038 149.099 26.3658 149.127 26.3312C149.147 26.3057 149.17 26.2821 149.194 26.2605L149.297 26.154L149.324 26.1744C149.848 25.9113 150.932 26.1906 152.028 26.924C153.353 27.8097 154.203 29.0303 153.958 29.6793L153.995 29.7074L153.848 29.8581L153.827 29.8803C153.788 29.9161 153.745 29.9467 153.699 29.9714C153.182 30.2499 152.086 29.9714 150.978 29.2313C149.623 28.3327 148.765 27.0832 149.057 26.4444Z" fill="#FFA412"/>
<path d="M152.03 26.9224C150.68 26.0207 149.349 25.8072 149.057 26.4443C148.765 27.0815 149.622 28.3303 150.969 29.232C152.316 30.1337 153.651 30.3481 153.943 29.7101C154.235 29.0721 153.38 27.8241 152.03 26.9224Z" fill="#FFB93E"/>
<path d="M150.982 29.2177C150.38 28.8247 149.85 28.3263 149.417 27.7451C149.045 27.2175 148.916 26.7562 149.054 26.4457C149.092 26.3646 149.148 26.2934 149.217 26.2373C149.285 26.1812 149.365 26.1417 149.451 26.1216C150.02 25.9532 151.027 26.2744 152.018 26.9402C152.62 27.3323 153.15 27.8297 153.583 28.4099C153.955 28.9374 154.084 29.3988 153.946 29.7092C153.907 29.7902 153.852 29.8614 153.783 29.9175C153.715 29.9736 153.635 30.0132 153.549 30.0334C153.439 30.0647 153.325 30.0795 153.21 30.0772C152.626 30.081 151.803 29.7657 150.982 29.2177ZM149.482 26.2355C149.412 26.2512 149.347 26.2829 149.291 26.3283C149.235 26.3736 149.189 26.4314 149.158 26.4973C149.038 26.764 149.166 27.1952 149.509 27.6799C149.934 28.2487 150.454 28.7366 151.043 29.1214C151.834 29.6518 152.657 29.9642 153.213 29.9642C153.316 29.9658 153.418 29.9527 153.518 29.9253C153.587 29.9097 153.653 29.8781 153.709 29.8329C153.765 29.7878 153.811 29.7302 153.842 29.6645C153.962 29.3968 153.834 28.9656 153.491 28.4809C153.066 27.912 152.546 27.4244 151.956 27.0404C151.166 26.509 150.342 26.1965 149.787 26.1965C149.684 26.1949 149.582 26.208 149.482 26.2355Z" fill="#FFA412"/>
<path d="M153.943 64.4439C153.925 64.4032 153.901 64.3651 153.873 64.3306C153.853 64.3054 153.83 64.2819 153.806 64.2604L153.702 64.1537L153.676 64.1744C153.151 63.9115 152.067 64.1901 150.972 64.9226C149.647 65.8079 148.797 67.0273 149.042 67.6754L149.005 67.7035L149.152 67.854L149.174 67.8763L149.178 67.8804C149.216 67.916 149.259 67.9465 149.305 67.9714C149.822 68.2499 150.919 67.9714 152.025 67.2323C153.378 66.3304 154.235 65.0821 153.943 64.4439Z" fill="#FFA412"/>
<path d="M150.972 64.9225C152.321 64.0209 153.652 63.8068 153.943 64.4448C154.235 65.0828 153.378 66.3307 152.029 67.2323C150.68 68.1339 149.348 68.348 149.057 67.71C148.765 67.072 149.622 65.8241 150.972 64.9225Z" fill="#FFB93E"/>
<path d="M149.79 68.0773C149.676 68.0786 149.561 68.0637 149.451 68.0329C149.365 68.0128 149.285 67.9732 149.217 67.917C149.148 67.8609 149.093 67.7896 149.055 67.7086C148.915 67.3984 149.044 66.937 149.417 66.4094C149.851 65.8292 150.381 65.3319 150.983 64.9401C151.974 64.2782 152.981 63.9529 153.549 64.1212C153.635 64.1414 153.715 64.181 153.783 64.2371C153.852 64.2932 153.907 64.3645 153.945 64.4456C154.085 64.7557 153.956 65.2171 153.583 65.7447C153.149 66.3249 152.619 66.8223 152.017 67.2141C151.201 67.7625 150.373 68.0773 149.79 68.0773ZM153.211 64.1931C152.652 64.1931 151.829 64.5061 151.042 65.0365C150.453 65.4212 149.934 65.9089 149.509 66.4775C149.167 66.9625 149.039 67.3937 149.159 67.6603C149.19 67.7261 149.236 67.7837 149.292 67.8289C149.348 67.8741 149.413 67.9057 149.483 67.9213C149.582 67.9491 149.685 67.9625 149.787 67.961C150.346 67.961 151.17 67.648 151.956 67.1176C152.545 66.733 153.065 66.2453 153.49 65.6766C153.832 65.1916 153.96 64.7604 153.841 64.4938C153.81 64.428 153.764 64.3704 153.708 64.3252C153.651 64.28 153.586 64.2484 153.516 64.2328C153.417 64.2049 153.314 64.1915 153.211 64.1931Z" fill="#FFA412"/>
<path d="M137.034 37.2615C137.045 37.241 137.06 37.2218 137.076 37.2044C137.089 37.1914 137.102 37.1796 137.117 37.169L137.178 37.1159L137.195 37.1261C137.51 36.9941 138.159 37.1343 138.817 37.5011C139.613 37.9442 140.122 38.5547 139.975 38.8794L139.997 38.8937L139.909 38.9692L139.896 38.9801C139.872 38.9981 139.845 39.0134 139.816 39.0257C139.506 39.1619 138.849 39.0257 138.184 38.6555C137.373 38.2056 136.859 37.5808 137.034 37.2615Z" fill="#FFA412"/>
<path d="M138.817 37.5C138.007 37.049 137.209 36.9423 137.034 37.2609C136.859 37.5795 137.374 38.2037 138.183 38.6548C138.992 39.1058 139.791 39.2125 139.966 38.8939C140.14 38.5753 139.63 37.951 138.817 37.5Z" fill="#FFB93E"/>
<path d="M138.793 38.6429C138.552 38.4473 138.34 38.1989 138.166 37.9091C138.018 37.6461 137.966 37.4165 138.022 37.2614C138.037 37.221 138.059 37.1854 138.087 37.1574C138.114 37.1293 138.146 37.1095 138.18 37.0993C138.408 37.0155 138.811 37.1768 139.207 37.5081C139.448 37.7046 139.66 37.954 139.833 38.245C139.982 38.508 140.034 38.7383 139.978 38.8935C139.963 38.9339 139.94 38.9694 139.913 38.9975C139.885 39.0255 139.853 39.0454 139.819 39.0556C139.775 39.0709 139.73 39.0782 139.684 39.0773C139.45 39.0734 139.118 38.9168 138.793 38.6429ZM138.193 37.159C138.165 37.1668 138.138 37.1825 138.116 37.2051C138.094 37.2277 138.075 37.2565 138.063 37.2893C138.015 37.4227 138.066 37.6376 138.203 37.8796C138.374 38.1635 138.582 38.4069 138.818 38.5987C139.134 38.8632 139.462 39.0192 139.685 39.0192C139.726 39.0199 139.767 39.0133 139.807 38.9998C139.834 38.9918 139.86 38.976 139.883 38.9534C139.905 38.9309 139.924 38.9022 139.936 38.8694C139.984 38.736 139.933 38.5211 139.796 38.2791C139.626 37.995 139.418 37.7516 139.181 37.56C138.866 37.2955 138.538 37.1396 138.314 37.1396C138.273 37.1389 138.232 37.1454 138.193 37.159Z" fill="#FFA412"/>
<path d="M68.9316 65.5378C68.9097 65.4866 68.8813 65.4388 68.8474 65.3957C68.8221 65.363 68.7939 65.3329 68.7632 65.3059L68.6403 65.1728L68.6083 65.1989C67.9794 64.8699 66.6795 65.2178 65.3653 66.1345C63.7766 67.2419 62.7553 68.7662 63.0509 69.576L63.0062 69.6111L63.183 69.7998L63.2091 69.8268L63.2142 69.8322C63.2605 69.8764 63.3117 69.9144 63.3666 69.9454C63.9879 70.2924 65.303 69.9454 66.6298 69.0206C68.253 67.8962 69.2818 66.335 68.9316 65.5378Z" fill="#FFA412"/>
<path d="M65.3665 66.1337C66.9856 65.0064 68.582 64.7396 68.9316 65.5364C69.2812 66.3332 68.2576 67.8944 66.6344 69.0209C65.0111 70.1474 63.4189 70.416 63.0685 69.6183C62.7181 68.8206 63.7466 67.2647 65.3665 66.1337Z" fill="#FFB93E"/>
<path d="M63.9489 70.0772C63.8111 70.0793 63.6738 70.061 63.5408 70.0228C63.4382 69.9974 63.3422 69.9477 63.2599 69.8774C63.1776 69.8072 63.1111 69.7181 63.0654 69.6168C62.8989 69.2293 63.0528 68.6517 63.5004 67.9929C63.9373 67.3496 64.6052 66.697 65.379 66.1553C66.5686 65.3239 67.7784 64.922 68.4588 65.1327C68.5614 65.1578 68.6574 65.2072 68.7397 65.2773C68.822 65.3474 68.8885 65.4364 68.9342 65.5376C69.1017 65.9261 68.9467 66.5027 68.4992 67.1615C68.0623 67.8049 67.3953 68.4575 66.6206 68.9991C65.6427 69.6846 64.6495 70.0772 63.9489 70.0772ZM68.0575 65.2232C67.3838 65.2232 66.4021 65.6137 65.4531 66.2766C64.6928 66.809 64.0384 67.4493 63.6101 68.0783C63.1991 68.6846 63.0451 69.2232 63.1885 69.5572C63.2269 69.6391 63.2819 69.7108 63.3495 69.7671C63.4171 69.8235 63.4956 69.8631 63.5793 69.883C63.6981 69.9175 63.8209 69.9341 63.9441 69.9323C64.6178 69.9323 65.6004 69.5407 66.5484 68.8778C67.3097 68.3465 67.9641 67.7062 68.3914 67.0762C68.8024 66.4708 68.9564 65.9323 68.813 65.5983C68.7753 65.5169 68.7212 65.4454 68.6547 65.3889C68.5881 65.3324 68.5107 65.2923 68.428 65.2715C68.3072 65.2368 68.1825 65.2206 68.0575 65.2232Z" fill="#FFA412"/>
<path d="M49.966 44.3532C49.9549 44.3226 49.9408 44.294 49.9241 44.2679C49.9119 44.2487 49.8983 44.231 49.8835 44.2151L49.822 44.1354L49.8054 44.1502C49.4906 43.9528 48.8401 44.1623 48.1824 44.7118C47.3864 45.3772 46.8799 46.2873 47.0246 46.7784L47.0022 46.7998L47.0905 46.9128L47.1035 46.9295C47.1269 46.9562 47.1526 46.9792 47.1802 46.9981C47.4906 47.2066 48.1484 46.9981 48.8134 46.442C49.6267 45.7701 50.1404 44.8323 49.966 44.3532Z" fill="#FFA412"/>
<path d="M48.1835 44.7107C48.9929 44.0332 49.7908 43.8766 49.9658 44.3511C50.1409 44.8256 49.6266 45.7681 48.8172 46.4446C48.0078 47.1211 47.2092 47.2786 47.0342 46.8032C46.8591 46.3278 47.3734 45.3872 48.1835 44.7107Z" fill="#FFB93E"/>
<path d="M47.4737 47.0773C47.4051 47.0786 47.3367 47.0676 47.2705 47.0445C47.2191 47.0292 47.1711 46.9993 47.13 46.9572C47.0888 46.9151 47.0555 46.8617 47.0325 46.801C46.9498 46.568 47.0259 46.2218 47.2498 45.8269C47.51 45.3917 47.8281 45.0186 48.1894 44.7248C48.7835 44.2262 49.3884 43.9837 49.7297 44.1108C49.781 44.126 49.829 44.1558 49.8702 44.1979C49.9114 44.2401 49.9447 44.2935 49.9677 44.3543C50.0503 44.5872 49.9734 44.9323 49.7503 45.3283C49.4899 45.7632 49.1719 46.1363 48.8108 46.4304C48.3207 46.8412 47.8241 47.0773 47.4737 47.0773ZM49.528 44.1647C49.1925 44.1647 48.7017 44.3998 48.2265 44.8C47.8719 45.0872 47.56 45.4529 47.3052 45.8799C47.0994 46.243 47.0226 46.567 47.0936 46.7671C47.1129 46.8161 47.1404 46.859 47.1741 46.8929C47.2078 46.9267 47.2469 46.9506 47.2886 46.9629C47.3482 46.9829 47.4097 46.9925 47.4713 46.9915C47.8068 46.9915 48.2976 46.7576 48.7736 46.3563C49.1279 46.0681 49.4398 45.7022 49.695 45.2753C49.9007 44.9122 49.9776 44.5893 49.9057 44.3892C49.8868 44.3399 49.8594 44.2966 49.8256 44.2627C49.7919 44.2288 49.7526 44.2051 49.7107 44.1933C49.6512 44.1727 49.5897 44.1631 49.528 44.1647Z" fill="#FFA412"/>
<path d="M68.0342 50.445C68.0456 50.4044 68.0596 50.3662 68.0761 50.331C68.0881 50.3049 68.1017 50.2812 68.1169 50.2604L68.178 50.1541L68.1945 50.1744C68.5094 49.9116 69.1575 50.1899 69.8175 50.9224C70.6106 51.8086 71.1204 53.0273 70.9754 53.6758L70.998 53.7038L70.9097 53.8536L70.8966 53.8758V53.8806C70.8734 53.916 70.8477 53.9465 70.8202 53.9715C70.5092 54.2498 69.852 53.9715 69.187 53.2322C68.374 52.3315 67.8591 51.0829 68.0342 50.445Z" fill="#FFA412"/>
<path d="M71.0291 50.922C69.6795 50.0206 68.3498 49.8071 68.0572 50.4448C67.7646 51.0824 68.6235 52.3307 69.9721 53.2321C71.3207 54.1335 72.6514 54.348 72.943 53.7104C73.2347 53.0727 72.3777 51.8244 71.0291 50.922Z" fill="#FFB93E"/>
<path d="M69.1892 53.2149C68.8282 52.823 68.5104 52.3252 68.2507 51.7445C68.0269 51.2171 67.9492 50.7561 68.0327 50.4454C68.0557 50.3645 68.0891 50.2935 68.1302 50.2374C68.1714 50.1814 68.2194 50.1418 68.2707 50.1215C68.6122 49.9534 69.2163 50.2741 69.8107 50.9396C70.1719 51.3316 70.4898 51.8293 70.7499 52.4101C70.9737 52.9374 71.0506 53.3985 70.9672 53.7091C70.9444 53.7903 70.9113 53.8616 70.8702 53.9179C70.8291 53.9741 70.7811 54.0139 70.7298 54.0342C70.6634 54.0642 70.5948 54.0787 70.5261 54.0773C70.1755 54.0773 69.6788 53.7633 69.1892 53.2149ZM68.2895 50.2298C68.2478 50.2457 68.2087 50.2774 68.1751 50.3226C68.1415 50.3677 68.1143 50.4252 68.0954 50.4908C68.0236 50.7572 68.1006 51.1884 68.3063 51.6737C68.5616 52.2414 68.8734 52.7279 69.2273 53.111C69.7014 53.6417 70.1936 53.9546 70.5287 53.9546C70.5905 53.9563 70.6521 53.9433 70.7117 53.9159C70.7533 53.8996 70.7923 53.8678 70.8259 53.8227C70.8595 53.7776 70.8867 53.7203 70.9058 53.655C70.9776 53.3874 70.9006 52.9562 70.6949 52.472C70.4397 51.9041 70.1279 51.4175 69.7739 51.0347C69.2998 50.504 68.8075 50.1911 68.4719 50.1911C68.4102 50.1905 68.3488 50.2047 68.2895 50.2332V50.2298Z" fill="#FFA412"/>
<path d="M113 135.731V137.428C112.999 137.562 112.955 137.691 112.877 137.794C112.757 137.945 112.592 138.043 112.411 138.072C112.397 138.074 112.383 138.076 112.368 138.077H112.346H112.322H82.7149C82.3337 138.077 82.0202 137.801 82.0004 137.457C82.0004 137.446 82.0004 137.435 82.0004 137.423V135.726C82.0004 135.715 82.0004 135.703 82.0004 135.693C81.9999 135.683 81.9999 135.674 82.0004 135.665C82.0292 135.388 82.249 135.16 82.541 135.092H82.5635C82.6144 135.082 82.6659 135.077 82.7176 135.077H112.284H112.349H112.376L112.41 135.082C112.454 135.089 112.498 135.101 112.54 135.116C112.672 135.161 112.788 135.246 112.876 135.361C112.956 135.464 113 135.595 113 135.731Z" fill="#FFB93E"/>
<path d="M99 138.077H82.6585C82.4947 138.081 82.3355 138.02 82.2133 137.905C82.0911 137.79 82.015 137.63 82.0004 137.458C82.0004 137.446 82.0004 137.436 82.0004 137.424V135.73C82.0004 135.719 82.0004 135.707 82.0004 135.696C81.9999 135.687 81.9999 135.678 82.0004 135.669C82.0171 135.528 82.0756 135.397 82.1674 135.294C82.2592 135.19 82.3797 135.12 82.5116 135.093L82.5395 135.087C82.5782 135.08 82.6174 135.077 82.6566 135.077H96.9914L96.9969 135.098C97.3039 136.308 98.0114 137.363 98.9916 138.072L99 138.077Z" fill="#FFA412"/>
<path d="M103 135.077H102V138.077H103V135.077Z" fill="#FFA412"/>
<path d="M112 135.077H111V138.077H112V135.077Z" fill="#FFA412"/>
<path d="M113 135.088V138.067C112.876 138.074 112.751 138.077 112.626 138.077H112V135.077H112.626C112.751 135.078 112.876 135.081 113 135.088Z" fill="#FFA412"/>
<path d="M113 132.726V134.423C112.999 134.557 112.956 134.686 112.877 134.789C112.789 134.904 112.673 134.989 112.541 135.033C112.508 135.045 112.474 135.055 112.439 135.062L112.412 135.068C112.37 135.074 112.328 135.077 112.285 135.077H82.7128C82.6827 135.077 82.6526 135.075 82.6227 135.072H82.5866C82.2658 135.019 82.0171 134.766 82 134.462C82 134.451 82 134.44 82 134.428V132.731C82 132.72 82 132.708 82 132.697C82.0198 132.353 82.3334 132.077 82.7146 132.077H112.286C112.305 132.077 112.324 132.077 112.342 132.077H112.367H112.394H112.412C112.457 132.085 112.501 132.096 112.543 132.112L112.562 132.119L112.58 132.125L112.616 132.141C112.629 132.148 112.642 132.154 112.655 132.162L112.688 132.181C112.701 132.189 112.713 132.197 112.725 132.206L112.753 132.227C112.759 132.231 112.765 132.236 112.771 132.241C112.79 132.256 112.807 132.272 112.823 132.289L112.838 132.305L112.851 132.321L112.878 132.354C112.958 132.459 113.001 132.59 113 132.726Z" fill="#FFB93E"/>
<path d="M99 135.077H82.6191H82.5772C82.428 135.063 82.2884 134.993 82.1829 134.88C82.0774 134.768 82.0126 134.62 82 134.462C82 134.451 82 134.44 82 134.428V132.731C82 132.72 82 132.708 82 132.698C82.0144 132.525 82.0904 132.365 82.2127 132.25C82.335 132.135 82.4943 132.073 82.6581 132.078H96.9932L97.0127 132.151C97.3245 133.332 98.0168 134.361 98.9703 135.062L99 135.077Z" fill="#FFA412"/>
<path d="M103 132.077H102V135.077H103V132.077Z" fill="#FFA412"/>
<path d="M112 132.077H111V135.077H112V132.077Z" fill="#FFA412"/>
<path d="M113 132.087V135.068C112.876 135.074 112.751 135.078 112.626 135.077H112V132.077H112.626C112.751 132.077 112.876 132.08 113 132.087Z" fill="#FFA412"/>
<path d="M115 129.947V132.206C114.999 132.384 114.956 132.556 114.877 132.693C114.79 132.847 114.673 132.96 114.541 133.019C114.499 133.04 114.455 133.054 114.411 133.063C114.369 133.072 114.327 133.077 114.285 133.077H84.7128C84.5994 133.078 84.4871 133.045 84.383 132.979C84.2835 132.923 84.196 132.829 84.1288 132.709C84.0617 132.588 84.0173 132.444 84 132.291C84 132.278 84 132.265 84 132.252C84 132.239 84 132.222 84 132.206V129.947C84 129.933 84 129.917 84 129.903C84.0189 129.444 84.3334 129.077 84.7146 129.077H114.286C114.329 129.077 114.371 129.081 114.412 129.09C114.457 129.1 114.501 129.115 114.543 129.136C114.675 129.195 114.791 129.308 114.879 129.461C114.957 129.598 115 129.77 115 129.947Z" fill="#FFB93E"/>
<path d="M101 133.077H84.6563C84.551 133.078 84.447 133.044 84.3523 132.979C84.257 132.916 84.1748 132.819 84.1132 132.699C84.0516 132.579 84.0127 132.438 84 132.291C84 132.278 84 132.265 84 132.252C84 132.239 84 132.222 84 132.206V129.947C84 129.933 84 129.917 84 129.903C84.0144 129.674 84.0904 129.461 84.2127 129.307C84.335 129.154 84.4943 129.072 84.6582 129.078H98.9948C99.2896 130.649 99.9635 132.028 100.901 132.979L101 133.077Z" fill="#FFA412"/>
<path d="M107 129.077H106V133.077H107V129.077Z" fill="#FFA412"/>
<path d="M99 129.077H97V133.077H99V129.077Z" fill="#FFA412"/>
<path d="M115 129.088V133.064C114.751 133.073 114.501 133.077 114.249 133.077H113V129.078H114.249C114.5 129.076 114.751 129.08 115 129.088Z" fill="#FFA412"/>
<path d="M117 127.511V128.642C116.999 128.73 116.956 128.816 116.877 128.885C116.789 128.961 116.673 129.018 116.541 129.048C116.499 129.058 116.455 129.065 116.411 129.07C116.369 129.075 116.327 129.077 116.285 129.077H86.7145C86.3334 129.077 86.0198 128.893 86 128.664C86 128.657 86 128.649 86 128.642V127.511C86 127.503 86 127.496 86 127.488C86.018 127.276 86.2883 127.103 86.6307 127.078C86.6586 127.077 86.6866 127.077 86.7145 127.078H116.285C116.327 127.078 116.369 127.081 116.411 127.086C116.455 127.09 116.499 127.097 116.541 127.108C116.673 127.137 116.789 127.194 116.877 127.271C116.955 127.338 116.998 127.423 117 127.511Z" fill="#FFB93E"/>
<path d="M102 129.077H86.6194C86.4654 129.079 86.3162 129.038 86.2014 128.961C86.0866 128.885 86.0147 128.778 86 128.664C86 128.657 86 128.649 86 128.642V127.511C86 127.503 86 127.496 86 127.488C86.0121 127.383 86.0735 127.284 86.1733 127.209C86.2731 127.134 86.405 127.088 86.5459 127.078C86.5704 127.077 86.5949 127.077 86.6194 127.078H100.111C100.399 127.892 101.069 128.602 102 129.077Z" fill="#FFA412"/>
<path d="M110 127.077H108V129.077H110V127.077Z" fill="#FFA412"/>
<path d="M116 127.077H115V129.077H116V127.077Z" fill="#FFA412"/>
<path d="M117 127.085V129.07C116.876 129.075 116.75 129.077 116.625 129.077H116V127.077H116.625C116.75 127.077 116.876 127.08 117 127.085Z" fill="#FFA412"/>
<path d="M113 124.735V126.429C112.999 126.562 112.955 126.691 112.877 126.793C112.789 126.908 112.672 126.993 112.541 127.038C112.499 127.053 112.455 127.064 112.411 127.072L112.368 127.077H112.336H82.7145C82.3334 127.077 82.0198 126.801 82 126.458C82 126.447 82 126.435 82 126.424V124.73C82 124.719 82 124.708 82 124.697C82.0198 124.354 82.3334 124.077 82.7145 124.077H112.32C112.349 124.077 112.379 124.077 112.41 124.087C112.454 124.094 112.498 124.105 112.54 124.12C112.561 124.128 112.583 124.136 112.603 124.146L112.64 124.164C112.652 124.169 112.664 124.176 112.676 124.184H112.681C112.692 124.19 112.703 124.198 112.713 124.206C112.738 124.223 112.762 124.242 112.785 124.262L112.804 124.281C112.809 124.285 112.813 124.289 112.817 124.294L112.838 124.317C112.848 124.329 112.857 124.341 112.866 124.354C112.952 124.459 113 124.595 113 124.735Z" fill="#FFB93E"/>
<path d="M99 127.077H82.6581C82.4942 127.081 82.3349 127.02 82.2126 126.904C82.0904 126.789 82.0144 126.63 82 126.457C82 126.447 82 126.435 82 126.424V124.731C82 124.719 82 124.708 82 124.697C82.0144 124.525 82.0904 124.365 82.2126 124.25C82.3349 124.135 82.4942 124.073 82.6581 124.078H96.9932C96.9987 124.1 97.0052 124.124 97.0118 124.147C97.3251 125.337 98.0268 126.373 98.9935 127.072L99 127.077Z" fill="#FFA412"/>
<path d="M103 124.077H102V127.077H103V124.077Z" fill="#FFA412"/>
<path d="M112 124.077H111V127.077H112V124.077Z" fill="#FFA412"/>
<path d="M113 124.088V127.067C112.876 127.074 112.751 127.077 112.626 127.077H112V124.077H112.626C112.751 124.078 112.876 124.081 113 124.088Z" fill="#FFA412"/>
<path d="M116 122.51V123.641C115.999 123.73 115.956 123.816 115.877 123.885C115.79 123.962 115.673 124.018 115.541 124.048C115.499 124.058 115.455 124.066 115.411 124.07C115.369 124.075 115.327 124.077 115.285 124.077H85.7131C85.6033 124.077 85.4946 124.062 85.3932 124.031C85.291 124.003 85.2007 123.956 85.1316 123.895C85.0626 123.834 85.0173 123.76 85.0004 123.682C84.9999 123.676 84.9999 123.67 85.0004 123.664C85.0004 123.656 85.0004 123.649 85.0004 123.641V122.51C85.0004 122.503 85.0004 122.495 85.0004 122.488C85.0175 122.275 85.2878 122.102 85.6311 122.077C85.6591 122.077 85.687 122.077 85.7158 122.077H115.287C115.329 122.077 115.372 122.08 115.413 122.085C115.458 122.089 115.501 122.097 115.544 122.107C115.675 122.137 115.792 122.193 115.88 122.27C115.957 122.338 115.999 122.423 116 122.51Z" fill="#FFB93E"/>
<path d="M102 122.077H101V124.077H102V122.077Z" fill="#FFA412"/>
<path d="M113 122.077H112V124.077H113V122.077Z" fill="#FFA412"/>
<path d="M116 122.246V123.909C115.738 123.988 115.391 124.047 115 124.077V122.077C115.391 122.108 115.738 122.167 116 122.246Z" fill="#FFA412"/>
<path d="M117 118.95V121.212C116.999 121.39 116.956 121.562 116.877 121.699C116.79 121.853 116.673 121.966 116.542 122.025C116.499 122.046 116.455 122.061 116.411 122.07C116.397 122.074 116.383 122.076 116.369 122.077H116.346H86.7146C86.3334 122.077 86.0189 121.709 86 121.251C86 121.235 86 121.221 86 121.205V118.95C86 118.935 86 118.919 86 118.905C86.0189 118.446 86.3334 118.077 86.7146 118.077H116.285C116.327 118.077 116.369 118.082 116.411 118.092C116.455 118.102 116.499 118.117 116.542 118.136C116.673 118.196 116.79 118.31 116.877 118.463C116.956 118.6 116.999 118.772 117 118.95Z" fill="#FFB93E"/>
<path d="M102 122.077H86.6194C86.4653 122.083 86.3155 122.001 86.2004 121.847C86.0854 121.694 86.0137 121.481 86 121.252C86 121.237 86 121.222 86 121.206V118.948C86 118.934 86 118.918 86 118.904C86.0135 118.675 86.0851 118.461 86.2001 118.308C86.3152 118.154 86.4651 118.072 86.6194 118.078H100.112C100.398 119.703 101.066 121.12 101.995 122.071L102 122.077Z" fill="#FFA412"/>
<path d="M113 118.077H112V122.077H113V118.077Z" fill="#FFA412"/>
<path d="M112 118.077H111V122.077H112V118.077Z" fill="#FFA412"/>
<path d="M111 118.077H110V122.077H111V118.077Z" fill="#FFA412"/>
<path d="M97 118.077H96V122.077H97V118.077Z" fill="#FFA412"/>
<path d="M115 118.077H113V122.077H115V118.077Z" fill="#FFA412"/>
<path d="M116 118.077H115V122.077H116V118.077Z" fill="#FFA412"/>
<path d="M115 116.515V117.642C114.999 117.731 114.956 117.817 114.877 117.885C114.789 117.961 114.673 118.018 114.541 118.048C114.499 118.058 114.455 118.066 114.411 118.07C114.369 118.075 114.327 118.077 114.285 118.077H84.7145C84.3334 118.077 84.0198 117.893 84 117.664C84 117.657 84 117.65 84 117.642V116.513C84 116.506 84 116.498 84 116.491C84.0198 116.261 84.3334 116.077 84.7145 116.077H114.285C114.327 116.077 114.369 116.08 114.411 116.085C114.455 116.089 114.499 116.097 114.541 116.107C114.673 116.137 114.789 116.193 114.877 116.27C114.957 116.339 115 116.426 115 116.515Z" fill="#FFB93E"/>
<path d="M101 118.077H84.6581C84.4942 118.08 84.3349 118.039 84.2126 117.962C84.0904 117.885 84.0144 117.779 84 117.664C84 117.657 84 117.65 84 117.642V116.513C84 116.506 84 116.498 84 116.491C84.0144 116.376 84.0904 116.269 84.2126 116.193C84.3349 116.116 84.4942 116.075 84.6581 116.078H98.9932C99.2981 116.892 100.011 117.602 101 118.077Z" fill="#FFA412"/>
<path d="M107 116.077H106V118.077H107V116.077Z" fill="#FFA412"/>
<path d="M99 116.077H97V118.077H99V116.077Z" fill="#FFA412"/>
<path d="M112 113.731V115.425C111.999 115.558 111.956 115.687 111.877 115.79C111.789 115.904 111.673 115.989 111.541 116.033C111.499 116.049 111.455 116.06 111.411 116.068C111.369 116.074 111.327 116.078 111.285 116.077H81.7154C81.3343 116.077 81.0198 115.802 81 115.459V113.696C81.0198 113.353 81.3343 113.077 81.7154 113.077H111.285C111.303 113.077 111.322 113.077 111.341 113.077H111.366H111.392H111.411C111.455 113.085 111.499 113.096 111.541 113.112L111.56 113.119L111.578 113.125L111.614 113.141L111.635 113.152L111.653 113.162C111.665 113.167 111.676 113.174 111.686 113.181C111.697 113.188 111.712 113.197 111.723 113.206L111.751 113.226L111.769 113.241C111.787 113.256 111.805 113.272 111.821 113.29L111.835 113.305L111.85 113.32L111.876 113.354C111.957 113.459 112.001 113.593 112 113.731Z" fill="#FFB93E"/>
<path d="M97 116.077H81.6194C81.4652 116.081 81.3154 116.02 81.2004 115.905C81.0854 115.79 81.0137 115.63 81 115.458V113.696C81.0137 113.524 81.0854 113.365 81.2004 113.25C81.3154 113.135 81.4652 113.073 81.6194 113.078H95.1112C95.1173 113.102 95.1235 113.127 95.1305 113.151C95.4257 114.343 96.0879 115.379 97 116.077Z" fill="#FFA412"/>
<path d="M99 113.077H97V116.077H99V113.077Z" fill="#FFA412"/>
<path d="M110 113.077H108V116.077H110V113.077Z" fill="#FFA412"/>
<path d="M112 113.329V115.826C111.738 115.945 111.391 116.032 111 116.077V113.077C111.391 113.123 111.738 113.21 112 113.329Z" fill="#FFA412"/>
<path d="M113 111.512V112.643C112.999 112.731 112.956 112.817 112.877 112.885C112.79 112.962 112.673 113.019 112.542 113.048C112.5 113.058 112.456 113.066 112.412 113.071C112.37 113.075 112.328 113.078 112.285 113.077H82.7126C82.5991 113.078 82.4869 113.061 82.3827 113.028C82.2832 113 82.1955 112.954 82.1285 112.893C82.0614 112.833 82.0174 112.761 82.0007 112.684C81.9998 112.678 81.9998 112.671 82.0007 112.665C82.0007 112.657 82.0007 112.65 82.0007 112.643V111.512C82.0007 111.505 82.0007 111.498 82.0007 111.49C82.0205 111.261 82.3341 111.077 82.7153 111.077H112.288C112.33 111.077 112.372 111.079 112.414 111.084C112.459 111.089 112.502 111.096 112.545 111.107C112.676 111.136 112.793 111.193 112.88 111.269C112.957 111.338 113 111.424 113 111.512Z" fill="#FFB93E"/>
<path d="M99 113.077H82.6561C82.5508 113.078 82.4468 113.061 82.3521 113.028C82.2568 112.997 82.1745 112.948 82.1131 112.888C82.0516 112.828 82.0129 112.758 82.0007 112.684C81.9998 112.678 81.9998 112.671 82.0007 112.665C82.0007 112.657 82.0007 112.65 82.0007 112.643V111.512C82.0007 111.505 82.0007 111.498 82.0007 111.49C82.0153 111.376 82.0914 111.269 82.2137 111.192C82.3359 111.116 82.4951 111.075 82.6589 111.078H96.992C97.2872 111.863 97.961 112.553 98.8987 113.028L99 113.077Z" fill="#FFA412"/>
<path d="M103 111.077H102V113.077H103V111.077Z" fill="#FFA412"/>
<path d="M112 111.077H111V113.077H112V111.077Z" fill="#FFA412"/>
<path d="M113 111.084V113.071C112.876 113.075 112.75 113.077 112.625 113.077H112V111.077H112.625C112.75 111.077 112.876 111.079 113 111.084Z" fill="#FFA412"/>
<path d="M115 107.948V110.207C114.999 110.384 114.956 110.556 114.877 110.692C114.789 110.845 114.672 110.959 114.541 111.019C114.499 111.039 114.455 111.054 114.411 111.063C114.369 111.072 114.327 111.077 114.285 111.077H84.7145C84.3334 111.077 84.0198 110.709 84 110.251C84 110.237 84 110.221 84 110.207V107.948C84 107.932 84 107.918 84 107.904C84.018 107.479 84.2883 107.134 84.6307 107.084C84.6587 107.084 84.6866 107.077 84.7154 107.077H114.285C114.328 107.078 114.37 107.082 114.412 107.092C114.456 107.101 114.5 107.116 114.542 107.136C114.673 107.195 114.79 107.308 114.877 107.461C114.956 107.598 114.999 107.77 115 107.948Z" fill="#FFB93E"/>
<path d="M100 111.077H84.6194C84.4651 111.083 84.3152 111 84.2001 110.847C84.0851 110.693 84.0135 110.48 84 110.251C84 110.236 84 110.221 84 110.206V107.948C84 107.932 84 107.918 84 107.904C84.0118 107.693 84.073 107.495 84.1729 107.345C84.2727 107.195 84.4048 107.103 84.5459 107.084C84.5703 107.08 84.5948 107.078 84.6194 107.077H98.1112V107.088C98.4003 108.712 99.0705 110.128 100 111.077Z" fill="#FFA412"/>
<path d="M111 107.077H110V111.077H111V107.077Z" fill="#FFA412"/>
<path d="M110 107.077H108V111.077H110V107.077Z" fill="#FFA412"/>
<path d="M108 107.077H107V111.077H108V107.077Z" fill="#FFA412"/>
<path d="M95 107.077H94V111.077H95V107.077Z" fill="#FFA412"/>
<path d="M112 107.077H111V111.077H112V107.077Z" fill="#FFA412"/>
<path d="M113 107.077H112V111.077H113V107.077Z" fill="#FFA412"/>
<path d="M112 105.515V106.645C111.999 106.734 111.956 106.82 111.877 106.888C111.789 106.965 111.673 107.021 111.541 107.051C111.499 107.061 111.455 107.069 111.411 107.073L111.369 107.077H111.346H111.322H81.7154C81.3334 107.077 81.0198 106.893 81 106.664V105.488V105.469C81.0279 105.285 81.2478 105.132 81.5406 105.088H81.5623C81.6134 105.081 81.6653 105.078 81.7172 105.077H111.286C111.308 105.077 111.33 105.077 111.35 105.077H111.379L111.412 105.081C111.457 105.085 111.501 105.093 111.543 105.103C111.674 105.133 111.791 105.19 111.879 105.266C111.959 105.336 112.001 105.424 112 105.515Z" fill="#FFB93E"/>
<path d="M97 107.077H81.6194C81.4654 107.079 81.3162 107.038 81.2014 106.961C81.0866 106.885 81.0147 106.779 81 106.664V105.49V105.472C81.0154 105.378 81.0703 105.291 81.1567 105.222C81.2432 105.153 81.3568 105.106 81.4812 105.088L81.5074 105.085C81.5435 105.08 81.5801 105.077 81.6168 105.077H95.1086L95.1138 105.092C95.4031 105.898 96.0689 106.6 96.9913 107.073L97 107.077Z" fill="#FFA412"/>
<path d="M99 105.077H97V107.077H99V105.077Z" fill="#FFA412"/>
<path d="M112 105.246V106.909C111.738 106.988 111.39 107.046 111 107.077V105.077C111.39 105.108 111.738 105.167 112 105.246Z" fill="#FFA412"/>
<path d="M112 102.727V104.423C111.999 104.557 111.956 104.686 111.877 104.789C111.789 104.904 111.673 104.989 111.541 105.033C111.508 105.045 111.474 105.055 111.439 105.062L111.412 105.067C111.37 105.074 111.328 105.077 111.285 105.077H81.7128C81.6827 105.077 81.6526 105.075 81.6227 105.072H81.5875C81.2658 105.019 81.0171 104.767 81 104.463V102.698C81.0198 102.354 81.3343 102.077 81.7155 102.077H111.287C111.306 102.077 111.325 102.077 111.344 102.077H111.368H111.394H111.413C111.458 102.084 111.501 102.095 111.544 102.111L111.563 102.118L111.581 102.125L111.617 102.141C111.631 102.148 111.643 102.154 111.656 102.162L111.689 102.18L111.726 102.206L111.754 102.226L111.772 102.241C111.79 102.257 111.807 102.273 111.823 102.29L111.838 102.306L111.852 102.322C111.861 102.332 111.87 102.343 111.878 102.355C111.958 102.46 112.001 102.591 112 102.727Z" fill="#FFB93E"/>
<path d="M97 105.077H81.5835H81.5441C81.4036 105.063 81.2721 104.993 81.1726 104.881C81.0732 104.768 81.0121 104.62 81 104.463V102.698C81.0147 102.526 81.0866 102.367 81.2014 102.252C81.3162 102.137 81.4654 102.075 81.6194 102.077H95.1112C95.1173 102.102 95.1235 102.126 95.1305 102.152C95.4234 103.332 96.075 104.361 96.9729 105.06L97 105.077Z" fill="#FFA412"/>
<path d="M99 102.077H97V105.077H99V102.077Z" fill="#FFA412"/>
<path d="M110 102.077H108V105.077H110V102.077Z" fill="#FFA412"/>
<path d="M112 102.33V104.826C111.738 104.945 111.391 105.032 111 105.077V102.077C111.39 102.124 111.737 102.211 112 102.33Z" fill="#FFA412"/>
<path d="M113 100.513V101.642C112.999 101.731 112.956 101.817 112.877 101.885C112.79 101.962 112.674 102.019 112.542 102.048C112.5 102.058 112.456 102.066 112.412 102.07C112.37 102.075 112.328 102.077 112.285 102.077H82.7126C82.599 102.078 82.4867 102.061 82.3827 102.028C82.2832 102 82.1955 101.953 82.1285 101.893C82.0614 101.832 82.0174 101.76 82.0007 101.684C81.9998 101.677 81.9998 101.671 82.0007 101.664C82.0007 101.657 82.0007 101.65 82.0007 101.642V100.513C82.0007 100.506 82.0007 100.498 82.0007 100.491C82.0205 100.261 82.3341 100.077 82.7153 100.077H112.288C112.33 100.077 112.373 100.08 112.414 100.085C112.459 100.089 112.502 100.097 112.545 100.107C112.676 100.137 112.792 100.193 112.88 100.27C112.958 100.338 113 100.424 113 100.513Z" fill="#FFB93E"/>
<path d="M99 102.077H82.6561C82.5506 102.078 82.4465 102.061 82.3521 102.028C82.2568 101.996 82.1745 101.948 82.1131 101.888C82.0516 101.828 82.0129 101.757 82.0007 101.684C81.9998 101.677 81.9998 101.671 82.0007 101.664C82.0007 101.657 82.0007 101.65 82.0007 101.642V100.513C82.0007 100.506 82.0007 100.498 82.0007 100.491C82.0151 100.376 82.0911 100.269 82.2134 100.193C82.3356 100.116 82.4949 100.075 82.6589 100.078H96.992C97.2867 100.863 97.9606 101.552 98.8987 102.028C98.9331 102.045 98.9656 102.061 99 102.077Z" fill="#FFA412"/>
<path d="M103 100.077H102V102.077H103V100.077Z" fill="#FFA412"/>
<path d="M112 100.077H111V102.077H112V100.077Z" fill="#FFA412"/>
<path d="M113 100.087V102.07C112.876 102.075 112.75 102.077 112.625 102.077H112V100.077H112.625C112.751 100.078 112.876 100.081 113 100.087Z" fill="#FFA412"/>
<path d="M116 97.7266V99.4242C115.999 99.5576 115.956 99.6864 115.877 99.7891C115.79 99.9041 115.673 99.989 115.542 100.033C115.499 100.049 115.455 100.06 115.411 100.068C115.369 100.074 115.327 100.078 115.285 100.077H85.7146C85.3334 100.077 85.0189 99.8018 85 99.4576C85 99.4458 85 99.435 85 99.4242V97.7266C85 97.7158 85 97.7051 85 97.6933C85.018 97.3755 85.2874 97.1147 85.6308 97.0774C85.6587 97.0774 85.6866 97.0774 85.7155 97.0774H115.285C115.328 97.0772 115.37 97.0804 115.412 97.0872C115.456 97.0946 115.5 97.1061 115.543 97.1215C115.674 97.1658 115.791 97.2507 115.878 97.3657C115.955 97.4675 115.998 97.5948 116 97.7266Z" fill="#FFB93E"/>
<path d="M101 100.077H85.6194C85.4652 100.082 85.3153 100.02 85.2002 99.9047C85.0851 99.7895 85.0135 99.6294 85 99.457C85 99.4453 85 99.4345 85 99.4237V97.7281C85 97.7173 85 97.7065 85 97.6947C85.0118 97.5364 85.073 97.3878 85.1728 97.2751C85.2727 97.1624 85.4048 97.0928 85.5459 97.0785C85.5704 97.077 85.5949 97.077 85.6194 97.0785H99.1112C99.3998 98.2998 100.07 99.364 101 100.077Z" fill="#FFA412"/>
<path d="M106 97.0774H105V100.077H106V97.0774Z" fill="#FFA412"/>
<path d="M163 135.732V137.427C162.999 137.561 162.956 137.69 162.877 137.793C162.789 137.908 162.672 137.992 162.541 138.037C162.499 138.053 162.455 138.064 162.411 138.07L162.369 138.076H162.364C162.35 138.078 162.337 138.078 162.323 138.076H132.715C132.355 138.076 132.059 137.834 132.007 137.521C132.003 137.499 132.001 137.478 132 137.456V135.692C132.001 135.683 132.001 135.673 132 135.664C132.029 135.388 132.249 135.16 132.541 135.093H132.562C132.613 135.083 132.665 135.078 132.717 135.078H162.286H162.35C162.359 135.078 162.369 135.078 162.378 135.078C162.389 135.077 162.4 135.077 162.412 135.078C162.456 135.085 162.5 135.096 162.542 135.111C162.674 135.155 162.791 135.241 162.878 135.357C162.959 135.462 163.002 135.595 163 135.732Z" fill="#FFB93E"/>
<path d="M149 138.077H132.659C132.517 138.08 132.378 138.034 132.263 137.945C132.149 137.857 132.065 137.732 132.024 137.589C132.017 137.565 132.012 137.542 132.007 137.518C132.003 137.497 132.001 137.475 132 137.454V135.694C132.001 135.685 132.001 135.676 132 135.667C132.017 135.527 132.076 135.396 132.168 135.293C132.26 135.19 132.38 135.12 132.512 135.093L132.54 135.087C132.579 135.08 132.618 135.077 132.657 135.077H146.991C146.994 135.084 146.996 135.091 146.998 135.098C147.304 136.306 148.012 137.359 148.993 138.067L149 138.077Z" fill="#FFA412"/>
<path d="M160 135.077H159V138.077H160V135.077Z" fill="#FFA412"/>
<path d="M159 135.077H158V138.077H159V135.077Z" fill="#FFA412"/>
<path d="M158 135.077H156V138.077H158V135.077Z" fill="#FFA412"/>
<path d="M163 135.077H161V138.077H163V135.077Z" fill="#FFA412"/>
<path d="M163 132.726V134.423C162.999 134.557 162.956 134.686 162.877 134.789C162.79 134.904 162.673 134.989 162.542 135.033C162.509 135.045 162.474 135.055 162.439 135.062C162.43 135.062 162.421 135.062 162.412 135.068C162.37 135.074 162.328 135.077 162.285 135.077H132.713C132.683 135.077 132.653 135.075 132.623 135.072C132.611 135.072 132.599 135.072 132.588 135.072C132.287 135.021 132.047 134.797 132.006 134.518C132.003 134.5 132.001 134.481 132 134.462C132 134.451 132 134.44 132 134.428V132.731C132 132.72 132 132.709 132 132.697C132.001 132.676 132.003 132.655 132.007 132.635C132.059 132.319 132.359 132.077 132.715 132.077H162.286H162.343H162.367H162.394H162.412C162.457 132.085 162.501 132.097 162.544 132.112L162.562 132.118L162.581 132.125L162.594 132.131C162.602 132.134 162.609 132.137 162.616 132.141L162.633 132.149C162.682 132.176 162.729 132.209 162.771 132.247C162.784 132.258 162.795 132.268 162.806 132.279L162.837 132.311L162.85 132.327C162.86 132.337 162.869 132.349 162.877 132.36C162.956 132.463 162.999 132.592 163 132.726Z" fill="#FFB93E"/>
<path d="M149 135.077H132.62H132.578C132.438 135.063 132.306 135.001 132.203 134.9C132.1 134.799 132.031 134.665 132.006 134.519C132.003 134.501 132.001 134.482 132 134.463C132 134.452 132 134.441 132 134.429V132.735C132 132.724 132 132.713 132 132.701C132.001 132.68 132.003 132.659 132.007 132.639C132.011 132.614 132.017 132.59 132.025 132.567C132.066 132.424 132.149 132.298 132.264 132.21C132.378 132.122 132.517 132.075 132.659 132.077H146.99C146.996 132.101 147.003 132.126 147.009 132.151C147.321 133.33 148.014 134.358 148.967 135.057C148.979 135.063 148.99 135.07 149 135.077Z" fill="#FFA412"/>
<path d="M160 132.077H159V135.077H160V132.077Z" fill="#FFA412"/>
<path d="M159 132.077H158V135.077H159V132.077Z" fill="#FFA412"/>
<path d="M147 132.077H145V135.077H147V132.077Z" fill="#FFA412"/>
<path d="M163 132.077H161V135.077H163V132.077Z" fill="#FFA412"/>
<path d="M165 129.736V131.427C164.999 131.56 164.956 131.688 164.878 131.79C164.79 131.906 164.673 131.991 164.542 132.036C164.499 132.052 164.455 132.062 164.411 132.069C164.391 132.069 164.369 132.074 164.349 132.077H164.285H134.714C134.6 132.078 134.487 132.053 134.383 132.004C134.283 131.961 134.196 131.891 134.129 131.801C134.062 131.71 134.017 131.602 134.001 131.487C134 131.477 134 131.467 134.001 131.457C134.001 131.447 134.001 131.436 134.001 131.425V129.731C134.001 129.719 134.001 129.707 134.001 129.696C134.001 129.675 134.004 129.654 134.008 129.634C134.06 129.319 134.359 129.077 134.716 129.077H164.291C164.333 129.077 164.375 129.081 164.416 129.088C164.461 129.095 164.505 129.106 164.547 129.121C164.679 129.166 164.796 129.251 164.884 129.365C164.961 129.47 165.002 129.601 165 129.736Z" fill="#FFB93E"/>
<path d="M150 132.077H134.618C134.518 132.078 134.421 132.052 134.331 132.004C134.242 131.956 134.164 131.884 134.107 131.794C134.049 131.703 134.012 131.598 134.001 131.488C134 131.478 134 131.468 134.001 131.458C134.001 131.448 134.001 131.437 134.001 131.426V129.735C134.001 129.723 134.001 129.711 134.001 129.7C134.001 129.679 134.004 129.658 134.008 129.638C134.012 129.614 134.017 129.59 134.023 129.566C134.062 129.423 134.141 129.298 134.248 129.21C134.356 129.122 134.487 129.075 134.62 129.077H148.114C148.391 130.254 149.026 131.287 149.908 131.999L150 132.077Z" fill="#FFA412"/>
<path d="M161 129.077H160V132.077H161V129.077Z" fill="#FFA412"/>
<path d="M159 129.077H158V132.077H159V129.077Z" fill="#FFA412"/>
<path d="M151 129.077H150V132.077H151V129.077Z" fill="#FFA412"/>
<path d="M145 129.077H144V132.077H145V129.077Z" fill="#FFA412"/>
<path d="M163 129.077H161V132.077H163V129.077Z" fill="#FFA412"/>
<path d="M164 129.077H163V132.077H164V129.077Z" fill="#FFA412"/>
<path d="M165 129.329V131.826C164.738 131.944 164.391 132.032 164 132.077V129.077C164.391 129.123 164.738 129.21 165 129.329Z" fill="#FFA412"/>
<path d="M167 127.511V128.641C166.999 128.73 166.958 128.816 166.882 128.885C166.872 128.893 166.861 128.902 166.85 128.911C166.77 128.974 166.669 129.022 166.557 129.048C166.516 129.058 166.474 129.065 166.431 129.07C166.39 129.075 166.349 129.077 166.308 129.077H137.692C137.343 129.077 137.057 128.916 137.006 128.706C137.003 128.692 137.001 128.678 137 128.664C137 128.656 137 128.649 137 128.641V127.511C137 127.503 137 127.496 137 127.488C137.017 127.276 137.279 127.103 137.61 127.077C137.637 127.077 137.664 127.077 137.692 127.077H166.308C166.35 127.077 166.391 127.08 166.431 127.085C166.474 127.089 166.517 127.096 166.558 127.107C166.669 127.133 166.77 127.18 166.851 127.243C166.862 127.251 166.873 127.26 166.883 127.27C166.958 127.338 166.999 127.423 167 127.511Z" fill="#FFB93E"/>
<path d="M153 129.077H137.618C137.485 129.079 137.355 129.048 137.247 128.989C137.14 128.93 137.061 128.847 137.023 128.751C137.016 128.736 137.01 128.72 137.006 128.704C137.003 128.69 137.001 128.675 137 128.661C137 128.653 137 128.647 137 128.639V127.511C137 127.503 137 127.496 137 127.488C137.002 127.468 137.006 127.449 137.011 127.43C137.04 127.337 137.107 127.253 137.203 127.19C137.299 127.127 137.419 127.088 137.546 127.078C137.57 127.077 137.594 127.077 137.618 127.078H151.111C151.399 127.892 152.069 128.602 153 129.077Z" fill="#FFA412"/>
<path d="M164 127.077H163V129.077H164V127.077Z" fill="#FFA412"/>
<path d="M161 127.077H160V129.077H161V127.077Z" fill="#FFA412"/>
<path d="M148 127.077H147V129.077H148V127.077Z" fill="#FFA412"/>
<path d="M165 127.077H164V129.077H165V127.077Z" fill="#FFA412"/>
<path d="M166 127.077H165V129.077H166V127.077Z" fill="#FFA412"/>
<path d="M163 124.735V126.429C162.999 126.562 162.956 126.691 162.877 126.793C162.79 126.909 162.673 126.994 162.541 127.038C162.499 127.053 162.455 127.065 162.411 127.072C162.397 127.074 162.383 127.076 162.369 127.077H162.349H132.715C132.355 127.077 132.059 126.836 132.007 126.522C132.003 126.502 132.001 126.481 132 126.46V124.697C132.001 124.675 132.003 124.654 132.007 124.633C132.059 124.319 132.358 124.077 132.715 124.077H162.327H162.359C162.377 124.078 162.394 124.08 162.411 124.083C162.455 124.09 162.499 124.101 162.541 124.117C162.559 124.123 162.576 124.129 162.592 124.137H162.603C162.708 124.185 162.801 124.26 162.873 124.356C162.956 124.462 163.001 124.597 163 124.735Z" fill="#FFB93E"/>
<path d="M149 127.077H132.659C132.518 127.08 132.379 127.035 132.265 126.947C132.15 126.86 132.066 126.736 132.024 126.594C132.017 126.57 132.012 126.546 132.007 126.522C132.003 126.502 132.001 126.481 132 126.459V124.697C132.001 124.676 132.003 124.654 132.007 124.633C132.012 124.609 132.017 124.585 132.024 124.562C132.066 124.42 132.15 124.295 132.265 124.208C132.379 124.12 132.518 124.075 132.659 124.078H146.993C147 124.1 147.005 124.124 147.013 124.147C147.325 125.338 148.027 126.374 148.994 127.072L149 127.077Z" fill="#FFA412"/>
<path d="M160 124.077H159V127.077H160V124.077Z" fill="#FFA412"/>
<path d="M159 124.077H158V127.077H159V124.077Z" fill="#FFA412"/>
<path d="M158 124.077H156V127.077H158V124.077Z" fill="#FFA412"/>
<path d="M163 124.077H161V127.077H163V124.077Z" fill="#FFA412"/>
<path d="M165 122.513V123.642C165 123.731 164.956 123.817 164.877 123.885C164.79 123.962 164.674 124.018 164.543 124.048C164.5 124.058 164.456 124.066 164.412 124.071C164.37 124.075 164.328 124.077 164.285 124.077H134.714C134.604 124.077 134.495 124.062 134.393 124.031C134.297 124.005 134.212 123.961 134.145 123.905C134.077 123.849 134.03 123.782 134.007 123.71C134.003 123.701 134.001 123.692 134 123.682C134 123.677 134 123.671 134 123.665C134 123.657 134 123.649 134 123.642V122.513C134 122.505 134 122.498 134 122.491C134.001 122.477 134.003 122.464 134.007 122.451C134.052 122.256 134.31 122.104 134.63 122.081C134.659 122.078 134.687 122.077 134.716 122.077H164.286C164.313 122.077 164.339 122.078 164.366 122.081L164.412 122.085C164.457 122.089 164.501 122.097 164.544 122.107C164.675 122.137 164.791 122.194 164.878 122.27C164.957 122.338 165 122.424 165 122.513Z" fill="#FFB93E"/>
<path d="M151 124.077H134.657C134.555 124.077 134.455 124.062 134.363 124.031C134.271 124.002 134.19 123.957 134.128 123.901C134.066 123.845 134.025 123.78 134.007 123.71C134.003 123.701 134.001 123.692 134 123.682C134 123.677 134 123.671 134 123.665C134 123.657 134 123.649 134 123.642V122.513C134 122.505 134 122.498 134 122.491C134.001 122.477 134.003 122.464 134.007 122.451C134.032 122.354 134.101 122.265 134.205 122.198C134.308 122.131 134.44 122.09 134.58 122.081C134.606 122.078 134.632 122.077 134.659 122.077H148.994C148.994 122.077 148.994 122.077 148.994 122.081C149.289 122.867 149.965 123.556 150.905 124.031L151 124.077Z" fill="#FFA412"/>
<path d="M158 122.077H156V124.077H158V122.077Z" fill="#FFA412"/>
<path d="M149 122.077H148V124.077H149V122.077Z" fill="#FFA412"/>
<path d="M164 122.077H163V124.077H164V122.077Z" fill="#FFA412"/>
<path d="M165 122.084V124.07C164.876 124.075 164.75 124.077 164.625 124.077H164V122.077H164.627C164.752 122.077 164.877 122.079 165 122.084Z" fill="#FFA412"/>
<path d="M166 118.957V121.214C165.999 121.391 165.956 121.562 165.877 121.698C165.857 121.735 165.834 121.77 165.81 121.802C165.732 121.903 165.64 121.979 165.54 122.025C165.497 122.045 165.453 122.059 165.409 122.068L165.367 122.076H165.351C165.329 122.078 165.306 122.078 165.284 122.076H135.715C135.689 122.076 135.663 122.074 135.637 122.069C135.315 122.026 135.056 121.722 135.006 121.335C135.003 121.307 135.001 121.279 135 121.25V118.902C135.001 118.874 135.003 118.846 135.006 118.818C135.059 118.4 135.358 118.077 135.715 118.077H165.284C165.326 118.077 165.368 118.081 165.41 118.09C165.454 118.1 165.498 118.115 165.54 118.136C165.672 118.194 165.789 118.307 165.877 118.461C165.957 118.6 166.001 118.776 166 118.957Z" fill="#FFB93E"/>
<path d="M151 122.077H135.62C135.597 122.078 135.575 122.076 135.552 122.071C135.42 122.055 135.294 121.974 135.196 121.841C135.097 121.708 135.03 121.531 135.006 121.336C135.003 121.308 135.001 121.28 135 121.251V118.902C135.001 118.874 135.003 118.846 135.006 118.819C135.01 118.787 135.016 118.755 135.023 118.724C135.062 118.534 135.141 118.368 135.249 118.251C135.357 118.135 135.487 118.074 135.62 118.078H149.111C149.399 119.7 150.068 121.115 150.996 122.064C150.996 122.064 150.996 122.069 151 122.077Z" fill="#FFA412"/>
<path d="M156 118.077H155V122.077H156V118.077Z" fill="#FFA412"/>
<path d="M165 118.077H164V122.077H165V118.077Z" fill="#FFA412"/>
<path d="M70 135.728V137.427C69.999 137.561 69.9558 137.69 69.8774 137.794C69.7893 137.909 69.6726 137.994 69.5414 138.038C69.4988 138.053 69.455 138.064 69.4107 138.071L69.3693 138.077H69.3458H69.3224H39.7145C39.3334 138.077 39.0198 137.8 39 137.457C39 137.445 39 137.434 39 137.422V135.728C39 135.717 39 135.705 39 135.694C39 135.683 39 135.676 39 135.667C39.0288 135.39 39.2487 135.161 39.5406 135.093H39.5623C39.6131 135.083 39.6647 135.078 39.7163 135.077H69.2863C69.308 135.077 69.3296 135.077 69.3503 135.077H69.3783H69.4116C69.4559 135.084 69.4997 135.096 69.5423 135.111C69.6735 135.156 69.7901 135.241 69.8783 135.356C69.9577 135.461 70.0007 135.592 70 135.728Z" fill="#FFB93E"/>
<path d="M57 138.077H39.6968C39.5234 138.081 39.3549 138.02 39.2255 137.905C39.0961 137.79 39.0154 137.631 39 137.459C39 137.447 39 137.437 39 137.425V135.73C39 135.719 39 135.707 39 135.697C39 135.686 39 135.678 39 135.669C39.0177 135.529 39.0796 135.398 39.1768 135.294C39.274 135.191 39.4016 135.121 39.5413 135.094C39.5514 135.092 39.5616 135.09 39.5718 135.088C39.6124 135.081 39.6536 135.077 39.6948 135.077H54.8731L54.8791 135.099C55.2042 136.308 55.9532 137.361 56.9911 138.069L57 138.077Z" fill="#FFA412"/>
<path d="M63 135.077H62V138.077H63V135.077Z" fill="#FFA412"/>
<path d="M54 135.077H53V138.077H54V135.077Z" fill="#FFA412"/>
<path d="M69.9999 132.731V134.428C69.999 134.562 69.9557 134.691 69.8774 134.794C69.7893 134.909 69.6726 134.994 69.5413 135.038C69.508 135.05 69.4739 135.06 69.4394 135.067H69.4115C69.3698 135.074 69.3276 135.077 69.2854 135.077H39.7128C39.6827 135.077 39.6526 135.075 39.6227 135.072H39.5875C39.2658 135.019 39.0171 134.766 39 134.462C39 134.451 39 134.44 39 134.428V132.731C39 132.72 39 132.708 39 132.697C39.0198 132.353 39.3334 132.077 39.7146 132.077H69.2863C69.3052 132.077 69.3241 132.077 69.343 132.077H69.3665H69.3935H69.4124C69.4568 132.085 69.5005 132.096 69.5431 132.112L69.562 132.119L69.58 132.125L69.6161 132.141C69.6287 132.148 69.6422 132.154 69.6548 132.162C69.6674 132.17 69.6773 132.175 69.6882 132.181C69.699 132.188 69.7134 132.197 69.7251 132.206L69.753 132.227C69.7593 132.227 69.7657 132.236 69.772 132.241C69.7899 132.256 69.807 132.272 69.8233 132.289L69.8377 132.305L69.8513 132.321L69.8783 132.354C69.9587 132.46 70.0018 132.593 69.9999 132.731Z" fill="#FFB93E"/>
<path d="M57 135.077H39.6565H39.6112C39.4531 135.063 39.3053 134.993 39.1936 134.88C39.0819 134.768 39.0134 134.62 39 134.462C39 134.451 39 134.44 39 134.428V132.731C39 132.72 39 132.708 39 132.698C39.0154 132.525 39.0961 132.365 39.2255 132.25C39.3549 132.135 39.5234 132.073 39.6968 132.078H54.8751L54.8958 132.151C55.2258 133.332 55.9593 134.361 56.9695 135.061L57 135.077Z" fill="#FFA412"/>
<path d="M63 132.077H62V135.077H63V132.077Z" fill="#FFA412"/>
<path d="M54 132.077H53V135.077H54V132.077Z" fill="#FFA412"/>
<path d="M70 132.087V135.068C69.8756 135.074 69.7502 135.077 69.6247 135.077H69V132.077H69.6247C69.7503 132.077 69.8757 132.08 70 132.087Z" fill="#FFA412"/>
<path d="M71 129.732V131.424C70.9991 131.558 70.9572 131.687 70.8814 131.789C70.7966 131.904 70.6839 131.989 70.557 132.033C70.5156 132.049 70.4729 132.06 70.4297 132.067C70.3893 132.074 70.3485 132.077 70.3076 132.077H41.6901C41.5804 132.078 41.4717 132.053 41.371 132.004C41.2746 131.961 41.1898 131.891 41.1248 131.8C41.0599 131.71 41.017 131.602 41.0003 131.487C40.9999 131.477 40.9999 131.468 41.0003 131.458C41.0003 131.447 41.0003 131.436 41.0003 131.424V129.73C41.0003 129.719 41.0003 129.707 41.0003 129.696C41.0187 129.353 41.323 129.077 41.6919 129.077H70.3093C70.3502 129.077 70.391 129.08 70.4314 129.087C70.4745 129.095 70.5171 129.106 70.5587 129.12C70.6856 129.165 70.7982 129.25 70.8831 129.365C70.9587 129.469 71 129.598 71 129.732Z" fill="#FFB93E"/>
<path d="M58 132.077H41.6567C41.5514 132.078 41.4474 132.053 41.3527 132.004C41.2575 131.956 41.1753 131.883 41.1137 131.793C41.0521 131.703 41.0131 131.597 41.0004 131.487C40.9999 131.477 40.9999 131.468 41.0004 131.458C41.0004 131.447 41.0004 131.436 41.0004 131.424V129.73C41.0004 129.719 41.0004 129.707 41.0004 129.697C41.0147 129.525 41.0908 129.365 41.2131 129.25C41.3354 129.135 41.4947 129.073 41.6585 129.078H55.9949C56.2897 130.256 56.9635 131.29 57.9015 132.004L58 132.077Z" fill="#FFA412"/>
<path d="M69 129.077H68V132.077H69V129.077Z" fill="#FFA412"/>
<path d="M68 129.077H66V132.077H68V129.077Z" fill="#FFA412"/>
<path d="M66 129.077H65V132.077H66V129.077Z" fill="#FFA412"/>
<path d="M53 129.077H52V132.077H53V129.077Z" fill="#FFA412"/>
<path d="M71 129.077H70V132.077H71V129.077Z" fill="#FFA412"/>
<path d="M74 127.513V128.642C73.9991 128.731 73.9558 128.817 73.8775 128.885C73.7895 128.962 73.6728 129.018 73.5414 129.048C73.4987 129.058 73.455 129.065 73.4107 129.07C73.369 129.075 73.3268 129.077 73.2846 129.077H43.7154C43.3334 129.077 43.0198 128.893 43 128.664V127.49C43.018 127.278 43.2883 127.105 43.6307 127.081C43.6588 127.078 43.6871 127.077 43.7154 127.077H73.2846C73.3268 127.077 73.369 127.08 73.4107 127.085C73.4552 127.089 73.4989 127.096 73.5414 127.107C73.6729 127.136 73.7897 127.193 73.8775 127.269C73.956 127.338 73.9993 127.424 74 127.513Z" fill="#FFB93E"/>
<path d="M60 129.077H43.6581C43.4945 129.079 43.336 129.038 43.214 128.961C43.092 128.885 43.0156 128.779 43 128.664V127.49C43.0129 127.385 43.0783 127.286 43.1845 127.211C43.2907 127.136 43.4311 127.09 43.581 127.081C43.6065 127.078 43.6323 127.077 43.6581 127.077H57.9932C57.9932 127.077 57.9932 127.077 57.9932 127.081C58.2993 127.894 59.0116 128.602 60 129.077Z" fill="#FFA412"/>
<path d="M71 127.077H70V129.077H71V127.077Z" fill="#FFA412"/>
<path d="M70 127.077H69V129.077H70V127.077Z" fill="#FFA412"/>
<path d="M58 127.077H57V129.077H58V127.077Z" fill="#FFA412"/>
<path d="M74 127.077H73V129.077H74V127.077Z" fill="#FFA412"/>
<path d="M70 124.732V126.428C69.9992 126.562 69.9559 126.691 69.8775 126.793C69.7892 126.908 69.6726 126.993 69.5414 127.038C69.4988 127.053 69.455 127.064 69.4107 127.072L69.3693 127.077H69.3359H39.7145C39.3334 127.077 39.0198 126.801 39 126.457C39 126.446 39 126.434 39 126.423V124.732C39 124.72 39 124.709 39 124.698C39.0198 124.354 39.3334 124.077 39.7145 124.077H69.3224C69.3521 124.077 69.3819 124.077 69.4125 124.087C69.4569 124.094 69.5006 124.105 69.5432 124.121C69.5643 124.128 69.585 124.136 69.6053 124.146L69.6423 124.164L69.6783 124.184H69.6846C69.6954 124.191 69.7063 124.198 69.7162 124.206C69.7411 124.223 69.7649 124.242 69.7874 124.263L69.8081 124.281L69.8198 124.294L69.8405 124.318C69.8504 124.329 69.8603 124.341 69.8694 124.354C69.9533 124.459 69.9997 124.593 70 124.732Z" fill="#FFB93E"/>
<path d="M57 127.077H39.6968C39.5232 127.081 39.3546 127.02 39.2252 126.904C39.0957 126.789 39.0152 126.63 39 126.458C39 126.447 39 126.435 39 126.424V124.731C39 124.719 39 124.708 39 124.697C39.0152 124.525 39.0957 124.365 39.2252 124.25C39.3546 124.135 39.5232 124.073 39.6968 124.078H54.8751C54.881 124.1 54.8879 124.124 54.8948 124.147C55.2266 125.337 55.9695 126.373 56.9931 127.072L57 127.077Z" fill="#FFA412"/>
<path d="M63 124.077H62V127.077H63V124.077Z" fill="#FFA412"/>
<path d="M54 124.077H53V127.077H54V124.077Z" fill="#FFA412"/>
<path d="M73 122.513V123.642C72.9992 123.731 72.9559 123.817 72.8774 123.885C72.7899 123.962 72.6734 124.018 72.5422 124.048C72.4993 124.058 72.4553 124.066 72.4107 124.07C72.3689 124.075 72.3268 124.077 72.2845 124.077H42.7132C42.6033 124.077 42.4946 124.062 42.3932 124.031C42.291 124.003 42.2007 123.957 42.1316 123.895C42.0626 123.834 42.0173 123.761 42.0004 123.682C41.9999 123.676 41.9999 123.67 42.0004 123.664C42.0004 123.657 42.0004 123.65 42.0004 123.642V122.513C42.0004 122.506 42.0004 122.498 42.0004 122.491C42.0184 122.278 42.2878 122.105 42.6311 122.081C42.6591 122.081 42.687 122.077 42.7159 122.077H72.2872C72.3295 122.077 72.3716 122.08 72.4134 122.085C72.458 122.089 72.502 122.097 72.5449 122.107C72.676 122.137 72.7924 122.193 72.8802 122.27C72.9576 122.338 73 122.424 73 122.513Z" fill="#FFB93E"/>
<path d="M58 124.077H42.618C42.5222 124.077 42.4274 124.062 42.3407 124.031C42.2485 124 42.1688 123.951 42.1091 123.89C42.0495 123.829 42.012 123.758 42.0003 123.682C41.9999 123.676 41.9999 123.67 42.0003 123.664C42.0003 123.657 42.0003 123.65 42.0003 123.642V122.513C42.0003 122.506 42.0003 122.498 42.0003 122.491C42.012 122.385 42.0731 122.286 42.173 122.211C42.2729 122.136 42.4051 122.09 42.5463 122.081C42.5707 122.079 42.5952 122.077 42.6198 122.077H56.1128V122.084C56.3916 122.87 57.0277 123.559 57.9125 124.034L58 124.077Z" fill="#FFA412"/>
<path d="M63 122.077H62V124.077H63V122.077Z" fill="#FFA412"/>
<path d="M71 122.077H70V124.077H71V122.077Z" fill="#FFA412"/>
<path d="M73 122.084V124.07C72.7517 124.075 72.5007 124.077 72.2494 124.077H71V122.077H72.2494C72.5006 122.077 72.7515 122.079 73 122.084Z" fill="#FFA412"/>
<path d="M74 118.95V121.212C73.9991 121.39 73.9558 121.562 73.8775 121.699C73.7899 121.853 73.6734 121.966 73.5423 122.025C73.4995 122.046 73.4554 122.061 73.4107 122.07C73.397 122.074 73.3832 122.076 73.3692 122.077H73.3458H73.3233H43.7146C43.3334 122.077 43.0189 121.709 43 121.251C43 121.235 43 121.221 43 121.205V118.95C43 118.935 43 118.919 43 118.905C43.0189 118.446 43.3334 118.077 43.7146 118.077H73.2845C73.3268 118.077 73.369 118.082 73.4107 118.092C73.4553 118.101 73.4993 118.116 73.5423 118.136C73.6733 118.196 73.7897 118.31 73.8775 118.463C73.9559 118.6 73.9992 118.772 74 118.95Z" fill="#FFB93E"/>
<path d="M59 122.077H43.6194C43.4652 122.083 43.3154 122.001 43.2004 121.848C43.0854 121.694 43.0137 121.482 43 121.253C43 121.237 43 121.223 43 121.207V118.947C43 118.933 43 118.917 43 118.903C43.0135 118.674 43.0851 118.461 43.2001 118.308C43.3152 118.154 43.4651 118.072 43.6194 118.078H57.1112C57.3977 119.701 58.0659 121.116 58.9939 122.067L59 122.077Z" fill="#FFA412"/>
<path d="M60 118.077H59V122.077H60V118.077Z" fill="#FFA412"/>
<path d="M71 118.077H70V122.077H71V118.077Z" fill="#FFA412"/>
<path d="M74 118.414V121.741C73.7397 121.9 73.392 122.017 73 122.077V118.077C73.391 118.139 73.7381 118.256 74 118.414Z" fill="#FFA412"/>
<path d="M132.5 149.077C140.508 149.077 147 142.362 147 134.077C147 125.793 140.508 119.077 132.5 119.077C124.492 119.077 118 125.793 118 134.077C118 142.362 124.492 149.077 132.5 149.077Z" fill="#E2810E"/>
<path opacity="0.5" d="M149 136.981C149 137.435 148.983 137.884 148.949 138.329C148.925 138.632 148.893 138.933 148.854 139.232C148.776 139.836 148.666 140.436 148.523 141.028C148.438 141.386 148.341 141.739 148.233 142.087C148.066 142.624 147.873 143.152 147.653 143.669C147.645 143.692 147.635 143.714 147.624 143.735C147.423 144.205 147.2 144.663 146.958 145.105C146.716 145.547 146.464 145.965 146.19 146.374L146.136 146.452C146.03 146.61 145.92 146.766 145.806 146.92C145.237 147.697 144.595 148.419 143.89 149.077H135.741C135.606 149.08 135.473 149.038 135.364 148.958C135.254 148.878 135.174 148.765 135.135 148.636C135.128 148.615 135.123 148.594 135.118 148.572C135.115 148.553 135.113 148.534 135.112 148.514V146.925C135.113 146.906 135.115 146.887 135.118 146.869C135.123 146.847 135.128 146.825 135.135 146.804C135.175 146.676 135.256 146.564 135.365 146.485C135.474 146.407 135.606 146.366 135.741 146.368H132.629C132.494 146.371 132.362 146.329 132.253 146.251C132.144 146.172 132.063 146.06 132.024 145.931C132.017 145.91 132.011 145.889 132.007 145.867C132.003 145.848 132.001 145.829 132 145.81C132 145.8 132 145.789 132 145.78V144.253C132 144.242 132 144.231 132 144.222C132.001 144.203 132.003 144.184 132.007 144.165C132.011 144.143 132.017 144.122 132.024 144.101C132.063 143.972 132.143 143.859 132.252 143.779C132.361 143.699 132.493 143.657 132.629 143.659H133.842C133.751 143.616 133.673 143.551 133.614 143.47C133.555 143.389 133.519 143.294 133.507 143.194C133.506 143.185 133.506 143.176 133.507 143.168C133.507 143.158 133.507 143.147 133.507 143.137V141.61C133.507 141.6 133.507 141.59 133.507 141.58C133.508 141.56 133.51 141.541 133.514 141.522C133.518 141.501 133.523 141.48 133.53 141.459C133.569 141.33 133.649 141.217 133.758 141.137C133.867 141.057 133.999 141.015 134.135 141.017H134.832C134.697 141.02 134.565 140.979 134.456 140.9C134.347 140.821 134.267 140.71 134.227 140.581C134.22 140.56 134.215 140.539 134.211 140.517C134.207 140.498 134.205 140.479 134.204 140.46C134.204 140.45 134.204 140.439 134.204 140.43V138.902C134.204 138.893 134.204 138.882 134.204 138.872C134.205 138.855 134.207 138.837 134.21 138.82C134.234 138.688 134.3 138.568 134.399 138.477C134.498 138.387 134.624 138.331 134.757 138.318H132.693C132.557 138.32 132.425 138.279 132.315 138.199C132.206 138.119 132.126 138.006 132.087 137.877C132.08 137.856 132.075 137.835 132.071 137.813C132.067 137.794 132.064 137.775 132.064 137.755V136.166C132.064 136.158 132.064 136.15 132.064 136.141C132.08 136.015 132.136 135.897 132.224 135.804C132.312 135.71 132.427 135.647 132.553 135.623C132.419 135.61 132.293 135.554 132.195 135.463C132.096 135.372 132.03 135.252 132.007 135.12C132.004 135.104 132.002 135.087 132.001 135.07C132.001 135.059 132.001 135.05 132.001 135.039V133.512C132.001 133.502 132.001 133.492 132.001 133.482C132.001 133.463 132.004 133.444 132.008 133.425C132.012 133.403 132.017 133.382 132.025 133.361C132.064 133.232 132.144 133.119 132.253 133.039C132.362 132.959 132.494 132.917 132.63 132.92H133.843C133.752 132.876 133.674 132.811 133.615 132.73C133.556 132.648 133.52 132.553 133.508 132.454C133.507 132.445 133.507 132.436 133.508 132.427C133.508 132.417 133.508 132.408 133.508 132.398V130.871C133.508 130.86 133.508 130.85 133.508 130.84C133.508 130.821 133.511 130.802 133.515 130.783C133.519 130.762 133.524 130.74 133.531 130.719C133.57 130.59 133.65 130.477 133.759 130.397C133.868 130.318 134 130.276 134.136 130.278H136.514C136.378 130.28 136.246 130.238 136.137 130.158C136.028 130.078 135.948 129.965 135.91 129.836C135.903 129.815 135.897 129.794 135.893 129.772C135.889 129.753 135.887 129.734 135.887 129.715C135.887 129.704 135.887 129.695 135.887 129.685V128.157C135.887 128.147 135.887 128.137 135.887 128.127C135.889 128.1 135.892 128.074 135.898 128.048C135.927 127.922 135.995 127.809 136.092 127.724C136.19 127.638 136.311 127.585 136.44 127.572H132.694C132.559 127.575 132.427 127.534 132.317 127.455C132.208 127.376 132.127 127.265 132.088 127.136C132.081 127.115 132.076 127.094 132.072 127.072C132.068 127.053 132.065 127.034 132.065 127.015V125.426C132.065 125.407 132.068 125.387 132.072 125.368C132.076 125.347 132.081 125.325 132.088 125.305C132.127 125.176 132.208 125.064 132.317 124.985C132.426 124.906 132.559 124.865 132.694 124.868H134.556C134.468 124.828 134.392 124.768 134.332 124.692C134.273 124.617 134.233 124.528 134.216 124.433C134.213 124.421 134.211 124.409 134.21 124.396C134.21 124.388 134.21 124.38 134.21 124.372C134.21 124.362 134.21 124.351 134.21 124.342V122.815C134.21 122.804 134.21 122.795 134.21 122.785C134.211 122.767 134.213 122.749 134.216 122.732C134.24 122.6 134.306 122.48 134.405 122.389C134.504 122.299 134.63 122.243 134.764 122.23C134.788 122.227 134.813 122.225 134.838 122.226H135.681C135.547 122.215 135.42 122.16 135.32 122.07C135.22 121.981 135.152 121.861 135.127 121.729C135.124 121.71 135.122 121.691 135.121 121.671V121.077C136.79 121.155 138.43 121.545 139.954 122.225C139.957 122.226 139.96 122.227 139.963 122.229C141.42 122.883 142.758 123.774 143.92 124.867C143.942 124.888 143.964 124.909 143.987 124.929C144.552 125.466 145.076 126.045 145.554 126.66C145.667 126.804 145.777 126.951 145.884 127.101C145.996 127.254 146.103 127.41 146.209 127.567C146.336 127.758 146.461 127.954 146.582 128.153C146.704 128.353 146.806 128.529 146.912 128.722C147.191 129.224 147.442 129.74 147.665 130.268C148.027 131.122 148.317 132.004 148.532 132.905L148.548 132.972C148.571 133.067 148.592 133.163 148.612 133.259C148.771 133.991 148.882 134.731 148.944 135.477C148.944 135.515 148.951 135.553 148.954 135.591C148.954 135.597 148.954 135.603 148.954 135.609C148.982 136.088 149 136.532 149 136.981Z" fill="#E2810E"/>
<path d="M130.5 149.077C138.508 149.077 145 142.362 145 134.077C145 125.793 138.508 119.077 130.5 119.077C122.492 119.077 116 125.793 116 134.077C116 142.362 122.492 149.077 130.5 149.077Z" fill="#FFB93E"/>
<path d="M130.998 148.077C127.99 148.077 125.076 146.993 122.751 145.012C120.427 143.03 118.836 140.272 118.249 137.209C117.663 134.146 118.118 130.966 119.536 128.212C120.954 125.458 123.248 123.299 126.026 122.105C128.805 120.91 131.897 120.752 134.775 121.659C137.652 122.566 140.139 124.481 141.809 127.078C143.48 129.675 144.232 132.793 143.937 135.901C143.643 139.009 142.319 141.915 140.192 144.123C138.988 145.381 137.555 146.378 135.976 147.057C134.398 147.736 132.706 148.082 130.998 148.077ZM130.998 121.881C124.257 121.881 118.772 127.576 118.772 134.576C118.772 141.577 124.257 147.272 130.998 147.272C137.739 147.272 143.223 141.577 143.223 134.576C143.223 127.576 137.739 121.881 130.998 121.881Z" fill="#FFA412"/>
<path d="M70.7463 113.858C77.2106 107.362 77.2106 96.8317 70.7463 90.3365C64.282 83.8413 53.8013 83.8413 47.337 90.3365C40.8727 96.8317 40.8727 107.362 47.337 113.858C53.8013 120.353 64.282 120.353 70.7463 113.858Z" fill="#E2810E"/>
<path d="M69.3017 113.857C75.766 107.362 75.766 96.8311 69.3017 90.3359C62.8374 83.8407 52.3567 83.8407 45.8924 90.3359C39.4281 96.8311 39.4281 107.362 45.8924 113.857C52.3567 120.352 62.8374 120.352 69.3017 113.857Z" fill="#FFB93E"/>
<path d="M57.9993 117.077C54.529 117.077 51.1661 115.874 48.4837 113.672C45.8012 111.471 43.9651 108.407 43.2882 105.003C42.6112 101.6 43.1354 98.0667 44.7713 95.0063C46.4072 91.9458 49.0537 89.5472 52.2598 88.2192C55.4659 86.8912 59.0333 86.7159 62.3541 87.7232C65.6749 88.7306 68.5438 90.8582 70.4718 93.7435C72.3999 96.6289 73.2678 100.094 72.9278 103.547C72.5878 107.001 71.0608 110.229 68.6071 112.683C67.2173 114.081 65.5641 115.189 63.7433 115.943C61.9224 116.697 59.9701 117.083 57.9993 117.077ZM57.9993 87.9683C50.2207 87.9683 43.8919 94.297 43.8919 102.076C43.8919 109.854 50.2207 116.182 57.9993 116.182C65.7778 116.182 72.1057 109.854 72.1057 102.076C72.1057 94.297 65.776 87.9692 57.9993 87.9692V87.9683Z" fill="#FFA412"/>
<path d="M159 102.936C159 102.936 157.297 105.047 155.736 105.077C154.174 105.106 151.799 104.098 151.799 104.098C151.799 104.098 150.366 101.285 151.338 100.183C151.338 100.183 152.317 99.8073 153.333 100.472C153.528 100.602 153.705 100.751 153.86 100.917C154.071 101.15 154.357 101.32 154.68 101.407C155.793 101.706 157.115 101.003 157.61 101.681C157.852 102.012 158.142 102.313 158.471 102.579C158.636 102.711 158.813 102.831 159 102.936Z" fill="#FFEDDC"/>
<path d="M138 118.077C138 118.077 143.709 105.32 153.987 105.077C153.987 105.077 163.473 106.049 164 118.077H138Z" fill="#FFEDDC"/>
<path d="M151.019 105.376C151.019 105.376 154.823 106.551 155.994 105.86C155.994 105.86 156.172 103.65 154.569 103.96C153.473 104.172 152.758 103.44 152.339 103.142C151.747 102.722 150.861 104.451 151.019 105.376Z" fill="#DB6A1D"/>
<path d="M154.835 103.067C154.63 103.28 154 100.077 154 100.077C154.144 100.227 154.275 100.4 154.39 100.592C154.546 100.86 154.757 101.058 154.996 101.158C154.997 101.254 155.037 102.861 154.835 103.067Z" fill="#E5C1A1"/>
<path d="M158 101.98C157.948 102.011 156.254 103.077 156.024 103.077C155.795 103.077 157.273 101.077 157.273 101.077C157.478 101.41 157.722 101.713 158 101.98Z" fill="#E5C1A1"/>
<path d="M144.002 114.887C143.901 114.784 147.87 108.127 148.962 108.079C150.055 108.03 152.511 109.537 154.288 109.732C156.066 109.926 157.79 109.343 158.126 110.555C158.462 111.767 159.387 116.081 158.82 116.772C158.253 117.462 146.184 117.044 144.002 114.887Z" fill="#F9DDBF"/>
<path d="M105 83.938C105 83.938 103.723 86.0485 102.552 86.0768C101.382 86.1051 99.5992 85.0957 99.5992 85.0957C99.5992 85.0957 98.5245 82.2843 99.2537 81.1844C99.5035 81.0797 99.7718 81.0512 100.034 81.1016C100.295 81.1519 100.542 81.2794 100.75 81.4722C100.896 81.602 101.029 81.7512 101.146 81.917C101.304 82.1489 101.518 82.3195 101.76 82.4064C102.596 82.7051 103.587 82.0031 103.959 82.68C104.141 83.0109 104.36 83.3124 104.609 83.5772C104.731 83.71 104.861 83.8307 105 83.938Z" fill="#FFEDDC"/>
<path d="M89 97.0774C89 97.0774 93.1724 86.2836 100.682 86.0774C100.682 86.0774 107.615 86.9024 108 97.0774H89Z" fill="#FFEDDC"/>
<path d="M99.0106 85.8432C99.0106 85.8432 101.292 86.2351 101.996 86.005C101.996 86.005 102.103 85.2678 101.142 85.3713C100.484 85.4422 100.056 85.198 99.8039 85.099C99.4499 84.9588 98.9182 85.5351 99.0106 85.8432Z" fill="#DB6A1D"/>
<path d="M101.835 84.074C101.63 84.1447 101 83.0774 101 83.0774C101.144 83.1274 101.275 83.185 101.39 83.2489C101.546 83.3383 101.757 83.4041 101.996 83.4376C101.998 83.47 102.035 84.0051 101.835 84.074Z" fill="#E5C1A1"/>
<path d="M105 84.5291C104.923 84.5456 102.381 85.0774 102.036 85.0774C101.691 85.0774 103.917 84.0774 103.917 84.0774C104.221 84.2437 104.585 84.3955 105 84.5291Z" fill="#E5C1A1"/>
<path d="M92.0016 93.6163C91.9139 93.5495 95.3533 89.1075 96.3006 89.078C97.2479 89.0485 99.3764 90.0509 100.917 90.1801C102.458 90.3093 103.951 89.92 104.242 90.7315C104.534 91.5431 105.336 94.414 104.844 94.8744C104.352 95.3349 93.8923 95.0513 92.0016 93.6163Z" fill="#F9DDBF"/>
<path d="M78 117.795C78 117.795 80.9798 122.018 83.712 122.076C86.4443 122.135 90.6012 120.119 90.6012 120.119C90.6012 120.119 93.1096 114.492 91.4083 112.29C91.4083 112.29 89.7016 111.536 87.9174 112.867C87.5756 113.125 87.2656 113.423 86.9941 113.754C86.6245 114.217 86.1245 114.557 85.5597 114.73C83.6098 115.326 81.2961 113.922 80.4309 115.278C80.0068 115.939 79.5005 116.542 78.9243 117.074C78.6373 117.34 78.3281 117.581 78 117.795Z" fill="#FFEDDC"/>
<path d="M117 149.077C117 149.077 106.24 122.582 86.8713 122.077C86.8713 122.077 68.9928 124.096 68 149.077H117Z" fill="#FFEDDC"/>
<path d="M91.9628 122.907C91.9628 122.907 84.3578 124.866 82.0115 123.715C82.0115 123.715 81.6588 120.03 84.8595 120.548C87.0515 120.902 88.4799 119.681 89.3193 119.186C90.5079 118.484 92.2793 121.366 91.9628 122.907Z" fill="#DB6A1D"/>
<path d="M85.3282 118.061C85.7391 118.414 87 113.077 87 113.077C86.7113 113.326 86.4494 113.612 86.2199 113.932C85.9077 114.378 85.4853 114.706 85.0082 114.872C85.0037 115.034 84.93 117.716 85.3282 118.061Z" fill="#E5C1A1"/>
<path d="M79 117.432C79.0771 117.479 81.6189 119.077 81.9636 119.077C82.3083 119.077 80.0896 116.077 80.0896 116.077C79.7829 116.576 79.4167 117.031 79 117.432Z" fill="#E5C1A1"/>
<path d="M106.996 141.18C107.192 141.003 99.5187 129.166 97.4056 129.079C95.2925 128.993 90.5458 131.673 87.1088 132.019C83.6718 132.364 80.3391 131.327 79.6895 133.488C79.0399 135.649 77.2512 143.31 78.3479 144.535C79.4447 145.761 102.777 145.017 106.996 141.18Z" fill="#F9DDBF"/>
<path d="M76.3146 84.9969C76.3146 84.9969 76.0703 83.7868 78.8422 80.064C79.4399 79.2612 81.2634 76.2368 81.2634 76.2368C81.9837 76.057 84.2286 77.259 84.82 77.624C84.939 77.6978 85.0079 77.7427 85.0079 77.7427C85.0079 77.7427 85.9689 81.9259 83.928 81.4521C83.8644 81.4368 83.8 81.4242 83.7365 81.4143C81.768 81.105 79.8587 83.073 78.9943 84.3226C78.4288 85.1345 76.6895 85.0293 76.3146 84.9969Z" fill="#233862"/>
<path d="M90.9417 76.866C90.9417 76.866 90.6983 75.656 93.4694 71.9331C94.0671 71.1303 95.8906 68.106 95.8906 68.106C96.6108 67.9262 98.8558 69.1291 99.4481 69.4941L99.636 69.6118C99.636 69.6118 100.596 73.7959 98.5551 73.3212C98.4916 73.3059 98.4272 73.2942 98.3637 73.2843C96.3952 72.9751 94.4858 74.943 93.6215 76.1918C93.0569 77.0036 91.3175 76.8966 90.9417 76.866Z" fill="#233862"/>
<path d="M122.164 56.1572C121.597 53.71 115.293 46.0791 112.065 47.8466C108.836 49.6141 110.511 59.212 113.876 70.5316C113.927 70.7042 113.98 70.8759 114.033 71.0468C107.249 69.9275 99.1757 69.5876 99.1757 69.5876L98.3257 73.5299C104.439 75.2263 116.31 81.1257 121.295 83.6654C123.199 84.533 125.435 84.533 125.89 82.85C127.415 77.214 122.164 56.1572 122.164 56.1572Z" fill="#ED7D2B"/>
<path d="M110.126 91.4186C110.126 91.4186 95.6976 84.8765 86.8986 82.2334C85.8079 81.9061 84.8067 81.6409 83.929 81.4521L84.8541 77.661C84.8541 77.661 85.7158 77.6457 87.1152 77.6475C92.5928 77.6628 106.31 77.9702 108.762 80.6727C111.837 84.0647 110.126 91.4186 110.126 91.4186Z" fill="#FFB27D"/>
<path d="M121.03 1.73851C121.504 2.83442 121.882 4.27285 121.562 5.03073C121.198 5.89019 121.294 6.51232 121.294 6.51232L120.518 6.70291L119.592 6.92946C119.592 6.92946 119.542 6.84945 119.467 6.7137C119.392 6.57794 119.295 6.38555 119.199 6.1608C119.18 6.03278 119.13 5.91137 119.053 5.80695C118.977 5.70252 118.877 5.61818 118.761 5.56115C118.367 5.37325 117.952 4.89497 117.876 4.43198C117.799 3.96898 117.328 3.10592 117.462 3.01512C117.786 2.79486 118.274 4.138 118.56 4.19823C118.819 4.25217 118.902 4.06788 118.918 4.03191C118.918 4.02953 118.918 4.0271 118.918 4.02472C119.365 2.92702 118.537 0.158926 119.195 0.00159744C119.443 -0.0523439 120.828 1.27461 121.03 1.73851Z" fill="#FFB27D"/>
<path d="M71.0971 23.8689C71.9024 24.7472 73.0593 25.6759 73.8798 25.6876C74.8094 25.7011 75.3347 26.0472 75.3347 26.0472L75.8214 25.4107L76.403 24.651C76.403 24.651 76.3502 24.5737 76.2563 24.4505C76.1623 24.3274 75.5056 23.7718 75.4939 23.3322C75.4823 22.8925 75.2148 22.3199 74.8238 22.0627C74.4328 21.8056 73.8395 21.0226 73.7009 21.1098C73.3698 21.3183 74.3952 22.3091 74.3343 22.5967C74.2789 22.8566 74.0775 22.8584 74.04 22.8557H74.0319C72.8508 22.826 70.6641 20.9417 70.2579 21.4847C70.1058 21.6851 70.7535 23.4949 71.0971 23.8689Z" fill="#FFB27D"/>
<path d="M106.008 57.984C102.449 58.9118 103.341 63.2118 103.874 75.0133C103.934 76.3492 104.053 77.6384 104.232 78.8692C99.0161 77.8165 90.9955 77.6582 87.1141 77.6474C87.1141 77.6474 86.469 79.0859 86.4967 80.2393C86.5558 82.6918 87.8022 84.3128 87.8022 84.3128C96.6011 86.9559 110.125 91.415 110.125 91.415V91.4052C111.026 91.6407 111.875 91.1867 112.55 89.8885C115.241 84.7119 119.845 50.2588 119.845 50.2588C119.89 47.7505 109.567 57.0572 106.008 57.984Z" fill="#F99746"/>
<path d="M100.198 31.5357C100.198 31.5357 101.451 28.3477 99.0161 23.8041L102.476 24.5736L104.826 25.0978C105.166 25.848 105.464 26.6163 105.721 27.3993C105.854 27.793 106.347 29.3726 106.496 29.8608C107.323 29.8958 106.131 31.1527 104.438 31.4008C102.548 31.6759 100.198 31.5357 100.198 31.5357Z" fill="#FFB27D"/>
<path d="M104.826 25.0979C105.165 25.8481 105.464 26.6164 105.72 27.3993C103.701 28.0044 100.1 26.0328 100.1 26.0328C100.912 25.2858 101.717 24.8237 102.473 24.5737L104.826 25.0979Z" fill="#ED975D"/>
<path d="M106.379 23.9084C106.379 23.9084 102.371 28.3622 99.6493 25.8116C96.9275 23.2611 94.577 22.1185 97.0206 19.167C99.4641 16.2155 101.008 16.6443 102.121 17.2736C103.233 17.903 107.351 22.6857 106.379 23.9084Z" fill="#FFB27D"/>
<path d="M99.4261 25.5365C99.4261 25.5365 99.8368 25.0789 99.2418 24.4837C98.6468 23.8886 97.9712 23.0318 98.628 22.7684C99.2847 22.505 99.6489 22.9104 99.6695 22.487C99.6901 22.0635 98.8642 21.0108 100.385 19.6784C101.906 18.3461 102.98 18.3856 103.461 17.4758C103.943 16.566 103.095 15.4189 103.095 15.4189C103.095 15.4189 103.202 15.9844 102.987 16.362C102.987 16.362 102.882 13.7017 100.552 13.6793C98.2218 13.6568 97.3727 15.5672 96.5916 16.2703C94.871 17.822 93.7892 18.863 94.1417 20.528C94.4943 22.193 97.3584 25.3126 99.4261 25.5365Z" fill="#2B478B"/>
<path d="M103.874 22.9806L105.361 21.5754C105.361 21.5754 105.966 22.5068 105.54 22.9123C105.114 23.3178 103.874 22.9806 103.874 22.9806Z" fill="white"/>
<path d="M123.836 14.5577C123.199 10.602 121.286 6.25972 121.286 6.25972L119.201 6.16443C119.201 6.16443 119.432 11.519 119.38 15.2634C119.355 17.0615 118.574 18.6887 118.36 18.9773C117.714 19.8466 108.185 29.0688 107.862 29.3592L107.855 29.3673C106.842 29.5408 106.955 31.2157 105.912 31.4962C104.174 31.9646 101.289 31.1114 99.7444 31.6868C99.7444 31.6868 87.3673 31.7003 85.4839 30.794C83.6005 29.8878 76.2563 24.4478 76.2563 24.4478L74.8999 26.0391C74.8999 26.0391 79.9409 35.7908 83.9369 37.5466C86.112 38.5014 90.8909 39.6512 94.7938 40.4999C95.551 40.6662 96.2508 41.0318 96.8213 41.559C97.3918 42.0863 97.8127 42.7564 98.0408 43.5008C101.71 55.3958 99.8634 65.4289 99.8634 65.4289C99.8634 65.4289 103.382 65.8244 107.762 64.6018C113.458 63.0123 117.62 60.4366 117.62 60.4366C119.225 58.4812 118.276 51.3115 118.276 51.3115C118.276 51.3115 119.384 52.5144 119.755 54.5228C120.024 55.9703 120.166 56.7704 120.256 57.2792C120.275 57.3889 120.322 57.4918 120.391 57.5782C120.461 57.6647 120.552 57.7317 120.655 57.7731C120.758 57.8144 120.869 57.8286 120.979 57.8144C121.089 57.8002 121.194 57.758 121.283 57.6919C122.106 57.0788 123.28 56.1258 123.648 55.4254C124.93 52.981 122.078 43.0189 118.14 36.074C117.793 35.4652 117.617 34.7736 117.63 34.0725C117.643 33.3714 117.844 32.6868 118.213 32.0913C120.636 28.186 124.361 21.9926 124.406 20.7493C124.43 20.0786 124.201 16.8295 123.836 14.5577Z" fill="#2B478B"/>
<path d="M105.641 32.3951C105.641 32.3951 108.963 37.1321 106.527 41.7108C104.09 46.2895 94.5183 45.6566 92.7476 51.3762L93.8213 54.9372L97.8235 52.7598C97.8235 52.7598 98.1581 49.6671 102.095 48.324C109.786 45.7007 111.637 41.1696 110.023 37.1159C108.66 33.6897 106.685 32.0355 106.685 32.0355L105.641 32.3951Z" fill="#F99746"/>
<path d="M100.507 29.788L104.36 31.0664L104.551 31.8009L99.7444 31.6867C99.7444 31.6867 100 30.5764 100.507 29.788Z" fill="#F99746"/>
<path d="M106.145 28.7236L106.273 30.7249C106.273 30.7249 106.779 31.1402 106.772 31.0845C106.764 31.0287 107.856 29.3664 107.856 29.3664C107.305 29.1051 106.732 28.89 106.145 28.7236Z" fill="#F99746"/>
<path d="M104.36 31.0664L106.329 30.4002C106.371 30.3858 106.416 30.3811 106.46 30.3864C106.504 30.3916 106.547 30.4067 106.584 30.4306C106.622 30.4544 106.654 30.4864 106.678 30.5243C106.702 30.5621 106.717 30.6048 106.722 30.6492L106.883 31.9762C106.892 32.0449 106.877 32.1146 106.84 32.1733C106.803 32.232 106.747 32.2761 106.682 32.298L105.818 32.5929C105.771 32.6083 105.722 32.6122 105.674 32.6044C105.625 32.5966 105.58 32.5772 105.54 32.548L104.28 31.5932C104.236 31.5604 104.202 31.5163 104.182 31.4656C104.161 31.415 104.154 31.3596 104.163 31.3055C104.171 31.2514 104.194 31.2006 104.228 31.1585C104.263 31.1163 104.309 31.0845 104.36 31.0664Z" fill="#ED7D2B"/>
<path d="M119.1 5.88489L118.927 7.54718C118.927 7.54718 121.015 7.57865 121.015 7.54718C121.015 7.51572 121.079 6.72278 121.079 6.72278L121.427 7.64248L122.202 7.38806L121.314 5.88489C121.314 5.88489 120.433 6.30473 119.1 5.88489Z" fill="#233862"/>
<path d="M76.2562 24.4469L74.8953 26.0391L75.2952 27.5935L75.8491 27.2114L75.5762 26.0436L76.5291 26.8302L77.7629 25.1922L76.2562 24.4469Z" fill="#233862"/>
<path d="M75.9592 25.9079C75.9592 25.8743 75.9725 25.842 75.9962 25.8183C76.0198 25.7945 76.0519 25.7811 76.0854 25.7811C76.102 25.781 76.1185 25.7842 76.1339 25.7905C76.1493 25.7968 76.1633 25.8062 76.1752 25.8179C76.187 25.8297 76.1963 25.8437 76.2027 25.8592C76.2091 25.8746 76.2124 25.8912 76.2124 25.9079C76.2125 25.9247 76.2093 25.9413 76.203 25.9569C76.1966 25.9724 76.1873 25.9865 76.1755 25.9984C76.1636 26.0103 76.1496 26.0197 76.1341 26.0261C76.1187 26.0325 76.1021 26.0357 76.0854 26.0356C76.0687 26.0356 76.0523 26.0322 76.0369 26.0258C76.0215 26.0194 76.0076 26.01 75.9959 25.9981C75.9841 25.9862 75.9749 25.9722 75.9686 25.9567C75.9623 25.9412 75.9591 25.9246 75.9592 25.9079Z" fill="#EBF3FA"/>
<path d="M120.632 6.93211C120.632 6.90541 120.643 6.8798 120.661 6.86091C120.68 6.84203 120.706 6.83142 120.732 6.83142C120.759 6.83142 120.784 6.84203 120.803 6.86091C120.822 6.8798 120.833 6.90541 120.833 6.93211C120.833 6.95882 120.822 6.98443 120.803 7.00331C120.784 7.02219 120.759 7.0328 120.732 7.0328C120.706 7.0328 120.68 7.02219 120.661 7.00331C120.643 6.98443 120.632 6.95882 120.632 6.93211Z" fill="#EBF3FA"/>
<path d="M117.349 45.6369C117.349 45.5835 117.364 45.5314 117.394 45.487C117.423 45.4427 117.465 45.4081 117.514 45.3877C117.563 45.3673 117.617 45.362 117.669 45.3724C117.722 45.3828 117.769 45.4085 117.807 45.4462C117.844 45.4839 117.87 45.5319 117.88 45.5843C117.891 45.6366 117.885 45.6908 117.865 45.7401C117.845 45.7894 117.81 45.8315 117.766 45.8611C117.722 45.8907 117.67 45.9066 117.617 45.9066C117.546 45.9066 117.478 45.8781 117.427 45.8276C117.377 45.777 117.349 45.7084 117.349 45.6369Z" fill="#EBF3FA"/>
<path d="M115.213 41.1651C115.213 41.1118 115.228 41.0596 115.258 41.0153C115.287 40.9709 115.329 40.9363 115.378 40.9159C115.427 40.8955 115.481 40.8902 115.533 40.9006C115.585 40.911 115.633 40.9367 115.671 40.9744C115.708 41.0121 115.734 41.0602 115.744 41.1125C115.755 41.1648 115.749 41.219 115.729 41.2683C115.709 41.3176 115.674 41.3597 115.63 41.3893C115.586 41.419 115.534 41.4348 115.481 41.4348C115.41 41.4348 115.342 41.4064 115.291 41.3558C115.241 41.3052 115.213 41.2366 115.213 41.1651Z" fill="#EBF3FA"/>
<path d="M112.27 37.7822C112.27 37.7288 112.286 37.6767 112.315 37.6323C112.345 37.588 112.386 37.5534 112.436 37.533C112.485 37.5126 112.539 37.5072 112.591 37.5176C112.643 37.528 112.69 37.5537 112.728 37.5915C112.766 37.6292 112.791 37.6772 112.802 37.7296C112.812 37.7819 112.807 37.8361 112.786 37.8854C112.766 37.9347 112.732 37.9768 112.687 38.0064C112.643 38.0361 112.591 38.0519 112.538 38.0519C112.467 38.0519 112.399 38.0235 112.348 37.9729C112.298 37.9223 112.27 37.8537 112.27 37.7822Z" fill="#EBF3FA"/>
<path d="M63 97.8274V96.0774H53V97.8274H56.1818C57.3655 97.8274 58.3645 98.5606 58.7409 99.5774H53V101.327H58.7409C58.5543 101.838 58.2081 102.28 57.7499 102.593C57.2917 102.907 56.7439 103.076 56.1818 103.077H53V105.19L58.0782 110.077H60.6491L55.1945 104.827H56.1818C57.2291 104.826 58.2438 104.477 59.0549 103.84C59.866 103.202 60.4239 102.315 60.6345 101.327H63V99.5774H60.6345C60.4952 98.9406 60.208 98.3423 59.7945 97.8274H63Z" fill="white"/>
<path d="M137 129.827V128.077H127V129.827H130.182C131.365 129.827 132.365 130.561 132.741 131.577H127V133.327H132.741C132.554 133.838 132.208 134.28 131.75 134.593C131.292 134.907 130.744 135.076 130.182 135.077H127V137.19L132.078 142.077H134.649L129.195 136.827H130.182C131.229 136.826 132.244 136.477 133.055 135.84C133.866 135.202 134.424 134.315 134.635 133.327H137V131.577H134.635C134.495 130.941 134.208 130.342 133.795 129.827H137Z" fill="white"/>
</svg>
