<svg width="536" height="652" viewBox="0 0 536 652" fill="none" xmlns="http://www.w3.org/2000/svg">
<path d="M206.642 388.191H113.363V590.972H206.642V388.191Z" fill="#FF7666" fill-opacity="0.23"/>
<path d="M242.653 556.719L159.998 651.649L77.344 556.719H242.653Z" fill="#FF7666" fill-opacity="0.23"/>
<path d="M287.41 84.5503H216.245V239.261H287.41V84.5503Z" fill="#FF7666" fill-opacity="0.23"/>
<path d="M314.888 213.127L251.828 285.555L188.767 213.127H314.888Z" fill="#FF7666" fill-opacity="0.23"/>
<path d="M444.018 160.395H414.217V225.182H444.018V160.395Z" fill="#FF7666" fill-opacity="0.23"/>
<path d="M455.524 214.239L429.116 244.568L402.708 214.239H455.524Z" fill="#FF7666" fill-opacity="0.23"/>
<path d="M62.1037 205.193H17.2976V302.598H62.1037V205.193Z" fill="#FF7666" fill-opacity="0.23"/>
<path d="M79.4052 286.144L39.7007 331.743L0 286.144H79.4052Z" fill="#FF7666" fill-opacity="0.23"/>
<path d="M498.755 306.99H87.5017V506.393H498.755V306.99Z" fill="#EB513F"/>
<path d="M460.436 425.906V349.166C449.251 349.165 438.524 344.721 430.615 336.812C422.707 328.902 418.264 318.175 418.264 306.99H129.674C129.674 318.175 125.231 328.902 117.322 336.812C109.413 344.721 98.6867 349.165 87.5017 349.166V425.906C98.6864 425.906 109.413 430.349 117.322 438.258C125.23 446.167 129.674 456.894 129.674 468.078H418.264C418.264 456.894 422.707 446.167 430.616 438.258C438.524 430.349 449.251 425.906 460.436 425.906Z" fill="#A2D9CE"/>
<path d="M273.969 449.467C308.173 449.467 335.902 421.739 335.902 387.535C335.902 353.33 308.173 325.602 273.969 325.602C239.764 325.602 212.036 353.33 212.036 387.535C212.036 421.739 239.764 449.467 273.969 449.467Z" fill="#148F77"/>
<path d="M196.01 396.625H132.152V397.897H196.01V396.625Z" fill="#34495E"/>
<path d="M415.785 396.625H351.928V397.897H415.785V396.625Z" fill="#34495E"/>
<path d="M479.597 287.833H68.3442V487.236H479.597V287.833Z" fill="#FF6351"/>
<path d="M460.439 268.675H49.1865V468.078H460.439V268.675Z" fill="#FF7666"/>
<path d="M441.278 406.768V330.009C430.093 330.008 419.366 325.564 411.458 317.654C403.549 309.745 399.106 299.018 399.106 287.833H110.512C110.512 299.018 106.069 309.745 98.1606 317.654C90.2519 325.564 79.5253 330.008 68.3403 330.009V406.768C79.5217 406.768 90.2454 411.209 98.1536 419.113C106.062 427.018 110.507 437.74 110.512 448.921H399.102C399.107 437.739 403.553 427.017 411.462 419.112C419.371 411.207 430.096 406.767 441.278 406.768Z" fill="white" fill-opacity="0.18"/>
<path d="M254.811 430.31C289.016 430.31 316.744 402.581 316.744 368.377C316.744 334.172 289.016 306.444 254.811 306.444C220.606 306.444 192.878 334.172 192.878 368.377C192.878 402.581 220.606 430.31 254.811 430.31Z" fill="#FF7666"/>
<path d="M176.848 377.274H112.991V378.929H176.848V377.274Z" fill="black"/>
<path d="M396.631 377.274H332.774V378.929H396.631V377.274Z" fill="#34495E"/>
<path d="M461.263 468.906H144.921V467.251H459.612V269.503H273.969V267.848H461.263V468.906Z" fill="black"/>
<path d="M50.014 316.989H48.359V267.848H171.895V269.503H50.014V316.989Z" fill="black"/>
<path d="M480.231 487.874H266.058V486.602H478.959V363.757H480.231V487.874Z" fill="#34495E"/>
<path d="M49.7141 159.567C49.7141 159.567 78.6232 155.529 98.8285 170.45C119.034 185.371 125.248 214.277 125.248 214.277L129.601 209.304C129.601 209.304 154.468 168.389 168.767 165.272C168.767 165.272 159.133 156.143 141.725 165.155C141.725 165.155 151.052 121.639 143.278 97.0802C143.278 97.0802 135.196 116.059 130.846 133.448C128.144 144.576 126.375 155.911 125.559 167.334C125.559 167.334 110.019 113.243 141.122 26.208C141.122 26.208 93.6737 61.3271 101.77 143.393C101.751 143.401 73.0282 126.931 49.7141 159.567Z" fill="#FF7666"/>
<path d="M93.3928 196.558H161.156L150.277 268.675H106.135L93.3928 196.558Z" fill="#FF7666"/>
<path d="M125.559 167.341C125.559 167.341 110.019 113.251 141.122 26.2158C141.122 26.2158 93.6738 61.335 101.77 143.401C101.751 143.401 119.766 152.727 125.559 167.341Z" fill="#604FB2"/>
<g style="mix-blend-mode:multiply">
<g style="mix-blend-mode:multiply">
<path d="M131.826 196.562H130.873C130.873 196.501 130.873 190.489 127.335 182.734C124.075 175.594 117.06 165.489 102.142 157.898C87.2246 150.306 73.8519 151.27 65.2581 153.415C55.9279 155.738 50.0519 159.917 49.9912 159.959L49.4332 159.2C49.494 159.158 55.4876 154.884 64.9962 152.511C73.7608 150.321 87.3917 149.33 102.575 157.066C117.758 164.802 124.902 175.108 128.22 182.404C131.83 190.303 131.83 196.312 131.826 196.562Z" fill="#46637F"/>
</g>
</g>
<path d="M152.802 251.127H133.648V252.782H152.802V251.127Z" fill="#34495E"/>
<path d="M153.416 247.031H141.103V248.686H153.416V247.031Z" fill="#34495E"/>
<path d="M449.572 523.16L446.156 527.187L449.572 533.408H516.906C516.906 533.408 514.466 528.77 500.683 527.187L471.284 523.16H449.572Z" fill="#1A242E"/>
<path d="M328.572 525.111L340.529 527.187L339.549 533.409H272.887C272.887 533.409 278.201 527.187 290.268 527.187C290.268 527.187 305.638 519.975 306.613 519.975H322.7L328.572 525.111Z" fill="#1A242E"/>
<path d="M355.04 365.564H360.165L446.163 527.187H500.683C500.683 527.187 411.363 364.046 373.143 325.954L350.531 324.337H337.481L330.891 325.954L326.625 327.708C326.625 327.708 296.493 446.313 290.272 527.187H340.54L355.04 365.564Z" fill="#604FB2"/>
<g style="mix-blend-mode:multiply">
<g style="mix-blend-mode:multiply">
<path d="M340.54 527.187L355.052 365.564L337.302 366.6C337.302 366.6 338.821 379.4 341.273 410.112C343.725 440.824 333.825 527.187 333.825 527.187H340.54Z" fill="#A999F9"/>
</g>
</g>
<g style="mix-blend-mode:multiply">
<g style="mix-blend-mode:multiply">
<path d="M390.266 346.414C385.665 340.258 381.349 334.875 377.44 330.502L354.315 328.779L342.973 327.693L336.57 327.238C336.57 327.238 350.656 344.57 383.957 356.644C386.419 353.469 388.534 350.04 390.266 346.414Z" fill="#22303D"/>
</g>
</g>
<g style="mix-blend-mode:multiply">
<g style="mix-blend-mode:multiply">
<path d="M359.907 335.303L359.396 335.657L492.024 527.268L492.536 526.914L359.907 335.303Z" fill="#638CB5"/>
</g>
</g>
<g style="mix-blend-mode:multiply">
<g style="mix-blend-mode:multiply">
<path d="M298.687 527.233L298.072 527.138C307.501 467.676 333.252 328.718 333.51 327.321L334.121 327.435C333.863 328.832 308.112 467.782 298.687 527.233Z" fill="#638CB5"/>
</g>
</g>
<path d="M350.527 255.542C350.527 255.542 334.915 257.493 328.082 260.905C321.25 264.317 256.652 317.63 256.652 317.63L263.105 327.928C285.686 324.983 305.201 319.091 320.449 309.097L336.391 292.623C336.391 292.623 347.859 280.423 348.101 278.578C348.344 276.734 350.527 255.542 350.527 255.542Z" fill="#FBE4E1"/>
<path d="M310.344 302.325C310.28 306.083 311.441 309.742 313.202 313.356C315.708 312.024 318.137 310.612 320.441 309.097L322.388 307.085C320.285 305.491 317.833 303.999 317.833 303.999L310.344 302.325Z" fill="#FBC6BF"/>
<path d="M327 282.374L324.844 304.827L363.41 325.26C363.41 325.26 383.627 314.912 383.627 311.151C383.627 307.389 381.611 271.256 381.611 271.256L368.986 257.804L356.991 254.57L336.851 266.777L326.981 279.004L327 282.374Z" fill="#FBE4E1"/>
<path d="M358.062 228.025L366.139 247.122C366.139 247.122 361.383 257.018 350.007 258.555L347.817 242.613L355.834 234.057L358.062 228.025Z" fill="#FAD7D7"/>
<path d="M359.69 231.639L358.062 228.025L355.834 234.061L347.817 242.598L349.54 255.124C358.248 250.041 359.561 236.885 359.69 231.639Z" fill="#FAA5A5"/>
<path d="M334.554 213.18C334.554 213.18 331.916 243.084 344.556 246.128C357.196 249.172 357.933 232.725 359.519 224.568C359.519 224.568 359.519 213.503 359.292 213.066C359.064 212.63 352.687 207.543 352.687 207.543L342.415 205.312C342.415 205.312 338.035 207.832 337.029 208.265C336.023 208.697 333.1 210.425 333.1 210.425L334.554 213.18Z" fill="#FAD7D7"/>
<path d="M343.053 240.89C341.649 240.89 341.049 239.273 341.022 239.204L341.607 238.992C341.607 238.992 342.089 240.267 343.061 240.271C344.15 240.271 346.561 238.719 350.466 228.356L351.051 228.576C347.957 236.76 345.27 240.89 343.053 240.89Z" fill="#FAA5A5"/>
<path d="M356.862 224.75C356.862 224.75 356.198 233.92 360.165 236.137C364.131 238.354 370.451 234.998 368.679 228.166C366.906 221.333 365.012 221.212 365.012 221.212C365.012 221.212 372.156 212.239 370.489 206.313C370.15 205.005 369.553 203.778 368.733 202.704C367.913 201.629 366.886 200.73 365.714 200.058C364.541 199.386 363.246 198.955 361.905 198.791C360.563 198.627 359.202 198.732 357.902 199.101C352.816 200.585 352.444 194.402 348.101 194.125C343.759 193.848 341.353 200.137 339.637 198.376C337.921 196.615 340.654 192.887 336.11 193.202C331.567 193.517 324.503 203.933 324.848 212.512C325.194 221.09 331.13 223.52 331.13 223.52L332.626 223.076L334.547 213.176C334.547 213.176 335.272 215.86 339.189 215.028C343.106 214.197 345.748 208.272 345.748 208.272C345.748 208.272 345.141 215.264 350.451 215.753C355.762 216.243 358.043 213.943 358.043 213.943L359.975 220.24L357.485 223.584L356.862 224.75Z" fill="#8F142C"/>
<path d="M341.375 225.114C340.967 225.128 340.571 224.981 340.271 224.704C339.371 223.862 339.675 222.013 339.69 221.933L340.301 222.04C340.229 222.48 340.153 223.74 340.681 224.253C340.846 224.379 341.042 224.462 341.248 224.493C341.455 224.523 341.666 224.501 341.861 224.427C344.211 223.862 346.374 219.428 346.397 219.386L346.955 219.656C346.864 219.849 344.643 224.397 342.02 225.031C341.809 225.084 341.593 225.113 341.375 225.114Z" fill="#4D000D"/>
<path d="M340.779 229.711C339.333 229.711 337.841 227.171 337.23 223.668C336.585 219.974 337.23 216.991 338.726 216.729C340.221 216.467 341.842 219.082 342.484 222.753C342.775 224.269 342.802 225.824 342.563 227.35C342.305 228.728 341.744 229.559 340.988 229.692C340.919 229.704 340.849 229.71 340.779 229.711ZM338.935 217.333H338.832C337.879 217.5 337.238 220.096 337.841 223.554C338.445 227.012 339.91 229.225 340.878 229.073C341.345 228.99 341.747 228.314 341.949 227.224C342.174 225.773 342.147 224.294 341.869 222.852C341.299 219.553 339.887 217.333 338.935 217.333Z" fill="white"/>
<path d="M332.448 230.948C331.001 230.948 329.51 228.409 328.898 224.909C328.607 223.393 328.58 221.838 328.819 220.312C329.077 218.934 329.639 218.099 330.394 217.97C331.89 217.701 333.51 220.32 334.152 223.99C334.443 225.507 334.47 227.062 334.232 228.587C333.973 229.969 333.412 230.8 332.656 230.933C332.587 230.944 332.517 230.949 332.448 230.948ZM330.603 218.574C330.569 218.57 330.534 218.57 330.5 218.574C330.033 218.657 329.631 219.333 329.426 220.419C329.202 221.871 329.23 223.352 329.51 224.795C330.109 228.211 331.578 230.466 332.546 230.311C333.017 230.231 333.416 229.551 333.62 228.466C333.844 227.014 333.816 225.535 333.537 224.093C332.949 220.794 331.556 218.574 330.603 218.574Z" fill="white"/>
<path d="M356.77 214.428L341.907 221.776L342.183 222.334L357.046 214.986L356.77 214.428Z" fill="white"/>
<path d="M355.944 215.56C356.726 214.076 359.702 207.589 362.085 212.554C364.469 217.519 360.833 228.743 356.08 226.029C351.328 223.315 354.721 221.641 354.85 221.095C354.98 220.548 355.257 218.058 355.359 217.735C355.462 217.413 355.944 215.56 355.944 215.56Z" fill="#FAD7D7"/>
<path d="M357.075 222.29C357.052 221.979 356.566 214.619 360.681 212.599L360.954 213.157C357.215 214.994 357.69 222.172 357.694 222.244L357.075 222.29Z" fill="#FAA5A5"/>
<path d="M360.796 215.463L357.573 217.677L357.926 218.19L361.148 215.976L360.796 215.463Z" fill="#FAA5A5"/>
<path d="M334.554 213.18C334.554 213.18 328.01 226.162 331.601 239.77C331.601 239.77 340.176 233.07 339.496 230.99C338.817 228.91 335.082 230.501 335.082 230.501C334.251 225.297 334.194 219.421 334.554 213.18Z" fill="#FAA5A5"/>
<path d="M334.273 195.279C331.696 196.722 330.447 208.614 335.792 207.999C341.136 207.384 338.38 192.983 334.273 195.279Z" fill="#B81A39"/>
<path d="M324.301 310.187L321.739 313.113C321.739 313.113 323.447 321.806 326.621 327.708L345.892 326.828L329.058 311.151L324.301 310.187Z" fill="#FBE4E1"/>
<path d="M239.559 321.438H297.252L282.919 277.523H222.357L239.559 321.438Z" fill="#22303D"/>
<path d="M285.648 288.19C285.648 288.19 294.189 287.81 301.747 285.415C305.231 290.855 310.15 295.227 315.962 298.048L314.698 303.999C311.534 303.042 308.531 301.619 305.785 299.779C305.785 299.779 298.782 303.244 298.38 298.606C298.38 298.606 292.428 298.34 296.019 294.973C296.019 294.973 290.397 293.808 294.918 290.866C294.918 290.866 288.074 291.705 285.648 288.19Z" fill="#FAD7D7"/>
<path d="M300.981 297.302L298.283 298.387L298.515 298.964L301.213 297.88L300.981 297.302Z" fill="#FAA5A5"/>
<path d="M298.82 293.913L295.945 294.557L296.081 295.164L298.956 294.52L298.82 293.913Z" fill="#FAA5A5"/>
<path d="M297.196 290.036L294.861 290.453L294.97 291.066L297.306 290.649L297.196 290.036Z" fill="#FAA5A5"/>
<path d="M371.264 251.138C371.264 251.138 384.929 248.941 393.219 252.6C393.219 252.6 418.833 289.173 385.9 347.245C385.9 347.245 333.032 339.153 310.344 302.314L314.664 297.125C314.664 297.125 352.243 301.881 365.908 308.957L369.567 272.604L366.151 256.992L371.264 251.138Z" fill="#FBE4E1"/>
<g style="mix-blend-mode:multiply">
<g style="mix-blend-mode:multiply">
<path d="M389.127 256.122C384.693 262.772 367.707 289.362 365.908 308.968C365.908 308.968 355.355 298.894 327.319 297.277L330.356 268.47C330.356 268.47 325.391 280.617 323.747 297.125C320.889 297.037 317.879 297.03 314.679 297.125L366.276 310.175C366.276 310.175 381.281 268.576 389.127 256.122Z" fill="#FBC6BF"/>
</g>
</g>
<g style="mix-blend-mode:multiply">
<g style="mix-blend-mode:multiply">
<path d="M389.127 256.122C389.795 255.116 390.182 254.562 390.182 254.562C389.837 255.014 389.484 255.538 389.127 256.122Z" fill="#E1E8FF"/>
</g>
</g>
<path d="M381.266 320.189C381.266 320.189 377.117 310.798 365.775 311.162C365.775 311.162 362.602 318.374 369.191 324.338C369.795 320.27 369.061 316.117 367.1 312.502C367.1 312.502 370.41 318.97 381.266 320.189Z" fill="#FBC6BF"/>
<path d="M263.105 327.929C263.105 327.929 261.207 319.532 265.382 314.973C265.382 314.973 260.619 315.201 258.743 319.95C258.743 319.95 251.752 311.295 245.663 310.396C245.663 310.396 242.676 317.228 245.936 322.922C254.082 337.213 263.105 327.929 263.105 327.929Z" fill="#FAD7D7"/>
<path d="M252.985 320.173C249.125 317.399 245.014 312.062 244.991 312.008L245.485 311.629C245.523 311.678 249.561 316.943 253.35 319.665L252.985 320.173Z" fill="#FAA5A5"/>
<path d="M251.972 323.354C248.802 321.266 244.634 315.762 244.456 315.531L244.953 315.151C244.995 315.205 249.235 320.8 252.313 322.827L251.972 323.354Z" fill="#FAA5A5"/>
<path d="M251.486 327.177C247.982 324.873 244.707 319.46 244.57 319.232L245.105 318.91C245.136 318.967 248.442 324.433 251.828 326.657L251.486 327.177Z" fill="#FAA5A5"/>
<path d="M355.344 294.688L354.725 294.616C354.752 294.4 357.234 272.98 356.555 256.381L357.177 256.354C357.861 272.991 355.374 294.472 355.344 294.688Z" fill="white"/>
<g style="mix-blend-mode:multiply">
<g style="mix-blend-mode:multiply">
<path d="M347.798 257.257L340.821 257.147L352.66 273.845L356.87 262.169L366.811 273.356L377.117 250.493L360.024 255.344H355.705L351.89 257.132L347.798 257.257Z" fill="#FBC6BF"/>
</g>
</g>
<path d="M340.821 257.147L348.819 250.493L356.991 254.562L366.139 247.123L377.117 250.493L365.012 267.491L356.87 256.365L352.417 268.467L340.821 257.147Z" fill="#FBE4E1"/>
<path d="M361.417 279.402C361.054 279.402 360.699 279.295 360.397 279.093C360.094 278.891 359.859 278.604 359.72 278.268C359.581 277.933 359.544 277.563 359.615 277.207C359.686 276.85 359.861 276.523 360.118 276.266C360.375 276.009 360.702 275.834 361.059 275.763C361.415 275.692 361.785 275.729 362.12 275.868C362.456 276.007 362.743 276.242 362.945 276.545C363.147 276.847 363.255 277.202 363.255 277.565C363.255 278.052 363.061 278.52 362.716 278.864C362.372 279.209 361.905 279.402 361.417 279.402ZM361.417 276.366C361.177 276.366 360.942 276.437 360.742 276.57C360.543 276.704 360.387 276.894 360.295 277.116C360.203 277.338 360.179 277.582 360.226 277.817C360.273 278.053 360.389 278.269 360.558 278.439C360.728 278.609 360.945 278.725 361.18 278.772C361.416 278.819 361.66 278.795 361.882 278.703C362.104 278.611 362.294 278.455 362.427 278.255C362.561 278.055 362.632 277.821 362.632 277.58C362.634 277.42 362.604 277.26 362.544 277.111C362.484 276.962 362.395 276.826 362.282 276.712C362.169 276.597 362.034 276.506 361.886 276.444C361.737 276.382 361.578 276.351 361.417 276.351V276.366Z" fill="white"/>
<path d="M360.495 288.774C360.132 288.774 359.776 288.666 359.474 288.464C359.172 288.262 358.937 287.976 358.798 287.64C358.659 287.304 358.622 286.935 358.693 286.578C358.764 286.222 358.939 285.895 359.196 285.638C359.453 285.381 359.78 285.206 360.136 285.135C360.493 285.064 360.862 285.1 361.198 285.239C361.534 285.379 361.821 285.614 362.022 285.916C362.224 286.218 362.332 286.573 362.332 286.937C362.332 287.424 362.139 287.891 361.794 288.236C361.449 288.58 360.982 288.774 360.495 288.774ZM360.495 285.737C360.255 285.737 360.02 285.809 359.82 285.942C359.62 286.075 359.465 286.265 359.373 286.487C359.281 286.709 359.257 286.953 359.304 287.189C359.35 287.425 359.466 287.641 359.636 287.811C359.806 287.981 360.022 288.096 360.258 288.143C360.494 288.19 360.738 288.166 360.96 288.074C361.182 287.982 361.371 287.827 361.505 287.627C361.638 287.427 361.71 287.192 361.71 286.952C361.711 286.791 361.681 286.632 361.62 286.483C361.56 286.334 361.471 286.199 361.358 286.084C361.245 285.97 361.111 285.879 360.963 285.817C360.815 285.755 360.656 285.723 360.495 285.722V285.737Z" fill="white"/>
<path d="M494.629 530.953L494.249 530.455C494.37 530.361 497.711 528.144 498.379 527.7L498.724 528.216C497.145 529.267 494.746 530.865 494.629 530.953Z" fill="white"/>
<path d="M499.081 531.272L498.702 530.771C498.823 530.679 502.163 528.463 502.831 528.019L503.173 528.535C501.602 529.598 499.207 531.196 499.081 531.272Z" fill="white"/>
<path d="M292.014 530.79C291.896 530.702 289.498 529.108 287.911 528.053L288.252 527.537C288.924 527.981 292.265 530.194 292.386 530.292L292.014 530.79Z" fill="white"/>
<path d="M287.558 531.116C287.44 531.029 285.041 529.43 283.455 528.379L283.8 527.863C284.468 528.307 287.808 530.52 287.93 530.619L287.558 531.116Z" fill="white"/>
<path d="M291.411 317.744H320.502L321.739 321.437H297.252H291.897L291.411 317.744Z" fill="#34495E"/>
<path d="M279.579 277.565L291.897 321.438L296.083 317.744L282.919 277.523L279.579 277.565Z" fill="#34495E"/>
<path d="M262.866 298.7C261.78 294.988 259.138 292.498 256.971 293.132C254.803 293.766 253.934 297.307 255.008 300.997C256.083 304.686 258.732 307.199 260.903 306.565C263.074 305.931 263.951 302.409 262.866 298.7Z" fill="white"/>
<path d="M337.493 223.332L329.161 224.567L329.252 225.183L337.584 223.948L337.493 223.332Z" fill="white"/>
<path d="M532.872 532.577H230.476V534.232H532.872V532.577Z" fill="black"/>
<path d="M481.537 543.149H415.789V544.804H481.537V543.149Z" fill="black"/>
<path d="M258.083 14.5626C258.027 19.1176 256.751 22.6427 254.253 25.1378C251.755 27.6329 248.562 28.8501 244.672 28.7894C240.783 28.7413 237.629 27.4431 235.209 24.8949C232.79 22.3466 231.61 18.7912 231.668 14.2286C231.721 9.9266 232.965 6.46606 235.399 3.84693C237.834 1.2278 241.06 -0.0539342 245.079 0.00173811C249.044 0.0523493 252.217 1.41506 254.599 4.08986C256.98 6.76466 258.141 10.2556 258.083 14.5626ZM285.91 1.65673L239.339 56.4649L233.972 56.4117L280.425 1.59599L285.91 1.65673ZM251.509 14.4867C251.549 11.116 251.027 8.34753 249.941 6.18137C248.855 4.01521 247.222 2.91821 245.041 2.89037C242.814 2.86001 241.133 3.91525 240 6.0561C238.866 8.19696 238.28 10.9515 238.242 14.3197C238.197 17.7713 238.719 20.555 239.81 22.6705C240.901 24.7861 242.534 25.8628 244.71 25.9008C246.889 25.9311 248.556 24.8961 249.709 22.7958C250.863 20.6954 251.463 17.9232 251.509 14.4791V14.4867ZM287.949 43.9386C287.893 48.4936 286.616 52.0174 284.119 54.51C281.621 57.0026 278.425 58.2186 274.531 58.1578C270.644 58.1072 267.489 56.809 265.067 54.2633C262.646 51.7176 261.465 48.1609 261.526 43.5932C261.582 39.2912 262.825 35.832 265.257 33.2154C267.689 30.5988 270.916 29.317 274.937 29.3702C278.902 29.4182 282.075 30.781 284.457 33.4583C286.838 36.1356 287.999 39.6265 287.941 43.931L287.949 43.9386ZM281.374 43.8551C281.415 40.4844 280.892 37.7147 279.807 35.546C278.721 33.3773 277.088 32.2803 274.906 32.255C272.677 32.2272 270.998 33.2824 269.869 35.4207C268.741 37.5591 268.153 40.3136 268.108 43.6843C268.067 47.136 268.59 49.9196 269.676 52.0351C270.761 54.1507 272.392 55.23 274.568 55.273C276.747 55.3034 278.414 54.2671 279.568 52.1642C280.722 50.0613 281.321 47.2891 281.367 43.8475L281.374 43.8551Z" fill="#FF7666" fill-opacity="0.23"/>
<path d="M524.79 242.29L519.541 226.978L535.43 230.087L524.79 242.29Z" fill="#FBC6BF"/>
<path d="M356.479 74.5635L367.688 86.2395L351.969 90.1112L356.479 74.5635Z" fill="#FF7666" fill-opacity="0.27"/>
<path d="M24.5174 111.66L22.088 95.6533L37.1651 101.556L24.5174 111.66Z" fill="#FBC6BF"/>
<path d="M2.09155 507.703L18.2277 506.394L11.2927 521.023L2.09155 507.703Z" fill="#FF7666"/>
<path d="M279.754 350.165V342.763H239.138V350.165H252.061C256.869 350.165 260.926 353.266 262.455 357.566H239.138V364.968H262.455C261.697 367.127 260.291 368.997 258.43 370.323C256.569 371.648 254.344 372.363 252.061 372.37H239.138V381.304L259.763 401.978H270.205L248.051 379.772H252.061C256.315 379.766 260.436 378.291 263.73 375.594C267.025 372.897 269.291 369.145 270.146 364.968H279.754V357.566H270.146C269.58 354.873 268.414 352.343 266.734 350.165H279.754Z" fill="white"/>
<path d="M444 109.125V104H416V109.125H424.909C428.223 109.125 431.021 111.272 432.075 114.25H416V119.375H432.075C431.552 120.87 430.583 122.165 429.3 123.082C428.017 124 426.483 124.495 424.909 124.5H416V130.686L430.219 145H437.417L422.145 129.625H424.909C427.841 129.621 430.683 128.599 432.954 126.732C435.225 124.865 436.787 122.267 437.377 119.375H444V114.25H437.377C436.987 112.385 436.182 110.633 435.025 109.125H444Z" fill="#EBCBC7"/>
</svg>
