<svg width="718" height="559" viewBox="0 0 718 559" fill="none" xmlns="http://www.w3.org/2000/svg">
<path opacity="0.4" d="M693.164 395.456C706.881 381.988 706.881 360.152 693.164 346.684C679.448 333.216 657.21 333.216 643.494 346.684C629.778 360.152 629.778 381.988 643.494 395.456C657.21 408.924 679.448 408.924 693.164 395.456Z" fill="#E5E5FF"/>
<path opacity="0.4" d="M128.284 167.559C149.207 147.014 149.207 113.705 128.284 93.1599C107.36 72.6151 73.4371 72.6151 52.5138 93.1599C31.5906 113.705 31.5905 147.014 52.5138 167.559C73.437 188.104 107.36 188.104 128.284 167.559Z" fill="#E5E5FF"/>
<path opacity="0.4" d="M275.72 79.7835C291.146 79.7835 303.652 67.5043 303.652 52.3571C303.652 37.2099 291.146 24.9307 275.72 24.9307C260.294 24.9307 247.788 37.2099 247.788 52.3571C247.788 67.5043 260.294 79.7835 275.72 79.7835Z" fill="#E5E5FF"/>
<path d="M235.737 65.9179C234 65.9102 232.267 65.7705 230.552 65.4999L230.718 64.4674C232.378 64.7227 234.056 64.8513 235.737 64.8519H235.933V65.897L235.737 65.9179ZM241.323 65.4539L241.144 64.4255C242.865 64.1402 244.561 63.7209 246.214 63.1715L246.55 64.1413C244.847 64.7165 243.098 65.1554 241.323 65.4539ZM225.303 64.2793C223.589 63.729 221.923 63.044 220.322 62.2309L220.807 61.3029C222.359 62.0966 223.973 62.7662 225.635 63.3052L225.303 64.2793ZM251.514 62.0512L251.016 61.1273C252.558 60.323 254.031 59.399 255.423 58.3642L256.065 59.2003C254.628 60.2682 253.106 61.2215 251.514 62.0512ZM215.754 59.4385C214.303 58.3865 212.942 57.2206 211.684 55.9522L212.446 55.2249C213.665 56.4501 214.982 57.5781 216.384 58.5983L215.754 59.4385ZM260.106 55.6763L259.322 54.9448C260.524 53.7014 261.621 52.3649 262.605 50.9485L263.481 51.5379C262.465 52.9975 261.33 54.3745 260.088 55.6555L260.106 55.6763ZM208.235 51.864C207.202 50.4142 206.289 48.8848 205.506 47.2908L206.464 46.8352C207.216 48.3788 208.093 49.8606 209.087 51.2662L208.235 51.864ZM266.155 46.9188L265.189 46.4757C265.931 44.9244 266.545 43.3167 267.024 41.6684L268.045 41.9527C267.552 43.6554 266.92 45.3161 266.155 46.9188ZM203.552 42.3456C203.033 40.6508 202.656 38.9173 202.424 37.1622L203.476 37.0242C203.705 38.7221 204.071 40.3994 204.57 42.0405L203.552 42.3456ZM269.114 36.7525L268.058 36.6313C268.204 35.3963 268.278 34.1541 268.279 32.9109C268.279 32.4427 268.279 31.9661 268.245 31.4979L269.31 31.452C269.31 31.9369 269.344 32.426 269.344 32.9109C269.344 34.1947 269.267 35.4775 269.114 36.7525ZM203.212 31.8951L202.147 31.8616C202.205 30.0913 202.409 28.3285 202.756 26.5904L203.804 26.791C203.465 28.4738 203.266 30.1807 203.208 31.8951H203.212ZM267.59 26.4064C267.232 24.7275 266.738 23.0794 266.112 21.478L267.104 21.1059C267.752 22.7574 268.263 24.4573 268.633 26.1891L267.59 26.4064ZM205.213 21.85L204.216 21.4863C204.842 19.8261 205.601 18.2172 206.486 16.6749L207.414 17.1891C206.555 18.6828 205.819 20.2414 205.213 21.85ZM266.01 21.2355C265.372 19.6456 264.606 18.108 263.72 16.6373L264.635 16.1022C265.551 17.6267 266.343 19.2202 267.002 20.8676L266.01 21.2355ZM210.364 12.9378L209.512 12.2815C210.638 10.9001 211.876 9.60987 213.212 8.42314L213.927 9.20067C212.638 10.3489 211.446 11.5988 210.364 12.9378ZM260.723 12.4278C259.604 11.1118 258.378 9.88713 257.057 8.76592L257.756 7.97587C259.116 9.12973 260.382 10.3877 261.54 11.7381L260.723 12.4278ZM218.078 6.07804L217.499 5.20019C219.014 4.24006 220.606 3.4013 222.259 2.69206L222.684 3.64934C221.085 4.33646 219.545 5.14864 218.078 6.07804ZM252.817 5.73108C251.329 4.83349 249.772 4.05216 248.16 3.39434L248.585 2.42871C250.251 3.10827 251.859 3.91473 253.396 4.8407L252.817 5.73108ZM227.631 1.96888L227.367 0.957274C229.113 0.514199 230.893 0.209461 232.689 0.0459891L232.783 1.08686C231.044 1.24606 229.321 1.54384 227.631 1.97725V1.96888ZM243.183 1.81004C241.491 1.42101 239.77 1.1652 238.036 1.04505L238.108 0C239.908 0.127461 241.695 0.395854 243.451 0.802608L243.183 1.81004Z" fill="#9192FF"/>
<path d="M571.035 431.14V430.095C572.798 430.066 574.578 429.995 576.323 429.886L576.391 430.931C574.612 431.04 572.815 431.111 571.035 431.14ZM565.693 431.111C563.917 431.061 562.121 430.969 560.354 430.839L560.435 429.798C562.185 429.924 563.964 430.016 565.722 430.066L565.693 431.111ZM581.7 430.471L581.581 429.434C583.33 429.242 585.093 429.016 586.83 428.736L586.996 429.769C585.246 430.045 583.462 430.279 581.7 430.471ZM555.037 430.321C553.279 430.107 551.499 429.853 549.749 429.556L549.928 428.527C551.665 428.82 553.428 429.075 555.165 429.284L555.037 430.321ZM592.254 428.824L592.036 427.8C593.739 427.449 595.498 427.052 597.192 426.625L597.456 427.637C595.745 428.068 593.995 428.469 592.237 428.824H592.254ZM544.504 428.552C542.772 428.176 541.022 427.754 539.311 427.298L539.592 426.287C541.294 426.738 542.997 427.156 544.73 427.541L544.504 428.552ZM602.599 426.203L602.288 425.208C603.965 424.698 605.655 424.142 607.307 423.536L607.669 424.523C606 425.129 604.297 425.689 602.599 426.203ZM534.189 425.81C532.486 425.279 530.783 424.694 529.127 424.08L529.502 423.101C531.158 423.712 532.844 424.289 534.513 424.815L534.189 425.81ZM612.637 422.642L612.212 421.676C613.825 421.016 615.447 420.309 617.039 419.586L617.495 420.531C615.907 421.258 614.264 421.969 612.637 422.642ZM524.159 422.115C522.524 421.425 520.89 420.685 519.293 419.92L519.761 418.984C521.341 419.741 522.963 420.472 524.581 421.154L524.159 422.115ZM622.28 418.165L621.778 417.241C623.327 416.434 624.877 415.569 626.388 414.695L626.929 415.594C625.405 416.484 623.842 417.37 622.28 418.165ZM514.538 417.504C512.984 416.668 511.43 415.782 509.91 414.871L510.464 413.98C511.966 414.883 513.512 415.761 515.053 416.589L514.538 417.504ZM631.454 412.814L630.867 411.94C632.34 410.987 633.8 409.992 635.213 408.981L635.843 409.817C634.413 410.849 632.94 411.852 631.454 412.814ZM505.41 412.028C503.946 411.054 502.481 410.03 501.055 408.981L501.694 408.145C503.103 409.181 504.554 410.197 506.006 411.163L505.41 412.028ZM640.084 406.636L639.419 405.8C640.786 404.721 642.148 403.597 643.464 402.455L644.171 403.241C642.842 404.412 641.467 405.549 640.084 406.636ZM496.849 405.737C495.478 404.629 494.116 403.471 492.804 402.305L493.52 401.532C494.818 402.689 496.168 403.831 497.526 404.93L496.849 405.737ZM648.091 399.692L647.351 398.944C648.628 397.74 649.863 396.494 651.063 395.236L651.838 395.951C650.625 397.222 649.364 398.48 648.091 399.692ZM488.93 398.689C487.653 397.435 486.423 396.181 485.231 394.902L486.014 394.195C487.198 395.449 488.432 396.728 489.68 397.957L488.93 398.689ZM655.388 392.038L654.579 391.361C655.725 390.044 656.849 388.69 657.926 387.327L658.777 387.971C657.696 389.363 656.559 390.713 655.405 392.038H655.388ZM481.693 390.951C480.561 389.61 479.441 388.226 478.377 386.842L479.228 386.211C480.284 387.586 481.391 388.953 482.519 390.283L481.693 390.951ZM661.94 383.745L661.089 383.147C662.102 381.73 663.094 380.275 664.035 378.82L664.933 379.381C663.984 380.848 662.983 382.319 661.962 383.745H661.94ZM475.256 382.587C474.256 381.149 473.277 379.661 472.344 378.193L473.247 377.642C474.171 379.109 475.141 380.568 476.133 381.993L475.256 382.587ZM667.683 374.883L666.759 374.364C667.611 372.868 668.462 371.325 669.28 369.766L670.225 370.243C669.433 371.806 668.577 373.369 667.7 374.883H667.683ZM469.649 373.67C468.798 372.149 467.946 370.585 467.172 369.03L468.125 368.566C468.9 370.109 469.726 371.656 470.577 373.165L469.649 373.67ZM672.545 365.519L671.574 365.101C672.302 363.521 672.996 361.907 673.643 360.306L674.635 360.691C673.997 362.296 673.294 363.926 672.562 365.536L672.545 365.519ZM464.92 364.265C464.209 362.668 463.532 361.038 462.902 359.42L463.894 359.048C464.519 360.649 465.171 362.267 465.895 363.847L464.92 364.265ZM676.504 355.725L675.495 355.386C676.066 353.756 676.598 352.088 677.092 350.428L678.114 350.721C677.62 352.414 677.075 354.094 676.504 355.741V355.725ZM461.126 354.471C460.573 352.799 460.054 351.126 459.581 349.454L460.607 349.174C461.075 350.846 461.59 352.518 462.14 354.153L461.126 354.471ZM679.476 345.642L678.441 345.4C678.867 343.727 679.22 342.014 679.548 340.316L680.596 340.509C680.263 342.248 679.889 343.974 679.476 345.663V345.642ZM458.278 344.354C457.887 342.661 457.533 340.931 457.223 339.213L458.27 339.029C458.576 340.734 458.93 342.448 459.317 344.125L458.278 344.354ZM681.464 335.334L680.412 335.187C680.655 333.486 680.864 331.747 681.025 330.025L682.086 330.121C681.92 331.881 681.711 333.636 681.464 335.355V335.334ZM456.431 334.046C456.205 332.324 456.005 330.568 455.873 328.825L456.933 328.741C457.078 330.468 457.265 332.207 457.486 333.912L456.431 334.046ZM682.49 324.908L681.43 324.858C681.511 323.14 681.549 321.393 681.549 319.662H682.613C682.579 321.409 682.541 323.173 682.456 324.908H682.49ZM455.579 323.587C455.532 322.291 455.507 320.97 455.507 319.662C455.507 319.219 455.507 318.78 455.507 318.341H456.571C456.571 318.759 456.571 319.21 456.571 319.649C456.571 320.945 456.597 322.254 456.639 323.541L455.579 323.587ZM681.515 317.091C681.477 315.365 681.396 313.617 681.272 311.899L682.337 311.828C682.456 313.563 682.541 315.327 682.579 317.07L681.515 317.091ZM456.763 313.158L455.703 313.095C455.805 311.352 455.95 309.592 456.128 307.865L457.188 307.974C456.98 309.688 456.856 311.427 456.733 313.158H456.763ZM680.783 306.724C680.578 305.015 680.332 303.28 680.046 301.578L681.098 301.407C681.383 303.129 681.634 304.877 681.839 306.603L680.783 306.724ZM457.874 302.82L456.818 302.661C457.086 300.939 457.401 299.2 457.75 297.494L458.798 297.703C458.419 299.392 458.108 301.114 457.844 302.832L457.874 302.82ZM679.063 296.47C678.697 294.798 678.284 293.084 677.833 291.412L678.863 291.145C679.314 292.817 679.714 294.551 680.102 296.249L679.063 296.47ZM459.964 292.633L458.934 292.378C459.36 290.706 459.845 288.983 460.36 287.32L461.378 287.621C460.841 289.272 460.364 290.956 459.934 292.633H459.964ZM676.364 286.417C675.832 284.77 675.257 283.118 674.661 281.497L675.657 281.137C676.27 282.772 676.853 284.444 677.386 286.103L676.364 286.417ZM463.038 282.654L462.033 282.303C462.629 280.656 463.272 279.005 463.945 277.392L464.932 277.81C464.234 279.423 463.596 281.041 463.008 282.671L463.038 282.654ZM672.698 276.677C672.017 275.092 671.285 273.504 670.527 271.949L671.485 271.493C672.251 273.065 672.992 274.67 673.678 276.267L672.698 276.677ZM467.044 273.032L466.082 272.589C466.831 271.013 467.631 269.428 468.457 267.882L469.398 268.367C468.564 269.901 467.772 271.481 467.027 273.032H467.044ZM668.126 267.321C667.275 265.808 666.423 264.291 665.508 262.811L666.423 262.272C667.338 263.768 668.228 265.298 669.063 266.828L668.126 267.321ZM471.978 263.818L471.059 263.288C471.957 261.787 472.906 260.282 473.877 258.819L474.767 259.392C473.787 260.838 472.851 262.33 471.961 263.818H471.978ZM662.677 258.426C661.706 256.992 660.68 255.562 659.637 254.175L660.489 253.556C661.54 254.956 662.57 256.399 663.554 257.845L662.677 258.426ZM477.764 255.082L476.912 254.467C477.947 253.059 479.041 251.65 480.139 250.287L480.991 250.939C479.845 252.31 478.777 253.702 477.747 255.103L477.764 255.082ZM656.397 250.066C655.29 248.728 654.137 247.399 652.966 246.111L653.762 245.413C654.941 246.713 656.108 248.055 657.228 249.409L656.397 250.066ZM484.358 246.964L483.558 246.274C484.729 244.961 485.942 243.661 487.172 242.407L487.938 243.131C486.704 244.372 485.499 245.664 484.341 246.964H484.358ZM649.347 242.315C648.117 241.061 646.84 239.862 645.554 238.691L646.278 237.926C647.555 239.105 648.862 240.338 650.109 241.584L649.347 242.315ZM491.698 239.469L490.965 238.708C492.243 237.512 493.588 236.325 494.929 235.188L495.623 235.982C494.278 237.107 492.958 238.281 491.681 239.469H491.698ZM641.586 235.242C640.25 234.131 638.862 233.035 637.461 231.982L638.108 231.146C639.522 232.212 640.922 233.32 642.276 234.44L641.586 235.242ZM499.71 232.68L499.054 231.844C500.451 230.774 501.889 229.716 503.333 228.709L503.95 229.545C502.502 230.573 501.076 231.618 499.693 232.68H499.71ZM633.183 228.918C631.739 227.931 630.249 226.966 628.764 226.05L629.33 225.164C630.833 226.092 632.331 227.066 633.791 228.061L633.183 228.918ZM508.335 226.673L507.756 225.791C509.25 224.85 510.783 223.935 512.315 223.065L512.848 223.968C511.311 224.821 509.795 225.732 508.318 226.665L508.335 226.673ZM624.208 223.387C622.676 222.551 621.101 221.715 619.525 220.938L620.002 220.006C621.59 220.787 623.178 221.619 624.728 222.476L624.208 223.387ZM517.488 221.477L516.998 220.549C518.569 219.755 520.183 218.981 521.792 218.254L522.218 219.207C520.626 219.918 519.012 220.679 517.471 221.469L517.488 221.477ZM614.736 218.71C613.127 218.007 611.479 217.33 609.84 216.703L610.223 215.729C611.879 216.365 613.544 217.046 615.166 217.752L614.736 218.71ZM527.071 217.138L526.675 216.168C528.323 215.516 530.009 214.914 531.682 214.325L532.031 215.311C530.375 215.884 528.706 216.503 527.071 217.138ZM604.834 214.91C603.165 214.362 601.462 213.844 599.776 213.372L600.066 212.368C601.768 212.841 603.471 213.363 605.174 213.919L604.834 214.91ZM537.071 213.719L536.769 212.715C538.472 212.222 540.205 211.762 541.929 211.348L542.18 212.364C540.473 212.786 538.753 213.242 537.071 213.731V213.719ZM594.646 212.076C592.943 211.683 591.194 211.327 589.465 211.014L589.657 209.986C591.402 210.303 593.165 210.663 594.889 211.056L594.646 212.076ZM547.352 211.24L547.148 210.211C548.889 209.877 550.66 209.58 552.414 209.329L552.572 210.362C550.831 210.633 549.077 210.93 547.352 211.261V211.24ZM584.237 210.19C582.496 209.96 580.725 209.772 578.975 209.614L579.069 208.573C580.836 208.727 582.624 208.92 584.378 209.154L584.237 210.19ZM557.842 209.731L557.736 208.69C559.498 208.518 561.291 208.385 563.066 208.297L563.121 209.338C561.346 209.451 559.571 209.58 557.825 209.751L557.842 209.731ZM573.709 209.283C572.164 209.221 570.593 209.187 569.026 209.187H568.396V208.142H569.035C570.597 208.142 572.181 208.176 573.718 208.238L573.709 209.283Z" fill="#9192FF"/>
<path d="M108.35 308.893C106.567 308.893 104.766 308.81 102.999 308.676L103.08 307.635C104.821 307.765 106.596 307.836 108.359 307.848L108.35 308.893ZM113.706 308.735L113.638 307.694C115.388 307.581 117.154 307.405 118.891 307.175L119.036 308.208C117.274 308.446 115.481 308.622 113.723 308.735H113.706ZM97.6776 308.087C95.9151 307.832 94.1441 307.506 92.4114 307.125L92.6455 306.105C94.3484 306.481 96.0981 306.799 97.8351 307.054L97.6776 308.087ZM124.311 307.309L124.094 306.285C125.797 305.93 127.529 305.507 129.202 305.031L129.496 306.034C127.802 306.519 126.069 306.945 124.311 307.309ZM87.2303 305.796C85.5274 305.29 83.8245 304.717 82.1514 304.095L82.5303 303.12C84.1694 303.735 85.8552 304.295 87.5368 304.793L87.2303 305.796ZM134.584 304.4L134.217 303.417C135.856 302.824 137.5 302.163 139.096 301.457L139.522 302.41C137.934 303.129 136.286 303.798 134.584 304.4ZM77.196 302.042C75.5825 301.302 73.9775 300.5 72.4194 299.647L72.9388 298.731C74.4714 299.567 76.0551 300.366 77.6473 301.097L77.196 302.042ZM144.328 300.073L143.822 299.153C145.363 298.317 146.891 297.448 148.373 296.524L148.943 297.402C147.462 298.343 145.908 299.241 144.345 300.073H144.328ZM67.8343 296.921C66.3486 295.964 64.8756 294.94 63.4622 293.878L64.1093 293.042C65.5014 294.087 66.9531 295.099 68.4176 296.043L67.8343 296.921ZM153.349 294.413L152.715 293.577C154.124 292.553 155.508 291.462 156.836 290.337L157.53 291.132C156.202 292.269 154.797 293.376 153.367 294.417L153.349 294.413ZM59.3199 290.534C57.9873 289.38 56.6804 288.164 55.433 286.914L56.1908 286.182C57.4211 287.411 58.7111 288.615 60.0223 289.752L59.3199 290.534ZM161.464 287.553L160.715 286.813C161.958 285.597 163.171 284.305 164.325 283.026L165.125 283.716C163.959 285.033 162.741 286.324 161.481 287.558L161.464 287.553ZM51.8186 283.035C50.6649 281.701 49.5452 280.317 48.4937 278.909L49.3452 278.29C50.3797 279.678 51.4738 281.045 52.619 282.357L51.8186 283.035ZM168.501 279.628L167.65 279.001C168.705 277.625 169.723 276.192 170.676 274.749L171.57 275.314C170.625 276.785 169.591 278.236 168.518 279.632L168.501 279.628ZM45.4668 274.565C44.5175 273.086 43.6149 271.56 42.7762 270.022L43.7171 269.528C44.5387 271.046 45.42 272.551 46.3694 274.009L45.4668 274.565ZM174.312 270.803L173.38 270.297C174.231 268.788 175.023 267.229 175.755 265.662L176.722 266.1C176.011 267.685 175.198 269.269 174.342 270.803H174.312ZM40.456 265.302C39.7323 263.705 39.0597 262.067 38.4594 260.428L39.4599 260.073C40.0516 261.69 40.7157 263.304 41.4267 264.876L40.456 265.302ZM178.816 261.239L177.816 260.871C178.433 259.257 178.995 257.602 179.489 255.955L180.511 256.248C180.008 257.924 179.438 259.6 178.816 261.239ZM36.8204 255.42C36.3393 253.748 35.9136 252.017 35.5432 250.308L36.5862 250.099C36.9396 251.771 37.3568 253.48 37.8336 255.136L36.8204 255.42ZM181.839 251.152L180.796 250.93C181.171 249.258 181.486 247.532 181.732 245.826L182.784 245.977C182.533 247.708 182.214 249.446 181.839 251.152ZM34.6705 245.12C34.4406 243.394 34.2703 241.63 34.1638 239.886L35.2282 239.824C35.3303 241.546 35.5006 243.281 35.7263 244.986L34.6705 245.12ZM183.355 240.747L182.29 240.672C182.414 238.958 182.478 237.215 182.478 235.489H183.542C183.542 237.24 183.478 239.008 183.355 240.747ZM35.1004 234.64H34.0361C34.0574 232.889 34.1426 231.125 34.2873 229.386L35.3516 229.473C35.2069 231.171 35.1217 232.914 35.1004 234.64ZM182.401 232.011C182.316 230.284 182.167 228.55 181.975 226.844L183.031 226.719C183.24 228.449 183.389 230.213 183.457 231.961L182.401 232.011ZM35.9774 224.311L34.9259 224.152C35.1984 222.426 35.5389 220.687 35.9349 218.985L36.9736 219.219C36.5777 220.9 36.2414 222.609 35.9732 224.311H35.9774ZM181.149 221.719C180.817 220.047 180.421 218.329 179.966 216.669L180.992 216.398C181.456 218.07 181.843 219.809 182.197 221.523L181.149 221.719ZM38.3359 214.211L37.3185 213.906C37.8421 212.234 38.4339 210.562 39.0767 208.928L40.0686 209.308C39.4343 210.913 38.8511 212.564 38.3359 214.211ZM178.399 211.703C177.824 210.081 177.182 208.455 176.488 206.879L177.467 206.461C178.169 208.062 178.821 209.709 179.404 211.356L178.399 211.703ZM42.1675 204.53L41.2053 204.083C41.9674 202.507 42.7975 200.935 43.6745 199.409L44.6026 199.923C43.7299 201.437 42.9125 202.983 42.1589 204.538L42.1675 204.53ZM174.244 202.197C173.435 200.672 172.562 199.154 171.647 197.687L172.554 197.139C173.482 198.628 174.372 200.166 175.189 201.738L174.244 202.197ZM47.3783 195.509L46.4588 194.932C47.4422 193.478 48.4937 192.04 49.5793 190.656L50.4307 191.295C49.3622 192.658 48.3277 194.079 47.357 195.513L47.3783 195.509ZM168.739 193.373C167.718 191.977 166.632 190.593 165.512 189.272L166.33 188.603C167.466 189.945 168.569 191.346 169.604 192.784L168.739 193.373ZM53.811 187.308L53.0192 186.622C54.2027 185.322 55.45 184.043 56.7272 182.826L57.468 183.575C56.2121 184.762 54.9732 186.02 53.811 187.308ZM161.975 185.406C160.761 184.151 159.484 182.948 158.181 181.794L158.897 181.02C160.216 182.191 161.511 183.424 162.728 184.682L161.975 185.406ZM61.3889 180.088L60.7035 179.286C62.0615 178.165 63.4834 177.074 64.9224 176.046L65.5482 176.882C64.1263 177.906 62.7299 178.981 61.3889 180.088ZM154.141 178.458C152.758 177.396 151.319 176.368 149.884 175.411L150.476 174.541C151.953 175.515 153.409 176.556 154.814 177.635L154.141 178.458ZM69.9246 174.002L69.3627 173.116C70.874 172.192 72.4364 171.314 74.0073 170.499L74.5054 171.423C72.9558 172.225 71.4147 173.091 69.9246 174.002ZM145.38 172.668C143.856 171.832 142.281 170.996 140.697 170.252L141.157 169.312C142.762 170.068 144.358 170.892 145.904 171.761L145.38 172.668ZM79.2395 169.178L78.8138 168.229C80.44 167.527 82.1131 166.879 83.7905 166.294L84.1438 167.28C82.5133 167.844 80.8615 168.488 79.2395 169.178ZM135.861 168.17C134.23 167.539 132.553 166.954 130.88 166.44L131.199 165.441C132.902 165.968 134.605 166.557 136.252 167.201L135.861 168.17ZM89.2014 165.721L88.9162 164.713C90.6191 164.254 92.3858 163.844 94.1313 163.501L94.3399 164.53C92.6157 164.86 90.8873 165.261 89.2014 165.721ZM125.784 165.073C124.081 164.655 122.336 164.337 120.603 164.061L120.773 163.033C122.527 163.309 124.298 163.652 126.027 164.053L125.784 165.073ZM99.5508 163.702L99.4188 162.665C101.177 162.448 102.974 162.289 104.753 162.197L104.808 163.242C103.054 163.33 101.288 163.484 99.5508 163.698V163.702ZM115.362 163.422C113.621 163.271 111.846 163.179 110.092 163.15V162.105C111.871 162.134 113.672 162.226 115.439 162.381L115.362 163.422Z" fill="#9192FF"/>
<path d="M408.12 59.5432C404.567 59.544 401.094 58.5104 398.14 56.573C395.186 54.6356 392.883 51.8814 391.523 48.6589C390.163 45.4363 389.806 41.8901 390.499 38.4687C391.191 35.0473 392.902 31.9045 395.414 29.4376C397.925 26.9707 401.126 25.2905 404.61 24.6097C408.094 23.9289 411.706 24.2779 414.988 25.6126C418.27 26.9473 421.076 29.2078 423.05 32.1082C425.023 35.0086 426.077 38.4185 426.077 41.9069C426.071 46.5819 424.178 51.0639 420.811 54.3701C417.445 57.6762 412.881 59.5366 408.12 59.5432ZM408.12 25.0564C404.726 25.0564 401.408 26.0447 398.586 27.8962C395.764 29.7478 393.564 32.3794 392.265 35.4585C390.966 38.5375 390.627 41.9255 391.289 45.1942C391.951 48.4629 393.585 51.4654 395.985 53.8219C398.385 56.1785 401.443 57.7834 404.772 58.4335C408.101 59.0837 411.551 58.75 414.687 57.4747C417.823 56.1993 420.503 54.0395 422.389 51.2685C424.274 48.4974 425.281 45.2396 425.281 41.9069C425.28 37.437 423.472 33.1504 420.254 29.9886C417.036 26.8267 412.672 25.0483 408.12 25.0438V25.0564Z" fill="#9192FF"/>
<path d="M594.974 122.832V440.599C594.975 442.172 594.66 443.729 594.048 445.181C593.436 446.634 592.538 447.954 591.406 449.066C590.275 450.178 588.931 451.061 587.452 451.663C585.973 452.265 584.387 452.575 582.786 452.576H112.489C110.887 452.576 109.301 452.266 107.821 451.664C106.342 451.062 104.997 450.18 103.864 449.068C102.732 447.956 101.833 446.636 101.22 445.183C100.607 443.73 100.292 442.172 100.292 440.599V122.832C100.292 119.655 101.577 116.609 103.864 114.363C106.152 112.117 109.254 110.855 112.489 110.855H582.786C584.387 110.856 585.973 111.166 587.452 111.768C588.931 112.371 590.275 113.253 591.406 114.365C592.538 115.477 593.436 116.797 594.048 118.25C594.66 119.703 594.975 121.26 594.974 122.832Z" fill="white"/>
<path d="M582.786 453.098H112.489C109.114 453.094 105.878 451.776 103.492 449.433C101.105 447.09 99.7631 443.913 99.7598 440.599V122.831C99.7631 119.517 101.105 116.34 103.492 113.997C105.878 111.653 109.114 110.335 112.489 110.332H582.786C586.16 110.338 589.393 111.656 591.778 113.999C594.162 116.343 595.503 119.518 595.507 122.831V440.599C595.503 443.911 594.162 447.087 591.778 449.43C589.393 451.773 586.16 453.092 582.786 453.098ZM112.489 111.377C109.396 111.38 106.431 112.588 104.244 114.735C102.058 116.883 100.827 119.794 100.824 122.831V440.599C100.827 443.635 102.058 446.547 104.244 448.694C106.431 450.841 109.396 452.049 112.489 452.053H582.786C585.878 452.048 588.841 450.84 591.026 448.692C593.212 446.545 594.44 443.634 594.442 440.599V122.831C594.44 119.795 593.212 116.885 591.026 114.737C588.841 112.59 585.878 111.382 582.786 111.377H112.489Z" fill="#9192FF"/>
<path d="M594.974 122.832V141.685H100.283V122.832C100.283 119.655 101.568 116.609 103.856 114.363C106.143 112.117 109.245 110.855 112.48 110.855H582.786C584.387 110.856 585.972 111.166 587.451 111.768C588.93 112.371 590.274 113.253 591.406 114.365C592.538 115.477 593.435 116.797 594.048 118.25C594.66 119.703 594.975 121.26 594.974 122.832Z" fill="white"/>
<path d="M595.507 142.206H99.7598V122.831C99.7631 119.517 101.105 116.34 103.492 113.997C105.878 111.653 109.114 110.335 112.489 110.332H582.786C586.16 110.338 589.393 111.656 591.778 113.999C594.162 116.343 595.503 119.518 595.507 122.831V142.206ZM100.816 141.161H594.442V122.831C594.44 119.795 593.212 116.885 591.026 114.737C588.841 112.59 585.878 111.382 582.786 111.377H112.489C109.396 111.38 106.431 112.588 104.244 114.735C102.058 116.883 100.827 119.794 100.824 122.831L100.816 141.161Z" fill="#9192FF"/>
<path d="M127.756 131.84C130.89 131.84 133.431 129.345 133.431 126.268C133.431 123.19 130.89 120.695 127.756 120.695C124.622 120.695 122.081 123.19 122.081 126.268C122.081 129.345 124.622 131.84 127.756 131.84Z" fill="#3335CF"/>
<path d="M149.399 120.695C148.276 120.694 147.177 121.021 146.242 121.633C145.308 122.246 144.579 123.117 144.149 124.136C143.719 125.155 143.606 126.276 143.825 127.359C144.044 128.441 144.585 129.435 145.379 130.215C146.174 130.995 147.186 131.526 148.288 131.741C149.39 131.956 150.532 131.845 151.57 131.423C152.608 131 153.495 130.285 154.119 129.367C154.743 128.45 155.075 127.371 155.074 126.268C155.072 124.79 154.473 123.374 153.41 122.33C152.346 121.285 150.904 120.698 149.399 120.695Z" fill="#3335CF"/>
<path d="M171.039 131.861C169.917 131.858 168.821 131.53 167.89 130.916C166.958 130.303 166.232 129.432 165.803 128.414C165.375 127.395 165.263 126.275 165.482 125.195C165.702 124.115 166.242 123.122 167.035 122.343C167.828 121.563 168.838 121.032 169.939 120.816C171.039 120.6 172.179 120.709 173.217 121.129C174.254 121.549 175.141 122.261 175.767 123.175C176.392 124.09 176.728 125.166 176.731 126.268C176.733 127.002 176.587 127.73 176.302 128.409C176.016 129.088 175.597 129.705 175.068 130.225C174.539 130.744 173.911 131.156 173.22 131.437C172.529 131.718 171.788 131.862 171.039 131.861ZM171.039 121.757C170.127 121.757 169.234 122.023 168.475 122.521C167.716 123.019 167.125 123.727 166.775 124.555C166.426 125.384 166.335 126.295 166.514 127.174C166.692 128.053 167.132 128.861 167.778 129.494C168.424 130.128 169.246 130.559 170.142 130.733C171.037 130.908 171.965 130.817 172.808 130.474C173.652 130.13 174.372 129.549 174.879 128.803C175.385 128.057 175.655 127.181 175.654 126.284C175.656 125.688 175.538 125.098 175.307 124.546C175.076 123.995 174.736 123.494 174.307 123.072C173.878 122.65 173.369 122.315 172.808 122.087C172.248 121.858 171.647 121.74 171.039 121.74V121.757Z" fill="#9192FF"/>
<path d="M310.71 132.476H205.207C203.559 132.434 201.993 131.762 200.843 130.603C199.693 129.443 199.049 127.889 199.049 126.27C199.049 124.652 199.693 123.098 200.843 121.938C201.993 120.779 203.559 120.107 205.207 120.065H310.71C312.357 120.107 313.923 120.779 315.074 121.938C316.224 123.098 316.868 124.652 316.868 126.27C316.868 127.889 316.224 129.443 315.074 130.603C313.923 131.762 312.357 132.434 310.71 132.476ZM205.207 121.11C203.839 121.148 202.54 121.709 201.586 122.672C200.632 123.636 200.099 124.927 200.099 126.27C200.099 127.614 200.632 128.905 201.586 129.869C202.54 130.832 203.839 131.393 205.207 131.431H310.71C312.078 131.393 313.377 130.832 314.33 129.869C315.284 128.905 315.818 127.614 315.818 126.27C315.818 124.927 315.284 123.636 314.33 122.672C313.377 121.709 312.078 121.148 310.71 121.11H205.207Z" fill="#9192FF"/>
<path d="M444.869 289.561C444.869 339.598 403.573 380.167 352.606 380.167C301.638 380.167 260.33 339.619 260.33 289.561C260.33 242.617 296.695 204.012 343.27 199.414L346.348 229.144C333.719 230.409 321.794 235.463 312.194 243.617C302.593 251.771 295.783 262.631 292.689 274.719C289.595 286.807 290.367 299.538 294.9 311.18C299.433 322.822 307.507 332.811 318.025 339.789C328.543 346.767 340.995 350.396 353.687 350.181C366.379 349.967 378.695 345.92 388.963 338.59C399.23 331.261 406.949 321.005 411.071 309.216C415.194 297.427 415.519 284.678 412.003 272.702L441.263 264.404C443.663 272.581 444.877 281.05 444.869 289.561Z" fill="#9192FF"/>
<path d="M352.602 362.709C393.748 362.709 427.104 329.957 427.104 289.555C427.104 249.153 393.748 216.401 352.602 216.401C311.456 216.401 278.101 249.153 278.101 289.555C278.101 329.957 311.456 362.709 352.602 362.709Z" fill="white"/>
<path opacity="0.5" d="M352.602 362.709C393.748 362.709 427.104 329.957 427.104 289.555C427.104 249.153 393.748 216.401 352.602 216.401C311.456 216.401 278.101 249.153 278.101 289.555C278.101 329.957 311.456 362.709 352.602 362.709Z" fill="#D1D1FF"/>
<path d="M352.601 341.386C381.745 341.386 405.37 318.18 405.37 289.555C405.37 260.93 381.745 237.725 352.601 237.725C323.458 237.725 299.833 260.93 299.833 289.555C299.833 318.18 323.458 341.386 352.601 341.386Z" fill="white"/>
<path d="M681.068 48.8623H480.335V169.382H681.068V48.8623Z" fill="white"/>
<path d="M681.601 169.901H479.808V48.3398H681.601V169.901ZM480.868 168.856H680.532V49.3849H480.868V168.856Z" fill="#9192FF"/>
<path d="M517.162 131.021H505.607V151.855H517.162V131.021Z" fill="#D1D1FF"/>
<path d="M540.265 121.502H528.711V151.855H540.265V121.502Z" fill="#D1D1FF"/>
<path d="M563.374 129.286H551.82V151.855H563.374V129.286Z" fill="#D1D1FF"/>
<path d="M586.481 113.401H574.927V151.851H586.481V113.401Z" fill="#D1D1FF"/>
<path d="M609.586 103.243H598.032V151.855H609.586V103.243Z" fill="#D1D1FF"/>
<path d="M632.694 88.7378H621.14V151.855H632.694V88.7378Z" fill="#D1D1FF"/>
<path d="M655.797 66.394H644.243V151.854H655.797V66.394Z" fill="#D1D1FF"/>
<path d="M514.79 76.5361H505.607V86.7442H514.79V76.5361Z" fill="#D1D1FF"/>
<path d="M591.157 81.2593H528.976V83.8761H591.157V81.2593Z" fill="#D1D1FF"/>
<path d="M500.448 230.489L487.736 196.006C480.592 198.544 474.405 203.16 470.001 209.239C465.597 215.318 463.187 222.571 463.09 230.031C462.993 237.491 465.216 244.802 469.461 250.989C473.705 257.176 479.771 261.945 486.847 264.66C493.924 267.375 501.676 267.906 509.068 266.183C516.46 264.46 523.141 260.564 528.22 255.016C533.299 249.467 536.534 242.53 537.494 235.13C538.453 227.729 537.092 220.218 533.591 213.597L500.448 230.489Z" fill="#EBEBFF"/>
<path d="M538.554 200.533C534.379 192.644 527.429 186.512 518.995 183.277C510.562 180.041 501.219 179.923 492.703 182.943L505.415 217.425L538.554 200.533Z" fill="#9192FF"/>
<path d="M553.305 347.986H464.967V430.546H553.305V347.986Z" fill="#EBEBFF"/>
<path d="M528.294 369.933H478.804V373.419H528.294V369.933Z" fill="white"/>
<path d="M528.294 380.383H478.804V383.87H528.294V380.383Z" fill="white"/>
<path d="M216.106 190.183H139.288V317.68H216.106V190.183Z" fill="#EBEBFF"/>
<path d="M201.372 208.647H150.996V253.931H201.372V208.647Z" fill="white"/>
<path d="M151.362 208.229L150.644 209L201.023 254.281L201.742 253.511L151.362 208.229Z" fill="#EBEBFF"/>
<path d="M201.008 208.268L150.637 253.558L151.355 254.328L201.727 209.038L201.008 208.268Z" fill="#EBEBFF"/>
<path d="M176.207 242.256H0.506836V355.929H176.207V242.256Z" fill="white"/>
<path d="M176.731 356.43H0V241.758H176.731V356.43ZM1.03025 355.431H175.705V242.757H1.01748L1.03025 355.431Z" fill="#9192FF"/>
<path d="M19.0215 328.477L30.3713 307.576L53.7861 329.176L69.3974 284.585L98.4871 315.937L117.645 308.275L152.413 263.684" fill="white"/>
<path d="M54.0234 330.112L30.515 308.425L19.4887 328.724L18.5479 328.235L30.2297 306.728L53.5509 328.244L69.1835 283.582L98.6308 315.318L117.312 307.844L151.991 263.367L152.834 264.002L117.98 308.705L98.3455 316.56L98.0944 316.292L69.6092 285.593L54.0234 330.112Z" fill="#9192FF"/>
<path d="M30.4609 310.365C32.0761 310.365 33.3856 309.079 33.3856 307.493C33.3856 305.907 32.0761 304.621 30.4609 304.621C28.8456 304.621 27.5361 305.907 27.5361 307.493C27.5361 309.079 28.8456 310.365 30.4609 310.365Z" fill="#9192FF"/>
<path d="M53.6103 331.525C55.2255 331.525 56.535 330.239 56.535 328.653C56.535 327.067 55.2255 325.781 53.6103 325.781C51.995 325.781 50.6855 327.067 50.6855 328.653C50.6855 330.239 51.995 331.525 53.6103 331.525Z" fill="#9192FF"/>
<path d="M69.5761 287.632C71.1914 287.632 72.5008 286.347 72.5008 284.76C72.5008 283.174 71.1914 281.889 69.5761 281.889C67.9608 281.889 66.6514 283.174 66.6514 284.76C66.6514 286.347 67.9608 287.632 69.5761 287.632Z" fill="#9192FF"/>
<path d="M125.611 260.377H51.1094V261.423H125.611V260.377Z" fill="#9192FF"/>
<path d="M418.257 517.022C415.075 496.549 419.325 475.629 430.264 457.921C441.202 440.213 458.132 426.845 478.092 420.154C466.904 427.845 460.076 440.273 455.308 452.843C450.539 465.413 447.419 478.602 441.535 490.703C435.652 502.805 426.388 514.113 413.531 518.644L418.257 517.022Z" fill="#9192FF"/>
<path d="M415.166 517.193C414.711 493.713 410.101 470.488 401.543 448.558C398.512 440.791 394.872 433.037 388.955 427.084C383.037 421.132 374.438 417.207 366.098 418.661C376.485 426.294 381.849 438.852 384.893 451.242C387.937 463.632 389.091 476.482 393.357 488.513C397.622 500.543 405.784 512.144 417.998 516.441L415.166 517.193Z" fill="#9192FF"/>
<path d="M413.534 518.728C407.574 503.027 401.142 486.925 389.2 474.965C377.259 463.006 358.335 456.154 342.698 462.843C355.471 465.728 366.863 472.796 375.002 482.883C380.894 490.231 384.853 498.943 390.912 506.158C396.97 513.373 406.212 519.188 415.574 517.445L413.534 518.728Z" fill="#D1D1FF"/>
<path d="M411.637 517.653C409.206 500.422 406.771 482.911 409.333 465.693C411.896 448.475 420.189 431.29 435.043 421.801C426.822 429.718 424.076 441.711 424.072 453.015C424.068 464.318 426.401 475.525 426.597 486.833C426.792 498.14 424.506 510.15 416.72 518.477L411.637 517.653Z" fill="#D1D1FF"/>
<path d="M419.857 515.145C425.549 500.903 431.616 486.114 443.213 475.893C450.717 469.299 460.056 465.054 470.033 463.704C463.081 469.138 458.73 477.131 455.133 485.111C451.536 493.091 448.406 501.413 443.179 508.465C437.951 515.517 430.1 521.345 421.216 521.717L419.857 515.145Z" fill="#D1D1FF"/>
<path d="M448.765 558.478H384.825L374.97 510.184H458.62L448.765 558.478Z" fill="white"/>
<path d="M449.193 558.999H384.39L374.321 509.673H459.27L449.193 558.999ZM385.258 557.954H448.342L457.985 510.718H375.62L385.258 557.954Z" fill="#9192FF"/>
<path d="M563.228 529.438V558.478H524.87L542.431 544.411L543.355 526.716L563.228 529.438Z" fill="#D1D1FF"/>
<path d="M542.792 544.089L542.059 544.846L549.381 551.686L550.115 550.928L542.792 544.089Z" fill="#1B1B43"/>
<path d="M559.508 537.141H546.383V538.186H559.508V537.141Z" fill="#1B1B43"/>
<path d="M608.053 530.8L609.441 558.477H571.083L587.256 544.867V528.075L608.053 530.8Z" fill="#D1D1FF"/>
<path d="M587.61 544.541L586.905 545.324L592.862 550.492L593.567 549.708L587.61 544.541Z" fill="#1B1B43"/>
<path d="M604.567 537.664H591.616V538.709H604.567V537.664Z" fill="#1B1B43"/>
<path d="M567.094 362.509C567.749 420.377 572.716 477.306 581.994 533.296H614.315C607.589 490.486 604.549 438.505 608.308 369.586L584.97 350.817L567.094 362.509Z" fill="#FE5B52"/>
<path d="M541.541 370.166L526.918 434.028C523.402 449.374 523.157 465.269 526.198 480.712L536.467 532.877H568.788L558.996 464.397L582.385 360.004L541.541 370.166Z" fill="#FE5B52"/>
<path d="M569.269 431.365C569.188 430.048 567.349 400.674 567.141 396.953L558.694 393.939L559.056 392.957L568.188 396.218V396.581C568.188 397.225 569.58 419.572 570.317 431.277L569.269 431.365Z" fill="#BE443D"/>
<path d="M639.246 225.979L640.979 221.928C640.979 221.928 634.725 208.994 636.721 207.297C638.718 205.6 641.907 210.432 641.907 210.432C641.907 210.432 640.979 194.757 644.035 194.627C646.615 194.514 646.432 199.066 646.696 205.859C646.696 205.859 648.293 203.769 651.23 205.93C652.55 203.769 655.347 205.207 656.143 206.516C657.075 205.471 660.932 205.73 660.4 210.173C659.723 215.804 657.075 226.238 657.075 226.238L648.561 233.164L639.246 225.979Z" fill="#FFBC96"/>
<path d="M570.865 280.058L583.811 279.958C606.52 277.968 624.255 259.855 624.255 259.855L639.241 225.996L657.07 226.255L646.61 266.046C645.106 271.764 641.868 276.899 637.325 280.769L600.134 312.447L570.865 280.058Z" fill="#3335CF"/>
<path d="M535.377 308.885L541.541 370.163L608.291 369.586L605.983 295.734L570.861 280.058L546.561 290.162L535.377 308.885Z" fill="#3335CF"/>
<path d="M494.039 314.837C492.951 313.887 491.578 313.309 490.126 313.19C482.749 312.584 459.679 310.837 459.9 312.593C460.164 314.683 477.725 322.521 477.725 322.521L488.994 334.974L499.314 319.436L494.039 314.837Z" fill="#FFBC96"/>
<path d="M544.356 285.956C542.01 286.358 539.792 287.29 537.878 288.679C535.963 290.069 534.404 291.877 533.325 293.961L513.653 331.926L499.319 319.436L488.999 334.973L492.767 339.133C498.339 345.294 504.836 353.567 513.538 355.36C517.97 356.276 522.099 354.466 525.275 351.473C527.628 349.199 529.67 346.635 531.35 343.844L539.196 331.144L564.207 282.549L544.356 285.956Z" fill="#3335CF"/>
<path d="M535.924 308.809L534.864 308.91L538.603 346.617L539.662 346.516L535.924 308.809Z" fill="#D1D1FF"/>
<path d="M606.384 306.97L600.13 312.455L606.784 323.298L606.384 306.97Z" fill="#1B1B43"/>
<path d="M649.004 213.655C646.497 213.655 646.301 210.424 646.301 205.859H647.097C647.097 211.235 647.544 212.869 649.004 212.869C649.15 212.869 649.294 212.838 649.426 212.778C649.558 212.718 649.676 212.631 649.77 212.522C650.481 211.77 650.758 210.014 650.843 208.451C650.788 207.314 650.813 206.323 650.843 205.913H651.644C651.685 206.731 651.685 207.55 651.644 208.367C651.754 210.495 652.116 212.602 652.84 212.815C653.018 212.876 653.209 212.893 653.396 212.866C653.583 212.838 653.761 212.766 653.913 212.656C654.764 212.05 655.258 210.323 655.509 208.785C655.539 208.008 655.618 207.233 655.743 206.465L656.539 206.536C656.509 207.236 656.44 207.933 656.335 208.626C656.28 210.256 656.467 211.837 657.14 212.112C657.332 212.215 657.547 212.269 657.766 212.269C657.984 212.269 658.199 212.215 658.391 212.112C659.307 211.565 659.639 209.717 659.669 209.053L660.465 209.111C660.465 209.224 660.235 211.916 658.787 212.781C658.488 212.952 658.151 213.047 657.805 213.058C657.459 213.068 657.116 212.993 656.808 212.84C656.62 212.765 656.033 212.422 655.705 211.205C655.474 212.017 655.004 212.744 654.355 213.295C654.105 213.476 653.813 213.595 653.505 213.641C653.198 213.688 652.883 213.661 652.589 213.563C651.886 213.358 651.452 212.476 651.188 211.377C651.038 211.991 650.747 212.563 650.337 213.049C650.171 213.237 649.966 213.388 649.737 213.492C649.507 213.597 649.257 213.652 649.004 213.655Z" fill="#D28572"/>
<path d="M565.233 294.931C562.516 295.14 559.825 294.283 557.75 292.548C555.675 290.812 554.386 288.339 554.164 285.672L554.049 284.259L552.432 264.549L564.935 263.567L572.96 262.932L574.663 284.042C574.883 286.714 574.013 289.362 572.245 291.404C570.476 293.446 567.954 294.715 565.233 294.931Z" fill="#FFBC96"/>
<path d="M568.916 270.226C565.02 276.969 559.443 281.818 554.015 284.272L552.397 264.562L564.901 263.58L568.916 270.226Z" fill="#1B1B43"/>
<path d="M572.995 249.576L570.518 270.13C570.518 270.13 562.535 277.625 550.828 277.27C546.571 277.145 544.046 273.173 542.577 268.124C541.97 265.929 541.527 263.693 541.249 261.435C540.658 256.46 540.48 251.445 540.717 246.441L558.81 240.526L572.995 249.576Z" fill="#FFBC96"/>
<path d="M570.244 258.025C568.358 251.432 564.974 248.113 560.397 247.403C545.854 255.153 536.408 250.538 529.532 241.914C546.387 245.137 553.747 221.623 569.891 237.316C581.862 240.886 581.641 252.122 574.859 261.264L570.244 258.025Z" fill="#1B1B43"/>
<path d="M577.716 260.505C578.333 257.403 576.613 254.463 573.873 253.938C571.134 253.412 568.414 255.501 567.797 258.603C567.18 261.705 568.9 264.646 571.639 265.171C574.379 265.696 577.099 263.607 577.716 260.505Z" fill="#FFBC96"/>
<path d="M574.659 257.468C573.807 257.606 573.284 258.225 572.879 258.931C572.48 259.674 572.206 260.474 572.066 261.302H571.755C571.631 260.839 571.612 260.355 571.7 259.885C571.78 259.408 571.946 258.95 572.19 258.53C572.434 258.092 572.779 257.717 573.199 257.435C573.412 257.287 573.654 257.185 573.91 257.135C574.166 257.086 574.43 257.089 574.684 257.147L574.659 257.468Z" fill="#1B1B43"/>
<path d="M545.053 258.852C545.053 259.742 544.628 260.466 544.078 260.466C543.529 260.466 543.104 259.742 543.104 258.852C543.104 257.962 543.529 257.243 544.078 257.243C544.628 257.243 545.053 257.966 545.053 258.852Z" fill="#1B1B43"/>
<path d="M553.117 258.195C553.117 259.161 552.645 259.943 552.062 259.943C551.478 259.943 551.006 259.161 551.006 258.195C551.006 257.23 551.478 256.452 552.062 256.452C552.645 256.452 553.117 257.23 553.117 258.195Z" fill="#1B1B43"/>
<path d="M547.271 260.16C547.259 260.47 547.163 260.772 546.994 261.034C546.839 261.281 546.658 261.511 546.453 261.719C546.092 262.037 545.815 262.436 545.644 262.882C545.606 263.091 545.618 263.305 545.68 263.509C545.742 263.712 545.853 263.898 546.002 264.052C546.356 264.447 546.734 264.819 547.134 265.168L546.964 265.427C546.417 265.216 545.915 264.907 545.483 264.516C545.245 264.293 545.058 264.024 544.933 263.726C544.806 263.399 544.784 263.042 544.87 262.702C544.957 262.382 545.119 262.085 545.342 261.837C545.537 261.623 545.749 261.424 545.976 261.243C546.398 260.957 546.737 260.568 546.96 260.114L547.271 260.16Z" fill="#1B1B43"/>
<path d="M548.037 268.868C549.13 268.655 550.177 268.262 551.136 267.705C551.603 267.418 552.046 267.095 552.46 266.74C552.886 266.385 553.286 265.996 553.708 265.599L553.959 265.778C553.425 266.853 552.587 267.753 551.545 268.37C550.5 268.997 549.278 269.278 548.058 269.173L548.037 268.868Z" fill="#1B1B43"/>
<path d="M550.78 253.869C550.55 255.052 554.326 255.432 555.003 255.541C555.565 255.637 556.361 255.7 556.48 254.868C556.625 253.835 555.48 253.726 554.832 253.588C554.185 253.451 550.997 252.757 550.78 253.869Z" fill="#1B1B43"/>
<path d="M545.531 254.596C545.531 255.738 542.508 255.851 541.959 255.917C541.508 255.972 540.878 255.98 540.924 255.177C540.984 254.183 541.891 254.153 542.419 254.066C542.947 253.978 545.548 253.505 545.531 254.596Z" fill="#1B1B43"/>
<path opacity="0.2" d="M559.623 265.49C561.753 265.49 563.48 263.794 563.48 261.702C563.48 259.611 561.753 257.915 559.623 257.915C557.493 257.915 555.766 259.611 555.766 261.702C555.766 263.794 557.493 265.49 559.623 265.49Z" fill="#FE5B52"/>
<path opacity="0.2" d="M544.131 265.105C544.134 265.693 543.995 266.273 543.725 266.798C543.454 267.322 543.061 267.777 542.577 268.123C541.97 265.928 541.526 263.693 541.249 261.435C542.074 261.649 542.804 262.125 543.325 262.789C543.846 263.453 544.13 264.267 544.131 265.105Z" fill="#FE5B52"/>
<path d="M269.139 387.172H195.097V392.067H269.139V387.172Z" fill="#9192FF"/>
<path d="M269.134 387.176H206.604L230.287 330.484H292.813L269.134 387.176Z" fill="white"/>
<path d="M269.491 387.69H205.812L229.946 329.961H293.609L269.491 387.69ZM207.382 386.653H268.776L292.021 331.006H230.644L207.382 386.653Z" fill="#9192FF"/>
<path d="M263.736 382.41H214.595L233.203 337.857H282.344L263.736 382.41Z" fill="#EBEBFF"/>
<path d="M244.238 393.635H243.174V558.745H244.238V393.635Z" fill="#1B1B43"/>
<path d="M303.426 392.071H183.989V401.397H303.426V392.071Z" fill="#D1D1FF"/>
<path d="M87.6053 462.988H86.541V558.745H87.6053V462.988Z" fill="#1B1B43"/>
<path d="M116.278 467.432H57.8643C58.4657 464.607 60.0396 462.071 62.3213 460.251C64.6031 458.43 67.4535 457.437 70.3933 457.438H103.753C106.692 457.439 109.541 458.433 111.822 460.253C114.102 462.073 115.676 464.608 116.278 467.432Z" fill="#D1D1FF"/>
<path d="M78.5845 551.906H95.5581C96.4365 551.905 97.3064 552.075 98.1179 552.405C98.9294 552.735 99.6666 553.219 100.287 553.83C100.908 554.44 101.399 555.165 101.734 555.963C102.069 556.76 102.24 557.615 102.238 558.477H71.9092C71.9092 556.739 72.6125 555.071 73.8643 553.842C75.1162 552.613 76.8141 551.922 78.5845 551.922V551.906Z" fill="#D1D1FF"/>
<path d="M132.141 320.915C133.635 323.005 135.776 326.01 136.015 328.619C136.36 332.414 130.174 329.756 130.102 330.082L132.141 320.915Z" fill="#D28572"/>
<path d="M122.693 325.38H103.144V353.513H122.693V325.38Z" fill="#FFBC96"/>
<path d="M122.698 330.204V350.269C116.538 346.469 111.204 340.826 106.61 334.313L122.698 330.204Z" fill="#1B1B43"/>
<path d="M133.686 322.626C133.078 332.34 129.272 343.334 118.88 340.626C110.714 338.494 101.731 331.743 101.731 322.007C101.731 312.271 108.594 304.379 117.058 304.379C122.345 304.379 129.008 306.887 132.145 311.77C134.031 314.692 133.955 318.387 133.686 322.626Z" fill="#FFBC96"/>
<path d="M116.383 319.804C119.15 312.597 125.485 311.886 125.485 311.886C125.485 311.886 140.155 326.133 139.249 311.414C138.525 299.709 126.881 300.821 126.881 300.821C121.194 293.552 112.07 296.399 108.746 300.612C105.421 304.826 106.617 302.402 98.7623 305.144C90.9077 307.886 95.1139 319.582 93.7175 320.422C83.3086 320.422 85.2413 330.539 85.2413 330.539L109.891 338.435L115.825 322.521L116.383 319.804Z" fill="#1B1B43"/>
<path d="M118.027 327.406C120.059 326.253 120.471 323.219 118.948 320.628C117.424 318.037 114.542 316.87 112.51 318.022C110.477 319.174 110.065 322.209 111.589 324.8C113.112 327.391 115.995 328.558 118.027 327.406Z" fill="#FFBC96"/>
<path d="M115.806 323.733C115.534 323.1 115.162 322.513 114.703 321.994C114.467 321.766 114.199 321.574 113.907 321.421C113.605 321.262 113.269 321.128 112.924 320.97L112.979 320.698C113.377 320.673 113.776 320.725 114.154 320.848C114.556 320.977 114.919 321.199 115.214 321.496C115.501 321.792 115.721 322.144 115.861 322.529C115.995 322.894 116.07 323.278 116.083 323.666L115.806 323.733Z" fill="#1B1B43"/>
<path d="M106.579 306.333C111.147 306.121 114.66 302.008 114.425 297.147C114.191 292.285 110.298 288.517 105.73 288.729C101.162 288.941 97.649 293.054 97.8833 297.915C98.1176 302.777 102.011 306.545 106.579 306.333Z" fill="#1B1B43"/>
<path opacity="0.2" d="M125.184 331.788C127.241 331.788 128.909 330.15 128.909 328.13C128.909 326.11 127.241 324.473 125.184 324.473C123.127 324.473 121.459 326.11 121.459 328.13C121.459 330.15 123.127 331.788 125.184 331.788Z" fill="#FE5B52"/>
<path d="M139.82 422.708L77.209 414.861L89.0313 353.768C89.4072 351.833 90.2124 350.004 91.3899 348.41C92.5673 346.816 94.0879 345.496 95.8437 344.544C97.5994 343.592 99.5471 343.032 101.548 342.903C103.55 342.774 105.555 343.079 107.423 343.798L128.764 353.107C130.782 353.987 132.531 355.368 133.838 357.115C135.144 358.863 135.964 360.915 136.214 363.069L137.415 383.029L138.79 405.652L139.82 422.708Z" fill="#FFA121"/>
<path d="M197.115 378.815L213.688 374.033C214.277 373.863 214.897 373.822 215.505 373.911C216.112 374.001 216.692 374.219 217.204 374.551C221.738 377.511 233.808 385.876 230.768 389.299C229.244 391.005 215.387 387.004 215.387 387.004L195.322 392.501L197.115 378.815Z" fill="#FFBC96"/>
<path d="M138.791 405.665C133.577 399.144 130.462 390.547 129.446 379.874L137.416 383.042L138.791 405.665Z" fill="#1B1B43"/>
<path d="M126.869 352.342L129.364 353.4C134.5 355.572 139.103 358.799 142.863 362.864L163.413 385.086L197.113 378.816L201.549 396.582L159.203 409.578C157.557 409.866 155.865 409.741 154.281 409.217C152.698 408.692 151.275 407.784 150.143 406.576L119.598 373.941L126.869 352.342Z" fill="#FFA121"/>
<path d="M163.023 385.441C162.921 385.333 152.895 374.614 144.214 365.054C135.632 355.607 122.545 351.013 122.413 350.967L122.766 349.98C122.898 350.026 136.236 354.704 145.006 364.36C153.687 373.912 163.704 384.626 163.806 384.735L163.023 385.441Z" fill="#1B1B43"/>
<path d="M122.102 377.415L121.338 378.143L149.754 406.945L150.518 406.218L122.102 377.415Z" fill="#1B1B43"/>
<path d="M137.551 515.133L124.043 540.967L158.165 558.169L149.084 537.778L156.492 521.621L137.551 515.133Z" fill="#D1D1FF"/>
<path d="M148.906 537.291L139.211 540.093L139.511 541.095L149.207 538.293L148.906 537.291Z" fill="#1B1B43"/>
<path d="M158.8 532.109L127.889 520.785L149.06 456.109C152.696 446.532 163.905 441.795 174.097 445.528C184.284 449.261 189.593 460.05 185.953 469.627L158.8 532.109Z" fill="#26289C"/>
<path d="M188.779 527.736L191.793 558.477H230.151L212.59 544.411L208.469 526.691L188.779 527.736Z" fill="#D1D1FF"/>
<path d="M212.356 543.928L203.267 548.849L203.78 549.764L212.87 544.843L212.356 543.928Z" fill="#1B1B43"/>
<path d="M216.451 531.394L182.926 536.62L159.971 470.334L155.786 458.24L98.7729 458.692C95.4465 458.766 92.1418 458.146 89.0774 456.874C86.0129 455.601 83.2583 453.704 80.9958 451.309C78.7332 448.913 77.014 446.073 75.9519 442.977C74.8898 439.881 74.509 436.599 74.8345 433.347L77.21 414.871L133.618 421.843L170.686 425.844C186.119 428.456 190.857 437.632 194.071 449.42L216.451 531.394Z" fill="#3335CF"/>
<path d="M159.97 470.333L155.785 458.24L163.504 457.98C164.214 462.537 162.375 467.624 159.97 470.333Z" fill="#1B1B43"/>
<path d="M668.783 557.955H22.7471V559H668.783V557.955Z" fill="#1B1B43"/>
<path d="M376.25 267.5V259H329.5V267.5H344.375C349.909 267.5 354.579 271.062 356.339 276H329.5V284.5H356.339C355.466 286.979 353.848 289.127 351.706 290.649C349.564 292.171 347.003 292.992 344.375 293H329.5V303.259L353.241 327H365.259L339.759 301.5H344.375C349.271 301.493 354.015 299.799 357.807 296.702C361.599 293.605 364.207 289.296 365.191 284.5H376.25V276H365.191C364.54 272.907 363.198 270.001 361.264 267.5H376.25Z" fill="#9192FF"/>
</svg>
