<svg width="200" height="200" viewBox="0 0 258 182" fill="none" xmlns="http://www.w3.org/2000/svg">
<g clip-path="url(#clip0_195_142)">
<path d="M131.766 181.614C139.526 181.614 145.816 175.317 145.816 167.55C145.816 159.782 139.526 153.485 131.766 153.485C124.006 153.485 117.716 159.782 117.716 167.55C117.716 175.317 124.006 181.614 131.766 181.614Z" fill="#FF7666"/>
<path d="M215.704 180.824C223.564 178.461 231.921 175.997 238.154 170.379C243.725 165.36 247.486 157.694 245.178 150.166C242.875 142.653 235.977 137.644 228.855 135.152C224.815 133.739 220.589 132.955 216.365 132.339C211.772 131.67 207.16 131.121 202.549 130.593C183.881 128.456 165.143 127.15 146.335 126.676C137.054 126.442 127.775 126.448 118.493 126.583C110.203 126.703 101.473 126.7 93.7827 123.174C87.8026 120.431 82.375 115.442 80.7088 108.885C78.7853 101.316 82.3331 93.6087 87.4224 88.1272C90.105 85.2378 93.2402 82.806 96.4745 80.5699C99.9833 78.144 103.614 75.8899 107.324 73.7859C114.631 69.6438 122.269 66.1187 130.161 63.2472C134.054 61.8302 138.005 60.6077 141.99 59.4799C145.355 58.5276 148.731 57.574 151.983 56.2765C158.27 53.7682 164.25 49.5195 165.848 42.5541C167.363 35.9525 164.809 28.786 160.331 23.8819C155.149 18.2081 147.337 15.7209 139.848 15.3185C131.439 14.8667 123.225 16.9732 115.322 19.6466C106.892 22.498 98.6448 25.7766 90.0375 28.0862C81.5021 30.3743 72.8017 31.9932 64.0151 32.9282C59.7137 33.3867 55.2824 33.9044 50.9555 33.5534C47.3291 33.2592 43.7213 32.1917 41.0487 29.6155C38.7571 27.4065 37.392 24.3707 37.8613 21.1669C37.9466 20.585 38.8297 20.8324 38.7449 21.4108C38.1736 25.3106 40.8219 28.9042 44.0854 30.7451C47.857 32.8725 52.4466 32.8755 56.6457 32.6321C65.7506 32.0817 74.7939 30.7731 83.6818 28.7199C92.4152 26.7232 100.837 23.8688 109.249 20.8197C117.238 17.9238 125.405 15.0973 133.941 14.4701C141.346 13.9258 149.137 15.0058 155.589 18.8799C161.259 22.2847 165.428 27.9629 166.757 34.4786C168.055 40.8457 166.257 47.2543 161.442 51.6975C156.457 56.2979 149.621 58.2647 143.251 60.0761C135.172 62.3736 127.265 65.0592 119.612 68.5463C111.855 72.0708 104.415 76.2575 97.3759 81.0599C90.581 85.708 83.8752 91.5564 81.7261 99.8485C80.725 103.711 80.9099 107.808 82.5849 111.456C84.0742 114.7 86.5271 117.429 89.3845 119.534C96.2023 124.555 104.795 125.586 113.03 125.689C122.279 125.804 131.529 125.492 140.781 125.644C159.637 125.953 178.454 127.102 197.233 129.09C201.938 129.589 206.638 130.14 211.331 130.743C215.553 131.286 219.789 131.826 223.939 132.79C231.32 134.505 238.501 137.802 243.088 144.066C245.124 146.781 246.385 149.998 246.737 153.374C247.058 156.898 246.197 160.428 244.605 163.562C241.083 170.5 234.485 174.912 227.478 177.812C223.725 179.364 219.832 180.541 215.947 181.709C215.381 181.879 215.139 180.994 215.704 180.824L215.704 180.824Z" fill="#F2F2F2"/>
<path d="M38.4529 28.5874C42.5015 28.5874 45.7836 25.3021 45.7836 21.2494C45.7836 17.1968 42.5015 13.9115 38.4529 13.9115C34.4043 13.9115 31.1223 17.1968 31.1223 21.2494C31.1223 25.3021 34.4043 28.5874 38.4529 28.5874Z" fill="#F2F2F2"/>
<path d="M89.3094 42.499C93.358 42.499 96.64 39.2137 96.64 35.1611C96.64 31.1084 93.358 27.8231 89.3094 27.8231C85.2608 27.8231 81.9788 31.1084 81.9788 35.1611C81.9788 39.2137 85.2608 42.499 89.3094 42.499Z" fill="#F2F2F2"/>
<path d="M132.377 14.6759C136.425 14.6759 139.707 11.3906 139.707 7.33795C139.707 3.28531 136.425 0 132.377 0C128.328 0 125.046 3.28531 125.046 7.33795C125.046 11.3906 128.328 14.6759 132.377 14.6759Z" fill="#F2F2F2"/>
<path d="M159.256 45.8622C163.304 45.8622 166.586 42.5769 166.586 38.5242C166.586 34.4716 163.304 31.1863 159.256 31.1863C155.207 31.1863 151.925 34.4716 151.925 38.5242C151.925 42.5769 155.207 45.8622 159.256 45.8622Z" fill="#F2F2F2"/>
<path d="M122.908 81.9404C126.957 81.9404 130.239 78.6551 130.239 74.6025C130.239 70.5498 126.957 67.2645 122.908 67.2645C118.859 67.2645 115.577 70.5498 115.577 74.6025C115.577 78.6551 118.859 81.9404 122.908 81.9404Z" fill="#F2F2F2"/>
<path d="M76.7862 99.368C80.8348 99.368 84.1168 96.0827 84.1168 92.0301C84.1168 87.9775 80.8348 84.6921 76.7862 84.6921C72.7376 84.6921 69.4556 87.9775 69.4556 92.0301C69.4556 96.0827 72.7376 99.368 76.7862 99.368Z" fill="#F2F2F2"/>
<path d="M125.657 126.58C129.706 126.58 132.988 123.294 132.988 119.242C132.988 115.189 129.706 111.904 125.657 111.904C121.608 111.904 118.326 115.189 118.326 119.242C118.326 123.294 121.608 126.58 125.657 126.58Z" fill="#F2F2F2"/>
<path d="M178.193 141.867C182.242 141.867 185.524 138.582 185.524 134.529C185.524 130.476 182.242 127.191 178.193 127.191C174.145 127.191 170.863 130.476 170.863 134.529C170.863 138.582 174.145 141.867 178.193 141.867Z" fill="#F2F2F2"/>
<path d="M239.587 138.504C243.636 138.504 246.918 135.218 246.918 131.166C246.918 127.113 243.636 123.828 239.587 123.828C235.539 123.828 232.257 127.113 232.257 131.166C232.257 135.218 235.539 138.504 239.587 138.504Z" fill="#F2F2F2"/>
<path d="M130.261 20.792C108.302 20.9472 90.3223 38.8096 90.0104 60.7888C90.0075 60.9917 90.0062 62.4186 90.0064 64.2848C90.0065 67.0211 91.0924 69.6452 93.0253 71.5801C94.9581 73.5151 97.5796 74.6022 100.313 74.6025H100.313C101.668 74.6022 103.01 74.3347 104.262 73.8151C105.513 73.2956 106.651 72.5342 107.608 71.5746C108.566 70.6149 109.325 69.4758 109.843 68.2222C110.361 66.9687 110.626 65.6254 110.625 64.269C110.624 62.9995 110.624 62.1208 110.624 62.0669C110.623 58.67 111.506 55.3315 113.185 52.3797C114.864 49.4279 117.282 46.9645 120.201 45.2319C123.12 43.4992 126.439 42.5569 129.832 42.4978C133.225 42.4386 136.575 43.2646 139.552 44.8945C142.529 46.5244 145.031 48.902 146.812 51.7935C148.593 54.685 149.591 57.9907 149.709 61.3855C149.826 64.7803 149.059 68.1473 147.482 71.1551C145.905 74.163 143.573 76.7082 140.716 78.5404L140.72 78.5447C140.72 78.5447 126.05 87.9983 121.577 100.967L121.581 100.968C120.794 103.625 120.396 106.381 120.398 109.152C120.398 110.291 120.465 120.257 120.594 128.346C120.639 131.137 121.779 133.799 123.767 135.756C125.755 137.714 128.432 138.81 131.22 138.81H131.22C132.622 138.81 134.009 138.532 135.303 137.993C136.596 137.455 137.771 136.665 138.759 135.67C139.746 134.675 140.528 133.495 141.058 132.196C141.588 130.898 141.857 129.508 141.848 128.105C141.803 120.697 141.779 112.071 141.779 111.445C141.779 103.482 149.453 95.5479 155.757 90.3738C163.016 84.4157 168.24 76.2963 170.338 67.1372C170.802 65.2516 171.058 63.3206 171.101 61.3789C171.101 56.0242 170.043 50.7223 167.987 45.7789C165.931 40.8354 162.918 36.3481 159.121 32.5754C155.325 28.8027 150.821 25.8192 145.867 23.7969C140.914 21.7745 135.61 20.7533 130.261 20.792Z" fill="#FF7666"/>
<path d="M257.636 182H0.363611C0.267338 182 0.175105 181.961 0.107128 181.893C0.0391515 181.825 0.000976562 181.732 0.000976562 181.636C0.000976562 181.54 0.0391515 181.447 0.107128 181.379C0.175105 181.311 0.267338 181.272 0.363611 181.272H257.636C257.733 181.272 257.825 181.31 257.893 181.379C257.962 181.447 258 181.539 258 181.636C258 181.733 257.962 181.825 257.893 181.893C257.825 181.962 257.733 182 257.636 182Z" fill="#3F3D56"/>
<path d="M191.955 83.4679C197.016 83.4679 201.119 79.3613 201.119 74.2955C201.119 69.2297 197.016 65.123 191.955 65.123C186.895 65.123 182.792 69.2297 182.792 74.2955C182.792 79.3613 186.895 83.4679 191.955 83.4679Z" fill="#2F2E41"/>
<path d="M175.022 177.985H171.278L169.496 163.527H175.023L175.022 177.985Z" fill="#A0616A"/>
<path d="M168.603 176.914H175.825V181.465H164.056C164.056 180.867 164.174 180.276 164.402 179.723C164.631 179.171 164.965 178.669 165.388 178.247C165.81 177.824 166.311 177.489 166.863 177.26C167.415 177.031 168.006 176.914 168.603 176.914Z" fill="#2F2E41"/>
<path d="M204.04 177.985H200.295L198.513 163.527H204.04L204.04 177.985Z" fill="#A0616A"/>
<path d="M197.62 176.914H204.842V181.465H193.073C193.073 180.867 193.191 180.276 193.419 179.723C193.648 179.171 193.983 178.669 194.405 178.247C194.827 177.824 195.328 177.489 195.88 177.26C196.432 177.031 197.023 176.914 197.62 176.914Z" fill="#2F2E41"/>
<path d="M190.563 83.5215C194.706 83.5215 198.065 80.1594 198.065 76.012C198.065 71.8647 194.706 68.5026 190.563 68.5026C186.419 68.5026 183.061 71.8647 183.061 76.012C183.061 80.1594 186.419 83.5215 190.563 83.5215Z" fill="#A0616A"/>
<path d="M195.034 107.747L198.391 100.027C199.206 98.2162 199.44 96.1965 199.059 94.2469C198.679 92.2972 197.704 90.5138 196.268 89.1426C195.973 88.8508 195.66 88.5781 195.33 88.3263C193.674 87.0293 191.633 86.3224 189.53 86.3175C188.116 86.323 186.72 86.6338 185.437 87.2286C185.327 87.2776 185.22 87.3295 185.11 87.3815C184.899 87.4824 184.692 87.5925 184.49 87.7056C183.175 88.4614 182.056 89.5159 181.223 90.7842C180.39 92.0524 179.866 93.4989 179.695 95.0069L178.213 107.432C177.841 108.408 164.548 143.63 169.197 170.52C169.246 170.808 169.386 171.071 169.596 171.273C169.806 171.475 170.075 171.605 170.363 171.643L175.076 172.285C175.421 172.332 175.77 172.247 176.054 172.046C176.338 171.846 176.535 171.546 176.607 171.205L184.515 133.473C184.564 133.239 184.69 133.027 184.873 132.873C185.057 132.719 185.286 132.631 185.525 132.623C185.765 132.615 186 132.687 186.193 132.829C186.386 132.97 186.526 133.172 186.591 133.403L197.765 173.083C197.844 173.371 198.016 173.625 198.254 173.806C198.492 173.987 198.782 174.086 199.081 174.086C199.17 174.085 199.259 174.077 199.347 174.061L205.104 172.951C205.439 172.889 205.738 172.703 205.943 172.431C206.149 172.159 206.245 171.82 206.213 171.481C205.367 162.036 200.871 114.728 195.034 107.747Z" fill="#2F2E41"/>
<path d="M161.408 82.2615C161.356 82.7079 161.402 83.1603 161.544 83.5869C161.685 84.0135 161.918 84.4038 162.227 84.7304C162.536 85.057 162.912 85.3119 163.329 85.4771C163.747 85.6424 164.196 85.714 164.644 85.6869L168.837 95.7742L172.009 91.0674L167.541 82.2099C167.445 81.4592 167.078 80.7696 166.509 80.2718C165.94 79.774 165.207 79.5025 164.452 79.5089C163.696 79.5152 162.968 79.799 162.407 80.3063C161.846 80.8136 161.491 81.5093 161.408 82.2614L161.408 82.2615Z" fill="#A0616A"/>
<path d="M190.147 117.904C190.592 117.851 191.021 117.701 191.403 117.463C191.784 117.226 192.109 116.908 192.354 116.532C192.6 116.155 192.76 115.73 192.823 115.285C192.886 114.84 192.851 114.386 192.72 113.956L201.543 107.524L196.231 105.533L188.667 111.946C187.96 112.214 187.376 112.732 187.025 113.402C186.674 114.073 186.581 114.849 186.763 115.583C186.946 116.317 187.391 116.959 188.014 117.387C188.638 117.815 189.397 117.999 190.147 117.904Z" fill="#A0616A"/>
<path d="M175.764 102.499C175.426 102.499 175.088 102.466 174.756 102.4C173.954 102.247 173.201 101.899 172.565 101.386C171.928 100.873 171.428 100.212 171.107 99.4596L165.232 92.2889C165.108 92.1373 165.018 91.9609 164.967 91.7714C164.916 91.582 164.907 91.384 164.939 91.1906C164.971 90.9971 165.044 90.8128 165.153 90.65C165.262 90.4871 165.405 90.3495 165.571 90.2463L169.751 87.6564C169.906 87.5608 170.077 87.4967 170.257 87.4678C170.436 87.4389 170.619 87.4459 170.795 87.4882C170.972 87.5306 171.138 87.6075 171.285 87.7146C171.431 87.8217 171.555 87.9567 171.65 88.112L175.79 94.9406L183.72 89.0743C184.352 88.743 185.081 88.6501 185.775 88.8125C186.469 88.975 187.082 89.3821 187.501 89.9593C187.92 90.5366 188.118 91.2455 188.058 91.9566C187.998 92.6677 187.684 93.3334 187.175 93.8323L179.26 101.059C178.33 101.982 177.073 102.5 175.764 102.499Z" fill="#2F2E41"/>
<path d="M197.191 113.284C197.18 113.284 197.169 113.284 197.158 113.283C196.966 113.279 196.776 113.234 196.602 113.151C196.428 113.068 196.273 112.95 196.147 112.803L192.431 108.464C192.304 108.316 192.211 108.143 192.156 107.956C192.101 107.769 192.086 107.573 192.113 107.38C192.14 107.187 192.207 107.002 192.31 106.838C192.413 106.673 192.55 106.531 192.712 106.423L199.671 101.78L193.367 94.1936C193 93.5816 192.866 92.858 192.988 92.155C193.11 91.452 193.481 90.8164 194.033 90.3645C194.584 89.9126 195.28 89.6744 195.993 89.6936C196.705 89.7127 197.387 89.9879 197.914 90.4688L205.576 97.9635C206.179 98.5149 206.639 99.2045 206.917 99.9732C207.195 100.742 207.283 101.567 207.172 102.377C207.062 103.187 206.757 103.958 206.283 104.624C205.81 105.29 205.181 105.831 204.453 106.2L198.191 112.852C198.062 112.988 197.907 113.097 197.735 113.171C197.563 113.245 197.378 113.284 197.191 113.284Z" fill="#2F2E41"/>
<path d="M188.655 97.2933C188.596 97.2933 188.536 97.2895 188.477 97.282C188.218 97.2505 187.974 97.1454 187.773 96.9791C187.572 96.8127 187.423 96.5922 187.343 96.3437L184.551 87.7738C184.481 87.5572 184.492 87.3225 184.581 87.1131C184.671 86.9038 184.833 86.7339 185.038 86.635L185.128 86.5922C185.211 86.5531 185.292 86.5144 185.375 86.4774C186.677 85.8729 188.095 85.5576 189.53 85.5531C191.393 85.5565 193.215 86.1045 194.772 87.1298C194.981 87.2688 195.126 87.4843 195.178 87.7299C195.229 87.9755 195.182 88.2315 195.047 88.4428L189.809 96.6575C189.686 96.8526 189.516 97.0132 189.314 97.1244C189.112 97.2356 188.886 97.2938 188.655 97.2933Z" fill="#E6E6E6"/>
<path d="M199.18 70.2006C200.836 70.2006 202.178 68.8568 202.178 67.1992C202.178 65.5415 200.836 64.1978 199.18 64.1978C197.524 64.1978 196.181 65.5415 196.181 67.1992C196.181 68.8568 197.524 70.2006 199.18 70.2006Z" fill="#2F2E41"/>
<path d="M188.901 63.9C186.795 63.9 184.775 64.7376 183.285 66.2284C181.796 67.7192 180.959 69.7411 180.959 71.8495V75.2127H185.092L187.068 71.8495L187.661 75.2127H200.202L196.842 71.8495C196.842 69.7411 196.006 67.7192 194.516 66.2284C193.027 64.7376 191.007 63.9 188.901 63.9Z" fill="#2F2E41"/>
<path d="M200.721 65.1433C201.052 64.1055 201.739 63.2178 202.659 62.6365C203.58 62.0552 204.676 61.8174 205.755 61.9649C207.665 62.2847 209.176 63.8222 210.076 65.5394C210.977 67.2567 211.392 69.1786 211.998 71.0208C212.603 72.8631 213.461 74.7154 214.989 75.9079C216.517 77.1005 218.861 77.4239 220.361 76.1972C220.19 77.4757 219.621 78.6679 218.736 79.6052C217.851 80.5425 216.693 81.1774 215.427 81.4202C214.162 81.6629 212.852 81.5012 211.683 80.958C210.514 80.4147 209.546 79.5173 208.914 78.3928C208.123 76.9828 207.918 75.3302 207.683 73.7299C207.449 72.1295 207.144 70.4737 206.198 69.1619C205.253 67.85 203.484 66.9932 201.982 67.5907L200.721 65.1433Z" fill="#2F2E41"/>
<path d="M103.223 69.7223C100.49 69.722 97.8683 68.6348 95.9355 66.6999C94.0026 64.765 92.9167 62.1408 92.9165 59.4045C92.9164 57.5383 92.9177 56.1115 92.9205 55.9085C93.0074 49.5164 94.6156 43.2371 97.6118 37.5916C92.6891 44.3372 89.9824 52.4476 89.8661 60.8005C89.8633 61.0034 89.8619 62.4303 89.8621 64.2965C89.8622 67.0328 90.9482 69.657 92.881 71.5919C94.8139 73.5268 97.4354 74.6139 100.169 74.6143C102.415 74.6134 104.6 73.8787 106.391 72.5216C108.182 71.1646 109.481 69.2595 110.092 67.0957C108.205 68.7898 105.758 69.7254 103.223 69.7223Z" fill="#3F3D56"/>
<path d="M130.959 42.5324C134.12 42.6835 137.196 43.6 139.924 45.2034C142.653 46.8067 144.951 49.0489 146.623 51.7375C148.295 54.4261 149.291 57.4807 149.523 60.639C149.756 63.7974 149.22 66.9651 147.96 69.8702C149.782 67.7283 151.121 65.2184 151.886 62.5115C152.651 59.8046 152.824 56.9644 152.393 54.1846C151.962 51.4047 150.938 48.7505 149.389 46.403C147.841 44.0555 145.805 42.0698 143.42 40.5813C141.035 39.0929 138.358 38.1366 135.57 37.7778C132.783 37.4189 129.951 37.6659 127.268 38.5019C124.584 39.338 122.113 40.7433 120.021 42.6222C117.93 44.5011 116.267 46.8094 115.148 49.3896C117.083 47.111 119.515 45.3077 122.256 44.1188C124.998 42.9299 127.975 42.3871 130.959 42.5324Z" fill="#3F3D56"/>
<path d="M134.13 133.929C131.342 133.93 128.665 132.833 126.677 130.876C124.689 128.918 123.549 126.257 123.504 123.466C123.375 115.377 123.308 105.411 123.308 104.272C123.306 101.501 123.705 98.7443 124.491 96.0876L124.487 96.0866C124.952 94.7531 125.513 93.4553 126.165 92.2034C124.161 94.8769 122.566 97.8345 121.433 100.979L121.437 100.98C120.65 103.636 120.252 106.393 120.253 109.164C120.253 110.303 120.32 120.269 120.45 128.358C120.495 131.149 121.634 133.81 123.622 135.768C125.61 137.725 128.287 138.822 131.076 138.821C133.375 138.821 135.612 138.074 137.452 136.693C139.291 135.313 140.634 133.372 141.278 131.163C139.325 132.946 136.775 133.933 134.13 133.929Z" fill="#3F3D56"/>
<path d="M38.6511 178.124L42.3955 178.124L44.1771 163.666L38.6501 163.666L38.6511 178.124Z" fill="#FFB8B8"/>
<path d="M49.6174 181.604L37.8485 181.605L37.8483 177.053L45.0701 177.053C46.2761 177.053 47.4327 177.532 48.2855 178.386C49.1383 179.239 49.6174 180.397 49.6174 181.604L49.6174 181.604Z" fill="#2F2E41"/>
<path d="M25.2116 178.124L28.956 178.124L30.7377 163.666L25.2107 163.666L25.2116 178.124Z" fill="#FFB8B8"/>
<path d="M36.178 181.604L24.4091 181.605L24.4088 177.053L31.6307 177.053C32.8367 177.053 33.9932 177.532 34.846 178.386C35.6988 179.239 36.1779 180.397 36.178 181.604L36.178 181.604Z" fill="#2F2E41"/>
<path d="M28.4839 173.677L24.8262 173.485C24.6376 173.475 24.4528 173.428 24.2826 173.346C24.1124 173.264 23.9601 173.149 23.8346 173.008C23.709 172.866 23.6128 172.702 23.5513 172.523C23.4899 172.344 23.4645 172.155 23.4766 171.966L27.8483 123.516L47.9803 128.954L49.9199 128.424L43.8544 171.316C43.8027 171.638 43.6426 171.934 43.4006 172.153C43.1586 172.372 42.8491 172.502 42.5232 172.522L38.5803 172.706C38.3831 172.717 38.1858 172.686 38.0009 172.617C37.816 172.548 37.6474 172.441 37.5058 172.303C37.3642 172.165 37.2528 172 37.1784 171.817C37.1041 171.633 37.0686 171.437 37.074 171.239L37.7884 145.496C37.7918 145.377 37.7504 145.261 37.6726 145.171C37.5948 145.081 37.4861 145.024 37.3679 145.01C37.2497 144.996 37.1307 145.027 37.0342 145.097C36.9377 145.166 36.8708 145.27 36.8467 145.386L29.9568 172.541C29.8918 172.863 29.7171 173.152 29.4626 173.36C29.2082 173.568 28.8896 173.681 28.5612 173.68C28.5356 173.68 28.5098 173.679 28.4839 173.677Z" fill="#2F2E41"/>
<path d="M39.3233 83.8727C43.4665 83.8727 46.8253 80.5106 46.8253 76.3632C46.8253 72.2159 43.4665 68.8538 39.3233 68.8538C35.18 68.8538 31.8213 72.2159 31.8213 76.3632C31.8213 80.5106 35.18 83.8727 39.3233 83.8727Z" fill="#FFB8B8"/>
<path d="M26.833 98.4256L27.6578 116.241L27.956 122.722C27.9679 123.004 28.0636 123.277 28.2309 123.504C28.3982 123.731 28.6294 123.904 28.8951 123.999L48.2406 131.014C48.3969 131.072 48.5624 131.101 48.7292 131.099C48.9197 131.1 49.1085 131.063 49.2842 130.989C49.46 130.915 49.6191 130.807 49.752 130.67C49.885 130.534 49.9891 130.372 50.0581 130.194C50.1271 130.016 50.1596 129.826 50.1536 129.635L49.3605 97.6032C49.3084 94.9751 48.342 92.4475 46.6278 90.4563C44.9136 88.465 42.559 87.1348 39.9701 86.6949C39.783 86.6664 39.5926 86.6378 39.4022 86.6124C37.7968 86.4129 36.1673 86.568 34.6283 87.0667C33.0892 87.5654 31.678 88.3956 30.494 89.499C29.2679 90.6278 28.3045 92.0123 27.6719 93.5548C27.0393 95.0974 26.7529 96.7601 26.833 98.4256L26.833 98.4256Z" fill="#CCCCCC"/>
<path d="M57.4819 127.459C57.0243 127.317 56.6063 127.07 56.2611 126.737C55.916 126.404 55.6533 125.996 55.494 125.543C55.3347 125.091 55.2832 124.608 55.3436 124.132C55.404 123.656 55.5747 123.201 55.842 122.803L49.2817 114.071L54.9429 113.721L60.3048 122.067C60.8788 122.511 61.2782 123.143 61.433 123.853C61.5878 124.562 61.488 125.304 61.1513 125.947C60.8145 126.59 60.2622 127.095 59.5912 127.371C58.9203 127.647 58.1735 127.679 57.4819 127.459H57.4819Z" fill="#FFB8B8"/>
<path d="M52.8694 121.223C52.6956 121.153 52.5375 121.048 52.4043 120.916C52.2711 120.784 52.1653 120.627 52.0933 120.453L42.2097 96.8818C42.0157 96.4203 41.9146 95.925 41.9119 95.4244C41.9093 94.9237 42.0052 94.4274 42.1943 93.9639C42.3833 93.5004 42.6618 93.0787 43.0138 92.7229C43.3657 92.3672 43.7842 92.0843 44.2454 91.8906C44.7066 91.6968 45.2014 91.5959 45.7016 91.5937C46.2018 91.5914 46.6975 91.6879 47.1604 91.8775C47.6233 92.0671 48.0444 92.3461 48.3995 92.6987C48.7546 93.0513 49.0369 93.4705 49.2301 93.9323L59.1137 117.504C59.2597 117.853 59.2614 118.247 59.1182 118.597C58.975 118.948 58.6987 119.228 58.3499 119.375L53.9621 121.218C53.7894 121.291 53.6038 121.329 53.4163 121.33C53.2287 121.331 53.0428 121.295 52.8694 121.223L52.8694 121.223Z" fill="#CCCCCC"/>
<path d="M36.9114 120.392L46.4044 102.197C46.5874 101.847 46.9017 101.584 47.2782 101.466C47.6547 101.348 48.0626 101.384 48.4126 101.566L62.1916 108.77C62.5412 108.953 62.8039 109.268 62.922 109.644C63.0402 110.021 63.0041 110.43 62.8219 110.78L53.3289 128.975C53.1459 129.325 52.8316 129.588 52.4551 129.706C52.0786 129.824 51.6706 129.788 51.3207 129.606L37.5417 122.402C37.1921 122.219 36.9294 121.904 36.8113 121.527C36.6931 121.151 36.7291 120.742 36.9114 120.392Z" fill="#3F3D56"/>
<path d="M43.2776 112.079C43.1089 111.63 42.8376 111.227 42.4856 110.902C42.1335 110.577 41.7104 110.338 41.25 110.206C40.7895 110.073 40.3046 110.05 39.8337 110.139C39.3628 110.227 38.9192 110.425 38.5381 110.715L29.4425 104.676L29.427 110.353L38.0667 115.218C38.5436 115.766 39.1979 116.127 39.9146 116.24C40.6314 116.353 41.365 116.21 41.9866 115.835C42.6083 115.461 43.0784 114.879 43.3145 114.192C43.5505 113.505 43.5375 112.757 43.2776 112.079Z" fill="#FFB8B8"/>
<path d="M31.7777 113.356L24.3442 107.462C23.54 107.192 22.8134 106.73 22.2267 106.117C21.64 105.503 21.2107 104.757 20.9757 103.941C20.7407 103.125 20.707 102.264 20.8775 101.432C21.048 100.601 21.4176 99.8227 21.9546 99.1653L28.704 90.311C29.173 89.7373 29.8326 89.3517 30.5623 89.2247C31.2919 89.0977 32.0429 89.2378 32.6778 89.6194C33.3128 90.001 33.7893 90.5986 34.0204 91.3029C34.2514 92.0073 34.2215 92.7713 33.9361 93.4554L28.5958 102.2L36.4438 105.926C36.6263 106.013 36.7884 106.137 36.9193 106.291C37.0502 106.445 37.1469 106.625 37.2032 106.819C37.2594 107.013 37.2739 107.217 37.2455 107.417C37.2172 107.618 37.1468 107.81 37.0389 107.98L33.8709 112.999C33.7638 113.168 33.6224 113.313 33.4557 113.425C33.2891 113.536 33.101 113.611 32.9037 113.644C32.8958 113.646 32.8879 113.647 32.88 113.648C32.6861 113.678 32.4882 113.667 32.2986 113.616C32.109 113.566 31.9317 113.478 31.7777 113.356Z" fill="#CCCCCC"/>
<path d="M33.6546 81.3917C33.6224 81.2975 33.6122 81.1971 33.6247 81.0983C33.6373 80.9994 33.6723 80.9048 33.727 80.8216C33.7817 80.7384 33.8548 80.6689 33.9405 80.6183C34.0262 80.5677 34.1224 80.5374 34.2216 80.5298C34.4248 80.5409 34.6236 80.593 34.8061 80.6832C34.9886 80.7733 35.1509 80.8995 35.2834 81.0541C35.5548 81.3675 35.8709 81.6392 36.2214 81.8604C36.5843 82.0435 37.0765 82.0175 37.2834 81.6684C37.4777 81.3405 37.3446 80.9015 37.2269 80.5207C36.9277 79.5519 36.7602 78.5472 36.7291 77.5336C36.6952 76.4022 36.8547 75.2215 37.4804 74.3391C38.2879 73.2003 39.7319 72.7679 41.0985 72.7993C42.4651 72.8306 43.8094 73.2529 45.1631 73.5198C45.6304 73.612 46.1797 73.6591 46.4922 73.2965C46.8245 72.911 46.7025 72.2871 46.5611 71.7667C46.1943 70.416 45.8052 69.0196 44.9529 67.9288C44.0314 66.7954 42.7151 66.0536 41.269 65.8528C39.8807 65.6806 38.4714 65.8408 37.157 66.3201C35.0155 66.9957 33.1312 68.3097 31.7559 70.0864C30.3383 71.9759 29.7257 74.3504 30.0521 76.6907C30.3711 78.729 31.4501 80.5704 33.0717 81.8439L33.6546 81.3917Z" fill="#2F2E41"/>
<path d="M128.67 178.184C126.674 177.314 124.908 175.991 123.51 174.32C122.112 172.65 121.121 170.677 120.616 168.557C120.11 166.437 120.103 164.229 120.596 162.107C121.089 159.984 122.068 158.005 123.456 156.326C121.847 157.502 120.506 159.007 119.523 160.742C118.539 162.476 117.935 164.4 117.751 166.386C117.567 168.372 117.808 170.374 118.456 172.26C119.104 174.146 120.146 175.872 121.511 177.324C122.877 178.776 124.535 179.921 126.377 180.683C128.218 181.444 130.2 181.805 132.192 181.741C134.183 181.677 136.138 181.189 137.927 180.311C139.716 179.433 141.298 178.184 142.567 176.647C140.587 178.096 138.262 179.001 135.823 179.27C133.385 179.54 130.919 179.165 128.67 178.184Z" fill="#3F3D56"/>
</g>
<defs>
<clipPath id="clip0_195_142">
<rect width="258" height="182" fill="white"/>
</clipPath>
</defs>
</svg>
