<svg width="200" height="200" viewBox="0 0 152 176" fill="none" xmlns="http://www.w3.org/2000/svg">
<g clip-path="url(#clip0_209_122)">
<path d="M152 67.1757C152 67.6758 151.994 68.1749 151.982 68.6733C151.977 68.9991 151.967 69.3248 151.955 69.6506C151.952 69.7441 151.95 69.835 151.945 69.9284C151.937 70.1077 151.929 70.2845 151.922 70.4588C151.866 71.623 151.78 72.7788 151.664 73.9261C151.659 73.9817 151.654 74.0373 151.649 74.0903C151.637 74.2039 151.626 74.3176 151.611 74.4312C151.576 74.7721 151.538 75.1131 151.495 75.449C151.467 75.6762 151.44 75.901 151.409 76.1283C151.394 76.2369 151.379 76.3455 151.366 76.4515C151.349 76.5702 151.334 76.6864 151.316 76.8026C151.308 76.8531 151.301 76.9036 151.293 76.9566C151.268 77.1283 151.243 77.3026 151.215 77.4743C151.182 77.6991 151.147 77.9213 151.109 78.1461C151.074 78.3683 151.036 78.5906 150.995 78.8128C150.958 79.035 150.917 79.2572 150.877 79.4795C150.836 79.7042 150.793 79.9265 150.751 80.1487C150.533 81.2498 150.291 82.3416 150.023 83.4242C149.917 83.8459 149.809 84.2668 149.698 84.6869C149.514 85.3687 149.319 86.0472 149.115 86.7223C149.057 86.9092 148.999 87.0961 148.94 87.2804C148.875 87.4926 148.807 87.7047 148.738 87.9143C148.67 88.1265 148.602 88.3361 148.531 88.5457C148.461 88.7553 148.39 88.9649 148.317 89.1745C148.246 89.3816 148.173 89.5912 148.097 89.7983C148.024 90.0079 147.948 90.215 147.873 90.4221C147.794 90.6291 147.719 90.8362 147.64 91.0408C147.484 91.4549 147.323 91.8649 147.158 92.2707C147.077 92.4752 146.994 92.6798 146.908 92.8818C146.573 93.695 146.221 94.4989 145.853 95.2935C145.772 95.4703 145.691 95.6471 145.608 95.8214C145.553 95.9375 145.5 96.0512 145.444 96.1673C145.351 96.3593 145.26 96.5487 145.166 96.7381C145.073 96.93 144.977 97.1245 144.879 97.3189C144.684 97.7028 144.486 98.0858 144.285 98.468C144.086 98.8493 143.881 99.2307 143.672 99.6069C143.462 99.9832 143.25 100.36 143.036 100.731C142.927 100.918 142.819 101.105 142.71 101.289C142.273 102.029 141.822 102.76 141.357 103.483C140.895 104.203 140.418 104.914 139.926 105.617C139.681 105.968 139.431 106.319 139.178 106.665C139.077 106.804 138.976 106.941 138.875 107.077C138.752 107.249 138.623 107.418 138.494 107.587C133.023 114.867 126.128 120.957 118.23 125.486C110.331 130.015 101.594 132.889 92.5493 133.933C83.5049 134.977 74.3429 134.169 65.6208 131.557C56.8986 128.946 48.7989 124.587 41.8146 118.744C41.0774 118.128 40.3537 117.497 39.6435 116.85C35.0861 112.699 31.1186 107.942 27.8517 102.713C27.4453 102.059 27.0465 101.397 26.6627 100.731C20.7721 90.5309 17.6796 78.9554 17.6983 67.1757C17.6983 30.075 47.7622 1.23305e-05 84.8492 1.23305e-05C96.0087 -0.00675372 106.994 2.77111 116.809 8.08207C126.625 13.393 134.962 21.0694 141.064 30.416C141.175 30.5852 141.286 30.7569 141.397 30.9286C147.465 40.3748 151.053 51.199 151.831 62.4002C151.945 63.976 152.001 65.5679 152 67.1757Z" fill="#F2F2F2"/>
<path d="M141.397 30.9286H48.3834C48.3165 30.9269 48.2529 30.8992 48.2062 30.8513C48.1595 30.8034 48.1333 30.7391 48.1333 30.6722C48.1333 30.6053 48.1595 30.541 48.2062 30.4931C48.2529 30.4452 48.3165 30.4175 48.3834 30.4159H141.064C141.175 30.5851 141.286 30.7568 141.397 30.9286Z" fill="#CACACA"/>
<path d="M54.0261 27.3398C55.5494 27.3398 56.7842 26.0769 56.7842 24.5192C56.7842 22.9614 55.5494 21.6986 54.0261 21.6986C52.5029 21.6986 51.2681 22.9614 51.2681 24.5192C51.2681 26.0769 52.5029 27.3398 54.0261 27.3398Z" fill="#3F3D56"/>
<path d="M63.554 27.3398C65.0772 27.3398 66.312 26.0769 66.312 24.5192C66.312 22.9614 65.0772 21.6986 63.554 21.6986C62.0307 21.6986 60.7959 22.9614 60.7959 24.5192C60.7959 26.0769 62.0307 27.3398 63.554 27.3398Z" fill="#3F3D56"/>
<path d="M73.0818 27.3398C74.605 27.3398 75.8399 26.0769 75.8399 24.5192C75.8399 22.9614 74.605 21.6986 73.0818 21.6986C71.5586 21.6986 70.3237 22.9614 70.3237 24.5192C70.3237 26.0769 71.5586 27.3398 73.0818 27.3398Z" fill="#3F3D56"/>
<path d="M151.831 62.4001C149.405 63.5037 147.231 65.2867 145.333 67.7388C143.139 70.5749 140.789 72.5725 138.388 73.9261C138.275 73.9892 138.163 74.0498 138.05 74.1104C135.898 75.2707 133.538 75.9942 131.105 76.2394C130.37 76.3134 129.632 76.3488 128.894 76.3454C128.586 76.3429 128.278 76.3353 127.972 76.3202C127.248 76.2848 126.531 76.2141 125.826 76.1131C121.782 75.5373 118.124 73.9817 115.415 72.5195C111.704 70.4717 107.675 69.0615 103.497 68.3475C102.75 68.2237 102.005 68.1269 101.261 68.0571C100.953 68.0268 100.647 68.004 100.342 67.9838C99.5921 67.9333 98.8432 67.9098 98.0951 67.9131C97.7114 67.9157 97.3302 67.9232 96.9465 67.9384C90.499 68.1909 82.09 70.0294 74.5494 76.4515C74.4484 76.5374 74.3499 76.6232 74.249 76.7091C74.1556 76.7899 74.0622 76.8733 73.9688 76.9566C72.7752 78.0179 71.6504 79.1541 70.6011 80.3583C69.3982 81.7375 68.2851 83.1926 67.2688 84.7146C66.0619 86.4965 64.6523 88.1322 63.0681 89.5886C60.7249 91.7518 58.8485 94.3712 57.554 97.2861C56.2594 100.201 55.5741 103.35 55.5401 106.539V106.665C55.5376 106.802 55.5376 106.941 55.5376 107.077H138.878C138.979 106.941 139.08 106.804 139.178 106.665C139.431 106.319 139.681 105.968 139.926 105.617C140.418 104.915 140.895 104.204 141.357 103.483C141.824 102.761 142.275 102.03 142.71 101.289C142.819 101.104 142.927 100.918 143.036 100.731C143.25 100.359 143.462 99.9832 143.672 99.6069C143.881 99.2306 144.086 98.8493 144.285 98.468C144.487 98.0866 144.685 97.7036 144.879 97.3189C144.977 97.1244 145.073 96.93 145.166 96.7381C145.26 96.5487 145.351 96.3592 145.444 96.1673C145.5 96.0511 145.553 95.9375 145.608 95.8213C145.691 95.6471 145.772 95.4703 145.853 95.2935C146.222 94.498 146.573 93.6941 146.908 92.8818C146.994 92.6797 147.077 92.4752 147.158 92.2706C147.322 91.864 147.483 91.4541 147.64 91.0408C147.719 90.8362 147.794 90.6291 147.873 90.422C147.948 90.2149 148.024 90.0079 148.097 89.7983C148.173 89.5912 148.246 89.3816 148.317 89.1745C148.39 88.9649 148.461 88.7553 148.531 88.5457C148.602 88.336 148.67 88.1264 148.738 87.9143C148.807 87.7047 148.875 87.4926 148.94 87.2804C148.999 87.0961 149.057 86.9092 149.115 86.7223C149.319 86.048 149.514 85.3695 149.698 84.6868C149.809 84.2676 149.917 83.8467 150.023 83.4241C150.291 82.3433 150.533 81.2515 150.75 80.1487C150.793 79.9265 150.836 79.7042 150.877 79.4795C150.917 79.2572 150.958 79.035 150.995 78.8128C151.036 78.5905 151.074 78.3683 151.109 78.1461C151.147 77.9213 151.182 77.6991 151.215 77.4743C151.243 77.3026 151.268 77.1283 151.293 76.9566C151.301 76.9036 151.308 76.8531 151.316 76.8026C151.334 76.6839 151.349 76.5677 151.364 76.4515C151.379 76.3429 151.394 76.2343 151.409 76.1283C151.44 75.901 151.467 75.6762 151.495 75.4489C151.538 75.1131 151.576 74.7721 151.611 74.4312H151.614C151.624 74.3176 151.637 74.2039 151.649 74.0903C151.654 74.0372 151.659 73.9817 151.664 73.9261C151.78 72.7796 151.866 71.6238 151.922 70.4587C151.929 70.2845 151.937 70.1077 151.945 69.9284C151.95 69.835 151.952 69.7441 151.955 69.6506C151.967 69.3248 151.977 68.9991 151.982 68.6733C151.995 68.1758 152.001 67.6766 152 67.1757C152 65.5696 151.944 63.9777 151.831 62.4001Z" fill="#FF7666"/>
<path d="M73.6876 79.3369H72.7666V106.343H73.6876V79.3369Z" fill="#3F3D56"/>
<path d="M101.262 66.7239H100.341V106.343H101.262V66.7239Z" fill="#3F3D56"/>
<path d="M128.893 75.0164H127.972V106.343H128.893V75.0164Z" fill="#3F3D56"/>
<path d="M100.858 70.1776C102.414 70.1776 103.676 68.9156 103.676 67.3589C103.676 65.8022 102.414 64.5403 100.858 64.5403C99.302 64.5403 98.0405 65.8022 98.0405 67.3589C98.0405 68.9156 99.302 70.1776 100.858 70.1776Z" fill="#3F3D56"/>
<path d="M128.489 78.0094C130.046 78.0094 131.307 76.7474 131.307 75.1907C131.307 73.634 130.046 72.3721 128.489 72.3721C126.933 72.3721 125.672 73.634 125.672 75.1907C125.672 76.7474 126.933 78.0094 128.489 78.0094Z" fill="#3F3D56"/>
<path d="M72.7219 79.8827C74.278 79.8827 75.5395 78.6207 75.5395 77.064C75.5395 75.5073 74.278 74.2454 72.7219 74.2454C71.1658 74.2454 69.9043 75.5073 69.9043 77.064C69.9043 78.6207 71.1658 79.8827 72.7219 79.8827Z" fill="#3F3D56"/>
<path d="M139.178 106.665C139.077 106.804 138.976 106.941 138.875 107.077C138.752 107.249 138.623 107.418 138.494 107.587H55.4468V106.665H139.178Z" fill="#3F3D56"/>
<path d="M32.0899 173.022H34.7585L36.028 162.724L32.0894 162.724L32.0899 173.022Z" fill="#FFB8B8"/>
<path d="M39.0326 173.131C38.7228 172.818 38.3537 172.57 37.9471 172.402C37.54 172.235 37.1045 172.149 36.6646 172.149L35.0919 170.957L35.0086 170.99L32.161 172.149H31.4087V175.609H40.0146V175.5C40.0159 175.06 39.9298 174.624 39.7612 174.217C39.5926 173.811 39.3449 173.442 39.0326 173.131Z" fill="#2F2E41"/>
<path d="M44.4883 173.022H47.1569L48.4265 162.724L44.4878 162.724L44.4883 173.022Z" fill="#FFB8B8"/>
<path d="M51.4326 173.131C51.1223 172.818 50.7523 172.57 50.3445 172.402C49.9377 172.234 49.502 172.149 49.0621 172.149L47.4919 170.957L47.406 170.992L44.5584 172.149H43.8062L43.8087 175.609H52.4121V175.5C52.4133 175.06 52.3273 174.624 52.1592 174.218C51.9911 173.811 51.7441 173.442 51.4326 173.131Z" fill="#2F2E41"/>
<path d="M46.6212 116.669L25.6533 117.216L26.018 127.43C26.018 127.43 25.6533 130.166 26.3826 130.896C27.112 131.626 27.4766 131.625 27.112 132.902C26.7473 134.179 28.674 136.264 28.44 136.499C28.2059 136.733 27.6589 138.009 27.6589 138.009L29.4822 148.406C29.4822 148.406 30.7585 166.463 31.1232 166.828C31.4879 167.193 31.8525 166.828 31.4879 167.74C31.1232 168.652 30.7585 168.287 31.1232 168.652C31.4462 169 31.7505 169.366 32.0349 169.746H36.4431C36.4431 169.746 36.7754 167.922 36.7754 167.74C36.7754 167.558 37.1401 166.463 37.1401 166.281C37.1401 166.099 36.8178 165.776 36.8178 165.776C36.7064 165.405 36.6312 165.025 36.5931 164.639C36.5931 164.275 35.4991 150.23 35.4991 150.23L37.6871 131.99L42.9746 149.865C42.9746 149.865 42.9746 165.551 43.3393 165.916C43.7039 166.281 43.704 166.099 43.5216 166.828C43.3393 167.558 42.61 167.375 43.157 167.922C43.7039 168.47 43.8863 167.558 43.704 168.47L43.5216 169.382L48.9915 169.46C48.9915 169.46 49.7208 167.922 49.3562 167.375C48.9915 166.828 49.0134 166.977 49.4583 166.082C49.9032 165.187 50.0855 165.004 49.9032 164.822C49.7208 164.639 49.7208 163.669 49.7208 163.669L48.8092 146.217C48.8092 146.217 48.6268 127.795 48.6268 127.248C48.6131 126.966 48.665 126.685 48.7783 126.427V125.685L48.0799 123.053L46.6212 116.669Z" fill="#2F2E41"/>
<path d="M70.3504 76.8876C70.2497 77.1678 70.0887 77.4225 69.8789 77.6337C69.6691 77.8449 69.4156 78.0076 69.1362 78.1102C68.8567 78.2128 68.5582 78.2529 68.2616 78.2276C67.9651 78.2023 67.6776 78.1123 67.4196 77.9638L58.3179 85.5918L57.8232 81.8632L66.7255 75.0459C67.0035 74.6288 67.4248 74.3282 67.9096 74.2011C68.3943 74.074 68.9089 74.1291 69.3557 74.3561C69.8025 74.5832 70.1505 74.9662 70.3339 75.4328C70.5172 75.8994 70.5231 76.417 70.3504 76.8876H70.3504Z" fill="#FFB8B8"/>
<path d="M30.2172 80.0359C33.3388 80.0359 35.8694 77.5044 35.8694 74.3816C35.8694 71.2588 33.3388 68.7273 30.2172 68.7273C27.0955 68.7273 24.5649 71.2588 24.5649 74.3816C24.5649 77.5044 27.0955 80.0359 30.2172 80.0359Z" fill="#FFB8B8"/>
<path d="M34.7994 68.7544C34.2732 67.4997 32.0181 66.7548 28.4496 66.8669C24.8811 66.9791 24.2562 71.2361 24.2562 71.2361C22.2907 73.0688 25.464 78.7907 26.0145 78.0018C26.5651 77.2129 27.4894 77.9586 27.4894 77.9586L26.6085 73.002C27.5387 73.36 28.5392 73.6004 29.4141 73.1833L27.9645 72.4079L31.5689 72.8566L30.0824 71.7126C30.1185 71.7007 30.1545 71.6883 30.1906 71.6761C30.7867 71.9333 31.4251 72.0783 32.0738 72.1039C32.8316 72.0982 33.637 71.743 33.9546 71.0546C34.039 70.8656 34.0848 70.6615 34.0891 70.4545C35.134 70.7939 35.6827 72.0185 35.6827 72.0185C35.4843 70.9067 35.1887 69.8144 34.7994 68.7544Z" fill="#2F2E41"/>
<path d="M34.7413 80.2887C33.479 80.2887 32.6661 80.463 30.7021 80.7938C27.077 81.405 29.248 84.8507 29.248 84.8507C29.248 84.8507 29.4121 84.7674 28.9678 84.8507C28.5235 84.9341 27.0088 86.2448 27.0088 86.2448L24.3 88.6515C20.218 91.8562 21.1318 96.8565 21.1318 96.8565L27.0845 102.849L24.4768 114.873C24.4768 114.873 25.585 116.658 25.0119 117.459C24.4389 118.259 30.0609 118.029 30.0609 118.029C33.941 119.759 47.611 118.297 47.611 118.297C47.4217 117.802 45.5914 113.966 45.5914 113.966C46.3866 112.592 45.6293 110.607 45.6293 110.607C45.6293 110.607 44.8391 101.218 44.3342 99.9198C43.8293 98.6218 45.6268 91.5885 46.8082 91.6643C47.9897 91.74 55.6211 87.8459 55.6211 87.8459C55.6211 87.8459 55.4293 87.5403 57.9487 86.5099C59.3958 85.9411 60.7226 85.104 61.8591 84.0426L62.8941 81.9743C62.3968 82.1662 60.718 78.9994 60.718 78.9994L59.9859 79.2786L59.5618 79.156C59.5618 79.156 56.2522 80.0979 55.5757 80.7848C54.8991 81.4718 54.6719 81.2798 54.061 81.4339C53.4501 81.5879 53.3743 82.0172 53.1825 81.9693C52.9906 81.9213 52.6498 82.5021 52.3822 82.4264C52.1146 82.3506 51.5416 82.6562 51.1604 82.7319C50.7792 82.8077 48.0704 83.9542 48.0704 83.9542C46.3942 83.1057 41.8501 83.4491 41.8501 83.4491C41.8501 83.4491 40.3632 82.5728 39.9416 83.4491C39.8282 83.6981 39.6461 83.9095 39.4167 84.0585C39.1872 84.2075 38.9201 84.2878 38.6466 84.2901L36.834 83.5148C36.7287 83.8995 34.7516 79.89 34.7413 80.2887Z" fill="#3F3D56"/>
<path d="M14.4729 161.876L14.2211 156.21C11.5953 154.806 8.66671 154.065 5.68945 154.05C9.78704 157.401 9.27496 163.861 12.053 168.368C12.9303 169.767 14.1109 170.951 15.5076 171.831C16.9042 172.711 18.481 173.266 20.121 173.454L23.55 175.554C24.0206 172.93 23.9168 170.236 23.246 167.655C22.5751 165.075 21.3531 162.672 19.6642 160.609C18.7052 159.462 17.6056 158.44 16.3913 157.567C15.5701 159.734 14.4729 161.876 14.4729 161.876Z" fill="#F2F2F2"/>
<path d="M1.32905e-06 175.699C-0.00011633 175.739 0.00757934 175.778 0.0226359 175.815C0.0376924 175.851 0.0598141 175.884 0.0877353 175.912C0.115656 175.94 0.14882 175.962 0.185323 175.977C0.221825 175.992 0.260944 176 0.300429 176H71.8161C71.8958 176 71.9722 175.968 72.0285 175.912C72.0849 175.856 72.1165 175.779 72.1165 175.699C72.1165 175.62 72.0849 175.543 72.0285 175.487C71.9722 175.431 71.8958 175.399 71.8161 175.399H0.300429C0.260944 175.399 0.221825 175.406 0.185323 175.422C0.148821 175.437 0.115656 175.459 0.0877353 175.487C0.0598144 175.515 0.0376929 175.548 0.0226359 175.584C0.00757887 175.621 -0.00011499 175.66 1.32905e-06 175.699Z" fill="#CCCCCC"/>
<path d="M74.5967 76.4514H73.082V76.9565H74.5967V76.4514Z" fill="#3F3D56"/>
<path d="M77.6543 76.4515V76.9566H80.714V76.4515H77.6543ZM83.7736 76.4515V76.9566H86.8307V76.4515H83.7736ZM89.8904 76.4515V76.9566H92.9501V76.4515H89.8904ZM96.0072 76.4515V76.9566H99.0669V76.4515H96.0072ZM102.127 76.4515V76.9566H105.184V76.4515H102.127ZM108.243 76.4515V76.9566H111.303V76.4515H108.243ZM114.36 76.4515V76.9566H117.42V76.4515H114.36ZM120.479 76.4515V76.9566H123.537V76.4515H120.479ZM126.596 76.4515V76.9566H129.656V76.4515H126.596ZM132.713 76.4515V76.9566H135.773V76.4515H132.713ZM138.83 76.4515V76.9566H141.889V76.4515H138.83ZM144.949 76.4515V76.9566H148.006V76.4515H144.949ZM151.066 76.4515V76.9566H151.293C151.301 76.9036 151.308 76.8531 151.316 76.8026C151.333 76.6864 151.349 76.5702 151.366 76.4515H151.066Z" fill="#3F3D56"/>
<path d="M100.851 66.3497H99.3364V66.8548H100.851V66.3497Z" fill="#3F3D56"/>
<path d="M103.909 66.3499V66.8549H106.968V66.3499H103.909ZM110.028 66.3499V66.8549H113.085V66.3499H110.028ZM116.145 66.3499V66.8549H119.204V66.3499H116.145ZM122.262 66.3499V66.8549H125.321V66.3499H122.262ZM128.381 66.3499V66.8549H131.438V66.3499H128.381ZM134.498 66.3499V66.8549H137.557V66.3499H134.498ZM140.614 66.3499V66.8549H143.674V66.3499H140.614ZM146.734 66.3499V66.8549H149.791V66.3499H146.734Z" fill="#3F3D56"/>
<path d="M128.873 73.926H127.358V74.4311H128.873V73.926Z" fill="#3F3D56"/>
<path d="M131.931 73.9261V74.4312H134.99V73.9261H131.931ZM138.05 73.9261V74.4312H141.107V73.9261H138.05ZM144.167 73.9261V74.4312H147.226V73.9261H144.167ZM150.284 73.9261V74.4312H151.614C151.624 74.3176 151.637 74.2039 151.649 74.0903C151.654 74.0373 151.659 73.9817 151.664 73.9261H150.284Z" fill="#3F3D56"/>
<path d="M38.6514 126.601V110.335C38.6517 110.005 38.7826 109.69 39.0153 109.457C39.2481 109.224 39.5636 109.093 39.8927 109.093H52.1726C52.5017 109.093 52.8172 109.224 53.0499 109.457C53.2826 109.69 53.4135 110.005 53.4139 110.335V126.601C53.4135 126.93 53.2826 127.245 53.0499 127.478C52.8172 127.711 52.5017 127.842 52.1726 127.842H39.8927C39.5636 127.842 39.2481 127.711 39.0153 127.478C38.7826 127.245 38.6517 126.93 38.6514 126.601Z" fill="#E6E6E6"/>
<path d="M39.5933 121.688V111.23C39.5936 110.922 39.7162 110.627 39.9341 110.409C40.1521 110.19 40.4476 110.068 40.7558 110.068H51.3093C51.6175 110.068 51.913 110.19 52.131 110.408C52.3489 110.627 52.4715 110.922 52.4719 111.23V125.705C52.4715 126.013 52.3489 126.309 52.131 126.527C51.913 126.745 51.6175 126.868 51.3093 126.868H44.7716C43.3987 126.866 42.0825 126.32 41.1117 125.349C40.1409 124.378 39.5948 123.061 39.5933 121.688Z" fill="white"/>
<path d="M41.3022 114.148C41.3026 113.847 41.4224 113.558 41.6353 113.345C41.8483 113.132 42.1371 113.012 42.4383 113.012H49.7592C50.0605 113.012 50.3495 113.131 50.5625 113.345C50.7755 113.558 50.8952 113.847 50.8952 114.148C50.8952 114.45 50.7755 114.739 50.5625 114.952C50.3495 115.165 50.0605 115.285 49.7592 115.285H42.4383C42.1371 115.284 41.8483 115.164 41.6353 114.951C41.4224 114.738 41.3026 114.449 41.3022 114.148Z" fill="#E6E6E6"/>
<path d="M41.3022 117.684C41.3026 117.382 41.4224 117.094 41.6353 116.881C41.8483 116.668 42.1371 116.548 42.4383 116.547H49.7592C50.0605 116.547 50.3495 116.667 50.5625 116.88C50.7755 117.093 50.8952 117.382 50.8952 117.684C50.8952 117.985 50.7755 118.274 50.5625 118.487C50.3495 118.7 50.0605 118.82 49.7592 118.82H42.4383C42.1371 118.82 41.8483 118.7 41.6353 118.487C41.4224 118.274 41.3026 117.985 41.3022 117.684Z" fill="#E6E6E6"/>
<path d="M41.3022 121.219C41.3026 120.918 41.4224 120.629 41.6353 120.416C41.8483 120.203 42.1371 120.083 42.4383 120.083H49.7592C50.0605 120.083 50.3495 120.203 50.5625 120.416C50.7755 120.629 50.8952 120.918 50.8952 121.219C50.8952 121.521 50.7755 121.81 50.5625 122.023C50.3495 122.236 50.0605 122.356 49.7592 122.356H42.4383C42.1371 122.355 41.8483 122.236 41.6353 122.023C41.4224 121.809 41.3026 121.521 41.3022 121.219Z" fill="#E6E6E6"/>
<path d="M38.9412 120.919C38.6651 120.924 38.3912 120.868 38.1389 120.756C37.8865 120.644 37.6618 120.477 37.4806 120.269C37.2994 120.06 37.1662 119.815 37.0902 119.549C37.0141 119.284 36.9973 119.005 37.0407 118.732L26.5566 112.989L29.6251 111.329L39.3407 117.166C39.794 117.27 40.1936 117.536 40.4639 117.914C40.7341 118.293 40.8562 118.757 40.807 119.22C40.7577 119.682 40.5406 120.111 40.1967 120.424C39.8529 120.737 39.4062 120.913 38.9412 120.919Z" fill="#FFB8B8"/>
<path d="M32.8449 116.674L29.1272 116.013L27.796 114.906L26.9007 114.45L23.8151 112.283L23.8059 112.256L18.903 97.7575C18.6779 96.5669 18.9163 95.3352 19.5693 94.3147C20.2223 93.2941 21.2406 92.5619 22.4157 92.268C23.0655 92.1063 23.7422 92.0841 24.4012 92.2028C25.0602 92.3216 25.6866 92.5786 26.2391 92.957C26.7916 93.3354 27.2578 93.8266 27.6069 94.3982C27.956 94.9698 28.1801 95.6089 28.2645 96.2734L29.8424 108.699L32.4579 111.401L33.6023 111.623L33.8657 112.855L34.8645 114.401L32.8449 116.674Z" fill="#3F3D56"/>
</g>
<defs>
<clipPath id="clip0_209_122">
<rect width="152" height="176" fill="white"/>
</clipPath>
</defs>
</svg>
