<svg width="320" height="212" viewBox="0 0 320 212" fill="none" xmlns="http://www.w3.org/2000/svg">
<path d="M0 157.955H12.2115C12.8092 86.5522 64.548 27.2794 132.773 14.6409C141.753 12.9764 150.868 12.142 160.002 12.1484H160.643C189.993 12.2916 218.637 21.1152 242.932 37.4971C267.228 53.8791 286.077 77.0792 297.083 104.147C299.603 110.339 301.69 116.696 303.328 123.174C306.203 134.549 307.702 146.225 307.793 157.955H320.005C319.751 118.065 304.43 79.728 277.083 50.5544C249.736 21.3808 212.363 3.50333 172.381 0.470784C168.295 0.153673 164.169 -0.00488281 160.002 -0.00488281C155.613 -0.00488281 151.265 0.171114 146.959 0.523108C65.0978 7.09207 0.640698 74.9697 0 157.955Z" fill="#E6E7E8"/>
<path d="M234.036 157.955C233.724 138.626 225.786 120.194 211.936 106.635C198.086 93.0758 179.433 85.4767 160.002 85.4767C140.57 85.4767 121.918 93.0758 108.067 106.635C94.2174 120.194 86.28 138.626 85.9677 157.955H12.2109C12.8803 77.3148 78.7862 12.1484 160.002 12.1484C241.217 12.1484 307.123 77.3148 307.793 157.955H234.036Z" fill="white"/>
<path d="M307.792 157.955H234.036C233.811 143.341 229.202 129.127 220.801 117.138L280.491 73.9854C298.06 98.5133 307.595 127.837 307.792 157.955Z" fill="#FA364C"/>
<path d="M99.5371 116.662C90.921 128.744 86.1898 143.142 85.9677 157.954H12.2109C12.4136 127.636 22.0754 98.1292 39.8614 73.5093L99.5371 116.662Z" fill="#5EC665"/>
<path d="M136.383 89.3541C122.308 94.077 109.982 102.894 101.001 114.664L41.3301 71.5261C59.4783 47.2308 84.7066 29.0847 113.586 19.5547L136.383 89.3541Z" fill="#A0C460"/>
<path d="M219.349 115.126C210.532 103.397 198.41 94.5404 184.521 89.6822L207.338 19.8447C236.03 29.5275 261.049 47.7295 279.02 71.9969L219.349 115.126Z" fill="#FFA360"/>
<path d="M182.155 88.8781C168.038 84.5012 152.93 84.4068 138.759 88.607L115.957 18.8076C144.952 9.85081 176.008 9.94543 204.947 19.0787L182.155 88.8781Z" fill="#FFC65F"/>
<g style="mix-blend-mode:multiply">
<path d="M160.002 17.7756C81.9132 17.7756 18.5366 80.4209 17.8673 157.955H12.2109C12.8803 77.3148 78.7862 12.1484 160.002 12.1484C241.217 12.1484 307.123 77.3148 307.793 157.955H302.136C301.467 80.4209 238.09 17.7756 160.002 17.7756Z" fill="#D1D3D4"/>
</g>
<path d="M223.321 157.955C222.638 123.887 194.265 96.1798 160.002 96.1798C125.739 96.1798 97.3669 123.887 96.6784 157.955H85.7148V157.902C86.0277 138.507 93.9919 120.011 107.89 106.406C121.787 92.7998 140.504 85.1743 160.002 85.1743C179.501 85.1743 198.218 92.7998 212.115 106.406C226.013 120.011 233.977 138.507 234.29 157.902V157.955H223.321Z" fill="#E6E7E8"/>
<g style="mix-blend-mode:multiply">
<path d="M83.0234 157.954H85.7153V157.902C86.0281 138.508 93.9919 120.014 107.889 106.409C121.785 92.8038 140.501 85.1788 159.998 85.1788C179.495 85.1788 198.211 92.8038 212.108 106.409C226.004 120.014 233.968 138.508 234.281 157.902V157.954H236.982C236.982 137.644 228.872 118.165 214.435 103.803C199.999 89.4405 180.419 81.3721 160.003 81.3721C139.587 81.3721 120.007 89.4405 105.57 103.803C91.1338 118.165 83.0234 137.644 83.0234 157.954Z" fill="#D1D3D4"/>
</g>
<path d="M184.444 158.778L171.501 157.089C171.124 155.046 170.203 153.14 168.834 151.571C167.466 150.002 165.699 148.826 163.719 148.165C161.739 147.505 159.618 147.384 157.575 147.816C155.532 148.248 153.643 149.216 152.103 150.62L57.108 122.556C56.7033 122.425 56.2767 122.375 55.8526 122.409C55.4286 122.442 55.0152 122.558 54.6363 122.751C54.2574 122.943 53.9202 123.208 53.6441 123.53C53.368 123.852 53.1584 124.225 53.0271 124.627C52.8959 125.03 52.8457 125.454 52.8793 125.876C52.9129 126.298 53.0297 126.709 53.2231 127.086C53.4164 127.463 53.6825 127.798 54.0062 128.073C54.3298 128.348 54.7047 128.556 55.1094 128.687L148.527 161.508C148.943 163.544 149.899 165.432 151.297 166.976C152.695 168.52 154.483 169.663 156.476 170.287C158.468 170.91 160.592 170.991 162.626 170.521C164.661 170.052 166.532 169.048 168.044 167.616L179.52 173.799C179.826 173.96 180.163 174.053 180.509 174.071C180.854 174.089 181.2 174.032 181.521 173.905C181.842 173.777 182.132 173.582 182.37 173.332C182.608 173.082 182.789 172.784 182.9 172.458L184.64 167.135L186.376 161.812C186.479 161.486 186.51 161.141 186.466 160.802C186.421 160.463 186.303 160.138 186.119 159.849C185.935 159.56 185.69 159.314 185.401 159.129C185.111 158.944 184.785 158.824 184.444 158.778Z" fill="#414042"/>
<g style="mix-blend-mode:multiply">
<path d="M171.502 157.084L184.45 158.773C184.79 158.825 185.115 158.951 185.402 159.14C185.689 159.329 185.931 159.577 186.113 159.868C186.294 160.159 186.411 160.485 186.454 160.825C186.497 161.164 186.466 161.509 186.362 161.836L184.627 167.159L53.0352 124.615C53.2991 123.804 53.876 123.131 54.639 122.743C55.402 122.355 56.2887 122.284 57.1041 122.546L152.109 150.61C153.648 149.208 155.537 148.24 157.578 147.809C159.62 147.378 161.741 147.499 163.72 148.158C165.699 148.818 167.465 149.993 168.833 151.561C170.202 153.129 171.123 155.033 171.502 157.075V157.084Z" fill="#BCBEC0"/>
</g>
<path d="M141.168 211.515H133.886L129.511 204.318C129.186 203.771 128.87 203.281 128.555 202.853C128.283 202.459 127.978 202.09 127.642 201.749C127.364 201.465 127.041 201.228 126.685 201.05C126.348 200.884 125.976 200.799 125.6 200.803H123.888V211.519H117.562V183.526H127.603C134.431 183.526 137.845 186.063 137.845 191.137C137.855 192.057 137.703 192.971 137.395 193.839C137.103 194.652 136.671 195.408 136.119 196.074C135.554 196.752 134.88 197.333 134.125 197.792C133.318 198.289 132.444 198.67 131.529 198.924V199.005C131.967 199.146 132.377 199.359 132.743 199.637C133.153 199.944 133.534 200.288 133.881 200.665C134.256 201.063 134.607 201.482 134.933 201.92C135.268 202.396 135.569 202.81 135.846 203.238L141.168 211.515ZM123.898 188.25V196.036H126.647C127.852 196.094 129.03 195.673 129.922 194.866C130.329 194.491 130.651 194.034 130.868 193.525C131.084 193.017 131.191 192.469 131.18 191.917C131.18 189.472 129.709 188.25 126.767 188.25H123.898Z" fill="#FA364C"/>
<path d="M152.486 183.526V188.407H150.134V206.634H152.486V211.515H141.441V206.634H143.799V188.407H141.441V183.526H152.486Z" fill="#414042"/>
<path d="M155.221 210.44V204.194C156.317 205.122 157.572 205.847 158.926 206.335C160.223 206.802 161.592 207.042 162.971 207.043C163.674 207.053 164.375 206.982 165.061 206.829C165.587 206.713 166.091 206.512 166.552 206.235C166.919 206.013 167.225 205.704 167.442 205.336C167.638 204.994 167.74 204.607 167.738 204.213C167.743 203.688 167.575 203.175 167.26 202.753C166.907 202.283 166.473 201.879 165.979 201.559C165.37 201.159 164.731 200.807 164.066 200.508C163.32 200.168 162.523 199.823 161.675 199.471C159.476 198.561 157.838 197.451 156.76 196.141C155.67 194.797 155.096 193.111 155.139 191.384C155.105 190.077 155.409 188.783 156.024 187.627C156.603 186.589 157.422 185.703 158.415 185.044C159.488 184.339 160.68 183.833 161.934 183.55C163.322 183.226 164.744 183.067 166.17 183.075C167.474 183.064 168.777 183.153 170.067 183.341C171.136 183.499 172.186 183.77 173.198 184.15V189.986C172.712 189.651 172.195 189.362 171.654 189.125C171.098 188.878 170.525 188.672 169.938 188.511C169.361 188.353 168.775 188.232 168.183 188.15C167.633 188.075 167.079 188.035 166.524 188.031C165.864 188.025 165.207 188.096 164.563 188.24C164.038 188.351 163.534 188.545 163.072 188.816C162.69 189.035 162.363 189.337 162.115 189.701C161.893 190.049 161.777 190.454 161.781 190.866C161.775 191.312 161.905 191.75 162.154 192.122C162.442 192.533 162.802 192.89 163.215 193.178C163.743 193.542 164.301 193.86 164.884 194.129C165.537 194.446 166.275 194.774 167.097 195.114C168.141 195.542 169.154 196.041 170.129 196.607C170.977 197.095 171.754 197.697 172.438 198.396C173.073 199.05 173.572 199.823 173.906 200.669C174.264 201.619 174.438 202.628 174.418 203.642C174.465 205.008 174.157 206.363 173.524 207.576C172.945 208.622 172.113 209.508 171.104 210.154C170.015 210.843 168.807 211.327 167.542 211.581C166.127 211.877 164.685 212.023 163.239 212.014C161.762 212.019 160.288 211.888 158.835 211.624C157.579 211.404 156.362 211.006 155.221 210.44Z" fill="#414042"/>
<path d="M202.441 211.515H194.428L186.223 199.357C185.941 198.858 185.692 198.341 185.477 197.811H185.381V211.515H179.051V183.526H185.391V196.759H185.486C185.644 196.393 185.907 195.875 186.275 195.199L194.045 183.526H201.6L191.788 196.874L202.441 211.515Z" fill="#414042"/>
<g style="mix-blend-mode:multiply">
<g style="mix-blend-mode:multiply">
<path d="M138.64 35.9935C137.746 36.16 136.856 36.3455 135.972 36.5357C135.459 34.2113 134.949 31.8853 134.442 29.5577C134.279 28.8014 134.131 27.9595 134.007 27.0319H133.935C133.948 27.5766 133.926 28.1216 133.868 28.6635C133.454 31.5175 133.109 34.3715 132.835 37.2255C132.104 37.4062 131.372 37.5917 130.645 37.7867C129.007 35.4496 127.3 33.1474 125.525 30.8801C125.204 30.4032 124.911 29.9094 124.645 29.4007L124.568 29.4245C124.984 30.5281 125.324 31.5079 125.577 32.3594C126.215 34.4682 126.852 36.5754 127.49 38.681C126.693 38.9188 125.896 39.1662 125.099 39.423C123.865 35.6367 122.629 31.852 121.389 28.0689C122.823 27.5932 124.257 27.1746 125.692 26.7655C127.231 28.776 128.725 30.815 130.172 32.8826C130.509 33.3663 130.799 33.8807 131.037 34.419H131.09C131.077 33.819 131.097 33.2187 131.152 32.621C131.42 30.1285 131.739 27.6328 132.108 25.134C133.524 24.8169 134.944 24.5188 136.369 24.2397C137.124 28.1624 137.881 32.0803 138.64 35.9935Z" fill="#D1D3D4"/>
</g>
<g style="mix-blend-mode:multiply">
<path d="M148.623 34.5329C146.199 34.7803 143.78 35.099 141.37 35.4843L139.391 23.7068C141.941 23.2787 144.513 22.9314 147.108 22.665L147.332 24.8436C145.786 25.0053 144.245 25.194 142.709 25.4096C142.833 26.2896 142.962 27.1648 143.087 28.0401C144.486 27.8403 145.888 27.6675 147.294 27.5216C147.371 28.2446 147.447 28.9486 147.528 29.6906C146.145 29.8333 144.766 30.003 143.393 30.1996L143.78 32.9061C145.319 32.6873 146.861 32.5002 148.403 32.3449C148.475 33.0774 148.552 33.8099 148.623 34.5329Z" fill="#D1D3D4"/>
</g>
<g style="mix-blend-mode:multiply">
<path d="M150.57 34.357C150.251 30.3899 149.918 26.426 149.57 22.4653C151.164 22.3321 152.758 22.2307 154.352 22.1609C159.157 21.9611 161.524 23.997 161.457 27.8689C161.478 28.6977 161.324 29.5216 161.005 30.2876C160.686 31.0536 160.21 31.7447 159.606 32.3164C158.311 33.4679 156.634 34.1017 154.897 34.0954C153.438 34.1429 152.004 34.2333 150.57 34.357ZM152.726 24.4251C152.879 26.9461 153.029 29.4655 153.175 31.9834L154.562 31.9073C155.088 31.9256 155.612 31.8324 156.099 31.6339C156.585 31.4354 157.024 31.1362 157.386 30.7561C157.748 30.376 158.024 29.9236 158.197 29.4291C158.369 28.9346 158.434 28.4093 158.387 27.8879C158.408 27.3887 158.319 26.891 158.126 26.4299C157.933 25.9688 157.64 25.5555 157.268 25.2194C156.391 24.5411 155.284 24.2289 154.18 24.349L152.726 24.4251Z" fill="#D1D3D4"/>
</g>
<g style="mix-blend-mode:multiply">
<path d="M167.896 22.2704L167.767 24.3491L166.658 24.2825C166.521 26.8701 166.38 29.4593 166.237 32.0501L167.27 32.112L167.141 34.1859C165.547 34.0876 163.953 34.021 162.359 33.9861L162.402 31.9074H163.44C163.516 29.3135 163.595 26.7227 163.674 24.135L162.565 24.1065L162.608 22.0278C164.377 22.0849 166.137 22.161 167.896 22.2704Z" fill="#D1D3D4"/>
</g>
<g style="mix-blend-mode:multiply">
<path d="M179.605 30.4233C178.984 33.9623 177.009 35.4131 173.643 34.9945C170.382 34.6092 168.862 32.7683 169.125 29.2865C169.3 27.0001 169.479 24.709 169.66 22.4131C170.669 22.4939 171.683 22.5843 172.692 22.6842C172.459 24.9801 172.223 27.2776 171.984 29.5766C171.793 31.5031 172.462 32.5353 174.03 32.7208C175.599 32.9063 176.455 32.1024 176.722 30.2568L177.726 23.2978C178.731 23.4453 179.735 23.5975 180.734 23.7735C180.364 25.9806 179.988 28.1972 179.605 30.4233Z" fill="#D1D3D4"/>
</g>
<g style="mix-blend-mode:multiply">
<path d="M194.907 39.4612C194.037 39.1789 193.165 38.9094 192.292 38.6525L194.343 31.8029C194.568 31.0656 194.845 30.2618 195.184 29.3865H195.113C194.861 29.8712 194.576 30.3384 194.262 30.785C192.508 33.0872 190.816 35.4243 189.184 37.7963C188.452 37.6013 187.749 37.4158 186.994 37.235C186.691 34.4064 186.318 31.5714 185.875 28.7301C185.825 28.1592 185.808 27.5859 185.823 27.0129H185.741C185.574 28.1783 185.392 29.1963 185.206 30.062C184.737 32.2183 184.27 34.3699 183.805 36.5168C182.997 36.3455 182.184 36.1791 181.371 36.0411C182.133 32.1311 182.89 28.2227 183.642 24.3159C185.105 24.595 186.562 24.901 188.012 25.234C188.381 27.736 188.696 30.2427 188.969 32.74C189.026 33.3268 189.026 33.9178 188.969 34.5047H189.016C189.296 33.974 189.606 33.4594 189.944 32.9635C191.388 30.9087 192.881 28.876 194.424 26.8655C195.823 27.2651 197.22 27.69 198.613 28.1403C197.376 31.9044 196.141 35.678 194.907 39.4612Z" fill="#D1D3D4"/>
</g>
</g>
<path d="M138.64 34.8568C137.746 35.0233 136.856 35.2088 135.972 35.3991C135.459 33.0715 134.949 30.7439 134.442 28.4163C134.279 27.6647 134.131 26.8228 134.007 25.8952H133.935C133.948 26.44 133.926 26.985 133.868 27.5268C133.454 30.3808 133.109 33.2348 132.835 36.0888C132.104 36.2695 131.372 36.4551 130.645 36.6501C129.007 34.3161 127.3 32.0139 125.525 29.7434C125.206 29.2851 124.913 28.8104 124.645 28.3211L124.568 28.3449C124.984 29.4485 125.324 30.4283 125.577 31.2798C126.215 33.3854 126.852 35.4926 127.49 37.6014C126.693 37.8392 125.896 38.0866 125.099 38.3434C123.865 34.5571 122.629 30.7724 121.389 26.9893C122.823 26.5136 124.257 26.095 125.692 25.6859C127.231 27.6996 128.725 29.7386 130.172 31.803C130.509 32.2867 130.799 32.8011 131.037 33.3394H131.09C131.077 32.7394 131.097 32.1391 131.152 31.5414C131.42 29.0489 131.739 26.5532 132.108 24.0544C133.524 23.7373 134.944 23.4392 136.369 23.1602C137.124 27.0479 137.881 30.9468 138.64 34.8568Z" fill="white"/>
<path d="M148.623 33.3965C146.199 33.6438 143.78 33.9625 141.37 34.3478L139.391 22.6131C141.941 22.185 144.513 21.8394 147.108 21.5762C147.179 22.2992 147.256 23.0032 147.332 23.75C145.786 23.9117 144.245 24.1004 142.709 24.316C142.833 25.196 142.962 26.0712 143.087 26.9465C144.488 26.7514 145.888 26.5754 147.294 26.428C147.371 27.151 147.447 27.855 147.528 28.597C146.145 28.7397 144.766 28.9094 143.393 29.106L143.78 31.8125C145.319 31.5937 146.861 31.4066 148.403 31.2512C148.475 31.9505 148.552 32.6735 148.623 33.3965Z" fill="white"/>
<path d="M150.57 33.2203C150.251 29.2532 149.918 25.2893 149.57 21.3286C151.164 21.1954 152.758 21.0939 154.352 21.0242C159.157 20.8244 161.524 22.8602 161.457 26.7322C161.478 27.5609 161.324 28.3849 161.005 29.1509C160.686 29.9169 160.21 30.608 159.606 31.1797C158.311 32.3312 156.634 32.9649 154.897 32.9586C153.438 33.0062 152.004 33.0776 150.57 33.2203ZM152.726 23.2883C152.879 25.8252 153.029 28.3447 153.175 30.8467L154.562 30.7706C155.088 30.7889 155.612 30.6957 156.099 30.4972C156.585 30.2987 157.024 29.9995 157.386 29.6194C157.748 29.2392 158.024 28.7869 158.197 28.2924C158.369 27.7979 158.434 27.2726 158.387 26.7512C158.408 26.252 158.319 25.7543 158.126 25.2932C157.933 24.832 157.64 24.4188 157.268 24.0827C156.391 23.4043 155.284 23.0921 154.18 23.2122L152.726 23.2883Z" fill="white"/>
<path d="M167.896 21.1337L167.767 23.2124L166.658 23.1458C166.521 25.7334 166.38 28.3226 166.237 30.9134L167.27 30.9753L167.141 33.0492C165.547 32.9509 163.953 32.8843 162.359 32.8494L162.402 30.7707H163.44C163.516 28.1799 163.595 25.5891 163.674 22.9983L162.565 22.9698L162.608 20.8911C164.377 20.9482 166.137 21.0243 167.896 21.1337Z" fill="white"/>
<path d="M179.605 29.2724C178.984 32.8114 177.009 34.2622 173.643 33.8436C170.382 33.4583 168.862 31.6175 169.125 28.1356C169.3 25.8492 169.479 23.5581 169.66 21.2622C170.669 21.3431 171.683 21.4334 172.692 21.5333C172.459 23.8324 172.223 26.1299 171.984 28.4257C171.793 30.3522 172.462 31.3844 174.03 31.5699C175.599 31.7554 176.455 30.9515 176.722 29.106L177.736 22.1374C178.74 22.2849 179.744 22.4371 180.743 22.6131L179.605 29.2724Z" fill="white"/>
<path d="M194.906 38.3101C194.036 38.0279 193.164 37.7584 192.29 37.5015L194.342 30.6519C194.566 29.9146 194.844 29.1107 195.183 28.2355H195.111C194.86 28.7202 194.575 29.1874 194.26 29.634C192.504 31.9299 190.807 34.2654 189.168 36.6406C188.437 36.4455 187.734 36.26 186.978 36.0793C186.675 33.2475 186.303 30.4125 185.86 27.5743C185.809 27.0034 185.792 26.4301 185.807 25.8572H185.726C185.558 27.0226 185.377 28.0405 185.19 28.9062C184.722 31.0626 184.255 33.2142 183.789 35.361C182.981 35.1898 182.168 35.0233 181.355 34.8853C182.117 30.9754 182.874 27.067 183.627 23.1602C185.09 23.4297 186.55 23.723 188.006 24.0401C188.374 26.5421 188.69 29.0489 188.963 31.5462C189.02 32.133 189.02 32.724 188.963 33.3109H189.01C189.29 32.7801 189.6 32.2656 189.938 31.7697C191.382 29.7148 192.875 27.6822 194.418 25.6717C195.817 26.0712 197.214 26.4962 198.607 26.9465C197.373 30.7486 196.139 34.5365 194.906 38.3101Z" fill="white"/>
<g style="mix-blend-mode:multiply">
<g style="mix-blend-mode:multiply">
<path d="M37.1232 151.994H29.9512V140.055H32.6526V149.816H37.1232V151.994Z" fill="#D1D3D4"/>
</g>
<g style="mix-blend-mode:multiply">
<path d="M43.8172 152.199C43.0383 152.228 42.262 152.094 41.5382 151.807C40.8143 151.519 40.159 151.084 39.6144 150.53C39.0656 149.948 38.6391 149.264 38.3599 148.517C38.0807 147.769 37.9545 146.974 37.9887 146.177C37.914 144.496 38.5064 142.852 39.6383 141.601C40.2007 141.018 40.8811 140.561 41.6344 140.259C42.3878 139.957 43.1969 139.818 44.0084 139.851C44.7808 139.82 45.5508 139.954 46.2673 140.243C46.9837 140.531 47.6301 140.968 48.1634 141.525C49.2544 142.732 49.8246 144.318 49.7508 145.939C49.8259 147.609 49.2347 149.24 48.106 150.477C47.5532 151.048 46.8855 151.497 46.1464 151.794C45.4073 152.09 44.6136 152.229 43.8172 152.199ZM43.9319 142.167C43.4972 142.152 43.0651 142.24 42.6716 142.424C42.2782 142.609 41.9349 142.885 41.6703 143.228C41.0804 144.044 40.7855 145.035 40.8336 146.039C40.78 147.043 41.0755 148.034 41.6703 148.846C41.9374 149.17 42.273 149.431 42.6532 149.612C43.0334 149.792 43.4489 149.887 43.8702 149.89C44.2915 149.893 44.7082 149.803 45.0907 149.628C45.4732 149.452 45.8122 149.195 46.0835 148.874C46.6716 148.067 46.9605 147.082 46.9011 146.087C46.9642 145.064 46.6852 144.048 46.1074 143.2C45.8544 142.862 45.522 142.591 45.1394 142.411C44.7567 142.231 44.3356 142.148 43.9128 142.167H43.9319Z" fill="#D1D3D4"/>
</g>
<g style="mix-blend-mode:multiply">
<path d="M67.4231 140.051L64.253 151.995H61.2552L59.2613 144.337C59.1512 143.897 59.0871 143.448 59.0701 142.995H59.0366C59.0012 143.447 58.9293 143.896 58.8215 144.337L56.7798 151.995H53.6576L50.502 140.056H53.4568L55.1446 148.009C55.2298 148.459 55.2825 148.916 55.3024 149.374H55.355C55.3867 148.9 55.4684 148.432 55.5989 147.975L57.7743 140.056H60.667L62.637 148.075C62.7274 148.497 62.7913 148.925 62.8282 149.355H62.8617C62.8862 148.907 62.9454 148.462 63.0386 148.023L64.6929 140.056L67.4231 140.051Z" fill="#D1D3D4"/>
</g>
</g>
<path d="M37.1232 150.853H29.9512V138.914H32.6526V148.665H37.1232V150.853Z" fill="white"/>
<path d="M43.8152 151.043C43.0363 151.072 42.26 150.939 41.5362 150.651C40.8124 150.364 40.1571 149.928 39.6124 149.374C39.0636 148.793 38.6371 148.108 38.358 147.361C38.0788 146.613 37.9526 145.818 37.9868 145.021C37.9121 143.34 38.5045 141.697 39.6363 140.446C40.1987 139.863 40.8791 139.405 41.6325 139.103C42.3858 138.802 43.195 138.663 44.0065 138.695C44.7788 138.665 45.5489 138.798 46.2653 139.087C46.9818 139.375 47.6281 139.813 48.1614 140.369C49.2524 141.576 49.8226 143.162 49.7488 144.784C49.824 146.453 49.2328 148.084 48.1041 149.321C47.5513 149.893 46.8835 150.341 46.1445 150.638C45.4054 150.935 44.6116 151.073 43.8152 151.043ZM43.9108 141.054C43.4761 141.039 43.044 141.127 42.6506 141.311C42.2571 141.496 41.9138 141.772 41.6493 142.115C41.0593 142.931 40.7644 143.922 40.8125 144.926C40.759 145.93 41.0544 146.921 41.6493 147.733C41.9164 148.057 42.2519 148.318 42.6321 148.499C43.0123 148.679 43.4278 148.774 43.8491 148.777C44.2704 148.78 44.6871 148.69 45.0696 148.515C45.4521 148.339 45.7911 148.082 46.0624 147.761C46.6505 146.954 46.9394 145.969 46.88 144.974C46.9424 143.951 46.6634 142.936 46.0863 142.087C45.8352 141.752 45.5058 141.483 45.1268 141.303C44.7478 141.123 44.3304 141.038 43.9108 141.054Z" fill="white"/>
<path d="M67.4213 138.914L64.2513 150.853H61.2534L59.2596 143.195C59.1494 142.755 59.0853 142.306 59.0683 141.853H59.0349C58.9995 142.305 58.9276 142.754 58.8197 143.195L56.7781 150.853H53.6559L50.5098 138.914H53.4646L55.1524 146.867C55.2376 147.318 55.2904 147.774 55.3102 148.232H55.3628C55.3945 147.759 55.4762 147.29 55.6067 146.833L57.7822 138.914H60.6749L62.6448 146.933C62.7352 147.355 62.7991 147.783 62.836 148.213H62.8695C62.8941 147.765 62.9532 147.32 63.0464 146.881L64.7007 138.914H67.4213Z" fill="white"/>
<g style="mix-blend-mode:multiply">
<g style="mix-blend-mode:multiply">
<path d="M259.296 151.994H256.585V147.128H251.612V151.994H248.906V140.055H251.612V144.812H256.585V140.055H259.296V151.994Z" fill="#D1D3D4"/>
</g>
<g style="mix-blend-mode:multiply">
<path d="M265.746 140.051V142.134H264.742V149.911H265.746V151.995H261.036V149.916H262.04V142.134H261.036V140.051H265.746Z" fill="#D1D3D4"/>
</g>
<g style="mix-blend-mode:multiply">
<path d="M277.322 151.191C275.981 151.903 274.476 152.251 272.957 152.199C271.025 152.199 269.503 151.668 268.391 150.606C267.276 149.54 266.717 148.08 266.717 146.21C266.686 145.362 266.831 144.517 267.145 143.728C267.459 142.939 267.933 142.223 268.539 141.625C269.753 140.439 271.371 139.848 273.392 139.851C274.529 139.833 275.661 140.01 276.739 140.374V142.9C275.697 142.339 274.523 142.063 273.339 142.101C272.832 142.082 272.326 142.169 271.855 142.356C271.383 142.543 270.955 142.825 270.599 143.185C269.936 143.993 269.564 144.999 269.544 146.042C269.524 147.085 269.857 148.104 270.49 148.936C270.821 149.276 271.221 149.542 271.664 149.716C272.107 149.89 272.582 149.968 273.057 149.944C273.584 149.966 274.11 149.872 274.597 149.669V147.338H272.206V145.188H277.312L277.322 151.191Z" fill="#D1D3D4"/>
</g>
<g style="mix-blend-mode:multiply">
<path d="M290.054 151.994H287.343V147.128H282.37V151.994H279.669V140.055H282.37V144.812H287.343V140.055H290.054V151.994Z" fill="#D1D3D4"/>
</g>
</g>
<path d="M259.296 150.853H256.585V145.992H251.612V150.853H248.906V138.914H251.612V143.67H256.585V138.914H259.296V150.853Z" fill="white"/>
<path d="M265.747 138.914V140.997H264.743V148.774H265.747V150.853H261.037V148.774H262.041V140.997H261.037V138.914H265.747Z" fill="white"/>
<path d="M277.322 150.054C275.981 150.766 274.475 151.114 272.956 151.062C271.025 151.062 269.503 150.531 268.39 149.469C267.276 148.403 266.717 146.943 266.717 145.074C266.686 144.225 266.833 143.38 267.147 142.591C267.461 141.801 267.937 141.086 268.543 140.488C269.758 139.302 271.375 138.711 273.396 138.714C274.534 138.696 275.666 138.873 276.743 139.237V141.763C275.701 141.202 274.528 140.926 273.344 140.964C272.836 140.946 272.331 141.033 271.859 141.219C271.388 141.406 270.96 141.688 270.604 142.049C269.94 142.856 269.569 143.862 269.549 144.905C269.529 145.948 269.862 146.967 270.494 147.799C270.825 148.139 271.226 148.405 271.669 148.579C272.111 148.753 272.586 148.831 273.062 148.808C273.589 148.829 274.115 148.735 274.601 148.532V146.201H272.211V144.051H277.317L277.322 150.054Z" fill="white"/>
<path d="M290.055 150.853H287.344V145.992H282.371V150.853H279.67V138.914H282.371V143.67H287.344V138.914H290.055V150.853Z" fill="white"/>
</svg>
