<svg width="619" height="530" viewBox="0 0 619 530" fill="none" xmlns="http://www.w3.org/2000/svg">
<path d="M253.651 529.5C25.6515 526.3 -8.84831 361.001 1.65144 261.001C7.90545 201.437 33.8 77.1004 157 15.5004C311 -61.4996 597.5 175.5 616 252.5C634.5 329.5 538.651 533.5 253.651 529.5Z" fill="#E7FBFF"/>
<path d="M313.678 85.6937C70.8775 58.4937 28.8442 244.027 38.1776 340.194C52.5109 395.527 119.077 506.194 270.677 506.194C422.277 506.194 555 372.834 583.5 317.5C607.333 244 556.478 112.894 313.678 85.6937Z" stroke="#D8F8FF" stroke-width="7" stroke-linecap="round" stroke-linejoin="round" stroke-dasharray="20 20"/>
<path d="M313.722 100.501C88.4341 75.2417 49.4325 247.538 58.0926 336.843C71.3921 388.229 133.157 491 273.823 491C414.489 491 537.638 367.155 564.083 315.769C586.197 247.513 539.009 125.76 313.722 100.501Z" stroke="#D8F8FF" stroke-width="7" stroke-linecap="round" stroke-linejoin="round" stroke-dasharray="20 20"/>
<path d="M313.66 117.285C107.733 94.2106 72.0828 251.601 79.9987 333.18C92.1553 380.12 148.613 474 277.19 474C405.767 474 518.333 360.869 542.505 313.929C562.719 251.578 519.586 140.359 313.66 117.285Z" stroke="#D8F8FF" stroke-width="7" stroke-linecap="round" stroke-linejoin="round" stroke-dasharray="20 20"/>
<path d="M313.62 128.145C120.014 106.485 86.4967 254.23 93.939 330.81C105.368 374.873 158.448 463 279.332 463C400.217 463 506.048 356.802 528.774 312.739C547.779 254.209 507.227 149.805 313.62 128.145Z" stroke="#D8F8FF" stroke-width="7" stroke-linecap="round" stroke-linejoin="round" stroke-dasharray="20 20"/>
<ellipse cx="277" cy="481.5" rx="209" ry="9.5" fill="url(#paint0_radial_1619_1669)"/>
<path d="M166.651 364.5L162.151 404.5M220.151 412.5L207.651 384" stroke="#8F6F50" stroke-width="10" stroke-linecap="round" stroke-linejoin="round"/>
<path d="M213.652 392.5C125.652 367.7 102.651 294.5 111.651 266.5L269.152 376C251.952 394 224.985 394.5 213.652 392.5Z" fill="#B28A64" stroke="#B28A64" stroke-width="2" stroke-linejoin="round"/>
<path d="M241.151 383C89.9769 345.905 101.585 263.962 126.441 227.309C126.582 227.101 126.763 226.925 126.971 226.785C182.527 189.579 254.207 236.054 283.151 264C342.351 350.8 279.818 379.5 241.151 383Z" fill="#EABD91" stroke="#EABD91" stroke-width="2" stroke-linejoin="round"/>
<path d="M202.838 357.847C247 362.201 259.34 319.369 259.99 297.408C260.434 291.285 212.277 273.502 174.461 260.38C144.207 249.883 140.25 277.933 142.053 293.27C143.913 312.981 158.675 353.493 202.838 357.847Z" fill="#D19191" stroke="#D19191" stroke-width="2" stroke-linejoin="round"/>
<path d="M233.652 157L231.152 149.5C223.818 148 208.852 145 207.652 145C206.152 145 200.152 154 199.152 155.5C198.152 157 195.152 161 201.152 176.5C207.152 192 218.652 191.5 222.152 191.5C223.652 191.5 228.652 187 229.652 185C230.652 183 233.152 177 233.652 169C234.052 162.6 233.818 158.334 233.652 157Z" fill="#FFD4AA"/>
<path d="M247.652 456.5L256.152 439H272.652L270.652 456.5C278.652 457.334 297.252 460.2 307.652 465C318.052 469.8 303.319 471.667 294.652 472C289.819 472.334 276.052 472.8 259.652 472C243.252 471.2 244.819 461.334 247.652 456.5Z" fill="black" stroke="black" stroke-width="2" stroke-linejoin="round"/>
<path d="M271.651 456.5V445H291.151C290.651 448.167 289.951 454.9 291.151 456.5C292.351 458.1 297.651 459.834 300.151 460.5C347.17 463.661 333.987 475.214 328.357 479.35C328.218 479.452 328.065 479.511 327.894 479.53C310.904 481.496 286.519 481.103 280.151 481.5C273.751 481.9 269.818 477.667 268.651 475.5L271.651 456.5Z" fill="black"/>
<path d="M246.651 442L259.651 395L280.151 412L261.651 445L246.651 442Z" fill="black"/>
<path d="M271.651 456.5V445H291.151C290.651 448.167 289.951 454.9 291.151 456.5C292.351 458.1 297.651 459.834 300.151 460.5C347.17 463.661 333.987 475.214 328.357 479.35C328.218 479.452 328.065 479.511 327.894 479.53C310.904 481.496 286.519 481.103 280.151 481.5C273.751 481.9 269.818 477.667 268.651 475.5L271.651 456.5Z" stroke="black" stroke-width="2" stroke-linejoin="round"/>
<path d="M246.651 442L259.651 395L280.151 412L261.651 445L246.651 442Z" stroke="black" stroke-width="2" stroke-linejoin="round"/>
<path d="M169.151 317.5L183.151 265L234.151 273.5L241.151 290C253.951 295.2 280.818 316.529 292.651 326.543C298.562 329.268 302.082 331.566 301.651 333C300.451 337 295.151 410.334 292.651 446.5C289.721 444.303 276.507 445.291 268.669 446.241C268.666 446.339 268.661 446.425 268.651 446.5C268.251 449.7 267.151 447.834 266.651 446.5C267.27 446.416 267.946 446.329 268.669 446.241C268.779 441.141 259.123 405.86 257.651 398.5C256.451 392.5 259.818 364.334 261.651 351C244.318 351.834 204.851 352.2 185.651 347C166.451 341.8 166.651 325.167 169.151 317.5Z" fill="#272727"/>
<path d="M234.151 306.624C232.083 306.05 230.076 305.507 228.151 305C205.351 299 217.651 302.5 226.651 305L234.151 306.624ZM234.151 306.624C253.927 312.109 279.347 320.408 292.651 326.543M292.651 326.543C298.562 329.268 302.082 331.566 301.651 333C300.451 337 295.151 410.334 292.651 446.5C289.451 444.1 273.985 445.5 266.651 446.5C267.151 447.834 268.251 449.7 268.651 446.5C269.151 442.5 259.151 406 257.651 398.5C256.451 392.5 259.818 364.334 261.651 351C244.318 351.834 204.851 352.2 185.651 347C166.451 341.8 166.651 325.167 169.151 317.5L183.151 265L234.151 273.5L241.151 290C253.951 295.2 280.818 316.529 292.651 326.543Z" stroke="#272727" stroke-width="2" stroke-linejoin="round"/>
<path d="M226.151 313.5C244.818 316.315 284.951 323.456 296.151 329.5" stroke="black" stroke-width="2" stroke-linejoin="round"/>
<path d="M196.152 194.5C200.152 190.9 198.818 182.334 197.652 178.5L206.652 176.5C210.652 180.334 218.452 188.4 217.652 190C216.852 191.6 217.318 196.334 217.652 198.5C221.252 200.9 224.485 202.5 225.652 203C227.318 206.5 230.452 213.8 229.652 215C228.652 216.5 209.652 222 208.152 221C206.652 220 176.152 204.5 179.652 201.5C183.152 198.5 191.152 199 196.152 194.5Z" fill="#FFCD9D" stroke="#FFCD9D"/>
<path d="M166.151 283C161.151 241.5 165.651 214 169.651 208C173.151 208.5 180.751 211.8 183.151 221C185.551 230.2 183.151 261.834 181.651 276.5L183.151 278C187.099 282.343 203.712 289.641 211.835 292.875C211.745 292.659 212.179 292.128 214.151 291C217.651 289 225.151 286 227.151 285.5C229.151 285 241.151 288.5 247.151 293C251.951 296.6 243.151 296.5 238.151 296C236.484 295.5 232.351 294.4 229.151 294C225.151 293.5 218.151 299.5 215.151 300.5C212.751 301.3 205.484 300.834 202.151 300.5C177.751 295.3 167.984 286.667 166.151 283Z" fill="#FFD4AA"/>
<path d="M221.651 170C208.851 176.4 203.985 175 203.151 173.5C205.651 181.667 213.051 196.9 222.651 192.5C232.251 188.1 233.318 179 232.651 175C229.051 174.6 223.818 171.5 221.651 170Z" fill="#F8F5F5"/>
<path d="M206.151 166.5C207.985 167.167 212.451 168.2 215.651 167M225.151 167C226.485 167.167 229.651 167.2 231.651 166" stroke="black" stroke-width="0.6" stroke-linecap="round"/>
<path d="M224.597 159.044L222.597 160.644C222.449 160.762 222.394 161.251 222.532 161.381C222.659 161.5 222.912 161.493 223.651 161C224.089 160.709 225.05 160.192 226.151 160C227.775 159.718 229.704 159.762 230.706 159.911C230.878 159.937 231.018 159.753 230.919 159.61C230.71 159.308 230.423 159 230.151 159H224.72C224.675 159 224.632 159.016 224.597 159.044Z" fill="black"/>
<path d="M211.651 158.5C213.266 158.501 214.276 159.3 214.63 159.959C214.644 159.986 214.651 160.017 214.651 160.048V160.627C214.651 160.787 214.473 160.883 214.339 160.796C213.753 160.416 212.815 159.832 212.151 159.501C211.518 159.184 208.754 160.1 206.637 160.909C206.417 160.993 206.243 160.682 206.431 160.541L207.119 160.025C207.14 160.009 207.164 159.997 207.19 159.991C208.517 159.645 210.166 158.5 211.651 158.5Z" fill="black"/>
<path d="M204.151 157.501C203.475 159.529 202.341 162.015 201.369 163.722C200.73 164.843 200.531 166.287 200.888 167.528C202.052 171.574 202.925 178.541 202.651 179.501C201.651 183.001 194.151 185.001 190.151 182.501C186.151 180.001 183.651 164.501 183.151 162.501C182.651 160.501 183.151 150.501 194.151 138.501C205.151 126.501 223.651 138.501 229.651 143.001C235.651 147.501 235.151 157.001 233.651 157.501C232.451 157.901 232.651 151.501 225.151 150.501C215.651 152.001 210.651 150.501 208.151 150.501C205.997 150.501 204.468 156.549 204.151 157.501Z" fill="#2D2B2B"/>
<path d="M398.651 409.5V224.5H414.151L420.651 409.5H398.651Z" fill="#EABD91"/>
<path d="M486.151 258L325.651 252.5L321.651 265.5L486.151 272.5V258Z" fill="#EABD91"/>
<path d="M522.151 409L416.651 170.5H404.151L508.651 409H522.151Z" fill="#EABD91"/>
<path d="M340.151 409L445.651 170.5H458.151L353.651 409H340.151Z" fill="#EABD91"/>
<path d="M515.151 59.5003C510.351 61.9003 509.818 70.5003 510.151 74.5003L441.651 217L532.651 222.5C530.985 221.167 526.451 216.2 521.651 207C515.651 195.5 522.651 108.5 527.651 91.5003C532.651 74.5003 521.151 56.5003 515.151 59.5003Z" fill="#FBDFC3" stroke="white" stroke-width="0.5" stroke-linecap="round"/>
<path d="M374.651 53.0005C364.251 58.6005 367.985 70.3338 371.151 75.5005H512.151C508.551 67.5005 513.651 61.1672 516.651 59.0005L374.651 53.0005Z" fill="#FFF6ED" stroke="#FBDFC3" stroke-width="0.5" stroke-linecap="round"/>
<path d="M228.651 205C234.485 211 246.851 227.6 249.651 246V259C255.151 256.334 267.751 250.5 274.151 248.5C275.651 246.834 279.151 243.5 281.151 243.5C283.651 243.5 299.151 248.5 302.151 246C305.151 243.5 313.151 247 294.651 250.5C281.828 252.927 279.339 252.525 279.771 251.832C270.471 259.934 252.019 275.5 249.651 275.5C246.651 275.5 240.651 271 238.651 267.5C237.051 264.7 233.318 243.667 231.651 233.5L228.651 205Z" fill="#FFCD9D" stroke="#FFCD9D"/>
<rect x="192.151" y="300.5" width="49" height="7" rx="3.5" fill="#ABABAB"/>
<path d="M333.25 249.56C336.898 244.196 359.598 128.619 370.492 71.5005C384.172 78.9507 513.38 71.5005 514.14 75.2256C514.748 78.2057 490.579 198.651 478.418 258.5C428.508 257.755 329.601 254.924 333.25 249.56Z" fill="#FFF6ED" stroke="white" stroke-width="0.5" stroke-linecap="round"/>
<path d="M230.652 304L245.152 256.5H311.652L292.652 308.5C275.818 308.334 240.952 308.1 236.152 308.5C231.352 308.9 230.485 305.667 230.652 304Z" fill="#C4C4C4" stroke="#C4C4C4" stroke-width="2" stroke-linejoin="round"/>
<path d="M216.151 215C204.151 214.2 188.818 204.667 182.651 200C179.851 200 172.818 205.667 169.651 208.5C174.485 210.667 181.051 216.6 182.651 223C184.251 229.4 183.318 255.167 182.651 269.5C197.651 282 235.151 275.5 235.151 274C235.151 272.5 233.651 259.5 233.151 256.5C232.651 253.5 241.651 244 241.151 235C240.751 227.8 234.651 213.334 231.651 207L224.151 202.5C226.151 208.1 219.651 213.167 216.151 215Z" fill="#FCFF66" stroke="#FFB9B9"/>
<path fill-rule="evenodd" clip-rule="evenodd" d="M477.277 104.014C480.03 103.807 482.43 105.872 482.637 108.626C483.416 118.988 477.193 169.633 476.037 154.248L473.57 121.412L441.442 158.761C440.416 159.953 438.89 160.593 437.32 160.489C435.751 160.385 434.322 159.549 433.463 158.232L429.58 152.277L403.924 181.781C402.883 182.979 401.335 183.611 399.753 183.484C398.171 183.358 396.743 182.488 395.905 181.14L388.76 169.645L366.956 206.544L358.347 201.457L384.347 157.457C385.236 155.951 386.847 155.02 388.595 155.001C390.343 154.981 391.975 155.876 392.898 157.361L400.822 170.109L426.378 140.719C427.407 139.536 428.931 138.904 430.496 139.012C432.06 139.12 433.483 139.956 434.339 141.269L438.202 147.192L465.989 114.891L433.152 117.358C417.767 118.514 466.914 104.793 477.277 104.014Z" fill="#0ED339"/>
<path d="M148.651 354L104.651 451M191.151 376.5L217.151 451" stroke="#8F6F50" stroke-width="10" stroke-linecap="round" stroke-linejoin="round"/>
<defs>
<radialGradient id="paint0_radial_1619_1669" cx="0" cy="0" r="1" gradientUnits="userSpaceOnUse" gradientTransform="translate(277 481.5) rotate(90) scale(9.5 209)">
<stop stop-color="#696666"/>
<stop offset="1" stop-color="#E4E4E4" stop-opacity="0"/>
</radialGradient>
</defs>
</svg>
