<svg width="483" height="218" viewBox="0 0 483 218" fill="none" xmlns="http://www.w3.org/2000/svg">
<path d="M341.229 217.99C343.193 216.831 345.141 215.633 347.074 214.397C371.575 198.637 392.605 175.418 399.546 147.103C406.487 118.787 396.555 85.429 371.675 70.2748C350.044 57.0996 322.348 59.5674 297.984 66.4888C273.62 73.4103 250.15 84.3001 224.967 86.9125C195.137 90.0101 163.154 81.5226 136.067 94.3984C106 108.692 92.4443 147.746 102.187 179.614C106.656 194.221 115.182 207.086 126.197 217.601L341.229 217.99Z" fill="#9FB26B"/>
<path opacity="0.6" d="M154.092 217.88L154.003 217.821C152.081 216.599 150.18 215.34 148.351 214.07C121.642 195.566 103.572 170.586 97.4702 143.73C90.2919 112.141 101.709 78.2941 124.629 63.2501C142.482 51.5307 166.571 50.1712 196.223 59.2094C203.934 61.5636 211.673 64.403 219.157 67.153C234.531 72.7976 250.442 78.6349 266.785 80.4556C276.906 81.5811 287.461 81.2162 297.664 80.8583C316.435 80.2009 335.825 79.5228 352.907 88.2616C380.96 102.621 395.73 142.642 385.832 177.497C381.559 192.538 372.864 204.436 356.765 217.288L356.665 217.367H356.538L154.092 217.88ZM160.737 54.0501C146.934 54.0501 134.991 57.3232 125.025 63.8661C102.359 78.745 91.0723 112.265 98.1853 143.568C104.246 170.242 122.213 195.067 148.77 213.464C150.561 214.706 152.425 215.945 154.305 217.143L356.4 216.63C372.307 203.916 380.898 192.145 385.117 177.294C394.925 142.769 380.321 103.123 352.564 88.9155C335.67 80.2663 316.359 80.9443 297.685 81.5948C287.454 81.939 276.875 82.3211 266.696 81.1887C250.253 79.3577 234.311 73.5032 218.909 67.8448C211.436 65.0914 203.704 62.2588 196.013 59.9287C183.181 56.0096 171.422 54.0501 160.737 54.0501Z" fill="#9192FF"/>
<path d="M432.144 202.119C424.924 202.119 419.042 196.613 419.042 189.867C419.042 183.121 424.921 177.61 432.144 177.61C439.367 177.61 445.249 183.117 445.249 189.867C445.249 196.616 439.37 202.119 432.144 202.119ZM432.144 182.178C427.437 182.178 423.604 185.619 423.604 189.867C423.604 194.114 427.437 197.552 432.144 197.552C436.85 197.552 440.687 194.11 440.687 189.867C440.687 185.623 436.854 182.195 432.144 182.195V182.178Z" fill="#F75D59"/>
<path d="M427.527 217.291H398.852L393.949 167.478H432.429L427.527 217.291Z" fill="white"/>
<path d="M427.97 217.78H398.404L393.392 166.989H432.955L427.97 217.78ZM399.294 216.799H427.083L431.896 167.97H394.488L399.294 216.799Z" fill="#F75D59"/>
<path d="M422.538 213.15H403.84L400.643 181.923H425.736L422.538 213.15Z" fill="#EBEBFF"/>
<path d="M270.34 76.3668L236.274 74.3018L191.822 86.059C184.139 88.0905 177.049 91.9238 171.139 97.2419C165.228 102.56 160.667 109.21 157.832 116.643L130.051 189.454L184.63 141.035L199.664 217.267L301.621 216.923L301.295 111.084L270.34 76.3668Z" fill="#F75D59"/>
<path d="M243.157 115.882C236.968 115.882 231.22 113.473 227.404 109.219L228.133 108.565C232.217 113.118 238.667 115.448 245.384 114.791C248.93 114.448 252.344 113.267 255.345 111.344C258.345 109.421 260.846 106.813 262.642 103.732L263.485 104.238C261.609 107.45 258.999 110.171 255.868 112.175C252.738 114.18 249.176 115.411 245.477 115.768C244.703 115.844 243.929 115.882 243.157 115.882Z" fill="#C5C5FF"/>
<path d="M247.403 102.562C240.871 105.722 232.854 102.6 229.567 95.6131L228.46 93.2452L217.225 69.3488L210.35 54.7143L243.556 38.6445L258.016 69.4073C263.96 82.0594 259.226 96.8384 247.403 102.562Z" fill="#FFBC96"/>
<path d="M246.726 63.1743C243.804 77.4268 236.498 87.1912 228.461 93.2454L217.226 69.3489L246.726 63.1743Z" fill="#1D1D1B"/>
<path d="M250.621 45.3386C250.621 62.5476 240.926 74.3495 228.618 80.4449C215.967 86.7021 202.755 62.6577 196.443 46.5811C189.911 29.8952 207.926 17.3809 223.021 17.3809C238.117 17.3809 250.621 28.1296 250.621 45.3386Z" fill="#FFBC96"/>
<path d="M251.302 35.5264C249.834 17.8597 246.245 1.15663 229.898 5.42446C223.689 -3.24543 197.709 -3.08025 191.339 17.5327C187.213 30.8283 174.019 37.323 174.019 37.323C189.867 45.6659 204.478 42.5442 224.834 27.0183C231.204 36.3421 249.342 36.9995 249.342 36.9995L251.302 35.5264Z" fill="#1D1D1B"/>
<path d="M256.381 43.8398C257.096 38.2609 254.144 33.2848 249.788 32.7254C245.432 32.166 241.322 36.2351 240.607 41.814C239.892 47.3929 242.844 52.369 247.2 52.9285C251.556 53.4879 255.666 49.4187 256.381 43.8398Z" fill="#FFBC96"/>
<path d="M250.074 38.61C249.019 39.4808 248.672 40.6751 248.699 41.9245C248.708 42.5557 248.805 43.1825 248.988 43.7865C249.161 44.4013 249.462 44.9726 249.871 45.4627L249.579 45.9583C248.793 45.6542 248.155 45.0572 247.798 44.2924C247.422 43.5615 247.229 42.7501 247.235 41.9279C247.225 41.0871 247.448 40.26 247.881 39.5393C248.095 39.1772 248.38 38.8619 248.718 38.6123C249.057 38.3628 249.442 38.1841 249.851 38.0869L250.074 38.61Z" fill="#1B1B43"/>
<path d="M225.923 50.107C227.292 50.0111 228.315 48.6882 228.207 47.1523C228.1 45.6164 226.903 44.4491 225.534 44.545C224.165 44.641 223.143 45.9639 223.25 47.4997C223.357 49.0356 224.554 50.2029 225.923 50.107Z" fill="#1B1B43"/>
<path d="M210.42 56.566C211.578 56.1174 212.11 54.7004 211.608 53.4009C211.106 52.1015 209.76 51.4116 208.602 51.8602C207.444 52.3087 206.912 53.7258 207.414 55.0252C207.916 56.3247 209.262 57.0145 210.42 56.566Z" fill="#1B1B43"/>
<path d="M229.23 42.0828C229.282 42.8606 225.156 42.6128 223.386 42.988C221.87 43.3081 219.563 44.7846 218.525 43.308C217.586 41.9795 219.941 40.472 222.863 40.2758C225.785 40.0797 229.179 41.3049 229.23 42.0828Z" fill="#1B1B43"/>
<path d="M202.624 50.6355C203.088 51.2757 205.196 49.0798 206.406 48.5188C207.437 48.0404 209.641 48.0852 209.277 46.4228C208.95 44.9222 206.702 44.874 204.979 46.1337C203.257 47.3934 202.16 49.9988 202.624 50.6355Z" fill="#1B1B43"/>
<path d="M219.154 68.1511C220.137 67.0511 221.402 66.2427 222.812 65.8141C224.176 65.3576 225.616 65.1717 227.051 65.2669L227.158 65.8348C225.892 66.3782 224.592 66.8381 223.266 67.2115C221.987 67.6073 220.784 68.0788 219.484 68.6158L219.154 68.1511Z" fill="#1B1B43"/>
<path d="M215.438 55.8261C215.531 56.9465 215.309 58.0707 214.798 59.0717C214.526 59.5804 214.178 60.0446 213.767 60.4484C213.439 60.7254 213.15 61.0448 212.907 61.3984C212.86 61.5209 212.841 61.6528 212.852 61.7839C212.852 61.8906 212.876 61.8974 212.852 61.9146C212.828 61.9319 212.897 61.9766 212.925 62.0248C213.227 62.2828 213.578 62.4782 213.956 62.5996C214.907 62.905 215.873 63.1612 216.851 63.3671V63.9419C215.774 64.0989 214.677 64.0651 213.612 63.842C212.986 63.7254 212.4 63.4492 211.91 63.0401C211.759 62.8873 211.633 62.7106 211.539 62.517C211.449 62.3209 211.397 62.1095 211.384 61.894C211.341 61.5088 211.405 61.1191 211.57 60.7685C211.885 60.2482 212.295 59.7927 212.78 59.4262C213.129 59.1281 213.442 58.7895 213.712 58.4178C214.241 57.6053 214.626 56.7076 214.85 55.7642L215.438 55.8261Z" fill="#D28572"/>
<path opacity="0.2" d="M242.169 53.3394C242.211 49.8725 239.438 47.0277 235.975 46.9853C232.512 46.943 229.671 49.7191 229.628 53.186C229.586 56.6529 232.359 59.4977 235.822 59.5401C239.285 59.5824 242.126 56.8063 242.169 53.3394Z" fill="#FE5B52"/>
<path d="M327.133 111.924C322.377 101.91 315.026 93.3566 305.847 87.1527C296.667 80.9487 285.995 77.3216 274.94 76.6489L270.34 76.3667L304.254 153.676L341.383 139.882L327.133 111.924Z" fill="#F75D59"/>
<path d="M208.658 61.5359C208.29 55.8914 209.27 42.6439 205.839 44.1136C202.408 45.5832 201.549 64.723 201.549 64.723C201.549 64.723 201.061 32.8245 197.382 34.2975C193.704 35.7706 193.707 58.8341 185.618 83.3741L140.193 179.4C138.917 182.098 138.275 185.051 138.314 188.035C138.354 191.02 139.074 193.955 140.421 196.618C141.767 199.281 143.704 201.6 146.083 203.398C148.462 205.196 151.221 206.426 154.147 206.993C158.606 207.856 163.225 207.139 167.212 204.965C171.2 202.791 174.308 199.295 176.002 195.078C187.766 165.822 209.377 102.652 211.474 90.3507C213.193 80.2903 212.749 75.9398 212.086 73.3516C210.989 69.0941 208.944 65.9414 208.658 61.5359Z" fill="#FFBC96"/>
<path d="M185.902 81.2506C187.277 77.4647 188.202 73.5135 189.048 69.5485C189.894 65.5836 190.581 61.6015 191.303 57.6159L193.431 45.6453C193.809 43.6525 194.198 41.6597 194.662 39.6738C194.899 38.6825 195.15 37.6913 195.463 36.7035C195.621 36.202 195.808 35.7101 196.023 35.2304C196.137 34.9748 196.273 34.7295 196.429 34.4973C196.618 34.1738 196.917 33.9294 197.271 33.8089H197.237C197.381 33.7808 197.527 33.7647 197.674 33.7607C197.811 33.79 197.946 33.8315 198.076 33.8846C198.275 33.9953 198.449 34.1452 198.588 34.3252C198.821 34.614 199.011 34.9351 199.152 35.2786C199.421 35.9049 199.639 36.5517 199.805 37.2129C200.135 38.4974 200.4 39.7977 200.599 41.109C201.008 43.7144 201.287 46.3302 201.507 48.9494C201.93 54.1844 202.157 59.4331 202.105 64.6922L200.991 64.6681C201.115 61.6978 201.335 58.7516 201.679 55.802C202.023 52.8524 202.449 49.9097 203.374 47.022C203.615 46.282 203.936 45.57 204.329 44.8984C204.555 44.5334 204.842 44.2107 205.178 43.945C205.376 43.7911 205.603 43.6787 205.845 43.6142C206.087 43.5498 206.34 43.5347 206.588 43.5699C206.705 43.5974 206.818 43.6422 206.932 43.68C207.057 43.7153 207.175 43.7762 207.276 43.859C207.343 43.9128 207.407 43.9702 207.468 44.0311C207.508 44.0797 207.543 44.1315 207.575 44.186C207.641 44.2836 207.699 44.386 207.75 44.4923C207.908 44.8595 208.034 45.2395 208.128 45.628C208.305 46.3625 208.443 47.1059 208.541 47.8549C208.895 50.8079 209.048 53.7816 208.998 56.7554C208.998 58.2491 208.895 59.7016 209.025 61.1403C209.147 62.5859 209.398 64.0177 209.775 65.4184C210.163 66.8277 210.622 68.2165 211.15 69.5795C211.729 70.9591 212.189 72.3857 212.525 73.8439C213.118 76.7752 213.264 79.7796 212.958 82.7547C212.667 85.7078 212.123 88.6303 211.332 91.49L210.909 91.3799C211.637 88.5352 212.121 85.6335 212.357 82.7065C212.605 79.796 212.41 76.8646 211.779 74.0126C211.432 72.6011 210.972 71.2199 210.404 69.8824C209.86 68.4961 209.386 67.0831 208.984 65.649C208.585 64.2028 208.316 62.7239 208.18 61.2297C208.035 59.7222 208.125 58.2182 208.121 56.7554C208.153 53.8263 207.984 50.8985 207.616 47.9926C207.518 47.2805 207.384 46.5741 207.214 45.8759C207.131 45.5478 207.023 45.2267 206.891 44.9156C206.86 44.8365 206.818 44.802 206.791 44.7401C206.763 44.6781 206.729 44.6609 206.729 44.6609C206.729 44.6609 206.65 44.6231 206.598 44.6024C206.547 44.5818 206.478 44.5542 206.42 44.5405C205.983 44.4682 205.512 44.8537 205.161 45.4353C204.814 46.0399 204.532 46.6803 204.322 47.3455C203.46 50.0989 203.061 53.021 202.727 55.9294C202.394 58.8377 202.212 61.7804 202.108 64.7094L200.995 64.6853C201.043 59.471 200.871 54.2429 200.472 49.0389C200.273 46.4369 200.008 43.8418 199.619 41.2708C199.42 39.987 199.19 38.7066 198.87 37.4676C198.72 36.8576 198.522 36.2604 198.279 35.6813C198.175 35.4167 198.034 35.1686 197.859 34.9447C197.801 34.8645 197.729 34.7956 197.646 34.7416C197.622 34.7382 197.6 34.7287 197.581 34.7141C197.564 34.7313 197.553 34.7313 197.533 34.7141H197.495C197.377 34.7875 197.278 34.8877 197.206 35.0067C197.076 35.1947 196.961 35.3926 196.862 35.5986C196.662 36.0472 196.487 36.5068 196.34 36.9754C196.03 37.9184 195.776 38.8925 195.542 39.8699C195.068 41.8249 194.669 43.8073 194.284 45.7933L192.084 57.7432C191.362 61.7322 190.568 65.711 189.677 69.669C188.787 73.6271 187.783 77.5852 186.311 81.3711L185.902 81.2506Z" fill="#D28572"/>
<path d="M359.126 193.832C358.958 205.138 354.038 213.04 347.871 217.58L335.35 217.384L332.256 217.336H332.187L317.473 183.799L317.442 183.72L304.258 153.666L341.387 139.864L355.231 173.935C358.067 181.445 359.212 188.08 359.126 193.832Z" fill="#FFBC96"/>
<path d="M348.851 180.298L251.408 191.212L238.729 187.11C235.904 186.195 232.897 185.995 229.976 186.529C227.055 187.062 224.311 188.312 221.99 190.166C210.938 199.005 192.961 215.291 197.619 216.613C205.464 218.819 215.706 214.689 224.902 212.376C229.979 211.096 235.348 211.707 240.008 214.097L246.385 217.363H343.454L348.851 180.298Z" fill="#FFBC96"/>
<path d="M199.946 214.892C202.576 213.35 205.247 211.891 207.926 210.445C210.604 208.999 213.313 207.619 216.005 206.201C217.366 205.456 218.781 204.812 220.237 204.274C221.717 203.756 223.251 203.403 224.809 203.221C226.36 203.045 227.926 203.028 229.481 203.169C231.025 203.323 232.547 203.649 234.019 204.14L233.868 204.697C232.402 204.395 230.912 204.227 229.416 204.195C227.933 204.146 226.45 204.246 224.988 204.494C223.532 204.733 222.104 205.112 220.721 205.626C219.331 206.164 217.978 206.791 216.668 207.502C213.938 208.851 211.236 210.256 208.489 211.553C205.742 212.851 202.989 214.179 200.208 215.405L199.946 214.892Z" fill="#D28572"/>
<path d="M201.366 210.012C203.137 208.332 204.986 206.759 206.867 205.224C208.747 203.689 210.693 202.216 212.677 200.801C214.664 199.379 216.724 198.062 218.848 196.854C221.007 195.721 223.204 194.482 225.782 194.241L225.83 194.816C224.697 195.112 223.608 195.56 222.595 196.148C221.533 196.678 220.532 197.325 219.501 197.962C217.473 199.242 215.496 200.626 213.519 201.999C211.542 203.372 209.593 204.814 207.62 206.212C205.646 207.609 203.704 209.058 201.72 210.456L201.366 210.012Z" fill="#D28572"/>
<path d="M328.136 186.702L315.059 186.964L315.088 188.437L328.166 188.175L328.136 186.702Z" fill="#D28572"/>
<path d="M295.201 134.165L294.321 134.598L303.809 153.944L304.689 153.512L295.201 134.165Z" fill="#EBEBFF"/>
<path opacity="0.2" d="M359.127 193.832C358.959 205.138 354.039 213.04 347.871 217.58L335.351 217.384C335.346 217.368 335.346 217.351 335.351 217.336C334.431 214.047 334.407 210.571 335.281 207.27C336.156 203.969 337.898 200.962 340.325 198.563C342.752 196.163 345.777 194.457 349.085 193.623C352.393 192.788 355.864 192.856 359.137 193.818L359.127 193.832Z" fill="#FE5B52"/>
<path d="M203.921 205.51H148.038V217.288H203.921V205.51Z" fill="#AFCAF9"/>
<path d="M166.991 217.291H78.2667L52.7783 128.465H141.503L166.991 217.291Z" fill="#DCE7F9"/>
<path d="M77.9125 217.391L52.29 128.093H79.738V128.83H53.2664L78.6207 217.188L77.9125 217.391Z" fill="#1D1D1B"/>
<path d="M157.489 184.814L141.225 128.83H100.324V128.093H141.778L158.194 184.611L157.489 184.814Z" fill="#1D1D1B"/>
<path d="M483 216.527H0V218H483V216.527Z" fill="#AFCAF9"/>
</svg>
