<svg width="406" height="406" viewBox="0 0 406 406" fill="none" xmlns="http://www.w3.org/2000/svg">
<g clip-path="url(#clip0_719_629)">
<mask id="path-1-inside-1_719_629" fill="white">
<path fill-rule="evenodd" clip-rule="evenodd" d="M156.864 203L-1.52588e-05 203L-8.87341e-06 406L203 406L203 353.424L116.834 353.424L116.834 325.676L203 325.676L203 278.212L101.5 278.212L101.5 250.464L203 250.464L203 249.136L156.864 203Z"/>
</mask>
<path fill-rule="evenodd" clip-rule="evenodd" d="M156.864 203L-1.52588e-05 203L-8.87341e-06 406L203 406L203 353.424L116.834 353.424L116.834 325.676L203 325.676L203 278.212L101.5 278.212L101.5 250.464L203 250.464L203 249.136L156.864 203Z" fill="#FF7666"/>
<path d="M-1.52588e-05 203L-1.51714e-05 201L-2.00002 201L-2.00002 203L-1.52588e-05 203ZM156.864 203L158.278 201.586L157.692 201L156.864 201L156.864 203ZM-8.87341e-06 406L-2.00001 406L-2.00001 408L-8.96084e-06 408L-8.87341e-06 406ZM203 406L203 408L205 408L205 406L203 406ZM203 353.424L205 353.424L205 351.424L203 351.424L203 353.424ZM116.834 353.424L114.834 353.424L114.834 355.424L116.834 355.424L116.834 353.424ZM116.834 325.676L116.834 323.676L114.834 323.676L114.834 325.676L116.834 325.676ZM203 325.676L203 327.676L205 327.676L205 325.676L203 325.676ZM203 278.212L205 278.212L205 276.212L203 276.212L203 278.212ZM101.5 278.212L99.5 278.212L99.5 280.212L101.5 280.212L101.5 278.212ZM101.5 250.464L101.5 248.464L99.5 248.464L99.5 250.464L101.5 250.464ZM203 250.464L203 252.464L205 252.464L205 250.464L203 250.464ZM203 249.136L205 249.136L205 248.308L204.414 247.722L203 249.136ZM-1.53462e-05 205L156.864 205L156.864 201L-1.51714e-05 201L-1.53462e-05 205ZM1.99999 406L1.99998 203L-2.00002 203L-2.00001 406L1.99999 406ZM203 404L-8.78599e-06 404L-8.96084e-06 408L203 408L203 404ZM201 353.424L201 406L205 406L205 353.424L201 353.424ZM116.834 355.424L203 355.424L203 351.424L116.834 351.424L116.834 355.424ZM114.834 325.676L114.834 353.424L118.834 353.424L118.834 325.676L114.834 325.676ZM203 323.676L116.834 323.676L116.834 327.676L203 327.676L203 323.676ZM201 278.212L201 325.676L205 325.676L205 278.212L201 278.212ZM101.5 280.212L203 280.212L203 276.212L101.5 276.212L101.5 280.212ZM99.5 250.464L99.5 278.212L103.5 278.212L103.5 250.464L99.5 250.464ZM203 248.464L101.5 248.464L101.5 252.464L203 252.464L203 248.464ZM201 249.136L201 250.464L205 250.464L205 249.136L201 249.136ZM204.414 247.722L158.278 201.586L155.449 204.414L201.586 250.551L204.414 247.722Z" fill="#F14040" mask="url(#path-1-inside-1_719_629)"/>
<mask id="path-3-inside-2_719_629" fill="white">
<path fill-rule="evenodd" clip-rule="evenodd" d="M203 156.864L203 135.82L157.726 135.82L157.726 67.9101L203 67.91L203 0L-1.52588e-05 2.1855e-08L-1.82272e-05 67.9101L49.6548 67.9101L49.6548 135.82L-5.93689e-06 135.82L-8.87341e-06 203L156.864 203L203 156.864Z"/>
</mask>
<path fill-rule="evenodd" clip-rule="evenodd" d="M203 156.864L203 135.82L157.726 135.82L157.726 67.9101L203 67.91L203 0L-1.52588e-05 2.1855e-08L-1.82272e-05 67.9101L49.6548 67.9101L49.6548 135.82L-5.93689e-06 135.82L-8.87341e-06 203L156.864 203L203 156.864Z" fill="#66FF9A"/>
<path d="M203 156.864L204.414 158.278L205 157.692L205 156.864L203 156.864ZM203 135.82L205 135.82L205 133.82L203 133.82L203 135.82ZM157.726 135.82L155.726 135.82L155.726 137.82L157.726 137.82L157.726 135.82ZM157.726 67.9101L157.726 65.9101L155.726 65.9101L155.726 67.9101L157.726 67.9101ZM203 67.91L203 69.91L205 69.91L205 67.91L203 67.91ZM203 0L205 0L205 -2L203 -2L203 0ZM-1.52588e-05 2.1855e-08L-1.51714e-05 -2L-2.00002 -2L-2.00002 -6.55678e-08L-1.52588e-05 2.1855e-08ZM-1.82272e-05 67.9101L-2.00002 67.9101L-2.00002 69.9101L-1.83147e-05 69.9101L-1.82272e-05 67.9101ZM49.6548 67.9101L51.6548 67.9101L51.6548 65.9101L49.6548 65.9101L49.6548 67.9101ZM49.6548 135.82L49.6548 137.82L51.6548 137.82L51.6548 135.82L49.6548 135.82ZM-5.93689e-06 135.82L-5.84946e-06 133.82L-2.00001 133.82L-2.00001 135.82L-5.93689e-06 135.82ZM-8.87341e-06 203L-2.00001 203L-2.00001 205L-8.96084e-06 205L-8.87341e-06 203ZM156.864 203L156.864 205L157.692 205L158.278 204.414L156.864 203ZM205 156.864L205 135.82L201 135.82L201 156.864L205 156.864ZM203 133.82L157.726 133.82L157.726 137.82L203 137.82L203 133.82ZM159.726 135.82L159.726 67.9101L155.726 67.9101L155.726 135.82L159.726 135.82ZM157.726 69.9101L203 69.91L203 65.91L157.726 65.9101L157.726 69.9101ZM205 67.91L205 0L201 0L201 67.91L205 67.91ZM203 -2L-1.51714e-05 -2L-1.53462e-05 2L203 2L203 -2ZM-2.00002 -6.55678e-08L-2.00002 67.9101L1.99998 67.9101L1.99998 1.09278e-07L-2.00002 -6.55678e-08ZM-1.83147e-05 69.9101L49.6548 69.9101L49.6548 65.9101L-1.81398e-05 65.9101L-1.83147e-05 69.9101ZM47.6548 67.9101L47.6548 135.82L51.6548 135.82L51.6548 67.9101L47.6548 67.9101ZM49.6548 133.82L-5.84946e-06 133.82L-6.02431e-06 137.82L49.6548 137.82L49.6548 133.82ZM-2.00001 135.82L-2.00001 203L1.99999 203L1.99999 135.82L-2.00001 135.82ZM-8.96084e-06 205L156.864 205L156.864 201L-8.78599e-06 201L-8.96084e-06 205ZM158.278 204.414L204.414 158.278L201.586 155.449L155.449 201.586L158.278 204.414Z" fill="#0ED339" mask="url(#path-3-inside-2_719_629)"/>
<mask id="path-5-inside-3_719_629" fill="white">
<path fill-rule="evenodd" clip-rule="evenodd" d="M203 -3.52506e-06L325.356 -3.52506e-06L325.356 97.3288L406 97.3288L406 203L249.136 203L203 156.864L203 -3.52506e-06Z"/>
</mask>
<path fill-rule="evenodd" clip-rule="evenodd" d="M203 -3.52506e-06L325.356 -3.52506e-06L325.356 97.3288L406 97.3288L406 203L249.136 203L203 156.864L203 -3.52506e-06Z" fill="#F5EF9B"/>
<path d="M325.356 -3.52506e-06L327.356 -3.43764e-06L327.356 -2L325.356 -2L325.356 -3.52506e-06ZM203 -3.52506e-06L203 -2L201 -2L201 -3.80703e-06L203 -3.52506e-06ZM325.356 97.3288L323.356 97.3288L323.356 99.3288L325.356 99.3288L325.356 97.3288ZM406 97.3288L408 97.3288L408 95.3288L406 95.3288L406 97.3288ZM406 203L406 205L408 205L408 203L406 203ZM249.136 203L247.722 204.414L248.308 205L249.136 205L249.136 203ZM203 156.864L201 156.864L201 157.692L201.586 158.278L203 156.864ZM325.356 -2L203 -2L203 2L325.356 2L325.356 -2ZM327.356 97.3288L327.356 -3.43764e-06L323.356 -3.61248e-06L323.356 97.3288L327.356 97.3288ZM406 95.3288L325.356 95.3288L325.356 99.3288L406 99.3288L406 95.3288ZM408 203L408 97.3288L404 97.3288L404 203L408 203ZM249.136 205L406 205L406 201L249.136 201L249.136 205ZM201.586 158.278L247.722 204.414L250.551 201.586L204.414 155.449L201.586 158.278ZM201 -3.80703e-06L201 156.864L205 156.864L205 -3.24309e-06L201 -3.80703e-06Z" fill="#FFDD28" mask="url(#path-5-inside-3_719_629)"/>
<mask id="path-7-inside-4_719_629" fill="white">
<path fill-rule="evenodd" clip-rule="evenodd" d="M249.136 203L406 203L406 406L343.202 406L343.202 371.68L265.069 371.68L265.069 406L203 406L203 249.136L249.136 203ZM285.515 276.752L322.025 276.752L338.09 327.137L270.18 327.137L285.515 276.752Z"/>
</mask>
<path fill-rule="evenodd" clip-rule="evenodd" d="M249.136 203L406 203L406 406L343.202 406L343.202 371.68L265.069 371.68L265.069 406L203 406L203 249.136L249.136 203ZM285.515 276.752L322.025 276.752L338.09 327.137L270.18 327.137L285.515 276.752Z" fill="#66E3FF"/>
<path d="M249.136 203L249.136 201L248.308 201L247.722 201.586L249.136 203ZM406 203L408 203L408 201L406 201L406 203ZM406 406L406 408L408 408L408 406L406 406ZM343.202 406L341.202 406L341.202 408L343.202 408L343.202 406ZM343.202 371.68L345.202 371.68L345.202 369.68L343.202 369.68L343.202 371.68ZM265.069 371.68L265.069 369.68L263.069 369.68L263.069 371.68L265.069 371.68ZM265.069 406L265.069 408L267.069 408L267.069 406L265.069 406ZM203 406L201 406L201 408L203 408L203 406ZM203 249.136L201.586 247.722L201 248.308L201 249.136L203 249.136ZM322.025 276.752L323.931 276.144L323.487 274.752L322.025 274.752L322.025 276.752ZM285.515 276.752L285.515 274.752L284.033 274.752L283.601 276.169L285.515 276.752ZM338.09 327.137L338.09 329.137L340.827 329.137L339.996 326.529L338.09 327.137ZM270.18 327.137L268.267 326.554L267.481 329.137L270.18 329.137L270.18 327.137ZM249.136 205L406 205L406 201L249.136 201L249.136 205ZM404 203L404 406L408 406L408 203L404 203ZM406 404L343.202 404L343.202 408L406 408L406 404ZM345.202 406L345.202 371.68L341.202 371.68L341.202 406L345.202 406ZM343.202 369.68L265.069 369.68L265.069 373.68L343.202 373.68L343.202 369.68ZM263.069 371.68L263.069 406L267.069 406L267.069 371.68L263.069 371.68ZM265.069 404L203 404L203 408L265.069 408L265.069 404ZM205 406L205 249.136L201 249.136L201 406L205 406ZM247.722 201.586L201.586 247.722L204.414 250.551L250.551 204.414L247.722 201.586ZM322.025 274.752L285.515 274.752L285.515 278.752L322.025 278.752L322.025 274.752ZM339.996 326.529L323.931 276.144L320.12 277.359L336.185 327.744L339.996 326.529ZM270.18 329.137L338.09 329.137L338.09 325.137L270.18 325.137L270.18 329.137ZM283.601 276.169L268.267 326.554L272.093 327.719L287.428 277.334L283.601 276.169Z" fill="#5A8AE9" mask="url(#path-7-inside-4_719_629)"/>
</g>
<defs>
<clipPath id="clip0_719_629">
<rect width="406" height="406" fill="white"/>
</clipPath>
</defs>
</svg>
