<svg width="258" height="258" viewBox="0 0 258 258" fill="none" xmlns="http://www.w3.org/2000/svg">
<g clip-path="url(#clip0_4172_1955)">
<path d="M128.997 257.995C200.178 257.995 257.882 200.241 257.882 128.997C257.882 57.7541 200.178 0 128.997 0C57.8161 0 0.112305 57.7541 0.112305 128.997C0.112305 200.241 57.8161 257.995 128.997 257.995Z" fill="white"/>
<path fill-rule="evenodd" clip-rule="evenodd" d="M89.6639 9.2127C93.2173 9.2127 109.898 7.56836 109.898 7.56836L123.277 14.6813C123.277 14.6813 125.192 39.7748 126.011 40.4926C126.83 41.2103 126.247 61.7243 128.997 77.0375C131.748 92.3507 133.391 110.679 133.391 110.679L109.898 129.003L87.1755 122.672C87.1755 122.672 69.446 101.387 70.2648 100.712C71.0836 100.037 81.4708 66.3842 81.4708 66.3842C81.4708 66.3842 84.473 39.8552 84.7459 39.0303C85.0188 38.2055 89.6639 9.2127 89.6639 9.2127Z" fill="#EC6C24"/>
<path fill-rule="evenodd" clip-rule="evenodd" d="M109.545 0.89437C74.4712 6.5451 44.6207 25.1202 23.4502 54.5736C17.7349 62.4847 9.83074 78.3067 6.58239 88.1245C-4.10286 120.391 -1.7204 155.565 13.2182 186.094C17.1676 194.219 17.3068 194.358 17.66 191.959C17.874 190.614 19.0727 183.389 20.2715 176.067C27.2605 132.768 34.5278 113.057 48.4309 100.01C52.664 95.982 60.7126 90.9686 62.8799 90.9686C63.3776 90.9686 63.5863 93.0147 63.3776 97.1121C63.094 104.611 64.084 109.474 67.1879 116.041C73.1869 128.547 85.0404 136.458 99.2967 137.374C116.657 138.504 132.112 127.84 137.902 110.813C139.807 105.237 140.086 94.5679 138.534 89.3457L137.549 86.0249L147.497 86.0945C153.004 86.1641 159.356 86.3784 161.615 86.6569L165.634 87.0854L162.053 91.9916C153.935 103.148 151.961 109.667 152.383 124.482C152.667 132.955 152.951 135.194 154.642 140.015C158.029 149.972 162.476 155.199 167.416 155.199C170.734 155.199 171.649 154.214 169.46 153.014C166.709 151.531 161.7 145.735 159.651 141.568C152.1 126.035 156.338 103.074 169.251 90.0045C181.174 78.0014 194.516 78.4245 208.065 91.4185C220.417 103.202 231.002 123.909 233.469 141.006C235.727 157.106 231.286 175.285 221.193 190.732C211.41 205.804 201.997 212.505 190.636 212.505C184.214 212.505 178.707 210.743 169.674 205.654C165.864 203.512 162.546 201.841 162.262 201.841C161.979 201.841 161.063 206.661 160.357 212.505C159.581 218.863 158.666 223.528 158.099 224.09C157.531 224.653 155.701 225.29 153.866 225.574C150.548 226.067 136.206 225.574 135.585 224.936C135.376 224.728 134.103 220.839 132.765 216.249C124.368 187.572 110.396 175.708 85.2009 175.708C72.427 175.708 65.2292 178.6 56.9023 187.01C50.6197 193.292 46.1994 201.418 41.87 214.326L39.2585 222.237L42.5015 225.274C58.877 240.389 81.2462 251.69 104.397 256.34C111.38 257.748 114.415 257.946 128.955 257.946C147.653 257.946 154.711 256.955 169.037 252.226C231.847 231.669 269.318 165.628 254.923 101.14C243.562 50.5672 204.394 12.0726 153.935 1.83169C143.982 -0.0965167 119.429 -0.669624 109.545 0.89437ZM105.595 12.9028C107.784 13.9741 109.877 17.7769 109.877 20.53C109.877 21.4459 109.17 23.283 108.271 24.6274C103.754 31.3387 93.287 28.3017 93.287 20.3157C93.2739 18.8638 93.6395 17.4336 94.3478 16.1664C95.0561 14.8992 96.0824 13.8388 97.3255 13.0902C98.5685 12.3416 99.9852 11.9305 101.436 11.8976C102.886 11.8648 104.32 12.2113 105.595 12.9028ZM108.983 42.6401C115.335 46.3091 117.802 55.0717 114.275 61.7776C111.525 67.0052 105.312 70.3475 99.88 69.4798C92.0722 68.2104 87.2559 62.8381 87.1756 55.2806C87.0365 43.556 98.7509 36.7752 108.983 42.6401ZM109.518 80.1331C114.457 81.74 120.456 87.8353 122.153 92.9183C123.919 98.2155 123.491 106.41 121.307 110.717C117.283 118.419 111.214 122.232 102.32 122.586C97.3809 122.795 96.043 122.656 92.7947 121.102C87.7857 118.842 84.4678 115.875 81.9258 111.284C80.0903 107.894 79.8816 106.903 79.8816 100.829C79.8816 95.1785 80.1598 93.6253 81.487 91.0811C87.3148 80.2885 97.4772 76.3303 109.545 80.1439L109.518 80.1331Z" fill="#37455D"/>
<path fill-rule="evenodd" clip-rule="evenodd" d="M164.098 105.998C163.067 106.888 162.186 107.937 161.486 109.105C159.651 112.779 161.486 118.783 165.088 120.69C167.416 121.96 172.045 121.761 174.26 120.337C176.31 118.992 178.354 115.248 178.354 112.838C178.354 110.294 176.165 106.48 174.073 105.42C171.012 103.808 166.356 104.091 164.098 105.998Z" fill="#37455D"/>
<path fill-rule="evenodd" clip-rule="evenodd" d="M180.19 172.601C174.052 174.583 171.092 177.122 167.839 183.48C165.227 188.423 164.944 189.372 165.794 190.405C167.486 192.591 169.541 194.074 173.699 196.195C180.26 199.516 185.622 199.023 190.208 194.588C196.421 188.723 197.481 179.056 192.611 174.101C190.005 171.471 185.343 170.979 180.19 172.601Z" fill="#37455D"/>
</g>
<defs>
<clipPath id="clip0_4172_1955">
<rect width="258" height="258" fill="white"/>
</clipPath>
</defs>
</svg>
