<svg width="266" height="266" viewBox="0 0 266 266" fill="none" xmlns="http://www.w3.org/2000/svg">
<g filter="url(#filter0_d_4321_1704)">
<g clip-path="url(#clip0_4321_1704)">
<path d="M132.997 257.995C204.178 257.995 261.882 200.241 261.882 128.997C261.882 57.7541 204.178 0 132.997 0C61.8161 0 4.1123 57.7541 4.1123 128.997C4.1123 200.241 61.8161 257.995 132.997 257.995Z" fill="white"/>
<path fill-rule="evenodd" clip-rule="evenodd" d="M93.6639 9.2127C97.2173 9.2127 113.898 7.56836 113.898 7.56836L127.277 14.6813C127.277 14.6813 129.192 39.7748 130.011 40.4926C130.83 41.2103 130.247 61.7243 132.997 77.0375C135.748 92.3507 137.391 110.679 137.391 110.679L113.898 129.003L91.1755 122.672C91.1755 122.672 73.446 101.387 74.2648 100.712C75.0836 100.037 85.4708 66.3842 85.4708 66.3842C85.4708 66.3842 88.473 39.8552 88.7459 39.0303C89.0188 38.2055 93.6639 9.2127 93.6639 9.2127Z" fill="#EC6C24"/>
<path fill-rule="evenodd" clip-rule="evenodd" d="M113.545 0.89437C78.4712 6.5451 48.6207 25.1202 27.4502 54.5736C21.7349 62.4847 13.8307 78.3067 10.5824 88.1245C-0.102864 120.391 2.2796 155.565 17.2182 186.094C21.1676 194.219 21.3068 194.358 21.66 191.959C21.874 190.614 23.0727 183.389 24.2715 176.067C31.2605 132.768 38.5278 113.057 52.4309 100.01C56.664 95.982 64.7126 90.9686 66.8799 90.9686C67.3776 90.9686 67.5863 93.0147 67.3776 97.1121C67.094 104.611 68.084 109.474 71.1879 116.041C77.1869 128.547 89.0404 136.458 103.297 137.374C120.657 138.504 136.112 127.84 141.902 110.813C143.807 105.237 144.086 94.5679 142.534 89.3457L141.549 86.0249L151.497 86.0945C157.004 86.1641 163.356 86.3784 165.615 86.6569L169.634 87.0854L166.053 91.9916C157.935 103.148 155.961 109.667 156.383 124.482C156.667 132.955 156.951 135.194 158.642 140.015C162.029 149.972 166.476 155.199 171.416 155.199C174.734 155.199 175.649 154.214 173.46 153.014C170.709 151.531 165.7 145.735 163.651 141.568C156.1 126.035 160.338 103.074 173.251 90.0045C185.174 78.0014 198.516 78.4245 212.065 91.4185C224.417 103.202 235.002 123.909 237.469 141.006C239.727 157.106 235.286 175.285 225.193 190.732C215.41 205.804 205.997 212.505 194.636 212.505C188.214 212.505 182.707 210.743 173.674 205.654C169.864 203.512 166.546 201.841 166.262 201.841C165.979 201.841 165.063 206.661 164.357 212.505C163.581 218.863 162.666 223.528 162.099 224.09C161.531 224.653 159.701 225.29 157.866 225.574C154.548 226.067 140.206 225.574 139.585 224.936C139.376 224.728 138.103 220.839 136.765 216.249C128.368 187.572 114.396 175.708 89.2009 175.708C76.427 175.708 69.2292 178.6 60.9023 187.01C54.6197 193.292 50.1994 201.418 45.87 214.326L43.2585 222.237L46.5015 225.274C62.877 240.389 85.2462 251.69 108.397 256.34C115.38 257.748 118.415 257.946 132.955 257.946C151.653 257.946 158.711 256.955 173.037 252.226C235.847 231.669 273.318 165.628 258.923 101.14C247.562 50.5672 208.394 12.0726 157.935 1.83169C147.982 -0.0965167 123.429 -0.669624 113.545 0.89437ZM109.595 12.9028C111.784 13.9741 113.877 17.7769 113.877 20.53C113.877 21.4459 113.17 23.283 112.271 24.6274C107.754 31.3387 97.287 28.3017 97.287 20.3157C97.2739 18.8638 97.6395 17.4336 98.3478 16.1664C99.0561 14.8992 100.082 13.8388 101.325 13.0902C102.569 12.3416 103.985 11.9305 105.436 11.8976C106.886 11.8648 108.32 12.2113 109.595 12.9028ZM112.983 42.6401C119.335 46.3091 121.802 55.0717 118.275 61.7776C115.525 67.0052 109.312 70.3475 103.88 69.4798C96.0722 68.2104 91.2559 62.8381 91.1756 55.2806C91.0365 43.556 102.751 36.7752 112.983 42.6401ZM113.518 80.1331C118.457 81.74 124.456 87.8353 126.153 92.9183C127.919 98.2155 127.491 106.41 125.307 110.717C121.283 118.419 115.214 122.232 106.32 122.586C101.381 122.795 100.043 122.656 96.7947 121.102C91.7857 118.842 88.4678 115.875 85.9258 111.284C84.0903 107.894 83.8816 106.903 83.8816 100.829C83.8816 95.1785 84.1598 93.6253 85.487 91.0811C91.3148 80.2885 101.477 76.3303 113.545 80.1439L113.518 80.1331Z" fill="#37455D"/>
<path fill-rule="evenodd" clip-rule="evenodd" d="M168.098 105.998C167.067 106.888 166.186 107.937 165.486 109.105C163.651 112.779 165.486 118.783 169.088 120.69C171.416 121.96 176.045 121.761 178.26 120.337C180.31 118.992 182.354 115.248 182.354 112.838C182.354 110.294 180.165 106.48 178.073 105.42C175.012 103.808 170.356 104.091 168.098 105.998Z" fill="#37455D"/>
<path fill-rule="evenodd" clip-rule="evenodd" d="M184.19 172.601C178.052 174.583 175.092 177.122 171.839 183.48C169.227 188.423 168.944 189.372 169.794 190.405C171.486 192.591 173.541 194.074 177.699 196.195C184.26 199.516 189.622 199.023 194.208 194.588C200.421 188.723 201.481 179.056 196.611 174.101C194.005 171.471 189.343 170.979 184.19 172.601Z" fill="#37455D"/>
</g>
</g>
<defs>
<filter id="filter0_d_4321_1704" x="0" y="0" width="266" height="266" filterUnits="userSpaceOnUse" color-interpolation-filters="sRGB">
<feFlood flood-opacity="0" result="BackgroundImageFix"/>
<feColorMatrix in="SourceAlpha" type="matrix" values="0 0 0 0 0 0 0 0 0 0 0 0 0 0 0 0 0 0 127 0" result="hardAlpha"/>
<feOffset dy="4"/>
<feGaussianBlur stdDeviation="2"/>
<feComposite in2="hardAlpha" operator="out"/>
<feColorMatrix type="matrix" values="0 0 0 0 0 0 0 0 0 0 0 0 0 0 0 0 0 0 0.25 0"/>
<feBlend mode="normal" in2="BackgroundImageFix" result="effect1_dropShadow_4321_1704"/>
<feBlend mode="normal" in="SourceGraphic" in2="effect1_dropShadow_4321_1704" result="shape"/>
</filter>
<clipPath id="clip0_4321_1704">
<rect width="258" height="258" fill="white" transform="translate(4)"/>
</clipPath>
</defs>
</svg>
