<svg width="343" height="222" viewBox="0 0 343 222" fill="none" xmlns="http://www.w3.org/2000/svg">
<path d="M343 219.491H0V222H343V219.491Z" fill="#85848B"/>
<path d="M271.745 175.185C271.745 177.115 260.507 182.742 247.157 182.742C233.807 182.742 223.405 177.115 223.405 175.185C223.405 173.255 234.226 173.877 247.588 173.877C260.951 173.877 271.745 173.252 271.745 175.185Z" fill="#504F60"/>
<path opacity="0.2" d="M271.745 175.185C271.745 177.115 260.507 182.742 247.157 182.742C233.807 182.742 223.405 177.115 223.405 175.185" fill="black"/>
<path d="M137.304 139.768C139.471 140.046 141.719 140.223 143.794 139.549C144.121 139.447 144.48 139.222 144.448 138.895C144.424 138.776 144.374 138.664 144.301 138.567C143.518 137.393 142.861 136.14 142.34 134.828C142.319 134.76 142.277 134.7 142.219 134.658C142.151 134.634 142.077 134.634 142.01 134.658C141.052 134.91 140.226 135.528 139.275 135.793C138.79 135.926 138.284 135.964 137.784 135.904C137.353 135.855 136.765 135.499 136.373 135.545C136.595 136.974 137.137 138.309 137.304 139.768Z" fill="#FF7666"/>
<path d="M178.281 136.146C179.709 135.165 181.19 134.134 182.033 132.62C182.093 132.529 182.128 132.424 182.134 132.315C182.12 132.208 182.078 132.107 182.013 132.021C181.21 130.743 180.176 129.626 178.964 128.727C178.332 129.174 177.76 129.702 177.265 130.297C176.905 130.676 175.912 131.278 175.902 131.857C175.902 132.185 176.281 132.564 176.458 132.839C176.696 133.192 176.922 133.552 177.137 133.918C177.261 134.098 178.395 136.074 178.281 136.146Z" fill="#FF7666"/>
<path d="M145.797 144.148C145.823 144.485 145.731 144.821 145.536 145.097C145.383 145.251 145.195 145.363 144.987 145.424C141.958 146.51 138.451 145.156 135.428 146.226C134.807 146.445 134.219 146.762 133.595 146.971C132.851 147.195 132.083 147.332 131.307 147.377C130.239 147.479 129.163 147.544 128.092 147.573C127.277 147.631 126.459 147.559 125.667 147.361C125.271 147.259 124.9 147.076 124.58 146.821C124.26 146.567 123.996 146.248 123.807 145.885C123.643 145.56 123.61 145.184 123.716 144.835C123.763 144.716 123.831 144.605 123.915 144.508C124.12 144.278 124.36 144.082 124.627 143.929L125.742 143.209C126.264 142.839 126.832 142.538 127.431 142.313C127.873 142.169 128.34 142.107 128.788 141.986C130.353 141.528 131.549 140.285 132.66 139.09L134.177 137.471C134.318 137.293 134.498 137.149 134.703 137.049C134.913 136.979 135.136 136.958 135.356 136.987C136.829 137.092 138.251 137.569 139.49 138.374C139.807 138.612 140.149 138.814 140.51 138.976C141.399 139.323 142.539 139.061 143.36 138.623C143.748 138.413 143.663 138.295 143.827 137.923C143.99 137.55 144.389 137.311 144.735 137.651C144.84 137.769 144.914 137.91 144.951 138.063C145.278 139.143 145.154 140.304 145.154 141.436C145.144 141.613 145.166 141.79 145.219 141.96C145.302 142.13 145.402 142.292 145.516 142.444C145.54 142.484 145.56 142.525 145.578 142.568C145.778 143.069 145.854 143.612 145.797 144.148Z" fill="#514E7F"/>
<path d="M145.797 144.149C145.823 144.486 145.731 144.821 145.536 145.097C145.383 145.251 145.195 145.363 144.987 145.424C141.958 146.511 138.451 145.156 135.428 146.226C134.807 146.445 134.219 146.762 133.595 146.972C132.851 147.196 132.083 147.332 131.307 147.377C130.239 147.479 129.163 147.544 128.092 147.574C127.277 147.632 126.459 147.56 125.667 147.361C125.271 147.26 124.9 147.076 124.58 146.822C124.26 146.567 123.996 146.249 123.807 145.886C123.643 145.56 123.61 145.184 123.716 144.836C123.763 144.716 123.831 144.605 123.915 144.508C124.092 144.878 124.219 145.369 124.33 145.545C124.48 145.807 124.684 146.034 124.929 146.211C125.173 146.387 125.453 146.51 125.748 146.569C126.191 146.597 126.634 146.54 127.056 146.403C129.801 145.722 132.719 145.712 135.356 144.682C136.261 144.325 137.124 143.851 138.075 143.635C139.026 143.419 140.036 143.478 141.016 143.396C142.565 143.272 144.065 142.804 145.592 142.559C145.789 143.064 145.859 143.61 145.797 144.149Z" fill="#464353"/>
<path d="M185.219 135.947C185.075 137.098 184.346 138.09 183.546 138.93C182.745 139.771 181.84 140.527 181.203 141.495C180.418 142.696 180.065 144.184 179.046 145.198C178.654 145.567 178.215 145.881 177.739 146.131C177.205 146.446 176.641 146.706 176.056 146.906C174.533 147.394 172.892 147.282 171.301 147.165C170.784 147.16 170.272 147.061 169.791 146.873C169.572 146.762 169.362 146.633 169.163 146.487C168.764 146.242 168.429 145.905 168.183 145.506C168.062 145.289 168.029 145.034 168.088 144.793C168.179 144.527 168.335 144.289 168.543 144.099C168.901 143.726 169.285 143.38 169.693 143.062C170.252 142.701 170.756 142.26 171.19 141.754C171.455 141.354 171.651 140.911 171.768 140.445C171.999 139.629 172.141 138.789 172.19 137.942C172.188 137.379 172.246 136.818 172.363 136.267C172.605 135.404 173.245 134.632 173.173 133.738C173.144 133.611 173.156 133.477 173.206 133.356C173.282 133.261 173.388 133.195 173.507 133.169C174.006 132.97 174.533 132.848 175.069 132.806C175.338 132.788 175.607 132.829 175.858 132.927C176.109 133.026 176.335 133.179 176.52 133.375C176.742 133.644 176.889 134.03 177.216 134.134C177.378 134.179 177.548 134.185 177.712 134.154C178.516 134.072 179.366 133.971 180 133.451C180.293 133.187 180.529 132.866 180.692 132.508C180.855 132.149 180.942 131.761 180.948 131.367C180.948 131.069 180.814 130.758 181.275 130.712C181.621 130.667 181.895 131.039 182.072 131.268C182.709 132.122 183.363 133.015 183.601 134.056C183.694 134.02 183.793 134.001 183.892 134C184.096 133.998 184.297 134.046 184.479 134.139C184.66 134.232 184.817 134.367 184.935 134.533C185.195 134.955 185.296 135.457 185.219 135.947Z" fill="#514E7F"/>
<path d="M185.219 135.947C185.075 137.098 184.346 138.09 183.546 138.93C182.745 139.771 181.84 140.527 181.203 141.495C180.418 142.696 180.065 144.184 179.046 145.199C178.654 145.567 178.215 145.881 177.739 146.131C177.205 146.446 176.641 146.706 176.056 146.906C174.533 147.394 172.892 147.283 171.301 147.165C170.784 147.16 170.272 147.061 169.791 146.874C169.572 146.762 169.362 146.633 169.163 146.488C168.764 146.242 168.429 145.906 168.183 145.506C168.489 145.359 168.824 145.278 169.163 145.271C169.869 145.31 170.386 145.977 171.062 146.183C172.026 146.474 172.987 145.794 173.964 145.562C174.601 145.411 175.271 145.451 175.902 145.235C176.428 145.031 176.913 144.737 177.337 144.364C177.917 143.949 178.433 143.451 178.869 142.886C179.231 142.32 179.533 141.718 179.768 141.09C180.284 139.885 180.891 138.721 181.585 137.609C181.687 137.433 181.812 137.27 181.954 137.125C182.108 136.984 182.281 136.886 182.454 136.761C183.108 136.267 183.379 135.453 183.608 134.655C183.67 134.412 183.756 134.176 183.866 133.951C184.07 133.949 184.271 133.997 184.453 134.09C184.634 134.183 184.79 134.318 184.908 134.484C185.19 134.916 185.3 135.438 185.219 135.947Z" fill="#464353"/>
<path d="M116.693 33.9481C117.506 34.5583 118.176 35.3401 118.654 36.2381C119.111 37.1345 121.748 44.0897 121.595 45.1006C122.454 44.2337 125.843 44.093 126.712 43.226C127.075 42.8629 129.033 41.0505 129.327 40.6285C129.621 40.2065 131.804 39.3199 132.042 38.875C132.935 37.2752 125.716 31.2131 126.64 29.633C126.692 29.5604 126.718 29.4732 126.716 29.3844C126.695 29.3098 126.653 29.2428 126.595 29.1914C126.003 28.5861 125.219 28.2099 124.506 27.7617C123.794 27.3135 123.108 26.6887 122.915 25.8643C122.236 26.1773 121.612 26.5995 121.069 27.114C119.744 28.2503 118.442 29.4095 117.163 30.5916C116.663 31.0561 115.696 31.6744 115.464 32.3385C115.189 33.0517 116.216 33.5588 116.693 33.9481Z" fill="#A1616A"/>
<path d="M128.379 31.3735C127.271 32.1186 126.236 32.9664 125.288 33.9057C124.392 34.7922 123.542 35.8195 123.327 37.0594C123.235 37.5468 123.248 38.0408 123.173 38.5348C122.846 40.6777 120.997 42.248 120.18 44.2534C119.943 44.8723 119.769 45.5135 119.66 46.1672C119.431 47.4064 119.305 48.6627 119.284 49.9229C119.265 51.1431 120.461 51.9839 120.899 53.1224C121.337 54.2609 121.454 55.4321 121.676 56.6C122.095 58.805 122.863 60.9314 123.637 63.0448C125.248 67.5006 130.471 79.8178 132.082 84.2768C137.02 83.0369 150.163 80.1874 154.536 77.5735C155.993 76.7033 144.422 66.8856 145.98 66.2084C146.069 66.1945 146.154 66.16 146.228 66.1078C146.301 66.0555 146.362 65.9869 146.404 65.9072C146.447 65.8276 146.47 65.7391 146.472 65.6489C146.475 65.5586 146.456 65.4691 146.418 65.3872C144.859 58.5629 139.984 52.9556 137.771 46.3112C137.003 44.0048 135.624 42.0353 134.578 39.8434C133.631 37.8576 133.124 35.6625 131.99 33.7748C131.776 33.3859 131.497 33.0372 131.163 32.7443C130.881 32.5272 130.575 32.3418 130.252 32.1914C129.605 31.8773 129.003 31.6909 128.379 31.3735Z" fill="#514E7F"/>
<path d="M116.954 33.1729C121.223 33.1729 124.683 29.7089 124.683 25.4358C124.683 21.1627 121.223 17.6987 116.954 17.6987C112.686 17.6987 109.225 21.1627 109.225 25.4358C109.225 29.7089 112.686 33.1729 116.954 33.1729Z" fill="#A1616A"/>
<path d="M124.817 29.0706C125.202 28.7149 125.686 28.4845 126.205 28.4098C126.723 28.335 127.252 28.4194 127.722 28.6518C128.245 28.9234 128.703 29.473 128.585 30.0488L132.418 30.1077C133.028 30.091 133.638 30.147 134.235 30.2745C134.836 30.4054 135.372 30.7421 135.752 31.2265C135.797 31.2887 135.85 31.3639 135.928 31.3737C135.992 31.3747 136.054 31.354 136.105 31.3148C136.694 31.0188 137.359 30.9049 138.013 30.9877C140.085 31.1218 142 32.1589 143.624 33.4544C143.917 33.656 144.144 33.9392 144.278 34.269C144.412 34.7041 144.252 35.2504 144.605 35.5612C144.605 39.1599 145.84 42.523 146.663 46.03C146.81 46.6549 147.409 47.2077 147.824 47.6985C148.336 48.2425 148.755 48.8683 149.062 49.5501C149.761 51.3691 148.797 53.5086 149.477 55.3341C149.765 56.1062 150.32 56.7409 150.784 57.4115C151.396 58.1859 151.783 59.1141 151.902 60.0941C151.931 60.5325 151.876 60.9742 151.902 61.4027C151.946 61.9922 152.055 62.5749 152.229 63.1399C152.508 64.1955 152.8 65.25 153.105 66.3034C153.601 68.0046 154.248 69.8399 155.771 70.7461C152.095 71.371 148.219 71.9827 144.716 70.7036C144.227 70.5367 143.763 70.3045 143.337 70.0133C142.072 69.1104 141.461 67.5662 140.915 66.1071C140.307 64.4714 139.69 62.8062 139.565 61.0658C139.567 60.5122 139.488 59.9614 139.333 59.43C138.977 58.4813 138.026 57.9088 137.163 57.3821C136.189 56.8477 135.307 56.1607 134.549 55.3472C134.173 54.9375 133.885 54.4549 133.703 53.9293C133.521 53.4038 133.449 52.8464 133.49 52.2916C133.556 51.7518 133.768 51.2317 133.788 50.6886C133.807 50.1455 133.565 49.524 133.046 49.38C130.369 48.5687 129.092 45.3953 128.497 42.6604C128.24 41.2468 128.125 39.8111 128.154 38.3747L128.118 35.5841C127.748 35.2478 127.451 34.8396 127.244 34.3846C127.038 33.9296 126.926 33.4373 126.915 32.9375C126.951 32.6459 126.945 32.3508 126.899 32.0607C126.769 31.7062 126.559 31.3869 126.284 31.1284C125.693 30.5213 125.199 29.8273 124.817 29.0706Z" fill="#464353"/>
<path d="M116.585 37.9164C116.497 38.7801 116.693 39.6667 116.5 40.514C116.425 40.8411 116.294 41.1683 116.199 41.4725C115.91 42.6921 116.035 43.9736 116.556 45.1137C117.075 46.2426 117.698 47.3213 118.415 48.3361C118.658 48.6825 118.857 49.0571 119.01 49.4517C119.133 49.866 119.21 50.2929 119.239 50.7243C119.428 52.4567 119.731 54.1747 120.147 55.8671C120.513 57.3327 124.67 69.8625 125.637 71.0239C125.813 71.281 126.079 71.4622 126.382 71.531C126.601 71.5392 126.819 71.4943 127.016 71.4001L128.977 70.6477C129.144 70.5966 129.299 70.512 129.431 70.399C129.615 70.1841 129.715 69.9099 129.713 69.627C129.853 68.0305 125.686 55.4123 125.157 53.9042C123.556 49.3503 121.425 44.9599 120.382 40.2457C120.092 38.9371 119.938 36.9219 118.98 35.8783C118.585 35.4464 118.719 35.6296 118.245 35.8554C118.006 35.9594 117.774 36.0808 117.552 36.2185C117.275 36.4115 117.044 36.6642 116.877 36.9579C116.709 37.2517 116.61 37.5792 116.585 37.9164Z" fill="#464353"/>
<path d="M122.536 46.5567C123.062 49.3407 123.605 52.1182 124.144 54.9023L131.817 52.8903C131.879 52.0855 131.451 51.3396 131.163 50.6003C130.464 48.8435 130.448 46.8871 129.882 45.0813C129.454 43.7072 128.709 42.4444 128.307 41.0606C128.075 40.2558 127.958 39.4249 127.729 38.6103C127.483 37.8103 127.182 37.0287 126.827 36.2711C126.396 35.1725 125.834 34.1301 125.154 33.1665C124.173 33.5329 123.127 33.9582 122.569 34.8448C122.282 35.3443 122.118 35.9051 122.092 36.4805C121.958 38.2046 122.582 39.9385 122.376 41.6527C122.164 43.2853 122.218 44.9415 122.536 46.5567Z" fill="#FF7666"/>
<path d="M131.944 83.59C132.376 85.2258 131.752 86.9466 131.242 88.566C130.474 91.0052 129.951 93.5148 129.68 96.0577C129.646 96.7048 129.516 97.3433 129.294 97.9519C129.052 98.4982 128.64 98.9595 128.359 99.4797C127.588 100.847 127.608 102.516 127.774 104.079C127.886 105.11 128.052 106.137 128.258 107.151C128.51 108.391 128.82 109.687 128.457 110.897C129.065 110.763 129.477 111.551 129.438 112.17C129.399 112.788 129.199 113.478 129.497 114.012C130.248 114.286 130.255 115.32 130.232 116.122C130.244 117.512 130.42 118.895 130.755 120.244C131.892 125.718 133.099 131.177 134.376 136.621C137.137 137.478 140.363 138.371 142.997 137.184C143.487 136.964 143.977 136.614 144.088 136.084C144.117 135.799 144.081 135.51 143.984 135.24L142.735 130.693C142.431 129.594 142.127 128.459 142.288 127.33C142.408 126.489 142.774 125.583 142.363 124.84C142.222 124.585 142 124.386 141.837 124.143C141.183 123.185 141.526 121.902 141.578 120.741C141.599 120.48 141.581 120.218 141.526 119.962C141.437 119.664 141.312 119.377 141.154 119.109C140.122 117.104 139.626 114.865 139.716 112.611C139.755 112.324 139.715 112.031 139.601 111.764C139.522 111.654 139.451 111.538 139.389 111.417C139.34 111.207 139.364 110.987 139.457 110.792C139.083 110.508 138.745 110.178 138.451 109.811C138.632 109.698 138.786 109.546 138.899 109.365C139.013 109.184 139.084 108.98 139.107 108.767C139.131 108.555 139.106 108.34 139.034 108.139C138.962 107.938 138.845 107.756 138.693 107.606C138.826 107.579 138.949 107.516 139.049 107.423C139.148 107.33 139.22 107.212 139.256 107.081C139.293 106.949 139.292 106.811 139.254 106.68C139.216 106.549 139.143 106.432 139.042 106.34C138.882 106.229 138.67 106.18 138.556 106.013C138.379 105.771 138.523 105.434 138.667 105.175L139.428 103.798C139.997 102.774 140.124 101.508 140.735 100.527C141.611 99.0969 142.183 97.5037 142.748 95.9268L144.948 89.8517L146.428 91.1374C146.921 91.5145 147.334 91.986 147.644 92.5245C147.854 93.0567 147.987 93.6164 148.039 94.1864C148.582 97.4841 150.654 100.343 151.422 103.592C151.591 104.315 151.706 105.074 152.121 105.692C152.269 105.882 152.403 106.083 152.52 106.294C152.628 106.616 152.684 106.953 152.686 107.292C152.755 107.956 152.965 108.598 153.304 109.174C153.642 109.75 154.1 110.246 154.647 110.629C155.376 111.129 156.281 111.473 156.676 112.265C156.756 112.51 156.865 112.744 157.003 112.961C157.356 113.387 158.118 113.436 158.268 113.969C158.353 114.267 158.196 114.623 158.363 114.885C158.457 115.006 158.583 115.1 158.725 115.157L160.853 116.22C163.232 117.411 164.448 120.146 166.203 122.138C166.809 122.787 167.345 123.497 167.804 124.258C168.562 125.616 168.912 127.32 170.193 128.184C170.537 128.362 170.851 128.596 171.121 128.874C171.523 129.404 171.376 130.147 171.412 130.814C171.448 131.481 171.958 132.276 172.591 132.074C172.369 132.882 172.369 133.735 172.591 134.544C175.375 134.4 178.029 133.324 180.127 131.488C180.748 130.945 181.346 130.251 181.353 129.427C181.362 129.285 181.331 129.143 181.261 129.018C181.136 128.857 180.97 128.732 180.781 128.655C178.791 127.575 178.193 125.073 177.186 123.041C176.307 121.248 175.007 119.704 173.918 118.039C171.552 114.457 169.938 110.122 166.359 107.757C165.572 107.236 164.657 106.775 164.261 105.915C164.042 105.434 164.016 104.884 163.843 104.387C163.67 103.89 163.255 103.405 162.725 103.405C163.02 102.686 162.961 101.809 162.98 101.03C163 100.685 162.961 100.338 162.863 100.006C162.727 99.6493 162.55 99.309 162.337 98.9922C161.403 97.4098 160.936 95.5949 160.99 93.7578C161.016 92.8124 161.183 91.8375 160.899 90.9345C160.755 90.4798 160.503 90.0643 160.33 89.6259C160.069 88.8316 159.931 88.0019 159.922 87.1658L159.725 84.0219C159.696 82.9748 159.56 81.9335 159.32 80.914C158.667 78.4734 158.013 68.25 155.774 67.0985C153.536 65.9469 149.69 73.8148 147.17 73.9686C146.055 74.015 144.954 74.2279 143.902 74.6C142.225 75.2281 140.82 76.3993 139.451 77.5443L134.817 81.4407C133.837 82.2487 133.026 83.0208 131.944 83.59Z" fill="#464353"/>
<path d="M109.703 16.845C110.722 15.4514 112.474 14.712 114.199 14.6499C115.925 14.5877 117.624 15.1308 119.17 15.8996C119.626 16.1593 120.114 16.3594 120.621 16.495C121.438 16.6618 122.346 16.4394 123.085 16.8221C124.065 17.3423 124.255 18.6672 124.17 19.7665C124.085 20.8657 123.879 22.086 124.464 23.038C124.672 23.3095 124.86 23.5947 125.029 23.8918C125.281 24.4578 125.134 25.1121 124.984 25.7108C124.601 25.3836 124.386 24.8896 124.046 24.5101C123.706 24.1306 123.114 23.8755 122.693 24.1601C122.271 24.4447 122.278 24.9616 122.255 25.4261C122.232 25.8907 122.114 26.4469 121.676 26.5973C121.494 26.639 121.302 26.6248 121.128 26.5566C120.953 26.4883 120.802 26.3692 120.696 26.2146C119.948 25.2986 120.248 23.8362 119.506 22.9136C119.085 22.3902 118.382 22.135 117.993 21.5854C117.686 21.1536 117.608 20.604 117.34 20.1394C117.072 19.6749 116.448 19.3346 116.033 19.6552C115.891 19.7907 115.773 19.9488 115.683 20.1231C115.424 20.4942 115.048 20.7671 114.615 20.8977C114.182 21.0283 113.718 21.0089 113.297 20.8428C112.976 20.6453 112.628 20.4944 112.265 20.3946C112.027 20.3827 111.79 20.4376 111.582 20.5532C111.373 20.6689 111.201 20.8405 111.085 21.0489C110.85 21.4652 110.737 21.9389 110.758 22.4164C110.758 23.0707 110.876 23.7675 110.503 24.2909C110.362 24.488 110.184 24.6567 109.98 24.7882C109.435 25.1383 108.673 25.3738 108.17 24.9747C107.999 24.8156 107.872 24.6153 107.801 24.3931C107.73 24.1708 107.718 23.934 107.765 23.7053C107.863 23.25 107.991 22.8019 108.15 22.364C108.438 21.3499 108.062 20.2081 108.376 19.2528C108.704 18.3925 109.151 17.5822 109.703 16.845Z" fill="#464353"/>
<path d="M113.843 39.9254C113.794 40.1639 113.819 40.4116 113.915 40.6354C114.012 40.7877 114.144 40.9145 114.301 41.005C115.4 41.6904 116.649 42.0959 117.941 42.186C118.117 42.1891 118.289 42.2339 118.444 42.3169C118.752 42.5197 118.771 42.9712 118.657 43.3311C118.504 43.6705 118.425 44.0384 118.425 44.4107C118.52 45.0944 119.33 45.3921 120.013 45.4935C120.971 45.6146 122.02 45.5524 122.778 44.9537C123.291 44.4848 123.683 43.8975 123.918 43.2427C125.794 38.9276 126.451 34.1578 128.35 29.8558C128.494 29.5749 128.59 29.2719 128.634 28.9594C128.654 28.803 128.632 28.644 128.57 28.499C128.508 28.354 128.408 28.2283 128.281 28.135C127.928 27.9158 127.379 28.0401 127.14 27.6966C127.023 27.5232 127.036 27.2877 126.931 27.1045C126.712 26.7152 126.137 26.7773 125.745 26.5516C125.438 26.388 125.225 26.051 124.882 25.9856C124.714 25.9761 124.546 26.006 124.391 26.073C124.236 26.14 124.099 26.2423 123.99 26.3716C122.876 27.412 122.291 28.8874 121.67 30.2811C120.722 32.4173 119.612 34.4779 118.35 36.4446C118.497 36.2156 117.644 34.4817 117.31 34.4064C116.725 34.2887 115.977 35.3159 115.66 35.6987C114.665 36.906 114.035 38.3722 113.843 39.9254Z" fill="#FF7666"/>
<path opacity="0.1" d="M125.716 26.8555C125.481 26.8594 125.25 26.9161 125.04 27.0214C124.83 27.1268 124.647 27.278 124.503 27.464C124.154 27.9187 124.085 28.5207 123.997 29.0997C123.699 30.9343 123.045 32.6926 122.072 34.2752" fill="black"/>
<path opacity="0.1" d="M127.382 28.1611C127.058 28.1684 126.742 28.2599 126.464 28.4269C126.186 28.5938 125.956 28.8303 125.797 29.1131C125.581 29.6277 125.447 30.173 125.399 30.7293C125.118 31.9624 124.578 33.1214 123.814 34.1283" fill="black"/>
<path d="M205.049 92.1188V88.0556C205.048 85.0645 203.861 82.1962 201.747 80.0815C199.634 77.9668 196.769 76.7788 193.781 76.7788H33.4901C30.5023 76.7788 27.6367 77.9668 25.5236 80.0815C23.4106 82.1962 22.223 85.0645 22.2222 88.0556V95.5473L205.049 92.1188Z" fill="#33323D"/>
<path d="M78.0818 72.0155C78.0818 72.0155 77.6242 100.432 82.6569 109.782C87.6896 119.132 89.8465 159.806 89.8465 159.806C89.8465 159.806 142.605 165.269 179.369 153.263C216.134 141.257 294.363 136.346 294.363 136.346L281.18 47.3976C281.18 47.3976 216.052 43.2166 179.003 60.9055C141.954 78.5945 78.0818 72.0155 78.0818 72.0155Z" fill="#8DD070"/>
<path opacity="0.1" d="M78.0818 72.0155C78.0818 72.0155 77.6242 100.432 82.6569 109.782C87.6896 119.132 89.8465 159.806 89.8465 159.806C89.8465 159.806 142.605 165.269 179.369 153.263C216.134 141.257 294.363 136.346 294.363 136.346L281.18 47.3976C281.18 47.3976 216.052 43.2166 179.003 60.9055C141.954 78.5945 78.0818 72.0155 78.0818 72.0155Z" fill="black"/>
<path d="M89.7582 82.3957C89.7582 82.3957 88.1078 105.842 92.2484 113.334C96.3889 120.826 96.5817 154.27 96.5817 154.27C96.5817 154.27 144.062 156.475 177.837 144.966C211.611 133.457 282.585 125.992 282.585 125.992L274.52 53.25C274.52 53.25 215.794 52.6448 181.52 68.8452C147.245 85.0456 89.7582 82.3957 89.7582 82.3957Z" fill="#8DD070"/>
<path opacity="0.1" d="M180.998 131.648C187.754 130.806 191.767 118.364 189.963 103.859C188.158 89.3545 181.218 78.2789 174.463 79.1212C167.707 79.9636 163.693 92.405 165.498 106.91C167.303 121.415 174.242 132.49 180.998 131.648Z" fill="black"/>
<path opacity="0.2" d="M245.474 4.06641C245.474 4.06641 182.203 20.0967 152.366 48.3133C122.529 76.5299 59.719 89.8906 59.719 89.8906C59.719 89.8906 67.9935 117.073 75.6471 124.428C83.3007 131.782 97.817 169.836 97.817 169.836C97.817 169.836 149.703 158.824 181.01 136.094C212.317 113.364 285.281 84.6563 285.281 84.6563L245.474 4.06641Z" fill="black"/>
<path d="M58.7679 85.821C58.7679 85.821 67.0392 113.007 74.6862 120.361C82.3333 127.716 96.8562 165.766 96.8562 165.766C96.8562 165.766 148.748 154.758 180.059 132.027C211.369 109.297 284.327 80.5997 284.327 80.5997L244.52 0C244.52 0 181.252 16.0303 151.415 44.2469C121.578 72.4635 58.7679 85.821 58.7679 85.821Z" fill="#8DD070"/>
<path opacity="0.1" d="M58.7679 85.821C58.7679 85.821 67.0392 113.007 74.6862 120.361C82.3333 127.716 96.8562 165.766 96.8562 165.766C96.8562 165.766 148.748 154.758 180.059 132.027C211.369 109.297 284.327 80.5997 284.327 80.5997L244.52 0C244.52 0 181.252 16.0303 151.415 44.2469C121.578 72.4635 58.7679 85.821 58.7679 85.821Z" fill="black"/>
<path d="M73.0522 92.1154C73.0522 92.1154 78.6699 114.941 84.9085 120.797C91.147 126.652 101.575 158.419 101.575 158.419C101.575 158.419 147.438 145.928 176.056 124.598C204.673 103.268 269.941 74.3904 269.941 74.3904L239.971 7.61279C239.971 7.61279 183.895 25.0727 156.239 51.0222C128.582 76.9716 73.0522 92.1154 73.0522 92.1154Z" fill="#8DD070"/>
<path opacity="0.1" d="M174.998 110.962C181.169 108.085 181.175 95.0107 175.012 81.76C168.848 68.5093 158.848 60.0998 152.676 62.9768C146.505 65.8538 146.499 78.9279 152.662 92.1786C158.826 105.429 168.826 113.839 174.998 110.962Z" fill="black"/>
<path opacity="0.1" d="M209.376 96.1068V208.973C209.376 210.255 209.124 211.524 208.633 212.708C208.143 213.893 207.425 214.969 206.519 215.875C205.614 216.781 204.539 217.5 203.356 217.99C202.173 218.48 200.905 218.732 199.624 218.732H31.9772C29.3923 218.731 26.9136 217.703 25.0861 215.873C23.2587 214.043 22.2321 211.561 22.2321 208.973V84.7285C27.036 86.5147 27.036 86.5147 31.9772 86.3643H199.624C202.207 86.3643 204.685 87.3901 206.513 89.2166C208.341 91.0431 209.371 93.5211 209.376 96.1068Z" fill="black"/>
<path d="M209.376 97.5426V210.409C209.375 212.998 208.347 215.48 206.519 217.31C204.69 219.14 202.21 220.168 199.624 220.168H31.9772C29.3923 220.167 26.9136 219.138 25.0861 217.308C23.2587 215.478 22.2321 212.997 22.2321 210.409V86.1611C27.036 87.9441 27.036 87.9441 31.9772 87.7969H199.624C202.208 87.7969 204.686 88.8231 206.514 90.6503C208.342 92.4776 209.372 94.9564 209.376 97.5426Z" fill="#504F60"/>
<path opacity="0.1" d="M208.899 139.271V175.365H173.931C169.192 175.301 164.669 173.371 161.34 169.994C158.011 166.616 156.145 162.062 156.145 157.318C156.145 152.573 158.011 148.019 161.34 144.641C164.669 141.264 169.192 139.334 173.931 139.271H208.899Z" fill="black"/>
<path d="M209.376 138.309V174.41H174.409C169.669 174.346 165.146 172.416 161.817 169.039C158.488 165.661 156.622 161.107 156.622 156.362C156.622 151.618 158.488 147.064 161.817 143.686C165.146 140.309 169.669 138.379 174.409 138.315L209.376 138.309Z" fill="#33323D"/>
<path opacity="0.1" d="M176.085 164.356C179.967 164.356 183.114 161.206 183.114 157.319C183.114 153.433 179.967 150.282 176.085 150.282C172.203 150.282 169.056 153.433 169.056 157.319C169.056 161.206 172.203 164.356 176.085 164.356Z" fill="black"/>
<path d="M176.562 163.401C180.444 163.401 183.592 160.251 183.592 156.364C183.592 152.478 180.444 149.327 176.562 149.327C172.68 149.327 169.533 152.478 169.533 156.364C169.533 160.251 172.68 163.401 176.562 163.401Z" fill="#FF7666"/>
<path d="M270.072 137.998C270.35 141.011 268.072 143.936 268.735 146.887C268.879 147.518 269.15 148.113 269.248 148.751C269.523 150.505 268.48 152.164 267.484 153.629L258.922 166.205C258.579 166.758 258.168 167.265 257.699 167.716C256.065 169.175 253.608 169.025 251.457 169.46C249.946 169.767 248.519 170.399 247.274 171.312C247.222 171.356 247.189 171.419 247.182 171.487C247.175 171.555 247.194 171.623 247.235 171.678C247.591 172.162 248.061 172.55 248.605 172.805C249.148 173.061 249.747 173.176 250.346 173.14C250.572 173.438 250.346 173.873 250.02 174.086C249.559 174.413 248.928 174.491 248.837 175.27C248.804 175.542 248.859 175.817 248.993 176.055C249.338 176.584 249.875 176.958 250.49 177.099C253.454 178.005 256.657 176.412 258.876 174.243C261.095 172.074 262.686 169.336 264.863 167.127C266.069 165.907 267.438 164.86 268.68 163.676C271.157 161.314 273.082 158.442 274.941 155.566C275.5 154.699 276.062 153.809 276.297 152.805C276.533 151.8 276.422 150.786 276.686 149.815C277.033 148.539 277.964 147.525 278.739 146.455C280.258 144.361 281.271 141.799 281.072 139.221C280.873 136.644 279.274 134.095 276.843 133.218C276.09 132.915 275.258 132.865 274.474 133.074C273.477 133.382 272.742 134.206 272.062 134.995L270.428 136.876C270.021 137.289 269.699 137.778 269.48 138.315C269.376 138.585 269.351 138.88 269.409 139.163C269.467 139.447 269.605 139.708 269.807 139.915" fill="#FBBEBE"/>
<path opacity="0.05" d="M270.072 137.998C270.35 141.011 268.072 143.936 268.735 146.887C268.879 147.518 269.15 148.113 269.248 148.751C269.523 150.505 268.48 152.164 267.484 153.629L258.922 166.205C258.579 166.758 258.168 167.265 257.699 167.716C256.065 169.175 253.608 169.025 251.457 169.46C249.946 169.767 248.519 170.399 247.274 171.312C247.222 171.356 247.189 171.419 247.182 171.487C247.175 171.555 247.194 171.623 247.235 171.678C247.591 172.162 248.061 172.55 248.605 172.805C249.148 173.061 249.747 173.176 250.346 173.14C250.572 173.438 250.346 173.873 250.02 174.086C249.559 174.413 248.928 174.491 248.837 175.27C248.804 175.542 248.859 175.817 248.993 176.055C249.338 176.584 249.875 176.958 250.49 177.099C253.454 178.005 256.657 176.412 258.876 174.243C261.095 172.074 262.686 169.336 264.863 167.127C266.069 165.907 267.438 164.86 268.68 163.676C271.157 161.314 273.082 158.442 274.941 155.566C275.5 154.699 276.062 153.809 276.297 152.805C276.533 151.8 276.422 150.786 276.686 149.815C277.033 148.539 277.964 147.525 278.739 146.455C280.258 144.361 281.271 141.799 281.072 139.221C280.873 136.644 279.274 134.095 276.843 133.218C276.09 132.915 275.258 132.865 274.474 133.074C273.477 133.382 272.742 134.206 272.062 134.995L270.428 136.876C270.021 137.289 269.699 137.778 269.48 138.315C269.376 138.585 269.351 138.88 269.409 139.163C269.467 139.447 269.605 139.708 269.807 139.915" fill="black"/>
<path d="M276.552 215.565C274.683 216.707 272.353 216.776 270.18 216.511C269.83 216.468 269.415 216.442 269.199 216.713C268.873 217.106 269.258 217.695 269.657 217.999C270.939 218.963 272.445 219.583 274.033 219.802C275.451 220.003 276.882 220.098 278.314 220.086C282.235 220.155 286.157 220.22 290.016 219.658C290.245 219.64 290.468 219.576 290.67 219.468C290.919 219.293 291.092 219.03 291.154 218.732C291.418 217.724 290.909 216.645 290.137 215.945C289.366 215.245 288.376 214.855 287.409 214.479L284.01 213.154C283.212 212.843 281.935 212.019 281.069 212.084C279.441 212.202 277.902 214.773 276.552 215.565Z" fill="#3F3D56"/>
<path opacity="0.05" d="M276.552 215.565C274.683 216.707 272.353 216.776 270.18 216.511C269.83 216.468 269.415 216.442 269.199 216.713C268.873 217.106 269.258 217.695 269.657 217.999C270.939 218.963 272.445 219.583 274.033 219.802C275.451 220.003 276.882 220.098 278.314 220.086C282.235 220.155 286.157 220.22 290.016 219.658C290.245 219.64 290.468 219.576 290.67 219.468C290.919 219.293 291.092 219.03 291.154 218.732C291.418 217.724 290.909 216.645 290.137 215.945C289.366 215.245 288.376 214.855 287.409 214.479L284.01 213.154C283.212 212.843 281.935 212.019 281.069 212.084C279.441 212.202 277.902 214.773 276.552 215.565Z" fill="black"/>
<path d="M278.935 170.399C277.52 172.283 276.056 174.459 276.405 176.791C276.595 178.048 277.297 179.157 277.814 180.318C278.513 181.895 278.879 183.589 279.239 185.278C279.768 187.744 280.301 190.217 280.624 192.723C280.993 195.553 279.258 203.742 279.098 206.591C279.059 207.278 278.977 208.021 278.5 208.515C278.314 208.711 278.065 208.868 277.98 209.123C277.931 209.369 277.971 209.625 278.095 209.843C278.892 211.642 280.523 212.984 282.343 213.749C284.163 214.515 288.552 215.837 290.536 215.905C290.797 215.934 291.062 215.899 291.307 215.804C291.571 215.643 291.779 215.404 291.902 215.12C293.324 212.398 291.958 202.721 291.977 199.649C291.997 197.088 292.601 194.542 292.49 191.984C292.399 189.93 291.837 187.921 291.65 185.873C291.324 182.516 291.938 179.143 292.556 175.826C293.026 173.281 293.5 170.736 294.105 168.223C294.474 166.689 294.902 165.141 295.739 163.81C296.392 162.753 297.31 161.87 298.072 160.866C300.185 158.092 301.124 154.597 300.686 151.136C300.641 150.809 295.784 152.37 295.356 152.556C293.609 153.296 292.002 154.331 290.605 155.615C289.48 156.688 288.595 158.121 287.611 159.321C286.219 161.02 284.844 162.731 283.487 164.454C281.938 166.424 280.421 168.405 278.935 170.399Z" fill="#464353"/>
<path opacity="0.05" d="M278.935 170.284C277.52 172.169 276.056 174.347 276.405 176.677C276.595 177.936 277.297 179.045 277.814 180.207C278.513 181.78 278.879 183.478 279.239 185.163C279.768 187.633 280.301 190.106 280.624 192.609C280.993 195.442 279.258 203.627 279.098 206.477C279.059 207.164 278.977 207.91 278.5 208.404C278.314 208.597 278.065 208.754 277.98 209.009C277.93 209.255 277.971 209.51 278.095 209.729C278.892 211.531 280.523 212.869 282.343 213.654C284.163 214.44 288.552 215.123 290.536 215.189C290.797 215.218 291.062 215.183 291.307 215.087C291.572 214.928 291.78 214.69 291.902 214.407C293.324 211.685 291.958 202.629 291.977 199.554C291.997 196.989 292.601 194.447 292.49 191.886C292.399 189.831 291.837 187.823 291.65 185.778C291.324 182.418 291.938 179.045 292.556 175.728C293.026 173.186 293.5 170.641 294.105 168.125C294.474 166.591 294.902 165.043 295.739 163.712C296.392 162.655 297.31 161.772 298.072 160.768C300.186 157.994 301.125 154.499 300.686 151.038C300.641 150.711 295.784 152.271 295.356 152.458C293.61 153.201 292.003 154.236 290.605 155.52C289.48 156.59 288.595 158.023 287.611 159.223C286.219 160.922 284.844 162.634 283.487 164.36C281.938 166.314 280.421 168.289 278.935 170.284Z" fill="black"/>
<path d="M263.19 128.897C267.57 128.897 271.121 125.342 271.121 120.957C271.121 116.572 267.57 113.017 263.19 113.017C258.809 113.017 255.258 116.572 255.258 120.957C255.258 125.342 258.809 128.897 263.19 128.897Z" fill="#FBBEBE"/>
<path d="M270.333 120.623C271.066 121.793 272.027 122.804 273.158 123.594C274.29 124.384 275.568 124.938 276.918 125.223L276.32 127.398C275.288 131.134 274.127 135.086 271.245 137.677C271.572 136.411 271.154 135.06 270.441 133.961C269.729 132.862 268.729 131.998 267.748 131.144L263.183 127.186C263.051 127.078 262.94 126.947 262.856 126.8C262.744 126.521 262.744 126.209 262.856 125.929C263.438 124.117 265.098 122.985 266.451 121.762C267.13 121.129 267.736 120.422 268.258 119.655C269.17 118.353 269.735 119.661 270.333 120.623Z" fill="#FBBEBE"/>
<path d="M252.742 112.975L252.562 111.483C253.814 111.81 255.003 110.743 255.804 109.641C256.605 108.538 257.346 107.24 258.565 106.778C260.046 106.222 261.614 107.106 263.029 107.851C264.614 108.731 266.352 109.298 268.15 109.52C268.437 109.529 268.722 109.576 268.997 109.657C269.918 109.984 270.356 111.143 270.49 112.193C270.624 113.243 270.588 114.358 271.042 115.294C271.369 116.004 271.977 116.531 272.35 117.231C273.33 119.109 272.382 121.677 273.405 123.519L270.863 121.186C270.631 120.973 270.304 120.751 270.046 120.931C269.843 121.075 269.827 121.386 269.745 121.634C269.5 122.36 268.591 122.576 267.935 122.288C267.278 122.001 266.797 121.376 266.301 120.807C265.176 119.478 263.837 118.31 262.268 117.744C261.58 117.487 260.846 117.379 260.113 117.428C259.381 117.476 258.667 117.68 258.02 118.026C256.833 118.696 255.964 120.26 254.51 120.316C252.516 120.391 251.686 116.675 250.765 115.206C251.102 114.952 251.339 114.587 251.435 114.175C251.53 113.764 251.478 113.332 251.288 112.955C251.422 112.899 252.712 112.746 252.742 112.975Z" fill="#464353"/>
<path d="M154.641 66.5552C154.003 67.1226 153.414 67.7419 152.879 68.4068C152.341 69.0809 152.054 69.9221 152.069 70.7852C152.072 71.0355 152.151 71.2788 152.297 71.482C152.372 71.5793 152.475 71.6508 152.592 71.6865C152.709 71.7223 152.835 71.7206 152.951 71.6816C153.082 71.6146 153.195 71.5156 153.278 71.3937C153.623 70.9782 153.99 70.5807 154.376 70.2029C154.516 70.0622 154.703 69.915 154.892 69.9673C154.977 69.9975 155.053 70.048 155.114 70.1145C155.334 70.3048 155.494 70.5548 155.575 70.8343C155.69 71.3348 155.399 71.8353 155.069 72.2279C154.739 72.6205 154.35 72.9967 154.216 73.4907C154.165 73.6212 154.165 73.7659 154.216 73.8964C154.279 73.9908 154.367 74.0655 154.471 74.1123C154.939 74.3702 155.458 74.5221 155.991 74.5571C156.524 74.5922 157.058 74.5096 157.556 74.3151C158.209 74.0501 158.791 73.5954 159.464 73.3598C159.756 73.28 160.038 73.1704 160.307 73.0327C160.5 72.9044 160.665 72.7392 160.794 72.5466C160.922 72.354 161.011 72.1378 161.056 71.9106C161.141 71.4565 161.157 70.9923 161.105 70.5333C161.023 68.7561 160.643 67.0053 159.98 65.3545C159.942 65.248 159.877 65.1534 159.791 65.0797C159.693 65.0197 159.579 64.9891 159.464 64.9914C158.627 64.9031 157.255 64.4745 156.448 64.7853C156.165 64.9402 155.922 65.1572 155.735 65.4199C155.585 65.5868 154.641 66.336 154.641 66.5552Z" fill="#A1616A"/>
<path d="M154.376 65.8159C154.376 65.0176 153.395 63.0907 154.954 62.9631C154.954 62.1093 153.748 61.5793 153.974 60.6731C154.046 60.3721 154.301 60.1267 154.33 59.8192C154.428 58.9457 152.853 58.4714 153.114 57.6339C153.212 57.3067 153.559 57.117 153.634 56.7931C153.811 56.0374 152.461 55.7004 152.435 54.9251C152.435 54.6634 152.582 54.418 152.569 54.1563C152.569 53.8291 152.284 53.5805 152.127 53.2959C151.719 52.5663 151.918 51.4377 151.173 51.0614C151.667 51.104 151.827 50.3712 151.624 49.923C151.422 49.4748 151.007 49.0855 151.003 48.5882C151.028 48.408 151.028 48.2253 151.003 48.0451C150.866 47.5675 150.085 47.5282 149.954 47.0637C149.937 46.8854 149.932 46.7062 149.938 46.5272C149.886 46.1575 149.507 45.9219 149.15 45.8173C148.78 45.7543 148.424 45.627 148.098 45.441C147.869 45.2676 147.605 44.9798 147.36 45.1139C147.268 45.1695 147.222 45.2742 147.154 45.3527C146.86 45.6962 146.297 45.5457 145.928 45.2938C144.837 44.5512 144.294 43.2197 144.062 41.9209C143.83 40.6221 143.837 39.2808 143.546 37.9951C143.457 37.5944 143.339 37.2008 143.193 36.8174C143.069 36.4902 142.67 35.9766 142.644 35.6462C142.585 34.8938 144.141 35.4074 144.732 35.4826C145.306 35.5388 145.874 35.6483 146.428 35.8098C147.019 36.0334 147.599 36.2878 148.163 36.572C150.523 37.6156 153.373 37.7432 155.268 39.4967C155.892 40.0725 156.418 40.8282 157.229 41.09C157.601 41.1613 157.967 41.2564 158.327 41.3746C159.226 41.7966 159.366 42.9907 159.856 43.8544C160.01 44.0824 160.145 44.3232 160.258 44.5741C160.353 44.8699 160.397 45.1796 160.389 45.4901L160.458 47.7572C160.569 51.5554 160.68 55.3635 160.275 59.1388C160.144 60.3852 159.948 61.6676 160.317 62.865C160.415 63.1921 160.552 63.4996 160.644 63.8301C160.725 64.2175 160.766 64.612 160.768 65.0078L160.82 66.4767C160.838 66.5909 160.813 66.7078 160.748 66.8038C160.694 66.8483 160.63 66.8798 160.561 66.8962C160.493 66.9127 160.422 66.9135 160.353 66.8987C158.311 66.7155 156.245 65.564 154.317 66.2608" fill="#464353"/>
<path d="M247.585 178.682C260.934 178.682 271.755 177.116 271.755 175.185C271.755 173.253 260.934 171.688 247.585 171.688C234.236 171.688 223.415 173.253 223.415 175.185C223.415 177.116 234.236 178.682 247.585 178.682Z" fill="#504F60"/>
<path d="M268.379 175.355C267.954 173.533 267.69 171.933 267.69 171.933C267.69 171.933 267.788 169.951 266.899 168.462V167.965V164.301C267.152 163.636 267.461 162.993 267.824 162.381C268.477 161.229 267.824 157.009 267.824 157.009C267.824 157.009 265.382 151.058 265.974 147.283C266.565 143.507 260.961 130.52 260.961 130.52C260.995 129.267 261.172 128.022 261.487 126.81C261.547 126.555 261.571 126.293 261.559 126.031C261.559 125.998 261.559 125.969 261.559 125.936C261.559 125.903 261.559 125.956 261.559 125.966C261.474 123.476 259.507 118.811 259.507 118.811L259.771 109.919C259.771 109.919 261.026 104.685 258.98 97.6345C258.265 95.1776 257.807 93.2114 257.516 91.6935C257.484 91.5234 257.451 91.3663 257.425 91.1995C261.637 90.5452 264.856 90.0217 264.856 90.0217C264.856 90.0217 262.412 79.7853 260.761 77.9925C259.111 76.1997 257.791 70.5695 257.791 70.5695C257.791 70.5695 256.931 63.3428 258.32 61.2294C259.709 59.116 259.905 55.4715 259.905 55.4715C259.905 55.4715 263.072 53.1815 263.471 52.1444C263.869 51.1074 264.526 48.8173 264.526 47.6036C264.526 46.3899 264.131 45.3136 264.261 44.6593C264.392 44.005 263.337 41.5873 263.866 40.4358C264.003 40.082 264.074 39.7061 264.075 39.3267C264.076 39.3159 264.076 39.3049 264.075 39.294C264.08 38.2863 263.987 37.2805 263.797 36.2908C262.881 35.5165 261.812 34.9446 260.66 34.6125L260.591 34.3377L260.412 33.618C260.311 33.5516 260.208 33.4905 260.101 33.4348V33.1731L260.072 32.1327L260.569 29.7969C261.549 25.7337 256.127 25.1285 256.127 25.1285C255.799 24.5052 255.252 24.0253 254.591 23.7806C253.503 23.3979 254.412 29.8918 254.918 30.3236C255.301 30.6508 256.484 32.6725 257.056 33.6736L257.147 33.8372C257.058 33.9177 256.974 34.0053 256.899 34.0989L257.105 35.5089L257.137 35.7248C256.778 36.1715 256.486 36.6686 256.271 37.2003C256.271 37.2003 257.252 38.2864 257.065 39.4903C256.879 40.6942 257.369 42.222 257.392 42.3038C257.333 42.2351 256.637 41.4827 255.941 41.6659C255.245 41.8491 253.301 42.4347 253.301 42.4347C253.301 42.4347 251.85 42.6898 251.993 43.0104C252.137 43.331 251.013 44.7378 251.013 44.7378L247.111 41.0345C247.072 40.9232 247.029 40.812 246.997 40.7073C246.837 40.1734 246.728 39.6258 246.67 39.0716C247.095 38.9704 247.512 38.8381 247.918 38.6757C248.328 38.5348 248.698 38.2969 248.997 37.9822C249.392 37.5143 249.467 36.8797 249.627 36.2973C249.935 35.1589 250.608 34.148 251.075 33.0651C251.867 31.2353 252.122 29.2179 251.81 27.2484C251.751 26.6415 251.545 26.0579 251.212 25.5472C250.575 24.6705 249.418 24.3139 248.578 23.6138C247.739 22.9137 247.196 21.8439 246.216 21.3237C245.33 20.8494 244.255 20.905 243.255 21.0686C241.302 21.391 239.426 22.0743 237.722 23.0838C237.154 23.4109 236.526 23.8133 235.873 23.6923C235.31 23.5909 234.892 23.1427 234.539 22.7108C234.543 22.693 234.549 22.6755 234.556 22.6585C234.54 22.6426 234.525 22.625 234.513 22.6062C234.1 23.5249 233.892 24.5232 233.905 25.5309C233.905 25.6879 233.905 25.858 233.925 25.9987V26.1623C233.925 26.2081 233.925 26.2539 233.925 26.2964C233.925 26.3661 233.915 26.4355 233.895 26.5025C233.813 26.7026 233.688 26.8824 233.529 27.0292C233.409 27.1656 233.3 27.3111 233.203 27.4643C233.203 27.412 233.235 27.3596 233.255 27.304C233.006 27.6683 232.865 28.0961 232.85 28.5374C232.831 28.8586 232.937 29.1747 233.144 29.4207C233.339 29.6109 233.553 29.7818 233.781 29.931C233.703 30.3629 233.664 30.8008 233.663 31.2396C233.671 32.5405 234.013 33.8175 234.658 34.9471C235.303 36.0767 236.227 37.0207 237.343 37.6877C237.389 37.7957 237.431 37.9069 237.474 38.0149C237.974 39.3235 238.35 40.8611 238.183 42.2678C238.183 42.3692 238.154 42.4739 238.137 42.5753C238.121 42.6767 238.039 42.6833 237.997 42.7389C237.997 42.7389 231.549 42.8043 230.033 41.4303C228.516 40.0563 226.203 44.7901 226.203 44.7901C226.203 44.7901 223.892 45.2383 223.428 44.7901C222.964 44.3419 220.261 44.728 220.261 44.728C219.154 43.7422 217.713 43.2158 216.232 43.2558C215.335 42.573 214.344 42.0222 213.291 41.6201L213.219 41.5939C212.754 41.4243 212.257 41.3616 211.765 41.4107C211.765 41.4107 208.595 38.7935 207.67 37.3802C206.745 35.9669 202.343 30.7489 202.324 30.726V30.4741L202.275 29.7151C202.144 29.7357 202.012 29.7466 201.879 29.7478C201.856 29.6726 201.824 29.5843 201.791 29.4828C201.537 28.7425 201.225 28.0237 200.856 27.3335C200.856 27.3335 200.856 26.3749 201.134 26.1328C201.412 25.8907 201.02 22.3739 201.02 22.3739C201.02 22.3739 198.163 15.6902 195.605 20.6793C195.605 20.6793 190.768 23.9082 194.827 27.6704C194.827 27.6704 196.461 28.4556 196.676 29.0772C196.827 29.4796 197.376 30.6082 197.745 31.3672L197.912 31.6944L197.866 31.7336L197.925 32.3617L197.951 32.6038C197.186 33.0389 196.667 33.4708 196.794 33.7947C197.019 34.3489 197.174 34.9292 197.255 35.522C197.255 35.522 202.869 42.5622 203.595 45.5687C203.595 45.5687 218.65 54.5261 223.601 55.164L222.725 59.6296C222.598 60.8414 222.532 62.0589 222.529 63.2773C222.595 64.2359 221.935 68.5869 221.935 68.5869C221.935 68.5869 221.075 74.986 220.35 75.8824C219.624 76.7788 219.755 80.6162 219.755 80.6162C219.584 82.4533 219.256 84.2723 218.775 86.0534C218.049 88.4841 218.575 91.4939 218.575 91.4939C218.575 91.4939 216.069 97.2517 222.075 93.3489C222.075 93.3489 225.016 93.1656 228.422 93.0479C228.422 93.1591 228.422 93.2736 228.422 93.375C228.422 93.8134 228.422 94.2878 228.399 94.785C228.353 98.0827 228.333 102.637 228.484 106.065C228.748 112.144 230.598 124.173 230.598 124.173V130.228C230.479 130.796 230.419 131.375 230.422 131.956C230.382 134.086 230.949 136.184 232.056 138.005L232.52 142.035C232.52 142.035 233.605 144.692 233.624 146.288C233.62 146.417 233.605 146.545 233.578 146.671C233.536 146.874 233.519 147.082 233.526 147.289C233.464 149.121 234.565 153.505 234.565 153.505C234.565 153.505 234.631 157.918 235.291 158.177C235.856 158.396 234.536 160.719 234.144 161.386C234.133 161.345 234.126 161.304 234.121 161.262L234.039 161.393C233.903 161.75 233.833 162.129 233.833 162.511C233.796 162.813 233.845 163.118 233.975 163.393C234.104 163.668 234.309 163.9 234.565 164.062C235.82 164.831 236.493 165.469 235.428 165.724C235.036 165.785 234.648 165.867 234.265 165.969C234.265 165.92 234.225 165.868 234.209 165.822C234.059 165.881 233.933 165.99 233.854 166.131C233.775 166.271 233.747 166.435 233.775 166.594C233.785 167.113 233.918 167.622 234.163 168.079C235.219 170.448 235.951 171.351 235.951 171.351L236.458 171.295C236.383 171.489 236.284 171.673 236.163 171.842C235.971 172.116 235.715 172.34 235.418 172.496C235.142 172.662 234.833 172.768 234.513 172.807C234.155 172.818 233.804 172.905 233.482 173.062C233.16 173.219 232.874 173.442 232.644 173.716C231.99 174.57 231.572 175.732 232.873 176.752L237.595 178.388C237.595 178.388 245.719 179.445 245.288 177.619C244.856 175.794 244.595 174.197 244.595 174.197C244.63 173.083 244.406 171.975 243.941 170.962C243.856 170.796 243.76 170.637 243.654 170.484L243.941 170.455C243.941 170.455 244.536 166.421 245.327 165.655C245.51 165.479 245.552 165.328 245.51 165.237C245.591 165.017 245.382 164.89 245.118 164.815L245.059 164.975C244.8 164.918 244.536 164.889 244.271 164.887C244.271 164.887 244.007 162.776 244.866 162.008C244.935 161.92 244.986 161.819 245.015 161.711C245.043 161.603 245.049 161.49 245.033 161.379C245.039 161.09 245.008 160.801 244.941 160.519C244.933 160.537 244.923 160.555 244.912 160.571C244.48 158.654 243.016 155.609 243.016 155.609C243.016 155.609 242.951 153.691 243.48 152.923C244.01 152.154 243.412 142.493 243.412 142.493C243.412 142.493 243.611 137.825 243.016 135.649C242.422 133.474 243.742 130.912 243.742 130.912C243.742 130.912 243.742 130.863 243.742 130.775V130.742L243.667 130.006C243.665 130.021 243.665 130.036 243.667 130.052C243.533 128.815 243.281 126.574 243.095 125.54C242.83 124.068 243.163 117.034 243.163 117.034L244.35 114.025L246.464 119.21L248.709 126.119C248.709 126.119 249.82 127.578 249.846 129.064C249.846 129.136 249.846 129.208 249.846 129.28C249.828 129.433 249.82 129.587 249.82 129.741C249.78 130.614 250.02 131.477 250.503 132.204C250.503 132.204 251.098 135.476 252.023 136.297C252.948 137.118 252.948 138.728 252.948 138.728C252.948 138.728 254.069 143.465 254.582 144.289C255.026 144.989 255.049 146.906 255.046 147.505C255.046 147.613 255.046 147.675 255.046 147.675C255.046 147.675 255.203 149.37 255.196 150.79C255.196 150.966 255.196 151.136 255.196 151.297C255.198 151.285 255.198 151.273 255.196 151.261C255.196 151.649 255.15 152.035 255.059 152.412L255.039 152.478C255.039 152.396 255.039 152.317 255.062 152.239C254.832 153.203 254.723 154.192 254.735 155.183C254.706 156.884 254.964 158.9 255.993 160.091C257.778 162.138 258.899 161.883 258.899 161.883C258.899 161.883 258.042 164.442 256.984 164.955C256.944 164.974 256.906 164.998 256.873 165.027C256.873 164.975 256.853 164.926 256.846 164.877C256.728 165.004 256.638 165.155 256.582 165.32C256.526 165.484 256.504 165.659 256.52 165.832C256.444 166.957 257.154 168.776 257.827 169.624C258.077 169.869 258.383 170.048 258.719 170.147C258.666 170.185 258.61 170.219 258.552 170.248C258.435 170.313 258.314 170.371 258.19 170.422C258.018 170.495 257.836 170.542 257.65 170.563C257.292 170.572 256.94 170.658 256.617 170.815C256.295 170.972 256.01 171.196 255.781 171.472C255.127 172.323 254.709 173.484 256.01 174.505L260.732 176.14C260.732 176.14 268.804 177.177 268.379 175.355Z" fill="url(#paint0_linear_795_343)"/>
<path d="M237.363 178.378L232.788 176.742C231.526 175.722 231.928 174.56 232.565 173.706C232.785 173.434 233.06 173.212 233.372 173.055C233.684 172.898 234.027 172.81 234.376 172.797C234.686 172.757 234.983 172.651 235.248 172.486C235.538 172.328 235.787 172.104 235.974 171.832C236.308 171.302 236.488 170.689 236.493 170.062C236.493 170.062 241.513 168.59 242.886 170.062C243.131 170.329 243.335 170.629 243.493 170.955C243.949 171.971 244.173 173.077 244.147 174.191C244.147 174.191 244.402 175.787 244.817 177.613C245.232 179.438 237.363 178.378 237.363 178.378Z" fill="#2D293D"/>
<path d="M259.729 176.12L255.154 174.485C253.892 173.464 254.294 172.303 254.931 171.452C255.149 171.179 255.423 170.956 255.735 170.799C256.047 170.642 256.39 170.554 256.739 170.543C256.919 170.524 257.096 170.477 257.261 170.402C257.382 170.351 257.5 170.293 257.614 170.229C258.892 169.525 258.859 167.798 258.859 167.798C258.859 167.798 263.876 166.326 265.252 167.798C265.436 167.997 265.597 168.217 265.732 168.452C266.592 169.941 266.497 171.926 266.497 171.926C266.497 171.926 266.752 173.526 267.15 175.348C267.549 177.171 259.729 176.12 259.729 176.12Z" fill="#2D293D"/>
<path opacity="0.1" d="M242.889 170.058C243.134 170.325 243.339 170.626 243.497 170.952L235.98 171.825C236.314 171.295 236.494 170.682 236.5 170.055C236.5 170.055 241.516 168.586 242.889 170.058Z" fill="black"/>
<path opacity="0.1" d="M265.739 168.459V169.869C264.569 171.796 258.912 171.374 257.268 170.409C257.389 170.358 257.507 170.3 257.621 170.235C258.899 169.532 258.866 167.805 258.866 167.805C258.866 167.805 263.882 166.333 265.258 167.805C265.442 168.004 265.604 168.224 265.739 168.459Z" fill="black"/>
<path d="M266.631 162.381C266.281 162.995 265.983 163.637 265.739 164.301V169.355C264.458 171.465 257.814 170.762 256.915 169.611C256.016 168.459 255.078 165.462 256.088 164.942C257.098 164.422 257.941 161.87 257.941 161.87C257.941 161.87 256.853 162.125 255.127 160.077C253.402 158.029 253.915 153.489 254.235 152.403C254.556 151.316 254.235 147.669 254.235 147.669C254.235 147.669 254.301 145.107 253.791 144.276C253.281 143.445 252.193 138.715 252.193 138.715C252.193 138.715 252.193 137.115 251.297 136.284C250.402 135.453 249.827 132.188 249.827 132.188C249.303 131.372 249.078 130.4 249.19 129.437C249.379 127.837 248.101 126.11 248.101 126.11L245.928 119.197L243.882 114.015L242.732 117.021C242.732 117.021 242.405 124.058 242.67 125.527C242.935 126.996 243.324 130.902 243.324 130.902C243.324 130.902 242.046 133.461 242.621 135.636C243.196 137.812 242.987 142.487 242.987 142.487C242.987 142.487 243.562 152.144 243.049 152.913C242.536 153.682 242.601 155.602 242.601 155.602C242.601 155.602 245.216 161.229 244.392 161.998C243.569 162.767 243.817 164.877 243.817 164.877C243.817 164.877 245.605 164.877 244.84 165.646C244.075 166.414 243.497 170.445 243.497 170.445L235.768 171.351C235.768 171.351 235.062 170.458 234.039 168.079C233.016 165.701 234.229 165.969 235.258 165.711C236.288 165.452 235.637 164.818 234.422 164.049C233.206 163.28 233.912 161.553 233.912 161.553C233.912 161.553 235.765 158.419 235.124 158.164C234.484 157.908 234.422 153.492 234.422 153.492C234.422 153.492 233.144 148.258 233.464 146.838C233.784 145.418 232.441 142.042 232.441 142.042L231.993 138.011C230.626 135.724 230.127 133.02 230.588 130.395V124.179C230.588 124.179 228.797 112.153 228.542 106.075C228.379 102.182 228.425 96.869 228.477 93.5549C228.51 91.6967 228.542 90.4634 228.542 90.4634L256.15 87.5845C256.15 87.5845 256.124 88.8604 256.65 91.6902C256.935 93.2082 257.376 95.1743 258.069 97.6312C260.049 104.668 258.837 109.912 258.837 109.912L258.578 118.808C258.578 118.808 261.007 124.755 260.497 126.803C260.189 128.019 260.015 129.265 259.98 130.52C259.98 130.52 265.412 143.507 264.837 147.283C264.261 151.058 266.624 157.009 266.624 157.009C266.624 157.009 267.271 161.229 266.631 162.381Z" fill="#464353"/>
<path opacity="0.05" d="M250.846 129.05L259.252 127.928C259.252 127.928 254.49 132.793 250.846 129.05Z" fill="black"/>
<path opacity="0.1" d="M258.036 119.707C258.036 119.707 258.324 122.684 256.503 123.803C256.503 123.803 259.761 123.293 258.036 119.707Z" fill="black"/>
<path opacity="0.1" d="M257.52 110.239C257.52 110.239 250.493 116.03 247.938 115.549C245.382 115.068 257.52 110.239 257.52 110.239Z" fill="black"/>
<path opacity="0.1" d="M240.428 131.766C240.428 131.766 235.091 132.979 234.931 135.125C234.771 137.272 240.428 131.766 240.428 131.766Z" fill="black"/>
<path opacity="0.05" d="M241.601 158.448C241.601 158.448 234.062 159.855 236.203 160.814C238.343 161.772 241.859 162.541 241.859 162.541C241.859 162.541 244.294 162.668 241.601 158.448Z" fill="black"/>
<g opacity="0.05">
<path opacity="0.05" d="M234.68 162.338C234.49 162.219 234.33 162.059 234.21 161.87C234.091 161.681 234.016 161.467 233.99 161.245L233.912 161.379C233.912 161.379 233.209 163.107 234.425 163.872C234.562 163.96 234.696 164.049 234.817 164.134C235.043 164.091 235.284 164.059 235.516 164C236.546 163.745 235.895 163.107 234.68 162.338Z" fill="black"/>
<path opacity="0.05" d="M244.392 161.824C244.601 161.634 244.595 161.144 244.467 160.516C244.141 161.01 244.046 161.782 244.039 162.367C244.119 162.164 244.239 161.979 244.392 161.824Z" fill="black"/>
<path opacity="0.05" d="M243.232 129.996C242.954 130.753 242.783 131.544 242.722 132.348C242.868 131.793 243.064 131.252 243.307 130.732L243.232 129.996Z" fill="black"/>
<path opacity="0.05" d="M260.5 126.64C260.55 126.41 260.573 126.175 260.569 125.939C260.474 126.417 260.409 126.859 260.359 127.248C260.402 127.048 260.448 126.859 260.5 126.64Z" fill="black"/>
<path opacity="0.05" d="M243.052 152.742C243.157 152.585 243.216 152.055 243.242 151.319C243.005 151.889 242.88 152.499 242.873 153.115C242.917 152.984 242.978 152.859 243.052 152.742Z" fill="black"/>
<path opacity="0.05" d="M244.621 164.808C244.225 166.091 243.931 167.404 243.742 168.733L236.013 169.626C236.013 169.626 235.307 168.733 234.284 166.355C234.202 166.171 234.129 165.984 234.065 165.792C233.601 166.005 233.412 166.486 234.026 167.889C235.049 170.258 235.758 171.161 235.758 171.161L243.487 170.264C243.487 170.264 244.062 166.234 244.827 165.465C245.219 165.096 244.977 164.902 244.621 164.808Z" fill="black"/>
<path opacity="0.05" d="M234.425 153.318C234.425 153.318 234.487 157.732 235.127 157.987C235.454 157.257 235.667 156.564 235.379 156.449C234.726 156.194 234.677 151.777 234.677 151.777C234.677 151.777 233.399 146.543 233.719 145.123C234.039 143.703 232.696 140.327 232.696 140.327L232.248 136.297C230.881 134.01 230.382 131.306 230.843 128.681V122.465C230.843 122.465 229.052 110.439 228.797 104.361C228.634 100.467 228.68 95.1545 228.732 91.8405C228.732 91.2418 228.752 90.7119 228.761 90.2637L228.543 90.2866C228.543 90.2866 228.507 91.5166 228.477 93.3781C228.425 96.6921 228.376 102.005 228.543 105.895C228.797 111.973 230.585 124.003 230.585 124.003V130.218C230.126 132.843 230.626 135.545 231.993 137.831L232.438 141.862C232.438 141.862 233.781 145.251 233.461 146.661C233.141 148.071 234.425 153.318 234.425 153.318Z" fill="black"/>
<path opacity="0.05" d="M257.177 167.903C256.549 166.993 256.13 165.955 255.951 164.863C255.163 165.576 256.069 168.344 256.931 169.443C257.824 170.595 264.471 171.298 265.755 169.185V167.968C264.013 169.679 258.02 168.992 257.177 167.903Z" fill="black"/>
<path opacity="0.05" d="M266.889 160.672C266.538 161.287 266.239 161.929 265.993 162.593V163.499C266.14 163.172 266.346 162.733 266.647 162.217C266.849 161.713 266.945 161.173 266.928 160.63C266.928 160.63 266.899 160.659 266.889 160.672Z" fill="black"/>
<path opacity="0.05" d="M257.569 161.684C257.812 161.191 258.022 160.683 258.199 160.162C258.199 160.162 257.111 160.418 255.386 158.37C254.131 156.881 254.059 154.068 254.239 152.229C253.912 153.318 253.405 157.859 255.131 159.907C256.258 161.245 257.111 161.599 257.569 161.684Z" fill="black"/>
<path opacity="0.05" d="M254.235 147.495C254.348 148.756 254.391 150.021 254.363 151.287C254.395 151.087 254.438 150.889 254.493 150.695C254.82 149.605 254.493 145.961 254.493 145.961C254.493 145.961 254.559 143.399 254.046 142.568C253.533 141.737 252.464 137 252.464 137C252.464 137 252.464 135.4 251.569 134.569C250.673 133.739 250.098 130.474 250.098 130.474C249.57 129.659 249.339 128.687 249.444 127.722C249.637 126.122 248.36 124.395 248.36 124.395L246.186 117.486L244.141 112.304L242.987 115.313C242.987 115.313 242.987 115.693 242.948 116.295L243.882 113.851L245.928 119.023L248.101 125.933C248.101 125.933 249.379 127.66 249.186 129.26C249.081 130.225 249.312 131.197 249.84 132.011C249.84 132.011 250.415 135.283 251.31 136.107C252.206 136.931 252.203 138.538 252.203 138.538C252.203 138.538 253.291 143.272 253.801 144.099C254.31 144.927 254.235 147.495 254.235 147.495Z" fill="black"/>
</g>
<path d="M259.601 29.787L259.121 32.1228L259.15 33.1632L259.17 33.9287L256.503 34.2035L256.206 33.6506C255.654 32.6496 254.507 30.6147 254.137 30.3006C253.644 29.8884 252.765 23.3912 253.811 23.7773C254.454 24.0262 254.983 24.5053 255.294 25.1219C255.294 25.1219 260.546 25.7238 259.601 29.787Z" fill="#FFCDD3"/>
<path opacity="0.1" d="M259.17 33.9286L256.503 34.2034L256.206 33.6505C256.564 33.2417 257.054 32.97 257.59 32.8818C258.126 32.7935 258.676 32.894 259.147 33.1663L259.17 33.9286Z" fill="black"/>
<path d="M259.843 35.1945L256.327 36.0091L256.252 35.4856L256.052 34.0756C256.052 34.0756 257.444 32.2174 259.457 33.6111L259.634 34.3275L259.843 35.1945Z" fill="#FF7666"/>
<path d="M202.882 30.042L199.127 32.0573L198.801 31.3506C198.444 30.6014 197.912 29.4728 197.765 29.0606C197.542 28.439 195.977 27.6538 195.977 27.6538C192.056 23.8949 196.729 20.6627 196.729 20.6627C199.206 15.6736 201.958 22.3573 201.958 22.3573C201.958 22.3573 202.343 25.8807 202.072 26.1162C201.801 26.3518 201.801 27.3169 201.801 27.3169C202.159 28.0083 202.461 28.727 202.706 29.4662C202.82 29.8228 202.882 30.042 202.882 30.042Z" fill="#FFCDD3"/>
<path opacity="0.1" d="M202.882 30.0422L199.127 32.0575L198.801 31.3508C199.33 30.9059 201.209 29.3879 201.827 29.4501C202.122 29.4869 202.419 29.4946 202.716 29.473C202.82 29.823 202.882 30.0422 202.882 30.0422Z" fill="black"/>
<path d="M203.265 31.1773L199.046 33.258L198.961 32.3518L198.902 31.7236C198.902 31.7236 201.346 29.6266 202.069 29.7084C202.434 29.7614 202.805 29.7614 203.17 29.7084L203.219 30.4674L203.265 31.1773Z" fill="#FF7666"/>
<path d="M249.376 45.3034C249.376 45.3034 230.984 47.3808 234.422 46.2619C236.814 45.48 237.765 43.9719 237.964 42.2707C238.127 40.8541 237.761 39.3264 237.281 38.0178C236.849 36.8569 236.301 35.7423 235.647 34.6907C235.647 34.6907 249.699 26.9503 246.892 33.9873C246.459 35.0517 246.19 36.1757 246.095 37.3209C246.01 38.459 246.133 39.603 246.457 40.6971C246.988 42.4724 247.998 44.0665 249.376 45.3034Z" fill="#FFCDD3"/>
<path opacity="0.1" d="M246.882 33.9775C246.449 35.0419 246.181 36.1659 246.085 37.3112C244.761 38.4267 243.31 38.3515 241.444 38.3515C240.013 38.3515 238.425 38.6983 237.281 38.008C236.849 36.8471 236.301 35.7325 235.647 34.6809C235.647 34.6809 249.696 26.9405 246.882 33.9775Z" fill="black"/>
<path d="M241.196 38.8422C245.396 38.8422 248.801 35.4339 248.801 31.2295C248.801 27.025 245.396 23.6167 241.196 23.6167C236.996 23.6167 233.592 27.025 233.592 31.2295C233.592 35.4339 236.996 38.8422 241.196 38.8422Z" fill="#FFCDD3"/>
<path opacity="0.1" d="M249.376 45.3035C249.376 45.3035 230.984 47.3809 234.422 46.2621C236.814 45.4802 237.765 43.9721 237.964 42.2709C238.879 41.2894 240.719 40.5599 241.886 40.1804C242.964 39.8173 244.129 39.7979 245.219 40.1248C245.648 40.2541 246.056 40.4435 246.431 40.6875C246.967 42.4693 247.986 44.0673 249.376 45.3035Z" fill="black"/>
<path opacity="0.1" d="M259.843 35.1945L256.327 36.0091L256.252 35.4856C256.628 34.9679 257.155 34.5789 257.76 34.3717C258.365 34.1645 259.02 34.149 259.634 34.3275L259.843 35.1945Z" fill="black"/>
<path opacity="0.1" d="M203.265 31.177L199.046 33.2577L198.961 32.3515C200.327 31.616 201.748 30.985 203.209 30.4639L203.265 31.177Z" fill="black"/>
<path opacity="0.1" d="M256.65 91.6965C249.523 92.835 239.392 94.2876 237.784 93.7968C236.448 93.3912 232.186 93.4337 228.477 93.5613C228.51 91.7031 228.542 90.4697 228.542 90.4697L256.15 87.5908C256.15 87.5908 256.124 88.8667 256.65 91.6965Z" fill="black"/>
<path d="M263.755 90.0214C263.755 90.0214 240.301 94.0519 237.784 93.2929C235.268 92.5339 222.343 93.355 222.343 93.355C216.526 97.2579 218.954 91.5001 218.954 91.5001C218.954 91.5001 218.444 88.4936 219.147 86.0629C219.619 84.2783 219.941 82.4574 220.111 80.6191C220.111 80.6191 219.984 76.7784 220.686 75.882C221.389 74.9856 222.222 68.5899 222.222 68.5899C222.222 68.5899 222.859 64.2388 222.797 63.2802C222.735 62.3217 222.987 59.6325 222.987 59.6325L223.82 55.1539C219.026 54.5159 204.454 45.5586 204.454 45.5586C203.752 42.5521 198.32 35.5151 198.32 35.5151C198.241 34.9233 198.091 34.3434 197.873 33.7877C197.49 32.7638 203.242 30.7158 203.242 30.7158C203.242 30.7158 207.523 35.9502 208.418 37.37C209.314 38.7899 212.379 41.4005 212.379 41.4005C212.855 41.3515 213.336 41.4142 213.784 41.5837L213.859 41.6066C214.887 42.0103 215.85 42.5613 216.719 43.2424C218.16 43.2081 219.558 43.736 220.618 44.7145C220.618 44.7145 223.232 44.3285 223.686 44.7767C224.14 45.2249 226.369 44.7767 226.369 44.7767C226.369 44.7767 228.605 40.0428 230.075 41.4169C231.546 42.7909 237.784 42.7255 237.784 42.7255C238.614 41.6197 240.637 40.828 241.902 40.4354C242.981 40.0738 244.145 40.0544 245.235 40.3798C245.706 40.5203 246.148 40.7417 246.542 41.0341L250.337 44.744C250.337 44.744 251.422 43.334 251.294 43.0166C251.167 42.6993 252.572 42.4408 252.572 42.4408C252.572 42.4408 254.425 41.8651 255.127 41.672C255.83 41.479 256.474 42.2413 256.533 42.31C256.51 42.2282 256.029 40.6742 256.206 39.4965C256.382 38.3188 255.438 37.2065 255.438 37.2065C257.673 31.7038 262.722 36.3101 262.722 36.3101C262.722 36.3101 263.297 39.3166 262.788 40.4681C262.278 41.6197 263.297 44.0504 263.17 44.6916C263.042 45.3328 263.428 46.419 263.428 47.636C263.428 48.853 262.774 51.1528 262.405 52.1768C262.036 53.2008 258.954 55.5039 258.954 55.5039C258.954 55.5039 258.761 59.1516 257.418 61.2617C256.075 63.3718 256.918 70.5887 256.918 70.5887C256.918 70.5887 258.196 76.219 259.794 78.0117C261.392 79.8045 263.755 90.0214 263.755 90.0214Z" fill="#3F3D56"/>
<path opacity="0.1" d="M229.565 47.9241C229.565 47.9241 228.863 45.814 228.222 45.634C227.586 45.3999 226.967 45.1222 226.369 44.8031L226.781 44.0146C226.781 44.0146 229.18 44.6689 229.565 45.3789C229.951 46.0888 229.565 47.9241 229.565 47.9241Z" fill="black"/>
<path opacity="0.1" d="M216.719 43.2557C216.592 43.91 210.902 44.4694 210.902 44.4694L213.778 41.584L213.85 41.6102C214.881 42.0161 215.848 42.5704 216.719 43.2557Z" fill="black"/>
<path d="M200.261 34.9855C200.543 34.9855 200.771 34.7571 200.771 34.4752C200.771 34.1933 200.543 33.9648 200.261 33.9648C199.98 33.9648 199.752 34.1933 199.752 34.4752C199.752 34.7571 199.98 34.9855 200.261 34.9855Z" fill="#575988"/>
<path d="M200.915 36.0095C201.197 36.0095 201.425 35.781 201.425 35.4991C201.425 35.2173 201.197 34.9888 200.915 34.9888C200.633 34.9888 200.405 35.2173 200.405 35.4991C200.405 35.781 200.633 36.0095 200.915 36.0095Z" fill="#575988"/>
<path d="M201.556 36.9548C201.837 36.9548 202.065 36.7263 202.065 36.4444C202.065 36.1626 201.837 35.9341 201.556 35.9341C201.274 35.9341 201.046 36.1626 201.046 36.4444C201.046 36.7263 201.274 36.9548 201.556 36.9548Z" fill="#575988"/>
<path d="M202.226 37.9753C202.507 37.9753 202.735 37.7468 202.735 37.4649C202.735 37.1831 202.507 36.9546 202.226 36.9546C201.944 36.9546 201.716 37.1831 201.716 37.4649C201.716 37.7468 201.944 37.9753 202.226 37.9753Z" fill="#575988"/>
<path d="M262.467 37.8251C262.696 37.8251 262.882 37.6391 262.882 37.4096C262.882 37.1802 262.696 36.9941 262.467 36.9941C262.238 36.9941 262.052 37.1802 262.052 37.4096C262.052 37.6391 262.238 37.8251 262.467 37.8251Z" fill="#575988"/>
<path d="M262.533 38.7704C262.762 38.7704 262.948 38.5844 262.948 38.3549C262.948 38.1255 262.762 37.9395 262.533 37.9395C262.303 37.9395 262.118 38.1255 262.118 38.3549C262.118 38.5844 262.303 38.7704 262.533 38.7704Z" fill="#575988"/>
<path d="M262.588 39.7128C262.817 39.7128 263.003 39.5268 263.003 39.2973C263.003 39.0679 262.817 38.8818 262.588 38.8818C262.359 38.8818 262.173 39.0679 262.173 39.2973C262.173 39.5268 262.359 39.7128 262.588 39.7128Z" fill="#575988"/>
<path opacity="0.1" d="M229.588 65.2629C229.526 65.1877 243.935 83.4001 255.118 72.8757C255.127 72.879 237.457 75.277 229.588 65.2629Z" fill="black"/>
<path opacity="0.1" d="M221.32 74.7305C221.32 74.7305 229.941 74.966 230.843 77.4491V80.0335C230.598 80.1699 230.322 80.2414 230.041 80.2414C229.76 80.2414 229.484 80.1699 229.239 80.0335C228.369 79.5625 223.157 76.9126 221.32 78.1884V74.7305Z" fill="black"/>
<path d="M221.48 74.7305C221.48 74.7305 229.725 74.9562 230.588 77.3248V79.7849C230.353 79.9155 230.089 79.9841 229.82 79.9841C229.551 79.9841 229.287 79.9155 229.052 79.7849C228.222 79.34 223.239 76.8111 221.48 78.0281V74.7305Z" fill="#3F3D56"/>
<path opacity="0.1" d="M226.026 55.9917C226.907 58.0326 228.029 59.9602 229.369 61.7332C230.827 63.6928 232.593 65.4021 234.598 66.7941C234.598 66.7941 226.17 57.176 226.026 55.9917Z" fill="black"/>
<path opacity="0.1" d="M223.206 45.9644C223.206 45.9644 224.644 52.1802 228.35 54.2903L223.206 45.9644Z" fill="black"/>
<path opacity="0.1" d="M221 46.5927C220.964 46.4782 219.722 51.5 225.778 54.2906C225.778 54.2906 223.206 53.4171 221 46.5927Z" fill="black"/>
<path opacity="0.1" d="M258.644 42.4246C258.549 42.4246 261.631 44.3874 262.471 45.3035C262.471 45.3035 260.464 42.2937 258.644 42.4246Z" fill="black"/>
<path d="M239.141 38.1291C239.142 38.2952 239.177 38.4592 239.245 38.6108C239.313 38.7624 239.411 38.8984 239.534 39.01C239.657 39.1216 239.801 39.2065 239.959 39.2592C240.116 39.312 240.282 39.3316 240.448 39.3166C242.765 39.4606 245.18 39.562 247.31 38.6623C247.71 38.5195 248.069 38.2815 248.356 37.9688C248.735 37.501 248.81 36.8663 248.964 36.284C249.265 35.1455 249.905 34.1346 250.366 33.0517C251.146 31.2222 251.407 29.2131 251.121 27.2448C251.061 26.6415 250.861 26.0603 250.539 25.5469C249.925 24.6669 248.804 24.3103 247.99 23.6102C247.176 22.9101 246.654 21.8403 245.703 21.3202C244.846 20.8425 243.797 20.9014 242.833 21.065C240.937 21.3874 239.12 22.0703 237.48 23.077C236.928 23.4041 236.324 23.8065 235.69 23.6855C235.134 23.5808 234.729 23.113 234.382 22.6746C233.937 23.7215 233.75 24.8605 233.837 25.9951C233.861 26.1616 233.855 26.3311 233.82 26.4957C233.74 26.6946 233.619 26.8742 233.464 27.0224C232.892 27.6767 232.536 28.7399 233.101 29.4138C233.346 29.705 233.725 29.8653 233.964 30.163C234.392 30.6963 234.248 31.4716 234.239 32.1521C234.215 32.3897 234.275 32.6281 234.408 32.826C234.532 32.9414 234.683 33.0228 234.848 33.0623C235.012 33.1019 235.184 33.0982 235.346 33.0517C235.67 32.9541 236.01 32.9219 236.346 32.9569C236.701 33.0722 237.007 33.3024 237.216 33.6112C238.271 34.9885 238.69 36.4868 239.141 38.1291Z" fill="#2D293D"/>
<g opacity="0.1">
<path opacity="0.1" d="M248.627 37.3899C248.34 37.7026 247.981 37.9406 247.582 38.0834C245.438 38.9765 243.026 38.8751 240.719 38.7377C240.471 38.7402 240.226 38.6853 240.003 38.5774C239.65 38.3713 239.516 37.9395 239.409 37.5469C238.958 35.9111 238.542 34.4095 237.471 33.0453C237.264 32.7306 236.958 32.4945 236.601 32.3747C236.265 32.3429 235.926 32.3751 235.601 32.4695C235.439 32.5165 235.267 32.5206 235.103 32.4817C234.939 32.4427 234.787 32.3619 234.663 32.2471C234.53 32.0491 234.47 31.8108 234.493 31.5732C234.493 30.8861 234.647 30.1173 234.219 29.5841C233.98 29.2864 233.601 29.1261 233.356 28.8316C233.196 28.6146 233.098 28.3582 233.072 28.0897C233.046 27.8213 233.094 27.5508 233.209 27.3071C232.801 27.9614 232.627 28.7826 233.101 29.3453C233.346 29.6364 233.726 29.7967 233.964 30.0944C234.392 30.631 234.248 31.403 234.239 32.0835C234.213 32.3208 234.272 32.5593 234.405 32.7574C234.529 32.8734 234.681 32.9551 234.846 32.9947C235.011 33.0342 235.183 33.0303 235.346 32.9832C235.67 32.8855 236.01 32.8533 236.346 32.8883C236.701 33.0036 237.007 33.2338 237.216 33.5426C238.284 34.9068 238.703 36.4051 239.154 38.0474C239.206 38.4516 239.408 38.8214 239.719 39.0845C239.943 39.1926 240.189 39.2464 240.438 39.2415C242.755 39.3855 245.17 39.4902 247.301 38.5872C247.701 38.4454 248.06 38.2072 248.346 37.8937C248.49 37.7094 248.601 37.5012 248.673 37.2786C248.676 37.3212 248.654 37.3571 248.627 37.3899Z" fill="black"/>
<path opacity="0.1" d="M233.837 26.2962C233.939 26.1846 234.018 26.0533 234.069 25.9102C234.098 25.7446 234.098 25.5752 234.069 25.4096C234.005 24.4769 234.126 23.5408 234.425 22.655L234.382 22.606C233.935 23.6513 233.748 24.7896 233.837 25.9232C233.846 26.0474 233.846 26.1721 233.837 26.2962Z" fill="black"/>
</g>
<path opacity="0.1" d="M237.784 42.742C237.784 42.742 247.284 44.0048 248.137 42.5752L237.784 42.742Z" fill="black"/>
<path opacity="0.1" d="M256.252 38.8066C256.252 38.8066 261.533 38.8066 262.693 40.7957L256.252 38.8066Z" fill="black"/>
<path d="M285.797 215.516C284.231 216.918 282.196 217.679 280.095 217.649C279.559 217.649 278.817 217.751 278.814 218.287C278.827 218.444 278.881 218.596 278.971 218.725C279.634 219.832 280.681 220.655 281.912 221.038C283.056 221.385 284.278 221.326 285.471 221.264L288.951 221.084C289.605 221.048 290.258 221.016 290.912 220.934C291.565 220.852 292.278 220.718 292.961 220.607C294.639 220.368 296.336 220.289 298.029 220.371C298.48 220.387 299.01 220.371 299.278 220.044C299.546 219.717 299.408 219.092 299.307 218.601C299.098 217.59 299.307 216.53 299.114 215.516C298.788 213.736 297.248 212.372 295.562 211.728C293.993 211.132 291.216 210.449 289.732 211.443C288.167 212.487 287.209 214.23 285.797 215.516Z" fill="#3F3D56"/>
<path d="M289.255 155.89C289.562 157.352 290.977 158.471 291.016 159.963C291.052 161.16 290.199 162.165 289.585 163.189C289.006 164.249 288.517 165.357 288.124 166.499C286.967 169.475 285.532 172.334 283.837 175.038C283.02 176.347 282.105 177.744 282.291 179.265C282.421 179.976 282.672 180.66 283.033 181.287L285.484 186.161C286.021 187.134 286.441 188.168 286.735 189.24C286.948 190.165 286.967 191.124 287.092 192.066C287.477 195.056 288.879 198.066 288.049 200.965C287.977 201.213 287.722 201.514 287.523 201.341C288.333 202.855 288.984 204.38 288.922 206.098C288.889 206.997 288.614 207.936 288.944 208.774C289.085 209.124 289.33 209.451 289.327 209.827C289.327 210.076 289.212 210.308 289.186 210.55C289.118 211.24 289.752 211.816 290.409 212.035C291.065 212.254 291.781 212.238 292.444 212.438C293.719 212.82 294.631 213.92 295.712 214.682C296.822 215.447 298.13 215.873 299.477 215.909C299.669 215.929 299.863 215.89 300.033 215.797C300.129 215.713 300.206 215.61 300.259 215.494C300.312 215.377 300.339 215.251 300.34 215.124C300.399 214.513 300.307 213.896 300.072 213.329C299.838 212.762 299.467 212.262 298.993 211.872C298.786 211.742 298.614 211.562 298.493 211.348C298.432 211.159 298.417 210.959 298.448 210.763C298.645 208.081 298.597 205.387 298.304 202.715C298.172 201.868 298.129 201.009 298.177 200.153C298.245 199.44 298.461 198.733 298.382 198.023C298.304 197.314 297.941 196.666 297.729 195.982C297.35 194.765 297.454 193.456 297.402 192.184C297.337 189.972 296.83 187.8 296.327 185.641C296.127 184.794 295.909 183.907 295.31 183.279C294.801 182.746 293.977 182.235 294.17 181.525C294.277 181.264 294.436 181.027 294.637 180.829C294.874 180.531 295.048 180.189 295.148 179.822C295.248 179.455 295.272 179.072 295.219 178.696C295.434 178.75 295.661 178.729 295.862 178.635C296.063 178.54 296.225 178.379 296.32 178.179C300.301 176.298 303.51 172.535 304.941 168.364C305.026 168.054 305.156 167.759 305.327 167.487C305.696 166.971 306.337 166.748 306.905 166.463C308.69 165.564 309.922 163.879 311.052 162.23C311.706 161.275 312.36 160.287 312.654 159.161C312.808 158.434 312.882 157.691 312.873 156.947L312.974 153.103C312.996 152.85 312.972 152.595 312.902 152.35C312.805 152.122 312.664 151.915 312.487 151.742C311.4 150.591 309.973 149.82 308.415 149.543C307.369 149.357 306.301 149.393 305.242 149.304C303.19 149.134 301.163 148.496 299.111 148.65C295.886 148.889 293.013 151.127 291.493 153.986C290.961 154.994 290.399 155.87 289.255 155.89Z" fill="#464353"/>
<path d="M271.346 130.896C271.39 131.489 271.31 132.085 271.111 132.646C270.86 133.183 270.229 133.601 269.676 133.382C269.843 133.006 269.402 132.577 268.99 132.623C268.788 132.67 268.599 132.765 268.442 132.901C268.284 133.036 268.162 133.208 268.085 133.402C267.812 133.951 267.72 134.573 267.824 135.178C267.954 135.931 268.389 136.654 268.275 137.409C268.183 138.037 267.722 138.662 267.967 139.245C268.126 139.511 268.326 139.75 268.559 139.955C268.882 140.353 269.04 140.86 269 141.371C268.961 141.882 268.727 142.359 268.346 142.703L274.529 142.827C274.304 143.861 274.768 144.917 275.297 145.837C276.78 148.364 278.828 150.513 281.279 152.116C283.731 153.718 286.52 154.73 289.428 155.072C289.271 155.164 289.136 155.29 289.033 155.44C288.931 155.591 288.863 155.762 288.834 155.942C288.806 156.122 288.817 156.306 288.869 156.481C288.92 156.656 289.01 156.817 289.131 156.953C289.634 157.454 290.487 157.392 291.118 157.068C291.748 156.744 292.242 156.207 292.817 155.792C293.832 155.072 295.071 154.737 296.311 154.85C297.085 154.925 297.837 155.177 298.614 155.216C300.902 155.337 302.863 153.688 305.065 153.014C306.67 152.52 308.49 152.52 309.837 151.516C310.418 151.084 310.895 150.374 310.726 149.674C310.585 149.272 310.362 148.903 310.072 148.591C309.297 147.587 308.84 146.38 308.284 145.238C307.184 142.977 305.668 140.944 303.817 139.245C302.42 138.022 300.939 136.898 299.386 135.882C299.01 135.604 298.61 135.362 298.19 135.159C297.647 134.92 297.046 134.805 296.556 134.504C295.83 134.046 295.412 133.238 294.853 132.587C293.628 131.154 291.745 130.497 290.235 129.371C289.222 128.616 288.327 127.621 287.118 127.258C286.529 127.078 285.905 127.065 285.317 126.888C283.98 126.483 283.007 125.295 281.696 124.814C280.66 124.435 279.516 124.533 278.428 124.399C277.201 124.247 276.03 123.8 275.013 123.097C274.686 122.829 274.318 122.615 273.925 122.462C272.268 121.958 272.134 125.046 271.964 126.116C271.745 127.706 271.346 129.286 271.346 130.896Z" fill="#FF7666"/>
<path d="M272.961 141.253C273.239 144.269 270.964 147.191 271.627 150.145C271.768 150.773 272.039 151.372 272.137 152.01C272.415 153.76 271.369 155.418 270.373 156.884L261.81 169.463C261.467 170.015 261.056 170.523 260.588 170.974C258.954 172.43 256.497 172.283 254.346 172.715C252.836 173.026 251.409 173.657 250.163 174.567C250.107 174.61 250.07 174.674 250.061 174.744C250.051 174.814 250.069 174.886 250.111 174.943C250.466 175.427 250.936 175.814 251.479 176.069C252.022 176.325 252.62 176.44 253.219 176.405C253.444 176.7 253.219 177.138 252.908 177.351C252.451 177.678 251.817 177.753 251.725 178.535C251.695 178.807 251.749 179.081 251.882 179.32C252.228 179.847 252.765 180.22 253.379 180.36C256.343 181.27 259.546 179.673 261.765 177.504C263.984 175.335 265.575 172.597 267.752 170.392C268.958 169.169 270.327 168.125 271.569 166.941C274.046 164.575 275.974 161.706 277.83 158.831C278.389 157.964 278.954 157.074 279.186 156.069C279.418 155.065 279.31 154.048 279.575 153.076C279.922 151.803 280.853 150.786 281.627 149.72C283.147 147.626 284.163 145.064 283.961 142.483C283.758 139.902 282.163 137.357 279.732 136.48C278.978 136.18 278.148 136.129 277.363 136.336C276.366 136.643 275.631 137.468 274.951 138.26L273.317 140.137C272.919 140.553 272.607 141.043 272.399 141.58C272.293 141.85 272.268 142.145 272.326 142.43C272.384 142.714 272.523 142.976 272.725 143.183" fill="#FBBEBE"/>
<path d="M277.301 128.88C276.176 128.946 274.938 129.057 274.144 129.862C273.811 130.231 273.541 130.653 273.346 131.111C272.575 132.685 271.824 134.33 271.768 136.084C271.722 137.484 272.127 138.855 272.34 140.239C272.516 141.39 272.069 142.565 271.984 143.729C273.379 143.301 275.222 142.719 276.487 141.996C277.35 141.502 278.183 140.939 279.124 140.625C280.467 140.177 282.719 140.952 283.997 141.574C284.065 140.677 283.392 139.113 283.464 138.214C283.474 137.835 283.541 137.46 283.663 137.101C283.855 136.722 284.081 136.362 284.34 136.025C284.826 135.233 285.05 134.308 284.979 133.381C284.908 132.455 284.546 131.574 283.944 130.866C282.81 129.59 281.036 129.112 279.343 128.903C278.277 128.779 277.203 128.742 276.131 128.792" fill="#FF7666"/>
<defs>
<linearGradient id="paint0_linear_795_343" x1="230.791" y1="178.682" x2="230.791" y2="18.8178" gradientUnits="userSpaceOnUse">
<stop stop-color="#808080" stop-opacity="0.25"/>
<stop offset="0.54" stop-color="#808080" stop-opacity="0.12"/>
<stop offset="1" stop-color="#808080" stop-opacity="0.1"/>
</linearGradient>
</defs>
</svg>
