<svg width="1156" height="1000" viewBox="0 0 1156 100" fill="none" xmlns="http://www.w3.org/2000/svg">
<path d="M3 355.383C3 355.383 15.5839 244.142 102.444 255.777C188.812 267.32 178.07 323.44 222.593 316.674C267.115 309.909 271.7 234.132 290.299 143.961C306.395 65.7003 366.055 90.1381 376.951 115.481C386.049 136.748 388.868 203.386 424.599 208.047C460.33 212.708 473.34 162.434 476.136 137.714C478.933 112.994 492.61 12.3634 537.674 11.3444C580.268 10.397 598.183 55.491 597.046 141.187C595.91 226.882 600.108 282.574 619.549 305.678C638.991 328.782 664.99 322.774 673.053 319.737C683.101 315.917 713.695 279.812 722.296 189.749C730.896 99.6866 780.086 113.274 791.017 126.601C801.948 139.929 831.218 213.02 868.265 211.505C905.313 209.989 916.032 192.833 922.741 152.236C929.451 111.639 939.919 11.0748 986.923 12.6313C1035.65 14.2878 1053.04 173.532 1051.67 221.41C1049.88 281.744 1112 353.644 1151.49 353.913" fill="url(#paint0_linear_722_340)"/>
<path d="M3 355.383C3 355.383 15.5839 244.142 102.444 255.777C188.812 267.32 178.07 323.44 222.593 316.674C267.115 309.909 271.7 234.132 290.299 143.961C306.395 65.7003 366.055 90.1381 376.951 115.481C386.049 136.748 388.868 203.386 424.599 208.047C460.33 212.708 473.34 162.434 476.136 137.714C478.933 112.994 492.61 12.3634 537.674 11.3444C580.268 10.397 598.183 55.491 597.046 141.187C595.91 226.882 600.108 282.574 619.549 305.678C638.991 328.782 664.99 322.774 673.053 319.737C683.101 315.917 713.695 279.812 722.296 189.749C730.896 99.6866 780.086 113.274 791.017 126.601C801.948 139.929 831.218 213.02 868.265 211.505C905.313 209.989 916.032 192.833 922.741 152.236C929.451 111.639 939.919 11.0748 986.923 12.6313C1035.65 14.2878 1053.04 173.532 1051.67 221.41C1049.88 281.744 1112 353.644 1151.49 353.913" stroke="#BAC6F2" stroke-width="5" stroke-miterlimit="10"/>
<path d="M219.361 327.696C228.222 327.757 235.473 322.663 235.557 316.32C235.641 309.977 228.526 304.786 219.666 304.726C210.805 304.666 203.554 309.759 203.469 316.102C203.385 322.445 210.5 327.636 219.361 327.696Z" fill="#BAC6F2"/>
<path d="M434.343 217.832C443.204 217.892 450.455 212.799 450.539 206.456C450.623 200.113 443.509 194.922 434.648 194.862C425.787 194.802 418.536 199.895 418.452 206.238C418.368 212.581 425.482 217.772 434.343 217.832Z" fill="#BAC6F2"/>
<path d="M337.123 103.283C345.984 103.344 353.235 98.2503 353.319 91.9073C353.403 85.5643 346.288 80.3734 337.428 80.3132C328.567 80.2529 321.316 85.3461 321.231 91.6892C321.147 98.0322 328.262 103.223 337.123 103.283Z" fill="#BAC6F2"/>
<path d="M543.306 24.0176C552.167 24.0779 559.418 18.9847 559.503 12.6417C559.587 6.29864 552.472 1.10778 543.611 1.04754C534.75 0.987306 527.499 6.08051 527.415 12.4235C527.331 18.7665 534.446 23.9574 543.306 24.0176Z" fill="#BAC6F2"/>
<path d="M769.978 130.877C778.839 130.937 786.09 125.844 786.174 119.501C786.258 113.158 779.144 107.967 770.283 107.906C761.422 107.846 754.171 112.939 754.087 119.282C754.003 125.625 761.117 130.816 769.978 130.877Z" fill="#BAC6F2"/>
<path d="M878.36 222.794C887.221 222.855 894.472 217.761 894.556 211.418C894.64 205.075 887.525 199.885 878.665 199.824C869.804 199.764 862.553 204.857 862.468 211.2C862.384 217.543 869.499 222.734 878.36 222.794Z" fill="#BAC6F2"/>
<path d="M983.91 25.7752C992.77 25.8354 1000.02 20.7423 1000.11 14.3993C1000.19 8.05639 993.075 2.86559 984.214 2.80535C975.354 2.74512 968.102 7.83827 968.018 14.1812C967.934 20.5242 975.049 25.715 983.91 25.7752Z" fill="#BAC6F2"/>
<path d="M654.999 331.542C663.86 331.602 671.111 326.509 671.195 320.166C671.28 313.823 664.165 308.632 655.304 308.571C646.443 308.511 639.192 313.604 639.108 319.947C639.024 326.29 646.139 331.481 654.999 331.542Z" fill="#BAC6F2"/>
<defs>
<linearGradient id="paint0_linear_722_340" x1="577.362" y1="342.367" x2="579.743" y2="-57.0806" gradientUnits="userSpaceOnUse">
<stop stop-color="white"/>
<stop offset="1" stop-color="#BAC6F2"/>
</linearGradient>
</defs>
</svg>
