<svg width="337" height="224" viewBox="0 0 337 224" fill="none" xmlns="http://www.w3.org/2000/svg">
<path opacity="0.2" d="M29.8486 96.2181C25.1928 97.6209 20.8351 101.017 19.672 105.73C18.3418 111.145 21.4093 116.604 21.8527 122.164C23.2847 140.383 -2.70192 153.236 1.00526 171.132C2.47724 178.248 8.42691 183.482 14.2894 187.806C23.6809 194.711 34.101 200.812 45.6405 202.534C63.1552 205.151 81.4549 197.459 98.4789 202.32C112.21 206.242 122.717 217.736 136.354 221.977C146.734 225.207 157.917 223.935 168.701 222.626C174.516 221.923 180.608 221.111 185.3 217.631C194.022 211.154 194.571 198.362 200.412 189.194C209.433 175.058 229.212 172.281 245.796 175.029C262.38 177.776 278.485 184.54 295.287 183.989C298.878 183.87 302.556 183.384 305.689 181.626C309.498 179.491 312.071 175.728 314.346 172.006C328.566 148.65 336.372 121.973 336.978 94.6558C337.076 89.9617 336.909 85.0645 334.696 80.9214C331.897 75.6799 326.304 72.5444 320.736 70.4348C307.364 65.3601 292.594 64.53 279.491 58.8064C266.854 53.2858 256.619 43.604 245.614 35.3068C223.683 18.8039 198.263 7.51319 171.292 2.2956C164.972 1.07766 158.412 0.207708 152.131 1.61413C144.895 3.23443 138.658 7.73282 133.05 12.5756C118.131 25.4581 106.173 41.3529 92.4238 55.4716C82.9389 65.2082 72.6108 74.0909 61.5596 82.0161C56.4713 85.6735 51.0632 90.016 45.3934 92.7201C40.2033 95.1923 35.3367 94.5688 29.8486 96.2181Z" fill="#FF7666"/>
</svg>
