<svg width="829" height="5540" viewBox="0 0 829 5540" fill="none" xmlns="http://www.w3.org/2000/svg">
<path d="M610.4 0.345673H0.260742V390.871H610.4V0.345673Z" fill="#E6E6E6"/>
<path d="M592.953 49.3272H17.7075V198.199H592.953V49.3272Z" fill="white"/>
<path d="M282.446 70.8309H160.794V77.81H282.446V70.8309Z" fill="#E6E6E6"/>
<path d="M348.651 96.2886H160.794V103.268H348.651V96.2886Z" fill="#FF7666"/>
<path d="M313.893 120.273H160.794V127.252H313.893V120.273Z" fill="#E6E6E6"/>
<path d="M250.171 144.168H160.794V151.147H250.171V144.168Z" fill="#E6E6E6"/>
<path d="M295.687 168.062H160.794V175.041H295.687V168.062Z" fill="#E6E6E6"/>
<path d="M120.244 68.3497H105.348V83.2368H120.244V68.3497Z" fill="#E6E6E6"/>
<path d="M120.244 92.3345H105.348V107.222H120.244V92.3345Z" fill="#FF7666"/>
<path d="M120.244 116.319H105.348V131.207H120.244V116.319Z" fill="#E6E6E6"/>
<path d="M120.244 140.304H105.348V155.191H120.244V140.304Z" fill="#E6E6E6"/>
<path d="M120.244 164.289H105.348V179.176H120.244V164.289Z" fill="#E6E6E6"/>
<path d="M512.508 102.259H462.854V151.883H512.508V102.259Z" fill="#E6E6E6"/>
<path d="M592.953 218.875H17.7075V367.747H592.953V218.875Z" fill="white"/>
<path d="M145.898 232.106H131.002V246.993H145.898V232.106Z" fill="#E6E6E6"/>
<path d="M120.244 232.106H105.348V246.993H120.244V232.106Z" fill="#FF7666"/>
<path d="M357.913 264.661C353.373 256.98 347.073 250.484 339.532 245.71C331.991 240.935 323.423 238.018 314.534 237.197C305.645 236.376 296.688 237.676 288.399 240.989C280.11 244.302 272.726 249.534 266.855 256.255L263.225 253.084C269.597 245.788 277.611 240.108 286.608 236.511C295.605 232.913 305.328 231.502 314.977 232.393C324.626 233.283 333.926 236.45 342.112 241.634C350.297 246.817 357.135 253.868 362.062 262.207L357.913 264.661Z" fill="#E6E6E6"/>
<path d="M360.185 327.425L356.184 324.736C362.11 315.904 365.416 305.578 365.722 294.948C366.028 284.319 363.321 273.819 357.913 264.661L362.062 262.207C367.933 272.149 370.873 283.547 370.541 295.087C370.209 306.626 366.619 317.837 360.185 327.425Z" fill="#FF7666"/>
<path d="M263.727 334.137C253.762 323.015 248.21 308.635 248.118 293.706C248.025 278.777 253.398 264.329 263.224 253.084L266.855 256.255C257.803 266.614 252.853 279.923 252.939 293.676C253.024 307.429 258.138 320.676 267.317 330.922L263.727 334.137Z" fill="#FF7666"/>
<path d="M309.342 354.516C300.733 354.509 292.222 352.691 284.363 349.18C276.504 345.669 269.473 340.543 263.727 334.137L267.318 330.922C273.05 337.322 280.169 342.328 288.132 345.559C296.096 348.789 304.692 350.158 313.266 349.561C321.839 348.965 330.163 346.418 337.601 342.115C345.039 337.813 351.396 331.868 356.184 324.736L360.185 327.425C354.588 335.766 347.022 342.601 338.154 347.326C329.286 352.051 319.391 354.52 309.342 354.516Z" fill="#FF7666"/>
<path d="M512.508 264.364H462.854V313.987H512.508V264.364Z" fill="#E6E6E6"/>
<path d="M152.933 296.619H103.279V346.243H152.933V296.619Z" fill="#E6E6E6"/>
<path d="M610.139 0H0V25.9053H610.139V0Z" fill="#FF7666"/>
<path d="M19.2623 18.0455C21.9156 18.0455 24.0665 15.8959 24.0665 13.2442C24.0665 10.5925 21.9156 8.44281 19.2623 8.44281C16.6089 8.44281 14.458 10.5925 14.458 13.2442C14.458 15.8959 16.6089 18.0455 19.2623 18.0455Z" fill="white"/>
<path d="M37.4981 18.0455C40.1514 18.0455 42.3023 15.8959 42.3023 13.2442C42.3023 10.5925 40.1514 8.44281 37.4981 8.44281C34.8448 8.44281 32.6938 10.5925 32.6938 13.2442C32.6938 15.8959 34.8448 18.0455 37.4981 18.0455Z" fill="white"/>
<path d="M55.7339 18.0455C58.3872 18.0455 60.5382 15.8959 60.5382 13.2442C60.5382 10.5925 58.3872 8.44281 55.7339 8.44281C53.0806 8.44281 50.9297 10.5925 50.9297 13.2442C50.9297 15.8959 53.0806 18.0455 55.7339 18.0455Z" fill="white"/>
<path d="M708.646 540.549H720.998L726.875 492.934L708.644 492.935L708.646 540.549Z" fill="#FFB8B8"/>
<path d="M705.496 536.519L729.821 536.518H729.822C733.933 536.518 737.876 538.15 740.784 541.056C743.691 543.961 745.324 547.902 745.324 552.01V552.514L705.496 552.515L705.496 536.519Z" fill="#2F2E41"/>
<path d="M677.883 493.802L686.998 502.134L723.489 470.961L710.036 458.665L677.883 493.802Z" fill="#FFB8B8"/>
<path d="M678.28 488.703L696.231 505.11L696.232 505.11C699.265 507.884 701.072 511.748 701.256 515.852C701.439 519.957 699.983 523.967 697.209 526.999L696.869 527.37L667.478 500.508L678.28 488.703Z" fill="#2F2E41"/>
<path d="M728.06 373.34L724.559 443.314L733.312 519.412L707.055 522.911L690.427 426.696L685.175 361.093L728.06 373.34Z" fill="#2F2E41"/>
<path d="M769.195 347.973C769.195 347.973 779.698 417.074 757.818 439.816C735.937 462.557 706.18 502.793 706.18 502.793L685.175 476.552L738.563 419.698L728.06 381.212L685.175 361.094L692.177 312.986L755.192 312.111L769.195 347.973Z" fill="#2F2E41"/>
<path d="M721.002 187.906C732.84 187.906 742.437 178.315 742.437 166.484C742.437 154.653 732.84 145.062 721.002 145.062C709.164 145.062 699.567 154.653 699.567 166.484C699.567 178.315 709.164 187.906 721.002 187.906Z" fill="#FFB8B8"/>
<path d="M738.781 196.929L742.064 201.901L750.816 226.392L743.815 321.732L702.679 322.608L697.428 213.271L708.429 199.529L738.781 196.929Z" fill="#CCCCCC"/>
<path d="M680.799 215.896L673.797 215.021C673.797 215.021 672.047 215.896 671.172 222.018C670.297 228.141 659.794 282.372 659.794 282.372L673.797 348.848L689.551 327.856L679.924 291.119L689.551 254.382L680.799 215.896Z" fill="#2F2E41"/>
<path d="M770.071 215.021H775.322L788.45 285.87L776.198 340.976L763.944 320.858L767.445 298.991L765.695 279.748L759.568 268.376L770.071 215.021Z" fill="#2F2E41"/>
<path d="M733.668 166.484L729.77 165.51C729.77 165.51 726.848 148.957 720.027 150.904C713.207 152.851 695.669 154.799 695.669 147.009C695.669 139.219 712.233 132.403 721.976 133.377C731.719 134.351 744.163 137.581 747.308 151.878C752.351 174.796 736.904 180.585 736.904 180.585L737.161 179.75C737.875 177.434 737.926 174.963 737.309 172.619C736.691 170.274 735.43 168.149 733.668 166.484Z" fill="#2F2E41"/>
<path d="M674.672 215.021L702.679 203.65L709.243 198.839L728.936 285.871L742.064 246.51L738.125 196.215L774.447 215.021L762.194 274.5L760.443 297.242L765.695 315.61C765.695 315.61 784.074 328.73 777.948 342.725C771.821 356.72 764.819 357.595 764.819 357.595C764.819 357.595 735.062 329.605 733.312 322.607C731.561 315.61 728.936 303.364 728.936 303.364C728.936 303.364 714.057 359.344 696.553 358.47C679.049 357.595 679.048 339.226 679.048 339.226L683.425 319.983L690.426 299.866L686.925 266.627L674.672 215.021Z" fill="#2F2E41"/>
<path d="M828.133 554H595.724C595.494 554 595.273 553.909 595.11 553.746C594.948 553.584 594.856 553.363 594.856 553.133C594.856 552.903 594.948 552.683 595.11 552.52C595.273 552.358 595.494 552.267 595.724 552.267H828.133C828.363 552.267 828.583 552.358 828.746 552.52C828.909 552.683 829 552.903 829 553.133C829 553.363 828.909 553.584 828.746 553.746C828.583 553.909 828.363 554 828.133 554Z" fill="#CCCCCC"/>
</svg>
