<svg width="336" height="183" viewBox="0 0 336 183" fill="none" xmlns="http://www.w3.org/2000/svg">
<g clip-path="url(#clip0_1262_1486)">
<path d="M336 171.555C336 161.566 330.922 153.469 324.658 153.469C320.721 153.469 317.253 156.669 315.219 161.526C314.532 161.241 313.796 161.094 313.052 161.092C311.156 161.092 309.403 162.061 307.973 163.702C306.14 157.647 302.253 153.469 297.753 153.469C293.547 153.469 289.877 157.124 287.919 162.549C286.831 161.632 285.461 161.118 284.037 161.092C279.23 161.092 275.333 167.306 275.333 174.971C275.313 177.527 275.779 180.062 276.704 182.445H333.712C335.148 179.415 336 175.644 336 171.555Z" fill="#52CCC3"/>
<path d="M295.338 67.1185C286.406 47.833 268.926 31.381 247.809 28.6995C242.226 27.9905 236.396 28.2749 231.216 30.4712C224.416 33.3542 219.404 39.1735 214.339 44.5416C203.615 55.9043 191.614 65.9952 178.574 74.6144C172.138 78.8673 165.235 82.8352 157.593 83.9234C142.273 86.1051 127.118 75.6772 120.131 61.8947C115.767 53.2851 113.75 43.1768 110.221 34.2217C106.158 34.2139 101.316 34.2154 96.1078 34.2394C81.7106 34.3056 69.9918 34.5179 69.9918 34.5179C69.9918 34.5179 83.9214 16.102 96.0555 22.9249C99.9333 25.1054 103.995 27.0511 107.727 28.6902C105.607 24.6191 102.932 20.956 99.2525 18.0109C91.997 12.2036 82.1702 10.5747 72.88 11.0072C63.1246 11.4613 53.2795 14.0681 45.3524 19.7614C31.2309 29.9035 25.3993 47.7554 20.4082 64.3898L32.4723 70.4262C37.6471 65.961 45.2141 61.544 52.1889 65.4658C64.323 72.2888 78.262 76.8189 78.262 76.8189C78.262 76.8189 66.6383 76.714 52.2411 76.7802C49.8231 76.7914 47.4835 76.8067 45.2593 76.8243L179.2 143.843C223.378 144.464 256.688 142.079 298.667 143.843C300.856 143.935 305.781 132.48 305.797 129.466C305.913 108.22 304.27 86.4039 295.338 67.1185ZM252.441 72.8988C238.044 72.965 226.325 73.1773 226.325 73.1773C226.325 73.1773 240.255 54.7614 252.389 61.5843C264.523 68.4073 278.462 72.9375 278.462 72.9375C278.462 72.9375 266.838 72.8325 252.441 72.8988L252.441 72.8988Z" fill="#F2F2F2"/>
<path opacity="0.3" d="M289.955 135.925C289.955 128.662 285.45 122.775 279.893 122.775C276.4 122.775 273.324 125.102 271.519 128.633C270.9 128.424 270.25 128.318 269.596 128.317C267.905 128.346 266.291 129.026 265.091 130.215C263.464 125.813 260.016 122.775 256.024 122.775C252.292 122.775 249.036 125.432 247.299 129.377C246.28 128.694 245.083 128.325 243.855 128.317C239.591 128.317 236.133 132.835 236.133 138.409C236.121 140.289 236.537 142.147 237.35 143.843H287.926C289.282 141.425 289.982 138.696 289.955 135.925Z" fill="#52CCC3"/>
<path d="M336 182.968H25.5112V182.347H335.689L336 182.968Z" fill="#2F2E41"/>
<path d="M310.489 144.464H0V143.843H310.178L310.489 144.464Z" fill="#2F2E41"/>
<path d="M131.796 87.2977C131.796 87.2977 133.751 72.9849 137.011 76.8884C140.27 80.7919 137.011 86.6471 137.011 86.6471L134.403 89.9001L131.796 87.9483V87.2977Z" fill="#FFB8B8"/>
<path d="M123.974 91.8518C123.974 91.8518 130.492 84.6953 131.796 85.9965C133.1 87.2977 137.011 87.9483 136.359 90.5506C135.707 93.1529 122.019 101.61 122.019 101.61L123.974 91.8518Z" fill="#52CCC3"/>
<path opacity="0.1" d="M123.974 91.8518C123.974 91.8518 130.492 84.6953 131.796 85.9965C133.1 87.2977 137.011 87.9483 136.359 90.5506C135.707 93.1529 122.019 101.61 122.019 101.61L123.974 91.8518Z" fill="black"/>
<path d="M86.82 91.2012V96.4058C86.82 96.4058 86.1682 108.116 90.0792 107.466C93.9901 106.815 92.0346 97.0564 92.0346 97.0564L91.3828 91.2012H86.82Z" fill="#FFB8B8"/>
<path d="M88.7755 128.935C88.7755 128.935 82.9091 138.043 80.9536 138.694C78.9981 139.344 68.5689 145.2 67.2652 151.055L58.1396 162.765L62.7024 168.621C62.7024 168.621 83.5609 146.501 89.4274 144.549C95.2938 142.597 101.16 132.839 101.16 132.839L88.7755 128.935Z" fill="#FFB8B8"/>
<path d="M135.055 113.972C135.055 113.972 147.44 115.923 145.484 123.73C143.529 131.537 124.626 147.802 124.626 147.802L123.974 151.706L116.804 153.007L113.545 149.754L114.197 147.802C114.197 147.802 122.019 140.646 122.67 138.043C123.322 135.441 130.492 125.032 133.752 124.381L129.189 121.779L135.055 113.972Z" fill="#FFB8B8"/>
<path d="M60.0949 162.766C60.0949 162.766 62.7022 158.862 58.7912 159.513C54.8803 160.163 52.2729 160.814 52.2729 163.416C52.2729 166.018 55.5321 184.235 59.4431 182.934C63.354 181.632 60.0949 175.777 60.0949 175.777C60.0949 175.777 62.0504 170.573 63.354 169.922C64.6577 169.271 64.6577 166.018 63.354 166.018C62.0504 166.018 59.4431 164.067 60.0949 162.766Z" fill="#2F2E41"/>
<path d="M115.5 148.453C115.5 148.453 115.5 145.2 112.893 148.453C110.286 151.705 108.982 154.308 111.589 156.26C114.196 158.211 123.322 162.765 123.322 162.765C123.322 162.765 133.099 164.717 131.796 160.163C131.796 160.163 125.278 156.91 125.278 154.308C125.278 151.705 125.278 147.151 123.322 148.453C121.367 149.754 115.5 150.404 115.5 148.453Z" fill="#2F2E41"/>
<path d="M103.116 99.6587C103.116 99.6587 93.9901 100.96 94.6419 113.972C94.6419 113.972 82.909 125.682 86.1681 129.586C89.4273 133.489 96.5974 140.645 99.2047 138.694C101.812 136.742 109.634 121.779 109.634 121.779C109.634 121.779 127.885 128.284 131.144 125.031C134.403 121.779 137.662 113.972 137.662 113.972L121.367 105.514L103.116 99.6587Z" fill="#2F2E41"/>
<path d="M128.537 62.5754C132.857 62.5754 136.359 59.0801 136.359 54.7684C136.359 50.4567 132.857 46.9614 128.537 46.9614C124.217 46.9614 120.715 50.4567 120.715 54.7684C120.715 59.0801 124.217 62.5754 128.537 62.5754Z" fill="#FFB8B8"/>
<path d="M122.67 55.4194C122.67 55.4194 118.107 62.5759 116.804 63.2264C115.5 63.877 125.929 70.3828 125.929 70.3828C125.929 70.3828 125.929 61.9253 129.188 59.9735L122.67 55.4194Z" fill="#FFB8B8"/>
<path d="M122.018 62.5758C122.018 62.5758 111.589 59.3228 109.634 64.5275C107.678 69.7322 103.115 79.4909 103.767 85.9968C104.419 92.5026 105.723 91.2014 103.767 93.1532C101.812 95.1049 100.508 93.8038 101.16 96.4061C101.812 99.0084 102.463 99.0084 101.812 100.31C101.16 101.611 109.634 106.165 116.804 106.815L123.974 107.466C123.974 107.466 123.974 95.7555 125.277 93.1532C126.581 90.5509 129.188 85.3462 129.188 83.3945V78.2303C129.188 74.7931 128.29 71.4154 126.581 68.431C126.581 68.431 122.67 62.5758 122.018 62.5758Z" fill="#52CCC3"/>
<path d="M114.196 65.1782C114.196 65.1782 90.0787 67.13 87.4714 73.6358C84.8641 80.1416 83.5605 93.1533 86.1678 93.1533C88.7751 93.1533 92.0342 94.4545 92.6861 93.1533C93.3379 91.8521 95.9452 78.8405 96.597 78.8405C97.2488 78.8405 116.804 76.8887 116.804 76.8887C116.804 76.8887 125.277 66.4794 114.196 65.1782Z" fill="#52CCC3"/>
<path d="M128.851 52.833C128.851 52.833 130.927 49.2327 133.521 52.3599C136.116 55.4871 140.337 49.7403 139.689 48.514C139.041 47.2878 136.753 48.5692 132.831 47.2897C128.91 46.0103 121.356 43.4038 120.091 51.9063C118.826 60.4088 121.839 59.5174 121.839 59.5174C121.839 59.5174 123.22 51.9833 124.468 54.1474L125.716 56.3115L126.799 56.5775L128.851 52.833Z" fill="#2F2E41"/>
<path d="M202.63 32.9112C207.9 32.9112 212.173 28.6467 212.173 23.3863C212.173 18.1258 207.9 13.8613 202.63 13.8613C197.359 13.8613 193.086 18.1258 193.086 23.3863C193.086 28.6467 197.359 32.9112 202.63 32.9112Z" fill="#2F2E41"/>
<path d="M199.579 30.4364C199.579 30.4364 200.073 39.3085 199.085 39.3085C198.098 39.3085 205.258 43.4981 205.258 43.4981L209.703 41.0336V38.0763C209.703 38.0763 203.777 37.3369 206.246 30.9293C208.715 24.5216 199.579 30.4364 199.579 30.4364Z" fill="#9F616A"/>
<path d="M178.837 127.783L178.097 135.177L180.566 135.916L182.541 133.944L183.282 127.783H178.837Z" fill="#9F616A"/>
<path d="M214.394 131.973L215.629 136.655L219.085 138.873L222.789 136.902L218.592 130.001L214.394 131.973Z" fill="#9F616A"/>
<path d="M201.925 34.2564C205.88 34.2564 209.085 31.0566 209.085 27.1094C209.085 23.1622 205.88 19.9624 201.925 19.9624C197.97 19.9624 194.764 23.1622 194.764 27.1094C194.764 31.0566 197.97 34.2564 201.925 34.2564Z" fill="#9F616A"/>
<path d="M197.604 53.8487L195.875 53.1094C195.875 53.1094 192.912 51.3843 192.665 47.934C192.418 44.4837 195.134 40.0477 195.134 40.0477L199.085 38.8154L203.727 42.5862L203.777 48.6733L197.604 53.8487Z" fill="#9F616A"/>
<path d="M195.875 40.5407L194.887 40.0478C194.887 40.0478 189.949 39.8014 189.455 45.7162C188.961 51.6309 187.233 61.4888 187.233 61.4888C187.233 61.4888 183.282 68.3894 183.529 75.7828L181.554 82.1904C181.554 82.1904 178.838 91.5555 182.047 91.5555C185.257 91.5555 185.01 81.4511 185.01 81.4511C185.01 81.4511 190.937 67.1571 191.43 64.6926C191.924 62.2282 196.122 50.6451 194.887 47.4413C193.653 44.2375 195.875 40.5407 195.875 40.5407Z" fill="#9F616A"/>
<path d="M199.579 56.0669V58.7778C199.579 58.7778 201.307 60.7494 200.566 61.9817C199.826 63.2139 199.085 65.6784 199.085 65.6784L202.542 71.1002L214.147 72.086L216.455 56.6535L199.579 56.0669Z" fill="#9F616A"/>
<path d="M210.443 38.8157L212.419 37.8299C212.419 37.8299 216.616 34.8725 220.073 34.3796L230.691 27.2326L237.604 10.7206C237.604 10.7206 237.358 1.84848 239.333 2.83427C241.308 3.82006 241.061 11.46 241.061 11.46C241.061 11.46 237.358 26.7397 234.148 30.9293C230.938 35.119 219.332 42.0195 219.332 42.0195C219.332 42.0195 216.123 45.7162 216.369 47.4414C216.616 49.1665 210.443 38.8157 210.443 38.8157Z" fill="#9F616A"/>
<path d="M201.308 65.6784C201.308 65.6784 198.591 63.9533 196.863 66.9107C195.135 69.868 191.925 70.6074 189.949 79.4795C187.974 88.3516 183.282 102.399 182.048 103.385C180.813 104.371 175.628 114.722 178.591 129.262H183.529L187.727 108.314C187.727 108.314 201.308 91.5554 202.295 84.6549L206.74 110.532C206.74 110.532 206.987 120.39 210.69 125.072L214.641 134.437L219.826 131.973L213.9 108.314C213.9 108.314 216.863 84.4084 214.888 77.7544L214.604 69.0307C214.604 69.0307 206.493 69.3751 201.308 65.6784Z" fill="#2F2E41"/>
<path d="M180.566 133.945H177.603C177.109 133.945 173.158 137.148 174.887 138.874C176.615 140.599 179.331 143.803 179.331 143.803C179.331 143.803 188.961 145.025 189.208 143.3C189.455 141.575 185.01 137.888 185.01 137.888L183.776 133.945C183.776 133.945 181.307 131.234 180.566 133.945Z" fill="#2F2E41"/>
<path d="M219.826 136.409C219.826 136.409 215.629 136.163 214.888 135.916C214.147 135.67 212.666 142.324 214.888 142.817C217.11 143.31 226.246 144.049 226.246 144.049C226.246 144.049 233.407 143.803 232.913 141.831C232.419 139.859 222.789 135.916 222.789 135.916C222.789 135.916 221.555 133.452 219.826 136.409Z" fill="#2F2E41"/>
<path d="M200.32 38.569L199.085 37.8297L197.603 39.0619C197.603 39.0619 202.048 42.0193 201.06 44.7302C200.073 47.4411 195.875 53.1094 195.875 53.1094C195.875 53.1094 199.579 57.299 199.579 58.7777C199.579 58.7777 209.209 55.3275 216.369 58.7777C216.369 58.7777 216.369 53.8488 217.357 52.863C218.345 51.8772 218.839 48.4269 216.369 45.4696C214.63 43.2934 213.061 40.9864 211.678 38.569L209.209 37.0903L207.937 37.493C207.937 37.493 210.443 40.2942 207.974 40.5406C205.505 40.7871 201.554 40.0477 200.32 38.569Z" fill="#52CCC3"/>
<path d="M209.604 7.14697C208.765 8.08159 207.616 8.68229 206.369 8.83855C204.212 9.14611 205.906 12.5293 205.906 12.5293C205.906 12.5293 205.29 11.299 206.523 10.2226C207.755 9.14611 209.604 8.53099 209.604 7.14697Z" fill="#2F2E41"/>
<path d="M205.445 15.891C206.914 15.891 208.105 14.7025 208.105 13.2365C208.105 11.7705 206.914 10.582 205.445 10.582C203.976 10.582 202.786 11.7705 202.786 13.2365C202.786 14.7025 203.976 15.891 205.445 15.891Z" fill="#2F2E41"/>
<path d="M208.55 15.8507C206.496 14.7796 202.961 13.9371 201.083 13.9973L201.558 12.1846C203.221 13.3119 206.737 14.1701 209.025 14.038L208.55 15.8507Z" fill="#52CCC3"/>
<path d="M204.305 16.0103C204.305 16.0103 201.068 20.1651 194.592 21.0884C188.117 22.0116 193.205 32.1678 193.205 32.1678C193.205 32.1678 191.355 28.4747 195.055 25.2432C198.755 22.0116 204.305 20.1651 204.305 16.0103Z" fill="#2F2E41"/>
<path d="M204.552 15.7637C204.552 15.7637 206.402 22.2267 209.178 23.15C211.953 24.0733 210.565 33.7678 205.94 34.6911C205.94 34.6911 209.871 29.3822 207.559 25.2274C205.246 21.0726 203.858 17.8411 204.552 15.7637Z" fill="#2F2E41"/>
<path d="M248.099 4.9292H231.061V6.90078H248.099V4.9292Z" fill="#2F2E41"/>
<path d="M248.099 11.8295C248.917 11.8295 249.58 9.18138 249.58 5.91475C249.58 2.64812 248.917 0 248.099 0C247.28 0 246.617 2.64812 246.617 5.91475C246.617 9.18138 247.28 11.8295 248.099 11.8295Z" fill="#2F2E41"/>
<path d="M231.061 11.8295C231.879 11.8295 232.543 9.18138 232.543 5.91475C232.543 2.64812 231.879 0 231.061 0C230.243 0 229.58 2.64812 229.58 5.91475C229.58 9.18138 230.243 11.8295 231.061 11.8295Z" fill="#2F2E41"/>
<path d="M256.741 137.523H239.703V139.495H256.741V137.523Z" fill="#2F2E41"/>
<path d="M256.741 144.423C257.559 144.423 258.222 141.775 258.222 138.508C258.222 135.242 257.559 132.594 256.741 132.594C255.923 132.594 255.259 135.242 255.259 138.508C255.259 141.775 255.923 144.423 256.741 144.423Z" fill="#2F2E41"/>
<path d="M239.703 144.423C240.521 144.423 241.185 141.775 241.185 138.508C241.185 135.242 240.521 132.594 239.703 132.594C238.885 132.594 238.222 135.242 238.222 138.508C238.222 141.775 238.885 144.423 239.703 144.423Z" fill="#2F2E41"/>
<path opacity="0.3" d="M60.3557 135.925C60.3557 128.662 55.8506 122.775 50.2933 122.775C46.8004 122.775 43.7241 125.102 41.9198 128.633C41.3003 128.424 40.6508 128.318 39.9969 128.317C38.3058 128.346 36.6913 129.026 35.4912 130.215C33.8648 125.813 30.4161 122.775 26.4243 122.775C22.692 122.775 19.4368 125.432 17.6997 129.377C16.6807 128.694 15.483 128.325 14.2558 128.317C9.99089 128.317 6.53348 132.835 6.53348 138.409C6.52099 140.289 6.93703 142.147 7.75011 143.843H58.3264C59.6826 141.425 60.3821 138.696 60.3557 135.925Z" fill="#52CCC3"/>
</g>
<defs>
<clipPath id="clip0_1262_1486">
<rect width="336" height="183" fill="white"/>
</clipPath>
</defs>
</svg>
