<svg width="324" height="500" viewBox="0 0 324 500" fill="none" xmlns="http://www.w3.org/2000/svg">
<path d="M53.0434 413.17C53.0434 413.17 49.1813 444.562 49.1813 452.147C49.1813 459.733 46.7294 490.076 46.7294 490.076C46.7294 490.076 40.0472 497.905 38.9348 490.076C37.8225 482.248 39.6399 460.179 38.9348 450.261C38.2298 440.342 31.8062 410.641 31.8062 410.641L53.0434 413.17Z" fill="#FAC4BE"/>
<path d="M31.8065 415.283C31.8065 415.283 30.2398 443.309 28.673 447.309C27.1063 451.31 12.888 483.829 12.888 483.829C12.888 483.829 6.84039 490.092 5.728 485.45C4.61561 480.807 15.5358 451.106 15.5358 446.041C15.5358 440.976 12.6374 411.486 12.6374 411.486L31.8065 415.283Z" fill="#FAC4BE"/>
<path d="M13.7185 483.085L6.66814 478.686C6.66814 478.686 2.68076 480.611 1.46653 482.263C0.581315 483.437 6.26862 491.336 9.16711 495.493C10.3735 497.215 20.1343 496.433 20.1343 496.433C20.1343 496.433 20.432 496.667 21.8734 495.117C23.3148 493.567 15.4968 492.581 14.6272 488.307C14.0632 485.598 13.7185 483.085 13.7185 483.085Z" fill="#28264A"/>
<path d="M46.7138 487.148L38.3865 488.534C38.3865 488.534 36.577 492.448 37.3212 494.17C37.846 495.415 48.3276 496.965 54.3831 497.763C56.8664 498.1 60.2349 496.198 60.2349 496.198C60.2349 496.198 60.6735 496.198 60.1565 494.358C59.6395 492.518 54.7747 490.585 51.1947 490.146C47.6147 489.708 46.7138 487.148 46.7138 487.148Z" fill="#28264A"/>
<path d="M91.5776 250.338C85.1696 252.6 84.3235 256.851 84.3235 256.851C84.3235 256.851 82.5139 252.35 81.19 252.53C79.6233 252.749 80.2656 255.066 81.8402 258.793C82.0361 259.278 79.827 266.308 79.9445 266.394C82.0752 267.889 85.0521 266.707 86.7755 268.883C88.8514 265.423 86.2898 263.09 93.0425 260.202C96.3092 258.793 96.3562 256.092 95.7843 254.471C95.418 253.523 94.8533 252.663 94.1278 251.95C93.4023 251.238 92.5328 250.688 91.5776 250.338Z" fill="#5CC4BE"/>
<path d="M79.9606 264.797C79.9606 264.797 89.5256 261.956 87.5045 269.706C85.4834 277.456 75.3543 298.671 75.3543 298.671C75.3543 298.671 39.515 325.389 26.84 318.32C10.3892 309.145 24.3489 298.694 36.6557 297.301C48.9625 295.907 64.1521 294.749 69.8237 286.028C75.4953 277.307 79.9606 264.797 79.9606 264.797Z" fill="#5CC4BE"/>
<path d="M154.905 0C104.589 57.9305 48.4607 59.3161 46.0166 59.3631H21.7163C19.579 59.3672 17.5302 60.217 16.0182 61.7266C14.5061 63.2361 13.6538 65.2827 13.6476 67.4186V76.3352C11.3523 129.475 17.4861 176.109 32.4015 219.071C45.6484 257.204 64.8567 286.498 91.1545 308.597C109.303 323.862 130.585 334.958 153.495 341.101C153.947 341.231 154.412 341.307 154.882 341.328C155.343 341.309 155.8 341.238 156.245 341.117C179.166 334.971 200.458 323.873 218.617 308.605C244.923 286.498 264.139 257.204 277.37 219.071C292.254 176.109 298.419 129.475 296.124 76.523V67.4186C296.12 65.2834 295.269 63.2368 293.759 61.727C292.248 60.2173 290.2 59.3672 288.063 59.3631H263.779C261.358 59.3239 205.221 57.8913 154.905 0Z" fill="#5CC4BE"/>
<g style="mix-blend-mode:screen" opacity="0.3">
<path d="M283.465 59.3631C270.429 151.582 191.129 222.492 95.2672 222.492C72.8949 222.519 50.6941 218.592 29.691 210.89C16.7497 170.183 11.4933 126.124 13.6632 76.3352V67.4185C13.6632 65.2835 14.5114 63.2357 16.0214 61.7252C17.5315 60.2148 19.5798 59.3651 21.7163 59.3631H46.04C48.4607 59.3239 104.582 57.8835 154.929 0C205.237 57.8835 261.358 59.3239 263.818 59.3631H283.465Z" fill="#6375B8"/>
</g>
<path d="M231.034 160.381C230.987 151.527 226.208 146.173 217.528 145.273C209.694 144.49 208.911 139.182 208.958 135.252C209.091 128.293 209.091 120.785 208.958 112.252C208.653 90.9901 192.327 74.84 170.972 74.6756C160.052 74.6208 149.085 74.6365 138.172 74.84C119.317 75.1766 104.292 88.1483 101.652 106.342C100.633 113.207 100.688 120.198 100.774 127.588C100.774 130.461 100.813 133.326 100.774 136.199C100.735 138.47 100.633 144.513 92.9405 145.39C83.023 146.517 78.7614 151.387 78.7301 161.657C78.6779 187.841 78.6779 214.035 78.7301 240.239C78.7849 251.669 84.2137 257.016 95.8546 257.016H119.505H159.112V257.157L191.23 257.204C199.244 257.204 207.305 257.204 215.343 257.133C225.276 257.133 231.01 251.34 231.01 241.367C231.151 214.21 231.151 186.928 231.034 160.381ZM171.615 186.771C171.419 188.822 170.805 190.81 169.811 192.614C168.817 194.419 167.463 196 165.833 197.261C159.833 202.005 159.23 207.438 159.425 212.073C159.598 215.501 159.543 219.056 159.512 222.469C159.512 224.034 159.512 225.6 159.512 227.119C159.512 228.865 159.512 230.689 159.386 231.675C158.384 231.824 156.472 231.894 154.6 231.98C153.182 232.043 151.975 232.09 150.996 232.09C150.597 232.09 150.276 232.09 150.056 232.09C149.947 231.025 149.947 229.217 149.947 227.393L149.9 224.512C149.9 222.265 149.9 220.011 149.947 217.787C150.135 211 150.37 202.6 141.807 195.241C140.428 194.058 139.327 192.585 138.583 190.927C137.84 189.27 137.472 187.468 137.507 185.652C137.527 183.123 138.087 180.629 139.149 178.334C140.211 176.039 141.75 173.997 143.664 172.343C145.311 170.88 147.233 169.758 149.318 169.044C151.403 168.329 153.61 168.036 155.809 168.182C158.008 168.328 160.157 168.909 162.129 169.892C164.102 170.875 165.859 172.241 167.298 173.909C168.849 175.651 170.031 177.688 170.773 179.899C171.515 182.109 171.801 184.447 171.615 186.771ZM181.634 136.873C177.78 136.786 173.894 136.763 170.001 136.763L154.788 136.802L150.871 137.013L139.199 136.974C135.423 136.974 131.616 136.974 127.605 137.092H126.931C126.931 136.818 126.876 136.442 126.876 135.949C126.986 132.121 126.962 128.347 126.931 124.566C126.931 120.652 126.876 116.738 127.002 112.824C127.174 106.013 131.749 101.316 138.36 101.151C149.328 100.885 160.522 100.964 171.576 101.441C177.764 101.692 182.081 106.138 182.331 112.479C182.496 116.8 182.457 121.263 182.433 125.56C182.433 129.091 182.37 132.606 182.433 136.137V136.826C182.222 136.826 181.979 136.826 181.65 136.826L181.634 136.873Z" fill="white"/>
<g style="mix-blend-mode:screen" opacity="0.3">
<path d="M283.465 59.3631C270.429 151.582 191.129 222.492 95.2672 222.492C72.8949 222.519 50.6941 218.592 29.691 210.89C16.7497 170.183 11.4933 126.124 13.6632 76.3352V67.4185C13.6632 65.2835 14.5114 63.2357 16.0214 61.7252C17.5315 60.2148 19.5798 59.3651 21.7163 59.3631H46.04C48.4607 59.3239 104.582 57.8835 154.929 0C205.237 57.8835 261.358 59.3239 263.818 59.3631H283.465Z" fill="#A9B5DC"/>
</g>
<path d="M258.365 300.009C258.365 300.009 235.115 315.666 228.159 319.886C219.056 325.366 203.208 327.62 201.751 326.407C198.226 323.432 195.907 321.96 195.139 323.589C194.497 324.966 198.798 328.466 198.798 328.466C198.798 328.466 191.411 330.407 186.773 336.639C186.834 337.792 187.139 338.919 187.67 339.945C188.201 340.971 188.945 341.872 189.852 342.588C191.418 343.755 193.722 343.88 197.043 341.531C209.021 333.03 218.977 335.002 229.992 331.08C237.308 328.473 263.802 311.564 263.802 311.564L258.365 300.009Z" fill="#FAC4BE"/>
<path d="M263.097 280.712C263.097 280.712 247.336 301.419 244.297 306.601C241.633 311.173 245.08 318.853 249.584 321.647C253.133 323.831 269.263 309.701 269.263 309.701C269.263 309.701 279.392 304.934 274.597 292.815C269.294 279.303 263.097 280.712 263.097 280.712Z" fill="#4EB2AB"/>
<path d="M310.444 473.715L314.408 478.412C315.379 479.563 316.633 480.847 318.435 480.886C318.958 480.848 319.484 480.874 320.001 480.964C321.106 481.293 321.082 482.451 320.855 483.312C319.719 487.798 318.372 492.597 314.048 495.76C313.673 496.087 313.237 496.335 312.765 496.491C312.292 496.647 311.794 496.707 311.298 496.668C310.272 496.496 309.731 495.227 310.734 494.93C310.546 494.849 310.34 494.819 310.137 494.842C309.933 494.866 309.739 494.942 309.575 495.063C308.509 494.562 308.595 493.38 308.924 492.464C309.598 490.789 310.726 489.246 311.416 487.579C312.105 485.912 312.309 484.009 311.173 482.49C310.233 481.277 308.58 480.486 307.311 479.437C306.042 478.388 305.297 476.713 306.441 475.601C307.585 474.49 309.755 474.639 311.557 474.881" fill="#FAC4BE"/>
<path d="M311.26 483.681L315.122 479.195C315.122 479.195 321.929 481.16 323.112 482.843C323.95 484.041 318.474 492.096 315.662 496.339C314.511 498.085 305.071 497.294 305.071 497.294C305.071 497.294 304.781 497.529 303.394 495.948C302.008 494.366 309.544 493.364 310.39 489.004C310.915 486.248 311.26 483.681 311.26 483.681Z" fill="#28264A"/>
<path d="M262.831 478.78V484.354C262.831 485.716 262.979 487.305 264.46 488.088C264.921 488.25 265.354 488.483 265.745 488.777C266.426 489.505 265.58 490.475 264.765 491.125C260.621 494.437 256.101 497.928 250.195 498.836C249.176 498.993 247.97 499.032 247.226 498.468C247.061 498.333 246.946 498.147 246.899 497.939C246.851 497.731 246.874 497.514 246.964 497.32C247.053 497.127 247.205 496.969 247.394 496.871C247.583 496.772 247.799 496.74 248.009 496.777C247.883 496.622 247.715 496.505 247.525 496.44C247.335 496.375 247.131 496.364 246.936 496.409C246.38 495.564 247.288 494.593 248.236 493.967C249.96 492.816 252.028 491.979 253.775 490.836C255.522 489.693 257.073 488.19 257.182 486.444C257.269 485.027 256.399 483.688 256.125 482.295C255.911 481.558 255.998 480.766 256.366 480.093C256.735 479.42 257.355 478.919 258.091 478.702C259.83 478.24 261.569 479.249 262.909 480.181" fill="#FAC4BE"/>
<path d="M275.867 418.508C277.167 423.479 277.81 428.537 279.102 433.5C282.063 444.812 288.369 455.419 294.644 465.886C297.284 470.317 300.089 474.865 304.789 478.145C306.614 479.39 309.489 480.384 311.299 479.1C311.735 478.733 312.062 478.254 312.246 477.715C312.429 477.175 312.462 476.596 312.341 476.04C311.753 471.413 307.468 467.655 304.946 463.436C301.499 457.721 301.326 451.192 301.138 444.874C300.645 427.699 304.664 411.51 303.23 394.358C302.791 389.12 305.22 379.029 302.118 374.372C299.015 369.714 295.498 368.594 288.8 369.22C281.514 370.245 274.284 371.64 267.14 373.401C260.661 375.327 255.899 375.976 249.498 373.894C247.775 392.22 246.984 409.905 248.856 428.192C249.279 432.396 249.726 436.584 250.149 440.788C251.376 452.713 252.603 464.634 253.83 476.548C254.152 479.625 255.53 483.594 259.518 483.719C263.231 483.86 265.244 480.423 265.949 477.59C268.95 465.479 266.733 453.04 265.785 440.741C264.837 428.443 266.02 422.837 272.835 404.683L275.867 418.508Z" fill="#28264A"/>
<path d="M255.921 486.671L264.053 485.755C264.053 485.755 266.849 489.09 266.661 490.984C266.536 492.331 257.261 496.707 251.895 499.142C249.678 500.136 246.019 499.142 246.019 499.142C246.019 499.142 245.596 499.228 245.565 497.325C245.534 495.423 249.482 492.159 252.615 490.765C253.491 490.454 254.264 489.907 254.847 489.185C255.431 488.462 255.803 487.592 255.921 486.671Z" fill="#28264A"/>
<path d="M297.166 289.73L292.646 283.468C292.646 283.468 276.877 273.22 264.554 283.178C260.994 286 258.197 289.667 256.418 293.846C254.64 298.024 253.936 302.582 254.37 307.102L244.696 378.411C244.696 378.411 282.971 391.093 292.207 374.544C301.443 357.994 292.427 327.706 292.427 327.706L297.166 289.73Z" fill="white"/>
<path d="M286.372 279.843C286.372 279.843 271.488 338.244 284.852 383.03L311.236 376.157L304.358 312.746C304.358 312.746 312.936 277.236 286.372 279.843Z" fill="#5CC4BE"/>
<path d="M266.089 280.869C266.089 280.869 246.771 358.95 248.495 377.864C248.495 377.864 242.33 394.538 239.094 381.222C235.859 367.906 246.756 318.226 246.756 318.226C246.756 318.226 245.079 294.608 266.089 280.869Z" fill="#5CC4BE"/>
<path d="M268.839 283.562C268.839 286.247 272.216 288.431 276.375 288.431C280.535 288.431 283.904 286.247 283.904 283.562C283.904 280.877 280.535 278.685 276.375 278.685C272.216 278.685 268.839 280.869 268.839 283.562Z" fill="#909FD0"/>
<path d="M263.019 264.202C263.019 264.202 257.997 269.228 259.932 270.097C261.867 270.966 262.282 269.612 262.282 269.612L263.019 264.202Z" fill="#D99F9B"/>
<path d="M279.196 272.821C279.196 272.821 282.11 281.495 286.826 276.336C291.542 271.177 300.739 261.297 294.605 255.818C288.471 250.338 290.688 249.375 283.536 243.785C276.383 238.196 278.835 231.041 268.652 238.485C258.468 245.93 252.757 248.662 253.18 243.644C253.603 238.626 247.015 241.781 248.018 249.124C249.02 256.467 264.359 264.742 264.359 264.742L279.196 272.821Z" fill="#28264A"/>
<path d="M281.467 275.656C281.467 275.656 286.614 285.535 277.143 286.216C273.602 286.467 270.508 284.462 270.398 279.304C258.115 281.582 260.998 269.127 260.998 269.127C260.998 269.127 262.306 257.29 270.915 259.216C279.525 261.142 277.409 262.551 277.182 264.594C277.096 265.236 278.475 268.132 279.76 264.265C281.044 260.398 283.191 264.375 282.454 268.884C281.718 273.393 281.467 275.656 281.467 275.656Z" fill="#FAC4BE"/>
<path d="M270.399 279.303C270.399 279.303 276.376 279.17 277.723 277.432C277.723 277.432 273.023 283.898 271.738 283.797C271.738 283.797 270.32 283.014 270.399 279.303Z" fill="#D99F9B"/>
<path d="M286.105 307.994C286.105 307.994 270.438 331.221 265.558 337.742C259.189 346.26 245.331 354.26 243.529 353.681C239.15 352.24 236.479 351.755 236.338 353.548C236.259 355.067 241.563 356.679 241.563 356.679C241.563 356.679 235.445 361.267 233.502 368.782C233.992 369.826 234.699 370.754 235.575 371.505C236.452 372.255 237.478 372.811 238.586 373.135C240.49 373.628 242.667 372.892 244.853 369.471C252.765 357.102 262.753 355.192 271.488 347.426C277.292 342.275 295.506 316.668 295.506 316.668L286.105 307.994Z" fill="#FAC4BE"/>
<path d="M289.598 280.352C289.598 280.352 282.76 305.45 281.921 311.376C281.138 316.621 287.248 322.446 292.466 323.346C296.578 324.051 306.222 304.902 306.222 304.902C306.222 304.902 313.828 296.69 304.843 287.249C294.823 276.728 289.598 280.352 289.598 280.352Z" fill="#4EB2AB"/>
<path d="M29.5812 256.687C29.5812 256.687 16.8749 254.965 14.9243 274.99C12.9737 295.015 10.4355 302.53 10.4355 302.53C10.4355 302.53 44.6455 315.479 49.0715 306.773C52.1189 300.777 40.6581 289.426 40.8931 281.135C41.1281 272.845 48.1315 256.468 29.5812 256.687Z" fill="#28264A"/>
<path d="M21.6065 305.364C21.6065 305.364 27.2155 302.781 27.2155 301.059V292.447H36.4906C36.4906 292.447 35.6054 301.708 40.0315 304.08C44.4575 306.452 42.7419 321.741 42.7419 321.741H21.5908L21.6065 305.364Z" fill="#FAC4BE"/>
<path d="M24.5681 298.992C26.0643 298.475 37.1725 300.871 38.8333 301.082C43.4709 301.661 54.2579 320.301 56.0048 328.889C57.0076 333.766 47.5444 342.831 50.623 349.07C52.9732 353.83 58.7231 360.813 58.4176 369.487C58.0024 381.23 49.1033 391.79 58.0729 402.946C69.3222 416.935 65.1233 423.73 31.3677 420.638C-2.38784 417.546 -4.0721 420.638 4.09066 399.853C21.6069 355.239 3.82432 306.116 24.5681 298.992Z" fill="#5CC4BE"/>
<path d="M44.144 281.127C44.144 282.912 45.5854 285.237 45.1624 286.842C45.0606 287.186 43.2901 286.912 43.1883 287.241C42.6008 289.018 42.8593 292.502 41.8409 293.88C39.5378 297.011 35.1744 297.074 31.5396 297.074C24.5675 297.074 18.9272 289.934 18.9272 281.127C18.9272 272.32 24.5675 265.196 31.5396 265.196C38.5116 265.196 44.144 272.328 44.144 281.127Z" fill="#FAC4BE"/>
<path d="M36.4127 296.737L30.6235 296.346L37.3841 300.784L36.4127 296.737Z" fill="#D99F9B"/>
<path d="M21.8031 265.251C21.8031 265.251 22.2575 265.666 23.08 266.3C20.9727 268.954 19.0456 273.542 17.7766 277.002C14.3376 281.386 13.0763 285.613 9.80967 295.305C5.41495 308.315 11.9091 310.476 14.0007 311.877C16.0923 313.279 32.6763 307.337 28.4853 303.329C26.9186 301.841 28.0231 296.103 28.0153 290.075C31.8851 284.595 29.7935 276.931 32.7155 272.516C32.8644 272.289 32.9819 272.093 33.0994 271.882C37.0556 273.407 41.3485 273.845 45.5315 273.15C45.5315 273.15 44.5993 250.518 21.8031 265.251Z" fill="#28264A"/>
<path d="M102.004 273.182C95.283 274.176 93.6379 278.184 93.6379 278.184C93.6379 278.184 92.7213 273.424 91.3896 273.346C89.8229 273.26 89.9952 275.695 90.8256 279.609C90.9353 280.125 87.4179 286.6 87.5197 286.701C89.3215 288.58 92.4707 287.993 93.7397 290.459C96.4424 287.453 94.3743 284.682 101.526 283.124C105.005 282.341 105.561 279.726 105.318 278.027C105.142 277.031 104.755 276.083 104.184 275.248C103.612 274.412 102.869 273.708 102.004 273.182Z" fill="#FAC4BE"/>
<path d="M87.794 285.151C87.794 285.151 97.7194 284.196 94.2568 291.414C90.7943 298.632 76.8268 317.53 76.8268 317.53C76.8268 317.53 36.5379 336.897 25.4532 327.534C11.0783 315.385 26.7614 307.791 39.1074 308.746C51.4533 309.701 66.5803 311.494 73.8186 304.049C81.057 296.604 87.794 285.151 87.794 285.151Z" fill="#4EB2AB"/>
</svg>
