<svg width="337" height="222" viewBox="0 0 337 222" fill="none" xmlns="http://www.w3.org/2000/svg">
<g clip-path="url(#clip0_4171_1843)">
<path opacity="0.3" d="M198.198 159.189C198.198 159.189 204.437 140.957 217.612 132.066C230.787 123.175 241.973 122.69 241.482 127.023C240.991 131.356 222.218 134.413 213.322 142.533C207.79 147.621 202.729 153.195 198.198 159.189Z" fill="#C5E7E4"/>
<path opacity="0.3" d="M199.506 164.823C199.506 164.823 205.194 151.964 215.332 146.311C225.47 140.657 233.634 141.037 233.002 144.154C232.371 147.271 218.534 148.307 211.553 153.66C207.21 157.012 203.178 160.748 199.506 164.823Z" fill="#C5E7E4"/>
<path opacity="0.3" d="M136.266 123.536C136.266 123.536 129.335 105.364 115.719 96.8582C102.103 88.3527 90.8124 88.2576 91.4639 92.6105C92.1154 96.9633 111.169 99.3999 120.425 107.26C126.183 112.201 131.485 117.648 136.266 123.536Z" fill="#C5E7E4"/>
<path opacity="0.3" d="M135.149 129.264C135.149 129.264 128.955 116.496 118.531 111.173C108.107 105.849 99.8883 106.495 100.635 109.617C101.382 112.739 115.374 113.299 122.6 118.437C127.099 121.664 131.299 125.288 135.149 129.264Z" fill="#C5E7E4"/>
<path d="M75.2918 122.36C78.6745 112.744 95.0369 117.027 95.0369 117.027C95.0369 117.027 105.035 135.038 108.282 135.679C111.53 136.319 102.745 118.623 102.745 118.623C109.139 118.478 124.74 127.434 124.74 127.434C124.74 127.434 122.234 147.392 125.547 147.226C128.859 147.061 126.86 129.42 126.86 129.42C132.873 131.711 138.07 139.286 138.07 139.286C144.38 151.489 128.388 158.939 128.388 158.939C128.388 158.939 127.672 165.874 131.395 174.164C132.077 175.482 132.634 176.86 133.059 178.282L131.385 178.162C131.28 177.701 131.159 177.256 131.024 176.831V176.801C130.929 176.536 130.794 176.155 130.618 175.695C130.182 174.654 129.887 173.894 129.711 173.343C128.413 170.091 126.504 165.839 125.096 164.873C125.267 164.646 125.407 164.397 125.512 164.132C125.376 164.368 125.241 164.633 125.096 164.873C121.773 170.797 107.365 170.762 99.5021 168.54C91.6392 166.319 95.2825 164.328 99.8529 160.99C104.423 157.653 113.359 159.284 116.125 158.048C118.891 156.813 115.123 155.097 109.756 155.112C104.388 155.127 101.321 160.245 92.6615 160.44C84.0017 160.635 78.6294 143.994 78.6294 143.994C84.4327 146.271 95.3226 143.779 95.8789 141.768C96.4351 139.757 80.6591 138.796 78.2436 138.005C75.828 137.215 71.9041 131.976 75.2918 122.36Z" fill="#C5E7E4"/>
<path opacity="0.5" d="M136.823 216.136C136.826 218.082 137.051 220.021 137.494 221.915L107.165 221.95C107.892 221.31 108.764 220.619 109.671 219.859C113.825 216.391 122.465 217.387 125.031 216.036C127.597 214.685 123.878 213.279 118.761 213.63C113.645 213.98 111.054 219.058 102.79 219.774C94.526 220.489 88.3719 204.939 88.3719 204.939C94.0549 206.75 104.303 203.698 104.709 201.737C105.115 199.776 89.9856 199.851 87.6352 199.235C85.2849 198.62 81.1905 193.882 83.8265 184.486C86.4626 175.089 102.369 178.166 102.369 178.166C102.369 178.166 113.038 194.737 116.18 195.178C119.323 195.618 109.831 179.232 109.831 179.232C115.925 178.692 131.38 186.277 131.38 186.277C131.38 186.277 130.238 205.499 133.385 205.134C136.532 204.769 133.525 188.063 133.525 188.063C139.409 189.879 144.851 196.794 144.851 196.794C151.646 208.016 136.823 216.136 136.823 216.136Z" fill="#C5E7E4"/>
<path opacity="0.6" d="M262.54 186.322C259.353 187.532 238.239 189.744 239.111 192.411C239.983 195.077 254.732 197.774 262.385 194.377C262.385 194.377 256.175 217.002 244.549 217.267C232.922 217.532 228.512 210.843 221.341 211.138C214.169 211.433 209.183 213.975 212.967 215.476C216.75 216.977 228.647 214.26 234.972 218.478C235.904 219.093 236.801 219.673 237.628 220.224C238.129 220.554 238.6 220.874 239.036 221.184H196.75C196.75 220.844 196.75 220.524 196.75 220.224C196.741 219.289 196.679 218.355 196.564 217.427C196.564 217.427 174.674 208.371 182.412 191.66C182.412 191.66 188.927 181.193 196.865 177.761C196.865 177.761 195.236 201.512 199.681 201.542C204.126 201.572 199.586 174.944 199.586 174.944C199.586 174.944 219.983 162.011 228.567 161.831C228.567 161.831 217.838 186.096 222.153 185.031C226.467 183.965 238.806 159.234 238.806 159.234C238.806 159.234 260.495 152.52 265.607 165.238C270.719 177.956 265.727 185.116 262.54 186.322Z" fill="#C5E7E4"/>
<path opacity="0.3" d="M238.179 83.0494C235.789 74.2136 220.85 76.9654 220.85 76.9654C220.85 76.9654 210.701 92.4205 207.775 92.7858C204.848 93.151 213.844 77.886 213.844 77.886C208.131 77.3307 193.557 84.3152 193.557 84.3152C193.557 84.3152 194.469 102.357 191.518 101.987C188.566 101.617 191.518 85.9763 191.518 85.9763C186.005 87.6274 180.818 94.0666 180.818 94.0666C174.358 104.573 188.185 112.299 188.185 112.299C188.185 112.299 188.365 118.558 184.487 125.732C183.789 126.868 183.199 128.065 182.723 129.31H184.226C184.351 128.904 184.487 128.514 184.637 128.139C184.737 127.909 184.887 127.578 185.073 127.173C185.534 126.278 185.845 125.612 186.045 125.132C187.428 122.305 189.418 118.628 190.746 117.852C190.61 117.637 190.502 117.405 190.425 117.162L190.746 117.852C193.322 123.356 206.231 124.306 213.423 122.855C220.614 121.404 217.482 119.353 213.613 116.071C209.744 112.789 201.626 113.644 199.23 112.354C196.835 111.063 200.338 109.777 205.134 110.147C209.93 110.517 212.32 115.31 220.063 116.051C227.806 116.791 233.719 102.252 233.719 102.252C228.367 103.903 218.785 100.951 218.414 99.1099C218.043 97.2687 232.246 97.4638 234.451 96.9135C236.656 96.3631 240.57 91.8952 238.179 83.0494Z" fill="#C5E7E4"/>
<path d="M131.45 99.195C130.879 98.0942 143.939 94.1266 144.144 105.004C144.144 105.004 168.605 104.403 156.923 90.7895C152.879 86.0764 153.295 82.1838 153.415 78.5565C153.536 74.9291 150.91 64.3872 141.844 65.4479C141.844 65.4479 139.468 64.4873 136.512 66.0183C129.786 69.5056 114.712 103.208 131.45 99.195Z" fill="#141F2D"/>
<path d="M171.442 111.353C171.442 111.353 173.031 108.936 174.313 108.886C175.596 108.836 177.977 108.176 177.786 108.651C177.596 109.126 176.123 109.151 175.977 109.457C175.832 109.762 178.167 110.167 178.829 110.217C179.49 110.267 181.064 110.217 181.019 110.547C180.974 110.878 178.192 112.258 176.228 112.048C174.745 111.992 173.263 112.183 171.843 112.614L171.442 111.353Z" fill="#F47859"/>
<path d="M148.414 112.138C149.111 113.436 149.926 114.667 150.85 115.816C152.744 118.177 155.661 120.914 159.319 121.455C161.041 121.665 162.788 121.383 164.355 120.639C168.806 118.668 172.148 114.135 172.148 114.135C172.383 113.546 172.461 112.905 172.373 112.277C172.285 111.649 172.035 111.055 171.647 110.552C171.647 110.552 162.667 112.554 161.81 112.143C160.953 111.733 155.966 97.3638 154.794 95.5576C153.621 93.7514 149.557 92.8208 149.557 92.8208L148.414 112.138Z" fill="#5CC4BE"/>
<path d="M150.85 115.816C152.744 118.177 155.661 120.914 159.319 121.455C161.042 121.665 162.788 121.383 164.356 120.639C164.18 120.639 159.74 121.209 157.966 118.042C156.192 114.875 154.208 109.692 151.526 111.403C150.369 112.138 150.419 113.97 150.85 115.816Z" fill="#45AFA7"/>
<path d="M114.902 208.937C114.902 208.937 112.161 211.438 112.697 213.209C113.234 214.981 115.704 216.166 116.04 218.333C116.376 220.499 117.709 221.685 118.917 221.685H124.65C124.65 221.685 125.537 220.184 123.397 219.684C121.257 219.183 120.45 216.682 120.585 214.31C120.641 212.473 120.574 210.635 120.385 208.807L115.84 207.756L114.902 208.937Z" fill="#141F2D"/>
<path d="M138.116 209.997C138.116 209.997 137.113 220.574 138.336 221.169L153.731 221.134C153.731 221.134 153.731 219.363 151.261 218.968C148.79 218.573 144.44 217.127 143.703 213.91C142.967 210.693 138.116 209.997 138.116 209.997Z" fill="#141F2D"/>
<path d="M127.126 134.102C130.298 127.008 132.237 124.971 131.866 122.77C131.591 121.129 132.703 92.21 132.703 92.21C133.079 92.0899 133.836 91.9899 134.247 91.8948C134.887 91.7594 135.482 91.4632 135.976 91.0342C136.47 90.6052 136.846 90.0576 137.068 89.4432C137.754 87.3447 138.079 85.1457 138.031 82.939L138.437 83.019L145.257 84.3699C145.257 84.3699 145.102 86.5113 145.102 88.5326V88.5826C145.096 89.4363 145.369 90.2685 145.88 90.9529C146.391 91.6374 147.112 92.1367 147.933 92.3751L149.547 92.8354C151.112 97.527 152.113 102.388 152.529 107.315C153.03 114.655 147.973 117.822 152.569 132.511C157.26 147.466 125.377 138.02 127.126 134.102Z" fill="#F9B6B8"/>
<path d="M145.257 84.3502C145.257 84.3502 145.102 86.4916 145.102 88.5129C141.278 88.4078 139.263 84.9305 138.437 83.0093L145.257 84.3502Z" fill="#EFACB1"/>
<path d="M146.535 86.2614C146.535 86.2614 137.514 86.4115 137.514 80.7928C137.514 75.1742 136.336 71.4067 142.105 71.0715C147.873 70.7363 148.995 72.8827 149.456 74.7589C149.917 76.6351 148.885 86.0763 146.535 86.2614Z" fill="#F9B6B8"/>
<path d="M146.199 70.9366C146.199 70.9366 143.728 77.5309 139.93 78.5015C136.131 79.4721 134.487 78.4615 134.487 78.4615C136.359 76.8194 137.599 74.5781 137.995 72.1223C137.995 72.1223 144.335 67.7995 146.199 70.9366Z" fill="#141F2D"/>
<path d="M145.588 71.4714C145.588 71.4714 147.422 72.1569 148.179 73.4728C149.091 75.0326 149.515 76.8289 149.397 78.6311C149.397 78.6311 151.261 74.1282 149.166 71.6265C146.946 68.9448 145.588 71.4714 145.588 71.4714Z" fill="#141F2D"/>
<path d="M126.253 105.004C126.118 107.37 126.118 109.742 126.253 112.108C126.409 114.675 129.01 118.112 129.381 118.968C130.308 121.104 131.355 121.469 131.355 121.469L139.439 123.416L142.28 124.111L151.246 121.439C151.246 121.439 155.33 110.057 153.691 103.653C152.744 99.8847 151.353 96.242 149.547 92.8007C149.547 92.8007 142.23 99.9504 132.703 92.1953L126.253 105.004Z" fill="#5CC4BE"/>
<path d="M128.624 113.159C128.774 115.726 129.01 118.117 129.381 118.968C130.308 121.104 131.355 121.469 131.355 121.469L139.439 123.416L145.147 122.515C145.147 122.515 134.502 123.766 134.036 107.63L128.624 113.159Z" fill="#45AFA7"/>
<path d="M150.674 123.181C150.674 123.181 155.114 136.975 155.4 141.693C155.686 146.411 146.916 208.421 146.56 210.588C146.229 212.629 143.688 213.93 143.688 213.93C142.807 214.361 141.793 214.438 140.857 214.145C138.546 213.495 137.815 212.714 137.815 212.714C137.815 212.714 134.362 168.475 136.502 152.675C137.801 142.903 138.523 133.063 138.662 123.206L150.674 123.181Z" fill="#2F2E41"/>
<path d="M131.866 122.77C131.866 122.77 125.086 131.841 124.465 137.97C123.843 144.099 123.462 165.648 122.124 171.622C120.786 177.596 115.84 189.108 115.84 207.756C116.313 208.541 117.061 209.124 117.94 209.392C118.544 209.594 119.16 209.761 119.784 209.892C120.42 210.037 121.086 209.964 121.675 209.684C122.265 209.405 122.742 208.935 123.031 208.351C126.374 201.637 137.018 179.977 137.564 175.479C137.95 172.297 141.308 151.239 148.64 138.881C150.399 135.914 147.557 124.116 147.557 124.116L131.866 122.77Z" fill="#242435"/>
<path d="M151.386 121.049C151.386 121.049 149.602 122.455 146.064 122.55C141.834 122.635 131.355 121.469 131.355 121.469C131.067 122.331 130.915 123.232 130.904 124.141C130.904 124.141 143.704 127.363 151.121 124.611C151.146 124.591 152.078 122.795 151.386 121.049Z" fill="#141F2D"/>
<path d="M145.132 123.986C145.178 123.615 145.33 123.265 145.571 122.979C145.811 122.693 146.129 122.481 146.487 122.371C146.845 122.261 147.227 122.256 147.587 122.357C147.947 122.458 148.271 122.661 148.519 122.941C148.766 123.221 148.928 123.567 148.984 123.936C149.04 124.306 148.988 124.684 148.834 125.024C148.68 125.365 148.431 125.654 148.116 125.857C147.802 126.059 147.435 126.167 147.061 126.167C146.517 126.13 146.009 125.88 145.648 125.472C145.287 125.063 145.101 124.53 145.132 123.986ZM145.773 123.986C145.817 124.232 145.93 124.46 146.1 124.643C146.269 124.827 146.487 124.959 146.729 125.023C146.971 125.087 147.225 125.08 147.464 125.005C147.702 124.929 147.914 124.787 148.074 124.595C148.234 124.404 148.336 124.17 148.368 123.923C148.4 123.675 148.36 123.424 148.254 123.198C148.148 122.972 147.979 122.781 147.767 122.648C147.556 122.514 147.311 122.444 147.061 122.445C146.689 122.485 146.348 122.669 146.111 122.957C145.873 123.245 145.757 123.614 145.788 123.986H145.773Z" fill="white"/>
<path d="M140.782 133.202C140.782 133.202 143.237 136.629 143.924 137.165C144.61 137.7 145.928 139.461 146.169 140.392C146.169 140.392 146.169 140.772 145.803 140.772C145.437 140.772 144.656 139.411 144.074 139.626C144.383 140.418 144.776 141.175 145.247 141.883C145.683 142.338 145.933 144.63 145.843 145.125C145.753 145.62 142.761 143.254 141.508 142.173C140.842 141.603 141.148 139.671 140.942 138.075C140.757 136.694 137.835 135.038 137.835 135.038L140.782 133.202Z" fill="#F47859"/>
<path d="M132.703 92.2104C132.703 92.2104 125.547 92.9309 123.833 98.2744C122.119 103.618 124.585 119.413 126.685 123.416C128.784 127.418 135.826 136.209 140.601 137.275L142.952 135.599C142.952 135.599 134.578 120.474 134.578 119.663C134.578 118.853 134.162 104.118 134.077 102.567C133.991 101.016 132.703 92.2104 132.703 92.2104Z" fill="#5CC4BE"/>
<path d="M173.907 81.3579C173.907 81.3579 160.808 104.213 163.439 112.093C166.07 119.973 174.855 120.478 174.855 120.478L173.907 81.3579Z" fill="#5CC4BE"/>
<path d="M168.525 108.531C168.525 108.531 164.466 110.032 165.518 114.295C166.57 118.557 170.329 115.22 170.329 115.22L170.549 112.383L168.525 108.531Z" fill="#45AFA7"/>
<path d="M167.117 221.98H185.403C186.711 221.095 185.048 212.419 185.048 212.419C185.048 212.419 180.036 210.533 179.194 214.375C178.352 218.218 172.84 219.479 169.933 219.924C167.944 220.244 167.317 221.335 167.117 221.98Z" fill="#141F2D"/>
<path d="M194.244 221.98H212.53C213.838 221.095 212.175 212.419 212.175 212.419C212.175 212.419 207.163 210.533 206.321 214.375C205.479 218.218 199.962 219.479 197.055 219.924C195.066 220.244 194.434 221.335 194.244 221.98Z" fill="#141F2D"/>
<path d="M172.038 133.517C172.038 133.517 172.86 143.759 173.822 156.062C175.135 172.783 178.678 214.23 178.678 214.23C178.678 214.23 180.999 216.231 186.145 215.125C189.018 205.124 190.921 194.87 191.828 184.505L191.888 183.7C193.106 167.084 195.001 132.101 195.001 132.101L172.038 133.517Z" fill="#2F2E41"/>
<path d="M170.96 128.184C170.96 128.184 172.86 143.759 173.822 156.062L191.828 184.505L191.888 183.7C193.106 167.084 195 132.101 195 132.101L170.96 128.184Z" fill="#242435"/>
<path d="M177.004 129.98C177.004 129.98 190.064 162.441 194.244 174.734C197.216 183.5 205.605 214.26 205.605 214.26C205.605 214.26 209.248 215.366 212.315 213.224C212.315 213.224 215.432 181.819 209.133 172.963C205.79 168.265 209.073 121.429 195.517 121.029C181.961 120.629 177.004 129.98 177.004 129.98Z" fill="#2F2E41"/>
<path d="M182.838 82.1388C184.561 83.0559 186.557 83.3223 188.461 82.8893C189.818 82.5862 191.11 82.0422 192.274 81.2832C192.82 80.943 193.334 80.5563 193.813 80.1275C193.747 80.0341 193.687 79.9372 193.632 79.8373C193.041 78.8366 191.257 75.2193 192.049 69.4055C192.049 69.3304 191.483 69.4405 190.616 69.6456C188.025 70.256 182.813 71.732 182.597 71.797C182.597 71.797 182.537 73.0178 182.322 75.2093C182.322 75.4044 182.282 75.6045 182.261 75.8147C182.241 76.0248 182.211 76.345 182.176 76.6252C181.911 78.8867 182.838 82.1388 182.838 82.1388Z" fill="#F9B6B8"/>
<path d="M182.296 75.214C186.165 76.0996 191.938 70.4009 191.938 70.4009C191.531 70.0961 191.086 69.8439 190.615 69.6504C188.024 70.2608 182.813 71.7367 182.597 71.8018C182.597 71.8018 182.512 73.0226 182.296 75.214Z" fill="#EFACB1"/>
<path d="M169.993 124.516C170.274 128.234 170.745 131.471 170.745 131.471C183.519 135.158 203.821 131.056 203.555 128.969C203.41 127.853 203.274 126.052 203.204 124.391V124.071C203.004 119.208 203.034 112.508 203.009 106.094C203.009 102.157 202.954 98.3292 202.823 95.0871C202.823 95.0871 204.633 82.4038 202.623 80.3225C200.268 77.8859 192.66 77.1754 192.525 77.1504C192.525 77.1504 185.94 80.9729 182.126 77.5807C182.126 77.5807 175.762 79.4269 173.922 81.3631C173.291 82.0286 170.76 86.1262 170.69 90.6242C170.595 96.8933 170.84 104.018 170.84 104.018C170.775 105.019 170.665 106.349 170.545 107.85C170.419 109.446 170.274 111.248 170.154 113.129C170.099 114.08 170.044 115.045 169.998 116.011C169.831 118.843 169.829 121.683 169.993 124.516Z" fill="#5CC4BE"/>
<path d="M180.984 71.4967C182.161 71.8883 183.372 72.1697 184.602 72.3372C187.564 72.7375 191.468 72.5023 192.69 68.92C194.755 62.8911 197.391 59.2737 191.317 56.8121C188.065 55.4912 185.985 55.4262 184.577 55.9265C183.515 56.3335 182.629 57.098 182.071 58.0879C180.899 59.9291 178.523 70.441 180.984 71.4967Z" fill="#F9B6B8"/>
<path d="M181.615 54.4457C180.247 54.776 179.61 56.9474 180.933 57.833C183.274 59.439 186.135 58.8086 187.188 59.2789C188.691 59.9443 188.972 62.476 188.997 63.2815C189.022 64.087 189.132 64.7825 191.182 64.2822C191.426 64.2017 191.691 64.2179 191.923 64.3272C192.775 64.8275 191.688 67.2741 191.362 67.8045C191.362 67.8045 190.891 69.5506 191.939 70.4062C192.064 70.5062 194.119 71.4068 199.08 63.8319C199.644 62.8602 199.968 61.7676 200.023 60.6456C200.078 59.5236 199.863 58.4047 199.396 57.3827C198.198 54.806 194.479 51.6139 190.019 51.6089C186.486 51.6039 184.522 53.7403 181.615 54.4457Z" fill="#141F2D"/>
<path d="M187.513 120.074C187.513 120.074 182.612 123.301 180.718 123.511C179.435 123.651 174.348 123.441 174.323 122.8C174.283 121.895 177.425 120.939 178.242 120.574C179.059 120.209 179.695 119.788 179.685 119.438C179.675 119.088 176.538 120.249 176.874 119.483C177.21 118.718 180.121 117.387 180.823 117.257C181.525 117.127 183.79 117.897 184.672 117.487C185.554 117.077 187.513 120.074 187.513 120.074Z" fill="#EFACB1"/>
<path d="M185.363 117.242C184.712 118.462 187.513 120.073 187.513 120.073C187.513 120.073 195.261 123.751 203.204 124.376V124.056C203.004 119.193 203.244 105.044 203.204 98.6094C203.204 98.6094 201.169 106.434 194.234 111.118C189.849 114.074 185.824 116.376 185.363 117.242Z" fill="#45AFA7"/>
<path d="M200.909 79.1367C200.909 79.1367 204.267 80.5526 208.256 87.9975C212.245 95.4424 216.019 111.198 214.4 113.759C212.781 116.321 199.16 122.19 187.288 120.624C187.288 120.624 184.341 117.947 184.938 116.916C184.938 116.916 204.848 108.811 204.858 107.845C204.868 106.88 197.757 98.5244 197.341 94.3667C196.925 90.209 200.909 79.1367 200.909 79.1367Z" fill="#5CC4BE"/>
<path d="M181.214 97.9639C181.214 97.9639 181.45 100.516 181.214 101.176C180.978 101.836 174.198 101.981 174.028 101.361C173.857 100.741 173.602 98.8595 174.028 98.5292C174.454 98.199 181.214 97.9639 181.214 97.9639Z" fill="#F9B6B8"/>
<path d="M176.734 121.64H178.237C180.056 121.633 181.798 120.909 183.085 119.625C184.371 118.341 185.096 116.601 185.103 114.785V108.221C185.103 104.453 185.018 101.106 180.963 99.8604L173.847 100.401C167.683 102.097 169.873 104.453 169.873 108.221V114.785C169.878 116.601 170.603 118.34 171.888 119.624C173.173 120.909 174.915 121.633 176.734 121.64Z" fill="#F9B6B8"/>
<path d="M174.013 100.306C174.013 100.306 172.334 100.736 171.131 100.075C169.397 99.1198 167.322 98.5744 166.961 98.1492C166.345 97.4087 163.353 94.3667 163.353 94.3667L161.92 95.3223C161.92 95.3223 163.303 100.946 164.426 101.947C165.548 102.947 167.553 106.515 170.941 107.02C172.695 107.285 174.013 100.306 174.013 100.306Z" fill="#F9B6B8"/>
<path d="M163.353 94.3665C163.353 94.3665 163.854 92.9506 163.448 92.7655C163.042 92.5804 162.762 93.611 162.762 93.611C162.762 93.611 161.634 91.2745 160.487 92.2802C159.339 93.2858 161.92 95.3222 161.92 95.3222L163.353 94.3665Z" fill="#F9B6B8"/>
<path d="M181.239 99.9355C181.239 99.9355 182.923 100.366 184.121 99.7053C185.855 98.7497 187.93 98.2043 188.29 97.7791C188.907 97.0386 191.899 93.9966 191.899 93.9966L193.337 94.9572C193.337 94.9572 191.949 100.576 190.831 101.582C189.714 102.587 187.699 106.15 184.316 106.655C182.557 106.905 181.239 99.9355 181.239 99.9355Z" fill="#F9B6B8"/>
<path d="M191.898 93.9966C191.898 93.9966 191.372 92.5856 191.808 92.4005C192.244 92.2154 192.495 93.2411 192.495 93.2411C192.495 93.2411 193.622 90.9046 194.77 91.9152C195.917 92.9259 193.337 94.9572 193.337 94.9572L191.898 93.9966Z" fill="#F9B6B8"/>
<path d="M171.076 112.093C171.076 112.093 167.067 113.839 164.977 114.46C163.012 115.035 160.587 116.411 160.537 116.631C160.487 116.851 160.457 118.803 161.454 119.183C162.451 119.563 173.251 121.104 174.854 120.479C174.854 120.479 173.697 112.744 171.076 112.093Z" fill="#F9B6B8"/>
<path d="M160.667 112.583C161.82 112.697 162.891 113.231 163.674 114.084C163.824 114.266 164.026 114.396 164.253 114.459C164.479 114.522 164.72 114.513 164.942 114.435C164.942 114.435 167.949 116.341 166.029 119.938C166.029 119.938 162.02 119.688 161.419 119.148C160.817 118.607 160.667 112.583 160.667 112.583Z" fill="#D4D5DA"/>
<path d="M161.454 119.183C160.864 119.026 160.329 118.71 159.909 118.268C159.489 117.826 159.199 117.277 159.073 116.681C158.713 114.68 159.073 112.763 160.416 112.593C160.945 112.503 161.488 112.604 161.948 112.88C162.408 113.155 162.754 113.586 162.922 114.094C163.308 115.075 164.375 119.278 161.454 119.183Z" fill="#45AFA7"/>
<path d="M176.954 84.39C176.954 84.39 172.945 84.2099 171.391 88.0324C169.838 91.8549 169.557 98.4192 173.115 99.4548C175.546 100.16 178.157 99.665 180.502 98.7694C181.735 98.2691 182.156 97.2684 182.863 96.4329C187.403 91.1194 185.94 84.8403 176.954 84.39Z" fill="#F9B6B8"/>
<path d="M185.123 111.143C185.123 111.143 177.21 112.834 169.878 111.143C169.519 111.736 169.205 112.355 168.936 112.994C168.706 113.899 169.122 115.385 170.75 117.272C173.146 120.053 181.34 122.125 184.211 120.349C186.727 118.793 187.298 113.489 185.123 111.143Z" fill="#D4D5DA"/>
<path d="M176.268 114.505C174.366 115.295 172.524 116.219 170.755 117.272C168.966 118.272 166.906 120.148 166.906 120.374C166.906 120.599 167.312 122.505 168.365 122.66C169.417 122.815 180.292 121.915 181.715 120.964C182.218 120.79 182.66 120.477 182.99 120.06C183.319 119.643 183.522 119.141 183.574 118.612C183.885 115.911 182.542 112.323 176.268 114.505Z" fill="#F9B6B8"/>
<path d="M166.149 116.411C167.309 116.265 168.48 116.56 169.432 117.237C169.62 117.379 169.847 117.46 170.082 117.47C170.318 117.48 170.551 117.417 170.75 117.292C170.75 117.292 174.093 118.492 173.03 122.435C173.03 122.435 169.021 123.08 168.359 122.68C167.698 122.28 166.149 116.411 166.149 116.411Z" fill="#D4D5DA"/>
<path d="M168.36 122.66C167.751 122.638 167.161 122.448 166.654 122.112C166.148 121.775 165.744 121.305 165.488 120.754C164.686 118.873 164.631 116.931 165.889 116.476C166.39 116.268 166.949 116.248 167.463 116.42C167.977 116.592 168.412 116.944 168.685 117.412C169.257 118.242 171.231 122.105 168.36 122.66Z" fill="#45AFA7"/>
<path d="M175.345 95.8676C175.119 96.1322 174.823 96.3292 174.492 96.4369C174.16 96.5446 173.805 96.5588 173.466 96.478C173.148 96.3566 172.866 96.1542 172.65 95.891C172.434 95.6277 172.29 95.3127 172.233 94.9771C173.327 95.0237 174.393 95.329 175.345 95.8676Z" fill="white"/>
<path d="M180.452 93.4309C180.452 93.4309 182.016 92.065 182.512 93.0557C183.008 94.0463 181.871 95.5023 180.949 95.5173C180.027 95.5323 179.841 93.8662 180.452 93.4309Z" fill="#EFACB1"/>
<path d="M180.212 93.3959C180.212 93.3959 181.404 92.3502 181.78 93.1057C182.156 93.8612 181.279 94.9719 180.592 94.9869C179.906 95.0019 179.75 93.7111 180.212 93.3959Z" fill="#F9B6B8"/>
<path d="M181.625 86.3912C181.625 86.3912 179.691 89.0129 175.611 88.9179C175.611 88.9179 174.018 88.6877 173.341 87.6571C173.341 87.6571 174.619 88.1574 175.296 87.9523C175.296 87.9523 171.472 87.3669 171.517 86.3462C171.562 85.3255 173.577 84.1798 175.025 84.0047C176.193 83.8646 179.721 83.8846 180.788 84.47C181.856 85.0554 181.926 86.031 181.625 86.3912Z" fill="#141F2D"/>
<path d="M179.901 84.1602C179.901 84.1602 184.331 84.8906 185.123 88.3929C185.438 89.8138 184.767 91.8952 184.767 91.8952C184.767 91.8952 184.857 87.6975 181.314 87.5224C178.738 87.3973 177.049 87.1321 177.049 87.1321L179.901 84.1602Z" fill="#141F2D"/>
<path d="M179.265 105.294C179.265 105.346 179.28 105.398 179.309 105.441C179.339 105.485 179.38 105.519 179.429 105.539C179.477 105.559 179.531 105.564 179.582 105.554C179.634 105.544 179.681 105.519 179.718 105.482C179.755 105.444 179.78 105.397 179.791 105.346C179.801 105.294 179.796 105.241 179.776 105.192C179.756 105.144 179.721 105.103 179.678 105.073C179.634 105.044 179.583 105.029 179.53 105.029C179.46 105.029 179.392 105.057 179.342 105.106C179.293 105.156 179.265 105.224 179.265 105.294Z" fill="#EFACB1"/>
<path d="M172.604 105.294C172.604 105.364 172.632 105.432 172.682 105.482C172.732 105.531 172.8 105.559 172.87 105.559C172.905 105.559 172.94 105.552 172.972 105.539C173.004 105.526 173.033 105.506 173.058 105.482C173.083 105.457 173.102 105.428 173.116 105.395C173.129 105.363 173.136 105.329 173.136 105.294C173.136 105.259 173.129 105.225 173.116 105.192C173.102 105.16 173.083 105.131 173.058 105.106C173.033 105.082 173.004 105.062 172.972 105.049C172.94 105.036 172.905 105.029 172.87 105.029C172.8 105.029 172.732 105.057 172.682 105.106C172.632 105.156 172.604 105.224 172.604 105.294Z" fill="#EFACB1"/>
<path d="M167.016 110.322C167.119 109.931 167.308 109.568 167.567 109.258C167.827 108.949 168.153 108.7 168.52 108.531C169.452 108.068 170.423 107.688 171.422 107.395C172.424 107.215 174.458 106.019 174.629 106.639C174.799 107.26 173.186 107.98 173.181 108.641C173.176 109.301 177.691 111.007 177.571 111.718C177.45 112.428 176.162 114.019 174.408 113.594C172.654 113.169 168.309 112.153 167.307 111.873C166.781 111.748 166.836 111.012 167.016 110.322Z" fill="#EFACB1"/>
<path d="M152.263 125.382C152.263 125.382 148.845 126.783 147.682 128.674C146.52 130.565 145.372 134.383 146.179 136.299C146.986 138.215 142.17 138.18 142.711 141.472C143.252 144.764 146.555 142.948 145.111 145.865C143.668 148.782 147.697 149.753 151.321 149.257C154.944 148.762 165.678 148.707 166.18 146.43C166.681 144.154 162.216 143.118 164.015 141.382C165.814 139.646 167.683 139.926 165.678 135.688C163.674 131.451 161.634 123.03 152.263 125.382Z" fill="#141F2D"/>
<path d="M166.245 175.88C166.245 175.88 164.36 189.209 162.997 200.821C161.82 201.021 158.657 201.426 155.981 200.436C155.646 200.297 155.291 200.214 154.929 200.191C154.725 198.906 154.656 197.603 154.723 196.303C155.225 191.8 150.664 173.243 154.864 171.602C159.063 169.961 166.245 175.88 166.245 175.88Z" fill="#F9B6B8"/>
<path d="M154.939 200.196C155.741 206.62 158.362 216.882 158.362 216.882L161.644 217.277C161.409 215.466 162.09 208.516 162.997 200.816C161.83 201.026 158.657 201.432 156.006 200.436C155.666 200.298 155.306 200.217 154.939 200.196Z" fill="#2F2E41"/>
<path d="M161.519 175.92C161.519 175.92 158.758 189.594 156.688 201.326C154.944 201.487 151.757 201.632 148.815 200.721C148.616 199.018 148.603 197.299 148.775 195.593C149.542 191.135 146.134 172.333 150.439 170.957C154.744 169.581 161.519 175.92 161.519 175.92Z" fill="#F9B6B8"/>
<path d="M161.609 216.707C162.104 217.569 162.917 218.205 163.875 218.478C164.762 218.654 165.555 219.147 166.105 219.864C166.2 219.994 166.258 220.148 166.271 220.308C166.284 220.469 166.252 220.63 166.179 220.774C166.106 220.918 165.994 221.038 165.856 221.122C165.718 221.206 165.56 221.25 165.398 221.25L157.841 221.21C157.689 221.208 157.539 221.175 157.401 221.113C157.263 221.05 157.139 220.96 157.038 220.847C156.937 220.733 156.861 220.601 156.814 220.456C156.768 220.312 156.752 220.16 156.768 220.009C156.823 219.449 156.889 218.798 156.919 218.298C156.979 217.212 158.162 216.231 158.162 216.231C158.617 216.502 159.099 216.725 159.6 216.897C160.276 216.96 160.957 216.895 161.609 216.707Z" fill="#141F2D"/>
<path d="M163.047 143.929C163.047 143.929 167.984 152.245 168.981 159.019C168.981 159.019 166.58 162.256 165.603 159.985C164.626 157.713 157.615 145.57 163.047 143.929Z" fill="#F9B6B8"/>
<path d="M162.105 129.199C162.055 129.109 159.845 125.622 155.716 124.927C154.916 124.798 154.099 124.83 153.311 125.019C152.524 125.209 151.782 125.553 151.129 126.032C150.476 126.511 149.925 127.114 149.508 127.807C149.091 128.501 148.816 129.27 148.7 130.07C148.199 133.437 148.7 137.795 154.212 139.366L162.105 129.199Z" fill="#141F2D"/>
<path d="M161.098 144.189L154.874 147.881L153.3 143.509C153.825 142.184 154.139 140.787 154.232 139.366C154.333 138.14 154.3 136.907 154.132 135.688L159.545 138.035C159.475 138.435 159.43 138.84 159.409 139.246C159.349 140.187 159.44 141.131 159.68 142.043C159.895 142.898 160.395 143.655 161.098 144.189Z" fill="#F9B6B8"/>
<path d="M159.665 142.043C156.658 142.153 154.217 139.366 154.217 139.366L159.394 139.246C159.331 140.187 159.423 141.132 159.665 142.043Z" fill="#EFACB1"/>
<path d="M161.018 140.292C161.018 140.292 155.175 142.238 152.824 137.645C150.283 132.697 152.478 128.829 154.478 128.454C158.487 127.698 160.908 129.079 161.72 130.655C162.531 132.231 164.245 139.246 161.018 140.292Z" fill="#F9B6B8"/>
<path d="M158.492 137.785C158.492 137.785 158.778 138.38 160.326 137.94C160.326 137.94 161.624 137.565 161.429 136.884C160.373 136.817 159.328 137.137 158.492 137.785Z" fill="white"/>
<path d="M146.204 191.53C147.893 193.141 160.366 196.474 167.398 194.077C168.655 193.647 166.641 154.841 165.438 147.346C165.279 146.349 164.804 145.428 164.083 144.72C163.361 144.013 162.431 143.555 161.429 143.414C161.078 143.364 160.702 143.319 160.291 143.279C160.382 144.199 160.066 145.065 158.457 145.38C156.317 145.8 154.293 144.45 153.25 143.514C151.576 143.864 150.599 144.014 149.271 144.545C148.559 144.84 147.964 145.361 147.578 146.027C147.192 146.694 147.037 147.469 147.136 148.232L147.537 151.194L148.82 160.62C148.981 161.805 148.971 163.006 148.79 164.187C148.249 167.77 147.382 176.501 146.785 183.14C146.385 187.808 146.134 191.46 146.204 191.53Z" fill="#5CC4BE"/>
<path d="M156.924 128.999C156.924 128.999 157.475 134.473 152.278 136.409C150.208 137.18 149.131 128.819 153.451 127.153C157.771 125.487 162.035 127.463 162.547 130.385C163.058 133.307 162.667 133.888 162.667 133.888C162.667 133.888 160.667 128.359 156.924 128.999Z" fill="#141F2D"/>
<path d="M153.766 146.901C153.766 146.901 156.152 156.322 156.242 160.065C156.242 160.065 161.479 169.196 161.784 169.841C162.09 170.487 159.895 171.382 159.895 171.382C159.895 171.382 153.33 164.378 152.062 161.451C150.794 158.524 146.304 148.942 148.103 146.106C149.902 143.269 153.766 146.901 153.766 146.901Z" fill="#F9B6B8"/>
<path d="M168.981 159.039C168.981 159.039 169.447 165.453 164.877 170.511C164.877 170.511 163.629 169.01 163.784 168.545C163.94 168.08 165.734 160.925 167.042 159.909C168.35 158.894 168.981 159.039 168.981 159.039Z" fill="#F9B6B8"/>
<path d="M161.784 169.846C161.784 169.846 164.711 169.846 164.877 170.511C164.897 170.866 164.828 171.22 164.676 171.54C164.523 171.861 164.292 172.138 164.004 172.346C163.716 172.554 163.38 172.686 163.027 172.73C162.674 172.774 162.315 172.729 161.985 172.598C159.84 171.847 159.895 171.382 159.895 171.382L161.784 169.846Z" fill="#F9B6B8"/>
<path d="M163.784 168.545C163.784 168.545 161.434 169.626 162.231 170.786C163.028 171.947 164.631 171.247 164.877 170.511C165.122 169.776 163.784 168.545 163.784 168.545Z" fill="#F9B6B8"/>
<path d="M155.485 151.869C153.307 153.673 150.501 154.54 147.682 154.281C147.682 154.281 145.352 146.025 149.091 145.015C152.829 144.004 155.921 148.892 155.485 151.869Z" fill="#45AFA7"/>
<path d="M164.676 145.43L167.383 150.048C167.383 150.048 167.032 152.195 165.007 152.405C162.982 152.615 164.676 145.43 164.676 145.43Z" fill="#45AFA7"/>
<path d="M148.82 200.731C149.376 207.275 151.16 216.636 151.16 216.636L154.408 217.387C154.287 215.596 155.345 208.856 156.683 201.316C154.048 201.625 151.379 201.427 148.82 200.731Z" fill="#2F2E41"/>
<path d="M154.503 216.632C155 217.491 155.812 218.125 156.768 218.398C157.658 218.572 158.453 219.065 159.003 219.784C159.097 219.915 159.153 220.069 159.165 220.229C159.177 220.39 159.145 220.55 159.071 220.694C158.997 220.837 158.886 220.957 158.748 221.041C158.611 221.125 158.453 221.169 158.292 221.17L150.734 221.125C150.583 221.123 150.433 221.09 150.294 221.028C150.156 220.965 150.033 220.875 149.932 220.762C149.831 220.648 149.754 220.515 149.708 220.371C149.661 220.227 149.646 220.075 149.662 219.924C149.722 219.368 149.782 218.718 149.812 218.218C149.872 217.127 151.055 216.151 151.055 216.151C151.511 216.42 151.993 216.641 152.493 216.812C153.169 216.881 153.851 216.82 154.503 216.632Z" fill="#141F2D"/>
<path d="M221.216 9.17589C227.229 12.0874 232.568 16.2198 236.891 21.3088C241.507 26.6523 247.917 36.1835 256.887 46.2351C263.372 53.4848 267.211 57.7126 269.35 60.0391C270.868 61.6975 272.693 63.048 274.723 64.0167L314.348 82.889L311.231 99.1096L308.595 114.62L308.335 116.121L306.971 115.41C303.634 113.564 286.85 103.062 278.481 97.7437L278.411 98.089C278.402 98.0767 278.39 98.0665 278.376 98.0589C278.061 97.7982 277.726 97.5623 277.374 97.3535C275.054 95.9225 268.303 92.5303 251.039 87.9924C249.034 87.462 246.899 86.9167 244.604 86.3663C233.985 83.7896 224.889 84.4951 232.296 55.5912C232.306 55.4581 232.293 55.3242 232.256 55.1959C231.945 53.0039 231.267 50.8796 230.251 48.9118C230.006 48.4115 229.725 47.8411 229.414 47.2558C227.728 44.1616 226.318 40.9253 225.2 37.5844C220.053 22.2094 218.339 7.71994 221.216 9.17589Z" fill="#F9B6B8"/>
<path d="M251.009 87.9873C268.273 92.5253 275.024 95.9175 277.344 97.3484C277.344 97.3484 302.577 112.984 306.972 115.415L320.442 108.911L311.231 99.1346L306.856 101.831C306.476 101.886 289.391 93.606 279.624 92.0299C276.562 91.5296 273.28 90.8842 270.273 90.529C262.104 89.5033 254.883 88.8929 251.009 87.9873Z" fill="#EFACB1"/>
<path d="M201.726 1.83643C196.644 0.960858 180.097 0.335449 180.097 0.335449C180.097 0.335449 180.016 3.96782 182.001 5.83904C187.799 11.2876 201.486 13.6141 201.616 13.439C201.616 13.439 212.14 22.59 219.697 25.662C219.697 25.662 224.563 43.8639 230.191 48.9122C230.515 49.2022 230.862 49.4649 231.228 49.6977C232.951 50.6728 234.809 51.3876 236.741 51.8191C244.674 53.7904 256.145 53.6603 256.496 49.0373C256.581 47.8965 233.253 14.5147 228.232 12.0781C227.064 11.5027 204.437 2.33676 201.726 1.83643Z" fill="#F9B6B8"/>
<path d="M187.613 3.11218C187.283 3.17632 186.945 3.18982 186.611 3.15222L181.184 2.45176C179.68 2.25663 178.733 1.01582 178.678 0.450455C178.628 0.0802128 184.847 -0.470158 190.204 0.860711C190.03 1.44233 189.694 1.96266 189.236 2.36122C188.777 2.75977 188.214 3.02018 187.613 3.11218Z" fill="#EFACB1"/>
<path d="M219.697 25.6616C219.972 29.3841 229.394 54.1202 229.554 55.366C232.336 58.8683 237.367 60.6745 238.284 59.5588C239.517 58.0578 238.976 53.82 237.182 50.6179C234.771 46.3301 230.667 44.1887 228.507 42.5276C227.535 41.7771 226.748 38.3349 225.455 36.7639C222.052 32.6462 219.917 26.1369 219.697 25.6616Z" fill="#EFACB1"/>
<path d="M223.375 69.2052C223.375 69.2052 207.524 36.0636 202.462 31.5256C202.462 31.5256 205.554 27.2428 212.706 31.1654C219.857 35.0879 230.05 52.014 235.257 54.2354C254.837 62.5909 258.19 75.1691 258.19 75.1691C258.19 75.1691 239.051 101.872 223.375 69.2052Z" fill="#F9B6B8"/>
<path d="M210.526 35.5132C210.38 35.2027 210.185 34.9173 209.95 34.6676L206.181 30.705C205.671 30.1726 204.989 29.8374 204.255 29.7586C203.521 29.6799 202.783 29.8627 202.172 30.2747C201.861 30.4849 201.701 30.62 201.701 30.62C202.553 32.251 204.582 36.4188 208.827 39.9561C209.619 39.0005 211.032 36.6139 210.526 35.5132Z" fill="#EFACB1"/>
<path d="M337 79.802C335.462 110.977 326.521 129.249 319.751 142.723C308.295 139.296 298.417 136.364 298.377 136.354L298.106 136.269C297.68 136.144 297.209 136.024 296.718 135.914L296.267 135.824C296.077 135.784 295.881 135.749 295.691 135.719C295.5 135.688 295.325 135.658 295.135 135.633L294.633 135.563H294.468L293.892 135.503C291.809 135.326 289.754 134.908 287.768 134.258C287.637 134.218 287.517 134.167 287.392 134.122C283.799 132.772 283.217 131.065 283.217 131.065C280.266 127.538 279.038 122.285 278.943 116.326C278.932 111.716 279.394 107.118 280.321 102.602C280.518 101.601 280.728 100.601 280.952 99.5999C280.952 99.5199 280.992 99.4448 281.007 99.3647C281.508 97.1083 282.12 94.8618 282.766 92.7004C283.917 88.8119 285.287 84.9916 286.871 81.2579C288.575 77.2553 290.298 74.0482 291.737 72.142C292.549 71.0663 293.24 70.4058 293.842 70.2557C295.846 69.7254 297.821 70.2808 300.051 71.1964C301.649 71.8468 303.383 72.6973 305.333 73.4478L305.694 73.5779C305.854 73.643 306.024 73.708 306.195 73.768L306.696 73.9482C307.042 74.0682 307.398 74.1833 307.758 74.2934C308.119 74.4035 308.475 74.5035 308.841 74.5936L309.227 74.6936L309.618 74.7837C309.873 74.8437 310.119 74.8938 310.399 74.9488L310.705 75.0088L311.206 75.0889L311.497 75.1339C311.497 75.1339 323.369 77.3053 337 79.802Z" fill="#5CC4BE"/>
<path d="M112.151 9.54602C106.162 12.5198 100.862 16.7104 96.5907 21.849C92.0253 27.2326 85.7309 36.8288 76.8356 46.9655C70.4209 54.2752 66.6222 58.538 64.5074 60.8895C63.0014 62.5525 61.1895 63.9114 59.1702 64.8922L19.7251 84.1547L22.9976 100.345L25.7839 115.825L26.0596 117.326L27.4127 116.571C30.7302 114.695 47.4184 104.038 55.7324 98.6342L55.8025 98.9844L55.8376 98.9544C56.1528 98.6906 56.4879 98.4514 56.8399 98.2389C59.1452 96.783 65.8605 93.3257 83.0849 88.6227C85.0894 88.0723 87.2276 87.5103 89.4995 86.9366C100.094 84.2598 109.2 84.8802 101.527 56.0464C101.519 55.9133 101.532 55.7799 101.567 55.6511C101.868 53.4615 102.534 51.3375 103.537 49.367C103.782 48.8417 104.038 48.2863 104.363 47.7009C106.016 44.5883 107.395 41.3391 108.488 37.9896C113.439 22.5695 115.013 8.06005 112.151 9.54602Z" fill="#F9B6B8"/>
<path d="M83.1149 88.6377C65.8906 93.3358 59.1752 96.793 56.8699 98.249H56.8349L56.7497 98.304H56.7196L55.8025 98.8844L53.2968 100.46C46.7167 104.613 32.9202 113.294 28.3097 116.026L28.1944 116.096L28.0792 116.161L28.019 116.196L27.8687 116.286L27.4176 116.546L25.7889 115.775L18.813 112.483C19.1888 109.601 19.4444 106.765 19.6148 103.978L23.0026 100.305L27.4026 102.962C27.7484 103.007 41.555 96.1676 51.4225 93.5909C52.52 93.3008 53.5674 93.0906 54.5396 92.9005C57.5966 92.3751 60.8741 91.6947 63.881 91.2994C72.0296 90.2588 79.2561 89.5733 83.1149 88.6377Z" fill="#EFACB1"/>
<path d="M131.571 2.02643C136.642 1.10583 153.185 0.320312 153.185 0.320312C153.185 0.320312 153.3 3.95268 151.336 5.82391C145.588 11.3275 131.921 13.7841 131.791 13.609C131.791 13.609 121.332 22.865 113.825 26.0021C113.825 26.0021 109.134 44.259 103.537 49.3673C103.227 49.6617 102.891 49.9279 102.534 50.1629C100.814 51.1545 98.9563 51.8878 97.0217 52.3393C89.1136 54.3806 77.6424 54.3406 77.2415 49.7426C77.1463 48.6068 100.154 15.0149 105.155 12.5183C106.323 11.9229 128.864 2.52175 131.571 2.02643Z" fill="#F9B6B8"/>
<path d="M145.693 3.16192C146.024 3.22082 146.362 3.22927 146.695 3.18694L152.148 2.44144C153.651 2.2263 154.583 0.980492 154.653 0.39511C154.703 0.024868 148.479 -0.465452 143.127 0.895437C143.297 1.47645 143.628 1.99761 144.082 2.39868C144.536 2.79975 145.094 3.06436 145.693 3.16192Z" fill="#EFACB1"/>
<path d="M113.825 26.0122C113.59 29.7396 104.404 54.5609 104.253 55.8117C101.507 59.354 96.4906 61.1952 95.5685 60.0845C94.3157 58.5835 94.8168 54.3557 96.5708 51.1386C98.9362 46.8258 103.021 44.6344 105.165 42.9633C106.133 42.2028 106.884 38.7505 108.172 37.1745C111.555 33.0168 113.61 26.4925 113.825 26.0122Z" fill="#EFACB1"/>
<path d="M110.553 69.5906C110.553 69.5906 126.088 36.2988 131.1 31.7158C131.1 31.7158 127.962 27.4631 120.851 31.4507C113.74 35.4383 103.707 52.4644 98.5151 54.7359C79.0356 63.2765 75.8032 75.8847 75.8032 75.8847C75.8032 75.8847 95.2025 102.402 110.553 69.5906Z" fill="#EFACB1"/>
<path d="M123.081 35.7786C123.225 35.4679 123.416 35.181 123.647 34.928L127.381 30.9254C127.885 30.3859 128.565 30.0425 129.299 29.9564C130.033 29.8702 130.774 30.047 131.39 30.4551C131.701 30.6652 131.866 30.7953 131.866 30.7953C131.029 32.4314 129.04 36.6191 124.85 40.1965C124.033 39.2558 122.58 36.8843 123.081 35.7786Z" fill="#E5A5AD"/>
<path d="M55.4665 117.206C55.4264 123.165 54.2487 128.434 51.332 131.986C51.332 131.986 50.7658 133.697 47.1826 135.083L46.8117 135.223H46.7867C44.8055 135.891 42.754 136.329 40.6727 136.529L40.0964 136.594H39.931L39.4298 136.664C39.2444 136.689 39.059 136.724 38.8736 136.759C38.6882 136.794 38.4927 136.824 38.3023 136.869L37.8512 136.964C37.3501 137.079 36.8941 137.2 36.4631 137.335L36.1975 137.42C36.1474 137.42 22.1955 141.722 8.2436 146.045C14.3977 134.203 0.31549 89.7185 -0.0102539 81.0779C1.96927 80.6926 22.4811 76.3048 22.4861 76.3048L22.7768 76.2547L23.278 76.1697L23.5837 76.1046C23.8442 76.0546 24.1099 75.9996 24.3654 75.9345L24.7513 75.8395L25.1422 75.7394C25.5081 75.6393 25.8639 75.5393 26.2197 75.4292L27.2771 75.074L27.7782 74.8838C27.9486 74.8238 28.124 74.7587 28.2794 74.6887L28.6352 74.5536C30.5746 73.7831 32.3036 72.9226 33.8972 72.2571C36.1223 71.3265 38.1068 70.7561 40.0964 71.2565C40.6727 71.4016 41.3994 72.057 42.2162 73.1227C43.6746 75.0139 45.4286 78.206 47.1725 82.1886C48.7929 85.9083 50.2 89.7169 51.3872 93.5961C52.0537 95.7575 52.6701 97.9839 53.2063 100.24C53.2063 100.315 53.2464 100.396 53.2615 100.476C53.4953 101.476 53.7158 102.477 53.923 103.478C54.9061 107.989 55.4233 112.59 55.4665 117.206Z" fill="#5CC4BE"/>
</g>
<defs>
<clipPath id="clip0_4171_1843">
<rect width="337" height="222" fill="white"/>
</clipPath>
</defs>
</svg>
