<svg width="77" height="66" viewBox="0 0 77 66" fill="none" xmlns="http://www.w3.org/2000/svg">
<path d="M0 47.2012H18.3074V52.725H13.0554V66.0004H5.42678V52.725H0V47.2012Z" fill="#486AAE"/>
<path d="M27.579 54.7968L23.7245 66.0004H16.3984L23.5836 47.2012H31.54L38.8983 66.0004H31.4821L27.579 54.7968Z" fill="#486AAE"/>
<path d="M37.1482 47.2012H55.4549V52.725H50.2045V66.0004H42.5762V52.725H37.1482V47.2012Z" fill="#486AAE"/>
<path d="M64.7299 54.7968L60.874 66.0004H53.5479L60.7354 47.2012H68.6894L76.0452 66.0004H68.6317L64.7299 54.7968Z" fill="#486AAE"/>
<path fill-rule="evenodd" clip-rule="evenodd" d="M64.9999 12.6703C64.3164 11.3375 63.4161 10.0601 62.2962 8.86216C59.7794 6.16886 56.2285 3.92768 52.0263 2.38194C47.7895 0.82423 42.9571 0 38.0463 0C33.1355 0 28.3031 0.82423 24.0685 2.38194C19.8641 3.92786 16.3131 6.16904 13.7963 8.86216C12.6771 10.0599 11.7739 11.3391 11.0906 12.6727C16.5613 11.3609 25.9193 9.62905 34.6084 9.44595C35.4465 9.42808 36.0236 9.69425 36.4036 10.1717C36.8664 10.7532 36.8316 12.8259 36.8203 13.7532L36.5733 37.7209C37.0626 37.737 37.5543 37.7473 38.0463 37.7473C38.5425 37.7473 39.0369 37.7393 39.5262 37.7232L39.2792 13.7531C39.2664 12.8259 39.2306 10.753 39.695 10.1716C40.0759 9.69425 40.651 9.42808 41.4889 9.44577C50.1744 9.62744 59.5302 11.3597 64.9999 12.6703Z" fill="#486AAE"/>
<path fill-rule="evenodd" clip-rule="evenodd" d="M66.168 15.7874C58.1611 13.9927 52.8139 13.6607 47.5379 13.3705C42.939 13.117 42.879 14.7452 43.3381 17.8569C43.3682 18.0468 43.4051 18.2862 43.4489 18.5591C44.9915 27.6182 46.9124 35.4139 47.2425 36.737C58.4542 34.1959 66.5399 27.1507 66.5399 18.8744C66.5399 17.8323 66.4129 16.7997 66.168 15.7874Z" fill="#486AAE"/>
<path fill-rule="evenodd" clip-rule="evenodd" d="M32.759 17.8569C33.2186 14.7454 33.1597 13.117 28.5613 13.3705C23.2835 13.6607 17.9351 13.9925 9.92506 15.7885C9.6804 16.8008 9.55176 17.8321 9.55176 18.8743C9.55176 22.4513 11.0194 25.9125 13.7965 28.8863C16.3132 31.5796 19.8643 33.8208 24.0686 35.3676C25.5903 35.9262 27.1962 36.384 28.8503 36.7502C29.1607 35.5107 31.1258 27.5528 32.6851 18.3317C32.7139 18.1551 32.7406 17.992 32.759 17.8569Z" fill="#486AAE"/>
</svg>
