<svg width="312" height="241" viewBox="0 0 312 241" fill="none" xmlns="http://www.w3.org/2000/svg">
<g clip-path="url(#clip0_5531_4452)">
<path d="M57.5054 218.502L51.4402 219.613C51.2715 219.33 51.1027 219.051 50.9249 218.781C50.6668 218.398 50.3866 218.03 50.0858 217.679C47.1171 214.245 42.461 211.899 38.0467 212.942C35.1418 213.627 32.4786 215.685 29.5235 215.329C24.6897 214.739 22.9111 208.469 18.7704 205.886C14.0597 202.95 7.11893 205.323 2.92348 201.688C-0.437435 198.771 -0.0771739 193.407 2.20752 189.465C2.5135 188.937 2.85638 188.431 3.23358 187.952C4.91922 185.828 7.07318 184.126 9.52606 182.978C11.9789 181.831 14.6639 181.27 17.3697 181.339C20.0755 181.408 22.7284 182.105 25.1199 183.377C27.5113 184.648 29.576 186.458 31.1516 188.665C34.4623 193.302 35.762 199.777 40.7281 202.525C43.1359 203.856 46.018 204.034 48.5307 205.159C50.6923 206.128 52.7444 208.195 54.3633 210.76C55.6965 212.876 56.6834 215.191 57.2865 217.619C57.3777 217.898 57.4461 218.2 57.5054 218.502Z" fill="#9FB26B"/>
<path d="M55.5485 219.014C55.3844 218.74 55.2156 218.465 55.0424 218.196C54.51 217.371 53.9362 216.574 53.3231 215.809C51.4994 213.522 49.2738 211.59 46.7563 210.106C43.9198 208.456 40.9602 208.19 37.8273 207.907C34.813 207.637 31.6938 207.354 28.7068 205.726C25.9706 204.23 23.8683 201.391 21.8299 198.647C19.7915 195.904 17.7029 193.091 15.0533 191.72C11.0859 189.662 4.21814 189.817 2.20706 189.913L2.16602 188.999C4.81553 188.875 11.4188 188.802 15.4729 190.906C18.3094 192.373 20.4892 195.286 22.5595 198.098C24.5387 200.764 26.5863 203.522 29.1446 204.921C31.9446 206.462 34.968 206.75 37.8912 206.997C40.983 207.276 44.1843 207.564 47.1941 209.315C49.8109 210.851 52.1222 212.859 54.0117 215.237C54.6496 216.024 55.2419 216.847 55.7857 217.702C55.9681 217.976 56.1414 218.26 56.3147 218.548L55.5485 219.014Z" fill="white"/>
<path d="M60.6466 180.923C59.3104 185.084 57.9651 190.325 61.1847 193.27C62.5117 194.477 64.3769 194.971 65.7176 196.141C68.0297 198.121 68.4538 201.629 67.7241 204.587C66.694 208.581 65.4487 212.516 63.9938 216.376C63.8707 216.709 63.7476 217.043 63.629 217.372L53.1404 219.293C53.1677 218.982 53.1997 218.662 53.2407 218.346C53.3593 217.432 53.5098 216.49 53.6967 215.525C53.9567 213.952 54.2348 212.324 54.399 210.751C54.855 206.027 54.2668 201.725 48.7716 200.444C46.4049 199.891 43.6961 200.737 41.6166 199.475C38.3423 197.472 39.5006 192.529 38.6615 188.779C37.8817 185.258 35.0589 182.515 31.926 180.745C28.7931 178.975 25.2908 178.001 21.9664 176.63C14.6471 173.593 7.98459 168.399 4.46406 161.279C0.943537 154.159 1.02106 145.046 5.75918 138.685C10.4973 132.325 20.1514 129.768 26.8687 133.975C34.0465 138.466 36.6231 148.901 44.6127 151.69C47.5951 152.733 50.9104 152.499 53.8883 153.551C58.7997 155.298 61.9599 160.378 62.7306 165.545C63.5013 170.712 62.2381 175.976 60.6466 180.923Z" fill="#9FB26B"/>
<path d="M57.5325 218.407V217.492C57.5325 216.162 57.61 214.771 57.7012 213.299C57.9977 208.763 58.2986 204.067 55.3527 201.369C50.0947 196.554 48.7722 191.368 47.4726 186.361C45.7579 179.68 43.9885 172.776 32.7338 166.337C31.539 165.651 30.2758 164.965 29.0582 164.316C19.8191 159.323 9.34415 153.662 7.73438 136.103L8.64643 136.016C10.2106 153.09 20.0152 158.385 29.496 163.507C30.7181 164.17 31.9813 164.851 33.1898 165.542C44.782 172.172 46.6016 179.26 48.3573 186.119C49.6661 191.217 50.8973 196.032 55.9547 200.66C59.2244 203.655 58.9052 208.571 58.5996 213.326C58.5039 214.781 58.4172 216.152 58.4309 217.442V218.356L57.5325 218.407Z" fill="white"/>
<path d="M21.7749 177.037C13.6348 173.663 7.33712 168.134 4.04004 161.49L4.85633 161.083C8.04852 167.549 14.1912 172.922 22.1261 176.214L21.7749 177.037Z" fill="#633F3F"/>
<path d="M52.6396 219.874L52.6898 219.275C52.7171 218.96 52.7536 218.635 52.7947 218.315C52.9224 217.309 53.0956 216.266 53.2507 215.471L53.3191 215.059C53.5562 213.633 53.8025 212.156 53.9484 210.729C54.368 206.581 54.0715 202.169 48.6722 200.911C47.7415 200.74 46.7948 200.672 45.8494 200.71C44.3171 200.71 42.7438 200.71 41.3849 199.887C38.9178 198.378 38.7627 195.406 38.6077 192.53C38.5782 191.312 38.4501 190.1 38.2246 188.903L39.1367 188.702C39.3745 189.948 39.5103 191.211 39.5425 192.479C39.6885 195.223 39.8253 197.848 41.8819 199.105C43.022 199.8 44.4038 199.805 45.8676 199.796C46.8854 199.755 47.9044 199.832 48.9048 200.024C55.0246 201.451 55.3119 206.54 54.8787 210.82C54.7282 212.274 54.482 213.77 54.2403 215.21L54.1719 215.622C54.0396 216.408 53.8709 217.451 53.7432 218.429C53.7432 218.539 53.7158 218.649 53.7067 218.759L63.338 216.994L63.6116 216.239C65.0582 212.397 66.2988 208.48 67.3282 204.505C67.9393 201.936 67.7843 198.483 65.4677 196.512C64.8109 195.996 64.0998 195.553 63.3471 195.191C62.4775 194.776 61.6639 194.252 60.9256 193.632L61.5413 192.955C62.2218 193.523 62.971 194.002 63.7712 194.381C64.5825 194.773 65.3473 195.255 66.0514 195.817C68.6735 198.058 68.8833 201.885 68.2084 204.716C67.1725 208.726 65.9227 212.678 64.4644 216.555L64.0084 217.798L52.6396 219.874Z" fill="#633F3F"/>
<path d="M61.0802 181.066L60.2138 180.787C61.6685 176.246 63.0457 170.891 62.2613 165.601C61.4405 160.086 58.0841 155.541 53.7154 153.968C52.2307 153.506 50.7025 153.2 49.1551 153.053C47.5565 152.904 45.9777 152.588 44.4443 152.111L44.7408 151.247C46.2152 151.706 47.7326 152.012 49.2691 152.162C50.8821 152.315 52.4747 152.637 54.0209 153.122C58.7043 154.782 62.2932 159.633 63.1415 165.468C63.976 170.946 62.5669 176.434 61.0802 181.066Z" fill="#633F3F"/>
<path d="M2.44916 149.711L1.53711 149.669C1.65737 145.61 2.99555 141.682 5.37686 138.398C10.4479 131.584 20.3938 129.376 27.0929 133.573C30.3899 135.636 32.7385 138.924 35.0095 142.102C35.8167 143.231 36.6512 144.388 37.5085 145.481L36.7926 146.052C35.9216 144.95 35.0825 143.766 34.2662 142.632C32.0499 139.527 29.7515 136.317 26.6095 134.346C20.2981 130.395 10.9085 132.517 6.08826 138.946C3.82249 142.085 2.55417 145.837 2.44916 149.711Z" fill="#633F3F"/>
<path d="M30.2166 215.819C29.9668 215.818 29.7171 215.805 29.4688 215.777L29.5782 214.863C31.3293 215.078 32.9847 214.374 34.7404 213.633C35.7702 213.159 36.8381 212.774 37.9326 212.48L38.1424 213.395C37.094 213.678 36.0706 214.046 35.0824 214.497C33.5319 215.142 31.9267 215.819 30.2166 215.819Z" fill="#633F3F"/>
<path d="M2.62211 202.041C-0.971379 198.922 -0.50623 193.243 1.81039 189.237C2.12911 188.691 2.48409 188.167 2.87293 187.669C4.60245 185.489 6.81263 183.742 9.32963 182.565C11.8466 181.387 14.6018 180.811 17.3784 180.882C20.155 180.953 22.8774 181.669 25.3313 182.973C27.7853 184.278 29.9039 186.136 31.5206 188.4L30.7772 188.931C29.2429 186.781 27.232 185.018 24.9029 183.78C22.5738 182.542 19.9899 181.863 17.3546 181.796C14.7192 181.729 12.1044 182.276 9.71571 183.394C7.32706 184.513 5.22977 186.171 3.58889 188.24C3.22508 188.701 2.89439 189.187 2.59931 189.694C0.474226 193.353 -4.21685e-05 198.543 3.21951 201.337L2.62211 202.041Z" fill="#633F3F"/>
<path d="M158.574 241.005C243.311 241.005 312.004 236.483 312.004 230.904C312.004 225.325 243.311 220.803 158.574 220.803C73.8366 220.803 5.14355 225.325 5.14355 230.904C5.14355 236.483 73.8366 241.005 158.574 241.005Z" fill="#E4EDFC"/>
<path d="M234.576 130.094L240.217 132.586C240.45 132.348 240.673 132.129 240.915 131.895C241.253 131.581 241.609 131.288 241.982 131.017C245.671 128.37 250.742 127.172 254.792 129.216C257.455 130.556 259.571 133.185 262.544 133.523C267.387 134.072 270.57 128.384 275.19 126.838C280.452 125.082 286.659 129.01 291.58 126.445C295.524 124.392 296.418 119.096 295.109 114.729C294.934 114.145 294.717 113.573 294.462 113.019C293.315 110.56 291.615 108.401 289.495 106.713C287.375 105.025 284.893 103.852 282.245 103.289C279.597 102.726 276.854 102.786 274.233 103.466C271.612 104.146 269.185 105.427 267.141 107.207C262.845 110.948 260.082 116.943 254.596 118.456C251.946 119.188 249.123 118.689 246.387 119.197C244.062 119.654 241.59 121.168 239.419 123.29C237.632 125.033 236.136 127.052 234.987 129.271C234.836 129.545 234.704 129.819 234.576 130.094Z" fill="#9FB26B"/>
<path d="M236.359 131.054L235.707 130.418C235.94 130.176 236.163 129.961 236.418 129.709C237.142 129.009 237.903 128.35 238.699 127.734C240.824 126.092 243.291 125.027 245.68 124.002L246.652 123.582C250.163 122.05 253.46 122.461 256.648 122.864C259.753 123.248 262.964 123.65 266.393 122.242C268.906 121.209 270.953 119.379 272.891 117.614C275.263 115.479 277.712 113.27 281.032 112.447C284.826 111.505 290.941 113.046 295.209 114.276L294.954 115.154C292.551 114.455 285.245 112.328 281.246 113.325C278.149 114.093 275.892 116.128 273.493 118.282C271.478 120.111 269.389 121.986 266.731 123.079C263.082 124.579 259.749 124.163 256.529 123.76C253.31 123.358 250.291 122.978 247.007 124.409L246.031 124.83C243.587 125.882 241.28 126.874 239.25 128.447C238.474 129.043 237.733 129.682 237.029 130.363C236.811 130.596 236.583 130.825 236.359 131.054Z" fill="white"/>
<path d="M240.221 92.8212C240.559 97.1744 240.677 102.584 236.838 104.71C235.269 105.574 233.363 105.625 231.767 106.448C229.062 107.82 227.858 111.144 227.858 114.194C227.938 118.323 228.243 122.445 228.77 126.54L228.894 127.597L238.648 131.909C238.694 131.598 238.73 131.282 238.767 130.962C238.862 130.048 238.935 129.092 239.004 128.118C239.113 126.527 239.218 124.885 239.423 123.312C240.053 118.607 241.64 114.56 247.281 114.596C249.711 114.596 252.155 116.064 254.468 115.319C258.116 114.135 258.116 109.059 259.817 105.607C261.39 102.364 264.774 100.348 268.23 99.3602C271.687 98.3725 275.322 98.2262 278.874 97.6637C286.7 96.4154 294.379 92.9081 299.455 86.8081C304.53 80.7081 306.564 71.8233 303.427 64.5299C300.289 57.2364 291.492 52.5036 283.986 55.0324C275.965 57.7257 271.04 67.2781 262.626 68.1332C259.479 68.4533 256.31 67.4518 253.172 67.7811C247.987 68.3344 243.737 72.5413 241.772 77.3838C239.806 82.2262 239.825 87.6129 240.221 92.8212Z" fill="#9FB26B"/>
<path d="M233.29 128.118L232.405 127.899C232.711 126.669 232.962 125.338 233.226 123.925C234.102 119.27 235.096 113.988 238.571 111.245C246.264 105.177 247.851 99.4152 249.383 93.8456C250.861 88.5504 252.229 83.5525 259.069 79.4919C261.263 78.1933 265.454 77.7817 270.269 77.3016C281.469 76.1996 296.81 74.686 301.197 61.2285L302.063 61.5166C297.503 75.5365 281.811 77.0867 270.36 78.2161C265.631 78.6734 261.554 79.0804 259.53 80.2784C252.999 84.1332 251.736 88.7379 250.268 94.0697C248.772 99.5158 247.076 105.689 239.141 111.949C235.949 114.478 234.977 119.576 234.124 124.076C233.855 125.521 233.605 126.865 233.29 128.118Z" fill="white"/>
<path d="M278.933 98.0896L278.787 97.1751C287.269 95.8032 294.479 92.0216 299.089 86.4795L299.787 87.0648C295.035 92.7944 287.629 96.7041 278.933 98.0896Z" fill="#5E3B3B"/>
<path d="M239.004 132.536L228.469 127.881L228.314 126.568C227.789 122.457 227.484 118.32 227.402 114.176C227.402 111.263 228.497 107.592 231.561 106.023C232.378 105.637 233.237 105.347 234.12 105.159C234.986 104.975 235.825 104.683 236.619 104.29L237.075 105.09C236.207 105.524 235.288 105.844 234.339 106.041C233.523 106.218 232.729 106.485 231.972 106.837C229.272 108.209 228.324 111.533 228.324 114.176C228.41 118.284 228.715 122.384 229.236 126.459L229.331 127.254L238.288 131.214L238.329 130.88C238.434 129.893 238.507 128.85 238.561 128.054L238.589 127.652C238.689 126.189 238.794 124.675 238.985 123.221C239.551 118.973 241.006 114.108 247.226 114.108H247.299C248.316 114.154 249.324 114.316 250.304 114.592C251.727 114.935 253.072 115.26 254.34 114.853C256.62 114.108 257.372 111.606 258.152 108.954C258.477 107.728 258.901 106.531 259.42 105.374L260.241 105.776C259.743 106.887 259.337 108.037 259.028 109.215C258.211 111.958 257.368 114.83 254.618 115.722C253.109 116.211 251.572 115.841 250.09 115.484C249.178 115.226 248.24 115.073 247.294 115.027H247.212C241.74 115.027 240.426 119.229 239.875 123.345C239.688 124.771 239.583 126.271 239.482 127.721L239.455 128.123C239.405 128.928 239.327 129.98 239.223 130.986C239.186 131.31 239.145 131.635 239.095 131.95L239.004 132.536Z" fill="#5E3B3B"/>
<path d="M239.766 92.8536C239.396 87.9974 239.31 82.3364 241.357 77.1966C243.555 71.7094 248.17 67.8317 253.109 67.3059C254.725 67.1915 256.348 67.2498 257.952 67.4796C259.48 67.6948 261.027 67.7531 262.567 67.6534L262.658 68.5679C261.056 68.6762 259.446 68.6164 257.856 68.3896C256.316 68.169 254.757 68.1123 253.205 68.2204C248.599 68.7097 244.276 72.3679 242.201 77.5396C240.213 82.5056 240.313 88.034 240.678 92.7896L239.766 92.8536Z" fill="#5E3B3B"/>
<path d="M304.955 76.1811L304.042 76.0073C304.833 72.2117 304.461 68.2653 302.975 64.6853C299.783 57.3004 291.155 53.066 284.096 55.4393C280.584 56.6236 277.611 59.2118 274.734 61.7176C273.676 62.6321 272.586 63.5878 271.482 64.4612L270.926 63.7342C272.011 62.8791 273.092 61.9371 274.141 61.0271C277.087 58.4618 280.128 55.8142 283.813 54.575C291.306 52.0555 300.463 56.5184 303.819 64.324C305.379 68.0716 305.775 72.2042 304.955 76.1811Z" fill="#5E3B3B"/>
<path d="M262.476 133.975C260.483 133.747 258.869 132.558 257.305 131.406C256.445 130.734 255.529 130.138 254.568 129.622L254.979 128.804C255.979 129.345 256.932 129.969 257.829 130.669C259.361 131.799 260.811 132.869 262.563 133.065L262.476 133.975Z" fill="#5E3B3B"/>
<path d="M291.771 126.852L291.351 126.043C295.131 124.072 295.87 118.927 294.653 114.858C294.484 114.295 294.275 113.745 294.028 113.211C292.911 110.817 291.256 108.714 289.191 107.07C287.127 105.426 284.71 104.285 282.131 103.737C279.552 103.188 276.881 103.248 274.329 103.91C271.777 104.573 269.413 105.821 267.423 107.555L266.821 106.865C268.917 105.038 271.406 103.724 274.094 103.026C276.782 102.327 279.595 102.264 282.311 102.84C285.027 103.416 287.574 104.616 289.749 106.346C291.925 108.076 293.67 110.288 294.849 112.809C295.115 113.384 295.341 113.977 295.524 114.583C296.855 119.023 296.007 124.652 291.771 126.852Z" fill="#5E3B3B"/>
<path d="M251.749 122.055L170.695 170.864L89.7412 122.064L251.749 122.055Z" fill="#5E3B3B"/>
<path d="M252.151 122.068L175.616 63.9901C174.187 62.8987 172.44 62.3076 170.643 62.3076C168.847 62.3076 167.1 62.8987 165.67 63.9901L89.3359 122.063L252.151 122.068Z" fill="#5E3B3B"/>
<path d="M234.604 108.757L175.617 63.9901C174.187 62.8987 172.44 62.3076 170.644 62.3076C168.847 62.3076 167.1 62.8987 165.671 63.9901L96.4639 116.645L234.604 108.757Z" fill="#633F3F"/>
<path d="M104.367 37.7065V37.4962C104.367 32.8028 102.507 28.3017 99.1978 24.983C95.8881 21.6642 91.3992 19.7998 86.7186 19.7998C82.038 19.7998 77.5491 21.6642 74.2394 24.983C70.9297 28.3017 69.0703 32.8028 69.0703 37.4962V37.7065H104.367Z" fill="#5E3B3B"/>
<path d="M241.607 211.986H122.79C118.109 211.986 113.62 210.122 110.31 206.803C107.001 203.484 105.141 198.983 105.141 194.29L104.32 37.4962C104.32 32.806 102.464 28.3076 99.1578 24.9894C95.8521 21.6712 91.3679 19.8047 86.6904 19.7998H219.143C221.461 19.7998 223.756 20.2575 225.897 21.1469C228.038 22.0362 229.984 23.3397 231.623 24.983C233.261 26.6262 234.561 28.577 235.448 30.7241C236.335 32.8711 236.792 35.1723 236.792 37.4962L237.635 165.857V194.29C237.608 204.062 231.862 211.986 241.607 211.986Z" fill="white"/>
<path d="M135.969 173.781H121.49V174.467H135.969V173.781Z" fill="#5E3B3B"/>
<path d="M193.196 173.781H143.102V174.467H193.196V173.781Z" fill="#5E3B3B"/>
<path d="M135.969 78.9932H121.49V79.6791H135.969V78.9932Z" fill="#5E3B3B"/>
<path d="M184.969 78.9932H143.102V79.6791H184.969V78.9932Z" fill="#5E3B3B"/>
<path d="M157.202 85.1807H121.49V85.8666H157.202V85.1807Z" fill="#5E3B3B"/>
<path d="M135.969 148.083H121.49V148.769H135.969V148.083Z" fill="#5E3B3B"/>
<path d="M193.196 148.083H143.102V148.769H193.196V148.083Z" fill="#5E3B3B"/>
<path d="M157.202 154.27H121.49V154.955H157.202V154.27Z" fill="#5E3B3B"/>
<path d="M208.888 154.27H164.124V154.955H208.888V154.27Z" fill="#5E3B3B"/>
<path d="M144.597 134.954H121.49V135.64H144.597V134.954Z" fill="#5E3B3B"/>
<path d="M158.369 141.142H121.49V141.828H158.369V141.142Z" fill="#5E3B3B"/>
<path d="M181.454 141.142H165.401V141.828H181.454V141.142Z" fill="#5E3B3B"/>
<path d="M158.369 72.7246H121.49V73.4105H158.369V72.7246Z" fill="#5E3B3B"/>
<path d="M181.91 72.7246H165.857V73.4105H181.91V72.7246Z" fill="#5E3B3B"/>
<path d="M167.485 134.954H151.433V135.64H167.485V134.954Z" fill="#5E3B3B"/>
<path d="M214.51 134.954H174.394V135.64H214.51V134.954Z" fill="#5E3B3B"/>
<path d="M144.597 160.64H121.49V161.326H144.597V160.64Z" fill="#5E3B3B"/>
<path d="M158.369 166.826H121.49V167.512H158.369V166.826Z" fill="#5E3B3B"/>
<path d="M181.454 166.826H165.401V167.512H181.454V166.826Z" fill="#5E3B3B"/>
<path d="M167.485 160.64H151.433V161.326H167.485V160.64Z" fill="#5E3B3B"/>
<path d="M214.51 160.64H174.394V161.326H214.51V160.64Z" fill="#5E3B3B"/>
<path d="M214.141 72.7246H189.114V73.4105H214.141V72.7246Z" fill="#5E3B3B"/>
<path d="M166.846 47.4834H121.472V53.3822H166.846V47.4834Z" fill="#5E3B3B"/>
<path d="M166.846 56.9717H121.472V59.1117H166.846V56.9717Z" fill="#5E3B3B"/>
<path d="M226.878 91.71H121.49V128.836H226.878V91.71Z" fill="#DCE7F9"/>
<path d="M237.098 166.09L236.268 37.7343C236.261 33.1669 234.448 28.7886 231.227 25.5589C228.006 22.3293 223.64 20.5116 219.085 20.5044V19.5898C223.885 19.5959 228.486 21.5104 231.88 24.9136C235.274 28.3168 237.183 32.9307 237.189 37.7435L238.01 166.099L237.098 166.09Z" fill="#5E3B3B"/>
<path d="M123.437 212.627H122.717C117.924 212.628 113.326 210.723 109.932 207.329C106.538 203.935 104.625 199.33 104.613 194.523L103.796 37.7344C103.788 33.1673 101.975 28.7897 98.7542 25.5603C95.5336 22.3309 91.1679 20.5128 86.6133 20.5044V19.5898H165.556V20.5044H92.2954C95.9088 21.7069 99.0533 24.0188 101.284 27.1128C103.514 30.2068 104.717 33.9259 104.722 37.7435L105.538 194.537C105.553 199.096 107.369 203.464 110.589 206.683C113.809 209.903 118.17 211.711 122.717 211.712H123.424C134.081 211.712 138.277 202.283 139.918 194.377L140.83 194.565C138.368 206.38 132.357 212.627 123.437 212.627Z" fill="#5E3B3B"/>
<path d="M55.3534 23.7239L54.916 24.5264L61.7707 28.2832L62.2081 27.4807L55.3534 23.7239Z" fill="#5E3B3B"/>
<path d="M61.4895 31.9757L53.6777 32.6807L53.7598 33.5952L61.5716 32.8902L61.4895 31.9757Z" fill="#5E3B3B"/>
<path d="M251.85 122.063V216.417C251.862 217.426 251.676 218.428 251.301 219.366C250.927 220.303 250.372 221.157 249.668 221.879C248.964 222.601 248.125 223.177 247.199 223.573C246.273 223.97 245.278 224.18 244.271 224.19H97.3164C96.3099 224.179 95.3155 223.969 94.39 223.572C93.4645 223.175 92.6261 222.599 91.9227 221.877C91.2192 221.155 90.6645 220.302 90.2903 219.365C89.9161 218.428 89.7297 217.426 89.7418 216.417V122.063L170.796 170.877L251.85 122.063Z" fill="#AFCAF9"/>
<path d="M199.694 184.418L175.748 166.538C174.288 165.448 172.515 164.858 170.693 164.858C168.872 164.858 167.099 165.448 165.638 166.538L105.352 211.657L199.694 184.418Z" fill="#AFCAF9"/>
<path d="M124.906 197.6L124.363 196.868L165.365 166.181C166.908 165.038 168.775 164.422 170.693 164.422C172.611 164.422 174.479 165.038 176.022 166.181L199.968 184.056L199.421 184.792L175.475 166.917C174.089 165.888 172.411 165.333 170.686 165.333C168.962 165.333 167.284 165.888 165.898 166.917L124.906 197.6Z" fill="#5E3B3B"/>
<path d="M171.439 224.635H97.3163C95.163 224.61 93.1074 223.73 91.6014 222.186C90.0955 220.643 89.2625 218.563 89.2856 216.404V158.449H90.1977V216.417C90.1746 218.334 90.9114 220.181 92.2463 221.553C93.5812 222.925 95.4049 223.71 97.3163 223.734H171.439V224.635Z" fill="#633F3F"/>
<path d="M244.271 224.634H235.15V223.72H244.271C246.183 223.696 248.007 222.912 249.342 221.54C250.678 220.168 251.416 218.321 251.394 216.404V173.768H252.306V216.417C252.326 218.575 251.49 220.652 249.984 222.193C248.477 223.733 246.423 224.611 244.271 224.634Z" fill="#5E3B3B"/>
<path d="M164.188 167.215L90.1611 122.873V146.322H89.249V121.259L164.658 166.428L164.188 167.215Z" fill="#5E3B3B"/>
<path d="M171.968 9.78541V28.9085C171.968 31.8304 172.018 42.7043 172.018 42.7043L182.101 34.222H207.725C209.141 34.2378 210.505 33.6896 211.518 32.6977C212.532 31.7057 213.111 30.3511 213.129 28.9313V9.78541C213.11 8.36642 212.53 7.01301 211.517 6.02205C210.504 5.03109 209.14 4.48349 207.725 4.49936H177.372C175.957 4.48349 174.593 5.03109 173.58 6.02205C172.567 7.01301 171.987 8.36642 171.968 9.78541Z" fill="#5E3B3B"/>
<path d="M172.465 5.74765V24.8707C172.465 27.7927 172.515 38.6666 172.515 38.6666L182.352 30.1613H207.36C208.053 30.1613 208.739 30.0245 209.379 29.7586C210.019 29.4927 210.601 29.103 211.091 28.6118C211.581 28.1205 211.969 27.5372 212.235 26.8954C212.5 26.2535 212.636 25.5655 212.636 24.8707V5.74765C212.636 5.05288 212.5 4.36491 212.235 3.72302C211.969 3.08113 211.581 2.4979 211.091 2.00662C210.601 1.51534 210.019 1.12563 209.379 0.859756C208.739 0.593878 208.053 0.457031 207.36 0.457031H177.718C176.323 0.463078 174.987 1.02315 174.002 2.01468C173.018 3.00621 172.465 4.34845 172.465 5.74765Z" fill="#FFC76C"/>
<path d="M190.952 20.1561L194.19 20.1469L196.041 4.65918L189.055 4.66833L190.952 20.1561Z" fill="white"/>
<path d="M194.605 23.7049C194.605 24.1128 194.484 24.5115 194.258 24.8506C194.032 25.1898 193.711 25.4541 193.335 25.6102C192.959 25.7663 192.546 25.8071 192.147 25.7275C191.748 25.648 191.381 25.4515 191.094 25.1631C190.806 24.8747 190.61 24.5073 190.531 24.1072C190.451 23.7072 190.492 23.2925 190.648 22.9157C190.803 22.5388 191.067 22.2167 191.405 21.9901C191.743 21.7635 192.141 21.6426 192.548 21.6426C193.093 21.6426 193.616 21.8599 194.002 22.2466C194.388 22.6334 194.605 23.1579 194.605 23.7049Z" fill="white"/>
<path d="M172.009 39.6637V5.74789C172.01 4.22462 172.614 2.76402 173.687 1.68647C174.761 0.608925 176.217 0.00242126 177.736 0H207.378C208.898 0.00241857 210.354 0.608775 211.429 1.68619C212.503 2.76361 213.108 4.2242 213.11 5.74789V24.871C213.108 26.3947 212.503 27.8552 211.429 28.9327C210.354 30.0101 208.898 30.6164 207.378 30.6189H182.52L172.009 39.6637ZM177.736 0.914542C176.459 0.915754 175.234 1.42552 174.331 2.33181C173.428 3.23811 172.921 4.4668 172.921 5.74789V37.6745L182.183 29.7043H207.36C208.638 29.7031 209.863 29.1935 210.767 28.2873C211.671 27.3812 212.179 26.1525 212.18 24.871V5.74789C212.179 4.46638 211.671 3.2377 210.767 2.33154C209.863 1.42537 208.638 0.915752 207.36 0.914542H177.736Z" fill="#633F3F"/>
<path d="M245.191 15.2886L238.29 18.96L238.718 19.7678L245.618 16.0965L245.191 15.2886Z" fill="#5E3B3B"/>
<path d="M238.624 9.05893L234.931 15.9609L235.734 16.3934L239.428 9.49138L238.624 9.05893Z" fill="#5E3B3B"/>
<path d="M218.483 145.879L219.796 143.936L222.359 145.609L221.251 147.626C221.011 148.051 220.911 148.54 220.963 149.025C221.132 150.015 221.247 151.013 221.31 152.016C221.274 152.445 220.184 154.544 219.796 154.759C219.532 154.892 219.098 154.604 219.098 154.604C219.098 154.604 219.915 150.516 219.449 149.697C219.182 149.264 218.886 148.848 218.565 148.453C218.277 148.09 218.114 147.644 218.099 147.18C218.084 146.716 218.219 146.26 218.483 145.879Z" fill="#FFB789"/>
<path d="M201.633 111.419L203.913 110.582L205.851 103.627L210.758 103.654L211.985 110.934L215.332 111.771C214.523 112.878 213.465 113.778 212.244 114.398C211.023 115.018 209.673 115.34 208.304 115.338C202.522 115.338 201.633 111.419 201.633 111.419Z" fill="#FFB284"/>
<path d="M209.672 105.762C207.848 107.134 204.72 107.134 203.119 106.709C201.432 106.288 199.676 105.241 201.979 100.399C203.561 97.065 203.429 96.1917 204.081 94.6964C204.51 93.7178 205.595 93.0365 207.593 93.2331C210.972 93.5623 215.651 101.299 209.672 105.762Z" fill="#FFB284"/>
<path d="M222.053 147.433C222.053 147.433 231.032 140.574 231.789 133.194C232.314 128.1 225.437 116.274 220.389 113.023C218.756 111.972 215.372 110.467 213.548 110.28C210.689 109.996 208.076 109.937 202.845 110.591C200.825 110.847 199.626 110.499 196.461 112.465C192.425 114.985 184.946 124.857 184.946 124.857L196.803 129.394L214.287 123.618L222.473 133.907L217.817 144.424C219.359 145.228 220.785 146.24 222.053 147.433Z" fill="#F75D59"/>
<path d="M197.291 228.128C197.341 233.327 196.087 236.359 196.087 236.359H177.166C177.166 236.359 178.575 233.08 185.58 232.307C186.718 232.236 187.799 231.784 188.649 231.022C189.499 230.261 190.069 229.235 190.268 228.109L197.291 228.128Z" fill="#4A292F"/>
<path d="M224.721 228.128C225.4 230.826 225.835 233.581 226.02 236.359H206.411C206.411 236.359 207.82 233.08 214.829 232.307C219.034 231.85 217.698 228.109 217.698 228.109L224.721 228.128Z" fill="#4A292F"/>
<path d="M209.987 140.826C212.093 140.862 214.199 140.751 216.289 140.492C216.289 140.492 223.44 152.907 216.289 159.432L228.146 228.233C228.146 228.233 224.808 232.303 205.313 229.253L203.657 175.194L209.987 140.826Z" fill="#5E3B3B"/>
<path d="M210.931 229.985C209.23 229.811 207.364 229.568 205.321 229.248L203.666 175.19L203.949 173.64L206.407 171.02L210.931 229.985Z" fill="#4A292F"/>
<path d="M207.009 142.823C207.009 142.823 197.341 140.642 197.341 140.958C197.341 141.273 190.045 165.326 184.969 188.18C182.105 201.498 180.093 214.986 178.945 228.562C188.043 233.134 201.222 229.581 201.222 229.581L200.141 190.11L210.539 159.436C210.539 159.436 216.663 155.197 212.395 140.624L207.009 142.823Z" fill="#77B6F3"/>
<path d="M209.958 144.995L203.464 175.166L203.91 175.262L210.404 145.092L209.958 144.995Z" fill="white"/>
<path d="M217.926 230.729C213.681 230.675 209.445 230.294 205.258 229.591L205.363 228.914C222.541 231.603 227.065 228.694 227.772 228.109L215.915 159.304L216.052 159.176C222.892 152.916 216.052 140.784 215.988 140.665L216.576 140.322C216.649 140.446 223.69 152.888 216.649 159.555L228.506 228.329L228.406 228.452C228.319 228.562 226.417 230.729 217.926 230.729Z" fill="white"/>
<path d="M197.341 140.958C197.341 141.223 189.589 164.599 184.969 188.181C180.897 208.991 178.945 228.562 178.945 228.562C188.043 233.135 201.222 229.582 201.222 229.582L200.141 190.11L210.539 159.436C210.539 159.436 217.224 154.713 212.956 140.14C212.956 140.135 197.341 140.643 197.341 140.958Z" fill="#5E3B3B"/>
<path d="M190.455 231.224C186.625 231.224 182.384 230.675 178.79 228.864L179.1 228.251C187.277 232.367 198.983 229.77 200.871 229.312L199.786 190.056L199.808 189.996L210.238 159.213L210.333 159.149C210.379 159.117 214.821 155.865 213.193 145.668L213.868 145.559C215.459 155.513 211.51 159.098 210.817 159.643L200.483 190.152L201.573 229.829L201.313 229.898C197.758 230.761 194.114 231.206 190.455 231.224Z" fill="white"/>
<path d="M194.92 108.424C195.061 108.021 195.472 106.713 195.786 106.453C196.101 106.192 197.834 105.081 197.547 104.715C197.259 104.349 196.215 105.346 196.028 104.989C195.914 104.765 197.912 102.703 197.396 102.383C197.068 102.173 196.028 103.608 195.9 103.435C195.773 103.261 197.424 101.811 196.949 101.473C196.475 101.135 195.732 102.973 195.513 102.795C195.403 102.708 196.712 100.965 196.32 100.723C195.796 100.371 194.797 102.552 194.546 102.397C194.427 102.328 194.911 101.638 195.153 101.185C195.28 100.933 195.102 100.769 194.943 100.869C193.297 101.907 192.439 105.36 192.229 105.62C191.915 106.005 191.614 106.389 191.317 106.773L194.92 108.424Z" fill="#FFB789"/>
<path d="M196.137 141.397L199.179 143.121L201.856 142.38L204.341 144.269L216.526 141.31L219.673 138.109L218.761 136.248L220.963 131.918C220.963 131.918 220.845 123.595 220.562 120.436L194.568 125.036L196.137 141.397Z" fill="#F75D59"/>
<path d="M212.892 136.244L212.222 136.106C212.907 132.727 213.417 129.314 213.749 125.882L214.433 125.95C214.097 129.406 213.583 132.841 212.892 136.244Z" fill="#633F3F"/>
<path d="M204.469 111.094L197.173 127.908C197.173 127.908 188.367 136.089 183.492 134.054C179.283 132.284 178.562 128.772 179.866 125.155C181.394 120.898 190.902 106.146 190.902 106.146C192.494 107.354 194.095 108.25 195.677 108.483L191.627 122.631L204.469 111.094Z" fill="#F75D59"/>
<path d="M217.944 140.382L217.456 139.902L219.28 138.036L218.368 136.207L218.468 136.047C219.262 134.766 220.543 132.498 220.621 131.858C220.863 129.819 220.735 125.68 220.621 122.658C220.598 121.821 220.575 121.053 220.562 120.422H221.246C221.246 121.053 221.282 121.821 221.305 122.658C221.401 125.699 221.528 129.865 221.282 131.954C221.173 132.869 219.586 135.521 219.13 136.262L220.074 138.169L217.944 140.382Z" fill="#633F3F"/>
<path d="M185.266 125.063L184.714 124.661C185.019 124.245 192.165 114.528 196.338 112.173L196.671 112.767C192.626 115.054 185.339 124.967 185.266 125.063Z" fill="#633F3F"/>
<path d="M196.625 112.662L196.384 112.278C198.851 110.705 200.707 110.549 202.499 110.399L202.855 110.371L202.891 110.828L202.536 110.86C200.798 111.002 199.001 111.148 196.625 112.662Z" fill="#633F3F"/>
<path d="M194.168 130.798L193.789 130.222C194.918 129.483 195.968 128.63 196.922 127.675L197.419 128.132C196.434 129.135 195.344 130.029 194.168 130.798Z" fill="#633F3F"/>
<path d="M207.656 91.0332C211.71 90.5531 217.648 91.9477 217.556 98.1026C217.474 103.741 211.003 105.021 211.003 105.021C211.003 105.021 209.763 103.855 210.014 101.409C210.105 100.563 209.977 99.8037 209.27 99.4333C208.978 99.282 208.647 99.2237 208.321 99.2662C207.995 99.3087 207.69 99.4499 207.446 99.6711C207.091 100.028 206.612 100.357 206.361 99.8905C205.932 99.0949 206.657 96.8131 204.943 95.7751C203.721 95.048 203.251 94.2387 203.233 93.6031C203.187 92.3501 204.541 91.3807 207.656 91.0332Z" fill="#4A292F"/>
<path d="M208.728 102.602C208.402 102.599 208.088 102.475 207.848 102.254L208.167 101.93C208.294 102.041 208.45 102.112 208.617 102.135C208.784 102.158 208.954 102.131 209.106 102.058C209.279 101.98 209.432 101.864 209.556 101.721C209.679 101.577 209.77 101.408 209.822 101.226L210.278 101.322C210.209 101.573 210.086 101.807 209.917 102.006C209.749 102.205 209.539 102.364 209.302 102.474C209.123 102.559 208.926 102.603 208.728 102.602Z" fill="#4A292F"/>
<path d="M204.97 107.299C204.783 107.301 204.595 107.29 204.409 107.267L204.5 106.585C205.664 106.694 206.83 106.408 207.811 105.771L208.203 106.334C207.246 106.972 206.12 107.308 204.97 107.299Z" fill="#633F3F"/>
<path d="M217.233 96.3151C217.233 96.3151 220.882 95.4645 222.583 97.3165C225.319 100.28 223.641 107.061 225.934 109.663C229.031 113.188 230.107 119.517 225.775 121.63C221.671 123.632 216.595 120.258 218.478 112.534C219.778 107.23 220.115 102.662 219.883 100.732C219.509 97.6183 218.766 97.5314 217.311 97.0741L217.233 96.3151Z" fill="#4A292F"/>
<path d="M203.343 110.508L204.255 107.765C206.872 108.131 209.537 107.609 211.825 106.283L212.796 110.216C212.796 110.216 206.526 111.985 203.343 110.508Z" fill="#F75D59"/>
<path d="M218.483 120.943C216.522 119.055 216.02 115.835 217.114 112.109C218.565 107.138 219.171 102.506 219.021 100.503C218.811 97.7596 218.3 97.5629 217.055 97.0965L216.836 97.0142L217.078 96.374L217.297 96.4563C218.761 97.0051 219.472 97.4029 219.705 100.453C219.855 102.456 219.312 107.019 217.771 112.301C216.754 115.776 217.187 118.744 218.961 120.449L218.483 120.943Z" fill="#4A292F"/>
<path d="M204.409 95.1174C203.497 94.6601 201.409 92.4012 203.643 91.0019C206.27 89.374 211.897 92.8036 211.897 92.8036L204.409 95.1174Z" fill="#4A292F"/>
<path d="M199.142 143.487L195.978 141.699L196.315 141.1L199.234 142.756L205.914 140.981L206.088 141.64L199.142 143.487Z" fill="#633F3F"/>
<path d="M204.273 144.64L201.778 142.751L202.189 142.207L204.428 143.899L209.941 142.614L210.096 143.277L204.273 144.64Z" fill="#633F3F"/>
<path d="M207.538 112.123C206.44 112.123 205.349 111.958 204.3 111.634L204.5 110.98C205.84 111.411 207.258 111.541 208.653 111.363C210.049 111.184 211.388 110.701 212.577 109.946L212.951 110.522C211.343 111.579 209.46 112.136 207.538 112.123Z" fill="#633F3F"/>
<path d="M211.392 107.691L210.726 107.845L211.191 109.868L211.857 109.714L211.392 107.691Z" fill="#633F3F"/>
<path d="M223.043 145.563C222.131 143.642 219.198 143.034 219.171 143.025L219.303 142.353C219.44 142.38 222.587 143.034 223.658 145.265L223.043 145.563Z" fill="#633F3F"/>
<path d="M190.92 106.15L188.681 108.034L188.476 111.83L190.92 106.15Z" fill="#F75D59"/>
<path d="M186.004 114.195L187.053 109.992L190.135 108.25L191.504 110.82L186.004 114.195Z" fill="#F75D59"/>
<path d="M194.172 110.586C191.833 110.586 190.004 108.432 189.922 108.336L190.446 107.879C190.446 107.879 192.375 110.165 194.551 109.863L194.637 110.54C194.483 110.566 194.328 110.581 194.172 110.586Z" fill="#633F3F"/>
<path d="M197.779 79.9155L196.948 80.292L200.164 87.4305L200.995 87.054L197.779 79.9155Z" fill="#633F3F"/>
<path d="M190.832 85.7048L190.351 86.4814L196.985 90.6172L197.466 89.8406L190.832 85.7048Z" fill="#633F3F"/>
<path d="M195.918 93.782L188.107 93.9229L188.124 94.8373L195.934 94.6965L195.918 93.782Z" fill="#633F3F"/>
<path d="M199.865 189.895L196.758 194.16L197.31 194.565L200.417 190.3L199.865 189.895Z" fill="white"/>
<path d="M200.894 151.708C200.353 151.735 199.813 151.649 199.307 151.456C198.801 151.263 198.34 150.968 197.953 150.588C196.493 149.093 196.644 146.674 196.653 146.573L197.333 146.619C197.333 146.642 197.2 148.841 198.445 150.113C198.807 150.456 199.24 150.715 199.712 150.873C200.185 151.031 200.686 151.084 201.181 151.027L201.218 151.713L200.894 151.708Z" fill="white"/>
<path d="M51.1708 226.779H101.334C102.799 226.776 104.204 226.193 105.243 225.157C106.281 224.121 106.869 222.715 106.879 221.246L109.159 127.267C109.154 125.798 108.57 124.39 107.534 123.351C106.497 122.311 105.093 121.726 103.628 121.721H48.9043C47.4415 121.725 46.0395 122.309 45.003 123.344C43.9664 124.379 43.379 125.782 43.3682 127.249L45.6483 221.246C45.6579 222.711 46.2429 224.113 47.2767 225.149C48.3104 226.185 49.7095 226.77 51.1708 226.779Z" fill="#5E3B3B"/>
<path d="M101.347 227.236H51.1844C49.5991 227.234 48.0791 226.602 46.9564 225.48C45.8337 224.358 45.1995 222.836 45.1922 221.246L42.9121 127.281C42.9121 125.687 43.5431 124.158 44.6666 123.029C45.7901 121.901 47.3142 121.266 48.9043 121.264H103.628C105.215 121.265 106.737 121.898 107.86 123.024C108.983 124.149 109.614 125.676 109.615 127.268L107.335 221.255C107.327 222.843 106.692 224.363 105.571 225.483C104.449 226.604 102.931 227.234 101.347 227.236ZM48.9043 122.16C47.5581 122.161 46.2674 122.698 45.315 123.652C44.3627 124.606 43.8266 125.899 43.8242 127.249L46.1043 221.218C46.1043 222.57 46.6392 223.867 47.5917 224.824C48.5441 225.781 49.8363 226.319 51.1844 226.322H101.347C102.69 226.319 103.978 225.784 104.929 224.833C105.88 223.882 106.417 222.593 106.423 221.246L108.703 127.258C108.701 125.91 108.165 124.618 107.213 123.666C106.262 122.713 104.972 122.178 103.628 122.178L48.9043 122.16Z" fill="#633F3F"/>
<path d="M55.2753 226.779H105.438C106.903 226.776 108.308 226.193 109.347 225.157C110.386 224.121 110.974 222.715 110.984 221.246L113.264 127.267C113.259 125.798 112.675 124.39 111.638 123.351C110.602 122.311 109.198 121.726 107.732 121.721H53.0088C51.5459 121.725 50.144 122.309 49.1075 123.344C48.0709 124.379 47.4835 125.782 47.4727 127.249L49.7528 221.246C49.7624 222.711 50.3474 224.113 51.3811 225.149C52.4149 226.185 53.814 226.77 55.2753 226.779Z" fill="white"/>
<path d="M61.0122 162.331H99.9478C103.086 162.331 105.63 159.78 105.63 156.633V136.038C105.63 132.891 103.086 130.34 99.9478 130.34H61.0122C57.8741 130.34 55.3301 132.891 55.3301 136.038V156.633C55.3301 159.78 57.8741 162.331 61.0122 162.331Z" fill="#DCE7F9"/>
<path d="M105.452 227.236H55.2889C53.7036 227.234 52.1836 226.602 51.0609 225.48C49.9382 224.358 49.304 222.836 49.2967 221.246L47.0166 127.281C47.0166 125.687 47.6476 124.158 48.7711 123.029C49.8946 121.901 51.4187 121.266 53.0088 121.264H107.732C109.32 121.265 110.842 121.898 111.965 123.024C113.087 124.149 113.718 125.676 113.72 127.268H112.808C112.806 125.918 112.271 124.624 111.32 123.67C110.368 122.716 109.078 122.179 107.732 122.178H53.0088C51.6658 122.179 50.3778 122.713 49.426 123.663C48.4742 124.614 47.9359 125.903 47.9287 127.249L50.2088 221.218C50.2088 222.57 50.7437 223.867 51.6962 224.824C52.6486 225.781 53.9408 226.319 55.2889 226.322H105.452C106.795 226.319 108.082 225.784 109.033 224.833C109.984 223.882 110.521 222.593 110.527 221.246L110.746 212.215L111.658 212.238L111.44 221.246C111.434 222.835 110.8 224.357 109.678 225.48C108.556 226.602 107.037 227.234 105.452 227.236Z" fill="#633F3F"/>
<path d="M99.9432 162.788H61.0122C59.385 162.786 57.8251 162.137 56.6745 160.983C55.5239 159.829 54.8764 158.265 54.874 156.633V136.056C54.8764 134.425 55.5239 132.86 56.6745 131.707C57.8251 130.553 59.385 129.904 61.0122 129.901H99.9432C101.571 129.903 103.132 130.551 104.284 131.705C105.435 132.859 106.083 134.424 106.086 136.056V156.633C106.083 158.266 105.435 159.831 104.284 160.985C103.132 162.138 101.571 162.787 99.9432 162.788ZM61.0122 130.779C59.6265 130.781 58.2979 131.333 57.3181 132.316C56.3383 133.298 55.7873 134.63 55.7861 136.02V156.597C55.7873 157.986 56.3383 159.318 57.3181 160.301C58.2979 161.283 59.6265 161.836 61.0122 161.837H99.9432C101.329 161.836 102.658 161.284 103.639 160.301C104.619 159.319 105.171 157.987 105.174 156.597V136.02C105.171 134.63 104.619 133.298 103.639 132.315C102.658 131.333 101.329 130.781 99.9432 130.779H61.0122Z" fill="#5E3B3B"/>
<path d="M46.3303 151.824L45.6465 151.841L46.8077 200.174L47.4915 200.157L46.3303 151.824Z" fill="white"/>
<path d="M95.0447 180.576H100.285C101.667 180.576 102.788 179.452 102.788 178.066V175.848C102.788 174.462 101.667 173.338 100.285 173.338H95.0447C93.662 173.338 92.5412 174.462 92.5412 175.848V178.066C92.5412 179.452 93.662 180.576 95.0447 180.576Z" fill="#AFC9F9"/>
<path d="M100.289 173.338H95.0495C93.6668 173.338 92.5459 174.462 92.5459 175.848V178.066C92.5459 179.453 93.6668 180.576 95.0495 180.576H100.289C101.672 180.576 102.793 179.453 102.793 178.066V175.848C102.793 174.462 101.672 173.338 100.289 173.338Z" fill="#F2695F"/>
<path d="M95.0447 192.364H100.285C101.667 192.364 102.788 191.24 102.788 189.854V187.636C102.788 186.25 101.667 185.126 100.285 185.126H95.0447C93.662 185.126 92.5412 186.25 92.5412 187.636V189.854C92.5412 191.24 93.662 192.364 95.0447 192.364Z" fill="#AFC9F9"/>
<path d="M95.0447 204.043H100.285C101.667 204.043 102.788 202.919 102.788 201.533V199.315C102.788 197.928 101.667 196.804 100.285 196.804H95.0447C93.662 196.804 92.5412 197.928 92.5412 199.315V201.533C92.5412 202.919 93.662 204.043 95.0447 204.043Z" fill="#AFC9F9"/>
<path d="M95.0447 215.8H100.285C101.667 215.8 102.788 214.676 102.788 213.289V211.072C102.788 209.685 101.667 208.561 100.285 208.561H95.0447C93.662 208.561 92.5412 209.685 92.5412 211.072V213.289C92.5412 214.676 93.662 215.8 95.0447 215.8Z" fill="#AFC9F9"/>
<path d="M78.4276 180.576H83.6673C85.05 180.576 86.1709 179.452 86.1709 178.066V175.848C86.1709 174.462 85.05 173.338 83.6673 173.338H78.4276C77.0449 173.338 75.924 174.462 75.924 175.848V178.066C75.924 179.452 77.0449 180.576 78.4276 180.576Z" fill="#AFCAF9"/>
<path d="M61.8055 180.576H67.0452C68.4279 180.576 69.5488 179.452 69.5488 178.066V175.848C69.5488 174.462 68.4279 173.338 67.0452 173.338H61.8055C60.4228 173.338 59.3019 174.462 59.3019 175.848V178.066C59.3019 179.452 60.4228 180.576 61.8055 180.576Z" fill="#AFCAF9"/>
<path d="M95.0447 192.364H100.285C101.667 192.364 102.788 191.24 102.788 189.854V187.636C102.788 186.25 101.667 185.126 100.285 185.126H95.0447C93.662 185.126 92.5412 186.25 92.5412 187.636V189.854C92.5412 191.24 93.662 192.364 95.0447 192.364Z" fill="#AFCAF9"/>
<path d="M78.4276 192.364H83.6673C85.05 192.364 86.1709 191.24 86.1709 189.854V187.636C86.1709 186.25 85.05 185.126 83.6673 185.126H78.4276C77.0449 185.126 75.924 186.25 75.924 187.636V189.854C75.924 191.24 77.0449 192.364 78.4276 192.364Z" fill="#AFCAF9"/>
<path d="M61.8055 192.364H67.0452C68.4279 192.364 69.5488 191.24 69.5488 189.854V187.636C69.5488 186.25 68.4279 185.126 67.0452 185.126H61.8055C60.4228 185.126 59.3019 186.25 59.3019 187.636V189.854C59.3019 191.24 60.4228 192.364 61.8055 192.364Z" fill="#AFCAF9"/>
<path d="M95.0447 204.043H100.285C101.667 204.043 102.788 202.919 102.788 201.533V199.315C102.788 197.928 101.667 196.804 100.285 196.804H95.0447C93.662 196.804 92.5412 197.928 92.5412 199.315V201.533C92.5412 202.919 93.662 204.043 95.0447 204.043Z" fill="#AFCAF9"/>
<path d="M78.4276 204.043H83.6673C85.05 204.043 86.1709 202.919 86.1709 201.533V199.315C86.1709 197.928 85.05 196.804 83.6673 196.804H78.4276C77.0449 196.804 75.924 197.928 75.924 199.315V201.533C75.924 202.919 77.0449 204.043 78.4276 204.043Z" fill="#AFCAF9"/>
<path d="M61.8055 204.043H67.0452C68.4279 204.043 69.5488 202.919 69.5488 201.533V199.315C69.5488 197.928 68.4279 196.804 67.0452 196.804H61.8055C60.4228 196.804 59.3019 197.928 59.3019 199.315V201.533C59.3019 202.919 60.4228 204.043 61.8055 204.043Z" fill="#AFCAF9"/>
<path d="M61.8055 215.8H67.0452C68.4279 215.8 69.5488 214.676 69.5488 213.289V211.072C69.5488 209.685 68.4279 208.561 67.0452 208.561H61.8055C60.4228 208.561 59.3019 209.685 59.3019 211.072V213.289C59.3019 214.676 60.4228 215.8 61.8055 215.8Z" fill="#AFCAF9"/>
<path d="M95.0447 215.8H100.285C101.667 215.8 102.788 214.676 102.788 213.289V211.072C102.788 209.685 101.667 208.561 100.285 208.561H95.0447C93.662 208.561 92.5412 209.685 92.5412 211.072V213.289C92.5412 214.676 93.662 215.8 95.0447 215.8Z" fill="#AFCAF9"/>
<path d="M78.4276 215.8H83.6673C85.05 215.8 86.1709 214.676 86.1709 213.289V211.072C86.1709 209.685 85.05 208.561 83.6673 208.561H78.4276C77.0449 208.561 75.924 209.685 75.924 211.072V213.289C75.924 214.676 77.0449 215.8 78.4276 215.8Z" fill="#AFCAF9"/>
<path d="M100.285 181.029H95.0495C94.2649 181.028 93.5128 180.715 92.958 180.159C92.4033 179.602 92.091 178.848 92.0898 178.061V175.844C92.091 175.057 92.4033 174.303 92.958 173.747C93.5128 173.19 94.2649 172.877 95.0495 172.876H100.285C101.069 172.877 101.821 173.19 102.376 173.747C102.931 174.303 103.243 175.057 103.244 175.844V178.061C103.243 178.848 102.931 179.602 102.376 180.159C101.821 180.715 101.069 181.028 100.285 181.029ZM95.0495 173.791C94.5068 173.792 93.9867 174.008 93.603 174.393C93.2192 174.778 93.0031 175.3 93.0019 175.844V178.061C93.0019 178.606 93.2176 179.128 93.6016 179.513C93.9856 179.898 94.5064 180.115 95.0495 180.115H100.285C100.828 180.115 101.349 179.898 101.733 179.513C102.116 179.128 102.332 178.606 102.332 178.061V175.844C102.331 175.3 102.115 174.778 101.731 174.393C101.347 174.008 100.827 173.792 100.285 173.791H95.0495Z" fill="#5E3B3B"/>
<path d="M83.6671 181.029H78.4274C77.6428 181.028 76.8907 180.715 76.3359 180.159C75.7812 179.602 75.469 178.848 75.4678 178.061V175.844C75.469 175.057 75.7812 174.303 76.3359 173.747C76.8907 173.19 77.6428 172.877 78.4274 172.876H83.6671C84.4517 172.877 85.2038 173.19 85.7586 173.747C86.3133 174.303 86.6255 175.057 86.6267 175.844V178.061C86.6255 178.848 86.3133 179.602 85.7586 180.159C85.2038 180.715 84.4517 181.028 83.6671 181.029ZM78.4274 173.791C77.8847 173.792 77.3646 174.008 76.9809 174.393C76.5971 174.778 76.381 175.3 76.3798 175.844V178.061C76.3798 178.606 76.5955 179.128 76.9795 179.513C77.3635 179.898 77.8843 180.115 78.4274 180.115H83.6671C84.2098 180.113 84.7299 179.897 85.1137 179.512C85.4974 179.127 85.7135 178.606 85.7147 178.061V175.844C85.7135 175.3 85.4974 174.778 85.1137 174.393C84.7299 174.008 84.2098 173.792 83.6671 173.791H78.4274Z" fill="#5E3B3B"/>
<path d="M67.0451 181.029H61.8053C61.0207 181.028 60.2687 180.715 59.7139 180.159C59.1591 179.602 58.8469 178.848 58.8457 178.061V175.844C58.8469 175.057 59.1591 174.303 59.7139 173.747C60.2687 173.19 61.0207 172.877 61.8053 172.876H67.0451C67.8296 172.877 68.5817 173.19 69.1365 173.747C69.6913 174.303 70.0035 175.057 70.0047 175.844V178.061C70.0035 178.848 69.6913 179.602 69.1365 180.159C68.5817 180.715 67.8296 181.028 67.0451 181.029ZM61.8053 173.791C61.2626 173.792 60.7425 174.008 60.3588 174.393C59.9751 174.778 59.759 175.3 59.7578 175.844V178.061C59.759 178.606 59.9751 179.127 60.3588 179.512C60.7425 179.897 61.2626 180.113 61.8053 180.115H67.0451C67.314 180.115 67.5802 180.061 67.8286 179.958C68.0771 179.855 68.3028 179.704 68.4929 179.513C68.683 179.323 68.8339 179.096 68.9368 178.847C69.0397 178.598 69.0926 178.331 69.0926 178.061V175.844C69.0914 175.3 68.8753 174.778 68.4916 174.393C68.1079 174.008 67.5877 173.792 67.0451 173.791H61.8053Z" fill="#5E3B3B"/>
<path d="M100.285 192.822H95.0495C94.2649 192.821 93.5128 192.508 92.958 191.952C92.4033 191.395 92.091 190.641 92.0898 189.854V187.637C92.091 186.85 92.4033 186.096 92.958 185.539C93.5128 184.983 94.2649 184.67 95.0495 184.669H100.285C101.069 184.67 101.821 184.983 102.376 185.539C102.931 186.096 103.243 186.85 103.244 187.637V189.854C103.243 190.641 102.931 191.395 102.376 191.952C101.821 192.508 101.069 192.821 100.285 192.822ZM95.0495 185.579C94.5064 185.579 93.9856 185.795 93.6016 186.18C93.2176 186.565 93.0019 187.088 93.0019 187.632V189.85C93.0019 190.394 93.2176 190.917 93.6016 191.302C93.9856 191.687 94.5064 191.903 95.0495 191.903H100.285C100.828 191.903 101.349 191.687 101.733 191.302C102.116 190.917 102.332 190.394 102.332 189.85V187.637C102.332 187.092 102.116 186.57 101.733 186.185C101.349 185.8 100.828 185.583 100.285 185.583L95.0495 185.579Z" fill="#5E3B3B"/>
<path d="M83.6671 192.822H78.4274C77.6428 192.821 76.8907 192.508 76.3359 191.952C75.7812 191.395 75.469 190.641 75.4678 189.854V187.637C75.469 186.85 75.7812 186.096 76.3359 185.539C76.8907 184.983 77.6428 184.67 78.4274 184.669H83.6671C84.4517 184.67 85.2038 184.983 85.7586 185.539C86.3133 186.096 86.6255 186.85 86.6267 187.637V189.854C86.6255 190.641 86.3133 191.395 85.7586 191.952C85.2038 192.508 84.4517 192.821 83.6671 192.822ZM78.4274 185.579C77.8843 185.579 77.3635 185.795 76.9795 186.18C76.5955 186.565 76.3798 187.088 76.3798 187.632V189.85C76.3798 190.394 76.5955 190.917 76.9795 191.302C77.3635 191.687 77.8843 191.903 78.4274 191.903H83.6671C84.2098 191.902 84.7299 191.685 85.1137 191.3C85.4974 190.915 85.7135 190.394 85.7147 189.85V187.637C85.7135 187.092 85.4974 186.571 85.1137 186.186C84.7299 185.801 84.2098 185.585 83.6671 185.583L78.4274 185.579Z" fill="#5E3B3B"/>
<path d="M67.0451 192.822H61.8053C61.0207 192.821 60.2687 192.508 59.7139 191.952C59.1591 191.395 58.8469 190.641 58.8457 189.854V187.637C58.8469 186.85 59.1591 186.096 59.7139 185.539C60.2687 184.983 61.0207 184.67 61.8053 184.669H67.0451C67.8296 184.67 68.5817 184.983 69.1365 185.539C69.6913 186.096 70.0035 186.85 70.0047 187.637V189.854C70.0035 190.641 69.6913 191.395 69.1365 191.952C68.5817 192.508 67.8296 192.821 67.0451 192.822ZM61.8053 185.579C61.2626 185.58 60.7425 185.797 60.3588 186.182C59.9751 186.566 59.759 187.088 59.7578 187.632V189.85C59.759 190.394 59.9751 190.915 60.3588 191.3C60.7425 191.685 61.2626 191.902 61.8053 191.903H67.0451C67.5881 191.903 68.1089 191.687 68.4929 191.302C68.8769 190.917 69.0926 190.394 69.0926 189.85V187.637C69.0926 187.092 68.8769 186.57 68.4929 186.185C68.1089 185.8 67.5881 185.583 67.0451 185.583L61.8053 185.579Z" fill="#5E3B3B"/>
<path d="M100.285 204.496H95.0495C94.2649 204.495 93.5128 204.182 92.958 203.625C92.4033 203.069 92.091 202.315 92.0898 201.528V199.297C92.091 198.51 92.4033 197.756 92.958 197.2C93.5128 196.643 94.2649 196.33 95.0495 196.329H100.285C101.069 196.33 101.821 196.643 102.376 197.2C102.931 197.756 103.243 198.51 103.244 199.297V201.515C103.245 201.905 103.17 202.292 103.022 202.654C102.874 203.015 102.656 203.344 102.381 203.621C102.106 203.897 101.779 204.117 101.42 204.268C101.06 204.418 100.674 204.495 100.285 204.496ZM95.0495 197.257C94.5068 197.259 93.9867 197.475 93.603 197.86C93.2192 198.245 93.0031 198.766 93.0019 199.311V201.528C93.0019 202.073 93.2176 202.595 93.6016 202.98C93.9856 203.365 94.5064 203.581 95.0495 203.581H100.285C100.828 203.581 101.349 203.365 101.732 202.98C102.116 202.595 102.332 202.073 102.332 201.528V199.297C102.331 198.753 102.115 198.231 101.731 197.846C101.347 197.462 100.827 197.245 100.285 197.244L95.0495 197.257Z" fill="#5E3B3B"/>
<path d="M83.6671 204.496H78.4274C77.6428 204.495 76.8907 204.182 76.3359 203.625C75.7812 203.069 75.469 202.315 75.4678 201.528V199.297C75.469 198.51 75.7812 197.756 76.3359 197.2C76.8907 196.643 77.6428 196.33 78.4274 196.329H83.6671C84.4517 196.33 85.2038 196.643 85.7586 197.2C86.3133 197.756 86.6255 198.51 86.6267 199.297V201.515C86.6279 201.905 86.5523 202.292 86.4042 202.654C86.256 203.015 86.0383 203.344 85.7634 203.621C85.4885 203.897 85.1619 204.117 84.8022 204.268C84.4425 204.418 84.0568 204.495 83.6671 204.496ZM78.4274 197.257C77.8847 197.259 77.3646 197.475 76.9809 197.86C76.5971 198.245 76.381 198.766 76.3798 199.311V201.528C76.3798 202.073 76.5955 202.595 76.9795 202.98C77.3635 203.365 77.8843 203.581 78.4274 203.581H83.6671C84.2098 203.58 84.7299 203.364 85.1136 202.979C85.4974 202.594 85.7135 202.072 85.7147 201.528V199.297C85.7135 198.753 85.4974 198.231 85.1136 197.846C84.7299 197.462 84.2098 197.245 83.6671 197.244L78.4274 197.257Z" fill="#5E3B3B"/>
<path d="M67.0451 204.496H61.8053C61.0207 204.495 60.2687 204.182 59.7139 203.625C59.1591 203.069 58.8469 202.315 58.8457 201.528V199.297C58.8469 198.51 59.1591 197.756 59.7139 197.2C60.2687 196.643 61.0207 196.33 61.8053 196.329H67.0451C67.8296 196.33 68.5817 196.643 69.1365 197.2C69.6913 197.756 70.0035 198.51 70.0047 199.297V201.515C70.0059 201.905 69.9303 202.292 69.7821 202.654C69.634 203.015 69.4162 203.344 69.1413 203.621C68.8665 203.897 68.5398 204.117 68.1801 204.268C67.8204 204.418 67.4347 204.495 67.0451 204.496ZM61.8053 197.257C61.2626 197.259 60.7425 197.475 60.3588 197.86C59.9751 198.245 59.759 198.766 59.7578 199.311V201.528C59.759 202.072 59.9751 202.594 60.3588 202.979C60.7425 203.364 61.2626 203.58 61.8053 203.581H67.0451C67.314 203.581 67.5802 203.528 67.8286 203.425C68.0771 203.322 68.3028 203.171 68.4929 202.98C68.6831 202.789 68.8339 202.563 68.9368 202.314C69.0397 202.065 69.0926 201.798 69.0926 201.528V199.297C69.0914 198.753 68.8753 198.231 68.4916 197.846C68.1079 197.462 67.5877 197.245 67.0451 197.244L61.8053 197.257Z" fill="#5E3B3B"/>
<path d="M100.285 216.262H95.0495C94.2649 216.26 93.5128 215.947 92.958 215.391C92.4033 214.835 92.091 214.081 92.0898 213.294V211.072C92.0911 210.285 92.4034 209.532 92.9583 208.976C93.5132 208.42 94.2653 208.108 95.0495 208.108H100.285C101.069 208.108 101.821 208.42 102.376 208.976C102.931 209.532 103.243 210.285 103.244 211.072V213.294C103.243 214.081 102.931 214.835 102.376 215.391C101.821 215.947 101.069 216.26 100.285 216.262ZM95.0495 209.023C94.5072 209.023 93.9871 209.239 93.6032 209.623C93.2194 210.007 93.0031 210.528 93.0019 211.072V213.294C93.0031 213.838 93.2192 214.36 93.603 214.744C93.9867 215.129 94.5068 215.346 95.0495 215.347H100.285C100.827 215.346 101.347 215.129 101.731 214.744C102.115 214.36 102.331 213.838 102.332 213.294V211.072C102.331 210.528 102.115 210.007 101.731 209.623C101.347 209.239 100.827 209.023 100.285 209.023H95.0495Z" fill="#5E3B3B"/>
<path d="M83.6671 216.262H78.4274C77.6428 216.26 76.8907 215.947 76.3359 215.391C75.7812 214.835 75.469 214.081 75.4678 213.294V211.072C75.469 210.285 75.7813 209.532 76.3362 208.976C76.8911 208.42 77.6432 208.108 78.4274 208.108H83.6671C84.4513 208.108 85.2034 208.42 85.7583 208.976C86.3132 209.532 86.6255 210.285 86.6267 211.072V213.294C86.6255 214.081 86.3133 214.835 85.7586 215.391C85.2038 215.947 84.4517 216.26 83.6671 216.262ZM78.4274 209.023C77.8851 209.023 77.365 209.239 76.9811 209.623C76.5973 210.007 76.381 210.528 76.3798 211.072V213.294C76.381 213.838 76.5971 214.36 76.9809 214.744C77.3646 215.129 77.8847 215.346 78.4274 215.347H83.6671C84.2098 215.346 84.7299 215.129 85.1137 214.744C85.4974 214.36 85.7135 213.838 85.7147 213.294V211.072C85.7135 210.528 85.4972 210.007 85.1134 209.623C84.7295 209.239 84.2094 209.023 83.6671 209.023H78.4274Z" fill="#5E3B3B"/>
<path d="M67.0451 216.262H61.8053C61.0207 216.26 60.2687 215.947 59.7139 215.391C59.1591 214.835 58.8469 214.081 58.8457 213.294V211.072C58.8469 210.285 59.1593 209.532 59.7142 208.976C60.2691 208.42 61.0212 208.108 61.8053 208.108H67.0451C67.8292 208.108 68.5813 208.42 69.1362 208.976C69.6911 209.532 70.0035 210.285 70.0047 211.072V213.294C70.0035 214.081 69.6913 214.835 69.1365 215.391C68.5817 215.947 67.8296 216.26 67.0451 216.262ZM61.8053 209.023C61.2631 209.023 60.7429 209.239 60.3591 209.623C59.9752 210.007 59.759 210.528 59.7578 211.072V213.294C59.759 213.838 59.9751 214.36 60.3588 214.744C60.7425 215.129 61.2626 215.346 61.8053 215.347H67.0451C67.5877 215.346 68.1079 215.129 68.4916 214.744C68.8753 214.36 69.0914 213.838 69.0926 213.294V211.072C69.0914 210.528 68.8752 210.007 68.4913 209.623C68.1074 209.239 67.5873 209.023 67.0451 209.023H61.8053Z" fill="#5E3B3B"/>
<path d="M59.3246 158.984C59.924 158.984 60.41 158.497 60.41 157.896C60.41 157.295 59.924 156.808 59.3246 156.808C58.7252 156.808 58.2393 157.295 58.2393 157.896C58.2393 158.497 58.7252 158.984 59.3246 158.984Z" fill="#633F3F"/>
<path d="M289.929 220.249H246.615V228.654H289.929V220.249Z" fill="#FFC76C"/>
<path d="M280.808 210.957H237.494V219.362H280.808V210.957Z" fill="#FFC76C"/>
<path d="M289.901 201.697H246.588V210.102H289.901V201.697Z" fill="#FFC76C"/>
<path d="M251.603 201.697H250.691V210.102H251.603V201.697Z" fill="#5E3B3B"/>
<path d="M256.164 201.697H255.252V210.102H256.164V201.697Z" fill="#5E3B3B"/>
<path d="M269.845 201.697H268.933V210.102H269.845V201.697Z" fill="#5E3B3B"/>
<path d="M278.966 201.697H278.054V210.102H278.966V201.697Z" fill="#5E3B3B"/>
<path d="M242.511 210.957H241.599V219.362H242.511V210.957Z" fill="#5E3B3B"/>
<path d="M247.071 210.957H246.159V219.362H247.071V210.957Z" fill="#5E3B3B"/>
<path d="M260.752 210.957H259.84V219.362H260.752V210.957Z" fill="#5E3B3B"/>
<path d="M265.312 210.957H264.4V219.362H265.312V210.957Z" fill="#5E3B3B"/>
<path d="M269.872 220.249H268.96V228.654H269.872V220.249Z" fill="#5E3B3B"/>
<path d="M278.993 220.249H278.081V228.654H278.993V220.249Z" fill="#5E3B3B"/>
<path d="M283.553 220.249H282.641V228.654H283.553V220.249Z" fill="#5E3B3B"/>
<path d="M289.905 210.052H246.824V210.966H289.905V210.052Z" fill="#5E3B3B"/>
<path d="M280.78 219.403H237.494V220.318H280.78V219.403Z" fill="#5E3B3B"/>
</g>
<defs>
<clipPath id="clip0_5531_4452">
<rect width="312" height="241" fill="white"/>
</clipPath>
</defs>
</svg>
