<svg width="297" height="241" viewBox="0 0 297 241" fill="none" xmlns="http://www.w3.org/2000/svg">
<g clip-path="url(#clip0_5531_4065)">
<path d="M230.167 31.5372L246.651 33.7838L247.322 34.6584L190.782 92.306L169.8 71.9411L113.759 127.025L86.5596 98.9428L23.5703 159.309L31.8944 167.943L86.2415 115.861L113.544 144.046L169.852 88.7046L190.997 109.224L254.709 44.2535L254.907 44.5107L259.533 63.2292L273.67 21.3076L230.167 31.5372Z" fill="#AFCAF9"/>
<path d="M104.927 223.37V232.931C104.927 237.218 92.8368 240.717 77.9344 240.717C63.0319 240.717 50.9414 237.235 50.9414 232.931V223.37H104.927Z" fill="#AC8121"/>
<path d="M98.2285 223.37H101.384V236.507C101.384 236.601 101.384 236.695 101.384 236.79C100.363 237.285 99.3087 237.709 98.2285 238.059V223.37Z" fill="#C29226"/>
<path d="M96.6465 223.37H97.601V238.256L96.6465 238.53V223.37Z" fill="#C29226"/>
<path d="M94.4375 223.37H95.8564V238.745L94.4375 239.079V223.37Z" fill="#C29226"/>
<path d="M83.6016 223.37H87.239V240.228C86.0609 240.357 84.8399 240.451 83.6016 240.528V223.37Z" fill="#C29226"/>
<path d="M80.7461 223.37H82.2424V240.605L80.7461 240.665V223.37Z" fill="#C29226"/>
<path d="M73.2383 223.37H74.5024V240.648L73.2383 240.597V223.37Z" fill="#C29226"/>
<path d="M71.1074 223.37H72.2941V240.519L71.1074 240.442V223.37Z" fill="#C29226"/>
<path d="M68.0977 223.37H70.5484V240.417C69.6885 240.348 68.8974 240.262 68.0977 240.177V223.37Z" fill="#C29226"/>
<path d="M56.3164 223.37H59.008V238.479C58.0363 238.196 57.1333 237.904 56.3164 237.621V223.37Z" fill="#C29226"/>
<path d="M55.8078 223.37V237.398C52.7207 236.138 50.9062 234.594 50.9062 232.931V223.37H55.8078Z" fill="#C29226"/>
<path d="M50.9414 223.371C50.9414 227.658 63.0233 231.148 77.9344 231.148C92.8454 231.148 104.927 227.658 104.927 223.371C104.927 219.083 92.8368 215.585 77.9344 215.585C63.0319 215.585 50.9414 219.066 50.9414 223.371Z" fill="#DEBB2C"/>
<path d="M79.7576 223.902C83.3152 221.863 86.547 219.305 89.3458 216.313C98.5555 217.548 104.936 220.241 104.936 223.37C104.936 227.658 92.8457 231.148 77.9432 231.148C71.4039 231.251 64.8816 230.455 58.5605 228.781C65.9043 228.678 73.1362 227.683 79.7576 223.902Z" fill="#CFAE2A"/>
<path d="M56.7305 223.371C56.7305 219.812 66.0434 217.034 77.9362 217.034C89.8289 217.034 99.1332 219.812 99.1332 223.371C99.1332 226.929 89.8203 229.699 77.9362 229.699C66.052 229.699 56.7305 226.921 56.7305 223.371ZM57.3668 223.371C57.3668 226.123 65.6307 229.073 77.9362 229.073C90.2416 229.073 98.5055 226.123 98.5055 223.371C98.5055 220.618 90.233 217.66 77.9362 217.66C65.6393 217.66 57.3668 220.61 57.3668 223.371Z" fill="#EBD62A"/>
<path d="M108.728 211.529V221.099C108.728 225.386 96.6892 228.876 81.7351 228.876C66.7811 228.876 54.7422 225.395 54.7422 221.099V211.529H108.728Z" fill="#AC8121"/>
<path d="M102.039 211.529H105.204V224.7C105.204 224.794 105.204 224.88 105.204 224.974C104.189 225.477 103.136 225.901 102.056 226.243L102.039 211.529Z" fill="#C29226"/>
<path d="M100.455 211.529H101.383V226.415L100.438 226.689L100.455 211.529Z" fill="#C29226"/>
<path d="M98.2383 211.529H99.6657V226.904C99.21 227.024 98.7284 227.135 98.2383 227.247V211.529Z" fill="#C29226"/>
<path d="M87.4102 211.529H91.0648V228.396C89.8867 228.524 88.6656 228.619 87.4274 228.696L87.4102 211.529Z" fill="#C29226"/>
<path d="M84.5645 211.529H86.0607V228.773L84.5645 228.824V211.529Z" fill="#C29226"/>
<path d="M77.0488 211.529H78.3129V228.816L77.0488 228.756V211.529Z" fill="#C29226"/>
<path d="M74.9082 211.529H76.0949V228.679L74.9082 228.593V211.529Z" fill="#C29226"/>
<path d="M71.9062 211.529H74.357V228.576C73.4971 228.507 72.706 228.43 71.9062 228.336V211.529Z" fill="#C29226"/>
<path d="M60.1094 211.529H62.8009V226.638C61.8206 226.364 60.9263 226.063 60.1094 225.78V211.529Z" fill="#C29226"/>
<path d="M59.6523 211.529V225.557C56.5652 224.288 54.7422 222.753 54.7422 221.09V211.521L59.6523 211.529Z" fill="#C29226"/>
<path d="M54.7422 211.529C54.7422 215.817 66.8327 219.306 81.7351 219.306C96.6376 219.306 108.728 215.825 108.728 211.529C108.728 207.233 96.6892 203.752 81.7351 203.752C66.7811 203.752 54.7422 207.233 54.7422 211.529Z" fill="#DEBB2C"/>
<path d="M83.5584 212.06C87.1187 210.029 90.3511 207.474 93.1465 204.48C102.348 205.715 108.728 208.408 108.728 211.529C108.728 215.816 96.6894 219.306 81.7354 219.306C75.2009 219.423 68.6815 218.641 62.3613 216.982C69.7137 216.845 76.9456 215.85 83.5584 212.06Z" fill="#CFAE2A"/>
<path d="M60.5391 211.529C60.5391 207.979 69.852 205.192 81.7361 205.192C93.6203 205.192 102.942 207.979 102.942 211.529C102.942 215.079 93.6461 217.84 81.7361 217.84C69.8262 217.84 60.5391 215.079 60.5391 211.529ZM61.1754 211.529C61.1754 214.282 69.4393 217.231 81.7361 217.231C94.033 217.231 102.305 214.282 102.305 211.529C102.305 208.777 94.0416 205.835 81.7361 205.835C69.4307 205.835 61.1754 208.777 61.1754 211.529Z" fill="#EBD62A"/>
<path d="M52.963 211.992L54.8634 221.373C55.7234 225.583 44.5444 231.379 29.9257 234.321C15.307 237.262 2.76933 236.233 1.91801 232.023L0.0175781 222.642L52.963 211.992Z" fill="#AC8121"/>
<path d="M46.4023 213.312L49.5067 212.687L52.0864 225.549C52.0864 225.634 52.0864 225.729 52.1294 225.823C51.2286 226.512 50.2803 227.136 49.2917 227.692L46.4023 213.312Z" fill="#C29226"/>
<path d="M44.8535 213.621L45.7822 213.433L48.7404 228.01C48.4566 228.173 48.1642 228.318 47.8804 228.473L44.8535 213.621Z" fill="#C29226"/>
<path d="M42.6777 214.058L44.0794 213.775L47.1235 228.85C46.7022 229.055 46.2636 229.261 45.7993 229.459L42.6777 214.058Z" fill="#C29226"/>
<path d="M32.0586 216.193L35.6273 215.481L38.9724 232.013C37.8459 232.365 36.6678 232.699 35.4725 233.025L32.0586 216.193Z" fill="#C29226"/>
<path d="M29.2715 216.759L30.742 216.459L34.1816 233.36C33.7001 233.488 33.2099 233.6 32.7198 233.711L29.2715 216.759Z" fill="#C29226"/>
<path d="M21.9102 218.243L23.1484 217.994L26.5881 234.929C26.1754 235.006 25.7282 235.066 25.3412 235.135L21.9102 218.243Z" fill="#C29226"/>
<path d="M19.8125 218.697L20.9734 218.466L24.4131 235.298L23.235 235.452L19.8125 218.697Z" fill="#C29226"/>
<path d="M16.8711 219.255L19.2703 218.774L22.6498 235.486C21.7898 235.581 21.0073 235.667 20.199 235.735L16.8711 219.255Z" fill="#C29226"/>
<path d="M5.31445 221.579L7.95442 221.047L10.9555 235.855C10.0132 235.791 9.07467 235.68 8.1436 235.521L5.31445 221.579Z" fill="#C29226"/>
<path d="M4.84993 221.673L7.63609 235.392C4.35978 234.766 2.27017 233.617 1.9434 231.962L0.0429688 222.582L4.84993 221.673Z" fill="#C29226"/>
<path d="M0.0416326 222.642C0.901555 226.852 13.4392 227.881 28.0493 224.94C42.6594 221.999 53.847 216.202 52.9871 211.992C52.1271 207.782 39.5981 206.744 24.988 209.685C10.3779 212.627 -0.809691 218.432 0.0416326 222.642Z" fill="#DEBB2C"/>
<path d="M28.395 217.479C31.4789 214.78 34.1398 211.636 36.2891 208.15C45.5591 207.55 52.3439 208.931 52.963 211.992C53.823 216.202 42.644 221.998 28.0253 224.939C20.5698 226.44 13.656 226.912 8.55664 226.449C15.7714 224.897 22.668 222.496 28.395 217.479Z" fill="#CFAE2A"/>
<path d="M5.72804 221.502C5.0229 218.02 13.5963 213.45 25.2483 211.109C36.9002 208.768 46.583 209.651 47.2881 213.133C47.9932 216.614 39.4198 221.176 27.7678 223.525C16.1159 225.875 6.43317 224.983 5.72804 221.502ZM6.34718 221.373C6.88893 224.074 15.5827 225.334 27.6389 222.908C39.695 220.481 47.2107 215.954 46.6689 213.261C46.1272 210.569 37.4334 209.3 25.3773 211.726C13.3212 214.153 5.79683 218.698 6.34718 221.373Z" fill="#EBD62A"/>
<path d="M99.6661 202.482L98.4192 211.974C97.8603 216.262 85.4258 218.131 70.6437 216.21C55.8616 214.29 44.3473 209.265 44.9062 204.977L46.1445 195.485L99.6661 202.482Z" fill="#AC8121"/>
<path d="M93.0434 201.616L96.1735 202.028L94.4537 215.061C94.4537 215.156 94.4537 215.241 94.4107 215.336C93.3346 215.699 92.234 215.986 91.1172 216.193L93.0434 201.616Z" fill="#C29226"/>
<path d="M91.4692 201.419L92.4066 201.539L90.4803 216.305L89.5 216.459L91.4692 201.419Z" fill="#C29226"/>
<path d="M89.2763 201.137L90.6866 201.317L88.6915 216.563C88.2272 216.623 87.7284 216.666 87.2383 216.708L89.2763 201.137Z" fill="#C29226"/>
<path d="M78.5272 199.738L82.1389 200.201L79.9547 216.93C78.768 216.93 77.5469 216.836 76.3086 216.759L78.5272 199.738Z" fill="#C29226"/>
<path d="M75.7073 199.37L77.195 199.559L74.9592 216.657L73.4629 216.519L75.7073 199.37Z" fill="#C29226"/>
<path d="M68.2592 198.401L69.5147 198.564L67.2703 215.714L66.0234 215.491L68.2592 198.401Z" fill="#C29226"/>
<path d="M66.1272 198.118L67.2967 198.264L65.0867 215.31L63.9258 215.07L66.1272 198.118Z" fill="#C29226"/>
<path d="M63.16 197.732L65.5936 198.05L63.3836 214.959C62.5236 214.779 61.7583 214.599 60.9844 214.402L63.16 197.732Z" fill="#C29226"/>
<path d="M51.5094 196.215L54.1752 196.566L52.2145 211.546C51.3344 211.181 50.4734 210.772 49.6348 210.32L51.5094 196.215Z" fill="#C29226"/>
<path d="M51.0015 196.154L49.1871 210.071C46.2892 208.416 44.6897 206.641 44.8875 205.012L46.1258 195.52L51.0015 196.154Z" fill="#C29226"/>
<path d="M46.1445 195.545C45.5855 199.833 57.1171 204.823 71.9422 206.744C86.7672 208.665 99.1587 206.744 99.7177 202.508C100.277 198.272 88.7364 193.239 73.92 191.361C59.1035 189.483 46.7034 191.258 46.1445 195.545Z" fill="#DEBB2C"/>
<path d="M74.6497 199.773C78.4406 198.211 81.9743 196.09 85.1322 193.479C94.1012 195.898 100.086 199.387 99.6821 202.483C99.1231 206.77 86.6886 208.64 71.9066 206.719C65.4066 205.982 59.0402 204.351 52.9883 201.874C60.2976 202.723 67.5984 202.672 74.6497 199.773Z" fill="#CFAE2A"/>
<path d="M51.8879 196.266C52.3523 192.75 61.949 191.189 73.7385 192.724C85.5281 194.259 94.3767 198.212 93.9295 201.736C93.4823 205.26 83.877 206.821 72.0875 205.286C60.2979 203.751 51.4321 199.833 51.8879 196.266ZM52.5156 196.351C52.1631 199.078 59.9712 203.074 72.1735 204.66C84.3758 206.247 92.9492 204.386 93.3104 201.651C93.6715 198.915 85.8548 194.937 73.6525 193.342C61.4502 191.747 52.8768 193.616 52.5156 196.351Z" fill="#EBD62A"/>
<path d="M236.832 222.025V231.56C236.832 235.847 248.923 239.345 263.825 239.345C278.727 239.345 290.827 235.856 290.827 231.56V221.99L236.832 222.025Z" fill="#AC8121"/>
<path d="M243.53 222.024H240.365V235.178C240.365 235.264 240.365 235.358 240.365 235.452C241.382 235.951 242.434 236.376 243.513 236.721L243.53 222.024Z" fill="#C29226"/>
<path d="M245.113 222.024H244.133V236.919C244.434 237.013 244.752 237.107 245.079 237.193L245.113 222.024Z" fill="#C29226"/>
<path d="M247.321 222.024H245.902V237.407C246.358 237.527 246.84 237.63 247.321 237.742V222.024Z" fill="#C29226"/>
<path d="M258.157 222.024H254.52V238.891C255.698 239.019 256.919 239.114 258.157 239.2V222.024Z" fill="#C29226"/>
<path d="M261.013 222.024H259.508V239.277L261.013 239.337V222.024Z" fill="#C29226"/>
<path d="M268.519 222.024H267.255V239.277L268.519 239.225V222.024Z" fill="#C29226"/>
<path d="M270.652 222.024H269.465V239.174C269.869 239.174 270.265 239.122 270.652 239.097V222.024Z" fill="#C29226"/>
<path d="M273.662 222.024H271.211V239.079C272.071 239.011 272.862 238.925 273.662 238.839V222.024Z" fill="#C29226"/>
<path d="M285.408 222.024H282.717V237.142C283.697 236.867 284.591 236.567 285.408 236.284V222.024Z" fill="#C29226"/>
<path d="M285.916 222.024V236.061C289.003 234.801 290.826 233.257 290.826 231.594V222.024H285.916Z" fill="#C29226"/>
<path d="M290.827 222.024C290.827 226.312 278.736 229.81 263.825 229.81C248.914 229.81 236.832 226.329 236.832 222.024C236.832 217.72 248.923 214.247 263.825 214.247C278.727 214.247 290.827 217.728 290.827 222.024Z" fill="#DEBB2C"/>
<path d="M262.011 222.564C258.45 220.53 255.218 217.971 252.422 214.976C243.221 216.219 236.832 218.903 236.832 222.024C236.832 226.311 248.923 229.81 263.825 229.81C270.364 229.913 276.887 229.117 283.208 227.443C275.855 227.34 268.623 226.346 262.011 222.564Z" fill="#CFAE2A"/>
<path d="M263.824 228.361C251.94 228.361 242.627 225.583 242.627 222.024C242.627 218.466 251.94 215.696 263.824 215.696C275.708 215.696 285.03 218.474 285.03 222.024C285.03 225.574 275.717 228.361 263.824 228.361ZM263.824 216.357C251.527 216.357 243.263 219.298 243.263 222.05C243.263 224.803 251.527 227.761 263.824 227.761C276.121 227.761 284.393 224.811 284.393 222.05C284.393 219.289 276.13 216.331 263.824 216.331V216.357Z" fill="#EBD62A"/>
<path d="M233.031 210.191V219.761C233.031 224.048 245.07 227.538 260.024 227.538C274.978 227.538 287.017 224.057 287.017 219.761V210.191H233.031Z" fill="#AC8121"/>
<path d="M239.72 210.191H236.564V223.336C236.564 223.431 236.564 223.525 236.564 223.611C237.581 224.111 238.633 224.538 239.712 224.888L239.72 210.191Z" fill="#C29226"/>
<path d="M241.301 210.191H240.355V225.086L241.301 225.36V210.191Z" fill="#C29226"/>
<path d="M243.521 210.191H242.094V225.557C242.55 225.677 243.031 225.789 243.521 225.892V210.191Z" fill="#C29226"/>
<path d="M254.356 210.191H250.719V227.058C251.888 227.186 253.109 227.281 254.356 227.358V210.191Z" fill="#C29226"/>
<path d="M257.204 210.191H255.699V227.435C256.198 227.435 256.697 227.435 257.204 227.487V210.191Z" fill="#C29226"/>
<path d="M264.71 210.191H263.446V227.478L264.71 227.418V210.191Z" fill="#C29226"/>
<path d="M266.851 210.191H265.63V227.341L266.817 227.255L266.851 210.191Z" fill="#C29226"/>
<path d="M269.852 210.191H267.401V227.272C268.261 227.204 269.052 227.118 269.852 227.032V210.191Z" fill="#C29226"/>
<path d="M281.633 210.191H278.95V225.3C279.922 225.026 280.816 224.725 281.633 224.443V210.191Z" fill="#C29226"/>
<path d="M282.115 210.191V224.228C285.194 222.959 287.017 221.424 287.017 219.761V210.191H282.115Z" fill="#C29226"/>
<path d="M287.017 210.191C287.017 214.479 274.927 217.969 260.024 217.969C245.122 217.969 233.031 214.487 233.031 210.191C233.031 205.895 245.07 202.414 260.024 202.414C274.978 202.414 287.017 205.895 287.017 210.191Z" fill="#DEBB2C"/>
<path d="M258.201 210.723C254.642 208.693 251.412 206.138 248.622 203.143C239.412 204.377 233.031 207.07 233.031 210.191C233.031 214.478 245.07 217.968 260.024 217.968C266.561 218.072 273.08 217.275 279.398 215.602C272.046 215.507 264.814 214.513 258.201 210.723Z" fill="#CFAE2A"/>
<path d="M260.022 216.528C248.129 216.528 238.816 213.741 238.816 210.191C238.816 206.641 248.129 203.854 260.022 203.854C271.915 203.854 281.219 206.641 281.219 210.191C281.219 213.741 271.906 216.528 260.022 216.528ZM260.022 204.523C247.717 204.523 239.453 207.473 239.453 210.226C239.453 212.978 247.717 215.928 260.022 215.928C272.328 215.928 280.583 212.978 280.583 210.226C280.583 207.473 272.319 204.489 260.022 204.489V204.523Z" fill="#EBD62A"/>
<path d="M238.672 199.833V209.402C238.672 213.69 250.711 217.18 265.665 217.18C280.619 217.18 292.658 213.69 292.658 209.402V199.833H238.672Z" fill="#AC8121"/>
<path d="M245.363 199.833H242.207V212.969C242.207 213.064 242.207 213.158 242.207 213.252C243.224 213.75 244.276 214.174 245.354 214.521L245.363 199.833Z" fill="#C29226"/>
<path d="M246.944 199.833H245.998V214.719L246.944 215.002V199.833Z" fill="#C29226"/>
<path d="M249.163 199.833H247.744V215.207L249.163 215.542V199.833Z" fill="#C29226"/>
<path d="M259.997 199.833H256.359V216.699C257.529 216.819 258.75 216.914 259.997 216.991V199.833Z" fill="#C29226"/>
<path d="M262.844 199.833H261.33V217.068L262.835 217.128L262.844 199.833Z" fill="#C29226"/>
<path d="M270.351 199.833H269.069V217.111L270.333 217.06L270.351 199.833Z" fill="#C29226"/>
<path d="M272.51 199.833H271.306V216.982L272.492 216.897L272.51 199.833Z" fill="#C29226"/>
<path d="M275.494 199.833H273.043V216.879C273.903 216.811 274.694 216.734 275.494 216.639V199.833Z" fill="#C29226"/>
<path d="M287.275 199.833H284.592V214.942C285.563 214.659 286.458 214.367 287.275 214.084V199.833Z" fill="#C29226"/>
<path d="M287.756 199.833V213.861C290.834 212.601 292.657 211.057 292.657 209.402V199.833H287.756Z" fill="#C29226"/>
<path d="M292.658 199.833C292.658 204.12 280.567 207.61 265.665 207.61C250.762 207.61 238.672 204.129 238.672 199.833C238.672 195.537 250.711 192.047 265.665 192.047C280.619 192.047 292.658 195.494 292.658 199.833Z" fill="#DEBB2C"/>
<path d="M263.842 200.33C260.282 198.298 257.052 195.739 254.262 192.741C245.053 193.976 238.672 196.668 238.672 199.798C238.672 204.085 250.711 207.575 265.665 207.575C272.201 207.679 278.721 206.883 285.039 205.209C277.669 205.106 270.455 204.12 263.842 200.33Z" fill="#CFAE2A"/>
<path d="M265.631 206.127C253.738 206.127 244.434 203.349 244.434 199.799C244.434 196.249 253.738 193.462 265.631 193.462C277.523 193.462 286.828 196.24 286.828 199.799C286.828 203.357 277.549 206.127 265.631 206.127ZM265.631 194.122C253.325 194.122 245.061 197.072 245.061 199.833C245.061 202.594 253.325 205.535 265.631 205.535C277.936 205.535 286.269 202.551 286.269 199.833C286.269 197.115 277.962 194.088 265.631 194.088V194.122Z" fill="#EBD62A"/>
<path d="M234.896 185.899V195.469C234.896 199.756 246.987 203.246 261.889 203.246C276.792 203.246 288.882 199.765 288.882 195.469V185.899H234.896Z" fill="#AC8121"/>
<path d="M241.594 185.899H238.43V199.044C238.43 199.139 238.43 199.225 238.43 199.319C239.45 199.819 240.504 200.246 241.586 200.596L241.594 185.899Z" fill="#C29226"/>
<path d="M243.176 185.899H242.23V200.794C242.531 200.888 242.85 200.982 243.176 201.068V185.899Z" fill="#C29226"/>
<path d="M245.388 185.899H243.969V201.274C244.425 201.394 244.906 201.505 245.388 201.608V185.899Z" fill="#C29226"/>
<path d="M256.223 185.899H252.586V202.766C253.764 202.894 254.985 202.989 256.223 203.066V185.899Z" fill="#C29226"/>
<path d="M259.069 185.899H257.572V203.143C258.062 203.143 258.57 203.143 259.069 203.195V185.899Z" fill="#C29226"/>
<path d="M266.584 185.899H265.32V203.186L266.584 203.126V185.899Z" fill="#C29226"/>
<path d="M268.717 185.899H267.53V203.049L268.717 202.972V185.899Z" fill="#C29226"/>
<path d="M271.727 185.899H269.276V202.946C270.136 202.877 270.927 202.8 271.727 202.706V185.899Z" fill="#C29226"/>
<path d="M283.508 185.899H280.816V201.008C281.788 200.734 282.691 200.434 283.508 200.151V185.899Z" fill="#C29226"/>
<path d="M283.98 185.899V199.928C287.068 198.667 288.882 197.132 288.882 195.469V185.899H283.98Z" fill="#C29226"/>
<path d="M288.849 185.899C288.849 190.187 276.767 193.676 261.856 193.676C246.945 193.676 234.863 190.195 234.863 185.899C234.863 181.603 246.954 178.122 261.856 178.122C276.759 178.122 288.849 181.603 288.849 185.899Z" fill="#DEBB2C"/>
<path d="M260.066 186.431C256.51 184.397 253.281 181.842 250.487 178.851C241.277 180.085 234.896 182.778 234.896 185.899C234.896 190.186 246.987 193.676 261.889 193.676C268.429 193.78 274.951 192.983 281.272 191.31C273.911 191.258 266.688 190.221 260.066 186.431Z" fill="#CFAE2A"/>
<path d="M261.888 192.236C250.004 192.236 240.691 189.449 240.691 185.899C240.691 182.349 250.004 179.562 261.888 179.562C273.773 179.562 283.094 182.349 283.094 185.899C283.094 189.449 273.781 192.236 261.888 192.236ZM261.888 180.231C249.592 180.231 241.319 183.181 241.319 185.934C241.319 188.686 249.592 191.636 261.888 191.636C274.185 191.636 282.458 188.686 282.458 185.934C282.458 183.181 274.228 180.197 261.888 180.197V180.231Z" fill="#EBD62A"/>
<path d="M240.537 175.507V185.076C240.537 189.364 252.628 192.853 267.53 192.853C282.433 192.853 294.523 189.364 294.523 185.076V175.507H240.537Z" fill="#AC8121"/>
<path d="M247.235 175.507H244.07V188.686C244.07 188.78 244.07 188.875 244.07 188.969C245.091 189.467 246.145 189.891 247.226 190.238L247.235 175.507Z" fill="#C29226"/>
<path d="M248.819 175.507H247.873V190.401C248.174 190.495 248.492 190.59 248.819 190.675V175.507Z" fill="#C29226"/>
<path d="M251.013 175.507H249.594V190.881L251.013 191.216V175.507Z" fill="#C29226"/>
<path d="M261.864 175.507H258.227V192.373C259.405 192.493 260.626 192.588 261.864 192.665V175.507Z" fill="#C29226"/>
<path d="M264.71 175.507H263.214V192.742L264.71 192.802V175.507Z" fill="#C29226"/>
<path d="M272.226 175.507H270.962V192.785L272.226 192.733V175.507Z" fill="#C29226"/>
<path d="M274.359 175.507H273.172V192.656C273.579 192.656 273.974 192.631 274.359 192.579V175.507Z" fill="#C29226"/>
<path d="M277.368 175.507H274.917V192.553C275.777 192.485 276.568 192.399 277.368 192.313V175.507Z" fill="#C29226"/>
<path d="M289.149 175.507H286.457V190.615C287.429 190.332 288.332 190.041 289.149 189.758V175.507Z" fill="#C29226"/>
<path d="M289.622 175.507V189.544C292.709 188.283 294.524 186.74 294.524 185.085V175.515L289.622 175.507Z" fill="#C29226"/>
<path d="M294.523 175.506C294.523 179.794 282.441 183.284 267.53 183.284C252.619 183.284 240.537 179.802 240.537 175.506C240.537 171.211 252.628 167.721 267.53 167.721C282.433 167.721 294.523 171.202 294.523 175.506Z" fill="#DEBB2C"/>
<path d="M265.707 176.038C262.168 173.995 258.954 171.437 256.17 168.449C246.961 169.684 240.58 172.376 240.58 175.506C240.58 179.794 252.671 183.283 267.573 183.283C274.112 183.387 280.635 182.591 286.956 180.917C279.552 180.814 272.328 179.819 265.707 176.038Z" fill="#CFAE2A"/>
<path d="M267.529 181.826C255.645 181.826 246.332 179.048 246.332 175.498C246.332 171.948 255.645 169.161 267.529 169.161C279.413 169.161 288.735 171.939 288.735 175.498C288.735 179.056 279.387 181.826 267.529 181.826ZM267.529 169.821C255.232 169.821 246.96 172.771 246.96 175.532C246.96 178.293 255.232 181.234 267.529 181.234C279.826 181.234 288.098 178.285 288.098 175.532C288.098 172.78 279.835 169.821 267.529 169.821Z" fill="#EBD62A"/>
<path d="M239.316 164.488V174.058C239.316 178.345 251.355 181.835 266.309 181.835C281.263 181.835 293.302 178.353 293.302 174.058V164.488H239.316Z" fill="#AC8121"/>
<path d="M246.007 164.488H242.852V177.633C242.852 177.728 242.852 177.813 242.852 177.908C243.867 178.409 244.919 178.833 245.999 179.177L246.007 164.488Z" fill="#C29226"/>
<path d="M247.571 164.488H246.625V179.374L247.571 179.657V164.488Z" fill="#C29226"/>
<path d="M249.806 164.488H248.379V179.863C248.835 179.983 249.325 180.094 249.806 180.197V164.488Z" fill="#C29226"/>
<path d="M260.643 164.488H257.031V181.355C258.201 181.483 259.422 181.578 260.669 181.655L260.643 164.488Z" fill="#C29226"/>
<path d="M263.489 164.488H261.984V181.732C262.483 181.732 262.982 181.732 263.489 181.783V164.488Z" fill="#C29226"/>
<path d="M270.996 164.488H269.731V181.775L270.996 181.715V164.488Z" fill="#C29226"/>
<path d="M273.137 164.488H271.95V181.638L273.137 181.552V164.488Z" fill="#C29226"/>
<path d="M276.138 164.488H273.688V181.535C274.547 181.466 275.339 181.389 276.138 181.295V164.488Z" fill="#C29226"/>
<path d="M287.919 164.488H285.236V179.597C286.208 179.322 287.102 179.022 287.919 178.739V164.488Z" fill="#C29226"/>
<path d="M288.4 164.488V178.516C291.479 177.256 293.302 175.721 293.302 174.058V164.488H288.4Z" fill="#C29226"/>
<path d="M293.302 164.488C293.302 168.775 281.212 172.265 266.309 172.265C251.407 172.265 239.316 168.784 239.316 164.488C239.316 160.192 251.355 156.702 266.309 156.702C281.263 156.702 293.302 160.192 293.302 164.488Z" fill="#DEBB2C"/>
<path d="M264.486 165.019C260.931 162.985 257.701 160.43 254.907 157.439C245.697 158.674 239.316 161.367 239.316 164.488C239.316 168.775 251.355 172.265 266.309 172.265C273.911 172.265 280.782 171.408 285.683 169.898C278.331 169.821 271.099 168.809 264.486 165.019Z" fill="#CFAE2A"/>
<path d="M266.309 170.825C254.416 170.825 245.104 168.038 245.104 164.488C245.104 160.938 254.416 158.151 266.309 158.151C278.202 158.151 287.506 160.93 287.506 164.488C287.506 168.047 278.193 170.825 266.309 170.825ZM266.309 158.82C254.004 158.82 245.74 161.761 245.74 164.522C245.74 167.283 254.004 170.224 266.309 170.224C278.615 170.224 286.87 167.275 286.87 164.522C286.87 161.77 278.606 158.786 266.309 158.786V158.82Z" fill="#EBD62A"/>
<path d="M235.533 152.672V162.241C235.533 166.529 247.615 170.027 262.526 170.027C277.437 170.027 289.519 166.537 289.519 162.241V152.672H235.533Z" fill="#AC8121"/>
<path d="M242.206 152.672H239.041V165.817C239.041 165.911 239.041 166.006 239.041 166.1C240.061 166.599 241.115 167.023 242.197 167.369L242.206 152.672Z" fill="#C29226"/>
<path d="M243.788 152.672H242.834V167.566L243.788 167.84V152.672Z" fill="#C29226"/>
<path d="M245.998 152.672H244.57V168.055C245.035 168.175 245.516 168.278 245.998 168.389V152.672Z" fill="#C29226"/>
<path d="M256.833 152.672H253.195V169.538C254.365 169.667 255.586 169.761 256.833 169.847V152.672Z" fill="#C29226"/>
<path d="M259.68 152.672H258.175V169.924L259.68 169.976V152.672Z" fill="#C29226"/>
<path d="M267.195 152.672H265.931V169.958L267.195 169.907V152.672Z" fill="#C29226"/>
<path d="M269.327 152.672H268.141V169.821L269.327 169.736V152.672Z" fill="#C29226"/>
<path d="M272.329 152.672H269.878V169.727C270.738 169.658 271.529 169.573 272.329 169.487V152.672Z" fill="#C29226"/>
<path d="M284.118 152.672H281.427V167.78C282.398 167.506 283.293 167.215 284.118 166.923V152.672Z" fill="#C29226"/>
<path d="M284.592 152.672V166.709C287.67 165.448 289.493 163.905 289.493 162.241V152.672H284.592Z" fill="#C29226"/>
<path d="M289.493 152.672C289.493 156.959 277.411 160.457 262.5 160.457C247.589 160.457 235.533 156.959 235.533 152.672C235.533 148.384 247.615 144.895 262.526 144.895C277.437 144.895 289.493 148.384 289.493 152.672Z" fill="#DEBB2C"/>
<path d="M260.678 153.186C257.121 151.15 253.892 148.591 251.098 145.598C241.888 146.841 235.508 149.525 235.508 152.646C235.508 156.933 247.59 160.432 262.501 160.432C269.04 160.536 275.562 159.739 281.883 158.065C274.522 157.962 267.291 156.959 260.678 153.186Z" fill="#CFAE2A"/>
<path d="M262.5 158.983C250.616 158.983 241.303 156.205 241.303 152.646C241.303 149.088 250.616 146.318 262.5 146.318C274.384 146.318 283.688 149.097 283.688 152.672C283.688 156.248 274.384 158.983 262.5 158.983ZM262.5 146.979C250.194 146.979 241.93 149.928 241.93 152.681C241.93 155.433 250.194 158.392 262.5 158.392C274.805 158.392 283.069 155.442 283.069 152.681C283.069 149.92 274.805 146.944 262.5 146.944V146.979Z" fill="#EBD62A"/>
<path d="M241.148 142.254V151.814C241.148 156.102 253.23 159.592 268.141 159.592C283.052 159.592 295.134 156.11 295.134 151.814V142.245L241.148 142.254Z" fill="#AC8121"/>
<path d="M247.848 142.254H244.684V155.399C244.684 155.493 244.684 155.579 244.684 155.673C245.703 156.172 246.758 156.596 247.84 156.942L247.848 142.254Z" fill="#C29226"/>
<path d="M249.429 142.254H248.475V157.148L249.429 157.423V142.254Z" fill="#C29226"/>
<path d="M251.638 142.254H250.211V157.628C250.675 157.748 251.157 157.86 251.638 157.963V142.254Z" fill="#C29226"/>
<path d="M262.474 142.254H258.837V159.12C260.015 159.24 261.227 159.343 262.474 159.42V142.254Z" fill="#C29226"/>
<path d="M265.32 142.254H263.815V159.532C264.314 159.532 264.822 159.532 265.32 159.583V142.254Z" fill="#C29226"/>
<path d="M272.836 142.254H271.572V159.532L272.836 159.472V142.254Z" fill="#C29226"/>
<path d="M274.969 142.254H273.782V159.403L274.969 159.326V142.254Z" fill="#C29226"/>
<path d="M277.97 142.254H275.52V159.3C276.379 159.232 277.171 159.155 277.97 159.06V142.254Z" fill="#C29226"/>
<path d="M289.76 142.254H287.068V157.362C288.04 157.088 288.934 156.788 289.76 156.505V142.254Z" fill="#C29226"/>
<path d="M290.232 142.254V156.291C293.32 155.022 295.134 153.487 295.134 151.823V142.254H290.232Z" fill="#C29226"/>
<path d="M295.134 142.254C295.134 146.541 283.052 150.031 268.141 150.031C253.23 150.031 241.148 146.55 241.148 142.254C241.148 137.958 253.23 134.477 268.141 134.477C283.052 134.477 295.134 137.958 295.134 142.254Z" fill="#DEBB2C"/>
<path d="M266.318 142.786C262.762 140.749 259.533 138.191 256.739 135.197C247.529 136.441 241.148 139.133 241.148 142.254C241.148 146.542 253.23 150.032 268.141 150.032C274.681 150.134 281.203 149.338 287.524 147.665C280.163 147.571 272.931 146.576 266.318 142.786Z" fill="#CFAE2A"/>
<path d="M268.142 148.59C256.25 148.59 246.945 145.804 246.945 142.254C246.945 138.704 256.25 135.917 268.142 135.917C280.035 135.917 289.34 138.695 289.34 142.254C289.34 145.812 280.027 148.59 268.142 148.59ZM268.142 136.586C255.837 136.586 247.573 139.544 247.573 142.297C247.573 145.049 255.837 147.999 268.142 147.999C280.448 147.999 288.712 145.049 288.712 142.297C288.712 139.544 280.448 136.543 268.142 136.543V136.586Z" fill="#EBD62A"/>
<path d="M237.373 128.354V137.924C237.373 142.211 249.464 145.71 264.375 145.71C279.286 145.71 291.368 142.22 291.368 137.924V128.354H237.373Z" fill="#AC8121"/>
<path d="M244.073 128.354H240.908V141.525C240.908 141.62 240.908 141.714 240.908 141.808C241.927 142.302 242.979 142.726 244.056 143.077L244.073 128.354Z" fill="#C29226"/>
<path d="M245.653 128.354H244.707V143.24C245.017 143.334 245.326 143.429 245.653 143.514V128.354Z" fill="#C29226"/>
<path d="M247.873 128.354H246.445V143.737L247.873 144.072V128.354Z" fill="#C29226"/>
<path d="M258.699 128.354H255.07V145.229C256.24 145.349 257.461 145.444 258.699 145.521V128.354Z" fill="#C29226"/>
<path d="M261.554 128.354H260.049V145.598L261.554 145.658V128.354Z" fill="#C29226"/>
<path d="M269.07 128.354H267.806V145.641L269.07 145.59V128.354Z" fill="#C29226"/>
<path d="M271.202 128.354H270.016V145.504L271.202 145.427V128.354Z" fill="#C29226"/>
<path d="M274.229 128.354H271.778V145.41C272.638 145.341 273.429 145.255 274.229 145.169V128.354Z" fill="#C29226"/>
<path d="M285.985 128.354H283.302V143.472C284.273 143.189 285.168 142.897 285.985 142.614V128.354Z" fill="#C29226"/>
<path d="M286.457 128.354V142.382C289.544 141.122 291.367 139.579 291.367 137.915V128.346L286.457 128.354Z" fill="#C29226"/>
<path d="M291.368 128.354C291.368 132.642 279.277 136.14 264.375 136.14C249.472 136.14 237.373 132.659 237.373 128.354C237.373 124.05 249.464 120.577 264.375 120.577C279.286 120.577 291.368 124.058 291.368 128.354Z" fill="#DEBB2C"/>
<path d="M262.552 128.894C258.993 126.857 255.761 124.299 252.963 121.306C243.762 122.549 237.373 125.233 237.373 128.354C237.373 132.641 249.464 136.14 264.375 136.14C270.911 136.243 277.431 135.447 283.749 133.773C276.396 133.67 269.164 132.676 262.552 128.894Z" fill="#CFAE2A"/>
<path d="M264.374 134.666C252.481 134.666 243.168 131.887 243.168 128.329C243.168 124.77 252.481 121.992 264.374 121.992C276.266 121.992 285.571 124.779 285.571 128.329C285.571 131.879 276.258 134.666 264.374 134.666ZM264.374 122.661C252.068 122.661 243.804 125.611 243.804 128.363C243.804 131.116 252.068 134.074 264.374 134.074C276.679 134.074 284.934 131.124 284.934 128.363C284.934 125.602 276.671 122.661 264.374 122.661Z" fill="#EBD62A"/>
<path d="M243.023 117.962V127.531C243.023 131.819 255.062 135.308 270.016 135.308C284.97 135.308 297.009 131.827 297.009 127.531V117.962H243.023Z" fill="#AC8121"/>
<path d="M249.713 117.962H246.549V131.107C246.549 131.201 246.549 131.287 246.549 131.381C247.565 131.88 248.617 132.304 249.696 132.65L249.713 117.962Z" fill="#C29226"/>
<path d="M251.296 117.962H250.35V132.848L251.296 133.13V117.962Z" fill="#C29226"/>
<path d="M253.513 117.962H252.086V133.336C252.542 133.456 253.023 133.568 253.513 133.671V117.962Z" fill="#C29226"/>
<path d="M264.349 117.962H260.703V134.828C261.881 134.948 263.102 135.051 264.349 135.128V117.962Z" fill="#C29226"/>
<path d="M267.195 117.962H265.69V135.206C266.181 135.206 266.688 135.206 267.195 135.257V117.962Z" fill="#C29226"/>
<path d="M274.703 117.962H273.438V135.249L274.703 135.188V117.962Z" fill="#C29226"/>
<path d="M276.809 117.962H275.622V135.111L276.809 135.034V117.962Z" fill="#C29226"/>
<path d="M279.844 117.962H277.394V135.008C278.253 134.94 279.045 134.863 279.844 134.768V117.962Z" fill="#C29226"/>
<path d="M291.625 117.962H288.942V133.07C289.914 132.796 290.808 132.496 291.625 132.213V117.962Z" fill="#C29226"/>
<path d="M292.107 117.962V131.999C295.186 130.73 297.009 129.195 297.009 127.531V117.962H292.107Z" fill="#C29226"/>
<path d="M297.009 117.962C297.009 122.249 284.919 125.739 270.016 125.739C255.114 125.739 243.023 122.258 243.023 117.962C243.023 113.666 255.062 110.185 270.016 110.185C284.97 110.185 297.009 113.666 297.009 117.962Z" fill="#DEBB2C"/>
<path d="M268.209 118.494C264.648 116.46 261.416 113.901 258.621 110.905C249.42 112.149 243.039 114.841 243.039 117.962C243.039 122.25 255.078 125.74 270.032 125.74C276.568 125.843 283.088 125.046 289.406 123.373C282.037 123.279 274.805 122.275 268.209 118.494Z" fill="#CFAE2A"/>
<path d="M270.014 124.298C258.122 124.298 248.809 121.512 248.809 117.962C248.809 114.412 258.122 111.625 270.014 111.625C281.907 111.625 291.211 114.403 291.211 117.962C291.211 121.52 281.898 124.298 270.014 124.298ZM270.014 112.294C257.709 112.294 249.445 115.244 249.445 117.996C249.445 120.748 257.709 123.698 270.014 123.698C282.32 123.698 290.575 120.748 290.575 117.996C290.575 115.244 282.311 112.26 270.014 112.26V112.294Z" fill="#EBD62A"/>
<path d="M175.631 222.864V232.416C175.631 236.704 187.67 240.202 202.624 240.202C217.578 240.202 229.617 236.721 229.617 232.416V222.855L175.631 222.864Z" fill="#AC8121"/>
<path d="M182.32 222.864H179.164V236.009C179.164 236.095 179.164 236.189 179.164 236.284C180.181 236.781 181.233 237.205 182.311 237.553L182.32 222.864Z" fill="#C29226"/>
<path d="M183.938 222.864H182.992V237.75L183.938 238.033V222.864Z" fill="#C29226"/>
<path d="M186.123 222.864H184.695V238.239C185.151 238.359 185.641 238.462 186.123 238.573V222.864Z" fill="#C29226"/>
<path d="M196.958 222.864H193.32V239.722C194.49 239.851 195.711 239.945 196.958 240.031V222.864Z" fill="#C29226"/>
<path d="M199.802 222.864H198.297V240.134L199.802 240.194V222.864Z" fill="#C29226"/>
<path d="M207.311 222.864H206.047V240.134C206.477 240.134 206.907 240.134 207.311 240.082V222.864Z" fill="#C29226"/>
<path d="M209.452 222.864H208.266V240.014L209.452 239.928V222.864Z" fill="#C29226"/>
<path d="M212.453 222.864H210.002V239.911C210.862 239.842 211.653 239.765 212.453 239.671V222.864Z" fill="#C29226"/>
<path d="M224.234 222.864H221.551V237.973C222.522 237.698 223.417 237.398 224.234 237.115V222.864Z" fill="#C29226"/>
<path d="M224.715 222.864V236.892C227.793 235.632 229.616 234.097 229.616 232.425V222.864H224.715Z" fill="#C29226"/>
<path d="M229.617 222.865C229.617 227.152 217.526 230.642 202.624 230.642C187.721 230.642 175.631 227.161 175.631 222.865C175.631 218.569 187.67 215.079 202.624 215.079C217.578 215.079 229.617 218.569 229.617 222.865Z" fill="#DEBB2C"/>
<path d="M200.801 223.396C197.243 221.362 194.013 218.803 191.221 215.808C182.011 217.051 175.631 219.743 175.631 222.865C175.631 227.152 187.67 230.642 202.624 230.642C209.16 230.745 215.68 229.949 221.998 228.275C214.646 228.181 207.414 227.178 200.801 223.396Z" fill="#CFAE2A"/>
<path d="M202.624 229.192C190.731 229.192 181.418 226.414 181.418 222.864C181.418 219.314 190.731 216.527 202.624 216.527C214.516 216.527 223.821 219.314 223.821 222.864C223.821 226.414 214.508 229.192 202.624 229.192ZM202.624 217.188C190.318 217.188 182.054 220.146 182.054 222.898C182.054 225.651 190.318 228.601 202.624 228.601C214.929 228.601 223.184 225.651 223.184 222.898C223.184 220.146 214.895 217.153 202.624 217.153V217.188Z" fill="#EBD62A"/>
<path d="M171.82 211.023V220.593C171.82 224.88 183.902 228.379 198.813 228.379C213.724 228.379 225.806 224.889 225.806 220.593V211.023H171.82Z" fill="#AC8121"/>
<path d="M178.52 211.023H175.338V224.168C175.338 224.263 175.338 224.348 175.338 224.443C176.356 224.948 177.411 225.376 178.494 225.72L178.52 211.023Z" fill="#C29226"/>
<path d="M180.094 211.023H179.148V225.918L180.094 226.192V211.023Z" fill="#C29226"/>
<path d="M182.312 211.023H180.885V226.415L182.312 226.749V211.023Z" fill="#C29226"/>
<path d="M193.147 211.023H189.51V227.89C190.679 228.018 191.9 228.113 193.147 228.19V211.023Z" fill="#C29226"/>
<path d="M195.978 211.023H194.473V228.267C194.971 228.267 195.479 228.267 195.978 228.319V211.023Z" fill="#C29226"/>
<path d="M203.509 211.023H202.236V228.31L203.509 228.25V211.023Z" fill="#C29226"/>
<path d="M205.642 211.023H204.455V228.173L205.642 228.096V211.023Z" fill="#C29226"/>
<path d="M208.651 211.023H206.191V228.078C207.051 228.01 207.842 227.924 208.651 227.838V211.023Z" fill="#C29226"/>
<path d="M220.434 211.023H217.742V226.132C218.714 225.858 219.617 225.566 220.434 225.275V211.023Z" fill="#C29226"/>
<path d="M220.914 211.023V225.06C224.001 223.8 225.816 222.256 225.816 220.593V211.023H220.914Z" fill="#C29226"/>
<path d="M225.806 211.023C225.806 215.31 213.724 218.809 198.813 218.809C183.902 218.809 171.82 215.319 171.82 211.023C171.82 206.727 183.937 203.263 198.813 203.263C213.69 203.263 225.806 206.693 225.806 211.023Z" fill="#DEBB2C"/>
<path d="M196.99 211.563C193.436 209.524 190.207 206.966 187.411 203.975C178.201 205.209 171.82 207.902 171.82 211.023C171.82 215.31 183.902 218.809 198.813 218.809C205.353 218.912 211.875 218.115 218.196 216.442C210.835 216.339 203.603 215.345 196.99 211.563Z" fill="#CFAE2A"/>
<path d="M198.814 217.36C186.922 217.36 177.617 214.573 177.617 211.023C177.617 207.474 186.922 204.695 198.814 204.695C210.707 204.695 220.011 207.474 220.011 211.023C220.011 214.573 210.698 217.36 198.814 217.36ZM198.814 205.355C186.509 205.355 178.245 208.305 178.245 211.058C178.245 213.81 186.509 216.76 198.814 216.76C211.12 216.76 219.384 213.81 219.384 211.058C219.384 208.305 211.12 205.321 198.814 205.321V205.355Z" fill="#EBD62A"/>
<path d="M177.461 200.631V210.2C177.461 214.487 189.551 217.977 204.454 217.977C219.356 217.977 231.447 214.496 231.447 210.2V200.631H177.461Z" fill="#AC8121"/>
<path d="M184.161 200.631H180.996V213.776C180.996 213.862 180.996 213.956 180.996 214.05C182.014 214.553 183.069 214.977 184.152 215.319L184.161 200.631Z" fill="#C29226"/>
<path d="M185.743 200.631H184.797V215.516L185.751 215.799L185.743 200.631Z" fill="#C29226"/>
<path d="M187.954 200.631H186.518V216.005C186.973 216.125 187.455 216.237 187.936 216.34L187.954 200.631Z" fill="#C29226"/>
<path d="M198.789 200.631H195.117V217.497C196.295 217.617 197.516 217.72 198.755 217.797L198.789 200.631Z" fill="#C29226"/>
<path d="M201.634 200.631H200.129V217.84L201.634 217.892V200.631Z" fill="#C29226"/>
<path d="M209.151 200.631H207.887V217.917L209.151 217.857V200.631Z" fill="#C29226"/>
<path d="M211.284 200.631H210.098V217.78L211.284 217.694V200.631Z" fill="#C29226"/>
<path d="M214.283 200.631H211.832V217.677C212.692 217.609 213.492 217.532 214.283 217.437V200.631Z" fill="#C29226"/>
<path d="M226.074 200.631H223.383V215.739C224.355 215.465 225.249 215.165 226.074 214.882V200.631Z" fill="#C29226"/>
<path d="M226.547 200.631V214.659C229.634 213.399 231.448 211.864 231.448 210.2V200.631H226.547Z" fill="#C29226"/>
<path d="M231.447 200.631C231.447 204.918 219.365 208.408 204.454 208.408C189.543 208.408 177.461 204.927 177.461 200.631C177.461 196.335 189.551 192.845 204.454 192.845C219.356 192.845 231.447 196.326 231.447 200.631Z" fill="#DEBB2C"/>
<path d="M202.631 201.162C199.076 199.122 195.848 196.565 193.051 193.573C183.842 194.817 177.461 197.509 177.461 200.63C177.461 204.918 189.551 208.407 204.454 208.407C210.993 208.511 217.516 207.715 223.837 206.041C216.476 205.947 209.244 204.978 202.631 201.162Z" fill="#CFAE2A"/>
<path d="M204.455 206.967C192.571 206.967 183.258 204.181 183.258 200.631C183.258 197.081 192.571 194.294 204.455 194.294C216.339 194.294 225.652 197.072 225.652 200.631C225.652 204.189 216.348 206.967 204.455 206.967ZM204.455 194.963C192.149 194.963 183.886 197.921 183.886 200.673C183.886 203.426 192.149 206.376 204.455 206.376C216.76 206.376 225.024 203.426 225.024 200.673C225.024 197.921 216.76 194.92 204.455 194.92V194.963Z" fill="#EBD62A"/>
<path d="M173.688 186.73V196.3C173.688 200.587 185.778 204.086 200.68 204.086C215.583 204.086 227.682 200.596 227.682 196.3V186.73H173.688Z" fill="#AC8121"/>
<path d="M180.387 186.73H177.223V199.876C177.223 199.97 177.223 200.056 177.223 200.15C178.239 200.652 179.291 201.079 180.37 201.428L180.387 186.73Z" fill="#C29226"/>
<path d="M181.969 186.73H181.023V201.625L181.969 201.899V186.73Z" fill="#C29226"/>
<path d="M184.187 186.73H182.76V202.114L184.187 202.448V186.73Z" fill="#C29226"/>
<path d="M195.012 186.73H191.375V203.597C192.553 203.726 193.774 203.82 195.012 203.897V186.73Z" fill="#C29226"/>
<path d="M197.868 186.73H196.363V203.974L197.868 204.034V186.73Z" fill="#C29226"/>
<path d="M205.375 186.73H204.111V204.017L205.375 203.957V186.73Z" fill="#C29226"/>
<path d="M207.516 186.73H206.295V203.88L207.482 203.803L207.516 186.73Z" fill="#C29226"/>
<path d="M210.517 186.73H208.066V203.777C208.898 203.708 209.715 203.631 210.517 203.545V186.73Z" fill="#C29226"/>
<path d="M222.298 186.73H219.615V201.839C220.587 201.565 221.481 201.273 222.298 200.982V186.73Z" fill="#C29226"/>
<path d="M222.771 186.73V200.767C225.859 199.498 227.682 197.963 227.682 196.3V186.73H222.771Z" fill="#C29226"/>
<path d="M227.682 186.731C227.682 191.019 215.592 194.509 200.68 194.509C185.769 194.509 173.688 191.027 173.688 186.731C173.688 182.435 185.778 178.954 200.68 178.954C215.583 178.954 227.682 182.435 227.682 186.731Z" fill="#DEBB2C"/>
<path d="M198.866 187.263C195.306 185.231 192.073 182.676 189.278 179.683C180.077 180.917 173.688 183.61 173.688 186.731C173.688 191.018 185.778 194.508 200.68 194.508C207.218 194.598 213.737 193.793 220.055 192.116C212.711 192.047 205.479 191.053 198.866 187.263Z" fill="#CFAE2A"/>
<path d="M200.681 193.067C188.797 193.067 179.484 190.28 179.484 186.73C179.484 183.181 188.797 180.402 200.681 180.402C212.566 180.402 221.887 183.181 221.887 186.73C221.887 190.28 212.574 193.067 200.681 193.067ZM200.681 181.063C188.385 181.063 180.121 184.012 180.121 186.765C180.121 189.517 188.385 192.476 200.681 192.476C212.978 192.476 221.251 189.517 221.251 186.765C221.251 184.012 212.987 181.028 200.681 181.028V181.063Z" fill="#EBD62A"/>
<path d="M179.336 176.33V185.908C179.336 190.195 191.375 193.685 206.329 193.685C221.283 193.685 233.322 190.195 233.322 185.908V176.33H179.336Z" fill="#AC8121"/>
<path d="M186.028 176.33H182.863V189.484C182.863 189.569 182.863 189.664 182.863 189.758C183.881 190.256 184.932 190.68 186.011 191.027L186.028 176.33Z" fill="#C29226"/>
<path d="M187.61 176.33H186.664V191.259L187.61 191.542V176.33Z" fill="#C29226"/>
<path d="M189.828 176.33H188.4V191.713C188.856 191.833 189.338 191.936 189.828 192.048V176.33Z" fill="#C29226"/>
<path d="M200.663 176.33H197.025V193.205C198.195 193.325 199.416 193.428 200.663 193.505V176.33Z" fill="#C29226"/>
<path d="M203.51 176.33H201.996V193.582L203.501 193.634L203.51 176.33Z" fill="#C29226"/>
<path d="M211.016 176.33H209.734V193.617L210.998 193.565L211.016 176.33Z" fill="#C29226"/>
<path d="M213.175 176.33H211.971V193.479L213.157 193.394L213.175 176.33Z" fill="#C29226"/>
<path d="M216.158 176.33H213.707V193.385C214.567 193.317 215.358 193.231 216.158 193.145V176.33Z" fill="#C29226"/>
<path d="M227.941 176.33H225.258V191.447C226.23 191.173 227.124 190.873 227.941 190.59V176.33Z" fill="#C29226"/>
<path d="M228.422 176.33V190.401C231.5 189.141 233.323 187.597 233.323 185.942V176.364L228.422 176.33Z" fill="#C29226"/>
<path d="M233.322 176.33C233.322 180.617 221.231 184.116 206.329 184.116C191.426 184.116 179.336 180.634 179.336 176.33C179.336 172.025 191.375 168.553 206.329 168.553C221.283 168.553 233.322 172.034 233.322 176.33Z" fill="#DEBB2C"/>
<path d="M204.506 176.87C200.945 174.835 197.713 172.277 194.918 169.281C185.717 170.525 179.336 173.217 179.336 176.33C179.336 180.617 191.375 184.115 206.329 184.115C212.865 184.219 219.385 183.423 225.703 181.749C218.333 181.646 211.119 180.651 204.506 176.87Z" fill="#CFAE2A"/>
<path d="M206.296 182.683C194.403 182.683 185.09 179.905 185.09 176.347C185.09 172.788 194.403 170.019 206.296 170.019C218.188 170.019 227.493 172.797 227.493 176.347C227.493 179.897 218.214 182.683 206.296 182.683ZM206.296 170.679C193.99 170.679 185.726 173.629 185.726 176.381C185.726 179.133 193.99 182.092 206.296 182.092C218.601 182.092 226.856 179.142 226.856 176.381C226.856 173.62 218.627 170.627 206.296 170.627V170.679Z" fill="#EBD62A"/>
<path d="M178.107 165.32V174.89C178.107 179.177 190.189 182.667 205.1 182.667C220.011 182.667 232.093 179.186 232.093 174.89V165.32H178.107Z" fill="#AC8121"/>
<path d="M184.797 165.32H181.633V178.465C181.633 178.56 181.633 178.654 181.633 178.74C182.652 179.242 183.707 179.669 184.789 180.017L184.797 165.32Z" fill="#C29226"/>
<path d="M186.38 165.32H185.434V180.215L186.38 180.489V165.32Z" fill="#C29226"/>
<path d="M188.599 165.32H187.18V180.695C187.635 180.815 188.117 180.926 188.599 181.029V165.32Z" fill="#C29226"/>
<path d="M199.415 165.32H195.777V182.187C196.947 182.315 198.168 182.41 199.415 182.487V165.32Z" fill="#C29226"/>
<path d="M202.278 165.32H200.773V182.564C201.272 182.564 201.771 182.564 202.278 182.615V165.32Z" fill="#C29226"/>
<path d="M209.796 165.32H208.523V182.607L209.796 182.547V165.32Z" fill="#C29226"/>
<path d="M211.929 165.32H210.742V182.47L211.929 182.393V165.32Z" fill="#C29226"/>
<path d="M214.894 165.32H212.443V182.367C213.303 182.298 214.094 182.221 214.894 182.127V165.32Z" fill="#C29226"/>
<path d="M226.719 165.32H224.027V180.429C224.999 180.154 225.893 179.854 226.719 179.571V165.32Z" fill="#C29226"/>
<path d="M227.191 165.32V179.357C230.279 178.088 232.093 176.553 232.093 174.89V165.32H227.191Z" fill="#C29226"/>
<path d="M232.093 165.32C232.093 169.608 220.003 173.106 205.1 173.106C190.198 173.106 178.107 169.616 178.107 165.32C178.107 161.024 190.189 157.543 205.1 157.543C220.011 157.543 232.093 161.024 232.093 165.32Z" fill="#DEBB2C"/>
<path d="M203.277 165.851C199.722 163.817 196.492 161.262 193.698 158.271C184.488 159.506 178.107 162.199 178.107 165.32C178.107 169.607 190.189 173.106 205.1 173.106C211.637 173.207 218.157 172.408 224.474 170.731C217.122 170.679 209.89 169.642 203.277 165.851Z" fill="#CFAE2A"/>
<path d="M205.099 171.657C193.215 171.657 183.902 168.87 183.902 165.32C183.902 161.77 193.215 158.983 205.099 158.983C216.984 158.983 226.296 161.77 226.296 165.32C226.296 168.87 216.984 171.657 205.099 171.657ZM205.099 159.652C192.794 159.652 184.53 162.602 184.53 165.354C184.53 168.107 192.794 171.057 205.099 171.057C217.405 171.057 225.669 168.107 225.669 165.354C225.669 162.602 217.405 159.618 205.099 159.618V159.652Z" fill="#EBD62A"/>
<path d="M174.297 153.529V163.09C174.297 167.377 186.387 170.876 201.29 170.876C216.192 170.876 228.283 167.395 228.283 163.09V153.529H174.297Z" fill="#AC8121"/>
<path d="M180.997 153.529H177.832V166.666C177.832 166.769 177.832 166.854 177.832 166.949C178.85 167.451 179.905 167.876 180.988 168.218L180.997 153.529Z" fill="#C29226"/>
<path d="M182.579 153.529H181.625V168.415L182.579 168.698V153.529Z" fill="#C29226"/>
<path d="M184.798 153.529H183.379V168.904C183.835 169.024 184.316 169.127 184.798 169.238V153.529Z" fill="#C29226"/>
<path d="M195.624 153.529H191.986V170.396C193.164 170.516 194.386 170.619 195.624 170.696V153.529Z" fill="#C29226"/>
<path d="M198.47 153.529H196.965V170.764L198.47 170.824V153.529Z" fill="#C29226"/>
<path d="M205.987 153.529H204.723V170.807L205.987 170.756V153.529Z" fill="#C29226"/>
<path d="M208.118 153.529H206.932V170.679L208.118 170.593V153.529Z" fill="#C29226"/>
<path d="M211.128 153.529H208.678V170.576C209.538 170.507 210.329 170.421 211.128 170.336V153.529Z" fill="#C29226"/>
<path d="M222.91 153.529H220.219V168.638C221.19 168.363 222.093 168.063 222.91 167.78V153.529Z" fill="#C29226"/>
<path d="M223.383 153.529V167.557C226.47 166.297 228.284 164.762 228.284 163.09V153.529H223.383Z" fill="#C29226"/>
<path d="M228.283 153.53C228.283 157.817 216.244 161.307 201.29 161.307C186.336 161.307 174.297 157.826 174.297 153.53C174.297 149.234 186.387 145.744 201.29 145.744C216.192 145.744 228.283 149.183 228.283 153.53Z" fill="#DEBB2C"/>
<path d="M199.467 154.018C195.91 151.982 192.681 149.423 189.887 146.43C180.678 147.673 174.297 150.365 174.297 153.487C174.297 157.774 186.387 161.264 201.29 161.264C207.829 161.368 214.351 160.571 220.673 158.897C213.312 158.794 206.088 157.817 199.467 154.018Z" fill="#CFAE2A"/>
<path d="M201.291 159.824C189.407 159.824 180.094 157.037 180.094 153.487C180.094 149.937 189.407 147.15 201.291 147.15C213.175 147.15 222.497 149.928 222.497 153.487C222.497 157.045 213.175 159.824 201.291 159.824ZM201.291 147.819C188.985 147.819 180.721 150.769 180.721 153.53C180.721 156.291 188.985 159.232 201.291 159.232C213.596 159.232 221.86 156.282 221.86 153.53C221.86 150.777 213.596 147.776 201.291 147.776V147.819Z" fill="#EBD62A"/>
<path d="M114.129 223.653V233.223C114.129 237.51 126.211 241 141.122 241C156.033 241 168.115 237.519 168.115 233.223V223.653H114.129Z" fill="#AC8121"/>
<path d="M120.829 223.653H117.664V236.798C117.664 236.893 117.664 236.987 117.664 237.073C118.682 237.575 119.737 238 120.82 238.342L120.829 223.653Z" fill="#C29226"/>
<path d="M122.41 223.653H121.455V238.548L122.41 238.822V223.653Z" fill="#C29226"/>
<path d="M124.603 223.653H123.201V239.028C123.657 239.148 124.138 239.259 124.62 239.362L124.603 223.653Z" fill="#C29226"/>
<path d="M135.454 223.653H131.816V240.52C132.995 240.648 134.207 240.743 135.454 240.82V223.653Z" fill="#C29226"/>
<path d="M138.302 223.653H136.797V240.897C137.296 240.897 137.803 240.897 138.302 240.948V223.653Z" fill="#C29226"/>
<path d="M145.816 223.653H144.543V240.94L145.816 240.88V223.653Z" fill="#C29226"/>
<path d="M147.948 223.653H146.762V240.803L147.948 240.717V223.653Z" fill="#C29226"/>
<path d="M150.951 223.653H148.5V240.7C149.36 240.631 150.151 240.554 150.951 240.46V223.653Z" fill="#C29226"/>
<path d="M162.74 223.653H160.049V238.762C161.021 238.488 161.915 238.187 162.74 237.904V223.653Z" fill="#C29226"/>
<path d="M163.213 223.653V237.681C166.3 236.421 168.114 234.886 168.114 233.223V223.653H163.213Z" fill="#C29226"/>
<path d="M168.115 223.653C168.115 227.94 156.076 231.43 141.122 231.43C126.168 231.43 114.129 227.949 114.129 223.653C114.129 219.357 126.211 215.867 141.122 215.867C156.033 215.867 168.115 219.357 168.115 223.653Z" fill="#DEBB2C"/>
<path d="M139.299 224.185C135.756 222.148 132.541 219.59 129.762 216.597C120.553 217.84 114.172 220.532 114.172 223.654C114.172 227.941 126.254 231.431 141.165 231.431C147.704 231.534 154.226 230.738 160.548 229.064C153.144 228.987 145.912 227.975 139.299 224.185Z" fill="#CFAE2A"/>
<path d="M141.123 229.99C129.239 229.99 119.926 227.203 119.926 223.653C119.926 220.103 129.239 217.316 141.123 217.316C153.007 217.316 162.32 220.103 162.32 223.653C162.32 227.203 152.981 229.99 141.123 229.99ZM141.123 217.985C128.817 217.985 120.554 220.935 120.554 223.687C120.554 226.44 128.817 229.39 141.123 229.39C153.428 229.39 161.692 226.44 161.692 223.687C161.692 220.935 153.428 217.951 141.123 217.951V217.985Z" fill="#EBD62A"/>
<path d="M110.32 211.838V221.416C110.32 225.703 122.411 229.193 137.313 229.193C152.216 229.193 164.306 225.703 164.306 221.416V211.838H110.32Z" fill="#AC8121"/>
<path d="M117.018 211.838H113.854V224.983C113.854 225.086 113.854 225.172 113.854 225.266C114.873 225.765 115.928 226.189 117.009 226.535L117.018 211.838Z" fill="#C29226"/>
<path d="M118.583 211.838H117.637V226.732C117.938 226.826 118.256 226.921 118.583 227.006V211.838Z" fill="#C29226"/>
<path d="M120.81 211.838H119.391V227.221C119.846 227.341 120.328 227.444 120.81 227.555V211.838Z" fill="#C29226"/>
<path d="M131.646 211.838H128.043V228.704C129.221 228.833 130.442 228.927 131.68 229.004L131.646 211.838Z" fill="#C29226"/>
<path d="M134.492 211.838H132.996V229.09L134.492 229.142V211.838Z" fill="#C29226"/>
<path d="M142.006 211.838H140.742V229.124L142.006 229.073V211.838Z" fill="#C29226"/>
<path d="M144.14 211.838H142.953V228.987L144.14 228.902V211.838Z" fill="#C29226"/>
<path d="M147.15 211.838H144.699V228.893C145.559 228.824 146.35 228.739 147.15 228.653V211.838Z" fill="#C29226"/>
<path d="M158.93 211.838H156.238V226.955C157.21 226.672 158.113 226.381 158.93 226.098V211.838Z" fill="#C29226"/>
<path d="M159.404 211.838V225.875C162.491 224.614 164.306 223.071 164.306 221.416V211.838H159.404Z" fill="#C29226"/>
<path d="M164.306 211.838C164.306 216.125 152.267 219.624 137.313 219.624C122.359 219.624 110.32 216.125 110.32 211.838C110.32 207.55 122.411 204.061 137.313 204.061C152.216 204.061 164.306 207.55 164.306 211.838Z" fill="#DEBB2C"/>
<path d="M135.49 212.352C131.934 210.316 128.705 207.757 125.911 204.764C116.71 206.007 110.32 208.691 110.32 211.812C110.32 216.099 122.411 219.598 137.313 219.598C143.853 219.702 150.375 218.905 156.696 217.231C149.335 217.128 142.112 216.125 135.49 212.352Z" fill="#CFAE2A"/>
<path d="M137.312 218.148C125.428 218.148 116.115 215.37 116.115 211.812C116.115 208.253 125.428 205.483 137.312 205.483C149.196 205.483 158.518 208.262 158.518 211.812C158.518 215.361 149.205 218.148 137.312 218.148ZM137.312 206.144C125.007 206.144 116.743 209.093 116.743 211.846C116.743 214.598 125.007 217.557 137.312 217.557C149.618 217.557 157.882 214.607 157.882 211.846C157.882 209.085 149.618 206.109 137.312 206.109V206.144Z" fill="#EBD62A"/>
<path d="M116.004 201.42V210.981C116.004 215.268 128.094 218.758 142.997 218.758C157.899 218.758 169.99 215.276 169.99 210.981V201.411L116.004 201.42Z" fill="#AC8121"/>
<path d="M122.661 201.419H119.496V214.564C119.496 214.658 119.496 214.744 119.496 214.838C120.515 215.34 121.57 215.764 122.652 216.107L122.661 201.419Z" fill="#C29226"/>
<path d="M124.243 201.419H123.297V216.313L124.243 216.588V201.419Z" fill="#C29226"/>
<path d="M126.459 201.419H125.031V216.793C125.487 216.913 125.969 217.025 126.459 217.128V201.419Z" fill="#C29226"/>
<path d="M137.286 201.419H133.648V218.285C134.827 218.414 136.048 218.508 137.286 218.585V201.419Z" fill="#C29226"/>
<path d="M140.133 201.419H138.637V218.697C139.127 218.697 139.634 218.697 140.133 218.748V201.419Z" fill="#C29226"/>
<path d="M147.649 201.419H146.385V218.697L147.649 218.637V201.419Z" fill="#C29226"/>
<path d="M149.78 201.419H148.594V218.568L149.78 218.491V201.419Z" fill="#C29226"/>
<path d="M152.791 201.419H150.34V218.465C151.2 218.397 151.991 218.32 152.791 218.225V201.419Z" fill="#C29226"/>
<path d="M164.572 201.419H161.881V216.528C162.853 216.253 163.755 215.953 164.572 215.67V201.419Z" fill="#C29226"/>
<path d="M165.02 201.419V215.447C168.107 214.195 169.921 212.652 169.921 210.988V201.419H165.02Z" fill="#C29226"/>
<path d="M169.947 201.419C169.947 205.706 157.908 209.196 142.954 209.196C128 209.196 116.004 205.715 116.004 201.419C116.004 197.123 128.094 193.642 142.997 193.642C157.899 193.642 169.947 197.123 169.947 201.419Z" fill="#DEBB2C"/>
<path d="M141.131 201.951C137.575 199.917 134.345 197.362 131.551 194.371C122.342 195.606 115.961 198.298 115.961 201.419C115.961 205.707 128.051 209.197 142.954 209.197C149.493 209.3 156.016 208.504 162.337 206.83C154.984 206.736 147.752 205.741 141.131 201.951Z" fill="#CFAE2A"/>
<path d="M142.955 207.756C131.071 207.756 121.758 204.97 121.758 201.42C121.758 197.87 131.071 195.083 142.955 195.083C154.839 195.083 164.161 197.87 164.161 201.42C164.161 204.97 154.848 207.756 142.955 207.756ZM142.955 195.752C130.658 195.752 122.394 198.702 122.394 201.454C122.394 204.207 130.658 207.156 142.955 207.156C155.252 207.156 163.524 204.207 163.524 201.454C163.524 198.702 155.26 195.718 142.955 195.718V195.752Z" fill="#EBD62A"/>
<path d="M112.195 187.52V197.089C112.195 201.376 124.277 204.875 139.188 204.875C154.099 204.875 166.181 201.385 166.181 197.089V187.52H112.195Z" fill="#AC8121"/>
<path d="M118.884 187.52H115.729V200.69C115.729 200.785 115.729 200.879 115.729 200.973C116.746 201.471 117.798 201.895 118.876 202.242L118.884 187.52Z" fill="#C29226"/>
<path d="M120.465 187.52H119.52V202.405L120.465 202.68V187.52Z" fill="#C29226"/>
<path d="M122.685 187.52H121.258V202.902L122.685 203.237V187.52Z" fill="#C29226"/>
<path d="M133.52 187.52H129.883V204.394C131.052 204.514 132.273 204.609 133.52 204.686V187.52Z" fill="#C29226"/>
<path d="M136.366 187.52H134.861V204.763L136.366 204.823V187.52Z" fill="#C29226"/>
<path d="M143.873 187.52H142.609V204.806L143.873 204.755V187.52Z" fill="#C29226"/>
<path d="M146.015 187.52H144.828V204.669L146.015 204.583V187.52Z" fill="#C29226"/>
<path d="M149.017 187.52H146.566V204.575C147.426 204.506 148.217 204.42 149.017 204.334V187.52Z" fill="#C29226"/>
<path d="M160.798 187.52H158.141V202.637C159.112 202.354 160.007 202.062 160.824 201.779L160.798 187.52Z" fill="#C29226"/>
<path d="M161.277 187.519V201.547C164.364 200.287 166.179 198.744 166.179 197.08V187.511L161.277 187.519Z" fill="#C29226"/>
<path d="M166.181 187.519C166.181 191.807 154.142 195.305 139.188 195.305C124.234 195.305 112.195 191.824 112.195 187.519C112.195 183.215 124.277 179.742 139.188 179.742C154.099 179.742 166.181 183.224 166.181 187.519Z" fill="#DEBB2C"/>
<path d="M137.365 188.06C133.809 186.024 130.58 183.465 127.786 180.472C118.576 181.715 112.195 184.399 112.195 187.52C112.195 191.807 124.277 195.306 139.188 195.306C145.725 195.409 152.244 194.613 158.562 192.939C151.21 192.836 143.978 191.842 137.365 188.06Z" fill="#CFAE2A"/>
<path d="M139.221 193.831C127.328 193.831 118.023 191.053 118.023 187.494C118.023 183.936 127.328 181.166 139.221 181.166C151.113 181.166 160.418 183.944 160.418 187.494C160.418 191.044 151.07 193.831 139.221 193.831ZM139.221 181.826C126.915 181.826 118.651 184.776 118.651 187.528C118.651 190.281 126.915 193.239 139.221 193.239C151.526 193.239 159.79 190.29 159.79 187.528C159.79 184.767 151.483 181.826 139.221 181.826Z" fill="#EBD62A"/>
<path d="M117.836 177.127V186.696C117.836 190.984 129.918 194.474 144.829 194.474C159.74 194.474 171.822 190.992 171.822 186.696V177.127H117.836Z" fill="#AC8121"/>
<path d="M124.525 177.127H121.369V190.272C121.369 190.366 121.369 190.452 121.369 190.546C122.385 191.048 123.437 191.472 124.516 191.815L124.525 177.127Z" fill="#C29226"/>
<path d="M126.108 177.127H125.162V192.021L126.108 192.296V177.127Z" fill="#C29226"/>
<path d="M128.326 177.127H126.898V192.501C127.363 192.621 127.844 192.733 128.326 192.836V177.127Z" fill="#C29226"/>
<path d="M139.161 177.127H135.523V193.993C136.693 194.113 137.914 194.216 139.161 194.294V177.127Z" fill="#C29226"/>
<path d="M142.009 177.127H140.504V194.371C141.003 194.371 141.51 194.371 142.009 194.422V177.127Z" fill="#C29226"/>
<path d="M149.54 177.127H148.25V194.414L149.523 194.353L149.54 177.127Z" fill="#C29226"/>
<path d="M151.655 177.127H150.469V194.276L151.655 194.199V177.127Z" fill="#C29226"/>
<path d="M154.701 177.127H152.207V194.173C153.067 194.105 153.858 194.028 154.658 193.933L154.701 177.127Z" fill="#C29226"/>
<path d="M166.445 177.127H163.754V192.236C164.726 191.961 165.62 191.661 166.445 191.378V177.127Z" fill="#C29226"/>
<path d="M166.92 177.127V191.164C170.007 189.895 171.821 188.36 171.821 186.696V177.127H166.92Z" fill="#C29226"/>
<path d="M171.822 177.128C171.822 181.415 159.783 184.905 144.829 184.905C129.875 184.905 117.836 181.424 117.836 177.128C117.836 172.832 129.918 169.342 144.829 169.342C159.74 169.342 171.822 172.832 171.822 177.128Z" fill="#DEBB2C"/>
<path d="M143.006 177.659C139.448 175.625 136.218 173.067 133.426 170.07C124.217 171.314 117.836 174.006 117.836 177.127C117.836 181.415 129.918 184.904 144.829 184.904C151.368 185.007 157.89 184.211 164.212 182.538C156.851 182.443 149.619 181.44 143.006 177.659Z" fill="#CFAE2A"/>
<path d="M144.828 183.464C132.944 183.464 123.631 180.678 123.631 177.128C123.631 173.578 132.944 170.791 144.828 170.791C156.712 170.791 166.025 173.569 166.025 177.128C166.025 180.686 156.712 183.464 144.828 183.464ZM144.828 171.46C132.522 171.46 124.259 174.401 124.259 177.162C124.259 179.923 132.522 182.864 144.828 182.864C157.133 182.864 165.397 179.915 165.397 177.162C165.397 174.41 157.133 171.426 144.828 171.426V171.46Z" fill="#EBD62A"/>
<path d="M96.6385 40.9951C96.6385 40.9951 87.6265 76.6058 94.9616 111.513L125.463 118.965C125.463 118.965 117.345 60.1166 112.461 46.3457C112.461 46.3457 101.144 41.8526 96.6385 40.9951Z" fill="#F75D59"/>
<path d="M81.1423 192.647C81.1423 192.647 81.5551 197.329 88.5376 202.337C88.5376 202.337 91.8655 205.492 89.6555 207.627C89.6555 207.627 75.5442 204.086 72.887 196.96L72.3109 198.452L65.6465 195.88L69.3785 188.3L81.1423 192.647Z" fill="#4A292F"/>
<path d="M109.804 119.814L81.7708 195.391L67.582 188.943L90.6452 105.546L109.804 119.814Z" fill="#5E3B3B"/>
<path d="M96.585 100.152C96.585 100.152 102.476 100.701 103.464 106.069C103.464 106.069 103.697 108.41 102.312 109.062C102.312 109.062 101.727 108.976 101.753 109.919C101.753 110.168 101.297 110.656 101.125 110.776C100.787 111.036 100.364 111.162 99.9387 111.128C99.1476 111.188 99.0186 112.431 98.2189 112.586C97.8233 112.671 97.4794 112.466 97.0838 112.586C96.6882 112.706 96.5162 112.911 96.1379 112.774C95.7595 112.637 95.4843 112.234 95.1662 112.003C94.7898 111.744 94.4334 111.457 94.0999 111.145C93.2913 110.291 92.608 109.327 92.0704 108.281C91.5677 107.347 91.1614 106.365 90.858 105.349C90.2743 103.826 89.3612 102.45 88.1836 101.319L91.9845 96.9111C91.9845 96.9111 94.1601 99.5093 96.585 100.152Z" fill="#F5C6AB"/>
<path d="M92.2782 96.6885C92.2782 96.6885 94.1614 99.501 96.5778 100.118C96.5778 100.118 102.468 100.667 103.457 106.035C103.542 106.938 103.321 107.844 102.829 108.607C103.095 107.94 103.204 107.222 103.148 106.506C102.133 101.139 96.2682 100.59 96.2682 100.59C93.8346 99.9383 91.5645 97.1086 91.5645 97.1086" fill="#E2B69D"/>
<path d="M100.01 56.2068C100.01 56.2068 106.486 47.5721 98.4969 43.1562C98.4969 43.1562 92.8644 41.1411 86.8363 52.5883L73.9805 81.3135L89.5537 104.594L98.2819 99.0802L86.7159 80.1044L100.01 56.2068Z" fill="#F46767"/>
<path d="M132.145 158.426C132.145 158.426 134.062 162.491 142.292 165.723C142.292 165.723 146.462 167.953 145.078 170.216C145.078 170.216 130.58 169.47 125.747 163.631L125.695 165.046L118.566 163.931L119.624 156.608L132.145 158.426Z" fill="#4A292F"/>
<path d="M111.394 44.5543C112.383 39.2551 113.397 37.4202 113.397 37.4202C115.822 37.4888 119.658 37.5059 119.658 37.5059C123.287 37.6345 122.667 34.6677 122.667 34.6677C122.177 33.2443 123.278 33.0042 123.278 33.0042C124.138 32.4897 123.897 31.9752 123.897 31.9752C123.865 31.7674 123.782 31.5705 123.656 31.4017C123.53 31.2329 123.365 31.0971 123.175 31.0063C124.895 30.7919 124.146 29.5486 124.146 29.5486C124.043 29.2667 124.033 28.9595 124.116 28.6713C124.2 28.3831 124.373 28.1288 124.611 27.9451L126.184 27.525C127.827 27.1991 127.328 26.1787 127.328 26.1787L125.299 21.8914C124.439 19.2247 125.17 18.1528 125.17 18.1528C127.879 11.3617 124.49 9.03797 120.285 6.90287C118.866 6.22303 117.383 5.68589 115.857 5.29941C109.837 3.58447 102.356 5.00787 99.2431 10.9844C97.6937 13.8103 97.0627 17.0462 97.4373 20.2451C97.6451 21.7584 98.0618 23.2358 98.6755 24.6353C100.352 28.1251 100.867 32.0575 100.146 35.8596L99.2087 41.6046L111.394 44.5543Z" fill="#F5C6AB"/>
<path d="M112.297 16.4888C111.855 16.774 111.511 17.1872 111.311 17.6731C111.111 18.1591 111.065 18.6943 111.179 19.207L110.999 24.5405L109.124 24.0517C109.124 24.0517 109.769 19.1813 106.734 19.7644C106.734 19.7644 103.595 21.1449 106.734 26.5727L100.362 33.2867C100.362 33.2867 95.847 28.502 95.3827 19.7644C95.3827 19.7644 93.5511 -2.76133 115.668 0.291257C115.668 0.291257 121.481 1.37168 125.188 4.32137C125.188 4.32137 128.309 7.27106 127.122 10.9153C127.122 10.9153 123.786 14.9968 119.16 16.0601C120.274 14.6833 121.048 13.065 121.421 11.3355C121.421 11.3355 117.981 16.6003 113.888 17.9894L114.963 14.0193L112.297 16.4888Z" fill="black"/>
<path d="M96.4584 40.5239C96.4584 40.5239 84.1873 63.3754 87.0938 97.7942L113.244 100.367C113.244 100.367 117.87 66.2394 113.244 49.1757C113.244 49.21 103.561 37.9429 96.4584 40.5239Z" fill="white"/>
<path d="M98.7272 32.9609L96.457 40.5238L113.243 49.21L112.598 41.4842L98.7272 32.9609Z" fill="white"/>
<path d="M87.4119 96.208L113.244 100.392L112.917 103.934L87.0938 99.1063V97.8201" fill="#1F140F"/>
<path d="M147.88 109.122L113.208 103.488L87.0925 99.1064C86.5527 102.405 86.3024 105.745 86.3444 109.087C86.2326 121.949 104.85 127.094 104.85 127.094L131.507 124.762L118.333 157.08L134.767 159.704L152.472 114.747C152.472 114.747 152.825 110.734 147.88 109.122Z" fill="#5E3B3B"/>
<path d="M96.4567 40.5244C96.4567 40.5244 82.6033 60.8035 84.4178 110.056L113.475 121.864C113.475 121.864 114.119 62.467 111.325 48.1216C111.333 48.0615 100.791 42.0593 96.4567 40.5244Z" fill="#F75D59"/>
<path d="M129.091 98.2402C129.091 98.2402 134.328 95.5306 138.095 99.4921C138.095 99.4921 139.565 101.344 138.757 102.639C138.757 102.639 138.215 102.871 138.757 103.651C138.903 103.857 138.757 104.508 138.757 104.74C138.628 105.211 138.31 105.392 137.897 105.674C137.269 106.155 137.828 107.278 137.278 107.818C136.985 108.093 136.581 108.118 136.332 108.444C136.082 108.77 136.022 109.019 135.635 109.113C135.218 109.129 134.801 109.086 134.397 108.984C133.947 108.976 133.499 108.933 133.055 108.856C131.911 108.57 130.811 108.129 129.788 107.544C128.868 107.026 128.004 106.417 127.208 105.726C125.876 104.766 124.35 104.107 122.736 103.797L123.545 98.043C123.545 98.043 126.683 99.0034 129.091 98.2402Z" fill="#F5C6AB"/>
<path d="M123.57 97.6572C123.57 97.6572 126.683 99.0034 129.09 98.2402C129.09 98.2402 134.327 95.5306 138.094 99.4921C138.653 100.211 138.955 101.095 138.954 102.004C138.815 101.303 138.521 100.641 138.094 100.067C134.327 96.0966 129.082 98.8147 129.082 98.8147C126.683 99.5779 123.234 98.4203 123.234 98.4203" fill="#E2B69D"/>
<path d="M108.109 59.4394C108.109 59.4394 108.866 48.6867 99.7506 49.2869C99.7506 49.2869 93.9203 50.6246 95.0468 63.478L99.828 94.5698L125.565 105.717L129.865 96.3619L109.906 86.7154L108.109 59.4394Z" fill="#F46767"/>
<path d="M113.423 83.8177C113.423 83.8177 112.778 51.9542 111.325 48.0871L97.9878 35.5938L96.3711 40.5242L105.521 49.6476L110.362 56.4045L108.427 58.874L113.423 83.8177Z" fill="#F75D59"/>
</g>
<defs>
<clipPath id="clip0_5531_4065">
<rect width="297" height="241" fill="white"/>
</clipPath>
</defs>
</svg>
