<svg width="270" height="230" viewBox="0 0 270 230" fill="none" xmlns="http://www.w3.org/2000/svg">
<g clip-path="url(#clip0_5531_3704)">
<path d="M269.88 210.323H247.507V210.491H269.88V210.323Z" fill="#EBEBEB"/>
<path d="M238.993 210.323H191.173V210.491H238.993V210.323Z" fill="#EBEBEB"/>
<path d="M164.805 204.044H151.843V204.212H164.805V204.044Z" fill="#EBEBEB"/>
<path d="M24.5972 205.182H1.43457V205.349H24.5972V205.182Z" fill="#EBEBEB"/>
<path d="M72.7284 205.182H30.6123V205.349H72.7284V205.182Z" fill="#EBEBEB"/>
<path d="M118.074 208.034H93.2129V208.202H118.074V208.034Z" fill="#EBEBEB"/>
<path d="M193.624 195.631H206.12V104.544H193.624V195.631Z" fill="#F0F0F0"/>
<path d="M65.9963 199.43L203.717 199.43V195.631L65.9963 195.631V199.43Z" fill="#F0F0F0"/>
<path d="M193.612 104.544H63.5928V195.631H193.612V104.544Z" fill="#F5F5F5"/>
<path d="M193.624 104.544H206.12V101.225H193.624V104.544Z" fill="#E6E6E6"/>
<path d="M193.612 101.237H63.5928V104.557H193.612V101.237Z" fill="#F0F0F0"/>
<path d="M189.128 132.022H68.1006V111.519H189.128V132.022ZM68.9376 131.184H188.291V112.357H68.9376V131.184Z" fill="#E0E0E0"/>
<path d="M189.128 188.681H68.1006V137.044H189.128V188.681ZM68.9376 187.83H188.291V137.895H68.9376V187.83Z" fill="#E0E0E0"/>
<path d="M84.3998 114.622L172.817 114.622V111.926L84.3998 111.926V114.622Z" fill="#E0E0E0"/>
<path d="M84.3998 140.159H172.817V137.463H84.3998V140.159Z" fill="#E0E0E0"/>
<path d="M250.294 197.021C250.028 197.018 249.774 196.911 249.587 196.723C249.399 196.535 249.292 196.28 249.289 196.014V39.6053C249.292 39.3393 249.399 39.085 249.587 38.8969C249.774 38.7088 250.028 38.6017 250.294 38.5986C250.559 38.6017 250.813 38.7088 251 38.8969C251.188 39.085 251.295 39.3393 251.298 39.6053V196.014C251.295 196.28 251.188 196.535 251 196.723C250.813 196.911 250.559 197.018 250.294 197.021Z" fill="#F5F5F5"/>
<path d="M250.293 194.601C251.562 194.601 252.778 195.106 253.675 196.005C254.572 196.903 255.076 198.123 255.076 199.394V199.466H245.51V199.394C245.51 198.123 246.014 196.903 246.911 196.005C247.808 195.106 249.024 194.601 250.293 194.601Z" fill="#F0F0F0"/>
<path d="M230.861 60.3729C230.861 60.3729 231.364 41.1992 250.293 41.1992C269.223 41.1992 269.725 60.3729 269.725 60.3729H230.861Z" fill="#E0E0E0"/>
<path d="M19.4322 197.021C19.1668 197.018 18.9131 196.911 18.7254 196.723C18.5377 196.535 18.4308 196.28 18.4277 196.014V39.6053C18.4308 39.3393 18.5377 39.085 18.7254 38.8969C18.9131 38.7088 19.1668 38.6017 19.4322 38.5986C19.6977 38.6017 19.9513 38.7088 20.1391 38.8969C20.3268 39.085 20.4336 39.3393 20.4367 39.6053V196.014C20.4336 196.28 20.3268 196.535 20.1391 196.723C19.9513 196.911 19.6977 197.018 19.4322 197.021Z" fill="#F5F5F5"/>
<path d="M19.4316 194.601C20.7002 194.601 21.9169 195.106 22.8139 196.005C23.7109 196.903 24.2148 198.123 24.2148 199.394V199.466H14.6484V199.394C14.6484 198.123 15.1524 196.903 16.0494 196.005C16.9464 195.106 18.1631 194.601 19.4316 194.601Z" fill="#F0F0F0"/>
<path d="M0 60.3729C0 60.3729 0.502237 41.1992 19.4318 41.1992C38.3613 41.1992 38.8635 60.3729 38.8635 60.3729H0Z" fill="#E0E0E0"/>
<path d="M159.197 99.7988H111.149V101.237H159.197V99.7988Z" fill="#E0E0E0"/>
<path d="M159.209 99.7987H111.149L115.777 72.2246H163.824L159.209 99.7987Z" fill="#E0E0E0"/>
<path d="M158.312 99.7987H110.265L114.892 72.2246H162.94L158.312 99.7987Z" fill="#EBEBEB"/>
<path d="M112.083 97.6419L116.017 74.2021C116.039 74.056 116.113 73.9227 116.225 73.8261C116.337 73.7295 116.479 73.6759 116.627 73.6748H160.513C160.603 73.6752 160.692 73.6954 160.774 73.734C160.856 73.7726 160.929 73.8286 160.987 73.8983C161.045 73.9679 161.087 74.0494 161.111 74.137C161.134 74.2247 161.138 74.3164 161.122 74.4058L157.188 97.8456C157.163 97.9895 157.088 98.12 156.977 98.2142C156.865 98.3083 156.724 98.3603 156.578 98.3609H112.704C112.614 98.362 112.525 98.3433 112.442 98.3062C112.36 98.269 112.286 98.2144 112.227 98.1459C112.168 98.0775 112.124 97.9969 112.099 97.9099C112.074 97.8228 112.069 97.7314 112.083 97.6419Z" fill="#FAFAFA"/>
<path d="M148.328 99.7988H100.28V101.237H148.328V99.7988Z" fill="#F0F0F0"/>
<path d="M197.606 0H70.3008V41.2353H197.606V0Z" fill="#EBEBEB"/>
<path d="M197.583 41.2354H199.412V0H197.583V41.2354Z" fill="#E0E0E0"/>
<path d="M192.022 5.58398H75.874V35.6387H192.022V5.58398Z" fill="white"/>
<path d="M140.938 20.6102L133.945 13.6025L126.953 20.6102L133.945 27.6179L140.938 20.6102Z" fill="#F5F5F5"/>
<path d="M122.171 20.6171L115.178 13.6094L108.185 20.6171L115.178 27.6248L122.171 20.6171Z" fill="#F5F5F5"/>
<path d="M103.395 20.6151L96.4023 13.6074L89.4096 20.6151L96.4023 27.6228L103.395 20.6151Z" fill="#F5F5F5"/>
<path d="M159.714 20.6122L152.722 13.6045L145.729 20.6122L152.722 27.6199L159.714 20.6122Z" fill="#F5F5F5"/>
<path d="M178.47 20.6053L171.478 13.5977L164.485 20.6054L171.478 27.6131L178.47 20.6053Z" fill="#F5F5F5"/>
<path d="M134.862 230C207.185 230 265.815 226.566 265.815 222.331C265.815 218.095 207.185 214.661 134.862 214.661C62.5395 214.661 3.91016 218.095 3.91016 222.331C3.91016 226.566 62.5395 230 134.862 230Z" fill="#F5F5F5"/>
<path d="M211.142 23.8951C211.208 23.1121 211.108 22.324 210.852 21.5816C210.595 20.8393 210.186 20.159 209.651 19.5845C209.116 19.01 208.467 18.5541 207.745 18.246C207.024 17.9379 206.246 17.7844 205.462 17.7955H111.963C110.315 17.8147 108.735 18.4516 107.533 19.5806C106.331 20.7097 105.595 22.249 105.469 23.8951L103.317 56.3226L89.8642 156.157C89.733 156.917 89.7717 157.697 89.9776 158.44C90.1834 159.183 90.5513 159.871 91.0546 160.455C91.5579 161.038 92.1841 161.503 92.8881 161.814C93.5922 162.126 94.3564 162.277 95.1258 162.257H188.613C190.297 162.215 191.911 161.58 193.175 160.465C194.438 159.35 195.27 157.825 195.525 156.157L208.99 56.3585L211.142 23.8951Z" fill="#8E995F"/>
<path opacity="0.2" d="M211.142 23.8951C211.208 23.1121 211.108 22.324 210.852 21.5816C210.595 20.8393 210.186 20.159 209.651 19.5845C209.116 19.01 208.467 18.5541 207.745 18.246C207.024 17.9379 206.246 17.7844 205.462 17.7955H111.963C110.315 17.8147 108.735 18.4516 107.533 19.5806C106.331 20.7097 105.595 22.249 105.469 23.8951L103.317 56.3226L89.8642 156.157C89.733 156.917 89.7717 157.697 89.9776 158.44C90.1834 159.183 90.5513 159.871 91.0546 160.455C91.5579 161.038 92.1841 161.503 92.8881 161.814C93.5922 162.126 94.3564 162.277 95.1258 162.257H188.613C190.297 162.215 191.911 161.58 193.175 160.465C194.438 159.35 195.27 157.825 195.525 156.157L208.99 56.3585L211.142 23.8951Z" fill="#8E995F"/>
<path d="M185.301 162.221H91.7537C90.9843 162.241 90.2201 162.09 89.5161 161.778C88.8121 161.466 88.1858 161.002 87.6825 160.419C87.1792 159.835 86.8114 159.147 86.6055 158.404C86.3997 157.661 86.361 156.881 86.4921 156.121L99.9569 56.3223H205.63L192.201 156.157C191.939 157.816 191.105 159.331 189.845 160.439C188.585 161.547 186.977 162.177 185.301 162.221Z" fill="#A3B06F"/>
<path d="M125.858 15.4111H111.927V16.0822H125.858V15.4111Z" fill="#407BFF"/>
<path d="M105.35 16.813L105.063 16.2018C106.19 15.6871 107.413 15.4214 108.651 15.4229V16.0939C107.512 16.0959 106.387 16.341 105.35 16.813Z" fill="#407BFF"/>
<path d="M202.127 17.7955H108.627C106.981 17.8201 105.404 18.4588 104.203 19.5868C103.002 20.7148 102.264 22.251 102.134 23.8951L99.9932 56.3225H205.666L207.819 23.8951C207.882 23.1114 207.781 22.3231 207.523 21.5807C207.265 20.8383 206.854 20.1582 206.318 19.584C205.783 19.0097 205.133 18.554 204.411 18.246C203.689 17.938 202.911 17.7846 202.127 17.7955Z" fill="#A3B06F"/>
<path opacity="0.9" d="M105.219 48.4019L106.713 25.7051C106.782 24.8391 107.17 24.0298 107.803 23.4358C108.436 22.8418 109.267 22.5057 110.133 22.4935H200.01C200.423 22.487 200.833 22.5673 201.213 22.7293C201.593 22.8913 201.935 23.1314 202.216 23.434C202.498 23.7367 202.713 24.0952 202.848 24.4864C202.983 24.8776 203.035 25.2927 202.999 25.7051L201.493 48.4019C201.43 49.2679 201.045 50.0786 200.413 50.6735C199.782 51.2683 198.951 51.6038 198.085 51.6135H108.208C107.795 51.62 107.386 51.5397 107.006 51.3777C106.625 51.2157 106.284 50.9756 106.002 50.673C105.72 50.3704 105.505 50.0119 105.37 49.6207C105.235 49.2295 105.184 48.8143 105.219 48.4019Z" fill="white"/>
<path d="M193.528 26.2196L192.512 27.1663C192.461 27.2174 192.393 27.2473 192.321 27.2502H186.904C186.826 27.246 186.753 27.2116 186.7 27.1544L185.828 26.2077C185.79 26.1684 185.764 26.1188 185.754 26.065C185.745 26.0112 185.751 25.9558 185.773 25.9057C185.795 25.8556 185.831 25.8132 185.877 25.7837C185.923 25.7543 185.976 25.7391 186.031 25.7403H193.397C193.448 25.7495 193.495 25.773 193.534 25.8081C193.572 25.8431 193.6 25.8883 193.613 25.9385C193.627 25.9886 193.626 26.0416 193.611 26.0913C193.596 26.1411 193.568 26.1856 193.528 26.2196Z" fill="#E0E0E0"/>
<path d="M192.093 43.8117H184.787C184.731 43.813 184.676 43.7971 184.629 43.7661C184.583 43.7352 184.546 43.6907 184.526 43.6386C184.505 43.5864 184.5 43.5292 184.513 43.4745C184.525 43.4198 184.554 43.3702 184.596 43.3324L185.612 42.3737C185.664 42.326 185.733 42.3003 185.803 42.3018H191.22C191.296 42.3061 191.367 42.3356 191.424 42.3857L192.297 43.3444C192.335 43.3836 192.36 43.4333 192.37 43.487C192.38 43.5408 192.373 43.5962 192.351 43.6463C192.329 43.6964 192.293 43.7389 192.247 43.7683C192.202 43.7978 192.148 43.8129 192.093 43.8117Z" fill="#E0E0E0"/>
<path d="M192.811 34.9682L192.285 35.4475C192.234 35.4986 192.166 35.5285 192.094 35.5314H185.756C185.718 35.5299 185.681 35.5209 185.647 35.505C185.613 35.4891 185.582 35.4666 185.556 35.4388C185.531 35.4109 185.511 35.3783 185.498 35.3428C185.485 35.3073 185.479 35.2696 185.481 35.2318L185.552 34.2731C185.558 34.2043 185.59 34.1402 185.641 34.0936C185.692 34.047 185.759 34.0212 185.828 34.0215H192.201C192.239 34.0214 192.276 34.0288 192.311 34.0432C192.346 34.0575 192.378 34.0787 192.404 34.1054L192.835 34.5727C192.882 34.6291 192.906 34.7017 192.902 34.7752C192.897 34.8488 192.865 34.9179 192.811 34.9682Z" fill="#E0E0E0"/>
<path d="M193.672 35.4828L193.134 42.8287C193.131 42.8828 193.111 42.9347 193.079 42.9779C193.046 43.0211 193.001 43.0537 192.95 43.0716C192.899 43.0895 192.844 43.092 192.792 43.0786C192.739 43.0652 192.692 43.0367 192.656 42.9965L191.783 42.0498C191.735 41.9885 191.709 41.9122 191.711 41.8341L192.106 36.3936C192.113 36.32 192.147 36.2517 192.201 36.2018L193.206 35.2552C193.246 35.2151 193.298 35.1886 193.354 35.1794C193.411 35.1702 193.468 35.1786 193.519 35.2036C193.571 35.2286 193.613 35.2689 193.64 35.3189C193.667 35.3689 193.679 35.4262 193.672 35.4828Z" fill="#E0E0E0"/>
<path d="M194.306 26.7353L193.768 34.0932C193.764 34.1473 193.745 34.1992 193.712 34.2424C193.68 34.2856 193.635 34.3182 193.584 34.3361C193.533 34.354 193.478 34.3564 193.425 34.343C193.373 34.3297 193.326 34.3011 193.289 34.261L192.416 33.3023C192.37 33.2446 192.345 33.1727 192.345 33.0986L192.739 27.6461C192.747 27.5786 192.776 27.5155 192.823 27.4663L193.839 26.5196C193.879 26.4807 193.93 26.4548 193.985 26.4454C194.04 26.4359 194.096 26.4434 194.147 26.4668C194.197 26.4901 194.239 26.5283 194.268 26.5763C194.296 26.6242 194.31 26.6797 194.306 26.7353Z" fill="#E0E0E0"/>
<path d="M181.822 46.8433C181.843 46.5889 181.957 46.3512 182.142 46.1763C182.328 46.0014 182.572 45.9017 182.827 45.8966H194.294C194.428 45.8944 194.561 45.9205 194.684 45.973C194.808 46.0256 194.919 46.1036 195.01 46.2019C195.101 46.3002 195.171 46.4166 195.215 46.5436C195.258 46.6706 195.275 46.8054 195.263 46.9392C195.242 47.1936 195.128 47.4313 194.942 47.6062C194.757 47.7811 194.513 47.8808 194.258 47.8859H182.791C182.657 47.8881 182.524 47.862 182.4 47.8094C182.277 47.7568 182.166 47.6789 182.075 47.5806C181.984 47.4823 181.914 47.3659 181.87 47.2389C181.827 47.1118 181.81 46.9771 181.822 46.8433Z" fill="#E0E0E0"/>
<path d="M167.46 46.8433C167.48 46.5889 167.595 46.3512 167.78 46.1763C167.966 46.0014 168.21 45.9017 168.464 45.8966H179.932C180.066 45.8944 180.199 45.9205 180.322 45.973C180.446 46.0256 180.556 46.1036 180.648 46.2019C180.739 46.3002 180.809 46.4166 180.852 46.5436C180.896 46.6706 180.912 46.8054 180.901 46.9392C180.883 47.1946 180.769 47.4339 180.583 47.6093C180.397 47.7848 180.152 47.8835 179.896 47.8859H168.428C168.294 47.8881 168.161 47.862 168.038 47.8094C167.915 47.7568 167.804 47.6789 167.713 47.5806C167.621 47.4823 167.552 47.3659 167.508 47.2389C167.464 47.1118 167.448 46.9771 167.46 46.8433Z" fill="#E0E0E0"/>
<path d="M153.098 46.8433C153.119 46.5889 153.233 46.3512 153.419 46.1763C153.604 46.0014 153.848 45.9017 154.103 45.8966H165.571C165.705 45.8944 165.838 45.9205 165.961 45.973C166.084 46.0256 166.195 46.1036 166.286 46.2019C166.378 46.3002 166.447 46.4166 166.491 46.5436C166.535 46.6706 166.551 46.8054 166.539 46.9392C166.524 47.1936 166.413 47.4327 166.229 47.6084C166.045 47.7841 165.801 47.8833 165.547 47.8859H154.079C153.944 47.8879 153.811 47.8619 153.687 47.8094C153.563 47.7569 153.452 47.6792 153.359 47.5811C153.267 47.483 153.196 47.3668 153.151 47.2397C153.106 47.1127 153.088 46.9777 153.098 46.8433Z" fill="#E0E0E0"/>
<path d="M138.737 46.8433C138.758 46.5888 138.872 46.3511 139.058 46.1762C139.243 46.0013 139.487 45.9017 139.742 45.8966H151.209C151.344 45.8946 151.477 45.9206 151.601 45.9731C151.725 46.0256 151.837 46.1033 151.929 46.2014C152.021 46.2995 152.092 46.4157 152.137 46.5427C152.182 46.6698 152.2 46.8048 152.19 46.9392C152.169 47.1936 152.055 47.4313 151.869 47.6062C151.684 47.7811 151.44 47.8808 151.185 47.8858H139.718C139.583 47.8879 139.45 47.8618 139.326 47.8094C139.202 47.7569 139.09 47.6791 138.998 47.5811C138.906 47.483 138.835 47.3667 138.79 47.2397C138.745 47.1127 138.727 46.9777 138.737 46.8433Z" fill="#E0E0E0"/>
<path opacity="0.1" d="M107.036 102.627L111.257 71.3021C111.417 70.2764 111.93 69.3392 112.708 68.6538C113.486 67.9684 114.479 67.5782 115.515 67.5512H146.761C147.235 67.537 147.706 67.6287 148.14 67.8196C148.574 68.0105 148.96 68.2959 149.27 68.6551C149.581 69.0142 149.807 69.4381 149.934 69.896C150.06 70.3538 150.083 70.8342 150.001 71.3021L145.78 102.627C145.621 103.653 145.108 104.59 144.33 105.275C143.552 105.961 142.559 106.351 141.523 106.378H110.277C109.803 106.392 109.332 106.3 108.898 106.11C108.464 105.919 108.078 105.633 107.767 105.274C107.457 104.915 107.23 104.491 107.104 104.033C106.978 103.575 106.954 103.095 107.036 102.627Z" fill="#263238"/>
<path opacity="0.1" d="M151.544 102.627L155.765 71.3021C155.921 70.2774 156.432 69.3404 157.208 68.6548C157.984 67.9692 158.976 67.5786 160.01 67.5512H191.268C191.742 67.537 192.213 67.6287 192.647 67.8196C193.081 68.0105 193.467 68.2959 193.778 68.6551C194.088 69.0142 194.315 69.4381 194.441 69.896C194.567 70.3538 194.591 70.8342 194.509 71.3021L190.288 102.627C190.128 103.653 189.615 104.59 188.837 105.275C188.059 105.961 187.066 106.351 186.03 106.378H154.784C154.31 106.394 153.838 106.304 153.402 106.114C152.967 105.924 152.58 105.638 152.269 105.279C151.958 104.919 151.732 104.494 151.606 104.035C151.481 103.576 151.459 103.095 151.544 102.627Z" fill="#263238"/>
<path opacity="0.1" d="M101.01 147.241L105.243 115.916C105.399 114.892 105.91 113.955 106.686 113.269C107.462 112.583 108.454 112.193 109.488 112.166H140.782C141.256 112.151 141.727 112.243 142.161 112.434C142.595 112.625 142.981 112.91 143.291 113.269C143.602 113.628 143.828 114.052 143.955 114.51C144.081 114.968 144.104 115.448 144.023 115.916L139.801 147.241C139.64 148.266 139.126 149.202 138.349 149.887C137.571 150.572 136.579 150.963 135.544 150.992H104.25C103.777 151.004 103.307 150.911 102.874 150.719C102.441 150.528 102.056 150.242 101.746 149.884C101.436 149.525 101.209 149.102 101.082 148.645C100.955 148.188 100.93 147.709 101.01 147.241Z" fill="#263238"/>
<path opacity="0.1" d="M145.565 147.242L149.798 115.917C149.955 114.892 150.466 113.955 151.242 113.27C152.018 112.584 153.009 112.193 154.043 112.166H185.266C185.739 112.154 186.209 112.247 186.642 112.439C187.075 112.63 187.46 112.916 187.77 113.274C188.08 113.633 188.307 114.056 188.434 114.513C188.561 114.97 188.586 115.449 188.506 115.917L184.285 147.242C184.124 148.267 183.61 149.202 182.832 149.888C182.055 150.573 181.063 150.963 180.028 150.993H148.77C148.3 150.999 147.834 150.902 147.405 150.708C146.977 150.514 146.596 150.228 146.29 149.87C145.984 149.512 145.761 149.091 145.635 148.637C145.51 148.183 145.486 147.706 145.565 147.242Z" fill="#263238"/>
<path d="M104.908 102.627L109.129 71.3022C109.288 70.2765 109.801 69.3393 110.579 68.6538C111.357 67.9684 112.35 67.5783 113.386 67.5513H144.644C145.118 67.5367 145.588 67.6282 146.022 67.8192C146.456 68.0102 146.841 68.2959 147.151 68.6553C147.46 69.0148 147.686 69.439 147.811 69.8969C147.935 70.3548 147.957 70.835 147.873 71.3022L143.652 102.627C143.495 103.654 142.982 104.592 142.204 105.278C141.425 105.964 140.431 106.353 139.395 106.378H108.196C107.718 106.4 107.242 106.313 106.802 106.126C106.362 105.938 105.969 105.654 105.654 105.293C105.338 104.933 105.107 104.507 104.978 104.045C104.849 103.584 104.825 103.099 104.908 102.627Z" fill="white"/>
<path opacity="0.2" d="M104.908 102.627L109.129 71.3022C109.288 70.2765 109.801 69.3393 110.579 68.6538C111.357 67.9684 112.35 67.5783 113.386 67.5513H144.644C145.118 67.5367 145.588 67.6282 146.022 67.8192C146.456 68.0102 146.841 68.2959 147.151 68.6553C147.46 69.0148 147.686 69.439 147.811 69.8969C147.935 70.3548 147.957 70.835 147.873 71.3022L143.652 102.627C143.495 103.654 142.982 104.592 142.204 105.278C141.425 105.964 140.431 106.353 139.395 106.378H108.196C107.718 106.4 107.242 106.313 106.802 106.126C106.362 105.938 105.969 105.654 105.654 105.293C105.338 104.933 105.107 104.507 104.978 104.045C104.849 103.584 104.825 103.099 104.908 102.627Z" fill="white"/>
<path d="M149.475 102.627L153.697 71.3021C153.856 70.2764 154.369 69.3392 155.147 68.6538C155.925 67.9684 156.918 67.5782 157.954 67.5512H189.2C189.674 67.537 190.145 67.6287 190.579 67.8196C191.013 68.0105 191.399 68.2959 191.709 68.6551C192.02 69.0142 192.246 69.4381 192.373 69.896C192.499 70.3538 192.522 70.8342 192.441 71.3021L188.219 102.627C188.06 103.653 187.547 104.59 186.769 105.275C185.991 105.961 184.998 106.351 183.962 106.378H152.74C152.263 106.398 151.789 106.311 151.35 106.122C150.912 105.933 150.522 105.649 150.208 105.288C149.895 104.928 149.666 104.502 149.54 104.041C149.413 103.581 149.391 103.097 149.475 102.627Z" fill="white"/>
<path opacity="0.2" d="M149.475 102.627L153.697 71.3021C153.856 70.2764 154.369 69.3392 155.147 68.6538C155.925 67.9684 156.918 67.5782 157.954 67.5512H189.2C189.674 67.537 190.145 67.6287 190.579 67.8196C191.013 68.0105 191.399 68.2959 191.709 68.6551C192.02 69.0142 192.246 69.4381 192.373 69.896C192.499 70.3538 192.522 70.8342 192.441 71.3021L188.219 102.627C188.06 103.653 187.547 104.59 186.769 105.275C185.991 105.961 184.998 106.351 183.962 106.378H152.74C152.263 106.398 151.789 106.311 151.35 106.122C150.912 105.933 150.522 105.649 150.208 105.288C149.895 104.928 149.666 104.502 149.54 104.041C149.413 103.581 149.391 103.097 149.475 102.627Z" fill="white"/>
<path d="M98.9283 147.241L103.149 115.916C103.306 114.892 103.817 113.955 104.593 113.269C105.369 112.583 106.361 112.193 107.395 112.166H138.653C139.127 112.151 139.598 112.243 140.032 112.434C140.466 112.625 140.852 112.91 141.162 113.269C141.473 113.628 141.699 114.052 141.826 114.51C141.952 114.968 141.975 115.448 141.893 115.916L137.672 147.241C137.511 148.266 136.997 149.202 136.219 149.887C135.442 150.572 134.45 150.963 133.415 150.992H102.169C101.694 151.009 101.222 150.918 100.787 150.728C100.352 150.538 99.9648 150.253 99.654 149.893C99.3433 149.533 99.1168 149.108 98.9912 148.65C98.8656 148.191 98.8441 147.71 98.9283 147.241Z" fill="white"/>
<path opacity="0.2" d="M98.9283 147.241L103.149 115.916C103.306 114.892 103.817 113.955 104.593 113.269C105.369 112.583 106.361 112.193 107.395 112.166H138.653C139.127 112.151 139.598 112.243 140.032 112.434C140.466 112.625 140.852 112.91 141.162 113.269C141.473 113.628 141.699 114.052 141.826 114.51C141.952 114.968 141.975 115.448 141.893 115.916L137.672 147.241C137.511 148.266 136.997 149.202 136.219 149.887C135.442 150.572 134.45 150.963 133.415 150.992H102.169C101.694 151.009 101.222 150.918 100.787 150.728C100.352 150.538 99.9648 150.253 99.654 149.893C99.3433 149.533 99.1168 149.108 98.9912 148.65C98.8656 148.191 98.8441 147.71 98.9283 147.241Z" fill="white"/>
<path d="M143.448 147.242L147.681 115.917C147.838 114.892 148.349 113.955 149.125 113.27C149.901 112.584 150.892 112.193 151.926 112.166H183.184C183.658 112.154 184.128 112.247 184.561 112.439C184.994 112.63 185.379 112.916 185.689 113.274C185.999 113.633 186.225 114.056 186.353 114.513C186.48 114.97 186.505 115.449 186.425 115.917L182.204 147.242C182.043 148.267 181.529 149.202 180.751 149.888C179.974 150.573 178.982 150.963 177.947 150.993H146.689C146.215 151.005 145.745 150.912 145.312 150.72C144.879 150.528 144.494 150.243 144.184 149.884C143.874 149.526 143.648 149.103 143.52 148.646C143.393 148.189 143.368 147.71 143.448 147.242Z" fill="white"/>
<path opacity="0.2" d="M143.448 147.242L147.681 115.917C147.838 114.892 148.349 113.955 149.125 113.27C149.901 112.584 150.892 112.193 151.926 112.166H183.184C183.658 112.154 184.128 112.247 184.561 112.439C184.994 112.63 185.379 112.916 185.689 113.274C185.999 113.633 186.225 114.056 186.353 114.513C186.48 114.97 186.505 115.449 186.425 115.917L182.204 147.242C182.043 148.267 181.529 149.202 180.751 149.888C179.974 150.573 178.982 150.963 177.947 150.993H146.689C146.215 151.005 145.745 150.912 145.312 150.72C144.879 150.528 144.494 150.243 144.184 149.884C143.874 149.526 143.648 149.103 143.52 148.646C143.393 148.189 143.368 147.71 143.448 147.242Z" fill="white"/>
<path d="M124.686 100.003C124.211 100.015 123.739 99.9213 123.305 99.7291C122.871 99.5368 122.484 99.2505 122.173 98.8908C121.862 98.5311 121.634 98.1068 121.507 97.6485C121.379 97.1901 121.354 96.7091 121.433 96.2399L123.944 77.6894C124.106 76.6647 124.62 75.7288 125.397 75.0438C126.175 74.3588 127.167 73.9678 128.201 73.9385C128.675 73.9265 129.145 74.0196 129.578 74.2112C130.011 74.4029 130.396 74.6883 130.706 75.0469C131.016 75.4055 131.242 75.8285 131.37 76.2854C131.497 76.7423 131.522 77.2218 131.442 77.6894L128.943 96.2399C128.78 97.2649 128.265 98.201 127.489 98.8875C126.712 99.5741 125.721 99.9684 124.686 100.003Z" fill="#A3B06F"/>
<path d="M113.434 86.9648C113.598 85.941 114.112 85.0064 114.889 84.3218C115.666 83.6373 116.657 83.2455 117.691 83.2139H136.202C136.675 83.2019 137.145 83.295 137.578 83.4866C138.011 83.6783 138.397 83.9637 138.707 84.3223C139.016 84.6809 139.243 85.1039 139.37 85.5608C139.498 86.0177 139.522 86.4972 139.443 86.9648C139.284 87.9917 138.771 88.9304 137.993 89.6178C137.216 90.3052 136.222 90.6979 135.186 90.7276H116.675C116.201 90.7378 115.731 90.6431 115.298 90.45C114.865 90.257 114.48 89.9705 114.17 89.611C113.861 89.2514 113.634 88.8278 113.507 88.3704C113.38 87.9129 113.355 87.4329 113.434 86.9648Z" fill="#A3B06F"/>
<path d="M109.978 140.795C109.385 139.988 109.128 138.982 109.262 137.989C109.396 136.996 109.91 136.094 110.696 135.474L125.56 122.364C125.907 122.015 126.32 121.739 126.775 121.55C127.229 121.361 127.716 121.264 128.208 121.264C128.7 121.264 129.188 121.361 129.642 121.55C130.096 121.739 130.509 122.015 130.857 122.364C131.453 123.17 131.712 124.177 131.578 125.171C131.444 126.165 130.928 127.067 130.14 127.685L115.288 140.795C114.582 141.498 113.628 141.892 112.633 141.892C111.638 141.892 110.684 141.498 109.978 140.795Z" fill="#A3B06F"/>
<path d="M112.465 122.363C113.169 121.658 114.124 121.262 115.12 121.262C116.116 121.262 117.071 121.658 117.775 122.363L129.087 135.473C129.683 136.279 129.942 137.286 129.808 138.28C129.674 139.274 129.158 140.176 128.369 140.794C128.022 141.143 127.609 141.42 127.154 141.609C126.7 141.798 126.213 141.895 125.721 141.895C125.229 141.895 124.742 141.798 124.287 141.609C123.833 141.42 123.42 141.143 123.072 140.794L111.748 127.684C111.155 126.877 110.898 125.871 111.032 124.878C111.166 123.885 111.68 122.983 112.465 122.363Z" fill="#A3B06F"/>
<path d="M157.954 86.9648C158.115 85.94 158.629 85.0042 159.406 84.3192C160.184 83.6342 161.176 83.2432 162.211 83.2139H180.722C181.195 83.2019 181.665 83.295 182.098 83.4866C182.531 83.6783 182.916 83.9637 183.226 84.3223C183.536 84.6809 183.763 85.1039 183.89 85.5608C184.017 86.0177 184.042 86.4972 183.962 86.9648C183.801 87.9907 183.288 88.9281 182.511 89.6151C181.733 90.3021 180.741 90.6955 179.705 90.7276H161.194C160.721 90.7378 160.25 90.6431 159.817 90.45C159.384 90.257 158.999 89.9705 158.69 89.611C158.38 89.2514 158.154 88.8278 158.026 88.3704C157.899 87.9129 157.874 87.4329 157.954 86.9648Z" fill="#A3B06F"/>
<path d="M152.74 125.731C152.902 124.707 153.415 123.771 154.193 123.086C154.97 122.401 155.962 122.01 156.997 121.98H175.46C175.934 121.969 176.404 122.062 176.838 122.254C177.271 122.445 177.657 122.73 177.968 123.089C178.278 123.447 178.506 123.87 178.635 124.326C178.764 124.783 178.791 125.263 178.713 125.731C178.55 126.756 178.036 127.692 177.259 128.379C176.482 129.066 175.491 129.46 174.456 129.494H155.969C155.495 129.505 155.025 129.41 154.593 129.217C154.16 129.024 153.776 128.737 153.467 128.377C153.158 128.017 152.933 127.594 152.807 127.136C152.682 126.679 152.659 126.199 152.74 125.731Z" fill="#A3B06F"/>
<path d="M151.149 137.427C151.308 136.4 151.821 135.461 152.599 134.774C153.376 134.087 154.37 133.694 155.406 133.664H173.905C174.38 133.652 174.852 133.746 175.286 133.938C175.72 134.13 176.107 134.416 176.418 134.776C176.729 135.136 176.957 135.56 177.084 136.018C177.212 136.477 177.237 136.958 177.158 137.427C176.992 138.45 176.477 139.383 175.7 140.067C174.924 140.751 173.934 141.144 172.901 141.178H154.39C153.917 141.19 153.447 141.097 153.014 140.905C152.581 140.713 152.195 140.428 151.885 140.069C151.576 139.711 151.349 139.288 151.222 138.831C151.094 138.374 151.07 137.895 151.149 137.427Z" fill="#A3B06F"/>
<path d="M56.0833 62.2426C54.8875 64.4955 53.6199 66.9282 52.4959 69.3129C51.3718 71.6976 50.2597 74.1063 49.315 76.5629C49.0639 77.1741 48.8606 77.7613 48.6334 78.3844C48.5079 78.7025 48.4313 79.0379 48.4062 79.3791C48.3737 80.34 48.5491 81.2966 48.9204 82.1832C49.8901 84.4572 51.1742 86.5831 52.735 88.4985L50.4391 91.2308C49.7948 90.8212 49.1759 90.373 48.5856 89.8886C47.9948 89.4225 47.4281 88.9265 46.8876 88.4027C45.7521 87.3074 44.756 86.0758 43.922 84.7357C42.9536 83.1948 42.3483 81.4531 42.1522 79.6427C42.0584 78.6013 42.1434 77.5516 42.4033 76.539C42.5946 75.8319 42.774 75.1129 42.9773 74.4179C43.8042 71.6476 44.7985 68.9303 45.9548 66.2811C46.5288 64.9749 47.1506 63.6806 47.7844 62.4104C48.4182 61.1401 49.0639 59.9058 49.8412 58.5996L56.0833 62.2426Z" fill="#FF8B7B"/>
<path d="M51.7786 87.707L55.1747 88.5938L52.6635 93.4951C51.9488 93.2123 51.3003 92.784 50.759 92.2375C50.2177 91.6909 49.7954 91.0378 49.5186 90.3194L51.7786 87.707Z" fill="#FF8B7B"/>
<path d="M59.8142 90.1406L56.8008 93.9753L52.6514 93.484L55.1626 88.5947L59.8142 90.1406Z" fill="#FF8B7B"/>
<path d="M72.0115 36.4299C72.0832 36.8013 72.3463 37.065 72.5855 37.0171C72.8246 36.9691 72.9681 36.6216 72.8964 36.2501C72.8246 35.8786 72.5616 35.603 72.3104 35.6509C72.0593 35.6989 71.9278 36.0464 72.0115 36.4299Z" fill="#263238"/>
<path d="M72.3105 37.0771C72.975 38.1321 73.7796 39.0916 74.7021 39.9292C74.4812 40.1648 74.2115 40.349 73.912 40.4691C73.6124 40.5892 73.2903 40.6421 72.9682 40.6243L72.3105 37.0771Z" fill="#FF5652"/>
<path d="M72.8248 39.6296C71.7246 39.6296 70.6245 38.4312 70.2897 36.7775C70.1154 35.9799 70.1692 35.1491 70.4451 34.3808C70.5262 34.0614 70.6956 33.7714 70.934 33.5443C71.1723 33.3172 71.4697 33.1621 71.7921 33.097C72.1145 33.0319 72.4488 33.0593 72.7563 33.1762C73.0638 33.2931 73.3321 33.4947 73.5303 33.7577C74.0894 34.3637 74.4666 35.1155 74.6185 35.9267C74.7876 36.7247 74.7339 37.554 74.463 38.3234C74.3633 38.6336 74.1872 38.9137 73.9511 39.1378C73.7149 39.3619 73.4263 39.5228 73.1118 39.6056L72.8248 39.6296ZM72.0953 33.2064H71.8203C71.537 33.2903 71.2792 33.4439 71.0703 33.6532C70.8614 33.8625 70.7082 34.1209 70.6245 34.4048C70.3573 35.1503 70.3075 35.9567 70.481 36.7296C70.8278 38.4432 71.9997 39.6536 73.1118 39.4259C73.3961 39.344 73.6549 39.1911 73.8641 38.9815C74.0733 38.7719 74.2259 38.5124 74.3076 38.2275C74.5848 37.4844 74.6388 36.6762 74.463 35.9027C74.3223 35.1223 73.9613 34.3986 73.4227 33.8176C73.2525 33.633 73.0477 33.484 72.8199 33.3792C72.5921 33.2743 72.3458 33.2156 72.0953 33.2064Z" fill="#263238"/>
<path d="M107.599 75.4364L111.939 74.5137L112.489 80.4096C112.489 80.4096 108.759 81.1286 106.965 78.1567L107.599 75.4364Z" fill="#FF8B7B"/>
<path d="M116.016 75.8319L115.741 80.122L112.489 80.3976L111.927 74.5137L116.016 75.8319Z" fill="#FF8B7B"/>
<path d="M70.2294 34.6203C70.1758 34.619 70.1246 34.5976 70.0859 34.5604C70.0646 34.5392 70.0476 34.514 70.0361 34.4863C70.0245 34.4585 70.0186 34.4287 70.0186 34.3986C70.0186 34.3685 70.0245 34.3388 70.0361 34.311C70.0476 34.2832 70.0646 34.258 70.0859 34.2368C70.3243 33.968 70.6235 33.7602 70.9584 33.631C71.2934 33.5017 71.6543 33.4547 72.0111 33.4939C72.0396 33.4982 72.0668 33.5082 72.0914 33.5233C72.1159 33.5384 72.1371 33.5583 72.1538 33.5817C72.1706 33.6052 72.1824 33.6318 72.1887 33.6599C72.195 33.688 72.1956 33.7172 72.1905 33.7455C72.1861 33.7756 72.1758 33.8045 72.1602 33.8305C72.1445 33.8565 72.1238 33.8791 72.0993 33.8969C72.0748 33.9148 72.0469 33.9276 72.0174 33.9345C71.9879 33.9414 71.9573 33.9424 71.9274 33.9373C71.6458 33.9111 71.362 33.9529 71.0999 34.0592C70.8377 34.1656 70.6049 34.3333 70.4207 34.5484C70.3961 34.5738 70.3662 34.5934 70.3331 34.6059C70.3 34.6183 70.2646 34.6232 70.2294 34.6203Z" fill="#263238"/>
<path d="M61.5835 43.2725C62.2651 46.7597 62.6716 51.577 60.2441 53.9019C60.2441 53.9019 61.1888 57.4969 67.6462 57.4969C74.7492 57.4969 71.0661 54.3932 71.0661 54.3932C68.1125 53.4824 68.1364 50.1151 68.8181 47.4068L61.5835 43.2725Z" fill="#FF8B7B"/>
<path d="M68.8779 53.0991C70.4683 51.9008 72.8241 50.5946 73.3144 52.0086C73.6133 52.8595 73.7329 56.9818 72.1186 56.6822C69.6672 56.1909 68.8779 53.0991 68.8779 53.0991Z" fill="#263238"/>
<path opacity="0.4" d="M58.9051 56.2391C58.2833 55.3403 58.3072 52.5002 58.9769 52.0089C60.0651 51.194 64.7287 51.0142 71.0066 52.4523C70.776 53.1608 70.7264 53.9159 70.8622 54.6486C70.9979 55.3813 71.3149 56.0682 71.7839 56.6465L58.9051 56.2391Z" fill="#A03333"/>
<path d="M37.7989 216.926C37.992 216.999 38.1984 217.03 38.4044 217.018C38.6104 217.005 38.8115 216.95 38.9947 216.854C39.0652 216.791 39.1137 216.707 39.133 216.614C39.1524 216.522 39.1416 216.425 39.1023 216.339C39.0808 216.266 39.0441 216.198 38.9947 216.14C38.9452 216.082 38.884 216.036 38.8153 216.003C38.1695 215.692 36.6987 216.303 36.6389 216.327C36.6179 216.332 36.5993 216.345 36.5863 216.362C36.5732 216.38 36.5665 216.401 36.5672 216.423C36.5596 216.44 36.5557 216.458 36.5557 216.477C36.5557 216.495 36.5596 216.514 36.5672 216.531C36.9634 216.704 37.3761 216.836 37.7989 216.926ZM38.5761 216.159H38.7077C38.7471 216.178 38.7822 216.205 38.811 216.238C38.8398 216.271 38.8616 216.309 38.8751 216.351C38.9349 216.555 38.8751 216.615 38.8751 216.638C38.6239 216.854 37.6793 216.638 36.9977 216.387C37.5028 216.204 38.04 216.126 38.5761 216.159Z" fill="#263238"/>
<path d="M36.6394 216.543H36.747C37.2851 216.375 38.433 215.56 38.445 215.021C38.4467 214.937 38.4189 214.855 38.3665 214.789C38.314 214.723 38.2403 214.678 38.158 214.661C38.0789 214.627 37.9934 214.608 37.9069 214.608C37.8204 214.608 37.7349 214.627 37.6558 214.661C37.022 214.985 36.6274 216.303 36.6035 216.363C36.5927 216.379 36.5869 216.398 36.5869 216.417C36.5869 216.436 36.5927 216.455 36.6035 216.471L36.6394 216.543ZM37.9428 214.877C38.0863 214.937 38.0743 214.997 38.0743 215.033C38.0743 215.345 37.309 215.992 36.7589 216.231C36.9007 215.706 37.2015 215.237 37.6199 214.889C37.7224 214.846 37.8373 214.841 37.9428 214.877Z" fill="#263238"/>
<path d="M72.8718 217.729C73.4817 217.729 74.0676 217.645 74.2709 217.37C74.3218 217.296 74.349 217.208 74.349 217.118C74.349 217.028 74.3218 216.941 74.2709 216.867C74.1896 216.736 74.0611 216.641 73.9121 216.603C73.1229 216.387 71.5205 217.346 71.4009 217.382C71.379 217.392 71.3611 217.41 71.3502 217.431C71.3394 217.453 71.3362 217.478 71.3412 217.502C71.3437 217.523 71.3533 217.543 71.3685 217.558C71.3837 217.573 71.4035 217.583 71.4249 217.586C71.9021 217.675 72.3862 217.724 72.8718 217.729ZM73.6251 216.795C73.7004 216.782 73.7771 216.782 73.8523 216.795C73.8972 216.804 73.9396 216.822 73.9767 216.849C74.0138 216.876 74.0448 216.911 74.0676 216.95C74.0939 216.987 74.108 217.031 74.108 217.076C74.108 217.121 74.0939 217.165 74.0676 217.202C73.8404 217.502 72.6446 217.514 71.7597 217.382C72.34 217.072 72.9725 216.873 73.6251 216.795Z" fill="#263238"/>
<path d="M71.4251 217.597C71.9991 217.333 73.1351 216.303 73.0514 215.764C73.0514 215.644 72.9437 215.488 72.6328 215.452C72.5217 215.441 72.4096 215.453 72.3029 215.486C72.1962 215.519 72.097 215.572 72.011 215.644C71.5754 216.16 71.3157 216.803 71.2696 217.477C71.2612 217.494 71.2568 217.512 71.2568 217.531C71.2568 217.55 71.2612 217.568 71.2696 217.585L71.4251 217.597ZM72.6209 215.668C72.8242 215.668 72.8361 215.764 72.8361 215.788C72.8959 216.111 72.1186 216.926 71.5327 217.274C71.5836 216.731 71.8056 216.219 72.1665 215.812C72.2279 215.757 72.3002 215.716 72.3784 215.691C72.4567 215.666 72.5393 215.658 72.6209 215.668Z" fill="#263238"/>
<path d="M66.2119 217.477H70.9592L71.4376 206.452H66.6902L66.2119 217.477Z" fill="#FF8B7B"/>
<path d="M31.3418 215.272L35.9815 216.278L40.6451 206.009L36.0054 205.002L31.3418 215.272Z" fill="#FF8B7B"/>
<path d="M36.4357 215.812L31.222 214.685C31.1299 214.663 31.033 214.673 30.9478 214.715C30.8627 214.757 30.7947 214.827 30.7556 214.913L28.9499 218.856C28.9064 218.952 28.8852 219.056 28.8879 219.161C28.8906 219.267 28.9172 219.37 28.9655 219.463C29.0139 219.557 29.0829 219.638 29.1672 219.701C29.2515 219.764 29.3489 219.807 29.4522 219.826C31.2698 220.186 32.1786 220.282 34.4745 220.773C35.8856 221.085 39.0784 221.863 41.0275 222.283C42.9767 222.702 43.6463 220.833 42.881 220.485C39.473 218.916 38.0978 217.549 37.1292 216.267C36.9596 216.037 36.7136 215.876 36.4357 215.812Z" fill="#263238"/>
<path d="M70.9354 216.926H65.7456C65.6514 216.926 65.56 216.958 65.4862 217.017C65.4124 217.075 65.3606 217.157 65.339 217.249L64.4063 221.48C64.3828 221.582 64.3828 221.688 64.4062 221.791C64.4296 221.893 64.4758 221.989 64.5414 222.07C64.607 222.152 64.6902 222.218 64.7849 222.263C64.8795 222.308 64.9832 222.331 65.0879 222.33C66.9653 222.33 69.6678 222.187 72.0236 222.187C74.7739 222.187 77.1416 222.342 80.3942 222.342C82.3433 222.342 82.8814 220.365 82.0683 220.185C78.3494 219.37 75.312 219.287 72.1073 217.297C71.7595 217.065 71.3532 216.936 70.9354 216.926Z" fill="#263238"/>
<path d="M51.7308 54.9809C47.2824 56.0115 43.6113 67.3958 43.6113 67.3958L52.5559 74.2265C54.8839 71.7594 56.5322 68.7283 57.3391 65.4305C58.8219 59.4627 56.2868 53.9383 51.7308 54.9809Z" fill="#D85D5A"/>
<path opacity="0.4" d="M51.7308 54.9809C47.2824 56.0115 43.6113 67.3958 43.6113 67.3958L52.5559 74.2265C54.8839 71.7594 56.5322 68.7283 57.3391 65.4305C58.8219 59.4627 56.2868 53.9383 51.7308 54.9809Z" fill="#D85D5A"/>
<path d="M78.4328 60.4209L85.9424 67.3354C87.1382 68.5338 88.4416 69.6242 89.6972 70.7507C90.9528 71.8772 92.2084 73.0036 93.4162 73.9743L92.3639 73.411C92.9498 73.6268 93.5597 73.8425 94.1934 74.0102C94.8272 74.178 95.5088 74.3218 96.1785 74.4536C97.5417 74.7053 98.9766 74.885 100.424 75.0049C101.87 75.1247 103.365 75.2086 104.86 75.2445C106.355 75.2805 107.897 75.3164 109.356 75.3284L110.074 78.8396C108.512 79.4055 106.914 79.8659 105.29 80.2177C103.685 80.5633 102.059 80.8114 100.424 80.9607C98.7376 81.1108 97.0429 81.1349 95.3534 81.0326C93.5633 80.9267 91.7905 80.6213 90.0679 80.1218L89.5657 79.978L89.0276 79.5586C87.5448 78.3603 86.2294 77.2937 84.9021 76.1553C83.5747 75.0169 82.2952 73.8664 81.0157 72.716C78.4567 70.3912 75.9336 68.0664 73.4463 65.6697L78.4328 60.4209Z" fill="#FF8B7B"/>
<path opacity="0.2" d="M55.5453 63.3574C53.1537 65.7541 52.3405 70.1281 52.1611 73.9269L52.5557 74.2265C54.8838 71.7594 56.532 68.7284 57.339 65.4306C57.4346 65.0711 57.5183 64.7116 57.5781 64.364L55.5453 63.3574Z" fill="black"/>
<path d="M79.8677 59.7617C80.8363 64.9027 81.4461 75.4602 78.6719 96.3834H53.2252C53.0459 92.4648 55.4972 73.399 51.7305 54.9803C54.5426 54.4388 57.3864 54.0785 60.2446 53.9018C63.8291 53.6994 67.4222 53.6994 71.0068 53.9018C72.2026 54.0216 73.3984 54.1894 74.4148 54.3691C75.7636 54.6044 77.0086 55.2468 77.9831 56.2106C78.9576 57.1743 79.6151 58.4133 79.8677 59.7617Z" fill="#D85D5A"/>
<path opacity="0.4" d="M79.8677 59.7617C80.8363 64.9027 81.4461 75.4602 78.6719 96.3834H53.2252C53.0459 92.4648 55.4972 73.399 51.7305 54.9803C54.5426 54.4388 57.3864 54.0785 60.2446 53.9018C63.8291 53.6994 67.4222 53.6994 71.0068 53.9018C72.2026 54.0216 73.3984 54.1894 74.4148 54.3691C75.7636 54.6044 77.0086 55.2468 77.9831 56.2106C78.9576 57.1743 79.6151 58.4133 79.8677 59.7617Z" fill="#D85D5A"/>
<path opacity="0.2" d="M75.9813 67.3593L80.5732 66.2568C80.7167 69.049 80.7287 72.5003 80.5732 76.7664C78.4088 74.3577 75.7063 70.5949 75.9813 67.3593Z" fill="black"/>
<path opacity="0.2" d="M71.4369 206.452L71.1858 212.132H66.4385L66.6776 206.452H71.4369Z" fill="black"/>
<path opacity="0.2" d="M36.0051 205.002L40.6448 206.009L38.2413 211.305L33.6016 210.299L36.0051 205.002Z" fill="black"/>
<path d="M59.3236 38.1796C60.5194 42.7453 61.0217 45.4775 63.8318 47.3709C68.0649 50.223 73.3265 46.9515 73.4939 42.1102C73.6374 37.7601 71.6165 31.0254 66.7256 30.1266C65.6509 29.9185 64.5408 29.9892 63.501 30.332C62.4611 30.6747 61.5259 31.2782 60.7843 32.0851C60.0427 32.8919 59.5192 33.8754 59.2635 34.942C59.0079 36.0087 59.0286 37.1232 59.3236 38.1796Z" fill="#FF8B7B"/>
<path d="M69.6558 38.5271C71.7843 38.2275 71.1745 35.747 70.3733 34.5486C70.3733 34.5486 75.1565 28.8205 69.6558 26.5076C64.1551 24.1948 65.5183 27.8138 65.5183 27.8138C65.5183 27.8138 61.2493 24.5903 57.5304 27.1907C53.8114 29.7911 57.0281 30.9056 57.0281 30.9056C57.0281 30.9056 50.2599 32.9068 52.9624 36.3341C55.6649 39.7614 58.4511 39.4139 58.4511 39.4139C58.4511 39.4139 52.8548 41.6309 57.1358 44.1115C61.4167 46.5921 62.9832 46.6999 62.9832 46.6999C64.1198 46.8546 65.274 46.5947 66.2355 45.9678C67.1969 45.3409 67.9015 44.3886 68.2208 43.2846L69.6558 38.5271Z" fill="#263238"/>
<path d="M67.8377 38.5387C67.9297 39.711 68.3998 40.8214 69.177 41.7023C70.2174 42.8408 71.2936 42.1337 71.473 40.7436C71.6523 39.3536 71.3056 37.3763 70.038 36.7531C68.7705 36.13 67.7301 37.1246 67.8377 38.5387Z" fill="#FF8B7B"/>
<path d="M69.62 96.3838C69.62 96.3838 64.2269 132.766 61.2494 146.391C58.0088 161.323 40.6338 210.707 40.6338 210.707L32.1436 208.885C32.1436 208.885 44.2929 168.633 47.0193 147.769C49.1 131.735 53.2255 96.4078 53.2255 96.4078L69.62 96.3838Z" fill="#563D3D"/>
<path d="M42.7259 207.855L41.1475 210.935L31.5811 208.861L32.3823 205.985L42.7259 207.855Z" fill="#D85D5A"/>
<path opacity="0.3" d="M66.2117 109.338C59.9816 110.536 60.6393 133.868 61.4285 145.852C63.2342 137.379 65.865 121.082 67.6587 109.505C67.2099 109.285 66.699 109.225 66.2117 109.338Z" fill="black"/>
<path d="M78.5999 96.3838C78.5999 96.3838 79.2456 131.975 78.7314 146.487C78.1933 161.598 72.9318 211.042 72.9318 211.042H64.884C64.884 211.042 64.5851 162.473 64.2263 147.649C63.8437 131.472 61.8945 96.3838 61.8945 96.3838H78.5999Z" fill="#563D3D"/>
<path d="M74.5104 207.83L74.0679 211.173H64.2504L63.9873 208.19L74.5104 207.83Z" fill="#D85D5A"/>
<path d="M69.919 61.3201C67.635 67.4796 80.9921 74.6697 80.9921 74.6697L86.7918 67.204C86.7918 67.204 82.9293 59.4986 78.182 56.0234C72.3465 51.7692 71.6529 56.6944 69.919 61.3201Z" fill="#D85D5A"/>
<path opacity="0.4" d="M69.919 61.3201C67.635 67.4796 80.9921 74.6697 80.9921 74.6697L86.7918 67.204C86.7918 67.204 82.9293 59.4986 78.182 56.0234C72.3465 51.7692 71.6529 56.6944 69.919 61.3201Z" fill="#D85D5A"/>
<path d="M108.363 77.2816C109.281 77.2816 110.025 76.7237 110.025 76.0354C110.025 75.347 109.281 74.7891 108.363 74.7891C107.445 74.7891 106.701 75.347 106.701 76.0354C106.701 76.7237 107.445 77.2816 108.363 77.2816Z" fill="#263238"/>
<path d="M107.718 80.0263C107.667 80.025 107.617 80.0125 107.572 79.9898C107.526 79.967 107.486 79.9345 107.455 79.8945C107.394 79.8319 107.36 79.7481 107.36 79.6608C107.36 79.5736 107.394 79.4898 107.455 79.4272C107.769 79.0673 107.984 78.6314 108.079 78.1627C108.173 77.6939 108.143 77.2086 107.993 76.7548C107.984 76.7115 107.984 76.667 107.993 76.6236C108.001 76.5803 108.018 76.5391 108.043 76.5024C108.067 76.4656 108.099 76.4341 108.135 76.4095C108.172 76.385 108.213 76.368 108.256 76.3594C108.345 76.3415 108.437 76.359 108.513 76.4083C108.589 76.4575 108.643 76.5346 108.663 76.623C108.839 77.1948 108.861 77.803 108.726 78.386C108.592 78.969 108.306 79.506 107.897 79.9424C107.846 79.9862 107.784 80.0152 107.718 80.0263Z" fill="#263238"/>
<path opacity="0.4" d="M109.691 75.952C109.691 76.4673 109.081 76.8748 108.34 76.8748C107.598 76.8748 106.988 76.4673 106.988 75.952C106.988 75.4367 107.598 75.0293 108.34 75.0293C109.081 75.0293 109.691 75.4367 109.691 75.952Z" fill="white"/>
<path opacity="0.4" d="M72.0116 53.962C68.9025 56.1909 63.5214 64.7472 62.5289 69.8761C62.5193 69.9073 62.5014 69.9352 62.4772 69.957C62.453 69.9787 62.4233 69.9935 62.3913 69.9996C62.3594 70.0058 62.3264 70.0031 62.2959 69.9919C62.2653 69.9807 62.2384 69.9614 62.2179 69.9361C59.2815 65.1704 57.5379 59.7642 57.1358 54.1777C57.1359 54.1562 57.1315 54.1349 57.1229 54.1152C57.1144 54.0955 57.1018 54.0777 57.0861 54.0631C57.0704 54.0485 57.0518 54.0372 57.0316 54.0302C57.0113 54.0231 56.9898 54.0203 56.9684 54.0219C56.502 54.0219 55.2464 54.1777 54.7083 54.3095C54.6692 54.3155 54.6338 54.3361 54.6094 54.3673C54.5849 54.3985 54.5733 54.4378 54.5768 54.4773C54.9495 61.4425 57.4268 68.1294 61.6798 73.6509C61.6901 73.6862 61.6901 73.7236 61.6798 73.7588C61.2613 81.3803 61.8114 94.9816 61.8831 96.6114C61.8886 96.6528 61.9083 96.691 61.9389 96.7195C61.9694 96.7479 62.0089 96.7648 62.0505 96.7672H64.0714C64.1158 96.7672 64.1584 96.7495 64.1898 96.7181C64.2212 96.6866 64.2389 96.6439 64.2389 96.5994C63.7912 88.9085 63.7912 81.198 64.2389 73.5072C65.3749 66.317 72.2029 56.5385 74.6065 54.5971C74.6291 54.5768 74.6457 54.5506 74.6546 54.5214C74.6635 54.4923 74.6643 54.4613 74.6569 54.4317C74.6495 54.4021 74.6343 54.3751 74.6127 54.3536C74.5912 54.3321 74.5642 54.3168 74.5347 54.3095C73.5183 54.0938 72.3464 53.95 72.0713 53.9141C72.0484 53.9258 72.0281 53.9422 72.0116 53.962Z" fill="#A03333"/>
<path d="M243.118 160.363C235.944 148.08 216.895 153.581 216.811 153.593C211.322 160.651 204.135 171.568 200.799 183.875C195.023 205.218 202.126 215.967 202.126 215.967C202.126 215.967 206.084 224.247 229.199 221.959C237.092 221.18 244.254 221.455 250.305 221.324C260.565 200.376 250.269 172.682 243.118 160.363Z" fill="#A3B06F"/>
<path d="M269.988 205.05C270.49 186.356 253.247 153.521 241.097 145.324H223.985C221.437 147.94 219.042 150.701 216.811 153.593C216.882 153.593 235.943 148.08 243.118 160.364C250.293 172.647 260.565 200.377 250.293 221.288C262.072 221.036 269.617 219.239 269.988 205.05Z" fill="#8C9955"/>
<path d="M223.985 145.372C223.985 145.372 209.635 124.317 219.728 124.665C229.821 125.012 227.955 128.667 234.281 127.972C240.607 127.277 241.814 122.747 249.121 125.575C256.427 128.403 239.554 147.361 239.554 147.361L223.985 145.372Z" fill="#A3B06F"/>
<path d="M239.017 173.797C239.666 173.797 240.288 173.539 240.746 173.079C241.205 172.619 241.462 171.996 241.462 171.346C241.462 170.696 241.205 170.073 240.746 169.613C240.288 169.154 239.666 168.896 239.017 168.896H219.633C218.984 168.896 218.362 169.154 217.904 169.613C217.445 170.073 217.188 170.696 217.188 171.346C217.188 171.996 217.445 172.619 217.904 173.079C218.362 173.539 218.984 173.797 219.633 173.797H225.182C226.307 173.794 227.409 174.117 228.355 174.727C229.301 175.337 230.051 176.209 230.515 177.236H219.705C219.056 177.236 218.434 177.494 217.976 177.954C217.517 178.413 217.259 179.037 217.259 179.687C217.259 180.337 217.517 180.96 217.976 181.42C218.434 181.879 219.056 182.137 219.705 182.137H230.467C230 183.162 229.249 184.031 228.304 184.641C227.358 185.25 226.258 185.575 225.134 185.577H219.585C219.079 185.541 218.575 185.668 218.146 185.938C217.716 186.208 217.384 186.608 217.196 187.081C217.008 187.553 216.975 188.072 217.102 188.565C217.228 189.057 217.507 189.496 217.899 189.819L231.746 203.001C231.983 203.225 232.262 203.399 232.566 203.515C232.871 203.631 233.195 203.685 233.521 203.675C233.846 203.665 234.166 203.591 234.463 203.457C234.76 203.322 235.027 203.131 235.25 202.893C235.476 202.663 235.652 202.39 235.77 202.09C235.888 201.79 235.944 201.469 235.935 201.147C235.926 200.825 235.852 200.507 235.718 200.214C235.584 199.921 235.392 199.659 235.155 199.442L225.756 190.538C228.08 190.41 230.3 189.53 232.083 188.03C233.866 186.531 235.116 184.493 235.645 182.221H239.005C239.654 182.221 240.276 181.963 240.734 181.503C241.193 181.044 241.45 180.42 241.45 179.771C241.45 179.121 241.193 178.497 240.734 178.038C240.276 177.578 239.654 177.32 239.005 177.32H235.645C235.367 176.097 234.869 174.936 234.174 173.893H238.957L239.017 173.797Z" fill="white"/>
<path d="M232.655 221.647C232.655 221.647 217.982 221.647 214.168 213.618C214.168 213.618 213.462 219.933 219.262 222.294C219.262 222.294 229.582 222.594 232.655 221.647Z" fill="#8C9955"/>
<path d="M237.977 140.579C241.019 135.716 243.09 130.307 244.075 124.653C244.075 124.653 253.988 123.73 250.317 131.364C250.317 131.364 248.739 136.397 242.64 143.623L237.977 140.579Z" fill="#8C9955"/>
<path d="M224.129 146.115C223.78 146.122 223.439 146.016 223.155 145.812C222.872 145.608 222.662 145.318 222.557 144.985C222.452 144.652 222.458 144.293 222.573 143.964C222.688 143.634 222.907 143.35 223.196 143.155C223.531 142.928 231.567 137.739 242.723 141.729C243.128 141.874 243.458 142.174 243.642 142.562C243.826 142.951 243.848 143.397 243.704 143.802C243.56 144.208 243.261 144.539 242.873 144.723C242.485 144.907 242.04 144.93 241.635 144.785C232.069 141.358 225.265 145.672 224.978 145.852C224.728 146.023 224.432 146.115 224.129 146.115Z" fill="#818E49"/>
<path d="M244.9 148.74C244.717 148.743 244.534 148.711 244.362 148.644C230.3 143.719 221.283 148.488 221.188 148.548C220.81 148.753 220.367 148.8 219.956 148.677C219.544 148.555 219.198 148.273 218.993 147.895C218.789 147.517 218.743 147.073 218.865 146.66C218.987 146.248 219.268 145.901 219.645 145.696C220.064 145.469 230.025 140.196 245.427 145.588C245.791 145.711 246.1 145.959 246.298 146.289C246.495 146.62 246.569 147.01 246.506 147.389C246.443 147.769 246.246 148.114 245.952 148.361C245.657 148.609 245.285 148.743 244.9 148.74Z" fill="#818E49"/>
<path d="M235.25 160.507C235.032 160.505 234.817 160.46 234.616 160.375C234.421 160.293 234.243 160.173 234.094 160.021C233.945 159.87 233.827 159.691 233.747 159.494C233.667 159.297 233.627 159.086 233.628 158.873C233.629 158.661 233.673 158.45 233.755 158.254C237.881 148.488 234.353 146.546 234.305 146.534L234.138 146.427L235.597 143.562C236.868 144.202 237.847 145.304 238.335 146.642C239.591 149.698 239.053 154.036 236.733 159.513C236.611 159.806 236.405 160.057 236.141 160.234C235.877 160.411 235.567 160.506 235.25 160.507Z" fill="#818E49"/>
<path d="M248.918 165.109C248.709 165.138 248.496 165.125 248.293 165.071C248.089 165.017 247.897 164.924 247.73 164.796C247.562 164.668 247.421 164.508 247.315 164.325C247.209 164.142 247.14 163.94 247.112 163.731C246.73 161.534 246.08 159.393 245.175 157.356C243.214 152.958 240.392 149.938 236.888 148.368C236.692 148.284 236.514 148.162 236.365 148.008C236.216 147.855 236.099 147.673 236.021 147.474C235.942 147.275 235.904 147.062 235.909 146.848C235.913 146.634 235.959 146.423 236.046 146.227C236.132 146.032 236.256 145.855 236.411 145.707C236.566 145.56 236.748 145.445 236.948 145.369C237.147 145.292 237.36 145.257 237.574 145.264C237.787 145.27 237.997 145.319 238.192 145.408C248.404 149.926 250.233 162.748 250.305 163.347C250.346 163.764 250.224 164.18 249.966 164.508C249.707 164.837 249.332 165.052 248.918 165.109Z" fill="#818E49"/>
<path fill-rule="evenodd" clip-rule="evenodd" d="M130.104 208.298C130.104 208.298 155.335 206.86 180.554 208.298H130.104Z" fill="#F1E28E"/>
<path d="M130.104 208.298V215.045H180.554V208.298H130.104Z" fill="#CA9A27"/>
<path d="M132.375 217.154V207.243" stroke="#ECD757" stroke-width="1.87" stroke-miterlimit="10"/>
<path d="M136.226 216.962V207.04" stroke="#ECD757" stroke-width="1.87" stroke-miterlimit="10"/>
<path d="M140.076 216.77V206.848" stroke="#ECD757" stroke-width="1.87" stroke-miterlimit="10"/>
<path d="M143.938 216.351V206.429" stroke="#ECD757" stroke-width="1.87" stroke-miterlimit="10"/>
<path d="M147.789 216.674V206.752" stroke="#ECD757" stroke-width="1.87" stroke-miterlimit="10"/>
<path d="M151.651 216.674V206.752" stroke="#ECD757" stroke-width="1.87" stroke-miterlimit="10"/>
<path d="M155.502 217.178V207.256" stroke="#ECD757" stroke-width="1.87" stroke-miterlimit="10"/>
<path d="M159.364 216.674V206.752" stroke="#ECD757" stroke-width="1.87" stroke-miterlimit="10"/>
<path d="M170.928 217.118V207.195" stroke="#ECD757" stroke-width="1.87" stroke-miterlimit="10"/>
<path d="M163.215 216.674V206.752" stroke="#ECD757" stroke-width="1.87" stroke-miterlimit="10"/>
<path d="M174.79 216.663V206.74" stroke="#ECD757" stroke-width="1.87" stroke-miterlimit="10"/>
<path d="M167.077 216.855V206.944" stroke="#ECD757" stroke-width="1.87" stroke-miterlimit="10"/>
<path d="M178.641 216.531V206.62" stroke="#ECD757" stroke-width="1.87" stroke-miterlimit="10"/>
<path fill-rule="evenodd" clip-rule="evenodd" d="M127.938 200.497C127.938 200.497 153.158 199.059 178.389 200.497H127.938Z" fill="#F1E28E"/>
<path d="M127.938 200.473V207.22H178.389V200.473H127.938Z" fill="#CA9A27"/>
<path d="M130.199 209.34V199.418" stroke="#ECD757" stroke-width="1.87" stroke-miterlimit="10"/>
<path d="M134.062 209.149V199.227" stroke="#ECD757" stroke-width="1.87" stroke-miterlimit="10"/>
<path d="M137.912 208.957V199.034" stroke="#ECD757" stroke-width="1.87" stroke-miterlimit="10"/>
<path d="M141.774 208.538V198.615" stroke="#ECD757" stroke-width="1.87" stroke-miterlimit="10"/>
<path d="M145.625 208.849V198.938" stroke="#ECD757" stroke-width="1.87" stroke-miterlimit="10"/>
<path d="M149.487 208.849V198.938" stroke="#ECD757" stroke-width="1.87" stroke-miterlimit="10"/>
<path d="M153.338 209.353V199.442" stroke="#ECD757" stroke-width="1.87" stroke-miterlimit="10"/>
<path d="M157.2 208.849V198.938" stroke="#ECD757" stroke-width="1.87" stroke-miterlimit="10"/>
<path d="M168.764 209.304V199.382" stroke="#ECD757" stroke-width="1.87" stroke-miterlimit="10"/>
<path d="M161.051 208.849V198.938" stroke="#ECD757" stroke-width="1.87" stroke-miterlimit="10"/>
<path d="M172.614 208.849V198.927" stroke="#ECD757" stroke-width="1.87" stroke-miterlimit="10"/>
<path d="M164.913 209.041V199.131" stroke="#ECD757" stroke-width="1.87" stroke-miterlimit="10"/>
<path d="M176.477 208.717V198.795" stroke="#ECD757" stroke-width="1.87" stroke-miterlimit="10"/>
<path d="M172.147 217.681C184.86 217.681 195.166 207.353 195.166 194.612C195.166 181.872 184.86 171.544 172.147 171.544C159.434 171.544 149.128 181.872 149.128 194.612C149.128 207.353 159.434 217.681 172.147 217.681Z" fill="#CA9A27"/>
<path d="M171.155 217.681C183.868 217.681 194.174 207.353 194.174 194.612C194.174 181.872 183.868 171.544 171.155 171.544C158.442 171.544 148.136 181.872 148.136 194.612C148.136 207.353 158.442 217.681 171.155 217.681Z" fill="#ECD757"/>
<path d="M171.155 217.681C183.868 217.681 194.174 207.353 194.174 194.612C194.174 181.872 183.868 171.544 171.155 171.544C158.442 171.544 148.136 181.872 148.136 194.612C148.136 207.353 158.442 217.681 171.155 217.681Z" fill="#ECD757"/>
<path d="M171.156 213.212C181.405 213.212 189.714 204.885 189.714 194.613C189.714 184.341 181.405 176.015 171.156 176.015C160.906 176.015 152.597 184.341 152.597 194.613C152.597 204.885 160.906 213.212 171.156 213.212Z" fill="#CA9A27"/>
<path d="M171.155 176.014H170.748C175.501 176.256 179.979 178.319 183.258 181.776C186.537 185.232 188.365 189.819 188.365 194.589C188.365 199.358 186.537 203.945 183.258 207.402C179.979 210.859 175.501 212.921 170.748 213.163H171.155C173.632 213.226 176.097 212.792 178.405 211.885C180.712 210.978 182.815 209.618 184.59 207.884C186.364 206.15 187.775 204.078 188.738 201.79C189.701 199.501 190.197 197.042 190.197 194.559C190.197 192.075 189.701 189.616 188.738 187.328C187.775 185.039 186.364 182.967 184.59 181.233C182.815 179.499 180.712 178.139 178.405 177.232C176.097 176.326 173.632 175.891 171.155 175.954V176.014Z" fill="#F1E28E"/>
<path d="M153.84 194.625C153.84 189.799 155.711 185.162 159.058 181.693C162.404 178.223 166.965 176.191 171.777 176.026H171.155C166.313 176.15 161.711 178.164 158.329 181.639C154.948 185.115 153.056 189.777 153.056 194.631C153.056 199.485 154.948 204.147 158.329 207.622C161.711 211.098 166.313 213.112 171.155 213.235H171.777C166.96 213.076 162.395 211.045 159.047 207.571C155.699 204.098 153.831 199.454 153.84 194.625Z" fill="#B68D24"/>
<path fill-rule="evenodd" clip-rule="evenodd" d="M174.049 187.027C174.713 187.953 175.203 188.993 175.496 190.095H178.88L177.565 194.049H175.687C175.504 195.998 174.676 197.828 173.335 199.251C171.993 200.673 170.216 201.605 168.285 201.899L174.384 210.539H169.601L163.502 202.006V198.1H166.802C167.952 198.103 169.068 197.713 169.966 196.993C170.864 196.274 171.491 195.269 171.741 194.145H162.617L163.933 190.179H171.442C171.055 189.267 170.408 188.49 169.583 187.945C168.758 187.399 167.791 187.109 166.802 187.111H162.617L163.933 183.156H178.88L177.565 187.111H174.049V187.027Z" fill="#B68D24"/>
<path fill-rule="evenodd" clip-rule="evenodd" d="M174.922 186.2C175.584 187.127 176.074 188.167 176.369 189.268H179.765L178.449 193.234H176.572C176.382 195.182 175.55 197.011 174.208 198.433C172.865 199.854 171.088 200.787 169.158 201.084L175.269 209.712H170.485L164.411 201.18V197.225H167.699C168.85 197.225 169.966 196.833 170.864 196.111C171.762 195.39 172.388 194.384 172.638 193.258H163.502L164.829 189.304H172.327C171.943 188.39 171.298 187.61 170.472 187.064C169.646 186.518 168.677 186.23 167.687 186.236H163.502L164.829 182.27H179.777L178.461 186.236H174.934L174.922 186.2Z" fill="#ECD757"/>
</g>
<defs>
<clipPath id="clip0_5531_3704">
<rect width="270" height="230" fill="white"/>
</clipPath>
</defs>
</svg>
