<svg width="292" height="269" viewBox="0 0 292 269" fill="none" xmlns="http://www.w3.org/2000/svg">
<path d="M10.9386 174.219L10.6344 181.301L7.8686 183.075L3.47696 193.39C3.18939 194.064 2.70244 194.635 2.08116 195.025C1.45988 195.416 0.733837 195.609 0 195.577L0.987773 172.507C0.99957 172.243 1.07092 171.985 1.19652 171.752C1.32212 171.519 1.49873 171.317 1.71323 171.162C1.92774 171.006 2.17461 170.901 2.4355 170.854C2.69639 170.807 2.96458 170.819 3.22014 170.889L10.9386 174.219Z" fill="#102A54"/>
<path d="M17.4184 182.759L10.6344 181.299L10.9386 174.219L17.7523 175.031L17.4184 182.759Z" fill="#FFC0B1"/>
<path d="M173.173 165.358C171.79 156.007 137.073 124.57 137.073 124.57L100.824 113.291L79.6857 173.926L13.4694 171.341L13.8546 185.904C13.8546 185.904 87.0367 199.223 90.0653 198.287C97.2128 196.074 114.59 169.754 121.587 158.775L146.981 174.296L143.472 243.286H156.578C156.578 243.286 173.639 168.487 173.173 165.358Z" fill="#3D3E72"/>
<path d="M121.587 158.769L126.174 150.625L146.971 174.3L121.587 158.769Z" fill="#0C203F"/>
<path d="M146.301 250.115H153.413L155.308 252.787L165.829 256.728C166.517 256.986 167.11 257.446 167.528 258.049C167.947 258.651 168.171 259.367 168.17 260.1H145.015C144.75 260.1 144.488 260.04 144.249 259.925C144.01 259.81 143.8 259.642 143.635 259.435C143.47 259.228 143.354 258.986 143.296 258.728C143.237 258.47 143.238 258.202 143.298 257.944L146.301 250.115Z" fill="#102A54"/>
<path d="M154.579 243.29L153.407 250.114H146.301L146.823 243.29H154.579Z" fill="#FFC0B1"/>
<path d="M222.583 144.913C212.885 141.957 203.734 135.498 195.39 125.685C188.886 118.037 182.833 108.329 177.412 96.8294C168.24 77.4066 164.026 59.7454 163.852 58.9966L163.016 55.4498L166.501 54.3621C179.162 50.4054 189.554 42.2339 196.041 36.0743C203.177 29.2999 207.302 23.3885 207.344 23.3294L209.912 19.6367L213.235 22.6653C213.284 22.7126 218.636 27.5481 227.113 32.555C234.817 37.1068 246.781 42.7482 260.01 43.7709L263.651 44.0527L263.635 47.6941C263.635 48.4566 263.495 66.6105 258.921 87.5899C256.215 100.004 252.499 110.828 247.88 119.734C241.953 131.163 234.49 139.513 225.7 144.552L224.227 145.397L222.583 144.913Z" fill="#B86EBD"/>
<path d="M210.566 25.564C210.566 25.564 193.704 49.972 167.665 58.108C167.665 58.108 184.417 129.226 223.727 141.165C259.352 120.739 259.682 47.6843 259.682 47.6843C232.486 45.5799 210.566 25.564 210.566 25.564Z" fill="#DA8AE0"/>
<path d="M149.308 52.634L130.276 46.7798C127.933 46.0606 94.4529 54.2163 94.4529 54.2163C91.9807 54.8227 89.6635 55.9397 87.6511 57.4951C84.8947 59.6265 82.8106 62.5033 81.6475 65.7829L65.8273 110.384L76.6928 115.099L98.726 73.1465L112.211 70.4647L96.3435 118.335L148.233 133.249L156.74 64.644C157.17 62.0838 156.653 59.4551 155.286 57.2462C153.919 55.0373 151.795 53.3984 149.308 52.634Z" fill="#3C94F8"/>
<path d="M233.312 74.3227C233.312 74.3227 238.688 69.966 240.505 69.7295C242.323 69.4931 251.963 70.7778 252.036 72.0271C252.109 73.2763 249.826 81.9424 247.534 82.1001C245.242 82.2577 235.483 82.1001 235.483 82.1001L233.312 74.3227Z" fill="#FFC0B1"/>
<path d="M153.654 55.2134L186.359 82.2599L232.903 72.8904L236.084 84.2835L191.393 100.132C188.107 101.297 184.554 101.496 181.158 100.705C178.679 100.127 176.349 99.0357 174.318 97.5034L150.511 79.5269L153.654 55.2134Z" fill="#3C94F8"/>
<path d="M208.639 76.254L211.405 94.5517C211.475 95.0136 211.362 95.4845 211.091 95.8651C210.819 96.2456 210.41 96.5059 209.949 96.5912L207.776 96.9852C207.541 97.0289 207.3 97.0256 207.067 96.9756C206.833 96.9255 206.612 96.8297 206.416 96.6937C206.22 96.5577 206.053 96.3841 205.924 96.1832C205.796 95.9823 205.709 95.7579 205.668 95.5232L202.458 76.9733C202.415 76.7234 202.425 76.4673 202.488 76.2216C202.55 75.9759 202.665 75.7463 202.823 75.5476C202.98 75.349 203.179 75.1858 203.404 75.0688C203.63 74.9519 203.878 74.8837 204.131 74.8688L206.743 74.7171C207.195 74.6901 207.64 74.833 207.991 75.1175C208.342 75.4021 208.574 75.8076 208.639 76.254Z" fill="#B86EBD"/>
<path d="M230.272 71.9149L233.038 90.2126C233.107 90.6745 232.995 91.1454 232.723 91.5259C232.451 91.9064 232.042 92.1668 231.582 92.252L229.408 92.6461C229.174 92.6898 228.932 92.6864 228.699 92.6362C228.465 92.586 228.244 92.4901 228.048 92.3539C227.851 92.2176 227.684 92.0439 227.556 91.8427C227.428 91.6416 227.341 91.417 227.301 91.182L224.09 72.6322C224.047 72.3824 224.057 72.1262 224.119 71.8805C224.182 71.6348 224.296 71.4052 224.454 71.2066C224.612 71.008 224.811 70.845 225.036 70.7284C225.262 70.6117 225.51 70.544 225.764 70.5297L228.375 70.378C228.827 70.35 229.273 70.4926 229.624 70.7773C229.976 71.062 230.207 71.4681 230.272 71.9149Z" fill="#B86EBD"/>
<path d="M184.176 94.7745C184.117 94.7747 184.06 94.7555 184.013 94.7199C183.966 94.6842 183.933 94.6342 183.918 94.5774C182.586 88.8217 185.98 82.4118 186.126 82.1418C186.143 82.1113 186.165 82.0843 186.192 82.0624C186.219 82.0405 186.25 82.0241 186.283 82.0141C186.316 82.0041 186.351 82.0008 186.386 82.0043C186.421 82.0078 186.454 82.018 186.485 82.0345C186.515 82.0509 186.542 82.0732 186.564 82.1C186.586 82.1269 186.603 82.1578 186.613 82.191C186.623 82.2242 186.626 82.2591 186.623 82.2936C186.619 82.3281 186.609 82.3616 186.592 82.3921C186.559 82.4571 183.149 88.8946 184.435 94.4572C184.443 94.491 184.445 94.526 184.439 94.5604C184.434 94.5947 184.421 94.6276 184.403 94.6571C184.385 94.6866 184.36 94.7122 184.332 94.7323C184.304 94.7525 184.272 94.7668 184.238 94.7745C184.217 94.7776 184.197 94.7776 184.176 94.7745Z" fill="#102A54"/>
<path d="M112.211 70.7306C112.179 70.7306 112.148 70.7246 112.118 70.7128C112.086 70.7008 112.055 70.6824 112.03 70.6587C112.004 70.635 111.984 70.6065 111.969 70.5748C111.955 70.5431 111.947 70.5089 111.945 70.4741C111.944 70.4393 111.95 70.4046 111.962 70.372L115.483 61.0044C115.507 60.9386 115.557 60.8852 115.621 60.856C115.685 60.8268 115.758 60.8242 115.824 60.8487C115.89 60.8733 115.944 60.923 115.973 60.9869C116.002 61.0509 116.005 61.1238 115.98 61.1896L112.46 70.5572C112.441 70.6079 112.407 70.6517 112.363 70.6827C112.318 70.7136 112.265 70.7304 112.211 70.7306Z" fill="#102A54"/>
<path d="M98.734 73.409C98.6754 73.4088 98.6185 73.3894 98.5721 73.3538C98.5257 73.3182 98.4923 73.2683 98.4772 73.2119C97.5047 70.3132 95.6497 67.7894 93.1708 65.9922C93.1426 65.9718 93.1186 65.9462 93.1002 65.9166C93.0819 65.8871 93.0696 65.8542 93.064 65.8199C93.0584 65.7856 93.0596 65.7505 93.0676 65.7167C93.0756 65.6828 93.0902 65.6509 93.1106 65.6227C93.1309 65.5945 93.1567 65.5706 93.1863 65.5523C93.216 65.534 93.2489 65.5217 93.2833 65.5161C93.3177 65.5105 93.3529 65.5118 93.3868 65.5198C93.4207 65.5277 93.4527 65.5423 93.481 65.5626C97.7502 68.6345 98.9414 72.8947 98.9888 73.074C98.9981 73.1075 99.0007 73.1425 98.9963 73.177C98.992 73.2115 98.9809 73.2448 98.9637 73.275C98.9464 73.3052 98.9234 73.3317 98.8958 73.353C98.8682 73.3743 98.8368 73.39 98.8031 73.3991C98.7805 73.4051 98.7573 73.4084 98.734 73.409Z" fill="#102A54"/>
<path d="M125.542 84.5814H125.51C125.441 84.573 125.377 84.5374 125.334 84.4823C125.291 84.4273 125.271 84.3573 125.279 84.2878L126.441 74.9084C126.455 74.8432 126.493 74.7855 126.547 74.7468C126.601 74.708 126.668 74.6911 126.735 74.6993C126.801 74.7075 126.862 74.7402 126.905 74.7909C126.948 74.8417 126.971 74.9068 126.968 74.9734L125.805 84.3528C125.797 84.4164 125.765 84.4747 125.717 84.5168C125.669 84.5589 125.606 84.5819 125.542 84.5814Z" fill="#102A54"/>
<path d="M139.142 55.5483C138.366 55.5107 137.606 55.3135 136.91 54.9689C136.213 54.6244 135.596 54.14 135.097 53.5462C134.597 52.9524 134.227 52.262 134.007 51.5184C133.788 50.7748 133.726 49.994 133.824 49.2251L136.299 29.7432L144.258 30.1373L145.049 49.7137C145.079 50.4929 144.946 51.2698 144.659 51.9952C144.372 52.7205 143.937 53.3784 143.382 53.9271C142.826 54.4757 142.163 54.9032 141.433 55.1823C140.703 55.4614 139.923 55.586 139.142 55.5483Z" fill="#FFC0B1"/>
<path d="M135.621 13.3647L160.81 14.5844L160.525 16.1313C159.522 21.4799 159.059 26.9153 159.142 32.356C159.19 34.957 158.854 38.0388 157.433 40.4743C154.65 45.2546 148.616 47.162 143.699 44.6123C138.729 42.0388 131.24 34.3718 135.621 13.3647Z" fill="#FFC0B1"/>
<path d="M151.246 32.5396H151.187L148.862 32.4234C148.827 32.4216 148.793 32.413 148.761 32.3981C148.73 32.3832 148.702 32.3622 148.678 32.3364C148.655 32.3106 148.637 32.2804 148.625 32.2477C148.614 32.2149 148.609 32.1802 148.611 32.1455C148.612 32.1109 148.621 32.077 148.635 32.0456C148.65 32.0143 148.671 31.9861 148.697 31.9629C148.722 31.9396 148.752 31.9216 148.785 31.91C148.818 31.8984 148.853 31.8934 148.887 31.8953L151.212 32.0076C151.311 32.0125 151.409 31.9946 151.499 31.9552C151.589 31.9159 151.669 31.8563 151.732 31.781C151.796 31.7063 151.842 31.6176 151.865 31.5221C151.888 31.4266 151.889 31.327 151.866 31.2312L150.203 23.8696C150.195 23.8357 150.194 23.8006 150.2 23.7664C150.206 23.7322 150.219 23.6994 150.237 23.67C150.256 23.6407 150.28 23.6153 150.309 23.5952C150.337 23.5752 150.369 23.561 150.403 23.5533C150.437 23.5457 150.473 23.5448 150.507 23.5507C150.541 23.5567 150.574 23.5693 150.603 23.5878C150.633 23.6064 150.658 23.6306 150.678 23.659C150.699 23.6874 150.713 23.7194 150.72 23.7533L152.384 31.115C152.423 31.2854 152.423 31.4624 152.384 31.6329C152.344 31.8033 152.267 31.9627 152.158 32.0994C152.049 32.236 151.91 32.3464 151.752 32.4222C151.594 32.4981 151.421 32.5376 151.246 32.5376V32.5396Z" fill="#102A54"/>
<path d="M147.311 24.7468C147.52 24.0733 147.142 23.3579 146.467 23.1491C145.792 22.9402 145.075 23.3169 144.865 23.9904C144.656 24.6639 145.034 25.3793 145.709 25.5882C146.384 25.7971 147.101 25.4204 147.311 24.7468Z" fill="#102A54"/>
<path d="M156.493 24.6099C156.481 24.8621 156.393 25.105 156.243 25.3078C156.092 25.5106 155.884 25.6643 155.646 25.7495C155.408 25.8346 155.149 25.8473 154.904 25.7861C154.658 25.7248 154.436 25.5923 154.266 25.4053C154.096 25.2183 153.985 24.9852 153.948 24.7355C153.911 24.4857 153.949 24.2306 154.057 24.0022C154.165 23.7739 154.338 23.5827 154.555 23.4527C154.772 23.3227 155.023 23.2598 155.276 23.272C155.444 23.2798 155.609 23.3207 155.761 23.3922C155.913 23.4638 156.05 23.5646 156.163 23.6889C156.276 23.8132 156.363 23.9585 156.42 24.1166C156.477 24.2746 156.501 24.4423 156.493 24.6099Z" fill="#102A54"/>
<path d="M144.865 45.3965C144.833 45.3966 144.8 45.3905 144.77 45.3788C144.622 45.3217 141.125 43.9699 138.808 40.9689C138.787 40.9414 138.771 40.9099 138.762 40.8763C138.753 40.8427 138.751 40.8077 138.755 40.7732C138.76 40.7387 138.771 40.7054 138.788 40.6753C138.806 40.6451 138.829 40.6187 138.856 40.5975C138.884 40.5763 138.916 40.5607 138.949 40.5516C138.983 40.5426 139.018 40.5402 139.053 40.5447C139.087 40.5492 139.12 40.5604 139.151 40.5778C139.181 40.5951 139.207 40.6182 139.229 40.6458C141.451 43.5246 144.924 44.8704 144.958 44.8842C145.017 44.9054 145.066 44.9467 145.097 45.0007C145.128 45.0548 145.139 45.1181 145.128 45.1795C145.117 45.2408 145.085 45.2963 145.036 45.336C144.988 45.3758 144.927 45.3972 144.865 45.3965Z" fill="#102A54"/>
<path d="M138.265 14.4506C138.265 14.4506 138.195 23.3038 136.014 24.5945C133.833 25.8851 133.263 23.1738 133.263 23.1738C133.263 23.1738 130.706 13.9895 135.633 12.222C138.64 11.1422 138.265 14.4506 138.265 14.4506Z" fill="#102A54"/>
<path d="M136.7 23.8984C136.81 21.6266 135.64 19.724 134.086 19.6487C132.532 19.5735 131.183 21.3541 131.072 23.6259C130.961 25.8976 132.132 27.8003 133.686 27.8755C135.24 27.9508 136.589 26.1702 136.7 23.8984Z" fill="#FFC0B1"/>
<path d="M135.191 26.0879H135.169C135.099 26.0814 135.035 26.0478 134.99 25.9942C134.946 25.9407 134.924 25.8717 134.93 25.8022C134.93 25.7687 135.181 22.5707 133.885 21.284C133.835 21.2346 133.807 21.1674 133.806 21.0972C133.806 21.027 133.833 20.9595 133.883 20.9096C133.932 20.8597 134 20.8314 134.07 20.8311C134.141 20.8307 134.208 20.8582 134.258 20.9076C135.73 22.3697 135.471 25.7037 135.459 25.8456C135.454 25.9125 135.423 25.9748 135.373 26.0198C135.323 26.0648 135.258 26.0892 135.191 26.0879Z" fill="#102A54"/>
<path d="M152.149 36.9217C152.103 36.9219 152.058 36.9102 152.018 36.8878C151.978 36.8653 151.945 36.8328 151.922 36.7936C151.904 36.766 150.833 35.0813 147.97 34.7404C147.901 34.732 147.837 34.6963 147.793 34.6411C147.75 34.5858 147.73 34.5156 147.738 34.4458C147.747 34.376 147.783 34.3125 147.838 34.269C147.893 34.2256 147.964 34.2059 148.034 34.2143C151.171 34.5887 152.321 36.4429 152.368 36.5217C152.386 36.5514 152.398 36.5844 152.403 36.6188C152.408 36.6531 152.406 36.6881 152.398 36.7218C152.39 36.7554 152.375 36.7871 152.354 36.815C152.333 36.8429 152.307 36.8664 152.277 36.8843C152.238 36.9073 152.194 36.9202 152.149 36.9217Z" fill="#102A54"/>
<path d="M147.362 35.8317C147.312 35.8304 147.264 35.8153 147.223 35.788C147.182 35.7607 147.149 35.7224 147.128 35.6775C147.108 35.6325 147.1 35.5827 147.106 35.5337C147.113 35.4846 147.133 35.4384 147.164 35.4002C147.757 34.6751 147.309 33.2327 147.305 33.2327C147.294 33.1997 147.29 33.1649 147.292 33.1303C147.295 33.0958 147.305 33.062 147.32 33.0311C147.336 33.0002 147.358 32.9727 147.384 32.9501C147.411 32.9276 147.441 32.9104 147.475 32.8997C147.508 32.889 147.543 32.8848 147.577 32.8875C147.612 32.8902 147.646 32.8997 147.677 32.9155C147.708 32.9312 147.735 32.9529 147.758 32.9792C147.78 33.0056 147.798 33.0362 147.808 33.0692C147.832 33.1401 148.356 34.7933 147.575 35.7411C147.549 35.7714 147.516 35.7953 147.479 35.811C147.442 35.8267 147.402 35.8338 147.362 35.8317Z" fill="#102A54"/>
<path d="M142.518 21.8791C142.325 21.8636 142.144 21.7779 142.011 21.6384C141.877 21.4989 141.799 21.3152 141.792 21.1222C141.785 20.9293 141.849 20.7404 141.972 20.5915C142.096 20.4426 142.269 20.3441 142.461 20.3146C145.226 20.1175 148.123 18.9352 148.152 18.9214C148.25 18.8655 148.358 18.8311 148.471 18.8204C148.583 18.8098 148.696 18.8232 148.802 18.8597C148.909 18.8962 149.006 18.9549 149.088 19.0321C149.17 19.1092 149.234 19.2029 149.277 19.3069C149.32 19.4108 149.339 19.5227 149.335 19.635C149.331 19.7472 149.303 19.8573 149.252 19.9577C149.202 20.0582 149.13 20.1467 149.043 20.2174C148.955 20.2882 148.854 20.3394 148.745 20.3678C148.618 20.421 145.596 21.6584 142.567 21.8771L142.518 21.8791Z" fill="#102A54"/>
<path d="M158.148 22.9135C158.085 22.913 158.022 22.9057 157.961 22.8918C155.62 22.3224 152.858 19.8258 152.741 19.7194C152.651 19.6543 152.576 19.5709 152.52 19.4747C152.465 19.3785 152.43 19.2717 152.419 19.1613C152.408 19.0509 152.42 18.9393 152.455 18.8339C152.49 18.7285 152.546 18.6317 152.621 18.5497C152.697 18.4677 152.788 18.4025 152.89 18.3583C152.992 18.314 153.103 18.2918 153.214 18.293C153.325 18.2943 153.435 18.3189 153.536 18.3654C153.637 18.4119 153.727 18.4791 153.8 18.5627C153.826 18.5864 156.382 20.8958 158.332 21.3687C158.512 21.4204 158.668 21.5343 158.772 21.6901C158.876 21.8458 158.92 22.0333 158.898 22.2189C158.876 22.4046 158.789 22.5764 158.651 22.7036C158.514 22.8309 158.336 22.9053 158.148 22.9135Z" fill="#102A54"/>
<path d="M136.708 15.3234C136.708 15.3234 157.313 20.6437 166.049 16.882C174.785 13.1204 166.389 13.9599 166.389 13.9599C166.389 13.9599 171.701 9.5953 168.732 5.45536C166.888 2.89377 163.002 5.25832 163.002 5.25832C163.002 5.25832 163.575 1.8514 160.796 0.52922C155.857 -1.81957 151.813 4.41102 151.813 4.41102C151.813 4.41102 136.277 5.0593 134.063 9.41007C131.848 13.7608 136.708 15.3234 136.708 15.3234Z" fill="#102A54"/>
<path d="M133.988 47.923L137.903 55.3615L133.881 56.729C133.417 56.8862 132.92 56.9221 132.438 56.833C131.957 56.7439 131.506 56.533 131.129 56.2203C130.752 55.9077 130.462 55.5039 130.287 55.0474C130.112 54.591 130.057 54.0974 130.127 53.6137C130.578 50.5299 131.133 47.0481 131.332 47.1112C131.696 47.2117 133.988 47.923 133.988 47.923Z" fill="white"/>
<path d="M138.425 55.4771L141.092 58.6594C141.417 59.0467 141.839 59.3411 142.315 59.5125C142.792 59.684 143.305 59.7264 143.803 59.6355C144.302 59.5446 144.767 59.3235 145.151 58.9949C145.536 58.6663 145.826 58.2418 145.993 57.7648L148.01 52.0189L144.863 51.0869L138.425 55.4771Z" fill="white"/>
<path d="M138.425 55.4775L137.903 55.3672L135.73 56.1041L130.173 101.783C129.752 105.225 130.585 108.702 132.52 111.582L136.101 116.914L139.126 111.439C140.356 109.215 140.978 106.707 140.928 104.168L140.021 57.3711L138.425 55.4775Z" fill="#102A54"/>
<path d="M238.593 79.7141C238.536 79.7145 238.48 79.6966 238.435 79.6632C238.389 79.6297 238.355 79.5824 238.338 79.5283C238.321 79.4741 238.322 79.416 238.341 79.3626C238.36 79.3091 238.396 79.2631 238.443 79.2313C239.148 78.7505 239.681 75.6451 239.851 73.8007L239.883 73.4618L240.205 73.5761C241.408 73.9997 244.749 74.9791 245.776 74.4273C245.832 74.4024 245.882 74.3652 245.921 74.3184C245.961 74.2717 245.99 74.2167 246.005 74.1574C246.242 73.1722 242.862 71.115 240.385 69.9623C240.326 69.9295 240.281 69.8757 240.261 69.8117C240.24 69.7477 240.244 69.6782 240.273 69.6173C240.301 69.5563 240.352 69.5084 240.414 69.4832C240.477 69.458 240.547 69.4574 240.61 69.4815C241.671 69.9761 246.945 72.5278 246.521 74.2815C246.487 74.4129 246.426 74.5355 246.341 74.6412C246.257 74.747 246.15 74.8333 246.029 74.8943C244.792 75.5623 241.453 74.5495 240.347 74.183C240.219 75.3653 239.754 78.9811 238.743 79.6688C238.699 79.6988 238.646 79.7146 238.593 79.7141Z" fill="#102A54"/>
<path d="M245.879 73.4739C245.841 73.4735 245.803 73.4648 245.769 73.4485C245.735 73.4321 245.705 73.4085 245.681 73.3793C245.658 73.3529 245.641 73.3223 245.631 73.2893C245.62 73.2563 245.616 73.2216 245.619 73.187C245.621 73.1524 245.631 73.1187 245.647 73.0878C245.662 73.0569 245.684 73.0294 245.711 73.0069C247.649 71.3596 251.88 71.7458 252.058 71.7635C252.093 71.7668 252.126 71.7768 252.157 71.793C252.188 71.8092 252.215 71.8313 252.237 71.858C252.26 71.8847 252.276 71.9155 252.287 71.9487C252.297 71.9818 252.3 72.0167 252.297 72.0512C252.294 72.0858 252.284 72.1193 252.268 72.15C252.251 72.1807 252.229 72.2079 252.202 72.23C252.176 72.2521 252.145 72.2688 252.112 72.279C252.078 72.2893 252.043 72.2929 252.009 72.2896C251.967 72.2896 247.823 71.9093 246.054 73.4108C246.005 73.4522 245.943 73.4745 245.879 73.4739Z" fill="#102A54"/>
<path d="M250.79 75.2965C248.376 75.2965 245.683 75.0265 245.653 75.0226C245.583 75.0155 245.519 74.981 245.475 74.9267C245.43 74.8724 245.409 74.8027 245.416 74.7329C245.423 74.6631 245.458 74.599 245.512 74.5547C245.567 74.5103 245.637 74.4894 245.707 74.4965C247.61 74.6835 249.523 74.7717 251.436 74.7605C251.506 74.7594 251.573 74.7859 251.624 74.8342C251.675 74.8825 251.704 74.9488 251.706 75.0186C251.707 75.0534 251.702 75.088 251.689 75.1204C251.677 75.1529 251.658 75.1825 251.634 75.2076C251.61 75.2328 251.581 75.2529 251.549 75.2668C251.517 75.2807 251.482 75.2881 251.448 75.2886C251.234 75.2945 251.013 75.2965 250.79 75.2965Z" fill="#102A54"/>
<path d="M250.393 78.4609H250.377C250.197 78.4511 245.946 78.2107 244.45 77.6491C244.252 77.5865 244.071 77.4793 243.922 77.3357C243.772 77.1922 243.657 77.0163 243.587 76.8215C243.294 75.9762 243.921 74.9378 243.946 74.8944C243.963 74.8618 243.986 74.833 244.015 74.8098C244.043 74.7866 244.076 74.7695 244.111 74.7596C244.147 74.7496 244.184 74.747 244.22 74.752C244.256 74.7569 244.291 74.7693 244.323 74.7883C244.354 74.8073 244.381 74.8326 244.402 74.8625C244.423 74.8925 244.438 74.9264 244.445 74.9623C244.453 74.9981 244.452 75.0351 244.445 75.0709C244.437 75.1067 244.422 75.1405 244.401 75.1703C244.255 75.4107 243.913 76.1555 244.089 76.6501C244.135 76.7701 244.209 76.8779 244.303 76.9651C244.398 77.0522 244.512 77.1164 244.636 77.1526C246.062 77.6866 250.365 77.9407 250.412 77.9407C250.483 77.9426 250.549 77.9721 250.598 78.023C250.646 78.0738 250.672 78.1417 250.67 78.2117C250.668 78.2817 250.639 78.3481 250.588 78.3964C250.537 78.4446 250.469 78.4707 250.399 78.4688L250.393 78.4609Z" fill="#102A54"/>
<path d="M249.273 80.7941C246.625 80.7941 244.926 80.2897 244.156 79.9941C243.841 79.8794 243.58 79.6547 243.419 79.362C243.258 79.0692 243.209 78.7281 243.281 78.402C243.5 77.464 244.419 77.1606 244.466 77.1488C244.531 77.1334 244.6 77.143 244.658 77.1758C244.717 77.2085 244.761 77.262 244.781 77.3256C244.802 77.3891 244.798 77.4581 244.77 77.5189C244.742 77.5796 244.692 77.6275 244.63 77.6532C244.433 77.7217 244.256 77.8364 244.113 77.9877C243.97 78.1389 243.865 78.3222 243.808 78.5222C243.764 78.7247 243.795 78.9364 243.896 79.1177C243.996 79.299 244.16 79.4375 244.355 79.5074C245.096 79.7911 246.726 80.266 249.282 80.2719C249.319 80.2688 249.356 80.2733 249.391 80.2851C249.426 80.297 249.458 80.316 249.486 80.341C249.513 80.3659 249.535 80.3962 249.549 80.4299C249.564 80.4637 249.572 80.5001 249.572 80.537C249.572 80.5738 249.564 80.6103 249.549 80.644C249.535 80.6778 249.513 80.7081 249.486 80.733C249.458 80.7579 249.426 80.7769 249.391 80.7888C249.356 80.8007 249.319 80.8052 249.282 80.802L249.273 80.7941Z" fill="#102A54"/>
<path d="M245.363 82.4254H245.321C245.051 82.384 242.684 81.986 242.728 80.717C242.728 80.5517 242.764 80.3885 242.832 80.2378C242.9 80.0871 242.999 79.9523 243.123 79.8421C243.455 79.5849 243.871 79.4586 244.29 79.4874C244.326 79.4885 244.361 79.4969 244.393 79.5119C244.426 79.5269 244.455 79.5483 244.479 79.5748C244.503 79.6013 244.521 79.6324 244.532 79.6661C244.544 79.6998 244.549 79.7355 244.546 79.7711C244.543 79.8066 244.533 79.8412 244.517 79.8729C244.5 79.9045 244.478 79.9325 244.45 79.9552C244.423 79.9778 244.391 79.9947 244.356 80.0047C244.322 80.0147 244.286 80.0177 244.251 80.0135C243.974 79.9977 243.7 80.077 243.474 80.2382C243.409 80.3027 243.357 80.3802 243.323 80.4657C243.289 80.5512 243.273 80.6428 243.277 80.7347C243.253 81.4145 244.857 81.8165 245.42 81.9032C245.488 81.9112 245.55 81.945 245.593 81.9975C245.637 82.0501 245.658 82.1173 245.653 82.1851C245.648 82.253 245.617 82.3163 245.566 82.3618C245.515 82.4073 245.449 82.4315 245.381 82.4293L245.363 82.4254Z" fill="#102A54"/>
<path d="M74.1028 113.974C74.1028 113.974 75.3177 121.117 74.1028 122.091C72.8878 123.064 66.9908 127.659 65.8272 127.241C64.6636 126.824 60.4675 123.206 60.4675 121.813C60.4675 120.42 67.5558 111.133 67.5558 111.133L74.1028 113.974Z" fill="#FFC0B1"/>
<path d="M68.595 126.347C68.5383 126.347 68.4831 126.329 68.437 126.296C68.4087 126.275 68.3848 126.249 68.3666 126.22C68.3484 126.19 68.3363 126.157 68.331 126.123C68.3257 126.088 68.3272 126.053 68.3356 126.019C68.3439 125.985 68.3589 125.953 68.3797 125.925L71.6551 121.462C71.6965 121.406 71.7588 121.368 71.8283 121.357C71.8977 121.346 71.9687 121.363 72.0255 121.404C72.0824 121.445 72.1205 121.508 72.1314 121.577C72.1423 121.646 72.1252 121.717 72.0838 121.774L68.8084 126.239C68.7839 126.272 68.7519 126.3 68.7148 126.319C68.6777 126.337 68.6366 126.347 68.595 126.347Z" fill="#102A54"/>
<path d="M61.5482 123.655C61.499 123.655 61.4508 123.642 61.4089 123.616C61.3669 123.591 61.333 123.554 61.3109 123.51C61.2887 123.466 61.2792 123.417 61.2835 123.368C61.2877 123.319 61.3055 123.273 61.3348 123.233L62.1369 122.146C62.1808 122.096 62.242 122.064 62.3084 122.056C62.3748 122.049 62.4416 122.067 62.4954 122.106C62.5493 122.145 62.5864 122.204 62.5994 122.269C62.6124 122.334 62.6003 122.402 62.5656 122.459L61.7615 123.547C61.7371 123.58 61.7051 123.608 61.668 123.627C61.6309 123.645 61.5898 123.655 61.5482 123.655Z" fill="#102A54"/>
<path d="M62.8402 125.045C62.784 125.045 62.7292 125.027 62.6841 124.993C62.6559 124.973 62.632 124.947 62.6138 124.917C62.5956 124.888 62.5835 124.855 62.5782 124.82C62.5728 124.786 62.5744 124.751 62.5828 124.717C62.5911 124.683 62.6061 124.651 62.6269 124.623L63.4309 123.537C63.4515 123.509 63.4775 123.486 63.5072 123.468C63.537 123.45 63.5701 123.438 63.6044 123.433C63.6388 123.427 63.6739 123.429 63.7077 123.437C63.7415 123.446 63.7733 123.461 63.8013 123.481C63.8293 123.502 63.853 123.528 63.871 123.557C63.889 123.587 63.901 123.62 63.9062 123.654C63.9114 123.689 63.9098 123.724 63.9015 123.757C63.8932 123.791 63.8782 123.823 63.8576 123.851L63.0555 124.938C63.0303 124.971 62.9977 124.998 62.9604 125.017C62.923 125.035 62.8819 125.045 62.8402 125.045Z" fill="#102A54"/>
<path d="M64.4147 126.424C64.3585 126.424 64.3037 126.406 64.2586 126.372C64.2304 126.352 64.2064 126.326 64.1883 126.296C64.1701 126.267 64.158 126.233 64.1526 126.199C64.1473 126.165 64.1489 126.129 64.1572 126.096C64.1656 126.062 64.1806 126.03 64.2013 126.002L65.0054 124.916C65.026 124.888 65.0519 124.865 65.0817 124.847C65.1115 124.829 65.1445 124.817 65.1789 124.812C65.2133 124.806 65.2484 124.808 65.2822 124.816C65.316 124.825 65.3478 124.839 65.3758 124.86C65.4038 124.881 65.4275 124.906 65.4455 124.936C65.4635 124.966 65.4754 124.999 65.4806 125.033C65.4859 125.067 65.4843 125.102 65.4759 125.136C65.4676 125.17 65.4527 125.202 65.4321 125.229L64.63 126.317C64.6051 126.351 64.5726 126.378 64.5351 126.396C64.4977 126.415 64.4564 126.424 64.4147 126.424Z" fill="#102A54"/>
<path d="M118.667 172.276C119.724 173.809 119.623 175.945 118.252 177.203C100.293 193.743 69.7368 261.637 95.9721 261.599C132.508 261.548 135.791 262.34 172.607 261.491C201.472 260.823 171.017 191.041 153.747 177.226C152.888 176.542 152.313 175.564 152.135 174.481C151.956 173.399 152.187 172.289 152.781 171.366C157.05 164.741 165.523 150.948 163.154 149.265C160.023 147.041 151.426 152.627 145.614 151.744C139.802 150.861 139.126 147.518 131.757 151.987C124.388 156.456 111.14 148.637 107.458 150.099C104.54 151.242 114.408 166.107 118.667 172.276Z" fill="#F9DEC1"/>
<path d="M118.112 166.818C120.783 169.049 124.078 170.7 127.561 170.788C130.372 170.859 133.217 169.921 135.959 170.546C137.935 170.995 139.669 172.221 141.665 172.542C144.282 172.966 146.856 171.782 149.466 171.317C152.076 170.852 155.393 171.553 156.183 174.075C156.88 176.268 155.136 178.619 153 179.49C150.865 180.361 148.468 180.176 146.163 180.109C143.857 180.042 141.388 180.164 139.517 181.514C137.439 183.013 136.416 185.821 134.059 186.834C133.496 187.108 132.852 187.17 132.247 187.007C130.686 186.501 130.499 184.339 129.335 183.187C128.172 182.034 126.243 182.119 124.791 182.83C123.339 183.541 122.194 184.753 120.937 185.786C118.327 187.93 115.157 189.287 111.8 189.695C111.308 189.754 110.781 189.784 110.342 189.553C109.714 189.222 109.455 188.46 109.366 187.756C108.786 183.248 112.677 179.216 112.673 174.67C112.673 170.901 110.042 167.728 108.363 164.351C107.847 163.313 107.328 161.998 107.77 160.844C108.114 159.955 108.987 159.23 109.969 159.301C112.168 159.46 113.655 162.256 114.947 163.713C115.923 164.825 116.981 165.863 118.112 166.818Z" fill="#DFC2A1"/>
<path d="M125.185 161.811C125.692 162.648 126.354 163.584 127.336 163.636C128.023 163.673 128.646 163.242 129.167 162.794C131.236 161.005 132.682 158.542 134.92 156.966C135.956 156.245 137.124 155.737 138.358 155.47C139.593 155.204 140.867 155.184 142.109 155.413C145.325 156.024 148.538 158.29 151.592 157.092C152.382 156.784 153.101 156.252 153.943 156.215C155.288 156.154 156.377 157.433 156.639 158.749C156.902 160.065 156.57 161.419 156.353 162.743C156.136 164.067 156.051 165.513 156.748 166.668C160.416 161.584 163.352 156.013 165.47 150.116C165.778 149.257 166.063 148.343 165.865 147.45C165.409 145.503 162.941 144.875 160.926 144.93C157.838 145.019 154.802 145.842 151.979 147.098C148.921 148.477 145.732 150.406 142.465 149.659C140.867 149.295 139.482 148.317 137.947 147.738C134.887 146.583 131.366 147.115 128.454 148.601C126.056 149.825 123.515 151.878 120.659 151.109C120.22 150.991 119.801 150.824 119.594 151.346C119.43 151.756 119.594 152.331 119.738 152.713C120.301 154.156 121.392 155.527 122.196 156.851L125.185 161.811Z" fill="#DFC2A1"/>
<path d="M139.993 266.883C139.993 266.883 140.556 216.954 146.744 210.501C152.931 204.048 171.134 191.147 171.134 191.147C171.134 191.147 187.513 226.095 187.833 239.896C188.153 253.697 184.672 268.005 184.672 268.005L139.993 266.883Z" fill="#DFC2A1"/>
<path d="M118.843 174.178C118.533 174.182 118.234 174.063 118.011 173.848C117.789 173.632 117.661 173.337 117.657 173.028C117.652 172.718 117.771 172.42 117.987 172.198C118.204 171.976 118.499 171.849 118.809 171.845L152.447 170.859C152.603 170.85 152.76 170.873 152.907 170.925C153.054 170.977 153.19 171.058 153.305 171.164C153.42 171.269 153.513 171.396 153.578 171.538C153.643 171.68 153.679 171.834 153.684 171.989C153.689 172.145 153.662 172.301 153.605 172.446C153.549 172.591 153.463 172.724 153.355 172.836C153.246 172.948 153.115 173.037 152.971 173.098C152.827 173.159 152.673 173.19 152.516 173.19L118.879 174.176L118.843 174.178Z" fill="#102A54"/>
<path d="M118.847 177.508C118.545 177.5 118.257 177.377 118.044 177.162C117.831 176.948 117.71 176.66 117.706 176.358C117.701 176.057 117.814 175.765 118.021 175.545C118.227 175.325 118.511 175.193 118.813 175.177L152.453 174.191C152.609 174.182 152.766 174.205 152.913 174.257C153.06 174.309 153.196 174.39 153.311 174.496C153.426 174.601 153.519 174.728 153.584 174.87C153.649 175.012 153.685 175.166 153.69 175.321C153.695 175.477 153.668 175.633 153.611 175.778C153.555 175.924 153.469 176.056 153.36 176.168C153.252 176.28 153.121 176.369 152.977 176.43C152.833 176.491 152.679 176.522 152.522 176.522L118.883 177.508H118.847Z" fill="#102A54"/>
<path d="M207.94 247.575H106.211L113.823 233.266H200.206L207.94 247.575Z" fill="#FFB841"/>
<path d="M113.823 233.266H128.144L133.567 247.575H106.211" fill="#FCA714"/>
<path d="M193.772 261.885H92.0427L99.6545 247.575H186.037L193.772 261.885Z" fill="#FFB841"/>
<path d="M99.6545 247.575H113.975L119.396 261.885H92.0427" fill="#FCA714"/>
<path d="M222.549 261.885H120.821L128.432 247.575H214.815L222.549 261.885Z" fill="#FFB841"/>
<path d="M128.432 247.575H142.753L148.174 261.885H120.821" fill="#FCA714"/>
<path d="M249.903 261.885H148.174L155.786 247.575H242.168L249.903 261.885Z" fill="#FFB841"/>
<path d="M155.786 247.575H170.106L175.527 261.885H148.174" fill="#FCA714"/>
<path d="M237.982 247.575H136.254L143.865 233.266H230.246L237.982 247.575Z" fill="#FFB841"/>
<path d="M143.865 233.266H158.184L163.607 247.575H136.254" fill="#FCA714"/>
<path d="M226.392 233.266H124.663L132.275 218.957H218.658L226.392 233.266Z" fill="#FFB841"/>
<path d="M132.275 218.957H146.595L152.018 233.266H124.663" fill="#FCA714"/>
<path d="M226.394 232.781H152.018V233.749H226.394V232.781Z" fill="#FCA714"/>
<path d="M239.581 247.091H165.205V248.058H239.581V247.091Z" fill="#FCA714"/>
<path d="M97.5348 224.078H50.827C49.9334 224.078 49.209 224.8 49.209 225.691V230.024C49.209 230.916 49.9334 231.638 50.827 231.638H97.5348C98.4284 231.638 99.1528 230.916 99.1528 230.024V225.691C99.1528 224.8 98.4284 224.078 97.5348 224.078Z" fill="#FFB841"/>
<path d="M54.0352 224.078H52.2098V231.638H54.0352V224.078Z" fill="#FCA714"/>
<path d="M57.8757 224.078H56.0503V231.638H57.8757V224.078Z" fill="#FCA714"/>
<path d="M61.7162 224.078H59.8907V231.638H61.7162V224.078Z" fill="#FCA714"/>
<path d="M65.5586 224.078H63.7332V231.638H65.5586V224.078Z" fill="#FCA714"/>
<path d="M69.399 224.078H67.5736V231.638H69.399V224.078Z" fill="#FCA714"/>
<path d="M73.2395 224.078H71.4141V231.638H73.2395V224.078Z" fill="#FCA714"/>
<path d="M77.0799 224.078H75.2545V231.638H77.0799V224.078Z" fill="#FCA714"/>
<path d="M80.9204 224.078H79.095V231.638H80.9204V224.078Z" fill="#FCA714"/>
<path d="M84.7608 224.078H82.9354V231.638H84.7608V224.078Z" fill="#FCA714"/>
<path d="M88.6014 224.078H86.776V231.638H88.6014V224.078Z" fill="#FCA714"/>
<path d="M92.4419 224.078H90.6165V231.638H92.4419V224.078Z" fill="#FCA714"/>
<path d="M96.2823 224.078H94.4569V231.638H96.2823V224.078Z" fill="#FCA714"/>
<path d="M103.329 216.517H56.6211C55.7276 216.517 55.0032 217.24 55.0032 218.131V222.464C55.0032 223.355 55.7276 224.078 56.6211 224.078H103.329C104.223 224.078 104.947 223.355 104.947 222.464V218.131C104.947 217.24 104.223 216.517 103.329 216.517Z" fill="#FFB841"/>
<path d="M59.8315 216.517H58.0061V224.078H59.8315V216.517Z" fill="#FCA714"/>
<path d="M63.672 216.517H61.8466V224.078H63.672V216.517Z" fill="#FCA714"/>
<path d="M67.5124 216.517H65.687V224.078H67.5124V216.517Z" fill="#FCA714"/>
<path d="M71.3529 216.517H69.5275V224.078H71.3529V216.517Z" fill="#FCA714"/>
<path d="M75.1933 216.517H73.3679V224.078H75.1933V216.517Z" fill="#FCA714"/>
<path d="M79.0338 216.517H77.2084V224.078H79.0338V216.517Z" fill="#FCA714"/>
<path d="M82.8742 216.517H81.0488V224.078H82.8742V216.517Z" fill="#FCA714"/>
<path d="M86.7147 216.517H84.8893V224.078H86.7147V216.517Z" fill="#FCA714"/>
<path d="M90.5551 216.517H88.7297V224.078H90.5551V216.517Z" fill="#FCA714"/>
<path d="M94.3956 216.517H92.5702V224.078H94.3956V216.517Z" fill="#FCA714"/>
<path d="M98.2361 216.517H96.4106V224.078H98.2361V216.517Z" fill="#FCA714"/>
<path d="M102.077 216.517H100.251V224.078H102.077V216.517Z" fill="#FCA714"/>
<path d="M101.474 208.954H54.7662C53.8726 208.954 53.1482 209.677 53.1482 210.568V214.901C53.1482 215.792 53.8726 216.515 54.7662 216.515H101.474C102.368 216.515 103.092 215.792 103.092 214.901V210.568C103.092 209.677 102.368 208.954 101.474 208.954Z" fill="#FFB841"/>
<path d="M57.9745 208.954H56.149V216.515H57.9745V208.954Z" fill="#FCA714"/>
<path d="M61.8149 208.954H59.9895V216.515H61.8149V208.954Z" fill="#FCA714"/>
<path d="M65.6554 208.954H63.83V216.515H65.6554V208.954Z" fill="#FCA714"/>
<path d="M69.4958 208.954H67.6704V216.515H69.4958V208.954Z" fill="#FCA714"/>
<path d="M73.3363 208.954H71.5109V216.515H73.3363V208.954Z" fill="#FCA714"/>
<path d="M77.1767 208.954H75.3513V216.515H77.1767V208.954Z" fill="#FCA714"/>
<path d="M81.0193 208.954H79.1938V216.515H81.0193V208.954Z" fill="#FCA714"/>
<path d="M84.8597 208.954H83.0343V216.515H84.8597V208.954Z" fill="#FCA714"/>
<path d="M88.7002 208.954H86.8748V216.515H88.7002V208.954Z" fill="#FCA714"/>
<path d="M92.5406 208.954H90.7152V216.515H92.5406V208.954Z" fill="#FCA714"/>
<path d="M96.3811 208.954H94.5557V216.515H96.3811V208.954Z" fill="#FCA714"/>
<path d="M100.222 208.954H98.3961V216.515H100.222V208.954Z" fill="#FCA714"/>
<path d="M104.593 201.747H57.8856C56.992 201.747 56.2676 202.469 56.2676 203.36V207.693C56.2676 208.585 56.992 209.307 57.8856 209.307H104.593C105.487 209.307 106.211 208.585 106.211 207.693V203.36C106.211 202.469 105.487 201.747 104.593 201.747Z" fill="#FFB841"/>
<path d="M61.0938 201.747H59.2684V209.307H61.0938V201.747Z" fill="#FCA714"/>
<path d="M64.9343 201.747H63.1089V209.307H64.9343V201.747Z" fill="#FCA714"/>
<path d="M68.7767 201.747H66.9513V209.307H68.7767V201.747Z" fill="#FCA714"/>
<path d="M72.6172 201.747H70.7917V209.307H72.6172V201.747Z" fill="#FCA714"/>
<path d="M76.4576 201.747H74.6322V209.307H76.4576V201.747Z" fill="#FCA714"/>
<path d="M80.2982 201.747H78.4728V209.307H80.2982V201.747Z" fill="#FCA714"/>
<path d="M84.1386 201.747H82.3132V209.307H84.1386V201.747Z" fill="#FCA714"/>
<path d="M87.9791 201.747H86.1537V209.307H87.9791V201.747Z" fill="#FCA714"/>
<path d="M91.8195 201.747H89.9941V209.307H91.8195V201.747Z" fill="#FCA714"/>
<path d="M95.66 201.747H93.8346V209.307H95.66V201.747Z" fill="#FCA714"/>
<path d="M99.5005 201.747H97.675V209.307H99.5005V201.747Z" fill="#FCA714"/>
<path d="M103.341 201.747H101.516V209.307H103.341V201.747Z" fill="#FCA714"/>
<path d="M102.387 194.186H55.6789C54.7853 194.186 54.0609 194.908 54.0609 195.799V200.132C54.0609 201.024 54.7853 201.746 55.6789 201.746H102.387C103.28 201.746 104.005 201.024 104.005 200.132V195.799C104.005 194.908 103.28 194.186 102.387 194.186Z" fill="#FFB841"/>
<path d="M58.8872 194.186H57.0618V201.746H58.8872V194.186Z" fill="#FCA714"/>
<path d="M62.7276 194.186H60.9022V201.746H62.7276V194.186Z" fill="#FCA714"/>
<path d="M66.5681 194.186H64.7427V201.746H66.5681V194.186Z" fill="#FCA714"/>
<path d="M70.4085 194.186H68.5831V201.746H70.4085V194.186Z" fill="#FCA714"/>
<path d="M74.249 194.186H72.4236V201.746H74.249V194.186Z" fill="#FCA714"/>
<path d="M78.0894 194.186H76.264V201.746H78.0894V194.186Z" fill="#FCA714"/>
<path d="M81.9299 194.186H80.1045V201.746H81.9299V194.186Z" fill="#FCA714"/>
<path d="M85.7703 194.186H83.9449V201.746H85.7703V194.186Z" fill="#FCA714"/>
<path d="M89.6108 194.186H87.7854V201.746H89.6108V194.186Z" fill="#FCA714"/>
<path d="M93.4513 194.186H91.6259V201.746H93.4513V194.186Z" fill="#FCA714"/>
<path d="M97.2918 194.186H95.4664V201.746H97.2918V194.186Z" fill="#FCA714"/>
<path d="M101.134 194.186H99.3088V201.746H101.134V194.186Z" fill="#FCA714"/>
<path d="M100.431 231.639H53.7231C52.8295 231.639 52.1051 232.361 52.1051 233.252V237.586C52.1051 238.477 52.8295 239.199 53.7231 239.199H100.431C101.325 239.199 102.049 238.477 102.049 237.586V233.252C102.049 232.361 101.325 231.639 100.431 231.639Z" fill="#FFB841"/>
<path d="M56.9333 231.639H55.1079V239.199H56.9333V231.639Z" fill="#FCA714"/>
<path d="M60.7738 231.639H58.9484V239.199H60.7738V231.639Z" fill="#FCA714"/>
<path d="M64.6142 231.639H62.7888V239.199H64.6142V231.639Z" fill="#FCA714"/>
<path d="M68.4547 231.639H66.6293V239.199H68.4547V231.639Z" fill="#FCA714"/>
<path d="M72.2951 231.639H70.4697V239.199H72.2951V231.639Z" fill="#FCA714"/>
<path d="M76.1356 231.639H74.3102V239.199H76.1356V231.639Z" fill="#FCA714"/>
<path d="M79.9762 231.639H78.1508V239.199H79.9762V231.639Z" fill="#FCA714"/>
<path d="M83.8166 231.639H81.9912V239.199H83.8166V231.639Z" fill="#FCA714"/>
<path d="M87.6571 231.639H85.8317V239.199H87.6571V231.639Z" fill="#FCA714"/>
<path d="M91.4975 231.639H89.6721V239.199H91.4975V231.639Z" fill="#FCA714"/>
<path d="M95.338 231.639H93.5126V239.199H95.338V231.639Z" fill="#FCA714"/>
<path d="M99.1784 231.639H97.353V239.199H99.1784V231.639Z" fill="#FCA714"/>
<path d="M99.6802 239.201H52.9723C52.0788 239.201 51.3544 239.924 51.3544 240.815V245.148C51.3544 246.039 52.0788 246.762 52.9723 246.762H99.6802C100.574 246.762 101.298 246.039 101.298 245.148V240.815C101.298 239.924 100.574 239.201 99.6802 239.201Z" fill="#FFB841"/>
<path d="M56.1806 239.201H54.3552V246.762H56.1806V239.201Z" fill="#FCA714"/>
<path d="M60.0211 239.201H58.1957V246.762H60.0211V239.201Z" fill="#FCA714"/>
<path d="M63.8615 239.201H62.0361V246.762H63.8615V239.201Z" fill="#FCA714"/>
<path d="M67.7041 239.201H65.8787V246.762H67.7041V239.201Z" fill="#FCA714"/>
<path d="M71.5445 239.201H69.7191V246.762H71.5445V239.201Z" fill="#FCA714"/>
<path d="M75.385 239.201H73.5596V246.762H75.385V239.201Z" fill="#FCA714"/>
<path d="M79.2254 239.201H77.4V246.762H79.2254V239.201Z" fill="#FCA714"/>
<path d="M83.0659 239.201H81.2405V246.762H83.0659V239.201Z" fill="#FCA714"/>
<path d="M86.9063 239.201H85.0809V246.762H86.9063V239.201Z" fill="#FCA714"/>
<path d="M90.7468 239.201H88.9214V246.762H90.7468V239.201Z" fill="#FCA714"/>
<path d="M94.5872 239.201H92.7618V246.762H94.5872V239.201Z" fill="#FCA714"/>
<path d="M98.4277 239.201H96.6023V246.762H98.4277V239.201Z" fill="#FCA714"/>
<path d="M98.6074 246.762H51.8996C51.006 246.762 50.2816 247.484 50.2816 248.376V252.709C50.2816 253.6 51.006 254.322 51.8996 254.322H98.6074C99.501 254.322 100.225 253.6 100.225 252.709V248.376C100.225 247.484 99.501 246.762 98.6074 246.762Z" fill="#FFB841"/>
<path d="M55.1079 246.762H53.2825V254.322H55.1079V246.762Z" fill="#FCA714"/>
<path d="M58.9483 246.762H57.1229V254.322H58.9483V246.762Z" fill="#FCA714"/>
<path d="M62.7889 246.762H60.9635V254.322H62.7889V246.762Z" fill="#FCA714"/>
<path d="M66.6313 246.762H64.8059V254.322H66.6313V246.762Z" fill="#FCA714"/>
<path d="M70.4718 246.762H68.6464V254.322H70.4718V246.762Z" fill="#FCA714"/>
<path d="M74.3122 246.762H72.4868V254.322H74.3122V246.762Z" fill="#FCA714"/>
<path d="M78.1527 246.762H76.3273V254.322H78.1527V246.762Z" fill="#FCA714"/>
<path d="M81.9931 246.762H80.1677V254.322H81.9931V246.762Z" fill="#FCA714"/>
<path d="M85.8336 246.762H84.0082V254.322H85.8336V246.762Z" fill="#FCA714"/>
<path d="M89.674 246.762H87.8486V254.322H89.674V246.762Z" fill="#FCA714"/>
<path d="M93.5145 246.762H91.6891V254.322H93.5145V246.762Z" fill="#FCA714"/>
<path d="M97.3549 246.762H95.5295V254.322H97.3549V246.762Z" fill="#FCA714"/>
<path d="M100.593 254.324H53.8851C52.9915 254.324 52.2671 255.047 52.2671 255.938V260.271C52.2671 261.162 52.9915 261.885 53.8851 261.885H100.593C101.486 261.885 102.211 261.162 102.211 260.271V255.938C102.211 255.047 101.486 254.324 100.593 254.324Z" fill="#FFB841"/>
<path d="M57.0933 254.324H55.2679V261.885H57.0933V254.324Z" fill="#FCA714"/>
<path d="M60.9338 254.324H59.1084V261.885H60.9338V254.324Z" fill="#FCA714"/>
<path d="M64.7743 254.324H62.9489V261.885H64.7743V254.324Z" fill="#FCA714"/>
<path d="M68.6147 254.324H66.7893V261.885H68.6147V254.324Z" fill="#FCA714"/>
<path d="M72.4552 254.324H70.6298V261.885H72.4552V254.324Z" fill="#FCA714"/>
<path d="M76.2956 254.324H74.4702V261.885H76.2956V254.324Z" fill="#FCA714"/>
<path d="M80.1361 254.324H78.3107V261.885H80.1361V254.324Z" fill="#FCA714"/>
<path d="M83.9766 254.324H82.1512V261.885H83.9766V254.324Z" fill="#FCA714"/>
<path d="M87.8191 254.324H85.9937V261.885H87.8191V254.324Z" fill="#FCA714"/>
<path d="M91.6595 254.324H89.8341V261.885H91.6595V254.324Z" fill="#FCA714"/>
<path d="M95.5 254.324H93.6746V261.885H95.5V254.324Z" fill="#FCA714"/>
<path d="M99.3404 254.324H97.515V261.885H99.3404V254.324Z" fill="#FCA714"/>
<path d="M102.136 179.717H55.4279C54.5343 179.717 53.8099 180.439 53.8099 181.331V185.664C53.8099 186.555 54.5343 187.277 55.4279 187.277H102.136C103.029 187.277 103.754 186.555 103.754 185.664V181.331C103.754 180.439 103.029 179.717 102.136 179.717Z" fill="#FFB841"/>
<path d="M58.6383 179.717H56.8129V187.277H58.6383V179.717Z" fill="#FCA714"/>
<path d="M62.4787 179.717H60.6533V187.277H62.4787V179.717Z" fill="#FCA714"/>
<path d="M66.3192 179.717H64.4938V187.277H66.3192V179.717Z" fill="#FCA714"/>
<path d="M70.1596 179.717H68.3342V187.277H70.1596V179.717Z" fill="#FCA714"/>
<path d="M74.0001 179.717H72.1747V187.277H74.0001V179.717Z" fill="#FCA714"/>
<path d="M77.8405 179.717H76.0151V187.277H77.8405V179.717Z" fill="#FCA714"/>
<path d="M81.681 179.717H79.8556V187.277H81.681V179.717Z" fill="#FCA714"/>
<path d="M85.5214 179.717H83.696V187.277H85.5214V179.717Z" fill="#FCA714"/>
<path d="M89.3619 179.717H87.5365V187.277H89.3619V179.717Z" fill="#FCA714"/>
<path d="M93.2024 179.717H91.377V187.277H93.2024V179.717Z" fill="#FCA714"/>
<path d="M97.0428 179.717H95.2174V187.277H97.0428V179.717Z" fill="#FCA714"/>
<path d="M100.883 179.717H99.0579V187.277H100.883V179.717Z" fill="#FCA714"/>
<path d="M104.121 187.277H57.4134C56.5198 187.277 55.7954 188 55.7954 188.891V193.224C55.7954 194.115 56.5198 194.838 57.4134 194.838H104.121C105.015 194.838 105.739 194.115 105.739 193.224V188.891C105.739 188 105.015 187.277 104.121 187.277Z" fill="#FFB841"/>
<path d="M60.6236 187.277H58.7982V194.838H60.6236V187.277Z" fill="#FCA714"/>
<path d="M64.4641 187.277H62.6387V194.838H64.4641V187.277Z" fill="#FCA714"/>
<path d="M68.3045 187.277H66.4791V194.838H68.3045V187.277Z" fill="#FCA714"/>
<path d="M72.1451 187.277H70.3197V194.838H72.1451V187.277Z" fill="#FCA714"/>
<path d="M75.9854 187.277H74.16V194.838H75.9854V187.277Z" fill="#FCA714"/>
<path d="M79.826 187.277H78.0006V194.838H79.826V187.277Z" fill="#FCA714"/>
<path d="M83.6665 187.277H81.8411V194.838H83.6665V187.277Z" fill="#FCA714"/>
<path d="M87.5069 187.277H85.6815V194.838H87.5069V187.277Z" fill="#FCA714"/>
<path d="M91.3474 187.277H89.522V194.838H91.3474V187.277Z" fill="#FCA714"/>
<path d="M95.1878 187.277H93.3624V194.838H95.1878V187.277Z" fill="#FCA714"/>
<path d="M99.0283 187.277H97.2029V194.838H99.0283V187.277Z" fill="#FCA714"/>
<path d="M102.869 187.277H101.043V194.838H102.869V187.277Z" fill="#FCA714"/>
<path d="M99.3384 253.914H53.9246V254.734H99.3384V253.914Z" fill="#FCA714"/>
<path d="M99.6406 246.352H53.2825V247.171H99.6406V246.352Z" fill="#FCA714"/>
<path d="M100.393 238.791H53.7645V239.611H100.393V238.791Z" fill="#FCA714"/>
<path d="M97.355 231.229H53.7645V232.048H97.355V231.229Z" fill="#FCA714"/>
<path d="M97.4953 223.668H56.0503V224.488H97.4953V223.668Z" fill="#FCA714"/>
<path d="M102.075 216.107H56.6608V216.927H102.075V216.107Z" fill="#FCA714"/>
<path d="M101.513 208.545H57.1229V209.365H101.513V208.545Z" fill="#FCA714"/>
<path d="M102.347 201.337H57.925V202.157H102.347V201.337Z" fill="#FCA714"/>
<path d="M102.867 194.43H57.4529V195.25H102.867V194.43Z" fill="#FCA714"/>
<path d="M102.098 186.868H56.8129V187.687H102.098V186.868Z" fill="#FCA714"/>
<path opacity="0.7" d="M53.8179 209.309H66.0663C67.4086 209.31 68.711 209.765 69.761 210.599C70.8111 211.433 71.5469 212.598 71.8487 213.902L82.8723 261.877H49.288L53.8179 209.309Z" fill="#FCA714"/>
<path d="M57.9014 239.201H11.1935C10.3 239.201 9.57556 239.924 9.57556 240.815V245.148C9.57556 246.039 10.3 246.762 11.1935 246.762H57.9014C58.795 246.762 59.5194 246.039 59.5194 245.148V240.815C59.5194 239.924 58.795 239.201 57.9014 239.201Z" fill="#FFB841"/>
<path d="M14.4018 239.201H12.5764V246.762H14.4018V239.201Z" fill="#FCA714"/>
<path d="M18.2423 239.201H16.4169V246.762H18.2423V239.201Z" fill="#FCA714"/>
<path d="M22.0827 239.201H20.2573V246.762H22.0827V239.201Z" fill="#FCA714"/>
<path d="M25.9232 239.201H24.0978V246.762H25.9232V239.201Z" fill="#FCA714"/>
<path d="M29.7656 239.201H27.9402V246.762H29.7656V239.201Z" fill="#FCA714"/>
<path d="M33.606 239.201H31.7806V246.762H33.606V239.201Z" fill="#FCA714"/>
<path d="M37.4465 239.201H35.6211V246.762H37.4465V239.201Z" fill="#FCA714"/>
<path d="M41.287 239.201H39.4615V246.762H41.287V239.201Z" fill="#FCA714"/>
<path d="M45.1275 239.201H43.3021V246.762H45.1275V239.201Z" fill="#FCA714"/>
<path d="M48.968 239.201H47.1426V246.762H48.968V239.201Z" fill="#FCA714"/>
<path d="M52.8084 239.201H50.983V246.762H52.8084V239.201Z" fill="#FCA714"/>
<path d="M56.6489 239.201H54.8235V246.762H56.6489V239.201Z" fill="#FCA714"/>
<path d="M63.6956 231.639H16.9877C16.0941 231.639 15.3698 232.361 15.3698 233.252V237.586C15.3698 238.477 16.0941 239.199 16.9877 239.199H63.6956C64.5892 239.199 65.3135 238.477 65.3135 237.586V233.252C65.3135 232.361 64.5892 231.639 63.6956 231.639Z" fill="#FFB841"/>
<path d="M20.196 231.639H18.3706V239.199H20.196V231.639Z" fill="#FCA714"/>
<path d="M24.0385 231.639H22.2131V239.199H24.0385V231.639Z" fill="#FCA714"/>
<path d="M27.879 231.639H26.0536V239.199H27.879V231.639Z" fill="#FCA714"/>
<path d="M31.7194 231.639H29.894V239.199H31.7194V231.639Z" fill="#FCA714"/>
<path d="M35.5599 231.639H33.7345V239.199H35.5599V231.639Z" fill="#FCA714"/>
<path d="M39.4004 231.639H37.575V239.199H39.4004V231.639Z" fill="#FCA714"/>
<path d="M43.2408 231.639H41.4154V239.199H43.2408V231.639Z" fill="#FCA714"/>
<path d="M47.0813 231.639H45.2559V239.199H47.0813V231.639Z" fill="#FCA714"/>
<path d="M50.9217 231.639H49.0963V239.199H50.9217V231.639Z" fill="#FCA714"/>
<path d="M54.7622 231.639H52.9368V239.199H54.7622V231.639Z" fill="#FCA714"/>
<path d="M58.6026 231.639H56.7772V239.199H58.6026V231.639Z" fill="#FCA714"/>
<path d="M62.4431 231.639H60.6177V239.199H62.4431V231.639Z" fill="#FCA714"/>
<path d="M61.8406 224.078H15.1327C14.2392 224.078 13.5148 224.8 13.5148 225.691V230.024C13.5148 230.916 14.2392 231.638 15.1327 231.638H61.8406C62.7342 231.638 63.4586 230.916 63.4586 230.024V225.691C63.4586 224.8 62.7342 224.078 61.8406 224.078Z" fill="#FFB841"/>
<path d="M18.341 224.078H16.5156V231.638H18.341V224.078Z" fill="#FCA714"/>
<path d="M22.1815 224.078H20.3561V231.638H22.1815V224.078Z" fill="#FCA714"/>
<path d="M26.0219 224.078H24.1965V231.638H26.0219V224.078Z" fill="#FCA714"/>
<path d="M29.8624 224.078H28.037V231.638H29.8624V224.078Z" fill="#FCA714"/>
<path d="M33.7028 224.078H31.8774V231.638H33.7028V224.078Z" fill="#FCA714"/>
<path d="M37.5433 224.078H35.7179V231.638H37.5433V224.078Z" fill="#FCA714"/>
<path d="M41.3838 224.078H39.5583V231.638H41.3838V224.078Z" fill="#FCA714"/>
<path d="M45.2263 224.078H43.4009V231.638H45.2263V224.078Z" fill="#FCA714"/>
<path d="M49.0667 224.078H47.2413V231.638H49.0667V224.078Z" fill="#FCA714"/>
<path d="M52.9072 224.078H51.0818V231.638H52.9072V224.078Z" fill="#FCA714"/>
<path d="M56.7476 224.078H54.9222V231.638H56.7476V224.078Z" fill="#FCA714"/>
<path d="M60.5881 224.078H58.7627V231.638H60.5881V224.078Z" fill="#FCA714"/>
<path d="M64.96 216.87H18.2521C17.3585 216.87 16.6342 217.593 16.6342 218.484V222.817C16.6342 223.708 17.3585 224.431 18.2521 224.431H64.96C65.8536 224.431 66.578 223.708 66.578 222.817V218.484C66.578 217.593 65.8536 216.87 64.96 216.87Z" fill="#FFB841"/>
<path d="M21.4604 216.87H19.635V224.431H21.4604V216.87Z" fill="#FCA714"/>
<path d="M25.3009 216.87H23.4755V224.431H25.3009V216.87Z" fill="#FCA714"/>
<path d="M29.1413 216.87H27.3159V224.431H29.1413V216.87Z" fill="#FCA714"/>
<path d="M32.9837 216.87H31.1583V224.431H32.9837V216.87Z" fill="#FCA714"/>
<path d="M36.8243 216.87H34.9989V224.431H36.8243V216.87Z" fill="#FCA714"/>
<path d="M40.6648 216.87H38.8394V224.431H40.6648V216.87Z" fill="#FCA714"/>
<path d="M44.5052 216.87H42.6798V224.431H44.5052V216.87Z" fill="#FCA714"/>
<path d="M48.3457 216.87H46.5203V224.431H48.3457V216.87Z" fill="#FCA714"/>
<path d="M52.1861 216.87H50.3607V224.431H52.1861V216.87Z" fill="#FCA714"/>
<path d="M56.0266 216.87H54.2012V224.431H56.0266V216.87Z" fill="#FCA714"/>
<path d="M59.867 216.87H58.0416V224.431H59.867V216.87Z" fill="#FCA714"/>
<path d="M63.7075 216.87H61.8821V224.431H63.7075V216.87Z" fill="#FCA714"/>
<path d="M62.7533 209.307H16.0455C15.1519 209.307 14.4275 210.03 14.4275 210.921V215.254C14.4275 216.145 15.1519 216.868 16.0455 216.868H62.7533C63.6469 216.868 64.3713 216.145 64.3713 215.254V210.921C64.3713 210.03 63.6469 209.307 62.7533 209.307Z" fill="#FFB841"/>
<path d="M19.2537 209.307H17.4283V216.868H19.2537V209.307Z" fill="#FCA714"/>
<path d="M23.0942 209.307H21.2688V216.868H23.0942V209.307Z" fill="#FCA714"/>
<path d="M26.9347 209.307H25.1093V216.868H26.9347V209.307Z" fill="#FCA714"/>
<path d="M30.7751 209.307H28.9497V216.868H30.7751V209.307Z" fill="#FCA714"/>
<path d="M34.6156 209.307H32.7902V216.868H34.6156V209.307Z" fill="#FCA714"/>
<path d="M38.456 209.307H36.6306V216.868H38.456V209.307Z" fill="#FCA714"/>
<path d="M42.2965 209.307H40.4711V216.868H42.2965V209.307Z" fill="#FCA714"/>
<path d="M46.1369 209.307H44.3115V216.868H46.1369V209.307Z" fill="#FCA714"/>
<path d="M49.9774 209.307H48.152V216.868H49.9774V209.307Z" fill="#FCA714"/>
<path d="M53.8178 209.307H51.9924V216.868H53.8178V209.307Z" fill="#FCA714"/>
<path d="M57.6584 209.307H55.833V216.868H57.6584V209.307Z" fill="#FCA714"/>
<path d="M61.4989 209.307H59.6735V216.868H61.4989V209.307Z" fill="#FCA714"/>
<path d="M60.7975 246.762H14.0897C13.1961 246.762 12.4717 247.484 12.4717 248.376V252.709C12.4717 253.6 13.1961 254.322 14.0897 254.322H60.7975C61.6911 254.322 62.4155 253.6 62.4155 252.709V248.376C62.4155 247.484 61.6911 246.762 60.7975 246.762Z" fill="#FFB841"/>
<path d="M17.2999 246.762H15.4745V254.322H17.2999V246.762Z" fill="#FCA714"/>
<path d="M21.1403 246.762H19.3149V254.322H21.1403V246.762Z" fill="#FCA714"/>
<path d="M24.9808 246.762H23.1554V254.322H24.9808V246.762Z" fill="#FCA714"/>
<path d="M28.8213 246.762H26.9958V254.322H28.8213V246.762Z" fill="#FCA714"/>
<path d="M32.6617 246.762H30.8363V254.322H32.6617V246.762Z" fill="#FCA714"/>
<path d="M36.5023 246.762H34.6769V254.322H36.5023V246.762Z" fill="#FCA714"/>
<path d="M40.3427 246.762H38.5173V254.322H40.3427V246.762Z" fill="#FCA714"/>
<path d="M44.1832 246.762H42.3578V254.322H44.1832V246.762Z" fill="#FCA714"/>
<path d="M48.0236 246.762H46.1982V254.322H48.0236V246.762Z" fill="#FCA714"/>
<path d="M51.8641 246.762H50.0387V254.322H51.8641V246.762Z" fill="#FCA714"/>
<path d="M55.7046 246.762H53.8792V254.322H55.7046V246.762Z" fill="#FCA714"/>
<path d="M59.545 246.762H57.7196V254.322H59.545V246.762Z" fill="#FCA714"/>
<path d="M60.0468 254.324H13.3389C12.4453 254.324 11.7209 255.047 11.7209 255.938V260.271C11.7209 261.162 12.4453 261.885 13.3389 261.885H60.0468C60.9404 261.885 61.6647 261.162 61.6647 260.271V255.938C61.6647 255.047 60.9404 254.324 60.0468 254.324Z" fill="#FFB841"/>
<path d="M16.5472 254.324H14.7218V261.885H16.5472V254.324Z" fill="#FCA714"/>
<path d="M20.3877 254.324H18.5623V261.885H20.3877V254.324Z" fill="#FCA714"/>
<path d="M24.2281 254.324H22.4027V261.885H24.2281V254.324Z" fill="#FCA714"/>
<path d="M28.0686 254.324H26.2432V261.885H28.0686V254.324Z" fill="#FCA714"/>
<path d="M31.9111 254.324H30.0857V261.885H31.9111V254.324Z" fill="#FCA714"/>
<path d="M35.7516 254.324H33.9261V261.885H35.7516V254.324Z" fill="#FCA714"/>
<path d="M39.592 254.324H37.7666V261.885H39.592V254.324Z" fill="#FCA714"/>
<path d="M43.4325 254.324H41.6071V261.885H43.4325V254.324Z" fill="#FCA714"/>
<path d="M47.2729 254.324H45.4475V261.885H47.2729V254.324Z" fill="#FCA714"/>
<path d="M51.1134 254.324H49.288V261.885H51.1134V254.324Z" fill="#FCA714"/>
<path d="M54.9538 254.324H53.1284V261.885H54.9538V254.324Z" fill="#FCA714"/>
<path d="M58.7943 254.324H56.9689V261.885H58.7943V254.324Z" fill="#FCA714"/>
<path d="M60.0072 253.914H13.3784V254.734H60.0072V253.914Z" fill="#FCA714"/>
<path d="M57.8618 246.352H14.1311V247.171H57.8618V246.352Z" fill="#FCA714"/>
<path d="M57.8619 238.791H16.4169V239.611H57.8619V238.791Z" fill="#FCA714"/>
<path d="M62.4412 231.229H17.0273V232.048H62.4412V231.229Z" fill="#FCA714"/>
<path d="M61.8011 223.668H17.4283V224.488H61.8011V223.668Z" fill="#FCA714"/>
<path d="M62.7138 216.46H17.4283V217.28H62.7138V216.46Z" fill="#FCA714"/>
<path opacity="0.7" d="M189.204 218.956C189.204 218.956 191.109 257.55 222.549 261.885H248.684L211.939 218.361L189.204 218.956Z" fill="#FCA714"/>
<path d="M245.023 261.885C270.419 261.885 291.006 241.351 291.006 216.021C291.006 190.69 270.419 170.156 245.023 170.156C219.627 170.156 199.04 190.69 199.04 216.021C199.04 241.351 219.627 261.885 245.023 261.885Z" fill="#FCA714"/>
<path d="M245.023 252.129C265.017 252.129 281.225 235.963 281.225 216.021C281.225 196.079 265.017 179.912 245.023 179.912C225.029 179.912 208.821 196.079 208.821 216.021C208.821 235.963 225.029 252.129 245.023 252.129Z" fill="#FFB841"/>
<path d="M260.035 211.971H256.169C255.924 213.473 255.296 214.886 254.346 216.076C253.47 217.157 252.414 218.08 251.224 218.803C250.101 219.485 248.882 219.996 247.607 220.318C246.545 220.606 245.448 220.746 244.347 220.732L244.292 220.951C245.03 221.577 245.794 222.275 246.584 223.045C247.374 223.815 248.139 224.623 248.877 225.469L256.384 233.898V234.505H246.548L238.705 225.359L234.673 221.558L236.275 215.496C237.366 215.795 238.486 215.971 239.616 216.021C240.73 216.08 241.847 215.978 242.931 215.717C243.94 215.48 244.889 215.039 245.72 214.422C246.547 213.793 247.179 212.943 247.544 211.971H235.224V206.296H247.433C246.965 205.28 246.153 204.46 245.14 203.981C244.086 203.469 242.677 203.212 240.914 203.211H235.224V197.536H262.685L260.033 203.211H253.018V203.431C253.536 203.709 254.004 204.072 254.401 204.505C254.895 205.026 255.288 205.633 255.561 206.296H262.686L260.035 211.971Z" fill="#FCA714"/>
</svg>
