<svg width="74" height="74" viewBox="0 0 74 74" fill="none" xmlns="http://www.w3.org/2000/svg">
<path d="M21.5832 58.5833C24.9889 58.5833 27.7498 55.8224 27.7498 52.4167C27.7498 49.0109 24.9889 46.25 21.5832 46.25C18.1774 46.25 15.4165 49.0109 15.4165 52.4167C15.4165 55.8224 18.1774 58.5833 21.5832 58.5833Z" stroke="black" stroke-width="3" stroke-linecap="round" stroke-linejoin="round"/>
<path d="M52.4167 58.5833C55.8224 58.5833 58.5833 55.8224 58.5833 52.4167C58.5833 49.0109 55.8224 46.25 52.4167 46.25C49.0109 46.25 46.25 49.0109 46.25 52.4167C46.25 55.8224 49.0109 58.5833 52.4167 58.5833Z" stroke="black" stroke-width="3" stroke-linecap="round" stroke-linejoin="round"/>
<path d="M37 33.9167V18.5M15.4167 52.4167H9.25V33.9167L15.4167 18.5H43.1667L55.5 33.9167H58.5833C60.2188 33.9167 61.7873 34.5664 62.9438 35.7228C64.1003 36.8793 64.75 38.4478 64.75 40.0833V52.4167H58.5833H15.4167ZM46.25 52.4167H27.75H46.25ZM9.25 33.9167H55.5H9.25Z" stroke="black" stroke-width="3" stroke-linecap="round" stroke-linejoin="round"/>
</svg>
