<svg width="76" height="76" viewBox="0 0 76 76" fill="none" xmlns="http://www.w3.org/2000/svg">
<circle cx="38" cy="38" r="38" fill="#6129DD"/>
<path d="M41.7442 34.3246C41.7442 32.2873 40.092 30.6357 38.0538 30.6357C36.0156 30.6357 34.3633 32.2873 34.3633 34.3246V40.2703C34.3633 42.3076 36.0156 43.9591 38.0538 43.9591C40.092 43.9591 41.7442 42.3076 41.7442 40.2703V34.3246Z" fill="#222222"/>
<path d="M38.7265 26.5156H37.3809V33.7474H38.7265V26.5156Z" fill="#222222"/>
<path d="M39.9272 25.5122C39.9272 25.9536 39.7713 26.381 39.4869 26.7188C39.2025 27.0565 38.8079 27.2831 38.3727 27.3585C37.9375 27.4338 37.4897 27.3532 37.1081 27.1307C36.7266 26.9082 36.436 26.5583 36.2874 26.1425C36.1389 25.7267 36.142 25.2719 36.2962 24.8582C36.4504 24.4445 36.7458 24.0985 37.1303 23.8812C37.5148 23.664 37.9637 23.5894 38.3978 23.6707C38.8319 23.752 39.2234 23.9839 39.5032 24.3255C39.7773 24.6603 39.9271 25.0795 39.9272 25.5122Z" fill="#EEEEEE"/>
<path d="M39.9274 25.5134C39.927 25.868 39.826 26.2151 39.6361 26.5146C39.4462 26.814 39.1752 27.0535 38.8546 27.2051C38.534 27.3568 38.1769 27.4144 37.8249 27.3712C37.4728 27.3281 37.1402 27.186 36.8657 26.9615C36.5736 26.6016 36.4252 26.1463 36.4493 25.6835C36.4734 25.2206 36.6683 24.7832 36.9962 24.4556C37.3242 24.128 37.762 23.9335 38.2251 23.9097C38.6881 23.8859 39.1435 24.0345 39.5034 24.3268C39.778 24.6613 39.9279 25.0807 39.9274 25.5134Z" fill="white"/>
<path d="M24.1564 41.2115C23.3473 43.1975 22.9324 45.3219 22.9349 47.4663V52.6576C22.5116 52.5037 22.1459 52.2234 21.8874 51.8546C21.629 51.4858 21.4903 51.0465 21.4902 50.5962V43.3528C21.4903 42.8645 21.6533 42.3902 21.9534 42.005C22.2536 41.6198 22.6738 41.3457 23.1474 41.2262C23.4781 41.1434 23.8235 41.1384 24.1564 41.2115Z" fill="#222222"/>
<path d="M54.1744 43.3528V50.5966C54.1743 51.1782 53.9431 51.7359 53.5317 52.1471C53.1202 52.5583 52.5622 52.7893 51.9804 52.7893C51.9389 52.7893 51.8978 52.7893 51.8572 52.7861C51.9762 52.4337 52.0841 52.0756 52.1808 51.7119C53.0975 48.231 52.8612 44.5469 51.5073 41.2115C51.8402 41.1384 52.1854 41.1434 52.516 41.2262C52.9898 41.3455 53.4102 41.6195 53.7106 42.0047C54.011 42.39 54.1742 42.8643 54.1744 43.3528Z" fill="#222222"/>
<path d="M52.9802 47.4213C52.9817 48.9728 52.7433 50.5152 52.2732 51.9938C52.2455 52.0831 52.2165 52.1723 52.1871 52.2584C51.9602 52.9276 51.6862 53.5799 51.3672 54.2105C48.8827 59.1226 43.7872 62.4907 37.9045 62.4907H22.8311V47.4213C22.8291 45.4717 23.2066 43.5403 23.9424 41.7348C24.1387 41.2528 24.3602 40.7815 24.606 40.3228C25.5662 38.5293 26.879 36.9481 28.4656 35.6742C30.0522 34.4003 31.88 33.4599 33.8391 32.9094C34.1381 32.8247 34.4407 32.7503 34.7469 32.6864C35.6134 32.5014 36.4946 32.3937 37.3801 32.3643C37.5546 32.3581 37.73 32.3545 37.9054 32.3545C38.1812 32.3545 38.4534 32.3625 38.7252 32.3768C42.5768 32.5827 46.2024 34.2579 48.8547 37.0571C51.507 39.8562 52.9836 43.5659 52.9802 47.4213Z" fill="white"/>
<path d="M52.0916 49.3644C52.0937 51.0067 51.8501 52.6401 51.369 54.2105C48.8844 59.1225 43.789 62.4906 37.9063 62.4906H22.8311V47.4216C22.8291 45.472 23.2066 43.5407 23.9424 41.7351C24.1387 41.2532 24.3602 40.7819 24.606 40.3232C25.5662 38.5296 26.879 36.9485 28.4656 35.6746C30.0522 34.4006 31.88 33.4602 33.8391 32.9098C34.2107 32.8714 34.5861 32.8458 34.9651 32.8331C35.1566 32.8259 35.3485 32.8232 35.5427 32.8232C35.8444 32.8232 36.1444 32.8313 36.4429 32.8473C37.4303 32.9003 38.411 33.0413 39.3733 33.2689C44.0376 34.3735 47.9383 37.452 50.1439 41.5723C51.4279 43.9688 52.0971 46.6463 52.0916 49.3649V49.3644Z" fill="white"/>
<path d="M49.8913 47.7129C49.8922 48.669 49.7841 49.622 49.5691 50.5537C49.499 50.8644 49.3435 51.1493 49.12 51.3763C48.8965 51.6034 48.614 51.7634 48.3043 51.8385C47.9893 51.9131 47.6667 51.9508 47.3429 51.9509H28.3474C27.8665 51.9512 27.3892 51.8684 26.9366 51.706C26.6008 51.5817 26.3116 51.357 26.1082 51.0624C25.9049 50.7678 25.7974 50.4177 25.8004 50.0598V47.7129C25.7979 46.1219 26.0992 44.5452 26.6881 43.0671C26.7178 42.9892 26.7498 42.9116 26.784 42.8342L26.7947 42.8075C27.0625 42.1749 27.6726 41.7556 28.3478 41.7582C34.5822 40.1874 41.1091 40.1874 47.3434 41.7582H47.3523C48.024 41.7582 48.6287 42.1776 48.8974 42.8075L48.9081 42.8342C48.9412 42.9116 48.9731 42.9892 49.0041 43.0671C49.5928 44.5452 49.8939 46.122 49.8913 47.7129Z" fill="#E5E5E5"/>
<path d="M49.8913 47.7129C49.8922 48.669 49.7841 49.6221 49.5691 50.5537C49.499 50.8644 49.3435 51.1494 49.12 51.3764C48.8965 51.6034 48.614 51.7635 48.3043 51.8385C47.9893 51.9132 47.6667 51.9509 47.3429 51.9509H28.3474C27.8665 51.9513 27.3892 51.8684 26.9366 51.706C26.6008 51.5818 26.3116 51.3571 26.1082 51.0625C25.9049 50.7679 25.7974 50.4178 25.8004 50.0599V47.7129C25.7979 46.122 26.0992 44.5452 26.6881 43.0672C26.7178 42.9893 26.7498 42.9116 26.784 42.8343H26.8126C34.0132 41.2636 41.6798 41.2636 48.8805 42.8343H48.909C48.942 42.9116 48.974 42.9893 49.005 43.0672C49.5934 44.5453 49.8942 46.1221 49.8913 47.7129Z" fill="#6129DD"/>
<path d="M41.8672 46.7523C41.8672 47.0805 41.9646 47.4014 42.147 47.6743C42.3294 47.9472 42.5887 48.1599 42.8921 48.2855C43.1955 48.4111 43.5293 48.4439 43.8513 48.3799C44.1734 48.3159 44.4692 48.1578 44.7014 47.9257C44.9336 47.6937 45.0917 47.398 45.1558 47.076C45.2198 46.7541 45.187 46.4205 45.0613 46.1172C44.9356 45.814 44.7228 45.5548 44.4498 45.3725C44.1768 45.1901 43.8558 45.0928 43.5274 45.0928C43.0871 45.0928 42.6648 45.2676 42.3535 45.5788C42.0421 45.8901 41.8672 46.3122 41.8672 46.7523Z" fill="#02F3F9"/>
<path d="M40.3301 46.752C40.3301 47.3842 40.5176 48.0022 40.869 48.5278C41.2204 49.0535 41.7198 49.4631 42.3041 49.7051C42.8884 49.947 43.5314 50.0103 44.1517 49.887C44.772 49.7636 45.3418 49.4592 45.789 49.0122C46.2362 48.5652 46.5407 47.9956 46.6641 47.3756C46.7875 46.7556 46.7242 46.1129 46.4822 45.5288C46.2401 44.9448 45.8303 44.4456 45.3044 44.0943C44.7785 43.7431 44.1603 43.5557 43.5278 43.5557C42.6797 43.5557 41.8664 43.8924 41.2667 44.4919C40.667 45.0913 40.3301 45.9043 40.3301 46.752ZM41.05 46.752C41.0499 46.2621 41.1951 45.7832 41.4673 45.3759C41.7396 44.9685 42.1265 44.651 42.5793 44.4635C43.032 44.2759 43.5303 44.2268 44.011 44.3223C44.4917 44.4178 44.9332 44.6537 45.2798 45.0001C45.6264 45.3464 45.8624 45.7878 45.958 46.2682C46.0537 46.7487 46.0046 47.2467 45.8171 47.6993C45.6296 48.1519 45.312 48.5387 44.9045 48.8109C44.497 49.0831 44.0179 49.2284 43.5278 49.2284C42.8707 49.2284 42.2406 48.9675 41.7759 48.5031C41.3112 48.0387 41.0501 47.4088 41.05 46.752Z" fill="#6129DD"/>
<path d="M41.8672 46.7523C41.8672 47.0805 41.9646 47.4014 42.147 47.6743C42.3294 47.9472 42.5887 48.1599 42.8921 48.2855C43.1955 48.4111 43.5293 48.4439 43.8513 48.3799C44.1734 48.3159 44.4692 48.1578 44.7014 47.9257C44.9336 47.6937 45.0917 47.398 45.1558 47.076C45.2198 46.7541 45.187 46.4205 45.0613 46.1172C44.9356 45.814 44.7228 45.5548 44.4498 45.3725C44.1768 45.1901 43.8558 45.0928 43.5274 45.0928C43.0871 45.0928 42.6648 45.2676 42.3535 45.5788C42.0421 45.8901 41.8672 46.3122 41.8672 46.7523Z" fill="#181718"/>
<path d="M41.8672 46.7523C41.8672 47.0805 41.9646 47.4014 42.147 47.6743C42.3294 47.9472 42.5887 48.1599 42.8921 48.2855C43.1955 48.4111 43.5293 48.4439 43.8513 48.3799C44.1734 48.3159 44.4692 48.1578 44.7014 47.9257C44.9336 47.6937 45.0917 47.398 45.1558 47.076C45.2198 46.7541 45.187 46.4205 45.0613 46.1172C44.9356 45.814 44.7228 45.5548 44.4498 45.3725C44.1768 45.1901 43.8558 45.0928 43.5274 45.0928C43.0871 45.0928 42.6648 45.2676 42.3535 45.5788C42.0421 45.8901 41.8672 46.3122 41.8672 46.7523Z" fill="#222222"/>
<path d="M44.0451 46.4362C44.417 46.4362 44.7185 46.1348 44.7185 45.763C44.7185 45.3912 44.417 45.0898 44.0451 45.0898C43.6731 45.0898 43.3716 45.3912 43.3716 45.763C43.3716 46.1348 43.6731 46.4362 44.0451 46.4362Z" fill="white"/>
<path d="M30.5015 46.7523C30.5015 47.0805 30.5988 47.4014 30.7813 47.6743C30.9637 47.9472 31.223 48.1599 31.5264 48.2855C31.8297 48.4111 32.1636 48.4439 32.4856 48.3799C32.8077 48.3159 33.1035 48.1578 33.3357 47.9257C33.5679 47.6937 33.726 47.398 33.7901 47.076C33.8541 46.7541 33.8212 46.4205 33.6956 46.1172C33.5699 45.814 33.3571 45.5548 33.0841 45.3725C32.8111 45.1901 32.4901 45.0928 32.1617 45.0928C31.7214 45.0928 31.2991 45.2676 30.9877 45.5788C30.6764 45.8901 30.5015 46.3122 30.5015 46.7523Z" fill="#02F3F9"/>
<path d="M28.9644 46.752C28.9643 47.3843 29.1518 48.0024 29.5032 48.5282C29.8546 49.054 30.354 49.4638 30.9385 49.7058C31.5229 49.9478 32.166 50.0112 32.7864 49.8878C33.4068 49.7645 33.9767 49.46 34.424 49.0129C34.8713 48.5658 35.1759 47.9962 35.2993 47.376C35.4227 46.7559 35.3593 46.113 35.1172 45.5289C34.8751 44.9447 34.4651 44.4455 33.9391 44.0942C33.4131 43.743 32.7947 43.5556 32.1621 43.5557C31.314 43.5557 30.5007 43.8924 29.901 44.4919C29.3013 45.0913 28.9644 45.9043 28.9644 46.752ZM29.6842 46.752C29.6841 46.262 29.8293 45.783 30.1015 45.3754C30.3737 44.9679 30.7608 44.6503 31.2136 44.4627C31.6665 44.2751 32.1649 44.2259 32.6457 44.3214C33.1265 44.4169 33.5682 44.6528 33.9148 44.9993C34.2615 45.3458 34.4976 45.7872 34.5932 46.2678C34.6889 46.7484 34.6398 47.2465 34.4522 47.6992C34.2646 48.1519 33.9468 48.5388 33.5392 48.811C33.1316 49.0832 32.6523 49.2284 32.1621 49.2283C31.8367 49.2285 31.5144 49.1645 31.2137 49.0401C30.913 48.9157 30.6398 48.7333 30.4096 48.5034C30.1794 48.2734 29.9968 48.0004 29.8722 47.6999C29.7476 47.3994 29.6834 47.0773 29.6833 46.752H29.6842Z" fill="#6129DD"/>
<path d="M30.5015 46.7523C30.5015 47.0805 30.5988 47.4014 30.7813 47.6743C30.9637 47.9472 31.223 48.1599 31.5264 48.2855C31.8297 48.4111 32.1636 48.4439 32.4856 48.3799C32.8077 48.3159 33.1035 48.1578 33.3357 47.9257C33.5679 47.6937 33.726 47.398 33.7901 47.076C33.8541 46.7541 33.8212 46.4205 33.6956 46.1172C33.5699 45.814 33.3571 45.5548 33.0841 45.3725C32.8111 45.1901 32.4901 45.0928 32.1617 45.0928C31.7214 45.0928 31.2991 45.2676 30.9877 45.5788C30.6764 45.8901 30.5015 46.3122 30.5015 46.7523Z" fill="#181718"/>
<path d="M30.5015 46.7523C30.5015 47.0805 30.5988 47.4014 30.7813 47.6743C30.9637 47.9472 31.223 48.1599 31.5264 48.2855C31.8297 48.4111 32.1636 48.4439 32.4856 48.3799C32.8077 48.3159 33.1035 48.1578 33.3357 47.9257C33.5679 47.6937 33.726 47.398 33.7901 47.076C33.8541 46.7541 33.8212 46.4205 33.6956 46.1172C33.5699 45.814 33.3571 45.5548 33.0841 45.3725C32.8111 45.1901 32.4901 45.0928 32.1617 45.0928C31.7214 45.0928 31.2991 45.2676 30.9877 45.5788C30.6764 45.8901 30.5015 46.3122 30.5015 46.7523Z" fill="#222222"/>
<path d="M32.6798 46.4362C33.0518 46.4362 33.3533 46.1348 33.3533 45.763C33.3533 45.3912 33.0518 45.0898 32.6798 45.0898C32.3079 45.0898 32.0063 45.3912 32.0063 45.763C32.0063 46.1348 32.3079 46.4362 32.6798 46.4362Z" fill="white"/>
<path d="M34.0049 55.3037C34.0303 56.7424 35.7392 57.9036 37.8453 57.9036C39.951 57.9036 41.6603 56.7437 41.6835 55.3037H34.0049Z" fill="#6129DD"/>
<path d="M37.5977 13.291H36.3926V19.8382H37.5977V13.291Z" fill="#EDEEF2"/>
<path d="M36.9951 14.0783C37.922 14.0783 38.6733 13.3192 38.6733 12.3829C38.6733 11.4465 37.922 10.6875 36.9951 10.6875C36.0683 10.6875 35.3169 11.4465 35.3169 12.3829C35.3169 13.3192 36.0683 14.0783 36.9951 14.0783Z" fill="#EDEEF2"/>
<path d="M40.3002 20.3611C40.3002 18.5167 38.8202 17.0215 36.9946 17.0215C35.1689 17.0215 33.689 18.5167 33.689 20.3611V25.7438C33.689 27.5882 35.1689 29.0834 36.9946 29.0834C38.8202 29.0834 40.3002 27.5882 40.3002 25.7438V20.3611Z" fill="#EDEEF2"/>
<path d="M22.4579 49.0068H32.8403V44.4654H22.4579V49.0068Z" fill="#C4C7D0"/>
<path d="M45.3745 39.9199H29.5522V43.2025H45.3745V39.9199Z" fill="#C4C7D0"/>
<path d="M52.4688 44.4658H42.0864V49.0072H52.4688V44.4658Z" fill="#C4C7D0"/>
<path d="M51.3087 51.3525V53.3969C51.3087 60.1803 45.8652 65.6795 39.1506 65.6795H35.7777C29.0631 65.6795 23.6191 60.1803 23.6191 53.3969V51.3525C25.0354 53.1217 26.8256 54.5482 28.8586 55.5274C30.8916 56.5066 33.1158 57.0137 35.368 57.0115H39.5612C41.8133 57.0136 44.0372 56.5065 46.07 55.5273C48.1027 54.5481 49.8927 53.1216 51.3087 51.3525Z" fill="#DDE0E5"/>
<path d="M51.3087 44.9965V51.3535C49.8927 53.1226 48.1027 54.549 46.07 55.5282C44.0372 56.5074 41.8133 57.0146 39.5612 57.0124H35.368C33.1158 57.0146 30.8916 56.5075 28.8586 55.5283C26.8256 54.5491 25.0354 53.1226 23.6191 51.3535V44.9965C23.6187 44.5453 23.7063 44.0984 23.877 43.6814C24.0477 43.2644 24.2981 42.8856 24.614 42.5665C24.9298 42.2475 25.3048 41.9945 25.7176 41.822C26.1303 41.6496 26.5727 41.561 27.0193 41.5615H47.9086C48.7196 41.5615 49.504 41.8542 50.1202 42.387C50.7364 42.9198 51.1439 43.6574 51.2691 44.467C51.2955 44.6422 51.3087 44.8192 51.3087 44.9965Z" fill="#EDEEF2"/>
<path d="M53.3939 60.6132C52.4208 60.6132 51.6318 59.7512 51.6318 58.6876V43.9679C51.6318 43.5447 51.9454 43.2021 52.3319 43.2021C54.4217 43.2021 56.0694 45.1425 55.9181 47.4203L55.1514 58.8285C55.0835 59.8345 54.3169 60.6132 53.3939 60.6132Z" fill="#C4C7D0"/>
<path d="M21.5343 60.6132C22.5074 60.6132 23.2963 59.7512 23.2963 58.6876V43.9679C23.2963 43.5447 22.9828 43.2021 22.5958 43.2021C20.506 43.2021 18.8583 45.1425 19.0096 47.4203L19.7767 58.8285C19.8442 59.8345 20.6108 60.6132 21.5343 60.6132Z" fill="#C4C7D0"/>
<path d="M53.3378 34.0913C53.1125 34.0913 52.8964 34.0009 52.7371 33.84C52.5777 33.679 52.4882 33.4607 52.4882 33.2331V27.6248C52.4882 27.3971 52.5777 27.1788 52.7371 27.0179C52.8964 26.8569 53.1125 26.7665 53.3378 26.7665C53.6936 26.7665 54.0348 26.9093 54.2863 27.1634C54.5379 27.4175 54.6792 27.7622 54.6792 28.1216V32.7367C54.6792 33.0961 54.5379 33.4408 54.2863 33.6949C54.0348 33.949 53.6936 34.0918 53.3378 34.0918V34.0913Z" fill="#C4C7D0"/>
<path d="M53.3218 32.2012H53.9106V19.0802H53.3218V32.2012Z" fill="#C4C7D0"/>
<path d="M53.6161 19.7208C54.2032 19.7208 54.679 19.24 54.679 18.647C54.679 18.054 54.2032 17.5732 53.6161 17.5732C53.0291 17.5732 52.5532 18.054 52.5532 18.647C52.5532 19.24 53.0291 19.7208 53.6161 19.7208Z" fill="#C4C7D0"/>
<path d="M20.6524 34.0919C20.2967 34.0919 19.9555 33.9491 19.7039 33.695C19.4524 33.4409 19.311 33.0962 19.311 32.7368V28.1212C19.311 27.9433 19.3457 27.7671 19.4132 27.6027C19.4806 27.4384 19.5794 27.289 19.7039 27.1632C19.8285 27.0374 19.9764 26.9376 20.1391 26.8696C20.3019 26.8015 20.4763 26.7665 20.6524 26.7666C20.8777 26.7666 21.0938 26.857 21.2532 27.018C21.4125 27.1789 21.502 27.3973 21.502 27.6249V33.2332C21.502 33.4608 21.4125 33.6792 21.2532 33.8402C21.0939 34.0013 20.8778 34.0918 20.6524 34.0919Z" fill="#C4C7D0"/>
<path d="M20.6685 19.0801H20.0796V32.2011H20.6685V19.0801Z" fill="#C4C7D0"/>
<path d="M20.3739 19.7208C20.961 19.7208 21.4368 19.24 21.4368 18.647C21.4368 18.054 20.961 17.5732 20.3739 17.5732C19.7869 17.5732 19.311 18.054 19.311 18.647C19.311 19.24 19.7869 19.7208 20.3739 19.7208Z" fill="#C4C7D0"/>
<path d="M53.1302 34.5107V35.1683C53.13 36.6105 52.5628 37.9937 51.5533 39.0135C50.5437 40.0333 49.1745 40.6062 47.7468 40.6062H26.2437C24.816 40.6062 23.4468 40.0333 22.4372 39.0135C21.4277 37.9937 20.8605 36.6105 20.8604 35.1683V34.5107C21.6336 35.0224 22.5381 35.2945 23.4624 35.2935H50.5281C51.4524 35.2945 52.3569 35.0224 53.1302 34.5107Z" fill="#DDE0E5"/>
<path d="M53.1302 29.2513V34.5088C52.3569 35.0204 51.4524 35.2925 50.5281 35.2915H23.4624C22.5381 35.2925 21.6336 35.0204 20.8604 34.5088V29.2513C20.8598 27.1538 21.4276 25.0962 22.5022 23.3015C23.5769 21.5068 25.1173 20.0435 26.9565 19.0703C29.7646 20.0884 33.2364 20.6911 36.9953 20.6911C40.7541 20.6911 44.2259 20.0884 47.034 19.0703C48.8732 20.0435 50.4137 21.5068 51.4883 23.3015C52.5629 25.0962 53.1307 27.1538 53.1302 29.2513Z" fill="#EDEEF2"/>
<path d="M48.9819 28.7934C47.9949 28.0538 46.7982 27.6555 45.5694 27.6574H28.4217C27.1926 27.6556 25.9957 28.0539 25.0083 28.7934C25.3941 27.6458 26.1259 26.6491 27.1011 25.9432C28.0762 25.2373 29.2457 24.8576 30.4454 24.8574H43.5448C44.7444 24.8576 45.9139 25.2373 46.8891 25.9432C47.8642 26.6491 48.5961 27.6458 48.9819 28.7934Z" fill="#373B46"/>
<path d="M49.2849 30.6562C49.2848 31.5134 48.9476 32.3356 48.3476 32.9418C47.7476 33.548 46.9339 33.8887 46.0853 33.889H27.9057C27.0571 33.8886 26.2434 33.5479 25.6434 32.9417C25.0435 32.3355 24.7063 31.5134 24.7061 30.6562C24.7056 30.0227 24.8077 29.3934 25.0082 28.7932C25.9956 28.0537 27.1926 27.6554 28.4216 27.6572H45.5693C46.7981 27.6553 47.9948 28.0536 48.9818 28.7932C49.1827 29.3933 49.2851 30.0226 49.2849 30.6562Z" fill="#18171D"/>
<path d="M32.8535 36.4082C32.8809 37.9765 34.7223 39.2418 36.9948 39.2418C39.2656 39.2418 41.1088 37.9765 41.1361 36.4082H32.8535Z" fill="#18171D"/>
<path d="M41.1362 29.374C41.1362 29.6537 41.2183 29.9271 41.3721 30.1596C41.5259 30.3922 41.7445 30.5734 42.0003 30.6804C42.2561 30.7874 42.5375 30.8154 42.809 30.7609C43.0805 30.7063 43.33 30.5716 43.5257 30.3739C43.7215 30.1761 43.8548 29.9242 43.9088 29.6499C43.9628 29.3756 43.9351 29.0913 43.8291 28.8329C43.7232 28.5745 43.5438 28.3536 43.3136 28.1983C43.0834 28.0429 42.8128 27.96 42.536 27.96C42.1647 27.96 41.8087 28.1089 41.5462 28.3741C41.2837 28.6393 41.1362 28.999 41.1362 29.374Z" fill="#02F3F9"/>
<path d="M39.8403 29.374C39.8403 29.9126 39.9985 30.4392 40.2947 30.8871C40.591 31.335 41.0121 31.6841 41.5047 31.8902C41.9974 32.0964 42.5395 32.1503 43.0624 32.0452C43.5854 31.94 44.0658 31.6806 44.4428 31.2996C44.8199 30.9187 45.0766 30.4334 45.1806 29.905C45.2845 29.3767 45.2311 28.829 45.027 28.3314C44.8228 27.8337 44.4772 27.4084 44.0338 27.1092C43.5904 26.81 43.0691 26.6503 42.5359 26.6504C42.1818 26.6504 41.8313 26.7208 41.5042 26.8577C41.1772 26.9946 40.88 27.1952 40.6297 27.4481C40.3794 27.701 40.1808 28.0013 40.0454 28.3317C39.9099 28.6622 39.8403 29.0163 39.8403 29.374ZM40.447 29.374C40.4468 28.9565 40.5692 28.5485 40.7986 28.2013C41.028 27.8542 41.3542 27.5835 41.7359 27.4237C42.1175 27.2638 42.5376 27.2219 42.9428 27.3032C43.3481 27.3845 43.7204 27.5855 44.0126 27.8805C44.3048 28.1756 44.5039 28.5516 44.5845 28.961C44.6652 29.3704 44.6239 29.7947 44.4658 30.1804C44.3077 30.566 44.04 30.8957 43.6965 31.1276C43.3529 31.3595 42.949 31.4833 42.5359 31.4833C41.982 31.4833 41.4508 31.2611 41.0591 30.8655C40.6674 30.47 40.4472 29.9335 40.447 29.374Z" fill="#FEE127"/>
<path d="M41.1362 29.374C41.1362 29.6537 41.2183 29.9271 41.3721 30.1596C41.5259 30.3922 41.7445 30.5734 42.0003 30.6804C42.2561 30.7874 42.5375 30.8154 42.809 30.7609C43.0805 30.7063 43.33 30.5716 43.5257 30.3739C43.7215 30.1761 43.8548 29.9242 43.9088 29.6499C43.9628 29.3756 43.9351 29.0913 43.8291 28.8329C43.7232 28.5745 43.5438 28.3536 43.3136 28.1983C43.0834 28.0429 42.8128 27.96 42.536 27.96C42.1647 27.96 41.8087 28.1089 41.5462 28.3741C41.2837 28.6393 41.1362 28.999 41.1362 29.374Z" fill="#181718"/>
<path d="M41.1362 29.374C41.1362 29.6537 41.2183 29.9271 41.3721 30.1596C41.5259 30.3922 41.7445 30.5734 42.0003 30.6804C42.2561 30.7874 42.5375 30.8154 42.809 30.7609C43.0805 30.7063 43.33 30.5716 43.5257 30.3739C43.7215 30.1761 43.8548 29.9242 43.9088 29.6499C43.9628 29.3756 43.9351 29.0913 43.8291 28.8329C43.7232 28.5745 43.5438 28.3536 43.3136 28.1983C43.0834 28.0429 42.8128 27.96 42.536 27.96C42.1647 27.96 41.8087 28.1089 41.5462 28.3741C41.2837 28.6393 41.1362 28.999 41.1362 29.374Z" fill="#373B46"/>
<path d="M43.4967 28.7538C43.6167 28.4611 43.4791 28.1254 43.1893 28.0042C42.8995 27.8829 42.5673 28.0219 42.4473 28.3147C42.3273 28.6074 42.4649 28.943 42.7547 29.0643C43.0444 29.1855 43.3766 29.0465 43.4967 28.7538Z" fill="white"/>
<path d="M30.0542 29.374C30.0543 29.6535 30.1364 29.9268 30.2902 30.1592C30.444 30.3916 30.6625 30.5727 30.9182 30.6796C31.1739 30.7866 31.4552 30.8145 31.7266 30.76C31.998 30.7054 32.2472 30.5708 32.4429 30.3731C32.6386 30.1754 32.7718 29.9236 32.8258 29.6494C32.8798 29.3753 32.8522 29.0911 32.7463 28.8328C32.6405 28.5745 32.4612 28.3537 32.2312 28.1984C32.0011 28.043 31.7306 27.9601 31.4539 27.96C31.0827 27.96 30.7267 28.1089 30.4642 28.3741C30.2017 28.6393 30.0542 28.999 30.0542 29.374Z" fill="#02F3F9"/>
<path d="M28.7578 29.374C28.7578 29.9126 28.9159 30.4392 29.2122 30.8871C29.5084 31.335 29.9295 31.6841 30.4221 31.8902C30.9147 32.0963 31.4568 32.1503 31.9798 32.0452C32.5027 31.9401 32.9831 31.6807 33.3601 31.2998C33.7372 30.9189 33.994 30.4336 34.098 29.9053C34.202 29.377 34.1486 28.8294 33.9446 28.3317C33.7405 27.834 33.395 27.4087 32.9516 27.1094C32.5083 26.8101 31.987 26.6504 31.4538 26.6504C30.7388 26.6504 30.053 26.9373 29.5474 27.4481C29.0419 27.9589 28.7578 28.6516 28.7578 29.374ZM29.3649 29.374C29.3647 28.9565 29.4871 28.5485 29.7165 28.2013C29.9459 27.8542 30.2721 27.5835 30.6538 27.4237C31.0355 27.2638 31.4555 27.2219 31.8608 27.3032C32.266 27.3845 32.6383 27.5855 32.9305 27.8805C33.2228 28.1756 33.4218 28.5516 33.5025 28.961C33.5831 29.3704 33.5418 29.7947 33.3838 30.1804C33.2257 30.566 32.9579 30.8957 32.6144 31.1276C32.2709 31.3595 31.867 31.4833 31.4538 31.4833C30.9002 31.4829 30.3695 31.2605 29.9781 30.865C29.5868 30.4695 29.3669 29.9332 29.3667 29.374H29.3649Z" fill="#FEE127"/>
<path d="M30.0542 29.374C30.0543 29.6535 30.1364 29.9268 30.2902 30.1592C30.444 30.3916 30.6625 30.5727 30.9182 30.6796C31.1739 30.7866 31.4552 30.8145 31.7266 30.76C31.998 30.7054 32.2472 30.5708 32.4429 30.3731C32.6386 30.1754 32.7718 29.9236 32.8258 29.6494C32.8798 29.3753 32.8522 29.0911 32.7463 28.8328C32.6405 28.5745 32.4612 28.3537 32.2312 28.1984C32.0011 28.043 31.7306 27.9601 31.4539 27.96C31.0827 27.96 30.7267 28.1089 30.4642 28.3741C30.2017 28.6393 30.0542 28.999 30.0542 29.374Z" fill="#181718"/>
<path d="M30.0542 29.374C30.0543 29.6535 30.1364 29.9268 30.2902 30.1592C30.444 30.3916 30.6625 30.5727 30.9182 30.6796C31.1739 30.7866 31.4552 30.8145 31.7266 30.76C31.998 30.7054 32.2472 30.5708 32.4429 30.3731C32.6386 30.1754 32.7718 29.9236 32.8258 29.6494C32.8798 29.3753 32.8522 29.0911 32.7463 28.8328C32.6405 28.5745 32.4612 28.3537 32.2312 28.1984C32.0011 28.043 31.7306 27.9601 31.4539 27.96C31.0827 27.96 30.7267 28.1089 30.4642 28.3741C30.2017 28.6393 30.0542 28.999 30.0542 29.374Z" fill="#373B46"/>
<path d="M32.4146 28.7528C32.5347 28.4601 32.3971 28.1245 32.1073 28.0032C31.8175 27.882 31.4853 28.021 31.3653 28.3137C31.2453 28.6064 31.3829 28.942 31.6726 29.0633C31.9624 29.1846 32.2946 29.0455 32.4146 28.7528Z" fill="white"/>
<path d="M47.034 19.0711C44.2259 20.0892 40.7542 20.6919 36.9953 20.6919C33.2364 20.6919 29.7647 20.0892 26.9565 19.0711C28.5855 18.2066 30.3986 17.7564 32.2387 17.7598H41.756C43.5947 17.7571 45.4063 18.2072 47.034 19.0711Z" fill="#DDE0E5"/>
</svg>
