<svg width="12" height="12" viewBox="0 0 12 12" fill="none" xmlns="http://www.w3.org/2000/svg">
<path d="M6 0C9.312 0 12 2.688 12 6C12 9.312 9.312 12 6 12C2.688 12 0 9.312 0 6C0 2.688 2.688 0 6 0ZM6 1.2C3.348 1.2 1.2 3.348 1.2 6C1.2 8.652 3.348 10.8 6 10.8C8.652 10.8 10.8 8.652 10.8 6C10.8 3.348 8.652 1.2 6 1.2ZM6 3C6.87689 3 7.66596 3.37645 8.21465 3.97682C8.4381 4.2213 8.34249 4.59507 8.05852 4.76555C7.77462 4.93599 7.41059 4.83297 7.15678 4.6203C7.07044 4.54796 6.97717 4.4836 6.87804 4.42827C6.60328 4.2749 6.29311 4.19625 5.97847 4.20014C5.66383 4.20403 5.3557 4.29034 5.08482 4.45045C4.81394 4.61057 4.58976 4.8389 4.43464 5.11267C4.27953 5.38645 4.19889 5.69611 4.20077 6.01077C4.20265 6.32543 4.28699 6.6341 4.44537 6.906C4.60375 7.1779 4.83064 7.40353 5.10342 7.56039C5.3762 7.71726 5.68533 7.79987 6 7.8C6.31088 7.8002 6.61651 7.71983 6.88707 7.56673C6.98252 7.51271 7.07246 7.4503 7.15591 7.38043C7.40998 7.16771 7.77416 7.06448 8.05836 7.23484C8.34252 7.40517 8.43872 7.77891 8.21546 8.02368C7.91218 8.35618 7.53614 8.61814 7.11356 8.78721C6.50412 9.03103 5.83153 9.06821 5.19894 8.89304C4.56635 8.71786 4.00869 8.34001 3.61148 7.81743C3.21428 7.29485 2.99947 6.6564 3 6C3 4.344 4.344 3 6 3Z" fill="#4D4D4D"/>
</svg>
