<svg width="24" height="21" viewBox="0 0 24 21" fill="none" xmlns="http://www.w3.org/2000/svg">
<path d="M21.1041 2.67974C20.5718 2.14721 19.9398 1.72477 19.2443 1.43656C18.5487 1.14834 17.8031 1 17.0502 1C16.2973 1 15.5517 1.14834 14.8561 1.43656C14.1606 1.72477 13.5286 2.14721 12.9963 2.67974L11.8916 3.7844L10.787 2.67974C9.71182 1.60458 8.25359 1.00056 6.73308 1.00056C5.21257 1.00056 3.75434 1.60458 2.67918 2.67974C1.60402 3.7549 1 5.21313 1 6.73364C1 8.25415 1.60402 9.71238 2.67918 10.7875L3.78384 11.8922L11.8916 20L19.9994 11.8922L21.1041 10.7875C21.6366 10.2553 22.0591 9.62328 22.3473 8.9277C22.6355 8.23212 22.7838 7.48657 22.7838 6.73364C22.7838 5.98071 22.6355 5.23516 22.3473 4.53958C22.0591 3.84399 21.6366 3.21201 21.1041 2.67974V2.67974Z" stroke="black" stroke-linecap="round" stroke-linejoin="round"/>
</svg>
