<svg width="250" height="230" viewBox="0 0 300 230" fill="none" xmlns="http://www.w3.org/2000/svg">
<g clip-path="url(#clip0_795_456)">
<path d="M96.5311 35.7896H95.9192V68.5202H96.5311V35.7896Z" fill="#3F3D56"/>
<path d="M96.5311 78.2632H95.9192V107.063H96.5311V78.2632Z" fill="#3F3D56"/>
<path d="M142.427 111.651H95.0015V112.263H142.427V111.651Z" fill="#3F3D56"/>
<path d="M75.4193 119.91H74.8074V145.911H75.4193V119.91Z" fill="#3F3D56"/>
<path d="M152.217 150.5H80.3149V151.111H152.217V150.5Z" fill="#3F3D56"/>
<path d="M212.187 14.9888H211.575V45.884H212.187V14.9888Z" fill="#3F3D56"/>
<path d="M206.986 50.7783H161.998V51.3901H206.986V50.7783Z" fill="#3F3D56"/>
<path d="M157.419 55.6729H156.807V96.9685H157.419V55.6729Z" fill="#3F3D56"/>
<path d="M96.2252 78.6147C95.1964 78.6147 94.1907 78.3097 93.3354 77.7383C92.48 77.1669 91.8133 76.3548 91.4196 75.4046C91.0259 74.4544 90.9229 73.4088 91.1236 72.4C91.3243 71.3913 91.8197 70.4647 92.5472 69.7375C93.2746 69.0102 94.2014 68.5149 95.2104 68.3143C96.2194 68.1136 97.2652 68.2166 98.2157 68.6102C99.1661 69.0038 99.9785 69.6703 100.55 70.5255C101.122 71.3806 101.427 72.386 101.427 73.4145C101.425 74.7932 100.877 76.115 99.9014 77.0899C98.9263 78.0648 97.6042 78.6132 96.2252 78.6147ZM96.2252 68.8261C95.3174 68.8261 94.4301 69.0953 93.6753 69.5994C92.9206 70.1036 92.3323 70.8202 91.985 71.6586C91.6376 72.4971 91.5467 73.4196 91.7238 74.3097C91.9009 75.1997 92.338 76.0173 92.9799 76.659C93.6217 77.3007 94.4395 77.7377 95.3298 77.9148C96.2201 78.0918 97.1429 78.0009 97.9815 77.6537C98.8201 77.3064 99.5369 76.7183 100.041 75.9637C100.546 75.2092 100.815 74.322 100.815 73.4145C100.813 72.198 100.329 71.0318 99.4689 70.1716C98.6085 69.3114 97.442 68.8275 96.2252 68.8261Z" fill="#3F3D56"/>
<path d="M75.4195 156.006C74.3907 156.006 73.3851 155.701 72.5297 155.129C71.6743 154.558 71.0076 153.746 70.614 152.796C70.2203 151.845 70.1173 150.8 70.318 149.791C70.5187 148.782 71.0141 147.856 71.7415 147.129C72.4689 146.401 73.3957 145.906 74.4047 145.705C75.4137 145.505 76.4595 145.608 77.41 146.001C78.3604 146.395 79.1728 147.061 79.7443 147.917C80.3159 148.772 80.6209 149.777 80.6209 150.806C80.6194 152.184 80.0709 153.506 79.0958 154.481C78.1206 155.456 76.7985 156.004 75.4195 156.006ZM75.4195 146.217C74.5118 146.217 73.6244 146.486 72.8697 146.991C72.1149 147.495 71.5267 148.211 71.1793 149.05C70.8319 149.888 70.7411 150.811 70.9181 151.701C71.0952 152.591 71.5323 153.408 72.1742 154.05C72.816 154.692 73.6338 155.129 74.5241 155.306C75.4144 155.483 76.3372 155.392 77.1758 155.045C78.0144 154.698 78.7312 154.109 79.2355 153.355C79.7398 152.6 80.009 151.713 80.009 150.806C80.0076 149.589 79.5237 148.423 78.6633 147.563C77.8029 146.702 76.6363 146.219 75.4195 146.217Z" fill="#3F3D56"/>
<path d="M96.531 116.852C99.2347 116.852 101.426 114.66 101.426 111.957C101.426 109.254 99.2347 107.063 96.531 107.063C93.8273 107.063 91.6355 109.254 91.6355 111.957C91.6355 114.66 93.8273 116.852 96.531 116.852Z" fill="#FF7666"/>
<path d="M273.687 73.1084H222.896V73.7202H273.687V73.1084Z" fill="#3F3D56"/>
<path d="M218.307 78.2632H217.695V107.063H218.307V78.2632Z" fill="#3F3D56"/>
<path d="M212.799 111.651H172.105V112.263H212.799V111.651Z" fill="#3F3D56"/>
<path d="M285.926 114.404H243.702V115.016H285.926V114.404Z" fill="#3F3D56"/>
<path d="M239.418 119.91H238.806V145.911H239.418V119.91Z" fill="#3F3D56"/>
<path d="M233.911 150.5H162.008V151.111H233.911V150.5Z" fill="#3F3D56"/>
<path d="M157.419 126.946H156.807V145.911H157.419V126.946Z" fill="#3F3D56"/>
<path d="M218 78.3086C220.704 78.3086 222.896 76.1174 222.896 73.4143C222.896 70.7113 220.704 68.52 218 68.52C215.297 68.52 213.105 70.7113 213.105 73.4143C213.105 76.1174 215.297 78.3086 218 78.3086Z" fill="#FF7666"/>
<path d="M211.881 55.9785C210.852 55.9785 209.847 55.6735 208.991 55.1021C208.136 54.5307 207.469 53.7186 207.076 52.7683C206.682 51.8181 206.579 50.7726 206.78 49.7638C206.98 48.7551 207.476 47.8285 208.203 47.1012C208.931 46.374 209.857 45.8787 210.866 45.678C211.875 45.4774 212.921 45.5804 213.872 45.974C214.822 46.3676 215.634 47.0341 216.206 47.8892C216.778 48.7444 217.083 49.7498 217.083 50.7783C217.081 52.157 216.533 53.4788 215.557 54.4537C214.582 55.4286 213.26 55.977 211.881 55.9785ZM211.881 46.1899C210.973 46.1899 210.086 46.459 209.331 46.9632C208.577 47.4674 207.988 48.184 207.641 49.0224C207.294 49.8608 207.203 50.7834 207.38 51.6735C207.557 52.5635 207.994 53.3811 208.636 54.0228C209.278 54.6645 210.095 55.1015 210.986 55.2786C211.876 55.4556 212.799 55.3647 213.637 55.0175C214.476 54.6702 215.193 54.0821 215.697 53.3275C216.201 52.5729 216.471 51.6858 216.471 50.7783C216.469 49.5618 215.985 48.3955 215.125 47.5353C214.265 46.6751 213.098 46.1913 211.881 46.1899Z" fill="#3F3D56"/>
<path d="M157.113 55.9785C156.084 55.9785 155.078 55.6735 154.223 55.1021C153.368 54.5307 152.701 53.7186 152.307 52.7683C151.914 51.8181 151.811 50.7726 152.011 49.7638C152.212 48.7551 152.707 47.8285 153.435 47.1012C154.162 46.374 155.089 45.8787 156.098 45.678C157.107 45.4774 158.153 45.5804 159.103 45.974C160.054 46.3676 160.866 47.0341 161.438 47.8892C162.009 48.7444 162.314 49.7498 162.314 50.7783C162.313 52.157 161.764 53.4788 160.789 54.4537C159.814 55.4286 158.492 55.977 157.113 55.9785ZM157.113 46.1899C156.205 46.1899 155.318 46.459 154.563 46.9632C153.808 47.4674 153.22 48.184 152.873 49.0224C152.525 49.8608 152.434 50.7834 152.611 51.6735C152.789 52.5635 153.226 53.3811 153.868 54.0228C154.509 54.6645 155.327 55.1015 156.217 55.2786C157.108 55.4556 158.031 55.3647 158.869 55.0175C159.708 54.6702 160.425 54.0821 160.929 53.3275C161.433 52.5729 161.702 51.6858 161.702 50.7783C161.701 49.5618 161.217 48.3955 160.357 47.5353C159.496 46.6751 158.33 46.1913 157.113 46.1899Z" fill="#3F3D56"/>
<path d="M238.806 120.216C237.778 120.216 236.772 119.911 235.917 119.34C235.061 118.769 234.395 117.956 234.001 117.006C233.607 116.056 233.504 115.01 233.705 114.002C233.906 112.993 234.401 112.066 235.128 111.339C235.856 110.612 236.783 110.116 237.792 109.916C238.801 109.715 239.847 109.818 240.797 110.212C241.747 110.605 242.56 111.272 243.131 112.127C243.703 112.982 244.008 113.988 244.008 115.016C244.006 116.395 243.458 117.717 242.483 118.692C241.508 119.666 240.186 120.215 238.806 120.216ZM238.806 110.428C237.899 110.428 237.011 110.697 236.257 111.201C235.502 111.705 234.914 112.422 234.566 113.26C234.219 114.099 234.128 115.021 234.305 115.911C234.482 116.801 234.919 117.619 235.561 118.261C236.203 118.902 237.021 119.339 237.911 119.516C238.801 119.693 239.724 119.603 240.563 119.255C241.401 118.908 242.118 118.32 242.623 117.565C243.127 116.811 243.396 115.924 243.396 115.016C243.395 113.8 242.911 112.633 242.05 111.773C241.19 110.913 240.023 110.429 238.806 110.428Z" fill="#3F3D56"/>
<path d="M238.806 155.7C241.51 155.7 243.702 153.508 243.702 150.805C243.702 148.102 241.51 145.911 238.806 145.911C236.103 145.911 233.911 148.102 233.911 150.805C233.911 153.508 236.103 155.7 238.806 155.7Z" fill="#FF7666"/>
<path d="M157.113 156.006C156.084 156.006 155.078 155.701 154.223 155.129C153.368 154.558 152.701 153.746 152.307 152.796C151.914 151.845 151.811 150.8 152.011 149.791C152.212 148.782 152.707 147.856 153.435 147.129C154.162 146.401 155.089 145.906 156.098 145.705C157.107 145.505 158.153 145.608 159.103 146.001C160.054 146.395 160.866 147.061 161.438 147.917C162.009 148.772 162.314 149.777 162.314 150.806C162.313 152.184 161.764 153.506 160.789 154.481C159.814 155.456 158.492 156.004 157.113 156.006ZM157.113 146.217C156.205 146.217 155.318 146.486 154.563 146.991C153.808 147.495 153.22 148.211 152.873 149.05C152.525 149.888 152.434 150.811 152.611 151.701C152.789 152.591 153.226 153.408 153.868 154.05C154.509 154.692 155.327 155.129 156.217 155.306C157.108 155.483 158.031 155.392 158.869 155.045C159.708 154.698 160.425 154.109 160.929 153.355C161.433 152.6 161.702 151.713 161.702 150.806C161.701 149.589 161.217 148.423 160.357 147.563C159.496 146.702 158.33 146.219 157.113 146.217Z" fill="#3F3D56"/>
<path d="M217.695 117.157C216.666 117.157 215.66 116.852 214.805 116.281C213.949 115.709 213.283 114.897 212.889 113.947C212.495 112.997 212.392 111.951 212.593 110.943C212.794 109.934 213.289 109.007 214.017 108.28C214.744 107.553 215.671 107.057 216.68 106.857C217.689 106.656 218.735 106.759 219.685 107.153C220.636 107.546 221.448 108.213 222.019 109.068C222.591 109.923 222.896 110.929 222.896 111.957C222.895 113.336 222.346 114.658 221.371 115.632C220.396 116.607 219.074 117.156 217.695 117.157ZM217.695 107.369C216.787 107.369 215.9 107.638 215.145 108.142C214.39 108.646 213.802 109.363 213.454 110.201C213.107 111.04 213.016 111.962 213.193 112.852C213.37 113.742 213.807 114.56 214.449 115.202C215.091 115.843 215.909 116.28 216.799 116.457C217.69 116.634 218.612 116.543 219.451 116.196C220.29 115.849 221.006 115.261 221.511 114.506C222.015 113.752 222.284 112.865 222.284 111.957C222.283 110.741 221.799 109.574 220.938 108.714C220.078 107.854 218.911 107.37 217.695 107.369Z" fill="#3F3D56"/>
<path d="M75.4192 104.616C74.2089 104.616 73.0258 104.975 72.0194 105.647C71.0131 106.319 70.2288 107.274 69.7656 108.392C69.3025 109.51 69.1813 110.74 69.4174 111.927C69.6535 113.114 70.2363 114.204 71.0921 115.06C71.9479 115.915 73.0383 116.498 74.2253 116.734C75.4124 116.97 76.6428 116.849 77.7609 116.386C78.8791 115.923 79.8348 115.139 80.5072 114.132C81.1796 113.126 81.5385 111.944 81.5385 110.734C81.5338 109.112 80.8875 107.559 79.741 106.413C78.5944 105.267 77.0407 104.62 75.4192 104.616ZM75.4192 106.451C75.7823 106.451 76.1372 106.559 76.4391 106.76C76.741 106.962 76.9763 107.249 77.1152 107.584C77.2542 107.919 77.2905 108.288 77.2197 108.645C77.1489 109.001 76.974 109.328 76.7173 109.584C76.4605 109.841 76.1334 110.016 75.7773 110.087C75.4212 110.157 75.0521 110.121 74.7166 109.982C74.3812 109.843 74.0945 109.608 73.8927 109.306C73.691 109.004 73.5834 108.649 73.5834 108.286C73.585 107.8 73.7789 107.334 74.1228 106.99C74.4668 106.647 74.9328 106.453 75.4192 106.451ZM75.4192 115.287C74.694 115.283 73.9805 115.103 73.3407 114.762C72.7009 114.421 72.154 113.928 71.7476 113.328C71.777 112.104 74.1953 111.431 75.4192 111.431C76.643 111.431 79.0614 112.104 79.0908 113.328C78.6839 113.928 78.1369 114.42 77.4972 114.761C76.8575 115.102 76.1443 115.283 75.4192 115.287Z" fill="#3F3D56"/>
<path d="M96.531 21.1064C95.3207 21.1064 94.1376 21.4653 93.1313 22.1375C92.1249 22.8097 91.3406 23.7652 90.8774 24.8831C90.4143 26.001 90.2931 27.2311 90.5292 28.4179C90.7653 29.6046 91.3481 30.6947 92.2039 31.5503C93.0598 32.4059 94.1501 32.9886 95.3372 33.2246C96.5242 33.4607 97.7546 33.3395 98.8728 32.8765C99.9909 32.4134 100.947 31.6293 101.619 30.6232C102.291 29.6171 102.65 28.4343 102.65 27.2243C102.646 25.6032 101.999 24.0499 100.853 22.9036C99.7062 21.7573 98.1525 21.1112 96.531 21.1064ZM96.531 22.9418C96.8941 22.9418 97.249 23.0494 97.5509 23.2511C97.8528 23.4528 98.0881 23.7394 98.227 24.0748C98.366 24.4102 98.4024 24.7792 98.3315 25.1352C98.2607 25.4913 98.0858 25.8183 97.8291 26.075C97.5724 26.3316 97.2452 26.5064 96.8891 26.5773C96.533 26.6481 96.1639 26.6117 95.8284 26.4728C95.493 26.3339 95.2063 26.0987 95.0046 25.7968C94.8028 25.495 94.6952 25.1402 94.6952 24.7772C94.6968 24.2909 94.8907 23.825 95.2347 23.4812C95.5786 23.1373 96.0446 22.9434 96.531 22.9418ZM96.531 31.7774C95.8058 31.7741 95.0923 31.594 94.4525 31.2526C93.8127 30.9113 93.2658 30.419 92.8594 29.8185C92.8888 28.595 95.3071 27.9214 96.531 27.9214C97.7549 27.9214 100.173 28.595 100.203 29.8185C99.7957 30.4185 99.2487 30.9105 98.609 31.2518C97.9693 31.5931 97.2561 31.7735 96.531 31.7774Z" fill="#3F3D56"/>
<path d="M211.881 0C210.671 0 209.488 0.358809 208.481 1.03105C207.475 1.70329 206.691 2.65877 206.228 3.77667C205.764 4.89456 205.643 6.12466 205.879 7.31141C206.115 8.49816 206.698 9.58826 207.554 10.4439C208.41 11.2995 209.5 11.8821 210.687 12.1182C211.874 12.3543 213.105 12.2331 214.223 11.7701C215.341 11.307 216.297 10.5229 216.969 9.51678C217.642 8.5107 218.001 7.32787 218.001 6.11787C217.996 4.49677 217.35 2.94342 216.203 1.79713C215.056 0.650828 213.503 0.00474514 211.881 0ZM211.881 1.83536C212.244 1.83536 212.599 1.943 212.901 2.14468C213.203 2.34635 213.438 2.63299 213.577 2.96836C213.716 3.30373 213.752 3.67276 213.682 4.02879C213.611 4.38481 213.436 4.71184 213.179 4.96852C212.922 5.2252 212.595 5.4 212.239 5.47082C211.883 5.54164 211.514 5.50529 211.179 5.36638C210.843 5.22746 210.556 4.99222 210.355 4.6904C210.153 4.38857 210.045 4.03372 210.045 3.67072C210.047 3.18445 210.241 2.71857 210.585 2.37472C210.929 2.03087 211.395 1.83699 211.881 1.83536ZM211.881 10.671C211.156 10.6677 210.442 10.4875 209.803 10.1462C209.163 9.80482 208.616 9.31256 208.209 8.71209C208.239 7.48851 210.657 6.81496 211.881 6.81496C213.105 6.81496 215.523 7.48851 215.553 8.71209C215.146 9.3121 214.599 9.80402 213.959 10.1453C213.319 10.4866 212.606 10.667 211.881 10.671Z" fill="#3F3D56"/>
<path d="M282.254 66.9907C281.044 66.9907 279.86 67.3495 278.854 68.0218C277.848 68.694 277.063 69.6495 276.6 70.7674C276.137 71.8853 276.016 73.1154 276.252 74.3021C276.488 75.4889 277.071 76.579 277.927 77.4346C278.783 78.2902 279.873 78.8729 281.06 79.1089C282.247 79.345 283.478 79.2238 284.596 78.7608C285.714 78.2977 286.67 77.5136 287.342 76.5075C288.014 75.5014 288.373 74.3186 288.373 73.1086C288.369 71.4875 287.722 69.9341 286.576 68.7878C285.429 67.6416 283.875 66.9955 282.254 66.9907ZM282.254 68.8261C282.617 68.8261 282.972 68.9337 283.274 69.1354C283.576 69.3371 283.811 69.6237 283.95 69.9591C284.089 70.2944 284.125 70.6635 284.054 71.0195C283.984 71.3755 283.809 71.7026 283.552 71.9592C283.295 72.2159 282.968 72.3907 282.612 72.4615C282.256 72.5324 281.887 72.496 281.551 72.3571C281.216 72.2182 280.929 71.9829 280.727 71.6811C280.526 71.3793 280.418 71.0244 280.418 70.6614C280.42 70.1752 280.614 69.7093 280.958 69.3654C281.302 69.0216 281.768 68.8277 282.254 68.8261ZM282.254 77.6617C281.529 77.6584 280.815 77.4782 280.175 77.1369C279.536 76.7955 278.989 76.3033 278.582 75.7028C278.612 74.4792 281.03 73.8057 282.254 73.8057C283.478 73.8057 285.896 74.4792 285.926 75.7028C285.519 76.3028 284.972 76.7947 284.332 77.136C283.692 77.4773 282.979 77.6578 282.254 77.6617Z" fill="#3F3D56"/>
<path d="M293.881 108.286C292.67 108.286 291.487 108.645 290.481 109.317C289.475 109.989 288.69 110.945 288.227 112.063C287.764 113.181 287.643 114.411 287.879 115.598C288.115 116.784 288.698 117.874 289.554 118.73C290.409 119.586 291.5 120.168 292.687 120.404C293.874 120.64 295.104 120.519 296.222 120.056C297.341 119.593 298.296 118.809 298.969 117.803C299.641 116.797 300 115.614 300 114.404C299.995 112.783 299.349 111.23 298.202 110.083C297.056 108.937 295.502 108.291 293.881 108.286ZM293.881 110.121C294.244 110.121 294.599 110.229 294.9 110.431C295.202 110.632 295.438 110.919 295.577 111.254C295.716 111.59 295.752 111.959 295.681 112.315C295.61 112.671 295.435 112.998 295.179 113.255C294.922 113.511 294.595 113.686 294.239 113.757C293.883 113.828 293.513 113.791 293.178 113.653C292.843 113.514 292.556 113.278 292.354 112.977C292.152 112.675 292.045 112.32 292.045 111.957C292.046 111.471 292.24 111.005 292.584 110.661C292.928 110.317 293.394 110.123 293.881 110.121ZM293.881 118.957C293.155 118.954 292.442 118.774 291.802 118.432C291.162 118.091 290.615 117.599 290.209 116.998C290.238 115.775 292.657 115.101 293.881 115.101C295.104 115.101 297.523 115.775 297.552 116.998C297.145 117.598 296.598 118.09 295.959 118.431C295.319 118.773 294.606 118.953 293.881 118.957Z" fill="#3F3D56"/>
<path d="M157.504 108.185L156.877 110.697C157.588 110.875 159.778 111.597 160.133 110.175C160.503 108.692 158.215 108.362 157.504 108.185Z" fill="#FF7666"/>
<path d="M156.561 111.965L155.869 114.736C156.723 114.948 159.355 115.793 159.744 114.23C160.151 112.6 157.414 112.178 156.561 111.965Z" fill="#FF7666"/>
<path d="M160.338 100.703C158.136 100.155 155.822 100.271 153.686 101.037C151.551 101.804 149.691 103.186 148.341 105.01C146.991 106.833 146.213 109.015 146.104 111.281C145.995 113.547 146.561 115.794 147.729 117.738C148.898 119.683 150.617 121.237 152.669 122.204C154.721 123.172 157.014 123.51 159.258 123.174C161.502 122.839 163.596 121.846 165.275 120.321C166.955 118.796 168.144 116.808 168.693 114.607C169.058 113.145 169.131 111.626 168.909 110.137C168.686 108.647 168.172 107.216 167.396 105.925C166.62 104.634 165.598 103.508 164.387 102.612C163.175 101.716 161.8 101.068 160.338 100.703ZM162.621 110.198C162.455 111.315 161.836 111.856 161.013 112.045C162.143 112.633 162.718 113.535 162.17 115.098C161.491 117.039 159.876 117.203 157.73 116.797L157.209 118.884L155.95 118.57L156.464 116.511C156.128 116.428 155.794 116.341 155.46 116.251L154.944 118.32L153.687 118.006L154.208 115.915C153.914 115.84 153.615 115.76 153.311 115.683L151.672 115.275L152.297 113.834C152.297 113.834 153.225 114.081 153.212 114.063C153.27 114.081 153.33 114.088 153.391 114.083C153.451 114.078 153.509 114.061 153.563 114.033C153.617 114.005 153.664 113.967 153.703 113.921C153.742 113.875 153.771 113.821 153.789 113.764L154.612 110.464C154.659 110.475 154.704 110.486 154.745 110.497C154.703 110.48 154.659 110.466 154.615 110.455L155.202 108.099C155.219 107.925 155.168 107.751 155.058 107.614C154.948 107.477 154.789 107.389 154.615 107.368C154.635 107.354 153.701 107.14 153.701 107.14L154.036 105.796L155.772 106.229L155.771 106.236C156.032 106.301 156.301 106.362 156.575 106.425L157.091 104.358L158.349 104.671L157.843 106.698C158.181 106.775 158.521 106.853 158.852 106.935L159.354 104.922L160.613 105.235L160.098 107.303C161.687 107.85 162.849 108.671 162.621 110.198Z" fill="#FF7666"/>
<path d="M46.5071 224.31C45.6365 232.225 -0.0691803 231.561 7.86326e-05 224.309C0.870675 216.394 46.5763 217.059 46.5071 224.31Z" fill="#E6E6E6"/>
<path d="M31.7454 204.384L33.5983 208.398L36.9949 208.089L39.1565 200.988L35.7597 199.136L31.7454 204.384Z" fill="#FFB8B8"/>
<path d="M20.0844 213.628L20.0112 216.424L25.2607 216.733V213.337L20.0844 213.628Z" fill="#FFB8B8"/>
<path d="M21.8639 162.707L23.0991 187.405L20.0112 214.263L29.275 215.498L35.1423 181.539L36.9949 158.385L21.8639 162.707Z" fill="#2F2E41"/>
<path d="M7.35063 153.754C7.35063 153.754 3.64508 178.143 11.365 186.17C19.0849 194.197 29.584 208.398 29.584 208.398L36.9951 199.136L18.1585 179.069L21.8641 165.486L36.9951 158.385L34.5248 141.405L12.2914 141.097L7.35063 153.754Z" fill="#2F2E41"/>
<path d="M25.5697 97.2581C29.3216 97.2581 32.3632 94.2172 32.3632 90.4662C32.3632 86.7151 29.3216 83.6743 25.5697 83.6743C21.8177 83.6743 18.7761 86.7151 18.7761 90.4662C18.7761 94.2172 21.8177 97.2581 25.5697 97.2581Z" fill="#FFB8B8"/>
<path d="M19.7025 92.0098C19.7025 92.0098 19.3937 101.58 17.8498 102.815C16.3058 104.05 23.4081 109.298 23.4081 109.298L28.0401 101.889V95.097L19.7025 92.0098Z" fill="#FFB8B8"/>
<path d="M22.7903 104.976L19.0413 99.3164L16.923 102.198L13.8352 110.842L16.3056 144.492L30.8189 144.801L32.6718 106.211L28.0398 100.654L22.7903 104.976Z" fill="#D0CDE1"/>
<path d="M38.5391 107.137L41.0095 106.829C41.0095 106.829 41.6271 107.137 41.9359 109.298C42.2447 111.459 45.9503 130.6 45.9503 130.6L41.0095 154.063L35.4512 146.654L38.8479 133.687L35.4512 120.721L38.5391 107.137Z" fill="#2F2E41"/>
<path d="M7.04182 106.829H5.18888L0.557129 131.835L4.88015 151.285L9.20318 144.184L7.96799 136.466L8.58574 129.674L10.7474 125.661L7.04182 106.829Z" fill="#2F2E41"/>
<path d="M34.5247 207.163C34.5247 207.163 32.6719 206.546 32.6719 207.781C32.6719 209.015 33.9071 212.72 33.9071 212.72C33.9071 212.72 32.0543 224.143 34.8335 223.525C37.6126 222.908 39.7742 217.66 40.083 216.116C40.3918 214.572 41.9358 206.546 41.9358 206.546C41.9358 206.546 44.4062 200.68 42.8622 200.371C41.3182 200.063 36.995 198.828 36.995 198.828C36.995 198.828 39.4654 206.546 34.5247 207.163Z" fill="#2F2E41"/>
<path d="M25.5696 216.733C25.5696 216.733 20.6289 213.646 19.7025 216.116C19.0881 217.917 18.6739 219.781 18.4673 221.673C18.4673 221.673 17.2321 225.686 22.1729 225.069C27.1136 224.451 26.496 224.451 26.8048 222.599C27.1136 220.747 25.5696 216.733 25.5696 216.733Z" fill="#2F2E41"/>
<path d="M21.5552 90.4665L22.7904 90.1577C22.7904 90.1577 23.7168 84.9095 25.8783 85.5269C28.0399 86.1444 33.5983 86.7618 33.5983 84.292C33.5983 81.8222 28.3487 79.6612 25.2607 79.9699C22.1728 80.2786 16.9232 81.2048 17.232 85.8356C17.5408 90.4664 19.5334 94.9712 19.5334 94.9712L19.6944 92.2257L21.5552 90.4665Z" fill="#2F2E41"/>
<path d="M28.0398 108.681L22.7903 104.976L28.0398 100.654L29.8624 102.841L28.0398 108.681Z" fill="#D0CDE1"/>
<path d="M18.1583 108.372L22.7903 104.976L19.0848 99.4194L16.9231 102.198L18.1583 108.372Z" fill="#D0CDE1"/>
<path d="M40.7007 106.828L30.8192 102.815L28.5032 101.117L21.5553 131.835L16.9233 117.942L18.3129 100.191L5.49785 106.828L9.82102 127.821L10.4386 135.848L8.58582 142.331C8.58582 142.331 2.10109 146.962 4.26267 151.902C6.42425 156.841 8.89462 157.15 8.89462 157.15C8.89462 157.15 19.3937 147.271 20.0113 144.801C20.6289 142.331 21.5553 138.009 21.5553 138.009C21.5553 138.009 26.8048 157.767 32.9808 157.459C39.1567 157.15 39.1567 150.667 39.1567 150.667L37.6127 143.875L35.1423 136.774L36.3775 125.043L40.7007 106.828Z" fill="#2F2E41"/>
</g>
<defs>
<clipPath id="clip0_795_456">
<rect width="300" height="230" fill="white"/>
</clipPath>
</defs>
</svg>
