<svg width="250" height="259" viewBox="0 0 354 259" fill="none" xmlns="http://www.w3.org/2000/svg">
<g clip-path="url(#clip0_795_506)">
<path opacity="0.2" d="M46.8486 131.218C42.1928 132.621 37.8351 136.017 36.672 140.73C35.3418 146.145 38.4093 151.604 38.8527 157.164C40.2847 175.383 14.2981 188.236 18.0053 206.132C19.4772 213.248 25.4269 218.482 31.2894 222.806C40.6809 229.711 51.101 235.812 62.6405 237.534C80.1552 240.151 98.4549 232.459 115.479 237.32C129.21 241.242 139.717 252.736 153.354 256.977C163.734 260.207 174.917 258.935 185.701 257.626C191.516 256.923 197.608 256.111 202.3 252.631C211.022 246.154 211.571 233.362 217.412 224.194C226.433 210.058 246.212 207.281 262.796 210.029C279.38 212.776 295.485 219.54 312.287 218.989C315.878 218.87 319.556 218.384 322.689 216.626C326.498 214.491 329.071 210.728 331.346 207.006C345.566 183.65 353.372 156.973 353.978 129.656C354.076 124.962 353.909 120.065 351.696 115.921C348.897 110.68 343.304 107.544 337.736 105.435C324.364 100.36 309.594 99.53 296.491 93.8064C283.854 88.2858 273.619 78.604 262.614 70.3068C240.683 53.8039 215.263 42.5132 188.292 37.2956C181.972 36.0777 175.412 35.2077 169.131 36.6141C161.895 38.2344 155.658 42.7328 150.05 47.5756C135.131 60.4581 123.173 76.3529 109.424 90.4716C99.9389 100.208 89.6108 109.091 78.5596 117.016C73.4713 120.674 68.0632 125.016 62.3934 127.72C57.2033 130.192 52.3367 129.569 46.8486 131.218Z" fill="#FF7666"/>
<path d="M113.353 16.7251C113.353 16.7251 99.3053 35.3313 109.355 57.0185C119.404 78.7057 91.8401 113.551 91.8401 113.551" stroke="#535461" stroke-width="2" stroke-miterlimit="10"/>
<path d="M119.651 9.76184C118.535 14.5502 113.196 17.4029 113.196 17.4029C113.196 17.4029 109.671 12.4913 110.787 7.70295C111.902 2.91457 114.785 -0.507245 117.241 0.0618501C119.698 0.630945 120.767 4.97347 119.651 9.76184Z" fill="#8ED16F"/>
<path d="M116.065 8.92718C116.416 7.42386 116.242 6.09888 115.677 5.96775C115.112 5.83662 114.37 6.94899 114.019 8.45231C113.668 9.95563 113.842 11.2806 114.407 11.4117C114.972 11.5429 115.714 10.4305 116.065 8.92718Z" fill="#8ED16F"/>
<path opacity="0.3" d="M116.065 8.92718C116.416 7.42386 116.242 6.09888 115.677 5.96775C115.112 5.83662 114.37 6.94899 114.019 8.45231C113.668 9.95563 113.842 11.2806 114.407 11.4117C114.972 11.5429 115.714 10.4305 116.065 8.92718Z" fill="black"/>
<path d="M117.224 31.0357C112.586 32.7031 107.283 29.7815 107.283 29.7815C107.283 29.7815 109.5 24.1594 114.141 22.4956C118.783 20.8319 123.228 21.4082 124.082 23.7498C124.936 26.0915 121.861 29.3683 117.224 31.0357Z" fill="#8ED16F"/>
<path d="M115.921 27.3439C117.375 26.8191 118.395 25.9529 118.198 25.409C118 24.8652 116.661 24.8497 115.206 25.3745C113.752 25.8993 112.732 26.7656 112.929 27.3094C113.127 27.8533 114.466 27.8687 115.921 27.3439Z" fill="#8ED16F"/>
<path opacity="0.3" d="M115.921 27.3439C117.375 26.8191 118.395 25.9529 118.198 25.409C118 24.8652 116.661 24.8497 115.206 25.3745C113.752 25.8993 112.732 26.7656 112.929 27.3094C113.127 27.8533 114.466 27.8687 115.921 27.3439Z" fill="black"/>
<path d="M116.144 47.9888C111.506 49.6563 106.204 46.7347 106.204 46.7347C106.204 46.7347 108.421 41.1126 113.062 39.4488C117.703 37.785 122.148 38.3613 123.002 40.703C123.856 43.0446 120.782 46.325 116.144 47.9888Z" fill="#8ED16F"/>
<path d="M114.895 44.5534C116.351 44.0306 117.373 43.1654 117.176 42.6211C116.979 42.0767 115.64 42.0593 114.184 42.5821C112.728 43.105 111.706 43.9701 111.903 44.5144C112.099 45.0588 113.439 45.0762 114.895 44.5534Z" fill="#8ED16F"/>
<path opacity="0.3" d="M114.895 44.5534C116.351 44.0306 117.373 43.1654 117.176 42.6211C116.979 42.0767 115.64 42.0593 114.184 42.5821C112.728 43.105 111.706 43.9701 111.903 44.5144C112.099 45.0588 113.439 45.0762 114.895 44.5534Z" fill="black"/>
<path d="M121.563 67.878C116.925 69.5454 111.623 66.6238 111.623 66.6238C111.623 66.6238 113.84 61.0017 118.481 59.3379C123.122 57.6741 127.567 58.2505 128.421 60.5921C129.275 62.9337 126.201 66.2214 121.563 67.878Z" fill="#8ED16F"/>
<path d="M120.315 64.4514C121.771 63.9285 122.792 63.0634 122.596 62.519C122.399 61.9747 121.059 61.9572 119.603 62.4801C118.147 63.0029 117.126 63.868 117.323 64.4124C117.519 64.9568 118.859 64.9742 120.315 64.4514Z" fill="#8ED16F"/>
<path opacity="0.3" d="M120.315 64.4514C121.771 63.9285 122.792 63.0634 122.596 62.519C122.399 61.9747 121.059 61.9572 119.603 62.4801C118.147 63.0029 117.126 63.868 117.323 64.4124C117.519 64.9568 118.859 64.9742 120.315 64.4514Z" fill="black"/>
<path d="M118.038 86.0674C113.4 87.7349 108.097 84.8133 108.097 84.8133C108.097 84.8133 110.314 79.1912 114.955 77.5274C119.597 75.8636 124.042 76.4399 124.896 78.7816C125.75 81.1232 122.679 84.4037 118.038 86.0674Z" fill="#8ED16F"/>
<path d="M116.799 82.3317C118.254 81.8069 119.274 80.9407 119.076 80.3968C118.879 79.853 117.54 79.8375 116.085 80.3623C114.63 80.8871 113.611 81.7534 113.808 82.2972C114.006 82.8411 115.345 82.8565 116.799 82.3317Z" fill="#8ED16F"/>
<path opacity="0.3" d="M116.799 82.3317C118.254 81.8069 119.274 80.9407 119.076 80.3968C118.879 79.853 117.54 79.8375 116.085 80.3623C114.63 80.8871 113.611 81.7534 113.808 82.2972C114.006 82.8411 115.345 82.8565 116.799 82.3317Z" fill="black"/>
<path d="M96.2852 35.8529C99.7089 39.3907 105.76 39.1152 105.76 39.1152C105.76 39.1152 106.258 33.0944 102.835 29.5566C99.4109 26.0188 95.1694 24.5616 93.3594 26.2943C91.5494 28.0269 92.8615 32.3151 96.2852 35.8529Z" fill="#8ED16F"/>
<path d="M101.636 34.5975C102.054 34.1957 101.521 32.9697 100.446 31.8593C99.3708 30.7488 98.1611 30.1743 97.7437 30.5761C97.3264 30.978 97.8594 32.2039 98.9343 33.3144C100.009 34.4249 101.219 34.9994 101.636 34.5975Z" fill="#8ED16F"/>
<path opacity="0.3" d="M101.636 34.5975C102.054 34.1957 101.521 32.9697 100.446 31.8593C99.3708 30.7488 98.1611 30.1743 97.7437 30.5761C97.3264 30.978 97.8594 32.2039 98.9343 33.3144C100.009 34.4249 101.219 34.9994 101.636 34.5975Z" fill="black"/>
<path d="M94.3189 92.0341C97.7426 95.5719 103.794 95.2964 103.794 95.2964C103.794 95.2964 104.292 89.2756 100.868 85.7378C97.4445 82.1999 93.2031 80.7428 91.3931 82.4754C89.5831 84.2081 90.8952 88.4962 94.3189 92.0341Z" fill="#8ED16F"/>
<path d="M99.665 90.7836C100.082 90.3818 99.5493 89.1558 98.4745 88.0453C97.3996 86.9348 96.1899 86.3603 95.7725 86.7622C95.3552 87.164 95.8882 88.39 96.9631 89.5004C98.0379 90.6109 99.2476 91.1854 99.665 90.7836Z" fill="#8ED16F"/>
<path opacity="0.3" d="M99.665 90.7836C100.082 90.3818 99.5493 89.1558 98.4745 88.0453C97.3996 86.9348 96.1899 86.3603 95.7725 86.7622C95.3552 87.164 95.8882 88.39 96.9631 89.5004C98.0379 90.6109 99.2476 91.1854 99.665 90.7836Z" fill="black"/>
<path d="M98.8584 55.7099C103.271 57.9065 108.879 55.6229 108.879 55.6229C108.879 55.6229 107.334 49.7833 102.925 47.5867C98.5167 45.3901 94.0281 45.4118 92.9051 47.6737C91.782 49.9356 94.4461 53.5133 98.8584 55.7099Z" fill="#8ED16F"/>
<path d="M103.47 52.7352C103.729 52.2175 102.816 51.2391 101.432 50.5499C100.047 49.8608 98.7143 49.7217 98.4553 50.2394C98.1963 50.7571 99.1089 51.7355 100.494 52.4246C101.878 53.1138 103.211 53.2529 103.47 52.7352Z" fill="#8ED16F"/>
<path opacity="0.3" d="M103.47 52.7352C103.729 52.2175 102.816 51.2391 101.432 50.5499C100.047 49.8608 98.7143 49.7217 98.4553 50.2394C98.1963 50.7571 99.1089 51.7355 100.494 52.4246C101.878 53.1138 103.211 53.2529 103.47 52.7352Z" fill="black"/>
<path d="M100.708 75.4902C105.121 77.6868 110.729 75.4032 110.729 75.4032C110.729 75.4032 109.184 69.5636 104.775 67.367C100.367 65.1703 95.8781 65.1921 94.755 67.454C93.632 69.7159 96.3142 73.3153 100.708 75.4902Z" fill="#8ED16F"/>
<path d="M105.322 72.5184C105.581 72.0007 104.668 71.0223 103.283 70.3331C101.898 69.644 100.566 69.5049 100.307 70.0226C100.048 70.5403 100.96 71.5187 102.345 72.2078C103.73 72.897 105.063 73.036 105.322 72.5184Z" fill="#8ED16F"/>
<path opacity="0.3" d="M105.322 72.5184C105.581 72.0007 104.668 71.0223 103.283 70.3331C101.898 69.644 100.566 69.5049 100.307 70.0226C100.048 70.5403 100.96 71.5187 102.345 72.2078C103.73 72.897 105.063 73.036 105.322 72.5184Z" fill="black"/>
<path d="M45.6965 56.7173C45.6965 56.7173 71.3524 82.3048 56.8689 120.275C42.3855 158.245 81.6962 221.385 81.6962 221.385C81.6962 221.385 81.2746 221.324 80.4932 221.186C27.793 211.91 1.62457 151.803 30.9186 107.153C41.7967 90.5513 50.7557 71.0788 45.6965 56.7173Z" fill="#8ED16F"/>
<path d="M0 160.209C0 160.209 29.2759 155.559 31.9436 181.726C34.6113 207.894 88.2383 211.522 88.2383 211.522C88.2383 211.522 87.8749 211.761 87.2316 212.189C42.9525 241.188 0.625135 230.654 7.00368 192.162C9.38064 177.848 9.18437 163.475 0 160.209Z" fill="#8ED16F"/>
<g opacity="0.3">
<path opacity="0.3" d="M0 160.209C0 160.209 29.2759 155.559 31.9436 181.726C34.6113 207.894 88.2383 211.522 88.2383 211.522C88.2383 211.522 87.8749 211.761 87.2316 212.189C42.9525 241.188 0.625135 230.654 7.00368 192.162C9.38064 177.848 9.18437 163.475 0 160.209Z" fill="white"/>
</g>
<path d="M38.2858 159.887C42.7319 159.887 46.3362 150.508 46.3362 138.939C46.3362 127.37 42.7319 117.991 38.2858 117.991C33.8396 117.991 30.2354 127.37 30.2354 138.939C30.2354 150.508 33.8396 159.887 38.2858 159.887Z" fill="#8ED16F"/>
<path opacity="0.3" d="M38.2858 159.887C42.7319 159.887 46.3362 150.508 46.3362 138.939C46.3362 127.37 42.7319 117.991 38.2858 117.991C33.8396 117.991 30.2354 127.37 30.2354 138.939C30.2354 150.508 33.8396 159.887 38.2858 159.887Z" fill="black"/>
<path d="M37.5501 215.017C39.6692 212.903 37.5636 207.377 32.847 202.673C28.1305 197.969 22.5891 195.869 20.47 197.982C18.3509 200.096 20.4566 205.622 25.1731 210.326C29.8896 215.03 35.431 217.13 37.5501 215.017Z" fill="#8ED16F"/>
<path opacity="0.3" d="M37.5501 215.017C39.6692 212.903 37.5636 207.377 32.847 202.673C28.1305 197.969 22.5891 195.869 20.47 197.982C18.3509 200.096 20.4566 205.622 25.1731 210.326C29.8896 215.03 35.431 217.13 37.5501 215.017Z" fill="black"/>
<path d="M263.098 96.2241H72.5263C70.2235 96.2241 68.015 97.1365 66.3866 98.7605C64.7583 100.384 63.8435 102.587 63.8435 104.884V216.285C63.8435 218.582 64.7583 220.784 66.3866 222.408C68.015 224.032 70.2235 224.945 72.5263 224.945H263.098C265.4 224.945 267.609 224.032 269.237 222.408C270.866 220.784 271.78 218.582 271.78 216.285V104.884C271.78 102.587 270.866 100.384 269.237 98.7605C267.609 97.1365 265.4 96.2241 263.098 96.2241Z" fill="url(#paint0_linear_795_506)"/>
<path d="M260.314 97.7393H75.3067C70.3267 97.7393 66.2896 101.766 66.2896 106.732V214.436C66.2896 219.403 70.3267 223.43 75.3067 223.43H260.314C265.294 223.43 269.331 219.403 269.331 214.436V106.732C269.331 101.766 265.294 97.7393 260.314 97.7393Z" fill="#FF7666"/>
<path d="M269.331 119.735H66.2896V142.778H269.331V119.735Z" fill="#FF7666"/>
<path opacity="0.3" d="M269.331 119.735H66.2896V142.778H269.331V119.735Z" fill="black"/>
<path d="M250.079 159.887H85.5452V171.058H250.079V159.887Z" fill="#D6D6E3"/>
<path d="M99.1963 215.053C108.091 215.053 115.301 207.862 115.301 198.991C115.301 190.121 108.091 182.93 99.1963 182.93C90.302 182.93 83.0918 190.121 83.0918 198.991C83.0918 207.862 90.302 215.053 99.1963 215.053Z" fill="#FF7666"/>
<path opacity="0.3" d="M99.1963 215.053C108.091 215.053 115.301 207.862 115.301 198.991C115.301 190.121 108.091 182.93 99.1963 182.93C90.302 182.93 83.0918 190.121 83.0918 198.991C83.0918 207.862 90.302 215.053 99.1963 215.053Z" fill="black"/>
<path d="M257.788 66.7472C258.048 67.5669 258.6 68.2633 259.339 68.7046C262.68 70.9048 269.941 70.4372 270.814 70.4372C270.999 70.4372 271.242 70.7671 271.511 71.3217C272.794 73.9605 274.782 81.6959 274.917 83.4358C275.095 85.5418 277.058 95.3977 280.271 99.0696C280.369 99.182 280.467 99.2871 280.561 99.385C283.712 102.542 287.409 99.0696 287.409 99.0696L287.939 97.2318C287.79 97.9568 287.623 98.8014 287.456 99.7474C287.372 100.222 287.289 100.726 287.209 101.244C286.73 104.165 286.478 107.119 286.456 110.078C286.448 111.153 286.494 112.227 286.595 113.297C286.624 113.594 286.656 113.888 286.696 114.174C286.86 115.477 286.941 116.79 286.936 118.103C286.907 125.904 284.912 135.608 284.912 135.608L284.988 135.582C284.941 135.825 284.912 135.945 284.912 135.945L285.028 135.909C284.972 136.269 284.919 136.637 284.868 137.014C284.192 141.908 283.803 147.997 283.618 151.513C283.522 153.368 283.605 155.228 283.865 157.067L287.412 181.973V193.572C287.4 195.33 287.615 197.082 288.052 198.785C289.208 203.167 288.256 218.464 287.721 225.72C287.572 227.7 287.456 229.084 287.423 229.483V229.603L287.525 229.563C287.525 229.646 287.525 229.69 287.525 229.69C287.676 229.625 287.835 229.579 287.998 229.552C286.591 231.727 284.043 235.323 282.084 235.928C280.93 236.279 279.903 236.958 279.129 237.882L279.078 237.951L279.006 238.052C278.764 238.375 278.616 238.759 278.581 239.161C278.552 239.092 278.53 239.021 278.515 238.947C278.366 239.756 278.853 240.495 280.383 240.854C281.275 241.024 282.183 241.097 283.091 241.072C288.397 241.072 297.814 239.444 298.854 237.693V231.654L299.025 231.709V231.763L299.675 231.977L301.46 226.003C303.6 224.423 301.823 196.138 301.46 189.639C301.133 183.716 304.807 160.155 305.458 156.004L305.37 155.899L305.469 155.294C305.599 155.389 305.721 155.496 305.832 155.613C306.046 155.866 306.232 156.141 306.388 156.432C306.695 156.951 306.959 157.494 307.177 158.056C310.768 166.988 312.385 192.528 312.385 194.819V218.837C312.378 221.207 312.708 223.566 313.366 225.844C313.696 227.042 313.951 228.26 314.13 229.49C314.206 229.972 314.271 230.451 314.333 230.908C314.395 231.364 314.457 231.886 314.504 232.314C314.504 232.426 314.529 232.535 314.54 232.637C314.551 232.738 314.54 232.734 314.54 232.785C314.638 233.731 314.689 234.351 314.689 234.351C314.703 234.299 314.728 234.251 314.762 234.21L314.78 234.438C314.806 234.352 314.855 234.274 314.922 234.213C315.07 234.069 315.23 233.938 315.402 233.822V236.874L315.314 236.809V237.334C319.014 240.118 325.037 240.959 329.66 240.927C332.658 240.927 335.086 240.564 335.929 240.144C337.136 239.553 336.474 238.175 335.377 237.121C334.526 236.301 333.418 235.671 332.716 235.75C331.546 235.877 327.545 231.357 325.447 228.881L325.684 228.776L326.018 228.631V188.584C326.018 188.584 326.556 172.773 328.159 157.135C328.919 149.253 327.984 141.299 325.415 133.806L325.364 133.658L325.851 133.734C326.367 133.813 326.643 133.861 326.643 133.861C326.643 133.861 326.643 133.737 326.61 133.498H326.643C326.643 133.498 326.018 126.716 326.011 118.198C326.011 108.541 326.829 96.7679 330.212 90.1055C332.16 86.2704 332.811 83.2183 332.756 80.8114C332.841 78.6936 332.23 76.6061 331.015 74.8668C330.506 74.1666 329.813 73.6198 329.013 73.2863L328.944 73.2465H328.907C328.323 73.0106 327.699 72.8876 327.068 72.884H319.759C318.913 72.8847 318.082 72.6661 317.346 72.2496L314.486 70.633C313.534 68.556 313.395 65.9823 313.599 63.5682C313.599 63.3761 313.635 63.184 313.653 62.9955L313.861 62.778C314.021 62.6076 314.17 62.4155 314.315 62.2524C314.312 62.3955 314.301 62.5382 314.282 62.6801C314.246 62.9085 314.184 63.0426 314.086 63.0716C315.649 62.8686 317.393 62.5605 318.353 61.3571C318.393 61.31 318.429 61.2592 318.466 61.2085C318.749 60.7507 318.984 60.2648 319.167 59.7585C319.301 59.4127 319.481 59.086 319.701 58.7871C319.941 58.4754 320.254 58.2216 320.512 57.9244L320.555 57.8736C321.475 56.7862 321.526 55.2275 321.537 53.8066C321.555 50.3558 321.453 46.557 319.138 43.9689C317.215 41.8157 314.148 41.0002 311.237 40.9059C308.325 40.8117 305.421 41.3336 302.514 41.3481C300.537 41.3481 298.152 41.3155 297.062 42.9467C296.528 43.7478 296.462 44.7953 295.881 45.5638C295.546 46.006 295.034 46.3866 295.005 46.9376C295.001 47.1918 295.066 47.4423 295.194 47.6626V47.6879C295.899 49.0726 297.396 49.9353 298.959 50.2072C298.695 50.5243 298.452 50.8585 298.232 51.2076C297.278 52.7289 296.774 54.488 296.778 56.2823C296.778 56.4926 296.778 56.6992 296.8 56.9058C296.962 59.343 298.052 61.6264 299.846 63.2891C299.817 63.4921 299.788 63.6951 299.755 63.8945L299.821 63.9525C300.027 64.1385 300.241 64.3149 300.464 64.4817L300.544 64.5433C300.544 64.6702 300.544 64.797 300.544 64.9058C300.544 65.116 300.544 65.3299 300.522 65.5365C300.5 65.7431 300.522 65.87 300.5 66.0367L300.453 65.9968L296.902 63.039L291.192 57.7685C291.192 57.7685 276.916 47.4052 276.2 52.3313C276.113 53.2062 276.356 54.082 276.88 54.7889C279.5 58.7762 288.51 62.169 288.51 62.169C288.51 62.169 293.882 67.8346 297.476 73.9424C297.349 74.0113 297.222 74.0765 297.087 74.1382C293.889 75.6207 289.222 74.9936 289.222 74.9936C283.832 75.831 283.345 81.7213 283.374 84.1028C283.374 84.2151 283.374 84.3239 283.374 84.4218C283.374 84.5196 283.374 84.5414 283.374 84.5957L276.222 67.8455L276.2 67.7947C275.967 67.2494 275.599 66.7716 275.132 66.4054C274.664 66.0392 274.111 65.7964 273.525 65.6996C268.742 64.8985 256.788 63.2275 257.788 66.7472ZM287.732 229.501C287.837 229.476 287.942 229.457 288.048 229.443L288.016 229.494L287.732 229.501Z" fill="url(#paint1_linear_795_506)"/>
<path d="M323.47 226.076C323.47 226.076 330.245 234.569 331.811 234.395C333.378 234.221 337.023 237.686 334.941 238.744C332.858 239.803 320.868 240.477 314.951 235.971V229.182L323.47 226.076Z" fill="#ACA9C9"/>
<path d="M289.237 226.594C289.237 226.594 285.239 233.699 282.462 234.569C279.685 235.439 277.25 238.556 280.899 239.422C284.548 240.289 297.582 238.382 298.796 236.301V227.113L289.237 226.594Z" fill="#ACA9C9"/>
<path d="M284.218 156.799L287.67 181.368V192.789C287.66 194.522 287.87 196.249 288.296 197.929C289.422 202.254 288.495 217.34 287.972 224.499C287.801 226.834 287.67 228.327 287.67 228.327C289.927 227.287 299.486 230.578 299.486 230.578L300.453 227.298L301.223 224.688C303.31 223.129 301.587 195.229 301.223 188.802C300.987 184.412 302.95 170.181 304.207 161.652C304.571 159.242 304.865 157.303 305.043 156.135C305.156 155.41 305.218 155.008 305.218 155.008C305.601 155.319 305.919 155.702 306.155 156.135C306.455 156.648 306.711 157.183 306.922 157.738C310.419 166.549 312.011 191.742 312.011 193.986V217.677C312.003 220.015 312.325 222.342 312.967 224.59C313.397 226.23 313.711 227.898 313.908 229.581C314.155 231.463 314.271 232.978 314.271 232.978C314.446 231.937 325.218 227.258 325.218 227.258V187.747C325.218 187.747 325.738 172.161 327.305 156.726C327.978 149.705 327.299 142.621 325.306 135.855C324.873 134.379 324.441 133.129 324.066 132.139C323.43 130.454 322.976 129.522 322.976 129.522H287.489C286.893 129.634 286.398 130.831 285.951 132.647C285.661 133.864 285.406 135.358 285.184 136.996C284.527 141.821 284.149 147.827 283.967 151.3C283.875 153.137 283.959 154.978 284.218 156.799Z" fill="#618FD8"/>
<g opacity="0.1">
<path opacity="0.1" d="M324.594 227.37V187.859C324.594 187.859 325.113 172.273 326.68 156.838C328.246 141.404 322.318 129.63 322.318 129.63H323.013C323.013 129.63 328.919 141.415 327.374 156.838C325.829 172.262 325.288 187.859 325.288 187.859V227.37C325.288 227.37 314.515 232.049 314.341 233.09C314.341 233.09 314.341 232.858 314.286 232.459C316.634 230.831 324.594 227.37 324.594 227.37Z" fill="black"/>
<path opacity="0.1" d="M288.714 228.218C288.386 228.225 288.062 228.291 287.758 228.414V228.24C288.075 228.208 288.395 228.201 288.714 228.218Z" fill="black"/>
<path opacity="0.1" d="M300.617 224.774C302.703 223.216 300.98 195.315 300.617 188.889C300.253 182.462 304.615 155.098 304.615 155.098C304.843 155.274 305.045 155.482 305.214 155.714C304.575 159.803 300.998 183.049 301.314 188.889C301.678 195.301 303.401 223.201 301.314 224.774L299.577 230.665L298.945 230.454L300.617 224.774Z" fill="black"/>
</g>
<path d="M291.319 86.7454L287.685 99.57C287.685 99.57 283.861 103.195 280.736 99.57C277.61 95.9452 275.684 86.2271 275.495 84.1464C275.306 82.0658 272.54 71.3218 271.497 71.3218C270.454 71.3218 260.03 72.0142 258.812 67.697C257.838 64.2245 269.476 65.8846 274.136 66.664C274.709 66.7614 275.249 67.0019 275.705 67.3631C276.16 67.7243 276.517 68.1946 276.741 68.7301L283.887 85.7486C283.887 85.7486 287.67 81.3734 291.319 86.7454Z" fill="#F7C4A7"/>
<path d="M314.777 56.9385C314.777 56.9385 310.259 69.5891 315.994 74.0947C321.729 78.6003 295.485 79.8147 295.485 79.8147L299.046 76.4363C299.046 76.4363 301.565 66.4717 299.828 58.1528L314.777 56.9385Z" fill="#F7C4A7"/>
<path opacity="0.1" d="M309.216 74.0948C309.216 74.0948 313.821 72.9675 313.821 71.7568L317.902 74.0948H328.155C328.155 74.0948 335.627 78.2525 329.373 90.7327C323.118 103.213 325.898 133.868 325.898 133.868C325.898 133.868 303.658 129.881 285.239 135.949C285.239 135.949 288.019 122.258 286.976 114.461C285.933 106.664 288.713 95.7458 288.713 95.7458L290.276 89.1595C290.276 89.1595 290.189 82.9974 283.76 86.1256C283.76 86.1256 282.804 77.2013 289.408 76.161C289.408 76.161 297.04 77.2013 299.312 73.388C299.312 73.4025 304.353 76.3495 309.216 74.0948Z" fill="black"/>
<path d="M309.216 73.7506C309.216 73.7506 313.821 72.6233 313.821 71.4126L316.812 73.1271C317.527 73.5355 318.336 73.7505 319.16 73.7506H326.331C327.08 73.7485 327.819 73.9242 328.487 74.2633C329.155 74.6024 329.733 75.0951 330.172 75.7007C331.819 78.0098 333.294 82.5625 329.373 90.3885C323.118 102.865 325.898 133.524 325.898 133.524C325.898 133.524 303.659 129.536 285.239 135.604C285.239 135.604 288.019 121.913 286.976 114.117C285.933 106.32 288.714 95.427 288.714 95.427L290.276 88.8407C290.276 88.8407 290.189 82.6785 283.76 85.8067C283.76 85.8067 282.829 77.1289 289.135 75.8892C289.31 75.8504 289.491 75.8381 289.669 75.853C291.018 75.9944 297.302 76.4475 299.315 73.051C299.312 73.0546 304.353 76.0016 309.216 73.7506Z" fill="#E14B5A"/>
<path opacity="0.1" d="M326.767 89.5182C326.767 89.5182 321.206 92.9835 312.17 89.5182C312.17 89.5182 302.266 85.8934 299.137 78.7742C296.008 71.6551 314.947 79.9885 314.947 79.9885C314.947 79.9885 318.945 79.9885 320.159 79.1222C321.373 78.2559 329.892 85.7049 326.767 89.5182Z" fill="black"/>
<path d="M326.767 88.8262C326.767 88.8262 321.206 92.2915 312.17 88.8262C312.17 88.8262 302.266 85.2014 299.137 78.0823C296.008 70.9631 288.713 63.1662 288.713 63.1662C288.713 63.1662 276.029 58.3125 276.72 53.4625C277.41 48.6125 291.316 58.8345 291.316 58.8345L296.876 64.0325L314.947 79.2821C314.947 79.2821 318.945 79.2821 320.159 78.4157C321.373 77.5494 329.892 85.0129 326.767 88.8262Z" fill="#F7C4A7"/>
<path opacity="0.1" d="M299.661 58.6713L314.602 57.457C313.834 59.748 313.311 62.1137 313.043 64.5145C311.306 66.3109 308.931 67.3553 306.43 67.4231C303.928 67.4909 301.5 66.5766 299.668 64.877C300.049 62.8257 300.046 60.7218 299.661 58.6713Z" fill="black"/>
<path d="M306.352 66.903C311.629 66.903 315.907 62.6364 315.907 57.3734C315.907 52.1103 311.629 47.8438 306.352 47.8438C301.075 47.8438 296.797 52.1103 296.797 57.3734C296.797 62.6364 301.075 66.903 306.352 66.903Z" fill="#F7C4A7"/>
<path opacity="0.1" d="M311.596 59.4433C311.037 58.5226 312.174 57.3227 311.8 56.315C311.455 55.3871 310.081 55.2276 309.619 54.3613C309.256 53.6617 309.619 52.8026 309.474 52.0305C309.267 51.0337 308.191 50.4139 307.169 50.3631C306.148 50.3124 305.163 50.693 304.193 51.0192C302.612 51.552 300.947 51.9617 299.29 51.7732C297.633 51.5847 295.979 50.6857 295.241 49.2104C295.12 48.9955 295.057 48.7535 295.056 48.5072C295.085 47.9635 295.586 47.5901 295.91 47.1551C296.477 46.3976 296.542 45.3645 297.058 44.5743C298.112 42.9649 300.427 43.0047 302.354 42.9975C305.189 42.9975 308.009 42.4683 310.844 42.5625C313.679 42.6568 316.659 43.4578 318.538 45.582C320.792 48.1375 320.893 51.8783 320.875 55.2856C320.875 56.6884 320.817 58.2144 319.919 59.2983C319.658 59.6136 319.338 59.8746 319.087 60.1972C318.542 60.9222 318.396 61.8501 317.884 62.586C316.975 63.8945 315.202 64.2135 313.621 64.4238C314.086 64.3621 313.701 61.2557 313.621 60.9693C313.315 59.5411 312.985 59.5701 311.596 59.4433Z" fill="black"/>
<path d="M311.596 59.099C311.037 58.1783 312.174 56.9785 311.8 55.9708C311.455 55.0428 310.081 54.8834 309.619 54.017C309.256 53.3174 309.619 52.4584 309.474 51.6863C309.267 50.6895 308.191 50.0696 307.169 50.0189C306.148 49.9681 305.163 50.3487 304.193 50.675C302.612 51.2078 300.947 51.6174 299.29 51.4289C297.633 51.2404 295.979 50.3415 295.241 48.8662C295.12 48.6513 295.057 48.4093 295.056 48.163C295.085 47.6192 295.586 47.2459 295.91 46.8109C296.477 46.0533 296.542 45.0202 297.058 44.23C298.112 42.6206 300.427 42.6605 302.354 42.6533C305.189 42.6533 308.009 42.124 310.844 42.2183C313.679 42.3125 316.659 43.1136 318.538 45.2377C320.792 47.7932 320.893 51.534 320.875 54.9414C320.875 56.3442 320.817 57.8702 319.919 58.954C319.658 59.2694 319.338 59.5304 319.087 59.853C318.542 60.5779 318.396 61.5059 317.884 62.2417C316.975 63.5503 315.202 63.8693 313.621 64.0795C314.086 64.0179 313.701 60.9114 313.621 60.6251C313.315 59.1788 312.985 59.2223 311.596 59.099Z" fill="#281C1C"/>
<path opacity="0.1" d="M326.679 89.9534C326.679 89.9534 321.987 77.8211 318.338 77.4768C314.689 77.1324 325.287 77.4768 325.287 77.4768L328.762 83.7151L326.679 89.9534Z" fill="black"/>
<path d="M327.028 89.9534C327.028 89.9534 322.336 77.8211 318.687 77.4768C315.038 77.1324 325.636 77.4768 325.636 77.4768L329.111 83.7151L327.028 89.9534Z" fill="#E14B5A"/>
<path d="M313.893 229.61C314.14 231.491 314.257 233.007 314.257 233.007C314.431 231.966 325.204 227.287 325.204 227.287V224.47C324.929 224.46 324.655 224.473 324.382 224.51C322.293 224.789 320.355 225.8 318.567 226.881C317.057 227.869 315.497 228.78 313.893 229.61Z" fill="#618FD8"/>
<path opacity="0.3" d="M313.893 229.61C314.14 231.491 314.257 233.007 314.257 233.007C314.431 231.966 325.204 227.287 325.204 227.287V224.47C324.929 224.46 324.655 224.473 324.382 224.51C322.293 224.789 320.355 225.8 318.567 226.881C317.057 227.869 315.497 228.78 313.893 229.61Z" fill="black"/>
<path d="M287.67 228.327C289.927 227.286 299.486 230.578 299.486 230.578L300.453 227.297C298.785 226.96 297.127 226.54 295.499 226.039C294.739 225.82 293.996 225.546 293.275 225.22C292.794 224.964 292.298 224.734 291.792 224.532C290.545 224.104 289.248 224.285 287.968 224.499C287.801 226.833 287.67 228.327 287.67 228.327Z" fill="#618FD8"/>
<path opacity="0.3" d="M287.67 228.327C289.927 227.286 299.486 230.578 299.486 230.578L300.453 227.297C298.785 226.96 297.127 226.54 295.499 226.039C294.739 225.82 293.996 225.546 293.275 225.22C292.794 224.964 292.298 224.734 291.792 224.532C290.545 224.104 289.248 224.285 287.968 224.499C287.801 226.833 287.67 228.327 287.67 228.327Z" fill="black"/>
<path opacity="0.4" d="M334.846 238.205C334.992 238.143 335.121 238.048 335.224 237.929C335.327 237.81 335.402 237.668 335.442 237.516C335.507 237.755 335.482 238.009 335.373 238.232C335.263 238.454 335.076 238.628 334.846 238.723C332.76 239.763 320.773 240.456 314.856 235.95V235.432C320.773 239.937 332.76 239.245 334.846 238.205Z" fill="white"/>
<path opacity="0.4" d="M280.809 238.897C284.443 239.763 297.491 237.857 298.705 235.776V236.294C297.487 238.375 284.458 240.282 280.809 239.415C279.318 239.053 278.842 238.328 278.991 237.534C279.108 238.121 279.653 238.607 280.809 238.897Z" fill="white"/>
<path opacity="0.1" d="M302.005 112.655C302.005 112.655 298.181 111.441 297.138 112.655C296.095 113.87 287.18 116.715 287.18 116.715" fill="black"/>
<path d="M258.744 65.04H277.334V64.6486H258.744V65.04Z" fill="#8ED16F"/>
<path d="M258.744 65.4316H277.334V65.0402H258.744V65.4316Z" fill="#8ED16F"/>
<path opacity="0.1" d="M258.744 65.4316H277.334V65.0402H258.744V65.4316Z" fill="black"/>
<path d="M258.744 65.8228H277.334V65.4313H258.744V65.8228Z" fill="#8ED16F"/>
<path d="M258.744 66.2109H277.334V65.8194H258.744V66.2109Z" fill="#8ED16F"/>
<path opacity="0.1" d="M258.744 66.2109H277.334V65.8194H258.744V66.2109Z" fill="black"/>
<path d="M258.744 66.6021H277.334V66.2106H258.744V66.6021Z" fill="#8ED16F"/>
<path d="M258.744 66.9902H277.334V66.5988H258.744V66.9902Z" fill="#8ED16F"/>
<path opacity="0.1" d="M258.744 66.9902H277.334V66.5988H258.744V66.9902Z" fill="black"/>
<path d="M258.744 67.3818H277.334V66.9904H258.744V67.3818Z" fill="#8ED16F"/>
<path d="M258.744 67.7695H277.334V67.3781H258.744V67.7695Z" fill="#8ED16F"/>
<path opacity="0.1" d="M258.744 67.7695H277.334V67.3781H258.744V67.7695Z" fill="black"/>
<path d="M258.744 61.9229H277.334V61.5314H258.744V61.9229Z" fill="#8ED16F"/>
<path d="M271.893 52.654L286.186 64.5098L286.437 64.2088L272.144 52.353L271.893 52.654Z" fill="#8ED16F"/>
<path d="M258.862 46.4167L273.155 58.2725L273.406 57.9715L259.113 46.1157L258.862 46.4167Z" fill="#8ED16F"/>
<path d="M258.744 62.3105H277.334V61.9191H258.744V62.3105Z" fill="#8ED16F"/>
<path opacity="0.1" d="M258.744 62.3105H277.334V61.9191H258.744V62.3105Z" fill="black"/>
<path d="M258.744 62.7056H277.334V62.3141H258.744V62.7056Z" fill="#8ED16F"/>
<path d="M258.744 63.0933H277.334V62.7018H258.744V63.0933Z" fill="#8ED16F"/>
<path opacity="0.1" d="M258.744 63.0933H277.334V62.7018H258.744V63.0933Z" fill="black"/>
<path d="M258.744 63.4814H277.334V63.09H258.744V63.4814Z" fill="#8ED16F"/>
<path d="M258.744 63.8726H277.334V63.4811H258.744V63.8726Z" fill="#8ED16F"/>
<path opacity="0.1" d="M258.744 63.8726H277.334V63.4811H258.744V63.8726Z" fill="black"/>
<path d="M258.744 64.2607H277.334V63.8693H258.744V64.2607Z" fill="#8ED16F"/>
<path d="M258.744 64.6523H277.334V64.2609H258.744V64.6523Z" fill="#8ED16F"/>
<path opacity="0.1" d="M258.744 64.6523H277.334V64.2609H258.744V64.6523Z" fill="black"/>
<path d="M256.387 79.8518L263.048 81.0854L265.459 68.1379L258.798 66.9042L256.387 79.8518Z" fill="#8ED16F"/>
<path d="M262.381 74.289C262.661 72.7833 262.277 71.4495 261.523 71.3098C260.769 71.1702 259.931 72.2777 259.65 73.7834C259.37 75.2891 259.754 76.623 260.508 76.7626C261.262 76.9022 262.1 75.7948 262.381 74.289Z" fill="#8ED16F"/>
<path opacity="0.1" d="M262.381 74.289C262.661 72.7833 262.277 71.4495 261.523 71.3098C260.769 71.1702 259.931 72.2777 259.65 73.7834C259.37 75.2891 259.754 76.623 260.508 76.7626C261.262 76.9022 262.1 75.7948 262.381 74.289Z" fill="black"/>
<path d="M257.527 107.181L264.188 108.415L266.598 95.467L259.937 94.2333L257.527 107.181Z" fill="#8ED16F"/>
<path d="M263.517 101.615C263.797 100.109 263.413 98.7751 262.659 98.6355C261.905 98.4959 261.067 99.6033 260.787 101.109C260.506 102.615 260.89 103.949 261.644 104.088C262.398 104.228 263.236 103.12 263.517 101.615Z" fill="#8ED16F"/>
<path opacity="0.1" d="M263.517 101.615C263.797 100.109 263.413 98.7751 262.659 98.6355C261.905 98.4959 261.067 99.6033 260.787 101.109C260.506 102.615 260.89 103.949 261.644 104.088C262.398 104.228 263.236 103.12 263.517 101.615Z" fill="black"/>
<path d="M233.435 40.0074L230.211 45.9497L241.824 52.2172L245.048 46.2749L233.435 40.0074Z" fill="#8ED16F"/>
<path d="M241.207 47.6979C241.575 47.025 240.778 45.8835 239.427 45.1484C238.075 44.4133 236.682 44.3629 236.314 45.0359C235.946 45.7088 236.743 46.8503 238.094 47.5854C239.445 48.3205 240.839 48.3709 241.207 47.6979Z" fill="#8ED16F"/>
<path opacity="0.1" d="M241.207 47.6979C241.575 47.025 240.778 45.8835 239.427 45.1484C238.075 44.4133 236.682 44.3629 236.314 45.0359C235.946 45.7088 236.743 46.8503 238.094 47.5854C239.445 48.3205 240.839 48.3709 241.207 47.6979Z" fill="black"/>
<path d="M207.936 157.278L204.712 163.221L216.325 169.488L219.549 163.546L207.936 157.278Z" fill="#8ED16F"/>
<path d="M214.538 164.783C214.903 164.11 214.104 162.974 212.754 162.245C211.403 161.516 210.013 161.47 209.648 162.143C209.283 162.816 210.082 163.952 211.432 164.681C212.783 165.409 214.174 165.455 214.538 164.783Z" fill="#8ED16F"/>
<path opacity="0.1" d="M214.538 164.783C214.903 164.11 214.104 162.974 212.754 162.245C211.403 161.516 210.013 161.47 209.648 162.143C209.283 162.816 210.082 163.952 211.432 164.681C212.783 165.409 214.174 165.455 214.538 164.783Z" fill="black"/>
<path d="M192.335 60.5025L189.111 66.4448L200.724 72.7123L203.948 66.77L192.335 60.5025Z" fill="#8ED16F"/>
<path d="M198.934 68.0013C199.299 67.3287 198.5 66.1926 197.15 65.4637C195.799 64.7349 194.409 64.6892 194.044 65.3618C193.679 66.0344 194.478 67.1705 195.828 67.8993C197.179 68.6282 198.569 68.6739 198.934 68.0013Z" fill="#8ED16F"/>
<path opacity="0.1" d="M198.934 68.0013C199.299 67.3287 198.5 66.1926 197.15 65.4637C195.799 64.7349 194.409 64.6892 194.044 65.3618C193.679 66.0344 194.478 67.1705 195.828 67.8993C197.179 68.6282 198.569 68.6739 198.934 68.0013Z" fill="black"/>
<path d="M211.889 40.0059L208.665 45.9482L220.277 52.2158L223.502 46.2734L211.889 40.0059Z" fill="#8ED16F"/>
<path d="M218.488 47.5047C218.853 46.8321 218.054 45.696 216.703 44.9671C215.353 44.2383 213.962 44.1926 213.597 44.8652C213.232 45.5378 214.031 46.6739 215.382 47.4028C216.732 48.1316 218.123 48.1773 218.488 47.5047Z" fill="#8ED16F"/>
<path opacity="0.1" d="M218.488 47.5047C218.853 46.8321 218.054 45.696 216.703 44.9671C215.353 44.2383 213.962 44.1926 213.597 44.8652C213.232 45.5378 214.031 46.6739 215.382 47.4028C216.732 48.1316 218.123 48.1773 218.488 47.5047Z" fill="black"/>
<path d="M231.411 64.1904L224.676 64.9248L226.111 78.0157L232.846 77.2813L231.411 64.1904Z" fill="#8ED16F"/>
<path d="M228.974 73.8709C229.737 73.7878 230.219 72.4862 230.052 70.9638C229.885 69.4414 229.132 68.2747 228.37 68.3578C227.608 68.4409 227.125 69.7424 227.292 71.2649C227.459 72.7873 228.212 73.954 228.974 73.8709Z" fill="#8ED16F"/>
<path opacity="0.1" d="M228.974 73.8709C229.737 73.7878 230.219 72.4862 230.052 70.9638C229.885 69.4414 229.132 68.2747 228.37 68.3578C227.608 68.4409 227.125 69.7424 227.292 71.2649C227.459 72.7873 228.212 73.954 228.974 73.8709Z" fill="black"/>
<path d="M277.584 135.874L270.849 136.608L272.285 149.699L279.019 148.965L277.584 135.874Z" fill="#8ED16F"/>
<path d="M275.151 145.554C275.913 145.471 276.395 144.17 276.229 142.647C276.062 141.125 275.308 139.958 274.546 140.041C273.784 140.125 273.301 141.426 273.468 142.948C273.635 144.471 274.388 145.638 275.151 145.554Z" fill="#8ED16F"/>
<path opacity="0.1" d="M275.151 145.554C275.913 145.471 276.395 144.17 276.229 142.647C276.062 141.125 275.308 139.958 274.546 140.041C273.784 140.125 273.301 141.426 273.468 142.948C273.635 144.471 274.388 145.638 275.151 145.554Z" fill="black"/>
<path d="M205.04 91.999L201.816 97.9414L213.428 104.209L216.653 98.2666L205.04 91.999Z" fill="#8ED16F"/>
<path d="M211.637 99.5027C212.002 98.8302 211.203 97.6941 209.852 96.9652C208.502 96.2363 207.111 96.1907 206.746 96.8633C206.381 97.5358 207.18 98.6719 208.531 99.4008C209.881 100.13 211.272 100.175 211.637 99.5027Z" fill="#8ED16F"/>
<path opacity="0.1" d="M211.637 99.5027C212.002 98.8302 211.203 97.6941 209.852 96.9652C208.502 96.2363 207.111 96.1907 206.746 96.8633C206.381 97.5358 207.18 98.6719 208.531 99.4008C209.881 100.13 211.272 100.175 211.637 99.5027Z" fill="black"/>
<path d="M175.736 83.6519L172.511 89.5942L184.124 95.8617L187.348 89.9194L175.736 83.6519Z" fill="#8ED16F"/>
<path d="M183.299 91.55C183.667 90.877 182.87 89.7355 181.519 89.0004C180.167 88.2653 178.773 88.215 178.405 88.8879C178.037 89.5609 178.834 90.7024 180.186 91.4375C181.537 92.1726 182.931 92.223 183.299 91.55Z" fill="#8ED16F"/>
<path opacity="0.1" d="M183.299 91.55C183.667 90.877 182.87 89.7355 181.519 89.0004C180.167 88.2653 178.773 88.215 178.405 88.8879C178.037 89.5609 178.834 90.7024 180.186 91.4375C181.537 92.1726 182.931 92.223 183.299 91.55Z" fill="black"/>
<path d="M166.35 224.188L163.126 230.13L174.738 236.398L177.963 230.456L166.35 224.188Z" fill="#8ED16F"/>
<path d="M172.948 231.688C173.313 231.016 172.514 229.88 171.164 229.151C169.813 228.422 168.423 228.376 168.058 229.049C167.693 229.721 168.492 230.857 169.842 231.586C171.193 232.315 172.583 232.361 172.948 231.688Z" fill="#8ED16F"/>
<path opacity="0.1" d="M172.948 231.688C173.313 231.016 172.514 229.88 171.164 229.151C169.813 228.422 168.423 228.376 168.058 229.049C167.693 229.721 168.492 230.857 169.842 231.586C171.193 232.315 172.583 232.361 172.948 231.688Z" fill="black"/>
<path d="M157.901 226.478L156.665 233.122L169.648 235.524L170.884 228.88L157.901 226.478Z" fill="#8ED16F"/>
<path opacity="0.05" d="M157.901 226.478L156.665 233.122L169.648 235.524L170.884 228.88L157.901 226.478Z" fill="black"/>
<path d="M166.495 231.591C166.635 230.839 165.524 230.003 164.015 229.724C162.505 229.444 161.168 229.828 161.028 230.579C160.888 231.331 161.998 232.167 163.508 232.447C165.018 232.726 166.355 232.343 166.495 231.591Z" fill="#8ED16F"/>
<path opacity="0.1" d="M166.495 231.591C166.635 230.839 165.524 230.003 164.015 229.724C162.505 229.444 161.168 229.828 161.028 230.579C160.888 231.331 161.998 232.167 163.508 232.447C165.018 232.726 166.355 232.343 166.495 231.591Z" fill="black"/>
<path d="M159.117 230.463L157.882 237.106L170.864 239.508L172.1 232.865L159.117 230.463Z" fill="#8ED16F"/>
<path d="M167.708 235.575C167.848 234.823 166.737 233.987 165.227 233.708C163.718 233.428 162.38 233.811 162.24 234.563C162.1 235.315 163.211 236.151 164.721 236.431C166.231 236.71 167.568 236.327 167.708 235.575Z" fill="#8ED16F"/>
<path opacity="0.1" d="M167.708 235.575C167.848 234.823 166.737 233.987 165.227 233.708C163.718 233.428 162.38 233.811 162.24 234.563C162.1 235.315 163.211 236.151 164.721 236.431C166.231 236.71 167.568 236.327 167.708 235.575Z" fill="black"/>
<path d="M180.048 241.268L176.824 247.21L188.437 253.477L191.661 247.535L180.048 241.268Z" fill="#8ED16F"/>
<path d="M186.65 248.768C187.015 248.095 186.216 246.959 184.866 246.23C183.515 245.501 182.125 245.456 181.76 246.128C181.395 246.801 182.194 247.937 183.544 248.666C184.895 249.395 186.285 249.44 186.65 248.768Z" fill="#8ED16F"/>
<path opacity="0.1" d="M186.65 248.768C187.015 248.095 186.216 246.959 184.866 246.23C183.515 245.501 182.125 245.456 181.76 246.128C181.395 246.801 182.194 247.937 183.544 248.666C184.895 249.395 186.285 249.44 186.65 248.768Z" fill="black"/>
<path d="M171.602 243.553L170.366 250.197L183.349 252.599L184.584 245.956L171.602 243.553Z" fill="#8ED16F"/>
<path opacity="0.05" d="M171.602 243.553L170.366 250.197L183.349 252.599L184.584 245.956L171.602 243.553Z" fill="black"/>
<path d="M180.192 248.666C180.332 247.914 179.222 247.078 177.712 246.799C176.202 246.52 174.865 246.903 174.725 247.655C174.585 248.407 175.695 249.243 177.205 249.522C178.715 249.801 180.052 249.418 180.192 248.666Z" fill="#8ED16F"/>
<path opacity="0.1" d="M180.192 248.666C180.332 247.914 179.222 247.078 177.712 246.799C176.202 246.52 174.865 246.903 174.725 247.655C174.585 248.407 175.695 249.243 177.205 249.522C178.715 249.801 180.052 249.418 180.192 248.666Z" fill="black"/>
<path d="M172.817 247.542L171.582 254.185L184.564 256.587L185.8 249.944L172.817 247.542Z" fill="#8ED16F"/>
<path d="M181.411 252.654C181.551 251.902 180.441 251.066 178.931 250.787C177.421 250.507 176.084 250.891 175.944 251.642C175.804 252.394 176.915 253.23 178.424 253.51C179.934 253.789 181.272 253.406 181.411 252.654Z" fill="#8ED16F"/>
<path opacity="0.1" d="M181.411 252.654C181.551 251.902 180.441 251.066 178.931 250.787C177.421 250.507 176.084 250.891 175.944 251.642C175.804 252.394 176.915 253.23 178.424 253.51C179.934 253.789 181.272 253.406 181.411 252.654Z" fill="black"/>
<path d="M200.601 230.261L197.376 236.203L208.989 242.471L212.213 236.528L200.601 230.261Z" fill="#8ED16F"/>
<path d="M207.196 237.76C207.561 237.087 206.762 235.951 205.411 235.222C204.061 234.493 202.67 234.448 202.305 235.12C201.94 235.793 202.739 236.929 204.09 237.658C205.44 238.387 206.831 238.432 207.196 237.76Z" fill="#8ED16F"/>
<path opacity="0.1" d="M207.196 237.76C207.561 237.087 206.762 235.951 205.411 235.222C204.061 234.493 202.67 234.448 202.305 235.12C201.94 235.793 202.739 236.929 204.09 237.658C205.44 238.387 206.831 238.432 207.196 237.76Z" fill="black"/>
<path d="M192.152 232.549L190.917 239.192L203.899 241.594L205.135 234.951L192.152 232.549Z" fill="#8ED16F"/>
<path opacity="0.05" d="M192.152 232.549L190.917 239.192L203.899 241.594L205.135 234.951L192.152 232.549Z" fill="black"/>
<path d="M200.742 237.661C200.882 236.909 199.772 236.073 198.262 235.794C196.752 235.515 195.415 235.898 195.275 236.65C195.135 237.402 196.246 238.238 197.755 238.517C199.265 238.796 200.603 238.413 200.742 237.661Z" fill="#8ED16F"/>
<path opacity="0.1" d="M200.742 237.661C200.882 236.909 199.772 236.073 198.262 235.794C196.752 235.515 195.415 235.898 195.275 236.65C195.135 237.402 196.246 238.238 197.755 238.517C199.265 238.796 200.603 238.413 200.742 237.661Z" fill="black"/>
<path d="M193.368 236.536L192.132 243.18L205.115 245.582L206.35 238.938L193.368 236.536Z" fill="#8ED16F"/>
<path d="M201.962 241.65C202.102 240.898 200.991 240.062 199.481 239.782C197.971 239.503 196.634 239.886 196.494 240.638C196.354 241.39 197.465 242.226 198.975 242.505C200.485 242.785 201.822 242.402 201.962 241.65Z" fill="#8ED16F"/>
<path opacity="0.1" d="M201.962 241.65C202.102 240.898 200.991 240.062 199.481 239.782C197.971 239.503 196.634 239.886 196.494 240.638C196.354 241.39 197.465 242.226 198.975 242.505C200.485 242.785 201.822 242.402 201.962 241.65Z" fill="black"/>
</g>
<defs>
<linearGradient id="paint0_linear_795_506" x1="167.812" y1="224.945" x2="167.812" y2="96.2241" gradientUnits="userSpaceOnUse">
<stop stop-color="#808080" stop-opacity="0.25"/>
<stop offset="0.54" stop-color="#808080" stop-opacity="0.12"/>
<stop offset="1" stop-color="#808080" stop-opacity="0.1"/>
</linearGradient>
<linearGradient id="paint1_linear_795_506" x1="-233516" y1="151735" x2="-233516" y2="41198.3" gradientUnits="userSpaceOnUse">
<stop stop-color="#808080" stop-opacity="0.25"/>
<stop offset="0.54" stop-color="#808080" stop-opacity="0.12"/>
<stop offset="1" stop-color="#808080" stop-opacity="0.1"/>
</linearGradient>
<clipPath id="clip0_795_506">
<rect width="354" height="259" fill="white"/>
</clipPath>
</defs>
</svg>
