<svg width="54" height="54" viewBox="0 0 54 54" fill="none" xmlns="http://www.w3.org/2000/svg">
<path d="M11.25 27H6.75L27 6.75L47.25 27H42.75" stroke="black" stroke-width="3" stroke-linecap="round" stroke-linejoin="round"/>
<path d="M11.25 27V42.75C11.25 43.9435 11.7241 45.0881 12.568 45.932C13.4119 46.7759 14.5565 47.25 15.75 47.25H38.25C39.4435 47.25 40.5881 46.7759 41.432 45.932C42.2759 45.0881 42.75 43.9435 42.75 42.75V27" stroke="black" stroke-width="3" stroke-linecap="round" stroke-linejoin="round"/>
<path d="M20.25 47.25V33.75C20.25 32.5565 20.7241 31.4119 21.568 30.568C22.4119 29.7241 23.5565 29.25 24.75 29.25H29.25C30.4435 29.25 31.5881 29.7241 32.432 30.568C33.2759 31.4119 33.75 32.5565 33.75 33.75V47.25" stroke="black" stroke-width="3" stroke-linecap="round" stroke-linejoin="round"/>
</svg>
