<svg width="34" height="47" viewBox="0 0 34 47" fill="none" xmlns="http://www.w3.org/2000/svg">
<path d="M17.1508 0.337646C11.4781 0.337646 6.86307 5.48016 6.86307 11.8011V16.3865H4.80552C2.53605 16.3865 0.69043 18.4431 0.69043 20.9719V41.6062C0.69043 44.135 2.53605 46.1916 4.80552 46.1916H29.4961C31.7656 46.1916 33.6112 44.135 33.6112 41.6062V20.9719C33.6112 18.4431 31.7656 16.3865 29.4961 16.3865H27.4385V11.8011C27.4385 5.48016 22.8235 0.337646 17.1508 0.337646ZM10.9782 11.8011C10.9782 8.00901 13.7476 4.92304 17.1508 4.92304C20.554 4.92304 23.3234 8.00901 23.3234 11.8011V16.3865H10.9782V11.8011ZM29.5002 41.6062H19.2083V36.3834C20.4326 35.5878 21.2659 34.1251 21.2659 32.4354C21.2659 29.9065 19.4203 27.85 17.1508 27.85C14.8813 27.85 13.0357 29.9065 13.0357 32.4354C13.0357 34.1228 13.869 35.5878 15.0933 36.3834V41.6062H4.80552V20.9719H29.4961L29.5002 41.6062Z" fill="black"/>
</svg>
