<svg width="23" height="53" viewBox="0 0 23 53" fill="none" xmlns="http://www.w3.org/2000/svg">
<path d="M11.5 4.57154C12.5164 4.57154 13.4911 4.9753 14.2098 5.694C14.9285 6.41269 15.3323 7.38745 15.3323 8.40383C15.3323 9.42022 14.9285 10.395 14.2098 11.1137C13.4911 11.8324 12.5164 12.2361 11.5 12.2361C10.4836 12.2361 9.50886 11.8324 8.79016 11.1137C8.07147 10.395 7.66771 9.42022 7.66771 8.40383C7.66771 7.38745 8.07147 6.41269 8.79016 5.694C9.50886 4.9753 10.4836 4.57154 11.5 4.57154ZM11.5 0.739258C9.46723 0.739258 7.51771 1.54677 6.08033 2.98416C4.64294 4.42155 3.83543 6.37106 3.83543 8.40383C3.83543 10.4366 4.64294 12.3861 6.08033 13.8235C7.51771 15.2609 9.46723 16.0684 11.5 16.0684C13.5328 16.0684 15.4823 15.2609 16.9197 13.8235C18.3571 12.3861 19.1646 10.4366 19.1646 8.40383C19.1646 6.37106 18.3571 4.42155 16.9197 2.98416C15.4823 1.54677 13.5328 0.739258 11.5 0.739258ZM16.2137 17.9462H6.78629C4.98729 17.9462 3.26197 18.6609 1.98988 19.933C0.717792 21.2051 0.00314075 22.9304 0.00314075 24.7294V34.8466C-0.0387375 35.9115 0.339542 36.9502 1.05642 37.7388C1.77331 38.5274 2.77137 39.0026 3.83543 39.0621V47.9914C3.83543 49.211 4.31994 50.3807 5.18237 51.2432C6.0448 52.1056 7.21451 52.5901 8.43417 52.5901H14.5658C15.1829 52.5904 15.7937 52.4666 16.3618 52.226C16.93 51.9853 17.444 51.6328 17.8731 51.1894C18.3022 50.746 18.6376 50.2208 18.8595 49.645C19.0814 49.0693 19.1851 48.4548 19.1646 47.8381V39.0621C20.2286 39.0026 21.2267 38.5274 21.9436 37.7388C22.6605 36.9502 23.0387 35.9115 22.9969 34.8466V24.7294C22.9969 22.9304 22.2822 21.2051 21.0101 19.933C19.738 18.6609 18.0127 17.9462 16.2137 17.9462ZM3.83543 35.2298V24.7294C3.83028 24.3404 3.90308 23.9544 4.04955 23.5941C4.19602 23.2337 4.41319 22.9064 4.68823 22.6313C4.96328 22.3563 5.29063 22.1391 5.65098 21.9926C6.01132 21.8462 6.39735 21.7734 6.78629 21.7785H16.2137C16.6027 21.7734 16.9887 21.8462 17.349 21.9926C17.7094 22.1391 18.0367 22.3563 18.3118 22.6313C18.5868 22.9064 18.804 23.2337 18.9504 23.5941C19.0969 23.9544 19.1697 24.3404 19.1646 24.7294V35.2298H15.3323V47.9147C15.3323 48.118 15.2515 48.3129 15.1078 48.4567C14.9641 48.6004 14.7691 48.6812 14.5658 48.6812H8.43417C8.23089 48.6812 8.03594 48.6004 7.8922 48.4567C7.74846 48.3129 7.66771 48.118 7.66771 47.9147V35.2298H3.83543Z" fill="black"/>
</svg>
