<svg width="19" height="24" viewBox="0 0 19 24" fill="none" xmlns="http://www.w3.org/2000/svg">
<path d="M18 9.84497C18 16.7244 9.5 22.621 9.5 22.621C9.5 22.621 1 16.7244 1 9.84497C1 7.49914 1.89553 5.24939 3.48959 3.59063C5.08365 1.93188 7.24566 1 9.5 1C11.7543 1 13.9163 1.93188 15.5104 3.59063C17.1045 5.24939 18 7.49914 18 9.84497Z" stroke="black" stroke-width="2" stroke-linecap="round" stroke-linejoin="round"/>
<path d="M9.49996 12.7934C11.0648 12.7934 12.3333 11.4734 12.3333 9.84505C12.3333 8.21674 11.0648 6.89673 9.49996 6.89673C7.93515 6.89673 6.66663 8.21674 6.66663 9.84505C6.66663 11.4734 7.93515 12.7934 9.49996 12.7934Z" stroke="black" stroke-width="2" stroke-linecap="round" stroke-linejoin="round"/>
</svg>
