<svg width="21" height="21" viewBox="0 0 21 21" fill="none" xmlns="http://www.w3.org/2000/svg">
<path fill-rule="evenodd" clip-rule="evenodd" d="M10.4167 19.7917C15.5943 19.7917 19.7917 15.5943 19.7917 10.4167C19.7917 5.23906 15.5943 1.04167 10.4167 1.04167C5.23906 1.04167 1.04167 5.23906 1.04167 10.4167C1.04167 15.5943 5.23906 19.7917 10.4167 19.7917ZM10.4167 20.8333C16.1698 20.8333 20.8333 16.1698 20.8333 10.4167C20.8333 4.66354 16.1698 0 10.4167 0C4.66354 0 0 4.66354 0 10.4167C0 16.1698 4.66354 20.8333 10.4167 20.8333Z" fill="black"/>
<path d="M4.16663 16.4738C4.16663 15.9357 4.56871 15.4811 5.10413 15.4217C9.12235 14.9769 11.7291 15.017 15.7385 15.4316C15.9387 15.4526 16.1285 15.5315 16.2846 15.6586C16.4407 15.7857 16.5565 15.9555 16.6177 16.1473C16.6789 16.3391 16.6829 16.5445 16.6292 16.7386C16.5756 16.9326 16.4666 17.1068 16.3156 17.2399C11.5838 21.3644 8.87965 21.3076 4.49996 17.2441C4.28642 17.0462 4.16663 16.7649 4.16663 16.4743V16.4738Z" fill="black"/>
<path fill-rule="evenodd" clip-rule="evenodd" d="M15.6849 15.9495C11.7073 15.538 9.13806 15.4995 5.16098 15.9396C4.89327 15.9693 4.68754 16.1979 4.68754 16.4745C4.68754 16.6235 4.74952 16.7646 4.85421 16.8625C7.02504 18.8761 8.66983 19.786 10.2776 19.7917C11.8912 19.7974 13.6245 18.8948 15.9735 16.8479C16.0481 16.7815 16.1018 16.6949 16.1281 16.5985C16.1544 16.5021 16.1521 16.4001 16.1216 16.305C16.091 16.2099 16.0335 16.1257 15.956 16.0627C15.8784 15.9997 15.7843 15.9605 15.6849 15.95V15.9495ZM5.04692 14.9042C9.10733 14.4547 11.7521 14.4953 15.7927 14.9136C16.0939 14.945 16.3794 15.0636 16.6143 15.2548C16.8491 15.446 17.0231 15.7015 17.115 15.9901C17.2069 16.2786 17.2126 16.5877 17.1315 16.8795C17.0504 17.1713 16.886 17.4331 16.6584 17.6328C14.2756 19.7099 12.2912 20.8412 10.2745 20.8334C8.25213 20.8261 6.35525 19.6755 4.1464 17.6261C3.98825 17.4788 3.86218 17.3004 3.77606 17.1022C3.68994 16.904 3.64562 16.6901 3.64588 16.474C3.64512 16.0857 3.78765 15.7107 4.04617 15.421C4.30469 15.1312 4.66103 14.947 5.04692 14.9037V14.9042Z" fill="black"/>
<path d="M14.5833 8.33384C14.5833 9.43891 14.1443 10.4987 13.3629 11.2801C12.5815 12.0615 11.5217 12.5005 10.4167 12.5005C9.3116 12.5005 8.25179 12.0615 7.47039 11.2801C6.68899 10.4987 6.25 9.43891 6.25 8.33384C6.25 7.22877 6.68899 6.16897 7.47039 5.38756C8.25179 4.60616 9.3116 4.16718 10.4167 4.16718C11.5217 4.16718 12.5815 4.60616 13.3629 5.38756C14.1443 6.16897 14.5833 7.22877 14.5833 8.33384Z" fill="black"/>
<path fill-rule="evenodd" clip-rule="evenodd" d="M10.4167 11.4588C11.2455 11.4588 12.0403 11.1296 12.6264 10.5436C13.2124 9.9575 13.5417 9.16264 13.5417 8.33384C13.5417 7.50504 13.2124 6.71018 12.6264 6.12413C12.0403 5.53808 11.2455 5.20884 10.4167 5.20884C9.58787 5.20884 8.79301 5.53808 8.20696 6.12413C7.62091 6.71018 7.29167 7.50504 7.29167 8.33384C7.29167 9.16264 7.62091 9.9575 8.20696 10.5436C8.79301 11.1296 9.58787 11.4588 10.4167 11.4588ZM10.4167 12.5005C11.5217 12.5005 12.5815 12.0615 13.3629 11.2801C14.1443 10.4987 14.5833 9.43891 14.5833 8.33384C14.5833 7.22877 14.1443 6.16897 13.3629 5.38756C12.5815 4.60616 11.5217 4.16718 10.4167 4.16718C9.3116 4.16718 8.25179 4.60616 7.47039 5.38756C6.68899 6.16897 6.25 7.22877 6.25 8.33384C6.25 9.43891 6.68899 10.4987 7.47039 11.2801C8.25179 12.0615 9.3116 12.5005 10.4167 12.5005Z" fill="black"/>
</svg>
