<svg width="77" height="78" viewBox="0 0 77 78" fill="none" xmlns="http://www.w3.org/2000/svg">
<path d="M20.3514 67.0376L21.6101 67.6701C26.8557 70.8322 32.7301 72.3079 38.6049 72.3079C57.0681 72.3079 72.1743 57.1296 72.1743 38.5782C72.1743 29.7243 68.6074 21.081 62.3133 14.7566C56.019 8.43214 47.6264 4.8485 38.6049 4.8485C20.1418 4.8485 5.03525 20.0268 5.24519 38.7891C5.24519 45.1133 7.13347 51.227 10.2805 56.497L11.1197 57.7621L7.76299 70.2L20.3514 67.0376Z" fill="#00E676"/>
<path d="M65.88 11.3838C58.7465 4.00553 48.8855 0 38.8146 0C17.4144 0 0.209942 17.4972 0.419583 38.7891C0.419583 45.5351 2.30786 52.0704 5.45518 57.9729L0 78L20.3514 72.7297C26.0163 75.8921 32.3103 77.3678 38.605 77.3678C59.7956 77.3678 77 59.8702 77 38.5787C77 28.2488 73.0132 18.5514 65.88 11.3838ZM38.8146 70.8327C33.1498 70.8327 27.485 69.3573 22.6593 66.4059L21.4006 65.7734L9.23174 68.9354L12.3788 56.9194L11.5396 55.6544C2.30786 40.687 6.71393 20.8702 21.8201 11.5944C36.9263 2.31888 56.4386 6.746 65.6703 21.9244C74.9018 37.1027 70.4957 56.7082 55.3898 65.984C50.5638 69.1461 44.6894 70.8327 38.8146 70.8327ZM57.2778 47.433L54.9699 46.3788C54.9699 46.3788 51.6133 44.9031 49.515 43.849C49.3051 43.849 49.0955 43.6381 48.8855 43.6381C48.256 43.6381 47.8364 43.849 47.4168 44.06C47.4168 44.06 47.2072 44.2706 44.2698 47.6436C44.0599 48.0652 43.6403 48.2761 43.2207 48.2761H43.0107C42.8011 48.2761 42.3815 48.0652 42.1716 47.8545L41.1225 47.433C38.8146 46.3788 36.7167 45.1138 35.0381 43.4274C34.6185 43.0058 33.989 42.5842 33.5694 42.1627C32.1007 40.687 30.632 39.0003 29.5832 37.103L29.3732 36.6814C29.1636 36.4705 29.1636 36.2598 28.9537 35.8382C28.9537 35.4167 28.9537 34.9951 29.1636 34.7841C29.1636 34.7841 30.0028 33.73 30.632 33.0978C31.0519 32.6759 31.2615 32.0437 31.6811 31.6221C32.1007 30.9895 32.3106 30.1464 32.1007 29.5138C31.891 28.4597 29.3732 22.7678 28.744 21.5031C28.3241 20.8705 27.9048 20.6599 27.2753 20.4489H24.9675C24.5476 20.4489 24.1283 20.6599 23.7084 20.6599L23.4985 20.8705C23.0789 21.0815 22.6593 21.5031 22.2397 21.7137C21.8201 22.1356 21.6102 22.5569 21.1906 22.9788C19.7219 24.8761 18.8828 27.1949 18.8828 29.5138C18.8828 31.2002 19.3023 32.8868 19.9319 34.3625L20.1418 34.9951C22.0301 39.0003 24.5476 42.5842 27.9048 45.7463L28.744 46.5895C29.3732 47.222 30.0028 47.6436 30.4223 48.2758C34.8284 52.0707 39.8637 54.8112 45.5285 56.2869C46.1581 56.4975 46.9972 56.4975 47.6268 56.7085H49.7247C50.7738 56.7085 52.0325 56.2869 52.872 55.8653C53.5012 55.4437 53.9208 55.4437 54.3404 55.0221L54.7603 54.6002C55.1799 54.1787 55.5994 53.968 56.019 53.5464C56.4386 53.1248 56.8582 52.7032 57.0681 52.2814C57.4877 51.4382 57.6974 50.3841 57.9073 49.3302V47.8545C57.9073 47.8545 57.6974 47.6436 57.2778 47.433Z" fill="white"/>
</svg>
